<svg xmlns="http://www.w3.org/2000/svg" width="40" height="52" fill="none"><path fill="url(#a)" d="M11.316 51.314c-.202-.27-.441-.519-.603-.81-.985-1.78-1.955-3.569-2.949-5.393-1.233.44-2.45.871-3.664 1.306-.756.271-1.512.545-2.267.824-.384.142-.764.245-1.1-.091-.335-.335-.24-.702-.09-1.094 1.808-4.737 3.603-9.479 5.418-14.213.146-.382.112-.568-.235-.838-1.552-1.2-2.203-2.806-1.822-4.737.299-1.515-.058-2.716-1.23-3.752a4.74 4.74 0 0 1-.005-7.109c1.172-1.036 1.548-2.237 1.23-3.75C3.416 8.9 5.43 6.196 8.249 5.936c1.495-.138 2.532-.841 3.17-2.214 1.27-2.734 4.397-3.706 7.026-2.207 1.238.706 2.45.704 3.69.003 2.668-1.509 5.75-.532 7.05 2.245.616 1.312 1.613 2.012 3.048 2.163 2.99.314 4.913 2.885 4.333 5.825-.288 1.46.082 2.626 1.209 3.618 2.165 1.904 2.194 5.235.04 7.145-1.173 1.039-1.537 2.233-1.237 3.75.384 1.951-.283 3.564-1.853 4.772-.31.24-.354.413-.221.76 1.797 4.689 3.579 9.383 5.364 14.075.048.123.142.249.132.367-.025.307.003.709-.176.885-.18.176-.621.244-.88.157-1.541-.51-3.064-1.079-4.593-1.627-.493-.176-.986-.353-1.513-.54-.095.16-.191.31-.275.465-.897 1.643-1.785 3.29-2.692 4.927-.162.291-.4.541-.604.81h-.592c-.194-.292-.45-.56-.573-.879-1.694-4.41-3.368-8.827-5.05-13.24-.062-.164-.13-.39-.258-.452-.617-.297-1.236-.623-1.894-.797-.878-.231-1.698.062-2.505.464-.545.271-.83.638-1.038 1.193a1713.797 1713.797 0 0 1-4.877 12.833c-.122.32-.378.587-.573.879l-.59-.001Zm23.809-40.53c-.033-.268-.041-.5-.092-.722-.319-1.395-1.413-2.406-2.846-2.55-2.118-.211-3.595-1.253-4.489-3.197-.829-1.802-2.904-2.43-4.677-1.491-.376.198-.755.409-1.156.54-1.492.488-2.9.263-4.263-.502-1.781-1-3.881-.367-4.715 1.448-.902 1.963-2.398 2.992-4.535 3.208-1.913.193-3.209 2.026-2.803 3.906.44 2.033-.107 3.715-1.668 5.096-1.522 1.347-1.515 3.543.014 4.895 1.548 1.369 2.08 3.04 1.673 5.055-.092.454-.095.96.001 1.412.313 1.483 1.389 2.352 3.146 2.578 1.923.248 3.27 1.247 4.088 2.996.919 1.968 2.968 2.636 4.866 1.577 1.754-.98 3.485-.97 5.251-.013.476.26 1.04.44 1.577.487 1.435.122 2.647-.662 3.283-2.048.703-1.536 1.857-2.518 3.502-2.903.398-.093.815-.098 1.216-.184a3.258 3.258 0 0 0 2.53-3.899c-.427-1.991.089-3.663 1.62-5.021.255-.227.493-.49.676-.776.889-1.393.595-3.076-.722-4.256-1.43-1.281-1.966-2.862-1.615-4.748.056-.306.096-.614.138-.889Zm-19.26 26.344c-.153-.014-.25-.02-.347-.032-1.853-.212-3.28-1.097-4.052-2.808-.747-1.655-2.018-2.322-3.773-2.33L2.638 45.257c.297-.1.467-.153.635-.214 1.466-.528 2.931-1.06 4.4-1.584.63-.225.926-.11 1.252.483.625 1.136 1.242 2.278 1.863 3.415l.698 1.275 4.38-11.503Zm17.015-5.197c-.238.025-.416.049-.596.063-1.477.12-2.518.842-3.117 2.21a4.702 4.702 0 0 1-.547.932c-.959 1.278-2.278 1.887-3.902 1.991l4.373 11.49c.122-.207.205-.343.281-.482.755-1.384 1.507-2.768 2.264-4.15.357-.656.62-.757 1.321-.507 1.484.53 2.965 1.065 4.447 1.595.146.053.296.091.535.162l-5.06-13.304Z"/><path fill="url(#b)" d="M8.455 18.956c.003-6.54 5.316-11.838 11.864-11.83 6.513.008 11.82 5.329 11.808 11.837-.012 6.543-5.315 11.83-11.868 11.834-6.497.004-11.807-5.322-11.804-11.841Zm1.58.048C10.02 24.6 14.636 29.2 20.285 29.22c5.612.018 10.25-4.591 10.263-10.203.015-5.631-4.546-10.286-10.103-10.312-5.796-.028-10.396 4.524-10.41 10.3Z"/><path fill="url(#c)" d="M15.704 24.245c.193-1.126.406-2.288.579-3.457.029-.2-.056-.488-.195-.632a86.882 86.882 0 0 0-2.36-2.31c-.298-.285-.475-.596-.327-1.007.143-.398.496-.483.87-.536 1.073-.15 2.147-.293 3.214-.479a.851.851 0 0 0 .534-.386c.506-.957.98-1.931 1.449-2.907.17-.351.395-.617.805-.625.435-.008.67.27.847.638a92 92 0 0 0 1.448 2.908c.087.166.311.33.496.362 1.083.186 2.174.335 3.261.491.374.054.72.15.858.552.142.414-.048.722-.342 1.003-.784.748-1.55 1.516-2.339 2.262-.213.201-.281.387-.223.688.209 1.095.409 2.195.548 3.302.036.28-.09.649-.273.867-.249.297-.617.204-.95.026-.955-.51-1.924-.995-2.872-1.519-.307-.17-.54-.185-.856-.012a87.088 87.088 0 0 1-2.963 1.558c-.636.318-1.252-.073-1.209-.787Zm1.833-1.324c.749-.392 1.454-.738 2.135-1.125.434-.246.82-.238 1.25.004.678.38 1.376.725 2.126 1.117-.137-.79-.226-1.509-.392-2.207-.147-.62.02-1.059.488-1.48.53-.476.992-1.027 1.497-1.56-.558-.086-1.124-.243-1.69-.245-.999-.004-1.559-.484-1.883-1.392-.186-.525-.487-1.009-.778-1.591-.409.829-.768 1.545-1.117 2.267-.17.354-.426.551-.828.603-.808.102-1.611.238-2.386.356.564.596 1.108 1.184 1.668 1.754.285.291.42.593.334 1.016-.162.8-.278 1.61-.424 2.483Z"/><defs><linearGradient id="a" x1="1.312" x2="44.031" y1="50.38" y2="22.975" gradientUnits="userSpaceOnUse"><stop stop-color="#1723FF"/><stop offset="1" stop-color="#30E35E"/></linearGradient><linearGradient id="b" x1="8.938" x2="30.541" y1="30.359" y2="12.637" gradientUnits="userSpaceOnUse"><stop stop-color="#1723FF"/><stop offset="1" stop-color="#30E35E"/></linearGradient><linearGradient id="c" x1="13.631" x2="25.832" y1="24.925" y2="14.449" gradientUnits="userSpaceOnUse"><stop stop-color="#1723FF"/><stop offset="1" stop-color="#30E35E"/></linearGradient></defs></svg>