<svg xmlns="http://www.w3.org/2000/svg" width="51" height="51" fill="none"><path fill="url(#a)" d="M50.963 41.749c-.039-1.11-.057-2.268-.777-3.232a10.21 10.21 0 0 0-2.092-2.064c-1.062-.795-2.284-1.246-3.54-1.72 1.514-1.304 2.65-2.799 2.945-4.804.103-.268-.013-.558.043-.807.323-1.44-.102-2.744-.726-3.988-.314-.625-.458-1.242-.392-1.915.025-.253.048-.495 0-.746-.075-.39.043-.629.462-.78.67-.24 1.355-.479 1.931-.917 1.302-.987 1.322-2.406.988-3.757-.46-1.85-1.156-3.631-2.382-5.156-.742-.924-2.012-1.395-3.148-1.044-.57.178-1.12.42-1.673.653-.315.133-.544.118-.764-.187-.639-.883-1.448-1.613-2.229-2.364-1.119-1.075-1.126-1.068-.57-2.522.6-1.57.413-2.717-.898-3.788-1.8-1.473-3.934-2.316-6.235-2.567-1.311-.143-2.364.51-2.975 1.733-.205.412-.39.84-.53 1.275-.145.458-.411.634-.877.54-1.004-.205-2.023-.074-3.035-.122-.547-.026-1.184.4-1.6.015-.369-.346-.472-.976-.7-1.479C21.57.635 20.276-.176 18.87.033c-2.01.3-3.866 1.088-5.554 2.186-1.688 1.097-2.027 2.526-1.26 4.389.115.277.213.561.346.83.157.32.113.563-.181.781-.877.649-1.58 1.48-2.363 2.23-.38.365-.575 1.06-1.079 1.095-.474.035-.98-.344-1.471-.54-1.546-.617-2.933-.26-3.913 1.074-1.15 1.563-1.843 3.35-2.264 5.226-.447 1.988.248 3.228 2.103 4.038.338.148.68.284 1.025.416.187.07.379.175.323.384-.273 1.038.078 2.14-.48 3.173-.7 1.297-.962 2.726-.626 4.21.117 2.22 1.389 3.788 2.971 5.216-.966.32-1.881.688-2.738 1.176-2.336 1.332-3.837 3.16-3.7 6.044.085 1.799.014 3.602.018 5.404.002 1.07.342 1.417 1.394 1.417 3.555.002 7.107.013 10.662-.01.55-.004.708.155.697.7-.025 1.247.289 1.528 1.548 1.528h22.36c1.26 0 1.568-.277 1.54-1.536-.013-.558.168-.694.705-.693 3.577.023 7.154.013 10.73.01.933 0 1.315-.372 1.317-1.287.005-1.91.051-3.83-.017-5.745Zm-7.548-8.99c-3.05 2.557-7.323 1.158-8.677-2.329-.064-.168-.153-.327-.229-.491h-2.775c-.89 1.892-2.245 3.274-4.269 3.945-2.76.915-6.062-.305-7.554-2.805-.199-.335-.4-.667-.602-1.002-.463-1.428-.596-2.853-.195-4.34 1.102-4.094 6.145-6.129 9.73-3.88 2.205 1.383 3.331 3.38 3.3 5.997-.01.715-.247 1.395-.413 2.085h2.775c-.652-2.883.871-5.171 2.609-6.163 3.292-1.884 7.286-.132 8.19 3.566.215.874.139 1.732-.009 2.595-.424 1.075-.967 2.055-1.881 2.821ZM35.3 34.715c-.756.332-1.463.637-2.164.953-.144.065-.263.026-.396-.02-.71-.253-1.421-.503-2.22-.786.948-.796 1.825-1.61 2.536-2.746.615 1.054 1.298 1.906 2.244 2.599Zm-17.948-10.78c-.378-.384-.753-.772-1.137-1.151-.514-.506-1.099-.933-1.764-1.196-.607-.24-.653-.565-.432-1.11 1.9-4.674 5.305-7.41 10.335-8.019 5.66-.684 10.938 3.077 12.663 8.126.166.484.125.743-.38.955-1.215.512-2.115 1.447-3.018 2.454-.792-1.5-1.756-2.766-3.115-3.703-4.071-2.802-9.453-1.815-12.254 2.262-.312.455-.599.922-.898 1.382Zm.599 8.216c.718 1.05 1.52 1.919 2.553 2.685-.809.294-1.545.564-2.286.825a.504.504 0 0 1-.325.009c-.716-.298-1.427-.61-2.197-.944.962-.69 1.61-1.595 2.255-2.575ZM3.978 19.24c-.63-.256-.854-.702-.705-1.38.321-1.456.93-2.794 1.653-4.08.495-.884.88-.974 1.818-.584.597.247 1.193.491 1.782.754.792.35 1.228.273 1.734-.438.7-.983 1.533-1.84 2.347-2.722.522-.566 1.183-.946 1.78-1.41.757-.59.87-.965.491-1.83-.305-.697-.567-1.412-.877-2.107-.203-.454-.105-.846.264-1.108 1.466-1.037 3.069-1.758 4.865-1.996.506-.067.826.144 1.012.628.275.71.615 1.394.875 2.109.252.693.698.992 1.426.9.502-.063 1.008-.09 1.508-.165 1.478-.22 2.938-.048 4.4.146.998.131 1.299-.068 1.686-1.007.28-.682.582-1.356.855-2.042.17-.423.458-.58.91-.577 1.225.012 2.251.627 3.339 1.052.49.192.96.44 1.39.765.536.403.717.85.41 1.49-.32.665-.58 1.356-.873 2.032-.3.686-.205 1.148.382 1.575 1.654 1.201 3.104 2.602 4.295 4.27.506.708.943.788 1.736.437.673-.298 1.36-.568 2.034-.869.552-.248 1.014-.118 1.33.359.938 1.419 1.564 2.979 1.922 4.636.107.495-.137.9-.628 1.109-.572.244-1.145.486-1.719.724-1.398.58-1.41.597-1.317 2.135-1.364-.86-2.814-1.322-4.401-1.251-.377.016-.38-.289-.453-.505-.816-2.48-2.14-4.635-4.084-6.388-2.292-2.066-4.965-3.277-8.04-3.663-6.626-.832-13.407 3.602-15.35 10.009-.097.316-.18.578-.634.554-1.298-.068-2.51.29-3.641.906-.456.247-.617.192-.56-.346.068-.647-.262-1.038-.847-1.266-.71-.275-1.411-.567-2.115-.855Zm1.954 11.183c-.107-.301-.223-.6-.334-.898-.246-2.094.417-3.852 1.974-5.263 1.745-1.584 4.84-1.675 6.713-.228 2.015 1.554 2.694 3.582 2.18 6.045-.505 1.207-1.194 2.27-2.289 3.032-2.9 2.02-7.059.666-8.244-2.688Zm6.83 12.012c0 1.177-.022 2.356.011 3.531.015.499-.166.625-.637.617-1.545-.024-3.09-.009-4.636-.009-1.57 0-3.137-.011-4.707.008-.408.003-.572-.106-.567-.544.022-1.615-.031-3.234.024-4.847.05-1.429.933-2.384 2.087-3.066 3.351-1.98 6.916-2.29 10.626-1.233.179.052.47.032.502.278.026.201-.242.245-.371.367-1.416 1.325-2.33 2.894-2.332 4.898Zm22.49 6.373c-3.252-.035-6.504-.016-9.757-.016-3.276 0-6.55-.011-9.825.01-.53.004-.722-.121-.709-.689.037-1.73.043-3.463.01-5.192-.047-2.309 1.224-3.683 3.12-4.716 1.887-1.028 3.953-1.516 6.017-1.763 1.42-.17 2.93-.048 4.397.266 1.931.414 3.765 1.025 5.41 2.129 1.422.951 2.147 2.285 2.12 4.026-.028 1.708-.03 3.417.009 5.125.013.617-.133.828-.792.82Zm12.747-2.221c-1.497-.039-2.996-.013-4.494-.013-.6 0-1.198.015-1.798-.004-1.123-.033-2.251.093-3.37-.07-.214-1.116-.024-2.243-.102-3.363-.047-.682-.14-1.362-.23-2.038-.2-1.505-1.068-2.614-2.146-3.597-.116-.105-.336-.153-.327-.327.013-.238.277-.216.432-.26 3.998-1.16 7.78-.715 11.264 1.624 1.034.695 1.554 1.722 1.541 3.003-.014 1.43-.036 2.862.013 4.29.026.637-.193.77-.782.755Z"/><defs><linearGradient id="a" x1="0" x2="51" y1="51.001" y2="51.001" gradientUnits="userSpaceOnUse"><stop stop-color="#1723FF"/><stop offset="1" stop-color="#30E35E"/></linearGradient></defs></svg>