<svg xmlns="http://www.w3.org/2000/svg" width="52" height="40" fill="none"><path fill="url(#a)" d="M52 12.305c-1.194 1.033-2.341 2.125-3.596 3.083-1.23.938-2.123 2.05-2.724 3.451-.64 1.496-1.43 2.933-2.133 4.405-.077.161-.088.416-.012.572 1.187 2.404-.309 4.926-3.063 5.143-.032.003-.064.017-.134.035-.225 2.119-1.425 3.336-3.648 3.553-.23 2.274-1.731 3.402-3.647 3.543-.157 3.23-4.014 4.707-6.43 2.37-1.023 1.159-2.276 1.811-3.89 1.432-1.604-.377-2.475-1.44-2.787-3.032-.318 0-.637.03-.95-.005-1.715-.198-2.963-1.427-3.16-3.097-.027-.236-.027-.42-.371-.463-2.115-.27-3.33-1.671-3.28-3.733.003-.066 0-.13 0-.224-.11-.031-.217-.069-.328-.091-2.58-.526-3.738-3.396-2.187-5.47.207-.277.212-.439-.001-.712-1.365-1.756-2.696-3.536-4.069-5.285-.302-.386-.712-.697-1.093-1.019-1.303-1.097-2.618-2.182-3.924-3.276-.713-.597-.755-1.045-.156-1.765C3.51 8.003 6.602 4.288 9.697.573c.564-.678.968-.738 1.744-.261 1.586.974 3.16 1.966 4.759 2.92.466.278.982.507 1.507.657 1.572.448 3.156.855 4.742 1.255.245.062.539.056.785-.009 1.385-.365 2.772-.731 4.14-1.15a8.444 8.444 0 0 1 2.64-.362c1.896.028 3.791.017 5.687 0 .252-.003.536-.082.75-.212 1.678-1.016 3.343-2.054 5.012-3.084.82-.506 1.217-.44 1.81.306 2.777 3.496 5.553 6.995 8.33 10.492.13.165.263.328.395.492.002.228.002.458.002.688ZM25.345 31.803c.027.02.053.05.082.056 2.199.36 3.594 2.717 2.642 4.847-.04.092-.015.271.053.341.447.456.986.693 1.644.527 1.175-.296 1.561-1.649.703-2.543-.748-.78-1.545-1.518-2.313-2.281-.408-.406-.492-.835-.265-1.248.33-.605 1.121-.699 1.674-.174.773.735 1.527 1.489 2.288 2.237.437.43.958.613 1.569.46 1.196-.297 1.568-1.674.671-2.576-1.303-1.311-2.638-2.593-3.958-3.888-.167-.162-.342-.32-.488-.5a.961.961 0 0 1 .058-1.302c.367-.364.953-.394 1.382-.06.131.101.247.223.365.34 1.333 1.306 2.667 2.612 3.996 3.921.46.452.986.694 1.645.515 1.22-.33 1.543-1.702.61-2.62-2.088-2.058-4.187-4.107-6.28-6.16-.13-.128-.329-.253-.358-.404-.065-.332-.166-.75-.017-1.002.15-.253.58-.46.897-.474.28-.012.628.218.851.433 2.12 2.052 4.216 4.127 6.33 6.185.728.71 1.697.735 2.341.094.633-.63.59-1.541-.126-2.236-3.91-3.797-7.822-7.592-11.745-11.376-.17-.164-.456-.274-.698-.295-1.213-.107-2.431-.157-3.644-.267-.36-.032-.539.057-.713.364a161.564 161.564 0 0 1-2.323 3.98 3.617 3.617 0 0 1-3.993 1.66c-2.346-.586-3.431-3.062-2.234-5.158 1.172-2.05 2.38-4.08 3.572-6.12.099-.168.19-.34.304-.548-.877-.235-1.709-.447-2.531-.688-.338-.1-.54-.029-.768.242-1.941 2.318-3.9 4.621-5.853 6.93-1.083 1.28-2.164 2.561-3.263 3.862l3.93 5.133c1.994-1.61 5.266-.986 6.011 2.056 1.105-.157 2.146.006 3.04.72.893.71 1.289 1.652 1.334 2.742 2.491.174 3.918 2.006 3.578 4.276Zm16.44-9.652c.18-.334.252-.46.315-.59.788-1.596 1.564-3.198 2.37-4.786.164-.322.1-.525-.11-.783a2779.1 2779.1 0 0 1-8.16-10.06c-.2-.248-.402-.337-.72-.335-2.013.014-4.028 0-6.042.013a3.891 3.891 0 0 0-.996.132c-2.129.586-4.249 1.2-6.38 1.778-.38.103-.603.288-.784.613-.498.894-1.028 1.771-1.544 2.656-.658 1.127-1.328 2.248-1.968 3.385-.5.888-.145 1.855.773 2.201.751.285 1.525-.006 1.972-.766.907-1.538 1.81-3.076 2.698-4.624.28-.487.659-.707 1.238-.664 1.704.126 3.408.238 5.114.34.486.03.851.22 1.194.554 3.546 3.455 7.104 6.898 10.653 10.35.143.139.219.336.377.586ZM10.875 2.302 2.444 12.435l3.592 2.993 8.957-10.584-4.116-2.542Zm38.709 9.518-7.545-9.504-4.117 2.545 8.07 9.955 3.592-2.997ZM15.91 31.347c.15-.057.515-.092.727-.287.948-.864 1.888-1.741 2.76-2.678.535-.577.395-1.49-.18-2.006-.563-.505-1.465-.557-2.038-.037a54.974 54.974 0 0 0-2.618 2.54c-.443.459-.476 1.046-.2 1.611.27.553.751.825 1.549.857Zm1.832 2c.123.69.421 1.158 1.015 1.419.615.27 1.208.183 1.693-.267a71.53 71.53 0 0 0 2.442-2.365c.642-.654.616-1.577-.008-2.167-.622-.588-1.553-.568-2.228.07-.788.745-1.58 1.486-2.324 2.27-.267.286-.397.69-.59 1.04Zm8.58 1.693c-.006-.345-.266-.795-.804-1.074-.557-.289-1.14-.282-1.616.107a13.25 13.25 0 0 0-1.61 1.553c-.414.477-.412 1.067-.104 1.614.3.532.791.788 1.421.77.966-.028 2.71-1.785 2.712-2.97ZM13.8 23.043c-.307.12-.67.173-.906.37-.56.467-1.095.974-1.577 1.518-.49.552-.406 1.4.108 1.932.51.526 1.401.672 1.979.212a11.824 11.824 0 0 0 1.67-1.63c.388-.459.38-1.04.079-1.572-.283-.5-.737-.746-1.353-.83Z"/><defs><linearGradient id="a" x1="0" x2="52" y1="40.001" y2="40.001" gradientUnits="userSpaceOnUse"><stop stop-color="#1723FF"/><stop offset="1" stop-color="#30E35E"/></linearGradient></defs></svg>