<svg xmlns="http://www.w3.org/2000/svg" width="43" height="50" fill="none"><path fill="url(#a)" d="M21.095 49.999c-7.495-1.852-16.009-9.724-19.1-18.317C.996 28.908.225 26.073.137 23.13.004 18.654.03 14.174 0 9.696c-.005-.657.261-.963.969-1.162 3.313-.934 6.57-2.028 9.747-3.346A80.036 80.036 0 0 0 20.6.275c.627-.368 1.15-.365 1.779-.001A83.27 83.27 0 0 0 41.823 8.47c.976.273 1.162.525 1.16 1.52-.006 3.811.063 7.625-.038 11.434-.206 7.848-2.982 14.693-8.382 20.461-2.673 2.855-5.739 5.205-9.283 6.892-1.081.514-2.263.82-3.398 1.223l-.787-.001Zm19.764-39.586c-.198-.066-.398-.133-.598-.197-1.404-.449-2.817-.867-4.207-1.35a84.845 84.845 0 0 1-14.105-6.403c-.348-.198-.598-.195-.934.008-.7.422-1.423.808-2.145 1.192-5.188 2.76-10.601 4.97-16.262 6.576-.41.116-.521.295-.519.704.019 3.062.002 6.125.013 9.186.012 3.642.544 7.197 1.82 10.628 1.511 4.068 3.844 7.613 6.962 10.64 2.612 2.535 5.544 4.618 8.93 6.04 1.048.439 2.071.58 3.133.082.459-.215.937-.39 1.392-.612 3.294-1.602 6.158-3.776 8.653-6.434 4.892-5.212 7.514-11.397 7.8-18.501.152-3.757.066-7.523.085-11.286 0-.08-.01-.163-.018-.273Z"/><path fill="url(#b)" d="M18.081 26.663c.499-.51.927-.96 1.367-1.398 3.027-3.009 6.055-6.016 9.087-9.019 1.306-1.294 2.905-1.54 4.389-.691 1.755 1.003 2.219 3.434.953 5.004-.154.19-.314.377-.488.549-4.221 4.195-8.444 8.39-12.67 12.58-1.306 1.295-2.913 1.554-4.384.7a4.276 4.276 0 0 1-.843-.665c-1.99-1.962-3.978-3.93-5.955-5.907-1.613-1.613-1.528-3.901.177-5.267 1.188-.952 3.036-1.006 4.186.003 1.178 1.034 2.262 2.176 3.382 3.274.255.25.495.517.799.837Zm-.254 6.107c.689.024 1.05-.23 1.388-.566 4.232-4.206 8.467-8.408 12.7-12.61.104-.104.209-.208.296-.325.56-.75.214-1.774-.686-2.044-.643-.193-1.098.114-1.525.54-3.628 3.605-7.261 7.208-10.893 10.81-.776.77-1.27.772-2.038.01-1.417-1.402-2.825-2.814-4.25-4.21-.6-.587-1.394-.598-1.933-.063-.54.535-.533 1.327.058 1.92a794.377 794.377 0 0 0 6.13 6.075c.242.238.593.368.753.463Z"/><path fill="url(#c)" d="M4.176 14.754c0-.618-.01-1.236.003-1.854.013-.673.243-1.002.854-1.217 1.85-.652 3.699-1.303 5.551-1.947.6-.207 1.06-.084 1.36.336.28.39.283.92-.053 1.258a1.955 1.955 0 0 1-.698.427c-1.473.54-2.951 1.068-4.435 1.575-.323.11-.467.24-.454.607.03.893.017 1.79.007 2.684-.007.608-.261.985-.735 1.145-.598.203-1.26-.133-1.325-.775-.075-.74-.075-1.492-.075-2.239.02 0-.018.001 0 0Z"/><path fill="url(#d)" d="M33.567 33.751c.86.013 1.313.897.812 1.661-.464.708-.97 1.392-1.498 2.054-1.43 1.796-3.098 3.356-4.904 4.774-.55.431-1.144.415-1.543-.03-.406-.455-.352-1.1.165-1.559.611-.541 1.259-1.042 1.867-1.587a24.89 24.89 0 0 0 4.038-4.643c.256-.378.55-.694 1.063-.67Z"/><path fill="url(#e)" d="M23.54 43.287a1.102 1.102 0 0 1 1.079-1.1c.552-.014 1.051.45 1.07.996.022.583-.525 1.137-1.119 1.134a1.042 1.042 0 0 1-1.03-1.03Z"/><path fill="url(#f)" d="M14.072 10.48c-.54-.003-1.021-.496-1.025-1.047-.004-.552.508-1.056 1.073-1.054.564 0 1.068.513 1.053 1.07-.016.553-.53 1.034-1.1 1.03Z"/><defs><linearGradient id="a" x1="0" x2="43" y1="50.001" y2="50.001" gradientUnits="userSpaceOnUse"><stop stop-color="#1723FF"/><stop offset="1" stop-color="#30E35E"/></linearGradient><linearGradient id="b" x1="0" x2="43" y1="50.001" y2="50.001" gradientUnits="userSpaceOnUse"><stop stop-color="#1723FF"/><stop offset="1" stop-color="#30E35E"/></linearGradient><linearGradient id="c" x1="0" x2="43" y1="50.001" y2="50.001" gradientUnits="userSpaceOnUse"><stop stop-color="#1723FF"/><stop offset="1" stop-color="#30E35E"/></linearGradient><linearGradient id="d" x1="0" x2="43" y1="50.001" y2="50.001" gradientUnits="userSpaceOnUse"><stop stop-color="#1723FF"/><stop offset="1" stop-color="#30E35E"/></linearGradient><linearGradient id="e" x1="0" x2="43" y1="50.001" y2="50.001" gradientUnits="userSpaceOnUse"><stop stop-color="#1723FF"/><stop offset="1" stop-color="#30E35E"/></linearGradient><linearGradient id="f" x1="0" x2="43" y1="50.001" y2="50.001" gradientUnits="userSpaceOnUse"><stop stop-color="#1723FF"/><stop offset="1" stop-color="#30E35E"/></linearGradient></defs></svg>