<svg xmlns="http://www.w3.org/2000/svg" width="51" height="51" fill="none"><path fill="url(#a)" d="M45.82 0c.39.131.799.223 1.167.401 1.477.717 2.37 1.898 2.426 3.546.076 2.222.033 4.448.037 6.673.003 1.693.016 3.387-.004 5.08-.026 2.184-1.341 3.838-3.386 4.263-.417.087-.858.09-1.287.09-4.383.006-8.764.003-13.146.003h-.617c.231.642.484 1.229.655 1.838.31 1.096.158 2.207.025 3.313-.172 1.447-.223 2.922-.527 4.342-.595 2.775-3.16 4.568-6.104 4.417-2.649-.137-4.98-2.255-5.337-4.938a95.786 95.786 0 0 1-.555-5.445c-.092-1.217.258-2.363.91-3.527h-.636c-4.465 0-8.93.006-13.396-.002-2.267-.004-3.962-1.283-4.387-3.354-.122-.594-.082-1.222-.102-1.834-.013-.432-.013-.863.004-1.295.019-.477.31-.788.714-.8.42-.014.75.31.765.805.02.664.006 1.328.008 1.992.011 1.897 1.103 2.99 3.008 2.993 4.963.005 9.926.005 14.889-.01.242 0 .523-.1.717-.244 2.296-1.716 5.385-1.71 7.696.015.182.137.446.23.672.23 4.996.014 9.992.017 14.988.008 1.832-.003 2.931-1.12 2.935-2.965.008-3.719.008-7.438 0-11.155-.004-1.824-1.14-2.943-2.959-2.943-12.997-.002-25.993-.002-38.99 0-1.819 0-2.946 1.122-2.956 2.948-.008 1.743 0 3.487-.004 5.23 0 .197.04.456-.065.578-.183.215-.47.482-.705.474-.234-.008-.467-.314-.68-.514-.056-.051-.038-.19-.038-.29.001-1.94-.037-3.885.02-5.826C1.635 2.06 2.973.53 4.955.087 5.036.07 5.108.03 5.184 0H45.82ZM25.513 18.521c-2.87-.005-5.12 2.47-4.835 5.318.154 1.534.303 3.068.452 4.602.215 2.22 1.961 3.943 4.09 4.034 2.336.098 4.236-1.375 4.584-3.672.249-1.636.356-3.295.522-4.943a4.842 4.842 0 0 0-4.813-5.339Z"/><path fill="url(#b)" d="M51 45.92c-.297.362-.683.441-1.14.44-3.519-.013-7.037-.008-10.556-.008h-.672v2.9c-.005 1.162-.587 1.747-1.745 1.747-6.258.002-12.515 0-18.773 0h-3.885c-1.321 0-1.857-.544-1.859-1.883v-2.77c-.29 0-.55.013-.806-.002-.449-.026-.738-.303-.757-.7-.018-.411.276-.734.74-.775.245-.023.495-.004.823-.004 0-1.07.015-2.11-.004-3.147-.02-1.06.175-2.07.63-3.028-.072-.029-.103-.052-.133-.052-2.97.002-5.943-.023-8.913.019-1.213.017-2.313 1.064-2.409 2.326-.095 1.265-.02 2.546-.02 3.846h2.087c0-.468-.002-.94 0-1.413.001-.315-.017-.633.013-.946.041-.425.381-.716.766-.701.397.014.694.31.707.752.017.597.007 1.195.008 1.792v.545c.882 0 1.708-.003 2.532.001.198.002.403-.002.594.042.394.091.586.365.56.766-.026.38-.243.607-.62.667-.13.02-.264.017-.397.017H1.05C.229 46.35.005 46.129.004 45.33c-.002-1.295-.008-2.59 0-3.885.017-2.459 1.81-4.288 4.272-4.302 3.219-.02 6.44.008 9.66.004a.725.725 0 0 0 .428-.174 5.759 5.759 0 0 1 3.794-1.396c2.822-.012 5.644-.007 8.465-.003.576.002.93.293.936.744.008.473-.343.748-.967.748-2.789.001-5.578-.01-8.365.005-2.081.01-3.719 1.269-4.217 3.205-.065.255-.127.522-.127.784-.01 2.787-.005 5.574-.005 8.404h3.147v-5.133c.001-.67.262-1.014.754-1.004.488.009.737.356.739 1.03v5.112H32.48v-.514c0-1.576 0-3.154-.002-4.73-.001-.448.154-.788.624-.886.485-.101.865.257.868.826.008 1.576.002 3.154.002 4.73v.576h3.138c.008-.157.023-.318.023-.477.001-2.473.004-4.947 0-7.42-.005-2.694-1.806-4.495-4.497-4.507-.78-.002-1.56.007-2.34-.007-.423-.006-.681-.239-.726-.666-.044-.41.219-.793.644-.796 1.438-.008 2.9-.214 4.302.242a6.4 6.4 0 0 1 1.76.89c.43.313.828.424 1.347.418 2.922-.025 5.842-.013 8.764-.012 2.469.002 3.913 1.122 4.55 3.526.009.03.04.052.06.078.002 1.727.002 3.454.002 5.18Zm-12.336-1.107h7.238v-.436c.001-.63-.007-1.26.009-1.891.01-.433.279-.681.69-.708.418-.026.688.217.77.628.038.193.023.396.023.595.003.607.002 1.214.002 1.817h2.11V41.6c-.003-1.851-1.117-2.966-2.976-2.968-2.687-.004-5.375-.002-8.061 0-.142 0-.283.016-.489.028 1.025 1.983.51 4.081.684 6.153Z"/><path fill="url(#c)" d="M21.117 13.793c.075-.744.135-1.557.25-2.36.05-.338-.035-.56-.264-.79a57.513 57.513 0 0 1-1.53-1.636c-.792-.87-.475-1.913.667-2.198a55.856 55.856 0 0 1 2.275-.527c.319-.065.527-.2.687-.49.369-.667.765-1.32 1.16-1.97.595-.977 1.674-.982 2.27-.01.398.65.795 1.303 1.162 1.97.16.29.37.427.683.493.745.157 1.487.335 2.227.518 1.213.3 1.532 1.325.698 2.244-.512.565-1.054 1.105-1.548 1.685a.997.997 0 0 0-.206.65c.054.843.184 1.682.236 2.526.068 1.106-.838 1.705-1.855 1.245-.74-.334-1.462-.706-2.209-1.025a.893.893 0 0 0-.632-.002c-.746.318-1.468.69-2.208 1.025-1.039.473-1.918-.137-1.863-1.348Zm7.25-.144c-.086-.823-.139-1.55-.244-2.267-.087-.603.041-1.1.481-1.54.511-.512.99-1.056 1.531-1.638-.765-.185-1.445-.384-2.14-.506-.66-.117-1.105-.446-1.415-1.037-.317-.606-.694-1.18-1.08-1.825-.422.709-.808 1.325-1.159 1.961-.268.49-.659.757-1.198.872-.737.155-1.466.344-2.272.535.523.563.976 1.088 1.47 1.571.483.473.637 1.003.531 1.667-.113.704-.151 1.421-.23 2.209.76-.359 1.441-.66 2.102-.998.516-.265.998-.267 1.515-.004.661.336 1.34.638 2.109 1Z"/><path fill="url(#d)" d="M44.406 14.007c.002.961-.893 1.564-1.773 1.187-.775-.333-1.522-.733-2.298-1.064a.956.956 0 0 0-.674-.001c-.732.308-1.446.66-2.16 1.008-.488.236-.96.263-1.405-.073-.443-.334-.55-.79-.481-1.327.103-.805.186-1.615.237-2.424a.939.939 0 0 0-.216-.606c-.498-.576-1.035-1.12-1.551-1.68-.808-.875-.482-1.944.678-2.226.758-.183 1.522-.329 2.27-.541.24-.068.498-.253.635-.46.43-.648.797-1.337 1.204-2.002.58-.945 1.666-.948 2.246-.006.41.663.776 1.352 1.206 2 .137.206.393.393.632.462.764.22 1.547.364 2.316.562 1.13.29 1.433 1.344.64 2.206-.494.538-.98 1.082-1.498 1.595-.25.248-.326.502-.284.84.106.858.187 1.715.276 2.55Zm.229-5.804c-.785-.188-1.485-.386-2.198-.517-.623-.116-1.043-.432-1.339-.987-.33-.619-.712-1.211-1.1-1.865-.386.651-.755 1.222-1.071 1.82-.31.587-.75.926-1.413 1.043-.701.123-1.388.329-2.142.515.545.587 1.018 1.118 1.519 1.624.39.395.56.834.489 1.392-.099.78-.157 1.563-.24 2.424.71-.333 1.353-.599 1.958-.931.611-.335 1.173-.344 1.788-.01.616.333 1.267.601 1.972.932-.088-.903-.16-1.71-.247-2.514-.052-.48.097-.872.43-1.217.517-.538 1.017-1.09 1.594-1.71Z"/><path fill="url(#e)" d="M6.599 13.979c.09-.841.17-1.683.274-2.521.043-.339-.033-.591-.284-.84-.53-.525-1.029-1.082-1.531-1.633-.745-.818-.44-1.877.627-2.153.8-.207 1.616-.363 2.414-.58.211-.059.438-.229.558-.413.432-.667.813-1.367 1.228-2.046.58-.943 1.665-.941 2.246.003.4.65.796 1.301 1.16 1.97.167.309.394.447.725.516.729.152 1.453.33 2.176.507 1.23.3 1.55 1.353.694 2.276-.508.547-1.032 1.078-1.52 1.644a.93.93 0 0 0-.215.607c.053.826.145 1.65.243 2.474.061.52-.064.959-.49 1.277-.428.318-.884.318-1.358.09-.73-.352-1.46-.712-2.206-1.027a.956.956 0 0 0-.674.004c-.775.33-1.523.732-2.299 1.064-.899.383-1.806-.258-1.768-1.22Zm4.41-9.147c-.406.684-.794 1.299-1.143 1.936-.277.505-.671.788-1.232.903-.734.152-1.46.344-2.26.536.52.557.963 1.071 1.448 1.543.451.44.648.928.561 1.562-.102.749-.155 1.505-.236 2.339.687-.324 1.317-.575 1.903-.908.68-.385 1.303-.347 1.97.02.575.317 1.184.569 1.848.881-.085-.875-.15-1.665-.243-2.453-.06-.518.086-.935.449-1.307.518-.53 1.013-1.084 1.571-1.683-.81-.191-1.54-.378-2.279-.532-.539-.113-.93-.384-1.199-.87-.36-.648-.75-1.278-1.158-1.967Z"/><path fill="url(#f)" d="M46.67 28.005c-.132 1.324-.21 2.568-.39 3.796-.322 2.21-2.186 3.78-4.345 3.732-2.234-.049-4.002-1.675-4.26-3.951-.135-1.185-.277-2.373-.32-3.565-.09-2.46 1.677-4.474 4.131-4.786 2.327-.295 4.546 1.31 5.06 3.674.085.386.091.788.125 1.1Zm-1.497-.029c-.026-.209-.03-.562-.115-.894a3.16 3.16 0 0 0-3.456-2.36c-1.605.209-2.823 1.567-2.753 3.19.051 1.24.174 2.483.351 3.712a2.8 2.8 0 0 0 2.844 2.418c1.405-.034 2.592-1.07 2.765-2.459.142-1.154.235-2.31.364-3.607Z"/><path fill="url(#g)" d="M13.656 28.341c-.101.946-.194 2.271-.396 3.58a4.277 4.277 0 0 1-4.337 3.612c-2.185-.066-3.962-1.663-4.22-3.828a59.39 59.39 0 0 1-.333-3.563c-.155-2.67 1.916-4.895 4.55-4.931 2.661-.037 4.778 2.086 4.736 5.13Zm-7.79-.056c.033.367.078.896.131 1.424.054.545.123 1.088.174 1.633.14 1.534 1.254 2.63 2.749 2.697 1.425.064 2.698-.987 2.9-2.472.161-1.182.283-2.373.336-3.564.085-1.868-1.365-3.325-3.207-3.3-1.818.026-3.202 1.557-3.084 3.582Z"/><path fill="url(#h)" d="M26.608 27.493c.005 1.086-.428 1.702-1.27 1.823-.428.061-.777-.064-.908-.494-.127-.417.039-.73.442-.934.112-.055.209-.216.237-.345.045-.206-.004-.433.043-.639.093-.406.374-.632.793-.59.388.038.626.28.66.683.015.163.003.33.003.496Z"/><path fill="url(#i)" d="M41.825 30.73c0-.335-.084-.682.025-.952.098-.243.377-.494.63-.575.346-.11.718.11.74.474.038.58.02 1.19-.12 1.748-.123.488-.591.736-1.09.834-.451.09-.848-.129-.958-.503-.12-.405.066-.744.516-.94.06-.024.124-.04.257-.085Z"/><path fill="url(#j)" d="M10.285 30.397c.01 1.057-.388 1.668-1.194 1.852-.476.109-.892-.084-1.018-.47-.13-.402.04-.714.48-.96a.566.566 0 0 0 .238-.346c.045-.223.003-.465.045-.688.079-.416.355-.63.779-.599.398.03.628.27.668.668.017.178.002.361.002.543Z"/><defs><linearGradient id="a" x1="0" x2="51" y1="51.001" y2="51.001" gradientUnits="userSpaceOnUse"><stop stop-color="#1723FF"/><stop offset="1" stop-color="#30E35E"/></linearGradient><linearGradient id="b" x1="0" x2="51" y1="51.001" y2="51.001" gradientUnits="userSpaceOnUse"><stop stop-color="#1723FF"/><stop offset="1" stop-color="#30E35E"/></linearGradient><linearGradient id="c" x1="0" x2="51" y1="51.001" y2="51.001" gradientUnits="userSpaceOnUse"><stop stop-color="#1723FF"/><stop offset="1" stop-color="#30E35E"/></linearGradient><linearGradient id="d" x1="0" x2="51" y1="51.001" y2="51.001" gradientUnits="userSpaceOnUse"><stop stop-color="#1723FF"/><stop offset="1" stop-color="#30E35E"/></linearGradient><linearGradient id="e" x1="0" x2="51" y1="51.001" y2="51.001" gradientUnits="userSpaceOnUse"><stop stop-color="#1723FF"/><stop offset="1" stop-color="#30E35E"/></linearGradient><linearGradient id="f" x1="0" x2="51" y1="51.001" y2="51.001" gradientUnits="userSpaceOnUse"><stop stop-color="#1723FF"/><stop offset="1" stop-color="#30E35E"/></linearGradient><linearGradient id="g" x1="0" x2="51" y1="51.001" y2="51.001" gradientUnits="userSpaceOnUse"><stop stop-color="#1723FF"/><stop offset="1" stop-color="#30E35E"/></linearGradient><linearGradient id="h" x1="0" x2="51" y1="51.001" y2="51.001" gradientUnits="userSpaceOnUse"><stop stop-color="#1723FF"/><stop offset="1" stop-color="#30E35E"/></linearGradient><linearGradient id="i" x1="0" x2="51" y1="51.001" y2="51.001" gradientUnits="userSpaceOnUse"><stop stop-color="#1723FF"/><stop offset="1" stop-color="#30E35E"/></linearGradient><linearGradient id="j" x1="0" x2="51" y1="51.001" y2="51.001" gradientUnits="userSpaceOnUse"><stop stop-color="#1723FF"/><stop offset="1" stop-color="#30E35E"/></linearGradient></defs></svg>