<svg width="51" height="51" viewBox="0 0 51 51" fill="none" xmlns="http://www.w3.org/2000/svg">
<path d="M45.8207 0C46.2098 0.131486 46.6188 0.223128 46.9867 0.4011C48.4635 1.1183 49.3572 2.29902 49.413 3.94724C49.4887 6.16923 49.4462 8.3952 49.4502 10.6198C49.4528 12.3132 49.4661 14.0066 49.4462 15.7C49.4196 17.8835 48.1049 19.5383 46.0597 19.9633C45.6427 20.0497 45.2018 20.0523 44.7729 20.0523C40.3903 20.059 36.0092 20.0563 31.6267 20.0563C31.4301 20.0563 31.2349 20.0563 31.0104 20.0563C31.2415 20.6978 31.4939 21.2848 31.6652 21.8945C31.9746 22.9902 31.8232 24.1005 31.6904 25.2068C31.5178 26.6545 31.4673 28.1288 31.1632 29.5486C30.5682 32.3244 28.0025 34.1174 25.0595 33.966C22.4101 33.8292 20.0794 31.7108 19.7222 29.0279C19.4805 27.2203 19.3052 25.4021 19.1671 23.5825C19.0754 22.3659 19.4247 21.2198 20.0768 20.0563C19.8151 20.0563 19.6279 20.0563 19.4406 20.0563C14.9758 20.0563 10.5109 20.0616 6.04476 20.0536C3.77781 20.0497 2.08324 18.7707 1.65827 16.7001C1.53609 16.1064 1.57593 15.4782 1.55601 14.8659C1.54273 14.4343 1.54273 14.0026 1.55999 13.571C1.57859 13.0942 1.87075 12.7834 2.27447 12.7701C2.69413 12.7568 3.02348 13.0809 3.03942 13.5763C3.05934 14.2404 3.04473 14.9044 3.04739 15.5685C3.05801 17.4651 4.14966 18.5582 6.05538 18.5608C11.0182 18.5661 15.9811 18.5661 20.944 18.5515C21.1857 18.5502 21.4672 18.4519 21.6611 18.3071C23.9573 16.5912 27.0463 16.5965 29.357 18.3217C29.539 18.4585 29.8033 18.5515 30.029 18.5528C35.0251 18.5661 40.0212 18.5688 45.0172 18.5595C46.8486 18.5568 47.9482 17.4399 47.9522 15.5951C47.9601 11.8763 47.9601 8.15746 47.9522 4.43999C47.9482 2.61644 46.8127 1.49682 44.9933 1.49682C31.9959 1.49549 18.9997 1.49549 6.00226 1.49682C4.18419 1.49682 3.05669 2.6191 3.04739 4.4453C3.03942 6.18782 3.04739 7.93168 3.04341 9.6742C3.04341 9.8721 3.08325 10.1311 2.97833 10.2533C2.79506 10.4684 2.50821 10.7354 2.27315 10.7274C2.03941 10.7195 1.80568 10.4127 1.59319 10.2134C1.53742 10.1616 1.55468 10.0235 1.55468 9.92389C1.55601 7.98215 1.5175 6.03774 1.5746 4.09732C1.63436 2.05995 2.97302 0.528601 4.95577 0.0876575C5.03413 0.0703916 5.10717 0.0292192 5.18287 0C18.7288 0 32.2747 0 45.8207 0ZM25.5124 18.521C22.6412 18.5157 20.3915 20.9913 20.677 23.8389C20.8311 25.3729 20.9798 26.9069 21.1286 28.4409C21.3437 30.6615 23.0901 32.3841 25.2189 32.4745C27.5549 32.5727 29.4553 31.0998 29.8033 28.8035C30.0516 27.1672 30.1592 25.5083 30.3252 23.8601C30.612 20.9966 28.3836 18.5263 25.5124 18.521Z" fill="url(#paint0_linear_1_2804)"/>
<path d="M51 45.9206C50.7025 46.2818 50.3174 46.3615 49.8605 46.3602C46.3413 46.3469 42.8233 46.3522 39.304 46.3522C39.1075 46.3522 38.9109 46.3522 38.632 46.3522C38.632 46.9127 38.632 47.4347 38.632 47.9566C38.632 48.3883 38.6334 48.8199 38.632 49.2516C38.6267 50.4137 38.045 50.9994 36.887 50.9994C30.6293 51.0007 24.3716 50.9994 18.1139 50.9994C16.8191 50.9994 15.5243 50.9994 14.2294 50.9994C12.908 50.9994 12.3715 50.4549 12.3702 49.1161C12.3702 48.2209 12.3702 47.3258 12.3702 46.3469C12.0793 46.3469 11.8204 46.3589 11.5641 46.3443C11.1152 46.3177 10.8257 46.0415 10.8071 45.6443C10.7885 45.2326 11.0833 44.9099 11.5468 44.8687C11.7925 44.8461 12.0422 44.8647 12.3702 44.8647C12.3702 43.7942 12.3848 42.7556 12.3662 41.7183C12.3463 40.6585 12.5415 39.6478 12.9957 38.6902C12.924 38.661 12.8934 38.6384 12.8629 38.6384C9.89207 38.6397 6.91993 38.6145 3.95045 38.657C2.73663 38.6742 1.63702 39.7208 1.5414 40.9825C1.44578 42.2483 1.52015 43.5286 1.52015 44.8289C2.20409 44.8289 2.86279 44.8289 3.60782 44.8289C3.60782 44.3613 3.60649 43.8885 3.60782 43.4157C3.60915 43.1009 3.59055 42.7835 3.6211 42.4701C3.66227 42.0451 4.00224 41.7542 4.38737 41.7688C4.78446 41.7834 5.08061 42.0783 5.09389 42.5205C5.11115 43.1182 5.10053 43.7159 5.10186 44.3135C5.10186 44.4742 5.10186 44.6363 5.10186 44.8581C5.98367 44.8581 6.80971 44.8554 7.63441 44.8594C7.83229 44.8607 8.03681 44.8567 8.22805 44.9006C8.62247 44.9922 8.81371 45.2658 8.78715 45.6669C8.76192 46.0468 8.54545 46.2739 8.16828 46.3336C8.03814 46.3536 7.90401 46.3509 7.7712 46.3509C5.53081 46.3522 3.28909 46.3522 1.0487 46.3509C0.229304 46.3496 0.0048662 46.1291 0.00353816 45.3296C0.00221013 44.0346 -0.00443003 42.7397 0.0048662 41.4447C0.0208026 38.9863 1.81365 37.1575 4.27582 37.1429C7.49497 37.123 10.7155 37.1509 13.9359 37.1469C14.0807 37.1469 14.2507 37.0685 14.3636 36.9729C15.4618 36.0472 16.7314 35.5823 18.1577 35.577C20.9798 35.565 23.8019 35.5704 26.6226 35.5743C27.199 35.5757 27.5523 35.8665 27.5589 36.3181C27.5669 36.7909 27.2163 37.0658 26.5921 37.0658C23.8032 37.0672 21.0143 37.0552 18.2268 37.0712C16.1458 37.0818 14.5083 38.3395 14.0103 40.276C13.9452 40.531 13.8828 40.7979 13.8828 41.0596C13.8735 43.8474 13.8775 46.6338 13.8775 49.4641C14.9067 49.4641 15.9253 49.4641 17.0249 49.4641C17.0249 49.3113 17.0249 49.136 17.0249 48.962C17.0249 47.4187 17.0236 45.8741 17.0249 44.3308C17.0263 43.6614 17.2866 43.3174 17.7793 43.3267C18.2666 43.336 18.5163 43.6827 18.5176 44.3574C18.519 46.0494 18.5176 47.7415 18.5176 49.4694C23.1644 49.4694 27.786 49.4694 32.4806 49.4694C32.4806 49.3047 32.4806 49.1294 32.4806 48.9554C32.4806 47.3789 32.4819 45.8011 32.4793 44.2245C32.4779 43.777 32.6333 43.437 33.1034 43.3387C33.5882 43.2377 33.968 43.5963 33.9706 44.1648C33.9786 45.7413 33.9733 47.3191 33.9733 48.8956C33.9733 49.0763 33.9733 49.2556 33.9733 49.4707C35.0264 49.4707 36.045 49.4707 37.1114 49.4707C37.1194 49.314 37.134 49.1533 37.134 48.9939C37.1353 46.5209 37.138 44.0466 37.134 41.5736C37.1287 38.8801 35.3279 37.0791 32.6373 37.0672C31.8577 37.0645 31.0769 37.0738 30.2973 37.0605C29.8737 37.0539 29.616 36.8215 29.5709 36.3938C29.527 35.9834 29.79 35.6009 30.215 35.5983C31.6532 35.5903 33.1154 35.3844 34.5165 35.84C35.1367 36.0419 35.7502 36.3473 36.2761 36.7298C36.7077 37.0433 37.1048 37.1535 37.6241 37.1482C40.5457 37.123 43.4661 37.1349 46.3877 37.1362C48.8566 37.1376 50.3015 38.2585 50.9389 40.6625C50.9469 40.6917 50.9774 40.7143 50.9973 40.7395C51 42.4674 51 44.194 51 45.9206ZM38.6639 44.8129C41.0836 44.8129 43.474 44.8129 45.9017 44.8129C45.9017 44.6376 45.9017 44.5074 45.9017 44.3773C45.903 43.7464 45.895 43.1169 45.911 42.486C45.9216 42.053 46.1899 41.8047 46.6002 41.7781C47.0186 41.7515 47.2895 41.9946 47.3705 42.4063C47.409 42.5989 47.3944 42.8021 47.3944 43.0013C47.397 43.6083 47.3957 44.2153 47.3957 44.8182C48.1381 44.8182 48.8074 44.8182 49.506 44.8182C49.506 43.7199 49.5073 42.66 49.506 41.6001C49.5033 39.7487 48.3891 38.6344 46.5298 38.6317C43.8432 38.6277 41.1553 38.6304 38.4687 38.6317C38.3266 38.6317 38.1858 38.6477 37.98 38.6596C39.0052 40.6425 38.4899 42.741 38.6639 44.8129Z" fill="url(#paint1_linear_1_2804)"/>
<path d="M21.1166 13.7928C21.1923 13.049 21.2521 12.2362 21.3676 11.4327C21.4167 11.0953 21.3317 10.8735 21.1033 10.6424C20.5801 10.1098 20.0741 9.55998 19.5721 9.00747C18.7806 8.13621 19.098 7.09362 20.2401 6.8094C20.9958 6.62213 21.7527 6.43751 22.515 6.28212C22.8337 6.21704 23.0422 6.08157 23.2016 5.79204C23.5708 5.12531 23.9666 4.47186 24.3623 3.82107C24.9573 2.84488 26.0356 2.83957 26.6319 3.81177C27.0303 4.46124 27.4274 5.11468 27.794 5.78274C27.9533 6.07228 28.1631 6.20907 28.4766 6.27548C29.2216 6.4322 29.964 6.61017 30.7037 6.79346C31.9175 7.09362 32.2362 8.11762 31.4022 9.03669C30.8896 9.60248 30.3478 10.1417 29.8537 10.7221C29.7156 10.8841 29.6346 11.1577 29.6479 11.3716C29.7023 12.2149 29.8325 13.0543 29.8843 13.8977C29.952 15.004 29.0463 15.603 28.029 15.1435C27.2893 14.8088 26.5668 14.4369 25.8205 14.1182C25.6399 14.0411 25.369 14.0385 25.1884 14.1155C24.442 14.4343 23.7195 14.8062 22.9798 15.1408C21.9413 15.6137 21.0622 15.004 21.1166 13.7928ZM28.3677 13.6493C28.2813 12.8259 28.2282 12.0994 28.1233 11.3822C28.0357 10.7792 28.1645 10.2812 28.6041 9.84155C29.1153 9.33021 29.5948 8.78567 30.1353 8.20395C29.3703 8.01933 28.6904 7.82011 27.9958 7.69792C27.3345 7.58105 26.8896 7.25167 26.5801 6.66064C26.2627 6.05501 25.8856 5.48125 25.5004 4.83577C25.0781 5.545 24.6917 6.16126 24.3411 6.79744C24.0728 7.2862 23.6824 7.55448 23.1432 7.6687C22.4061 7.8241 21.677 8.01269 20.8709 8.20395C21.3942 8.76708 21.847 9.2917 22.341 9.77514C22.8245 10.248 22.9785 10.7779 22.8723 11.442C22.7594 12.1459 22.7209 12.8631 22.6425 13.6507C23.4021 13.2921 24.0834 12.9919 24.7435 12.6532C25.2601 12.3876 25.7421 12.3863 26.2587 12.6492C26.9201 12.9853 27.5987 13.2868 28.3677 13.6493Z" fill="url(#paint2_linear_1_2804)"/>
<path d="M44.4063 14.0066C44.4076 14.9682 43.5126 15.5712 42.6334 15.194C41.8578 14.8606 41.1115 14.4608 40.3346 14.1301C40.142 14.0478 39.8551 14.0478 39.6613 14.1288C38.9295 14.4369 38.215 14.7889 37.5005 15.1369C37.0132 15.3733 36.5417 15.3998 36.0955 15.0638C35.6533 14.7304 35.5457 14.2749 35.6147 13.737C35.7183 12.9321 35.8007 12.122 35.8525 11.3131C35.8644 11.1139 35.7688 10.8616 35.636 10.7075C35.138 10.1311 34.6014 9.58654 34.0848 9.02607C33.2774 8.15215 33.6028 7.08299 34.7635 6.80143C35.5205 6.61814 36.2854 6.47205 37.0331 6.25954C37.2721 6.19181 37.5311 6.0072 37.6679 5.80001C38.0982 5.15187 38.4647 4.46256 38.8724 3.79849C39.4514 2.85285 40.5378 2.8502 41.1181 3.79185C41.5271 4.4546 41.8937 5.1439 42.324 5.79204C42.4607 5.9979 42.7171 6.18517 42.9561 6.25423C43.7197 6.47337 44.5033 6.61814 45.2722 6.81604C46.4024 7.10557 46.7051 8.16012 45.9123 9.02208C45.4183 9.55998 44.9322 10.1045 44.4143 10.6172C44.1633 10.8655 44.0876 11.1192 44.1301 11.4579C44.2363 12.3146 44.3173 13.1725 44.4063 14.0066ZM44.6347 8.20262C43.8499 8.01535 43.15 7.81746 42.4368 7.68597C41.814 7.57042 41.3943 7.25432 41.0982 6.69916C40.7688 6.08024 40.3864 5.48789 39.9972 4.83445C39.6121 5.48524 39.2429 6.05634 38.9268 6.654C38.6161 7.24104 38.1778 7.57972 37.5138 7.6966C36.8126 7.82011 36.126 8.02598 35.3717 8.21192C35.9175 8.79896 36.3903 9.33021 36.891 9.83624C37.2814 10.2307 37.4501 10.6703 37.3797 11.2281C37.2814 12.0078 37.223 12.7914 37.1406 13.652C37.8498 13.3186 38.4926 13.053 39.0982 12.721C39.7091 12.3863 40.2708 12.377 40.8857 12.7103C41.5019 13.0437 42.1526 13.312 42.8578 13.6427C42.7702 12.7396 42.6971 11.9334 42.6108 11.1285C42.559 10.6491 42.7078 10.2573 43.0411 9.91194C43.5577 9.37404 44.0584 8.82286 44.6347 8.20262Z" fill="url(#paint3_linear_1_2804)"/>
<path d="M6.59855 13.9787C6.68886 13.138 6.76854 12.296 6.87345 11.4579C6.91595 11.1192 6.84025 10.8669 6.58925 10.6172C6.05937 10.0926 5.56003 9.53608 5.05803 8.9849C4.313 8.16676 4.61712 7.10823 5.68486 6.83197C6.48567 6.62478 7.30108 6.46939 8.09923 6.25157C8.31038 6.19314 8.53748 6.02313 8.657 5.83852C9.08861 5.17179 9.46976 4.47186 9.88543 3.79318C10.4645 2.8502 11.5495 2.85153 12.1311 3.79584C12.5309 4.4453 12.9266 5.09742 13.2905 5.7668C13.4578 6.07493 13.6849 6.21306 14.0156 6.28212C14.7447 6.43353 15.4685 6.61283 16.1923 6.78947C17.422 7.08963 17.7421 8.14152 16.8855 9.06458C16.3782 9.61178 15.8536 10.143 15.3662 10.7088C15.2334 10.8629 15.1378 11.1152 15.1511 11.3158C15.2042 12.1419 15.2958 12.9667 15.3941 13.7901C15.4552 14.3108 15.3304 14.749 14.9041 15.0665C14.4764 15.3852 14.0196 15.3852 13.5455 15.1568C12.8151 14.8048 12.086 14.4449 11.3396 14.1301C11.1471 14.0491 10.8602 14.0518 10.6663 14.1341C9.89074 14.4648 9.14306 14.8659 8.36749 15.198C7.46841 15.5805 6.56136 14.9403 6.59855 13.9787ZM11.0089 4.83179C10.6026 5.51578 10.2148 6.13071 9.86551 6.76822C9.58928 7.27292 9.19485 7.55581 8.63442 7.67136C7.90002 7.82277 7.17492 8.01535 6.37411 8.2066C6.89337 8.76442 7.33694 9.27842 7.82167 9.74991C8.2732 10.1895 8.46975 10.6783 8.38343 11.3118C8.28117 12.0609 8.22805 12.8166 8.14704 13.6507C8.83363 13.3266 9.46444 13.0756 10.0501 12.7435C10.7301 12.3584 11.3529 12.3956 12.0209 12.7635C12.5946 13.0796 13.2042 13.3319 13.8682 13.644C13.7832 12.7688 13.7181 11.9785 13.6252 11.1909C13.5641 10.673 13.7115 10.2559 14.074 9.88405C14.592 9.35412 15.0873 8.80028 15.6451 8.20129C14.835 8.01004 14.1046 7.82277 13.3662 7.6687C12.827 7.55581 12.4366 7.28487 12.167 6.79877C11.8071 6.15064 11.4167 5.5211 11.0089 4.83179Z" fill="url(#paint4_linear_1_2804)"/>
<path d="M46.6706 28.0052C46.5378 29.3294 46.4595 30.5726 46.2802 31.8011C45.9575 34.0111 44.0942 35.581 41.9349 35.5332C39.7011 35.484 37.9335 33.8584 37.6745 31.5819C37.5404 30.3972 37.3983 29.2085 37.3545 28.0172C37.2642 25.5562 39.0318 23.5427 41.486 23.2306C43.8127 22.9357 46.0318 24.5401 46.5458 26.9055C46.6308 27.2907 46.6374 27.6931 46.6706 28.0052ZM45.1726 27.976C45.1474 27.7675 45.1434 27.4142 45.0584 27.0822C44.6626 25.5283 43.1686 24.5175 41.6015 24.7221C39.9973 24.9306 38.7794 26.2893 38.8485 27.9123C38.9003 29.1528 39.0225 30.3946 39.2004 31.6244C39.4089 33.0708 40.644 34.0749 42.0438 34.0417C43.4488 34.0085 44.6361 32.9725 44.8087 31.5833C44.9508 30.4291 45.0438 29.2723 45.1726 27.976Z" fill="url(#paint5_linear_1_2804)"/>
<path d="M13.6557 28.3413C13.5548 29.2869 13.4618 30.6124 13.26 31.9206C12.9306 34.0576 11.0408 35.5969 8.92261 35.5332C6.73799 35.4668 4.96108 33.8703 4.70345 31.7055C4.56267 30.5208 4.43917 29.3321 4.37011 28.142C4.21473 25.4725 6.28646 23.2465 8.91995 23.2106C11.5813 23.1735 13.6982 25.2972 13.6557 28.3413ZM5.86548 28.2855C5.89868 28.6521 5.94383 29.1807 5.99695 29.7093C6.0514 30.2538 6.12046 30.797 6.17092 31.3415C6.31169 32.8756 7.42459 33.9713 8.91995 34.039C10.3449 34.1028 11.6185 33.0522 11.8204 31.5673C11.9811 30.3853 12.1032 29.1939 12.1564 28.0026C12.2414 26.1352 10.7911 24.6782 8.94917 24.7035C7.13109 24.7287 5.74728 26.2601 5.86548 28.2855Z" fill="url(#paint6_linear_1_2804)"/>
<path d="M26.608 27.4926C26.6133 28.579 26.1804 29.1953 25.3371 29.3161C24.9095 29.3772 24.5615 29.2524 24.43 28.8221C24.3026 28.405 24.4686 28.0916 24.8723 27.8884C24.9838 27.8326 25.0808 27.6719 25.1087 27.5431C25.1538 27.3372 25.1047 27.1101 25.1525 26.9042C25.2455 26.4978 25.5257 26.272 25.9453 26.3132C26.3331 26.3517 26.5708 26.5934 26.6054 26.9972C26.62 27.1605 26.608 27.3279 26.608 27.4926Z" fill="url(#paint7_linear_1_2804)"/>
<path d="M41.8246 30.7306C41.8246 30.3946 41.741 30.0479 41.8499 29.7783C41.9481 29.5353 42.227 29.2843 42.4793 29.2032C42.826 29.093 43.1978 29.3135 43.2204 29.6774C43.2576 30.2578 43.2403 30.8661 43.0995 31.4252C42.9774 31.9126 42.5086 32.161 42.0105 32.2593C41.559 32.3483 41.1619 32.1305 41.0517 31.7559C40.9322 31.3508 41.1181 31.0122 41.5683 30.8169C41.6281 30.7917 41.6918 30.7758 41.8246 30.7306Z" fill="url(#paint8_linear_1_2804)"/>
<path d="M10.2852 30.3972C10.2945 31.4544 9.89738 32.0654 9.09127 32.2487C8.6145 32.3576 8.19883 32.165 8.07267 31.7785C7.94252 31.3774 8.11383 31.0653 8.55209 30.8183C8.66364 30.7558 8.76457 30.6018 8.79113 30.4729C8.83629 30.2498 8.79379 30.0081 8.83629 29.785C8.91464 29.3693 9.19087 29.1541 9.61451 29.186C10.0129 29.2152 10.2427 29.4556 10.2825 29.854C10.2998 30.032 10.2852 30.2153 10.2852 30.3972Z" fill="url(#paint9_linear_1_2804)"/>
<defs>
<linearGradient id="paint0_linear_1_2804" x1="0" y1="51.0012" x2="51" y2="51.0012" gradientUnits="userSpaceOnUse">
<stop stop-color="#1723FF"/>
<stop offset="1" stop-color="#30E35E"/>
</linearGradient>
<linearGradient id="paint1_linear_1_2804" x1="0" y1="51.0012" x2="51" y2="51.0012" gradientUnits="userSpaceOnUse">
<stop stop-color="#1723FF"/>
<stop offset="1" stop-color="#30E35E"/>
</linearGradient>
<linearGradient id="paint2_linear_1_2804" x1="0" y1="51.0012" x2="51" y2="51.0012" gradientUnits="userSpaceOnUse">
<stop stop-color="#1723FF"/>
<stop offset="1" stop-color="#30E35E"/>
</linearGradient>
<linearGradient id="paint3_linear_1_2804" x1="0" y1="51.0012" x2="51" y2="51.0012" gradientUnits="userSpaceOnUse">
<stop stop-color="#1723FF"/>
<stop offset="1" stop-color="#30E35E"/>
</linearGradient>
<linearGradient id="paint4_linear_1_2804" x1="0" y1="51.0012" x2="51" y2="51.0012" gradientUnits="userSpaceOnUse">
<stop stop-color="#1723FF"/>
<stop offset="1" stop-color="#30E35E"/>
</linearGradient>
<linearGradient id="paint5_linear_1_2804" x1="0" y1="51.0012" x2="51" y2="51.0012" gradientUnits="userSpaceOnUse">
<stop stop-color="#1723FF"/>
<stop offset="1" stop-color="#30E35E"/>
</linearGradient>
<linearGradient id="paint6_linear_1_2804" x1="0" y1="51.0012" x2="51" y2="51.0012" gradientUnits="userSpaceOnUse">
<stop stop-color="#1723FF"/>
<stop offset="1" stop-color="#30E35E"/>
</linearGradient>
<linearGradient id="paint7_linear_1_2804" x1="0" y1="51.0012" x2="51" y2="51.0012" gradientUnits="userSpaceOnUse">
<stop stop-color="#1723FF"/>
<stop offset="1" stop-color="#30E35E"/>
</linearGradient>
<linearGradient id="paint8_linear_1_2804" x1="0" y1="51.0012" x2="51" y2="51.0012" gradientUnits="userSpaceOnUse">
<stop stop-color="#1723FF"/>
<stop offset="1" stop-color="#30E35E"/>
</linearGradient>
<linearGradient id="paint9_linear_1_2804" x1="0" y1="51.0012" x2="51" y2="51.0012" gradientUnits="userSpaceOnUse">
<stop stop-color="#1723FF"/>
<stop offset="1" stop-color="#30E35E"/>
</linearGradient>
</defs>
</svg>
