<svg xmlns="http://www.w3.org/2000/svg" width="51" height="51" fill="none"><path fill="url(#a)" d="M0 33.687c.143-.815.246-1.639.436-2.443a15.86 15.86 0 0 1 3.696-7.065c.1-.11.193-.226.246-.289-.151-.48-.36-.906-.41-1.348-.128-1.155.698-2.168 1.851-2.313a127.13 127.13 0 0 1 4.203-.474 2.194 2.194 0 0 1 2.405 2.403c-.12 1.289-.314 2.57-.403 3.861-.125 1.822-1.917 2.83-3.582 1.797-.893.94-1.58 2.022-2.062 3.233-2.82 7.064 2.56 14.74 10.153 14.362 4.39-.218 7.594-2.451 9.243-6.532 1.65-4.079.9-7.898-2.102-11.118-2.426-2.6-4.178-5.508-4.659-9.046-.904-6.66 1.416-11.996 6.874-15.906C28.262 1.111 30.97.255 33.884.076c.129-.008.257-.05.385-.076h1.295c.884.128 1.776.207 2.648.39 6.76 1.424 11.864 6.948 12.665 13.802.563 4.825-.807 9.09-4.022 12.745-.097.11-.193.225-.214.249.149.567.362 1.05.388 1.541.057 1.075-.752 2.012-1.819 2.15-1.43.187-2.866.346-4.303.478-1.267.117-2.418-.945-2.334-2.225a51.3 51.3 0 0 1 .5-4.551c.21-1.353 1.758-2.092 3.016-1.526.147.067.288.15.458.24 1.318-1.413 2.186-3.048 2.577-4.924a10.478 10.478 0 0 0-10.949-12.68c-5.854.348-10.348 5.703-9.699 11.536.271 2.432 1.253 4.517 2.949 6.273 3.462 3.586 5.04 7.88 4.62 12.836-.57 6.732-5.32 12.324-11.845 14.098-9.275 2.523-18.655-3.63-20.022-13.13C.124 36.928.06 36.554 0 36.18v-2.492ZM34.879 1.68c-.855.1-1.716.166-2.566.305-7.803 1.28-13.203 9.261-11.546 17.006.631 2.945 2.062 5.412 4.135 7.58 2.675 2.796 3.763 6.186 3.257 10.013a12.077 12.077 0 0 1-14.735 10.23c-4.63-1.061-7.734-3.992-9.01-8.573-1.3-4.66-.068-8.753 3.368-12.166.42-.416.878-.403 1.32-.004.062.056.11.138.181.169.229.097.492.28.688.228.153-.04.296-.372.326-.59a79.04 79.04 0 0 0 .354-3.166c.12-1.29.11-1.29-1.162-1.187-.016.001-.033.001-.049.003-1.088.122-2.178.232-3.262.378-.18.024-.428.181-.478.333-.052.155.073.394.172.567.09.153.255.26.375.396.339.39.341.825.006 1.21-.12.139-.259.259-.385.39C2.41 28.43 1.02 32.739 1.954 37.655c1.534 8.071 9.25 13.092 17.277 11.374 6.38-1.366 11.158-7.188 11.255-13.709.061-4.129-1.386-7.644-4.249-10.606-2.685-2.778-3.826-6.107-3.439-9.958.708-7.023 7.7-12.092 14.594-10.51 4.674 1.072 7.843 3.938 9.162 8.547 1.311 4.58.165 8.659-3.185 12.08-.63.643-.97.627-1.647.029-.176-.156-.494-.32-.672-.26-.175.06-.335.389-.365.617-.162 1.235-.284 2.473-.413 3.712-.052.494.175.727.665.673 1.254-.132 2.508-.265 3.758-.429.216-.028.552-.171.587-.32.047-.2-.089-.506-.246-.677-.732-.797-.742-1.06.003-1.825 3.157-3.247 4.597-7.122 4.188-11.643-.665-7.354-6.942-13.037-14.348-13.07Z"/><path fill="url(#b)" d="M30.688 22.387c-.24-.107-.534-.188-.764-.356-.292-.212-.54-.487-.792-.75-.45-.47-.53-.993-.258-1.6.345-.771.077-1.414-.708-1.715-.639-.244-.946-.693-.96-1.362a22.717 22.717 0 0 1-.002-.796c.01-.692.332-1.147.995-1.387.724-.263 1.016-.946.697-1.64-.301-.658-.212-1.22.291-1.726l.529-.528c.491-.486 1.036-.586 1.68-.292.74.338 1.384.062 1.676-.7.252-.653.7-.985 1.4-.973.266.004.532.003.796.003.655 0 1.088.3 1.332.918.331.834.931 1.09 1.74.739.605-.265 1.127-.182 1.597.27.215.208.424.42.632.635.447.457.506.978.27 1.558-.343.838-.108 1.436.712 1.757.592.233.911.64.927 1.276.008.315.008.63.001.945-.012.656-.336 1.073-.952 1.309-.788.3-1.033.926-.699 1.723.251.598.186 1.132-.275 1.603-.198.2-.394.402-.596.6-.48.472-1.019.553-1.64.277-.754-.335-1.391-.075-1.685.683-.25.648-.69.994-1.394.98a26.383 26.383 0 0 0-.796-.002c-.683.01-1.114-.323-1.361-.953-.31-.79-.921-1.03-1.717-.71-.198.078-.406.128-.676.215Zm.161-10.524c-.246.11-.437.256-.251.557.383.62.352 1.214-.06 1.81a1.19 1.19 0 0 0-.18.46c-.108.636-.506.968-1.094 1.155a.605.605 0 0 0-.344.375c-.02.081.186.286.323.327.609.187 1.012.536 1.124 1.188.028.16.093.326.184.459.403.582.415 1.158.062 1.77-.061.106-.043.338.034.42.077.08.312.11.417.051.627-.348 1.22-.356 1.812.076a.901.901 0 0 0 .368.146c.676.122 1.082.51 1.26 1.176.031.121.218.294.314.282.135-.017.327-.16.364-.288.194-.653.588-1.054 1.268-1.172a1.05 1.05 0 0 0 .413-.167c.564-.402 1.124-.407 1.72-.066.11.064.364.064.423-.01.085-.107.09-.314.061-.467-.064-.336-.345-.753-.23-.978.458-.886.384-2.177 1.722-2.458.094-.02.2-.21.21-.327.008-.092-.11-.266-.197-.285-.844-.172-1.18-.77-1.356-1.53a1.235 1.235 0 0 0-.193-.402c-.285-.415-.28-.833-.053-1.266.061-.117.138-.24.151-.366.012-.113-.022-.268-.098-.339-.072-.066-.23-.085-.337-.06-.175.042-.336.14-.506.207-.645.252-2.552-.55-2.828-1.188-.072-.168-.114-.353-.213-.503a.424.424 0 0 0-.301-.175c-.1.001-.229.094-.29.184-.09.135-.13.303-.194.456-.213.512-2.086 1.45-2.619 1.303-.206-.057-.4-.16-.6-.24a8.77 8.77 0 0 0-.286-.115Z"/><path fill="url(#c)" d="M12.144 28.78c.093.026.32.048.5.15.382.216.718.198 1.117.008.295-.141.491-.293.583-.604.21-.707.683-1.074 1.43-1.066.265.003.53.003.796.004.705.002 1.132.36 1.37 1.013.255.699.944.993 1.612.682.675-.315 1.25-.218 1.767.303.163.165.326.33.491.494.505.508.591 1.071.29 1.726-.31.673-.03 1.365.657 1.616.723.265 1.05.767 1.04 1.516-.004.266.003.532-.013.796-.037.606-.341 1.014-.91 1.244-.829.336-1.094.94-.75 1.734.261.605.186 1.129-.267 1.6-.196.204-.395.403-.595.6-.479.47-1.009.571-1.636.29-.762-.34-1.402-.069-1.709.712-.248.63-.693.947-1.367.954-.248.002-.498 0-.746.002-.715.007-1.185-.317-1.44-.995-.275-.728-.945-1.017-1.638-.696-.657.303-1.22.212-1.723-.295-.199-.2-.4-.398-.593-.604-.42-.446-.494-.947-.26-1.514.357-.868.124-1.442-.723-1.788-.544-.222-.872-.594-.902-1.19a13.013 13.013 0 0 1-.01-1.044c.02-.655.36-1.067.971-1.298.759-.286 1.022-.93.695-1.682-.267-.616-.186-1.146.266-1.65.679-.753 1.064-1.02 1.697-1.019Zm7.985 10.465c.239-.015.395-.322.255-.567-.352-.61-.356-1.187.053-1.769a1.04 1.04 0 0 0 .172-.41c.115-.66.488-1.057 1.136-1.235.138-.037.347-.244.33-.332a.59.59 0 0 0-.345-.379c-.614-.187-.994-.555-1.111-1.198a1.283 1.283 0 0 0-.207-.504c-.382-.537-.366-1.066-.072-1.636a.595.595 0 0 0-.021-.508c-.05-.075-.338-.073-.467-.005-.563.294-1.093.336-1.632-.052a1.252 1.252 0 0 0-.5-.212c-.668-.114-1.046-.504-1.228-1.144-.037-.13-.225-.28-.361-.3-.095-.015-.291.155-.323.274-.184.686-.613 1.07-1.305 1.198a1.31 1.31 0 0 0-.498.216c-.494.343-.976.315-1.495.048-.155-.08-.382-.018-.575-.021.009.195-.042.422.04.58.272.525.265 1.01-.07 1.5a1.225 1.225 0 0 0-.196.454c-.132.706-.518 1.155-1.225 1.34-.118.031-.272.217-.27.33 0 .115.156.297.275.327.688.177 1.08.597 1.205 1.295.03.174.117.35.218.498.336.493.33.975.061 1.499-.08.157-.027.381-.033.575.19-.005.409.052.564-.025.52-.256 1.005-.31 1.496.05a.973.973 0 0 0 .361.161c.75.166 1.298.54 1.485 1.34.021.093.206.197.323.206.089.007.252-.112.274-.2.187-.797.727-1.174 1.48-1.346.205-.046.382-.227.586-.261a3.65 3.65 0 0 1 .991-.043c.22.027.427.171.629.257Z"/><path fill="url(#d)" d="M31.46 16.194a3.393 3.393 0 0 1 3.383-3.396c1.88-.005 3.422 1.547 3.406 3.434-.015 1.86-1.569 3.393-3.42 3.376a3.405 3.405 0 0 1-3.369-3.414Zm1.7.014a1.695 1.695 0 0 0 1.71 1.695 1.717 1.717 0 0 0 1.681-1.685 1.704 1.704 0 0 0-1.697-1.713 1.677 1.677 0 0 0-1.694 1.703Z"/><path fill="url(#e)" d="M19.538 34.897A3.37 3.37 0 0 1 16.17 38.3a3.383 3.383 0 0 1-3.419-3.355c-.012-1.894 1.519-3.442 3.4-3.44a3.394 3.394 0 0 1 3.387 3.393Zm-1.7-.009c-.007-.938-.794-1.705-1.724-1.683a1.72 1.72 0 0 0-1.666 1.7 1.683 1.683 0 0 0 1.705 1.693 1.672 1.672 0 0 0 1.686-1.71Z"/><defs><linearGradient id="a" x1="0" x2="51" y1="51.001" y2="51.001" gradientUnits="userSpaceOnUse"><stop stop-color="#1723FF"/><stop offset="1" stop-color="#30E35E"/></linearGradient><linearGradient id="b" x1="0" x2="51" y1="51.001" y2="51.001" gradientUnits="userSpaceOnUse"><stop stop-color="#1723FF"/><stop offset="1" stop-color="#30E35E"/></linearGradient><linearGradient id="c" x1="0" x2="51" y1="51.001" y2="51.001" gradientUnits="userSpaceOnUse"><stop stop-color="#1723FF"/><stop offset="1" stop-color="#30E35E"/></linearGradient><linearGradient id="d" x1="0" x2="51" y1="51.001" y2="51.001" gradientUnits="userSpaceOnUse"><stop stop-color="#1723FF"/><stop offset="1" stop-color="#30E35E"/></linearGradient><linearGradient id="e" x1="0" x2="51" y1="51.001" y2="51.001" gradientUnits="userSpaceOnUse"><stop stop-color="#1723FF"/><stop offset="1" stop-color="#30E35E"/></linearGradient></defs></svg>