<svg xmlns="http://www.w3.org/2000/svg" width="33" height="46" fill="none"><path fill="url(#a)" d="M23.644 38.96c-.018.388.004.789-.06 1.174-.135.79-.562 1.402-1.284 1.768-.251.128-.335.266-.34.545-.028 1.89-1.24 3.067-3.136 3.068-1.775.001-3.552.003-5.328 0-1.858-.003-3.08-1.202-3.126-3.04-.004-.171-.089-.424-.217-.493-1.02-.553-1.472-1.403-1.43-2.54.003-.12 0-.24-.005-.36-.001-.033-.012-.066.011.05-.506-.34-1.041-.534-1.298-.915-.262-.388-.284-.956-.353-1.453a5.09 5.09 0 0 1-.002-1.131c.024-.267.046-.603.209-.777.65-.696.404-1.528.358-2.296-.019-.337-.367-.734-.672-.961-2.873-2.145-4.903-4.894-6.06-8.279-2.835-8.3 1.147-17.502 9.107-21.067 6.305-2.823 13.9-.938 18.383 4.563 6.263 7.683 4.891 18.85-3.05 24.777-.486.364-.74.794-.694 1.402.016.223.01.447 0 .67-.016.38.034.71.306 1.038.198.242.265.624.306.954.05.407.013.824.013 1.237-.003 1.26-.39 1.752-1.638 2.067Zm-.642-5.019c0-.298.014-.539-.002-.777-.083-1.279.45-2.215 1.472-2.991 6.901-5.245 8.232-14.872 3.043-21.813-3.499-4.68-9.43-6.774-14.896-5.285C5.437 5.034.426 12.552 1.949 20.725c.744 3.99 2.819 7.19 6.101 9.595.874.64 1.317 1.472 1.295 2.551-.007.354-.002.708-.002 1.069l13.66.001Zm.6 1.71H8.746v1.585h14.854v-1.585Zm-13.223 3.28c0 .288-.01.528.002.765.026.544.33.861.884.863 3.271.008 6.544.008 9.815 0 .552-.002.857-.32.883-.865.013-.25.002-.5.002-.764H10.379Zm9.903 3.315h-8.224c-.069 1.084.418 1.616 1.46 1.619 1.773.002 3.545.002 5.318 0 1.036-.003 1.531-.55 1.446-1.619Z"/><path fill="url(#b)" d="M17 24.169c0-.98-.004-1.959.002-2.938.004-.782.393-1.103 1.152-.967 1.38.247 2.66-.563 3.04-1.925.478-1.716-.443-3.36-2.103-3.703-.291-.06-.616-.025-.915.024-.77.124-1.171-.178-1.174-.947a1219.28 1219.28 0 0 1 0-5.926c.001-.661.247-.952.906-1.014 1.179-.11 2.338.022 3.476.346.443.126.648.422.673.863.002.017.004.036 0 .051-.29 1.17.381 1.769 1.327 2.184.162.072.376.03.565.029.044 0 .088-.05.13-.077 1.324-.865 1.466-.817 2.47.455.937 1.191 1.58 2.524 1.972 3.987.137.51.039.932-.437 1.125-.912.372-1.137.986-1.1 1.944.026.672.22.996.766 1.299.94.52.967.665.662 1.7-.468 1.59-1.265 2.999-2.38 4.227-.455.502-.822.6-1.348.198-.679-.519-1.232-.547-1.955-.029-.477.342-.76.634-.677 1.224.03.219.015.447 0 .668-.028.42-.23.704-.65.827-1.137.33-2.293.467-3.473.36-.684-.062-.926-.35-.927-1.048-.004-.979-.002-1.958-.002-2.937Zm8.233-.78c.35-.601.774-1.247 1.116-1.934.536-1.074.525-1.104-.494-1.705-.485-.287-.652-.652-.58-1.195.063-.474.175-.983.069-1.432-.272-1.156.073-1.924 1.182-2.372.102-.041.204-.32.163-.441-.346-1.032-.854-1.98-1.56-2.81-1.462.725-1.663.713-3.058-.16-.073-.046-.145-.094-.222-.131-.985-.467-1.514-1.21-1.457-2.33.005-.114-.113-.325-.199-.34-.497-.084-1.002-.12-1.512-.176v4.514c2.766.497 4.22 2.046 4.262 4.483.02 1.125-.265 2.14-.982 3.019-.84 1.03-1.957 1.533-3.273 1.637v4.546c.495-.053.959-.076 1.409-.164.121-.023.258-.227.293-.37.09-.362.063-.762.195-1.103.348-.895 2.282-2.094 3.237-1.989.447.053.873.276 1.411.453Z"/><path fill="url(#c)" d="M4.601 17.796c-.75-1.052-1.055-2.21-.69-3.495.322-1.127 1.003-1.974 2.01-2.578.143-.087.312-.294.307-.44-.077-2.104 1.524-3.932 3.766-4.41 1.902-.405 3.596.035 4.98 1.432.204.207.356.568.356.859.02 5.534.019 11.066.002 16.6a1.28 1.28 0 0 1-.288.785C13 28.842 8.938 28.711 7.12 26.263c-.396-.532-.559-1.233-.837-1.854-.072-.158-.14-.357-.27-.442-2.384-1.566-2.866-3.627-1.41-6.171Zm5.75-3.59c-1.13.145-2.197.185-2.917-.896-.038-.056-.089-.124-.148-.14-.13-.039-.29-.106-.399-.064-1.097.43-1.734 1.905-1.328 3.013.156.428.374.67.902.628.745-.06 1.497-.015 2.23-.015v1.65c-.667 0-1.304-.03-1.935.015a1.145 1.145 0 0 0-.698.315c-.96 1.022-.795 2.56.326 3.508.386.326.736.466 1.159.066.818-.773 1.817-.638 2.809-.567v1.615c-.4 0-.776-.012-1.15.003-.992.04-1.405.753-.94 1.602.939 1.708 3.326 2.156 5.059.96.263-.182.38-.381.38-.718-.013-5.155-.005-10.308-.024-15.462-.002-.225-.163-.527-.346-.66-.864-.631-1.846-.814-2.894-.587-1.208.261-2.122.875-2.476 2.127-.136.482-.03.854.327 1.256.51.576 1.06.883 1.83.756.075-.012.16.025.235.037l-.001 1.559Z"/><path fill="url(#d)" d="M11.23 14.229v-1.587h1.601v1.587H11.23Z"/><path fill="url(#e)" d="M9.57 18.357v-1.592h1.608v1.592H9.571Z"/><path fill="url(#f)" d="M12.819 23.312H11.24v-1.6h1.579v1.6Z"/><defs><linearGradient id="a" x1="0" x2="32.331" y1="45.518" y2="45.518" gradientUnits="userSpaceOnUse"><stop stop-color="#1723FF"/><stop offset="1" stop-color="#30E35E"/></linearGradient><linearGradient id="b" x1="0" x2="32.331" y1="45.518" y2="45.518" gradientUnits="userSpaceOnUse"><stop stop-color="#1723FF"/><stop offset="1" stop-color="#30E35E"/></linearGradient><linearGradient id="c" x1="0" x2="32.331" y1="45.518" y2="45.518" gradientUnits="userSpaceOnUse"><stop stop-color="#1723FF"/><stop offset="1" stop-color="#30E35E"/></linearGradient><linearGradient id="d" x1="0" x2="32.331" y1="45.518" y2="45.518" gradientUnits="userSpaceOnUse"><stop stop-color="#1723FF"/><stop offset="1" stop-color="#30E35E"/></linearGradient><linearGradient id="e" x1="0" x2="32.331" y1="45.518" y2="45.518" gradientUnits="userSpaceOnUse"><stop stop-color="#1723FF"/><stop offset="1" stop-color="#30E35E"/></linearGradient><linearGradient id="f" x1="0" x2="32.331" y1="45.518" y2="45.518" gradientUnits="userSpaceOnUse"><stop stop-color="#1723FF"/><stop offset="1" stop-color="#30E35E"/></linearGradient></defs></svg>