<svg width="34" height="122" fill="none" xmlns="http://www.w3.org/2000/svg"><path d="M0 105.312a3.6 3.6 0 0 1 1.083-2.577c1.444-1.417 3.79-1.417 5.251 0L17 113.205l10.666-10.47c1.444-1.417 3.79-1.417 5.251 0a3.609 3.609 0 0 1 0 5.155l-13.292 13.047c-1.444 1.417-3.79 1.417-5.25 0L1.082 107.89A3.6 3.6 0 0 1 0 105.312Z" fill="url(#a)"/><path d="M0 84.968a3.6 3.6 0 0 1 1.083-2.577c1.444-1.417 3.79-1.417 5.251 0L17 92.861l10.666-10.47c1.444-1.417 3.79-1.417 5.251 0a3.608 3.608 0 0 1 0 5.154l-13.292 13.048c-1.444 1.417-3.79 1.417-5.25 0L1.082 87.546A3.6 3.6 0 0 1 0 84.968Z" fill="url(#b)"/><path d="M0 64.64a3.6 3.6 0 0 1 1.083-2.577c1.444-1.417 3.79-1.417 5.251 0L17 72.533l10.666-10.47c1.444-1.417 3.79-1.417 5.251 0a3.608 3.608 0 0 1 0 5.155L19.625 80.265c-1.444 1.417-3.79 1.417-5.25 0L1.082 67.218A3.6 3.6 0 0 1 0 64.64Z" fill="url(#c)"/><path d="M0 44.312a3.6 3.6 0 0 1 1.083-2.577c1.444-1.417 3.79-1.417 5.251 0L17 52.205l10.666-10.47c1.444-1.417 3.79-1.417 5.251 0a3.608 3.608 0 0 1 0 5.155L19.625 59.937c-1.444 1.417-3.79 1.417-5.25 0L1.082 46.89A3.6 3.6 0 0 1 0 44.312Z" fill="url(#d)"/><path d="M0 23.968a3.6 3.6 0 0 1 1.083-2.577c1.444-1.417 3.79-1.417 5.251 0L17 31.861l10.666-10.47c1.444-1.417 3.79-1.417 5.251 0a3.608 3.608 0 0 1 0 5.155L19.625 39.593c-1.444 1.417-3.79 1.417-5.25 0L1.082 26.545A3.6 3.6 0 0 1 0 23.968Z" fill="url(#e)"/><path d="M0 3.64a3.6 3.6 0 0 1 1.083-2.577c1.444-1.417 3.79-1.417 5.251 0L17 11.533l10.666-10.47c1.444-1.417 3.79-1.417 5.251 0a3.608 3.608 0 0 1 0 5.155L19.625 19.265c-1.444 1.417-3.79 1.417-5.25 0L1.082 6.218A3.6 3.6 0 0 1 0 3.64Z" fill="url(#f)"/><defs><linearGradient id="a" x1="-.001" y1="0" x2="-.001" y2="122" gradientUnits="userSpaceOnUse"><stop stop-color="#1723FF"/><stop offset="1" stop-color="#30E35E"/></linearGradient><linearGradient id="b" x1="-.001" y1="0" x2="-.001" y2="122" gradientUnits="userSpaceOnUse"><stop stop-color="#1723FF"/><stop offset="1" stop-color="#30E35E"/></linearGradient><linearGradient id="c" x1="-.001" y1="0" x2="-.001" y2="122" gradientUnits="userSpaceOnUse"><stop stop-color="#1723FF"/><stop offset="1" stop-color="#30E35E"/></linearGradient><linearGradient id="d" x1="-.001" y1="0" x2="-.001" y2="122" gradientUnits="userSpaceOnUse"><stop stop-color="#1723FF"/><stop offset="1" stop-color="#30E35E"/></linearGradient><linearGradient id="e" x1="-.001" y1="0" x2="-.001" y2="122" gradientUnits="userSpaceOnUse"><stop stop-color="#1723FF"/><stop offset="1" stop-color="#30E35E"/></linearGradient><linearGradient id="f" x1="-.001" y1="0" x2="-.001" y2="122" gradientUnits="userSpaceOnUse"><stop stop-color="#1723FF"/><stop offset="1" stop-color="#30E35E"/></linearGradient></defs></svg>