<svg width="85" height="33" fill="none" xmlns="http://www.w3.org/2000/svg"><path d="M2.088 24.107c-.968-.647-2.092-2.773-2.09-3.955.003-1.762.504-2.652 4.498-7.991C13.561.044 13.42.197 15.741.027c2.516-.183 3.301.444 6.773 5.408l.746 1.067-.625 1.54c-.47 1.156-.66 2.123-.761 3.865l-.136 2.322-2.524-3.455c-1.388-1.9-2.702-3.524-2.92-3.609-.52-.2-1.18.576-5.273 6.192-1.797 2.466-3.268 4.68-3.268 4.92 0 .41.305.436 5.054.436h5.053v5.927h-7.487c-7.371 0-7.498-.008-8.285-.533ZM32.083 26.892c-2.183-.76-5.073-2.74-6.224-4.26-.478-.633-1.271-2.017-1.763-3.074-.783-1.687-.893-2.337-.893-5.284 0-3.111.08-3.523 1.077-5.568 1.346-2.758 3.69-5.02 6.656-6.42 1.952-.921 2.585-1.053 5.06-1.054 3.368-.001 5.923.697 8.164 2.232 2.466 1.69 2.493 1.857.697 4.395l-1.561 2.207-1.707-1.303c-3.485-2.66-7.454-2.635-10.297.065-3.02 2.869-3.048 7.9-.06 10.696 1.52 1.423 2.911 1.967 5 1.96 3.827-.015 3.755.055 14.8-14.58 3.471-4.6 3.875-4.943 6.019-5.123 1.21-.1 2.097.02 2.783.377.68.355 2.647 2.895 6.065 7.833 7.185 10.38 7.461 10.857 7.176 12.39-.15.802-.69 1.716-1.496 2.53l-1.263 1.274H54.92l.193-5.533 4.979-.093c2.738-.051 5.116-.232 5.284-.401.186-.188-1.085-2.255-3.24-5.272-4.608-6.45-4.356-6.137-4.96-6.137-.293 0-3.033 3.32-6.2 7.512-6.157 8.147-7.01 8.946-11.192 10.477-2.606.955-5.253 1.008-7.701.154ZM1.415 32.942H.5l1.394-4.072h1.1l1.391 4.072h-.914L2.46 29.801h-.032l-1.013 3.141Zm-.057-1.6h2.16v.672h-2.16v-.672ZM7.365 28.87h.853v2.645c0 .297-.07.556-.21.78-.14.222-.335.395-.586.52a1.967 1.967 0 0 1-.877.185c-.335 0-.628-.062-.88-.185a1.415 1.415 0 0 1-.585-.52 1.439 1.439 0 0 1-.209-.78V28.87h.854v2.571c0 .155.033.293.1.414.069.12.164.215.288.284a.87.87 0 0 0 .432.103c.165 0 .31-.034.431-.103a.722.722 0 0 0 .286-.284.824.824 0 0 0 .103-.414v-2.57ZM8.767 29.58v-.71h3.315v.71h-1.236v3.362h-.844V29.58H8.767ZM16.153 30.906c0 .444-.083.822-.25 1.134-.166.311-.392.55-.678.713a1.903 1.903 0 0 1-.962.245c-.359 0-.68-.082-.966-.246a1.748 1.748 0 0 1-.676-.714c-.166-.312-.248-.689-.248-1.132 0-.444.082-.822.248-1.133.165-.312.39-.549.676-.712.285-.164.607-.247.966-.247.356 0 .677.083.962.247.286.163.512.4.678.712.167.311.25.69.25 1.133Zm-.865 0c0-.287-.043-.53-.128-.727a.983.983 0 0 0-.357-.45.953.953 0 0 0-.54-.153.953.953 0 0 0-.54.153.996.996 0 0 0-.359.45c-.084.197-.126.44-.126.727 0 .288.042.53.126.728a.996.996 0 0 0 .359.45.954.954 0 0 0 .54.152.954.954 0 0 0 .54-.153.983.983 0 0 0 .357-.449c.085-.198.128-.44.128-.728ZM16.785 28.87h1.053l1.112 2.736h.047l1.112-2.736h1.052v4.072h-.828v-2.65H20.3l-1.045 2.63h-.564l-1.044-2.64h-.034v2.66h-.828V28.87ZM25.574 30.906c0 .444-.084.822-.25 1.134-.166.311-.392.55-.679.713a1.903 1.903 0 0 1-.961.245 1.9 1.9 0 0 1-.966-.246 1.749 1.749 0 0 1-.676-.714c-.166-.312-.249-.689-.249-1.132 0-.444.083-.822.249-1.133.165-.312.39-.549.676-.712.285-.164.607-.247.966-.247.356 0 .676.083.961.247.287.163.513.4.678.712.167.311.25.69.25 1.133Zm-.866 0c0-.287-.042-.53-.128-.727a.984.984 0 0 0-.356-.45.954.954 0 0 0-.54-.153.954.954 0 0 0-.54.153.996.996 0 0 0-.36.45c-.083.197-.125.44-.125.727 0 .288.042.53.126.728a.996.996 0 0 0 .358.45.954.954 0 0 0 .54.152.954.954 0 0 0 .54-.153.984.984 0 0 0 .357-.449c.086-.198.129-.44.129-.728ZM26.708 28.87l.975 3.094h.038l.977-3.094h.947l-1.392 4.072h-1.1L25.76 28.87h.948ZM30.984 28.87v4.072h-.854V28.87h.854ZM31.686 32.942V28.87h.854v3.363h1.73v.71h-2.584ZM39.682 30.296h-.864a.853.853 0 0 0-.096-.3.761.761 0 0 0-.187-.227.824.824 0 0 0-.264-.143 1.004 1.004 0 0 0-.322-.05.952.952 0 0 0-.546.157 1.002 1.002 0 0 0-.36.453 1.811 1.811 0 0 0-.129.72c0 .29.043.534.128.732a.989.989 0 0 0 .363.447c.155.101.335.151.538.151.115 0 .22-.015.318-.045a.767.767 0 0 0 .451-.35.85.85 0 0 0 .106-.29l.864.003a1.624 1.624 0 0 1-1.056 1.326 1.941 1.941 0 0 1-.697.118c-.36 0-.681-.082-.965-.246a1.744 1.744 0 0 1-.67-.714c-.163-.312-.245-.689-.245-1.132 0-.444.083-.822.248-1.133a1.74 1.74 0 0 1 .675-.712c.283-.164.603-.247.957-.247.234 0 .451.034.65.1.202.066.38.163.535.29.155.126.281.28.379.463.098.183.161.393.189.629ZM40.294 32.942V28.87h.853v3.363h1.73v.71h-2.583ZM45.936 28.87h.854v2.645c0 .297-.07.556-.211.78-.14.222-.334.395-.585.52a1.967 1.967 0 0 1-.877.185c-.336 0-.629-.062-.88-.185a1.415 1.415 0 0 1-.585-.52 1.439 1.439 0 0 1-.209-.78V28.87h.854v2.571c0 .155.033.293.1.414.068.12.164.215.288.284a.87.87 0 0 0 .431.103c.166 0 .31-.034.432-.103a.722.722 0 0 0 .286-.284.824.824 0 0 0 .102-.414v-2.57ZM47.492 32.942V28.87h1.616c.297 0 .545.044.744.133a.99.99 0 0 1 .447.37c.1.157.15.337.15.541a.822.822 0 0 1-.355.714c-.11.075-.234.13-.375.16v.04a.926.926 0 0 1 .76.471c.085.145.127.318.127.518 0 .216-.053.409-.16.578-.104.169-.26.302-.466.4a1.77 1.77 0 0 1-.763.147h-1.725Zm.854-.704h.695c.238 0 .412-.045.52-.137a.461.461 0 0 0 .164-.37.55.55 0 0 0-.08-.298.55.55 0 0 0-.231-.203.785.785 0 0 0-.353-.073h-.715v1.081Zm0-1.664h.632c.117 0 .221-.02.312-.062a.518.518 0 0 0 .217-.178.47.47 0 0 0 .08-.277.448.448 0 0 0-.155-.356c-.103-.09-.249-.135-.438-.135h-.648v1.008ZM53.142 32.942h-.914l1.393-4.072h1.1l1.392 4.072h-.915l-1.011-3.141h-.032l-1.013 3.141Zm-.057-1.6h2.16v.672h-2.16v-.672ZM56.598 32.942V28.87h1.593c.305 0 .565.055.78.165.217.109.382.263.495.463.115.2.172.433.172.702 0 .27-.058.503-.174.698a1.129 1.129 0 0 1-.502.446 1.838 1.838 0 0 1-.793.155h-1.066v-.692h.928c.163 0 .299-.023.406-.068a.484.484 0 0 0 .24-.203.645.645 0 0 0 .082-.336.67.67 0 0 0-.081-.342.497.497 0 0 0-.242-.21.986.986 0 0 0-.408-.074h-.576v3.368h-.854Zm2.18-1.853 1.004 1.853h-.942l-.982-1.853h.92ZM62.918 30.186a.9.9 0 0 0-.117-.256.782.782 0 0 0-.428-.312 1.022 1.022 0 0 0-.3-.042.963.963 0 0 0-.545.155 1.015 1.015 0 0 0-.363.451c-.086.197-.13.437-.13.72 0 .284.043.525.128.724.086.199.207.35.363.455a.981.981 0 0 0 .554.155c.193 0 .358-.034.495-.103a.737.737 0 0 0 .315-.296.886.886 0 0 0 .11-.452l.174.026h-1.04v-.648h1.688v.513c0 .358-.075.666-.224.923-.15.256-.356.453-.62.592a1.914 1.914 0 0 1-.902.207c-.378 0-.71-.084-.997-.252-.287-.17-.51-.41-.67-.722-.16-.313-.239-.684-.239-1.114 0-.33.047-.624.142-.883.096-.26.23-.48.402-.66.172-.18.373-.317.601-.411.229-.095.477-.142.743-.142.229 0 .442.034.639.102.197.066.372.16.524.282a1.525 1.525 0 0 1 .564.988h-.867ZM64.463 32.942V28.87h2.72v.71h-1.866v.97h1.727v.71h-1.727v.973h1.874v.71h-2.728ZM71.239 28.87v4.072H70.5l-1.756-2.563h-.03v2.563h-.853V28.87h.75l1.742 2.561h.035v-2.56h.85ZM71.79 29.58v-.71h3.315v.71H73.87v3.362h-.843V29.58H71.79ZM76.505 28.87v4.072h-.854V28.87h.854ZM80.583 28.87v4.072h-.737L78.09 30.38h-.03v2.563h-.853V28.87h.749l1.742 2.561h.036v-2.56h.85ZM84.998 30.906c0 .444-.083.822-.25 1.134-.166.311-.392.55-.678.713a1.903 1.903 0 0 1-.962.245 1.9 1.9 0 0 1-.966-.246 1.749 1.749 0 0 1-.676-.714c-.166-.312-.248-.689-.248-1.132 0-.444.082-.822.248-1.133.166-.312.39-.549.676-.712.285-.164.607-.247.966-.247.356 0 .676.083.962.247.286.163.512.4.678.712.167.311.25.69.25 1.133Zm-.865 0c0-.287-.043-.53-.128-.727a.984.984 0 0 0-.357-.45.954.954 0 0 0-.54-.153.954.954 0 0 0-.54.153.996.996 0 0 0-.359.45c-.084.197-.126.44-.126.727 0 .288.042.53.126.728a.996.996 0 0 0 .359.45.954.954 0 0 0 .54.152.954.954 0 0 0 .54-.153.984.984 0 0 0 .357-.449c.085-.198.128-.44.128-.728Z" fill="#000"/></svg>