<svg width="107" height="28" fill="none" xmlns="http://www.w3.org/2000/svg"><path d="M106.059 0H-.002v28h106.061V0Z" fill="#000"/><path d="M55.695 11.55c-1.885-.597-3.491-1.113-3.491-2.162 0 0-.065-1.542 2.227-1.542.95.033 1.885.235 2.763.598 2.484.985 3.512-.964 3.812-1.8a.53.53 0 0 0-.15-.597 5.207 5.207 0 0 0-1.52-.943 12.497 12.497 0 0 0-4.818-1.028c-3.92 0-6.64 2.356-6.64 5.719v.062c0 4.176 5.826 5.547 6.19 5.611.022 0 .022 0 .043.022 1.799.535 3.362 1.028 3.362 2.099 0 0 .064 1.714-2.505 1.714a8.404 8.404 0 0 1-3.877-1.028c-2.27-.9-3.362.9-3.705 1.67a.523.523 0 0 0 .128.598c.128.107.28.257.514.428a12.63 12.63 0 0 0 6.832 2.1c4.262 0 6.917-2.25 6.917-5.89v-.065c.021-3.723-6.082-5.565-6.082-5.565ZM89.747 11.55c-1.885-.598-3.49-1.114-3.49-2.163 0 0-.065-1.542 2.227-1.542.949.032 1.885.235 2.762.598 2.485.985 3.513-.964 3.812-1.8a.53.53 0 0 0-.15-.598 5.206 5.206 0 0 0-1.52-.942 12.148 12.148 0 0 0-4.818-1.048c-3.919 0-6.639 2.356-6.639 5.718v.063c0 4.176 5.826 5.546 6.19 5.61.021 0 .021 0 .043.022 1.799.536 3.362 1.028 3.362 2.1 0 0 .064 1.713-2.506 1.713a8.405 8.405 0 0 1-3.876-1.028c-2.27-.9-3.363.9-3.706 1.67a.523.523 0 0 0 .129.599c.128.107.279.257.514.428a12.63 12.63 0 0 0 6.832 2.099c4.262 0 6.917-2.25 6.917-5.89v-.064c0-3.702-6.083-5.545-6.083-5.545ZM39.117 3.99a6.476 6.476 0 0 0-4.219 1.5c-.144.104-.28.218-.407.343a.624.624 0 0 1-.899-.086c-.086-.128-.172-.235-.257-.343-.857-1.285-2.677-1.328-3.577-1.263a.583.583 0 0 0-.535.578l.021 17.562a.581.581 0 0 0 .514.578c1.2.086 4.07 0 4.07-3.042v-7.41c0-2.527 1.455-4.154 3.726-4.154 2.27 0 3.534 1.456 3.534 4.09v9.938a.583.583 0 0 0 .535.578c1.2.086 4.07-.064 4.07-3.042v-8.716c.02-4.39-2.506-7.11-6.576-7.11ZM78.44 15.277a2.194 2.194 0 0 0 2.205-2.227c0-4.39-3.084-9.06-8.78-9.06-5.14 0-9.017 4.113-9.017 9.553v.085c0 5.526 3.983 9.53 9.466 9.53a9.604 9.604 0 0 0 5.675-1.691 6.475 6.475 0 0 0 1.22-1.178.582.582 0 0 0 .022-.664c-.47-.728-1.777-2.27-3.619-1.242a6.561 6.561 0 0 1-3.234.9c-2.506 0-4.326-1.521-4.819-3.984h10.88v-.022Zm-10.924-3.234v-.042c.45-2.506 2.12-4.113 4.305-4.113 2.378 0 3.62 1.628 4.091 3.429a.575.575 0 0 1-.558.707l-7.838.02ZM24.662 6.196c-1.307-1.349-3.384-2.077-6.018-2.077a15.338 15.338 0 0 0-5.248.877 8.436 8.436 0 0 0-1.692.877.58.58 0 0 0-.235.664c.3.877 1.242 2.784 3.876 2.033.9-.245 1.83-.367 2.763-.364 1.735 0 3.79.558 4.048 3.041 0 0-1.95-.042-3.963 0-4.711.11-7.966 2.252-7.966 6.022v.064c0 3.962 3.362 5.78 6.489 5.78 2.741 0 4.348-1.092 5.076-1.777a.554.554 0 0 1 .837.107c.9 1.285 2.57 1.414 3.428 1.392a.572.572 0 0 0 .559-.578l.021-10.365c-.005-2.483-.669-4.39-1.975-5.696ZM17.85 19.603c-1.906 0-3.15-.942-3.15-2.42v-.064c0-1.564 1.414-2.57 3.706-2.677 1.435-.064 3.833-.022 3.833-.022l.022 1.65c0 2.034-1.862 3.533-4.411 3.533Z" fill="#fff"/></svg>