<svg width="71" height="39" fill="none" xmlns="http://www.w3.org/2000/svg"><path fill-rule="evenodd" clip-rule="evenodd" d="m24.847 10.725-4.189-.082c-.362.445-.56 1.02-.84 1.534l1.352.048c-.957 2.26-2.029 4.486-3.05 6.728l2.176.033 2.539-6.48c.198-.595 1.006-.215 1.5-.33l.512-1.45Zm15.912-.081h-1.582l2.142 8.342h2.177l-2.737-8.342Zm5.507 0c-1.402.147-3.199-.43-4.039.79-.314.676 0 1.386.427 1.897l4.321 3.76c-1.056.082-2.226 0-3.248.082l.627 1.78h3.693c.71-.082 1.533 0 1.93-.758a1.33 1.33 0 0 0 0-.94c-1.717-1.93-3.893-3.28-5.822-4.996l.083-.082h2.819l-.791-1.533Zm.593 0 .826 1.533c.395.016.808-.034 1.185.048l4.073 6.728h2.293c-1.385-2.259-3.051-4.42-4.42-6.694.56-.082.89.016 1.451-.082-.345-.495-.675-1.023-1.104-1.501l-4.304-.032Zm15.385 0h-1.781c-.742.18-1.912-.133-2.49.625-.115.395-.016.84.313 1.072l8.31 4.782-.082.083-3.084-.033-.23.082 1.667 1.732c1.532-.1 3.577.05 5.292-.116.329-.165.592-.495.478-.906-.084-.447-.512-.825-.876-1.073l-8.192-4.386-.512-.363c.924-.081 1.961 0 2.852-.081l-1.665-1.418Zm-45.856.032h-1.913l-4.386 5.738c-.296.593-.89 1.104-.676 1.863.297.692 1.072.923 1.747 1.022 1.963.231 3.81-.297 4.98-1.847l3.81-6.776c-.594.016-1.22-.033-1.749.05l-3.198 5.21c-.577.857-1.32 1.698-2.424 1.516-.214-.065-.462-.23-.478-.478 1.401-2.044 2.736-4.106 4.237-6.1l.05-.198Zm16.934 2.259c.644 1.319.395 3.165-.56 4.27-1.55 1.731-3.744 2.293-6.019 1.946-1.253-.264-2.523-.89-3.199-2.144-.643-1.088-.528-2.704.199-3.71 1.369-2.373 4.007-3.165 6.529-2.77 1.236.248 2.507 1.188 3.05 2.408Zm-2.54-.363c-1.252-.79-3.1-.56-4.27.247-.94.693-1.665 1.698-1.351 2.886.313.907 1.203 1.484 2.109 1.614 1.484.249 3.068-.08 4.073-1.3.445-.661.61-1.6.346-2.409-.197-.395-.51-.79-.907-1.038Zm8.51-.313c.297.627.543 1.518.163 2.177-.64 1.351-2.258 1.038-3.477 1.303l.345 3.248h-2.259c.033-2.737-.181-5.558-.263-8.343 2.028.064 4.418-.414 5.491 1.615Zm-3.646 0 .2 1.698 1.632-.033c.445-.148.494-.643.395-1.022-.395-.875-1.417-.577-2.227-.643ZM8.424 18.986h-2.26c.363-.759.843-1.45 1.188-2.209-.692-.017-1.385-.15-2.094-.051l-2.605 2.31-2.655-.05 10.652-8.393 1.814.083-4.04 8.31Zm.874-5.738L7.12 15.193l1.072.034c.363-.66.858-1.353 1.105-1.979Zm54.53 5.194c.146.182.41.313.558.511-.873.067-1.747.016-2.686.034l-2.457-2.26c-.61-.033-1.37-.084-1.896.05l1.023 2.126c-.777.05-1.486.1-2.343.05l-3.232-8.227a11.024 11.024 0 0 1 2.095 0l8.938 7.716Zm-7.801-4.6c.43.494.364 1.995 1.434 1.302l-1.434-1.302Zm-4.78 6.25-.084.049 4.008 8.343 5.967.082c-.28-.61-.692-1.154-1.022-1.748-1.088-.016-2.276.066-3.248-.065l-3.528-6.58c-.675-.082-1.32.018-2.093-.082Zm-21.931.049-.116.032-1.5 7.964v.396l12.267-.049c.94-.05 2.11.247 2.605-.709.149-.363.116-.857-.148-1.155l-4.205-4.666-.066-.197h3.084l-.247-1.584-2.77.051c-.775.032-1.666-.15-2.293.314-.263.228-.296.56-.281.905 1.155 1.912 2.771 3.511 4.124 5.342h-8.476l-.99-.082c.215-2.21.528-4.42.792-6.562h-1.78Zm-.627.032h-5.375l-3.05 8.311h6.677c.149-.511.346-1.121.33-1.7a64.74 64.74 0 0 1-4.04-.031l.593-1.913h3.513l.396-1.65h-3.314l-.116-.081c.18-.462.248-.973.511-1.385h3.48l.395-1.55Z" fill="#000"/><path fill-rule="evenodd" clip-rule="evenodd" d="M52.4 23.42c.578 1.024.463 2.49-.197 3.447-1.22 1.765-3.347 2.21-5.474 1.896-2.095-.378-4.239-1.946-5.013-4.04-.346-.99-.115-2.126.462-2.918 1.385-1.682 3.462-2.076 5.589-1.78 1.88.378 3.777 1.516 4.633 3.396Zm-7.37-1.779c-.775.378-1.417 1.236-1.417 2.144.13.956.642 1.862 1.533 2.407 1.188.874 2.902 1.02 4.288.479.56-.298 1.103-.891 1.22-1.502.197-.708-.067-1.418-.43-1.979-1.137-1.78-3.38-2.193-5.193-1.549Zm-23.183.396c.23 2.126-.94 3.94-2.621 5.143-2.358 1.485-5.41 1.288-8.261 1.22l4.864-8.26c2.274.215 5.226-.758 6.018 1.897Zm-4.864-.28c-.859 1.63-1.815 3.248-2.54 4.863 1.516.1 2.92-.346 4.123-1.137.973-.725 1.681-1.78 1.418-2.968-.594-1.072-1.946-.66-3.001-.758ZM46.582 9.082C45.3 3.88 40.606 0 35.008 0c-5.62 0-10.331 3.89-11.588 9.124l23.162-.042ZM19.732 32.773h1.614c.596 0 1.487.17 1.487 1.181 0 .55-.37.934-.92 1.032v.012c.63.059 1.058.484 1.058 1.053 0 1.163-1.044 1.334-1.625 1.334h-1.614v-4.612Zm.926 3.885h.436c.43 0 .952-.105.952-.64 0-.602-.488-.695-.951-.695h-.437v1.335Zm0-2.023h.376c.391 0 .873-.086.873-.56 0-.536-.47-.576-.891-.576h-.358v1.136Zm6.16 2.75h-.838v-.463h-.014c-.271.33-.655.543-1.117.543-.807 0-1.157-.57-1.157-1.334v-2.15h.886V35.8c0 .416.006.979.575.979.641 0 .78-.694.78-1.131v-1.666h.885v3.405Zm3.642-.191c-.324.178-.694.27-1.17.27-1.124 0-1.778-.646-1.778-1.764 0-.985.522-1.797 1.58-1.797 1.263 0 1.62.864 1.62 2.055h-2.354c.04.549.423.86.972.86.43 0 .8-.16 1.13-.345v.72Zm-.595-1.846c-.026-.428-.225-.8-.72-.8-.496 0-.747.345-.787.8h1.507Zm1.541-1.367h.838v.462h.015c.276-.39.654-.54 1.117-.54.805 0 1.155.568 1.155 1.334v2.149h-.885v-1.818c0-.418-.007-.98-.575-.98-.642 0-.78.695-.78 1.13v1.667h-.885v-3.404Zm5.485-1.208h.992l1.182 3.622h.014l1.17-3.622h.918l-1.553 4.613h-1.137l-1.586-4.613Zm4.884 1.208h.886v3.405h-.886V33.98Zm0-1.468h.886v.846h-.886v-.846Zm1.968 1.647a3.06 3.06 0 0 1 1.184-.257c1.037 0 1.467.43 1.467 1.433v.436c0 .345.007.602.014.854.007.258.02.495.04.76h-.78c-.034-.18-.034-.405-.04-.51h-.014c-.205.377-.647.589-1.052.589-.6 0-1.188-.364-1.188-1.011 0-.51.244-.807.58-.972.339-.166.775-.199 1.144-.199h.491c0-.549-.246-.734-.767-.734-.378 0-.755.147-1.052.371l-.027-.76Zm1.038 2.658c.271 0 .482-.12.622-.305.145-.19.186-.437.186-.702h-.384c-.398 0-.986.068-.986.59 0 .29.245.416.562.416Zm1.963 1.347c.476-.026.542-.12.542-.647v-3.537h.887v3.656c0 .481-.138 1.217-1.025 1.217-.145 0-.325-.022-.436-.054l.032-.635Zm.542-5.652h.887v.846h-.887v-.846Zm4.548 4.68c-.326.18-.696.272-1.171.272-1.124 0-1.779-.648-1.779-1.765 0-.985.524-1.797 1.581-1.797 1.263 0 1.618.864 1.618 2.055h-2.352c.04.549.424.86.971.86.43 0 .8-.16 1.132-.345v.72Zm-.596-1.845c-.025-.428-.225-.8-.721-.8-.494 0-.747.345-.786.8h1.508Z" fill="#000"/></svg>