<svg width="130" height="14" fill="none" xmlns="http://www.w3.org/2000/svg"><path d="M1.818 11.768h1.4c1.635 0 2.447-.966 2.447-2.143 0-2.087-1.882-2.288-2.632-2.288H1.818v4.43Zm0-5.884h1.147c.83 0 2.106-.214 2.106-1.89 0-1.779-1.275-1.847-2.216-1.847H1.818v3.737ZM-.002.69h3.62c1.215 0 3.268.491 3.268 2.98 0 2.07-1.361 2.649-1.947 2.868v.036c.932.141 2.546.797 2.546 3.209 0 3.073-2.43 3.434-4.012 3.434H-.002V.69ZM19.727.69h2.271l4.94 9.806h.032V.69h1.633v12.531H26.46l-5.065-10.04h-.036v10.04h-1.632V.691ZM37.858 11.292c-.518.3-1.354.678-2.431.678-2.593 0-3.356-2.307-3.356-5.447 0-1.707.327-4.58 2.687-4.58.973 0 1.472.436 1.728.948l1.392-1.294C37.195.904 36.155.493 34.812.493c-3.646 0-4.738 2.996-4.738 6.317 0 4.903 2.232 6.611 4.996 6.611 1.459 0 2.74-.503 3.27-.74l-.482-1.389ZM43.425 11.97c2.505 0 2.907-2.964 2.907-5.01 0-2.054-.402-5.016-2.907-5.016-2.5 0-2.883 2.962-2.883 5.015 0 2.047.383 5.012 2.883 5.012Zm-4.88-5.01c0-3.397 1.035-6.468 4.88-6.468 3.849 0 4.91 3.071 4.91 6.467 0 3.377-1.061 6.461-4.91 6.461-3.845 0-4.88-3.084-4.88-6.46ZM18.768 13.222 14.483.687h-2.234L7.982 13.222h1.929l3.444-10.864h.041l1.595 5.028H13.4l-.46 1.45h2.513l1.392 4.386h1.923ZM51.883 5.936h1.294c1.323 0 2.3-.35 2.3-1.877 0-1.894-1.362-1.92-2.3-1.92h-1.294v3.797ZM50.068.686h3.011c1.855 0 4.392.046 4.392 3.33 0 3.075-2.7 3.37-3.974 3.37h-1.614v5.836h-1.815V.687ZM69.05 2.138h-3.124V.688h8.059v1.45h-3.118V13.22H69.05V2.138ZM99.255 11.97c2.507 0 2.907-2.965 2.907-5.011 0-2.055-.4-5.017-2.907-5.017-2.5 0-2.879 2.962-2.879 5.017 0 2.046.379 5.011 2.879 5.011ZM94.379 6.96c0-3.403 1.037-6.474 4.876-6.474 3.855 0 4.909 3.071 4.909 6.474 0 3.377-1.054 6.459-4.909 6.459-3.839 0-4.876-3.082-4.876-6.46ZM105.631.687h2.264l4.945 9.808h.034V.687h1.633v12.535h-2.139L107.303 3.18h-.04v10.042h-1.632V.687ZM116.438.688h1.816v12.534h-1.816V.688ZM88.488 7.386h2.663v4.089c-.121.186-1.013.495-2.12.495-2.883 0-3.221-3.016-3.221-5.396 0-2.271.539-4.63 2.898-4.63 1.014 0 1.62.424 1.93 1.018l1.373-1.284C91.244.88 90.045.483 88.726.483c-3.558 0-4.921 2.638-4.921 6.091 0 4.85 2.05 6.845 5.283 6.845 2.063 0 3.358-.887 3.74-1.177V5.937h-4.34v1.45ZM67.06 13.222 62.77.687h-2.237l-4.27 12.535h1.928l3.453-10.864h.035l1.598 5.028h-1.595l-.455 1.45h2.505l1.4 4.386h1.929ZM129.998 13.222 125.712.687h-2.233l-4.268 12.535h1.926l3.453-10.864h.031l1.594 5.028h-1.586l-.46 1.45h2.51l1.393 4.386h1.926ZM83.66 13.222 79.373.687h-2.237l-4.262 12.535h1.92l3.453-10.864h.03l1.599 5.028h-1.591l-.46 1.45h2.513l1.394 4.386h1.926Z" fill="#000"/></svg>