<svg width="72" height="29" fill="none" xmlns="http://www.w3.org/2000/svg"><path d="m7.59 28.165-1.14-.109c-1.05-.099-2.28-.305-3.298-.553-1.043-.253-2.986-.89-3.087-1.013-.059-.07-.076-3.516-.063-12.472L.021 1.644l.588-.235C1.799.935 4.119.42 6.157.175A35.655 35.655 0 0 1 8.729.013c4.56-.126 7.188.648 9.131 2.69.529.556.69.787 1.033 1.49.53 1.084.644 1.55.692 2.84.062 1.697-.142 2.786-.74 3.943-.372.721-1.181 1.569-1.912 2.002l-.503.298.43.125c.236.068.727.277 1.091.463.534.274.797.475 1.367 1.04 1.497 1.49 2.212 3.247 2.213 5.442 0 1.376-.175 2.185-.709 3.275-.342.698-.504.932-1.031 1.486-1.208 1.269-2.683 2.068-4.78 2.587-1.405.349-2.46.45-4.923.477-1.212.012-2.336.01-2.498-.006Zm3.748-4.958c1.778-.155 2.81-.5 3.536-1.185.743-.7 1.056-1.41 1.056-2.393 0-1.087-.329-1.894-1.04-2.553-.483-.446-1-.713-1.811-.934-.514-.14-.83-.159-3.468-.198L6.708 15.9l-.024-.17c-.016-.113.338-.8 1.059-2.057a153.118 153.118 0 0 1 1.249-2.154l.167-.265 1.09-.039c.905-.032 1.19-.07 1.69-.232 1.397-.45 2.15-1.472 2.153-2.92.002-.796-.22-1.375-.735-1.926-.493-.527-1.02-.822-1.946-1.09-.534-.154-.734-.17-2.168-.17-1.655.001-2.223.07-3.435.42l-.533.154v17.24l.386.116c1.333.399 3.74.568 5.677.4Zm22.45 4.851c-1.61-.194-2.962-.588-4.22-1.229-3.905-1.992-5.775-6.172-5.775-12.913 0-5.063 1.03-8.503 3.23-10.79 1.33-1.383 2.789-2.205 4.78-2.691C33.229.086 33.862.027 36.139.03c2.565.003 4.16.17 6.393.668.884.197 1.029.262 1.029.458 0 .066-.518 1.025-1.151 2.13l-1.15 2.012-.375-.038c-.206-.02-.82-.113-1.366-.206-.854-.146-1.258-.17-2.903-.173-1.774-.004-1.955.008-2.535.166-2.912.792-4.356 2.995-4.71 7.184-.102 1.209-.045 3.459.117 4.579.603 4.19 2.369 6.138 5.872 6.48 1.378.135 2.983-.1 4.36-.637l.534-.208v-6.507l-3.178-.02-3.179-.018-.022-.19c-.015-.135.31-.77 1.131-2.204.634-1.108 1.203-2.073 1.264-2.144.104-.12.417-.129 4.605-.129 3.397 0 4.515.022 4.581.089.068.067.088 1.802.087 7.367 0 4.003-.028 7.32-.06 7.372-.074.116-2.014.822-3.208 1.167-1.031.297-2.188.554-3.27.725-.9.143-4.334.212-5.218.105Zm16.582-.266c-.027-.027-.049-6.16-.049-13.629 0-13.35.002-13.58.142-13.656.09-.048 1.07-.076 2.677-.076 2.206 0 2.55.015 2.65.116.103.103.116.694.116 5.4v5.286h4.872c5.038 0 5.054.001 5.045.29-.002.063-.576 1.107-1.276 2.32l-1.273 2.204-3.684.019-3.684.019v5.79c0 4.405-.021 5.81-.088 5.878-.066.065-.776.088-2.744.088-1.46 0-2.677-.022-2.704-.049Zm16.093 0c-.027-.027-.049-6.16-.049-13.629 0-13.35.002-13.58.142-13.656.194-.103 5.107-.103 5.3 0 .14.075.143.305.143 13.589 0 7.432-.02 13.565-.045 13.629-.04.103-.35.116-2.743.116-1.484 0-2.72-.022-2.748-.049Z" fill="#000"/></svg>