<svg width="110" height="35" fill="none" xmlns="http://www.w3.org/2000/svg"><path clip-rule="evenodd" d="M19.064 3.19h.352c.35 0 .636.287.636.636v.015a.638.638 0 0 1-.636.636h-.005c.176 1.208 1.138 2.137 2.291 2.137.615 0 1.174-.264 1.59-.692a.452.452 0 0 1 .052-.5l.05-.061a.459.459 0 0 1 .643-.064l3.337 2.738a.459.459 0 0 1 .064.642l-.05.06a.459.459 0 0 1-.642.065l-.047-.038.052.107c-3.079 3.235 1.628 9.886-.93 14.886-.999 2.206-2.478 3.75-4.23 4.89-2.98 1.581-5.978 1.683-6.91 3.099l-.097.215-.097-.215c-.932-1.416-3.56-1.518-6.54-3.1-1.75-1.139-3.232-2.683-4.23-4.89-2.557-5.003 2.15-11.653-.929-14.889l.052-.107-.047.038a.457.457 0 0 1-.642-.064l-.05-.06a.457.457 0 0 1 .064-.642l3.337-2.739a.457.457 0 0 1 .643.064l.05.06c.119.146.133.344.051.501.417.43.976.693 1.59.693 1.154 0 2.116-.93 2.292-2.138h-.007a.637.637 0 0 1-.636-.635v-.016c0-.348.285-.635.636-.635h.352v-.565h.482V2.01h7.626v.616h.482v.564h.001Z" stroke="#000" stroke-width="2.394" stroke-miterlimit="22.926"/><path fill-rule="evenodd" clip-rule="evenodd" d="M19.464 16.507v-.621l.665-1.036c.136-.214.97.538 1.502.894.13.086 1.06.035 1.733.813l.617.406s-.772.036-.948.031c-.178-.007-.06.048-.06.048.278.137.428.289.455.473.052.35.311.215.232.263-.23.136-1.01-.233-1.226-.187-.216.047-.377-.119-.6-.202-.614-.23-1.121-.217-1.166-.316-.114-.253-1.009-.512-1.204-.566Zm0-3.285v-.58l.743-1.168c.19-.167 1.636.648 1.899 1.274.06.144.457-.084 1.129.695l.632.366-1.164-.035c-.178-.007-.126.016-.126.016.64.697.924.72.79.723-.301.009-.728-.31-.944-.262-.215.046-.367-.06-.59-.144-.615-.23-1.063-.252-1.108-.348-.113-.258-1.06-.49-1.26-.537Zm0-3.79v-.147l.865-1.34c.19-.152 1.628 1.142 1.89 1.28.137.072.467.236 1.14 1.013l.477.458s-.913-.37-1.091-.377c-.176-.007-.182-.003-.182-.003.64.697 1.147.784 1.017.818-.428.112-.771-.078-.88-.109-.21-.06-.375-.224-.598-.305-.616-.23-1.172-.453-1.244-.53-.418-.45-1.07-.375-1.394-.758Zm0-1.697v-.057c.062.043.05.058.05.058l-.05-.001Zm-10.352.209c-.124-.099-.767.46-1.28.866v1.56c.513-.24 1.031-.363 1.085-.425.333-.385.91-.145 1.084-.617l-.889-1.384Zm10.352-.266v.057l-1.072-.009s-.152.135-.466.188c-.314.054-1.266.207-1.526.036-.261-.17-1.356.18-1.356.18l-.241.045v-1.93s1.804-.135 2.253.053c.449.188.979.27.979.27l.556.162.71.18s-1.095.162-1.249.251c-.152.09-.098.082-.098.082l1.04.278s.046-.054.298.062c.086.041.14.072.172.095Zm0 1.607v.147a1.102 1.102 0 0 1-.051-.067l.051-.08Zm0 3.357v.58l-.038-.009-.255-.11.293-.461Zm0 3.244v.621l-.038-.01-.288-.102.326-.51ZM7.833 17.063v-1.645c.013-.005.024-.007.032-.009.18-.036.81-.202 1.002-.333.19-.131.352-.328.352-.328l.829 1.365s-1.212.593-1.725.88c-.073 0-.259.017-.49.07Zm0-3.01v-1.854c.133-.082.26-.15.366-.186.385-.133.274-.126.535-.299.259-.172.452-.348.452-.348s.9 1.315.82 1.322c-.08.009-1.28.661-1.28.661s-.503.536-.669.629a1.145 1.145 0 0 1-.224.074Zm0-5.243c-.273.216-.508.389-.61.397-.404.035-.796.178-1.414 1.014l-.143.37s1.098-.453.993-.298c-.208.308-.522.978-.492 1.109.006.03.317-.4.524-.46.211-.06.465-.162.66-.298.148-.105.316-.195.483-.273v-1.56h-.001Zm0 3.39v1.852c-.311.078-.803.157-.846.17-.056.015-.228.055-.378.165-.149.11-.536.04-.536.04s.22-.11.299-.204l.606-.723s-.016 0-.095-.016c-.08-.015-.998.133-1.093.102-.095-.031-.307-.188-.204-.142.102.047 1.22-.51 1.376-.621.116-.081.513-.404.87-.623Zm0 3.218v1.645c-.532.124-1.304.44-1.473 1.176-.218-.107.19-1.317.255-1.34-.18-.214-.896.31-.889.271 0-.119.617-.737.736-.927.11-.181 1.119-.74 1.37-.825ZM26.207 22.835c-.104.31-.232.618-.385.918-1 2.207-2.48 3.75-4.23 4.89-2.98 1.581-5.98 1.683-6.911 3.1l-.097.215-.097-.216c-.932-1.416-3.56-1.518-6.54-3.099-1.75-1.14-3.232-2.683-4.23-4.89-.154-.3-.28-.607-.385-.918h22.875Z" fill="#000"/><path clip-rule="evenodd" d="M14.944 2.626h-4.472v.564h8.592v-.564h-4.12Z" stroke="#000" stroke-width=".958" stroke-miterlimit="22.926"/><path fill-rule="evenodd" clip-rule="evenodd" d="M22.248 28.187c-.214.159-.433.31-.656.456-.17.09-.337.174-.506.254-.268-.11-.514-.19-.634-.171-.335.052-1.44.36-1.954.437-.515.077-2.443.025-3.137-.128-.694-.154-2.882.052-2.882.052s-1.57.026-2.032-.104c-.39-.109-1.309-.235-2.065-.12-.143-.07-.288-.144-.435-.22-.359-.235-.708-.485-1.043-.756.375-.042.813-.075 1.072-.037.515.078 2.264.335 2.753.284.488-.052 2.931-.258 3.908-.361.978-.104 2.058.153 3.19.309 1.132.153 2.39-.411 2.983-.31.343.061.97.258 1.438.415ZM25.902 23.584c.002 0 .002 0 0 0-.024.056-.052.109-.08.163l-.003.006c-.097.215-.199.423-.304.625-.297.06-.913-.285-1.49-.338-.577-.055-1.393.162-1.588.195-.195.033-.713.487-.713.487h.486c.196 0 1.857.53 1.977.55.121.022.627-.096.726.127-.135.202-.275.399-.42.587-.283.08-.587-.085-.89-.131-.301-.047-2.009-.389-2.009-.389s-.421-.066-1.459-.325c-1.037-.258-4.245.033-4.537.066-.292.033-1.393 0-1.913-.226-.518-.226-.972-.13-1.134-.097-.163.033-1.005.195-1.427.358-.42.162-1.23.065-2.301-.097-1.069-.162-1.652-.389-1.913-.356-.259.033-.8.244-.972.226-.173-.015-.774-.095-1.038-.096-.262-.002-.291.299-.53.088-.24-.209-.542-1-.656-1.248-.114-.25-.216-.121-.083-.173.132-.05.85.359.85.359s.778-.226 1.621-.292c.843-.065.875 0 1.588 0 .713 0 1.102.097 2.074.325.972.226.746-.033 1.556-.066s.388-.162 1.458-.13c1.07.034.292.034.876.097.583.066 1.588-.032 1.588-.032s1.46-.13 2.205-.066c.746.066.55.097.972.195.421.097 1.459.13 2.236-.066.777-.195 1.88-.324 1.88-.324s1.026-.356 1.718-.356a4.305 4.305 0 0 1 1.649.354Z" fill="#fff"/><path fill-rule="evenodd" clip-rule="evenodd" d="m12.937 11.606.19-.005.014.207h.127l.002-.164h.233v.107l.018.06.022.135V12.093l-.012.022-.01.024-.023.012-.012.013-.023.134-.01.124v.27l.023.034.012.035.134.022.182-.01.169-.01.134-.012.023-.035.034-.022v-.068l.013-.112V12.3l-.012-.406h-.025v-.034l-.012-.035h-.012l-.012-.012-.022-.09v-.112l-.013-.102v-.102h.004v-.119l.005-.002.004-.001v-.007h.013l.18-.02.041-.004-.001.141.007-.005v.003l.096-.008v-.206l.16-.007.158-.006v.2l.059-.002.003-.202.29.014-.005.167h.034l-.01-.103.287.045.005.107-.007.057v.293l-.057.045-.045.057-.012.26v.643l.057.012.204.01.102-.01.101.01.09.01h.102l.023-.079v-.383l-.013-.135-.01-.146V11.9l-.003-.17.195.004.012.007v.123h.117v-.135h.006v-.022h-.006v-.002l.002-.002h.221c.024.06.022.092.022.16h.075c0-.067-.018-.103.001-.16l.206-.012a.435.435 0 0 1 .031.176l.112.01v-.141l.188.005-.029.518-.012.035-.012.281-.01.181v.125l-.013.09h.068l.067.012v.034l.023.102.012.09.012.102v.102l-.012.09-.012.101-.023.102-.022.09-.01.09v.18l-.023.079-.057.067-.045.057-.035.135-.022.124-.022.135-.012.124-.035.124-.035.112-.022.125-.012.124-.012.249v.248l.022.102.012.112.01.112v.113h.013l.012.012.022.159.023.045v.158l.022.135.035.124.057.135.012.112.034.09.012.035.035.034.034.035.057.034v.057l.068.26.045.022.022.034.035.012.034.045.035.045.012.034.045.013.034.012.023.022.012.023.022.057.012.079.057.022.035.023.022.034.012.057h.023l.012.035.012.045h.01l.023.01v.08l.012.034.034.023V19.13l-.08.135-.079.124-.022.406-.012.418-.012.417v.418l-.012.418.012.406v.418l.012.48h.012l.012.012v.101H11.576V22.715h.045l-.012-.27v-.277l-.012-.259-.012-.395.012-.384.012-.373.012-.372.023-.373-.012-.113-.012-.112-.012-.112v-.112l.012-.068.012-.09v-.044l-.012-.045-.012-.035-.023-.01-.01-.023v-.012l-.035-.022-.034-.01-.013-.192-.012-.192-.01-.181-.012-.192.022-.022.035-.035.022-.057.035-.057.057-.112.045-.09.08-.112.089-.112.022-.08.035-.067h.024l.012-.034.012-.023h.023l.022-.012.023-.112.022-.112.023-.112.022-.113.034-.012h.035l.022-.09.023-.09.022-.022.023-.012.012-.012v-.022l.045-.035.034-.045.023-.057.022-.057.023-.134-.012-.113.012-.057.012-.057.022-.045.045-.044v-.023l-.022-.012v-.124l.022-.125.023-.112.034-.124.022-.328v-.339l-.022-.338-.034-.328-.023-.067-.034-.057-.045-.068-.045-.045-.035-.09-.034-.034-.012-.135-.023-.134-.022-.125-.012-.134-.023-.012-.022-.023v-.122l.01-.057-.022-.09v-.159l.022-.034.023-.045.044-.035v-.022l-.012-.023-.01-.012-.012-.012.034-.057.035-.057.012-.08.014-.086-.012-.169-.023-.136-.034-.035-.023-.045-.012-.079c-.01-.074.026-.27-.046-.27v-.182h.193l.031.16h.157l.026-.255h.195l.002.212h.166l.005-.207Z" fill="#000"/><path fill-rule="evenodd" clip-rule="evenodd" d="M17.516 22.706v-.294l.034.023.012.022.012.034v.045l-.012.09-.022.067h-.012l-.012.013ZM15.418 22.683h-.022l-.023-.012-.012-.102v-.17l.035-.022.034-.022h.362l.034.01.022.012.023.023.022.022.012.035.012.045v.112l-.067.034-.067.035h-.365ZM16.377 22.683l-.022-.022-.023-.045v-.114l.023-.112.022-.102h.159l.034.09.023.079v.09l.01.102-.045.012-.181.022ZM16.861 22.683l-.124-.012-.045-.012-.012-.09-.012-.102V22.365l.022-.045.023-.022.102.012h.102l.022.102v.157l-.012.057-.023.034-.043.023ZM17.066 22.683l-.022-.022-.012-.045-.012-.045v-.045l.012-.102.012-.08h.134l.102.013v.159l-.022.159-.09.012h-.102v-.004ZM17.407 22.683h-.023l-.022-.012-.012-.08v-.124l.012-.034v-.035l.022-.035h.045l.023.16-.013.158h-.032v.002ZM13.69 22.683l-.101-.012-.068-.012-.045-.022-.034-.035-.01-.045V22.331l.203-.022h.182l.034.022.023.012.012.023.022.079.012.102-.012.057-.012.057-.067.012-.138.01ZM16.028 22.683v-.328l-.022-.035v-.034h.157l.057.012.022.022.012.035.01.057-.01.067v.102l-.044.034-.023.057h-.08l-.079.01ZM13.06 22.648h-.034v-.112l-.012-.134v-.057l.012-.068.012-.057.022-.045.112-.012.08.012.034.012.013.023.022.022v.182l-.012.203-.057.023-.067.012h-.125v-.004ZM12.121 22.648l-.034-.022-.022-.012v-.326l.011-.102.08-.023h.057l.067.012.08.012-.012.068-.035.057-.012.169-.012.159h-.09l-.078.008ZM11.703 22.636v-.17l.01-.168.035-.012h.035V22.455l-.012.08-.013.089h-.034l-.02.012ZM12.437 22.636l-.023-.034v-.045l-.012-.045v-.067l.012-.113v-.09l.045-.022.035-.022.045-.012h.057l.012.045.022.022v.349l-.102.012-.091.022ZM12.81 22.636l-.046-.034-.044-.023-.013-.102-.012-.112v-.112l.023-.102h.057l.067-.012h.057l.057.022-.012.113v.124l-.012.112-.012.112h-.056l-.055.014ZM11.884 22.614h-.022l-.012-.012v-.192l.012-.09.012-.09.034-.012h.09v.203l-.012.101-.022.09h-.08v.002ZM15.543 22.31l-.112-.045-.068-.022v-.204l.012-.034.023-.035.022-.034.125-.012.146-.013h.068l.067.012.045.023.045.045v.067l.012.09v.08l-.012.067H15.634l-.091.015ZM17.54 22.31l-.011-.022-.035-.012v-.137l.035-.134.022.012.012.034.012.035.012.045V22.3h-.024l-.022.01ZM13.768 22.276h-.09l-.09-.013h-.056l-.045-.012-.034-.022-.023-.023v-.079l-.012-.067.012-.068.023-.067h.214l.101.012.113.023.022.124.012.124-.034.035-.035.012-.045.012-.033.009ZM17.382 22.265l-.045-.022-.045-.012-.012-.068-.022-.067v-.057l.012-.035.012-.034h.102l.057-.012v.157l-.012.045v.034l-.023.035-.024.036ZM16.974 22.243h-.01l-.013-.012v-.261l.08-.012.146.012.012.214v.057h-.215v.002ZM16.072 22.23l-.022-.034-.012-.034-.012-.045-.012-.045v-.102l.012-.09h.057l.057.035h.08l.022.057.012.067.01.067v.068l-.09.034-.102.023ZM16.513 22.208l-.09-.012-.08-.035v-.248l.058-.012h.057l.067.012.057.012.012.067.01.067v.08l-.022.067h-.069v.002ZM16.705 22.208l-.012-.057v-.135l.012-.067.035-.012h.091l.035.012v.259h-.16ZM11.705 22.174l-.023-.08-.01-.067.01-.08.012-.079h.022l.013.102v.192h-.012l-.012.012ZM11.816 22.129l-.035-.125v-.124h.08l.012.068v.113l-.012.023-.023.022-.022.023ZM11.997 22.119l-.035-.023-.012-.035-.01-.034-.012-.035.012-.079v-.067h.135l.012.124v.124l-.045.012-.045.012ZM12.55 22.106l-.035-.022-.035-.012V21.856l.023-.057h.067l.035.023.022.022.012.022v.202l-.045.023-.044.015ZM12.258 22.096l-.045-.035-.035-.012v-.112l-.012-.112.102-.012.124.012.023.045.01.045v.044l-.022.045-.023.035-.034.022-.045.023-.043.012ZM12.854 22.084l-.08-.012-.056-.012-.013-.147-.012-.09.137-.012.134-.012v.271h-.057l-.053.014ZM13.181 22.084l-.045-.035-.034-.022-.023-.022-.022-.035v-.181h.191l.023.034.022.023.012.034.012.035v.067l-.012.08-.034.012-.09.01ZM17.326 21.915l-.023-.045-.012-.045-.012-.045v-.135l.012-.101h.135V21.713l-.01.09v.09l-.045.011-.045.01ZM17.528 21.915l-.01-.012h-.012l.012-.17.01-.169h.057l.012.08.012.067.012.08v.079l-.044.034-.049.01ZM17.1 21.903l-.045-.023-.057-.01v-.17l-.012-.101V21.497l.102.035.102.022.012.112v.135l-.022.045-.035.034-.045.023ZM13.838 21.892l-.035-.034-.057-.01h-.057l-.057.01h-.057l-.053-.01-.035-.013-.022-.012-.023-.022-.022-.023v-.112l.012-.102.045-.012.057-.012h.134l.135.012.112.012.013.045.012.045v.09l-.012.045-.023.045-.022.034-.045.024ZM15.418 21.87l-.023-.035-.022-.044-.023-.045-.01-.045v-.057l.01-.045.012-.045.023-.045.124-.012.181.012h.08l.08.023.056.012.035.022-.012.135v.124l-.125.012-.134.012-.125.01-.127.011ZM16.784 21.858l-.057-.067-.057-.058-.012-.067v-.124l.023-.057h.146l.023.012.012.022.022.035.012.035v.158l-.012.09-.022.012-.078.009ZM11.715 21.835l-.035-.079-.01-.09v-.09l.01-.067.023-.012h.022v.318l-.012.012v.008h.002ZM16.343 21.825l-.022-.08-.012-.09v-.179h.181l.034.012.023.012.022.035.023.045-.012.112-.012.112-.045.012-.18.01ZM11.851 21.813l-.022-.012-.022-.012v-.318h.044l.045.012.023.012.012.012.012.057v.102l.023.057v.057l-.023.012-.091.02ZM16.073 21.803l-.023-.035-.022-.034-.012-.045v-.159l.012-.09.034-.012.035-.012h.022l.023.012.034.035.035.044.022.135v.112l-.034.023-.035.012h-.045l-.046.014ZM12.065 21.768l-.035-.08-.022-.067V21.452l.034-.012h.135l.023.112.011.125-.034.034-.012.045h-.057l-.043.012ZM12.359 21.756l-.035-.035-.022-.034-.012-.045-.012-.057-.012-.09v-.09l.079-.012H12.447l.034.023.023.034.012.057.012.057.012.08-.012.034-.012.023-.012.022-.023.012-.056.012-.066.009ZM12.63 21.746l-.034-.09-.012-.08v-.089l.012-.045.022-.035h.068l.08-.012h.079l.034.012.035.012v.068l-.023.09-.022.079-.035.057-.101.012-.102.02ZM13.082 21.723l-.045-.023-.022-.022-.022-.023v-.022l-.013-.057v-.102l.023-.057.034-.034.023-.023.034-.012.08.012.124.012.023.16v.158l-.045.022-.068.012h-.126v-.001ZM13.658 21.497l-.08-.022-.146-.013v-.318l.124-.01.135-.022h.067l.067.012.057.012.057.01.012.09.01.08-.01.09-.034.079h-.135l-.124.012ZM17.268 21.475l-.057-.035-.057-.022v-.16l.012-.146h.069l.035.012.045.012v.057l.012.249-.035.012-.024.02ZM17.429 21.452l-.023-.067v-.135l.012-.08.01-.012h.046l.022.137v.134l-.034.013-.033.01ZM15.484 21.44l-.057-.035-.035-.022-.022-.023-.012-.034-.012-.08.012-.124.022-.034.012-.023.023-.012.022-.012.045.012.067.012.16-.012h.158l.023.035.022.044.012.057V21.291l-.012.057-.035.035-.034.034h-.09l-.09.012h-.088l-.091.01ZM17.587 21.44l-.012-.057-.012-.067v-.08l.012-.045.012-.012h.012l.012.125v.134h-.024v.002ZM11.714 21.418l-.022-.102-.012-.113.012-.056.012-.045.01-.012.023-.012.022-.01h.023v.328l-.035.011-.033.01ZM11.94 21.407l-.034-.034-.023-.045-.012-.057v-.259l.09-.035.034-.012.013.113.022.136-.012.057-.012.057-.012.022-.012.023-.023.022-.019.012ZM16.92 21.407l-.022-.022-.012-.035-.022-.034v-.045l-.012-.09v-.08l.022-.011.035-.012.022-.01.034.01.058.012.056.022V21.326l-.022.057-.067.01-.07.014ZM16.288 21.395l-.034-.045-.023-.034-.022-.057V21l.057-.023.057-.012.057.012.057.023v.349l-.067.034-.082.012ZM16.65 21.395l-.067-.023-.057-.034v-.159l-.012-.147.067-.012.147.012.022.068.012.067.01.067v.08l-.034.022-.022.023-.035.022-.03.014ZM12.143 21.362l-.022-.09-.035-.09-.012-.101v-.09l.068-.012.067-.012.067.012.068.022.012.09-.012.102-.012.057-.02.043-.022.035-.034.022h-.058l-.055.012ZM16.04 21.362l-.012-.08-.012-.101-.012-.102.012-.08H16.118v.08l.01.09v.09l-.01.079-.045.01-.033.014ZM12.518 21.328l-.045-.023-.035-.022-.012-.067-.01-.08.01-.067.023-.067h.159l.022.034.012.022.012.035v.18l-.022.022-.045.012-.035.012-.034.009ZM12.798 21.328l-.035-.023-.034-.012-.012-.08V21.068l.012-.045.01-.045.012-.022h.157l.08.012.08.012.011.09v.08l-.012.044-.012.045-.022.035-.023.022-.112.012-.1.02ZM13.194 21.305l-.035-.034-.022-.035-.012-.034v-.057l.012-.102v-.09l.09-.022h.08l.022.101.01.08-.01.08-.012.09-.035.011-.088.012ZM13.803 21.079l-.09-.01h-.09l-.09-.012h-.101l.01-.237.012-.067.045-.023.057-.022.067-.012h.08l.08-.012.067.012.056.012.045.012.01.067.013.057v.114l-.023.045-.034.035-.045.022-.07.019ZM17.371 21.069l-.022-.023-.023-.022v-.136l.023-.135h.045l.022.012.01.012.023.035.012.044-.023.102-.012.102h-.034l-.02.009ZM17.538 21.069l-.022-.08v-.134l.01-.08.012-.012h.035l.022.08v.134l-.012.08h-.022l-.023.012ZM17.12 21.022l-.034-.034-.023-.035-.012-.045v-.045l-.012-.09.012-.09.057-.011.045.012.045.012.045.022v.08l-.01.08-.013.066-.034.068h-.035l-.03.01ZM11.715 21l-.023-.09-.022-.09V20.718l.01-.045.012-.034h.057l.012.09.013.079.012.09.012.09h-.045l-.038.012ZM16.907 20.99l-.08-.035-.079-.035v-.281h.114l.057.012.057.022v.269l-.035.035-.034.012ZM15.462 20.967l-.057-.022-.045-.023-.012-.102.012-.08.022-.044.035-.035.112-.045.159-.044h.102l.112.012.022.09.012.112v.057l-.022.044-.022.035-.035.035H15.564l-.102.01ZM11.873 20.932l-.012-.012h-.012l-.01-.159-.013-.159.023-.012.022-.012h.022l.035.023v.169l-.012.147h-.023l-.02.015ZM16.57 20.932l-.057-.034-.045-.023-.022-.022-.012-.035-.012-.08v-.123h.181l.057.022.012.057.012.08-.012.079-.022.067h-.035l-.045.012ZM12.042 20.922l-.012-.012h-.01l-.012-.16v-.158l.034-.012.125-.012v.181l-.012.135-.045.022-.068.016ZM12.302 20.91l-.035-.022-.034-.023v-.136l-.012-.147.022-.012.035-.01h.07l.068.01.057.022.022.147.023.135-.045.022-.057.012h-.114v.002ZM16.254 20.898l-.057-.023-.057-.01-.022-.067-.012-.08v-.157l.012-.022.022-.023.09.023.102.034.012.08.012.079-.012.08-.023.079h-.034l-.033.007ZM12.709 20.887l-.057-.022-.034-.034-.023-.035-.022-.035-.013-.09v-.112l.08-.012.067-.012.068-.01h.08v.159l-.023.169-.057.022-.066.012ZM16.018 20.887l.012-.102v-.101h.024v.09l-.012.101h-.012l-.012.012ZM13.012 20.875l-.045-.01h-.044l-.012-.045-.013-.034.013-.045v-.045l.022-.08.022-.079.08-.022.067-.013H13.25l-.012.17v.169l-.045.012-.18.022ZM13.328 20.809v-.024l.011.013h-.01v.01ZM13.328 20.696v-.18h.057v.124l-.012.023-.012.022-.033.01ZM17.538 20.696l-.034-.012-.045-.012v-.306h.114l.022.067.013.09-.013.08-.012.08h-.022l-.023.013ZM17.315 20.673l-.045-.034-.034-.035-.023-.034-.012-.035v-.102l.023-.102.079-.022h.057l.012.102.01.102v.056l-.01.045-.022.035-.035.024ZM13.635 20.629l-.068-.023-.067-.012v-.293l.022-.023.023-.034.112.022.112.023.113.034.101.057v.102l-.01.067-.012.035-.034.034-.113.012h-.18v-.001ZM16.986 20.594l-.023-.09-.012-.08V20.256l.09.013.08.022v.147l-.013.147h-.065l-.057.01ZM11.714 20.582l-.022-.08-.012-.09v-.079l.012-.045.012-.034.045.012.034.022.012.035.012.034v.08l.012.09-.044.022-.06.033ZM16.783 20.571l-.067-.022-.068-.023v-.293l.057-.012H16.807l.045.022.012.16-.012.158h-.034l-.035.01ZM16.525 20.537l-.022-.023h-.035l-.034-.012h-.08l-.022-.012-.035-.012-.012-.034v-.135l.012-.135h.113l.134.012.023.08.012.09-.012.079v.09h-.023l-.019.012ZM12.008 20.527l-.068-.012-.057-.012-.012-.135v-.135l.035-.022.034-.012.035-.01.045.01.012.09.022.09v.079l-.022.034-.024.035ZM15.373 20.526l-.022-.056-.023-.068v-.135l.124-.056.125-.045.057-.023.067-.022.067-.012h.08l.022.101.045.102v.135l-.045.023-.034.034h-.113l-.112.012H15.5l-.126.01ZM12.144 20.492l-.034-.147-.012-.159.112-.012.112-.012-.022.147-.012.147-.08.012-.064.024ZM12.415 20.47l-.022-.08-.012-.08v-.044l.012-.045.012-.035.012-.034.102-.012h.112v.306l-.057.012-.159.012ZM12.74 20.457l-.023-.034-.012-.035-.012-.034V20.149l.09-.022.09-.01.09-.012.102.022v.113l-.012.067-.013.057-.022.034-.045.023-.057.012-.08.012-.096.012ZM16.05 20.447l-.012-.012-.023-.012-.012-.067-.012-.068h-.01l-.012-.012-.023-.08-.022-.079h.102l.067.01.057.013.035.022.022.035.012.057V20.423l-.035.012-.134.012ZM13.149 20.425l-.012-.09.022-.226.067-.023.045-.012.057-.012h.068l.022.035.012.034.01.035v.045l-.056.045-.023.044-.012.035-.012.035-.01.012-.023.022-.057.012-.098.009ZM13.907 20.278l-.08-.034-.09-.023-.09-.022-.079-.045.012-.045.01-.057.013-.045.022-.045.068-.09.057-.09.044.01.035.023.035.023.044.034.068.068.067.057.023.044.022.035v.045l.01.045-.045.045-.034.034-.045.023-.067.01ZM17.575 20.266l-.012-.022-.012-.035v-.18l.012-.079h.024l.023.045.034.045-.012.057-.012.057-.012.057-.033.055ZM17.362 20.255l-.012-.158v-.16h.057l.022.013.023.012.022.034.01.045v.102l-.022.102h-.045l-.055.01ZM17.178 20.233l-.045-.022-.045-.012v-.08l.012-.09.022-.079.035-.08.057.013.045.01.012.181v.147h-.045l-.048.012ZM11.75 20.176l-.023-.09-.012-.079v-.067l.022-.09h.057l.023.034.012.035v.239l-.035.01-.045.008ZM16.919 20.176l-.057-.022-.045-.012v-.08l-.012-.09.012-.079.022-.067h.09l.09.034.012.067.012.068v.08l-.023.067-.046.012-.055.022ZM15.306 20.164l-.012-.035-.022-.034v-.035l-.012-.034.012-.068.034-.057.08-.134.09-.113h.089l.068.09.057.09.045.09.034.112-.112.035-.112.034-.113.035-.126.024ZM16.615 20.141l-.022-.044-.023-.035V19.96l.012-.102.035-.09.022-.012h.035l.012.023.022.01h.045V19.96l-.012.079v.08l-.067.01-.059.013ZM11.918 20.131l-.012-.067v-.067l-.012-.058-.035-.056.012-.023v-.012l.08-.034.124-.013.068-.012h.067l.045.012.034.013v.236l-.057.023-.045.022h-.044l-.057.012v-.159l-.013-.09h-.012l-.022.012-.012.102-.012.112-.057.023-.04.024ZM16.378 20.131l-.045-.022-.102-.023-.01-.067v-.102l.01-.09.012-.08.125-.011.124.022.01.023.012.045v.044l-.012.057-.01.102-.023.08-.045.012-.046.01ZM12.425 20.109l-.045-.035-.022-.035-.012-.034v-.125l.012-.101.057-.023h.202v.147l.012.135-.045.034-.057.012-.045.012-.057.013ZM16.015 20.074l-.056-.034-.045-.023-.023-.022-.01-.035.01-.102.012-.134h.068l.067-.012h.035l.034.012.023.012.022.022v.304h-.067l-.07.012ZM12.755 20.064l-.035-.01-.034-.013v-.067l-.012-.08.012-.079.012-.057.067-.022.057-.012.023-.012h.034l.023.012.034.012.023.134v.135l-.045.023-.057.022h-.045l-.057.014ZM13.06 20.052l-.013-.035-.012-.045v-.179l.023-.045.012-.035.102-.022.09-.01.011.034.013.035v.089l-.013.09-.022.08-.09.022-.102.02ZM13.397 20.007l-.034-.023-.035-.022.01-.112.023-.16.045-.01h.204l.012.057v.057l-.023.045-.022.057-.045.035-.045.045-.045.022-.045.009ZM14.142 19.985l-.08-.08-.079-.067-.044-.045-.035-.035-.034-.044-.013-.045.023-.045.045-.045.045-.023.057-.022.057-.012.057-.012h.044l.057.012.057.067.045.057.035.057.022.045v.055l-.012.057-.045.057-.08.045-.056.012-.066.01ZM14.99 19.917l-.013-.022-.01-.023-.012-.022v-.092l.012-.08.045-.134.035-.112.034-.012h.057l.045.012.057.023.09.056.08.057-.013.045-.012.045-.022.045-.023.045-.057.09-.067.067h-.112l-.114.012ZM17.586 19.883v-.068l.012-.124h.057V19.86l-.035.011-.034.01ZM17.463 19.87v-.224h.057v.112l-.023.112h-.034ZM15.802 19.838l-.023-.035-.022-.045-.01-.034-.013-.045h.035l.034.045.012.022v.045l-.013.047ZM14.572 19.826l-.067-.08-.08-.112-.034-.067-.023-.058-.022-.067v-.045l.102-.022.191-.012h.09l.09.012.08.022.044.023v.102l-.012.102-.034.101-.035.08-.147.012-.143.009ZM17.315 19.826l-.045-.012-.045-.023-.012-.035-.012-.056.012-.045.012-.035.023-.034.034-.012h.045l.045.022.01.112v.112h-.067v.006Z" fill="#fff"/><path clip-rule="evenodd" d="m11.714 19.793-.022-.057-.01-.067v-.035l.01-.023.012-.022.035-.022.022.01.01.024v.123l-.01.057h-.022l-.025.012ZM11.85 19.78l-.012-.09.012-.146.034-.022h.01v.124l-.01.112-.024.012-.01.01Z" stroke="#fff" stroke-width=".064" stroke-miterlimit="22.926"/><path fill-rule="evenodd" clip-rule="evenodd" d="m12.007 19.78-.022-.011-.012-.012v-.113l.012-.112h.034l.068.012v.045l-.012.147-.023.022-.045.023ZM17.022 19.77l-.035-.022-.067-.012v-.057l.022-.057.012-.057.035-.057.045-.012.057-.012.034.057.023.057.01.057v.067l-.067.023-.07.025ZM12.19 19.736l-.022-.057v-.067l.012-.068v-.067h.135l-.023.124-.012.112-.045.012-.045.01ZM16.715 19.724l-.034-.023-.068-.034.023-.181.012-.045h.124l.057.012.057.022-.022.124-.035.113h-.057l-.057.012ZM12.505 19.701l-.067-.012-.057-.01v-.124l.012-.08.012-.022.035-.012.045-.023.067-.01.012.134-.012.147h-.023l-.024.012ZM12.663 19.69l-.022-.066-.012-.09v-.137l.012-.022.112-.023h.09l.012.013.012.022-.022.124-.012.125-.09.034-.08.02ZM16.106 19.679l-.09-.067-.09-.068-.012-.112v-.124l.08-.012.09-.013h.044l.035.012.034.013.035.022v.214l-.01.045-.023.045-.035.022-.058.023ZM16.366 19.679l-.035-.012-.034-.012V19.373l.124.012.125.023v.112l-.013.124-.076.012-.091.023ZM12.958 19.657l-.022-.01-.012-.013V19.487l.012-.08.022-.066.09-.013.102-.012v.16l.022.146-.112.022-.102.013ZM15.78 19.634l-.124-.035-.125-.044V19.407l.012-.067.012-.067.068-.012h.124l.067.022.023.204.012.125-.035.012-.034.01ZM13.283 19.612l-.022-.035-.012-.034-.012-.035-.012-.034v-.16l.067-.044.067-.023h.035l.034.012.035.012.034.023-.012.147-.01.146-.045.012-.147.013ZM13.6 19.611l-.023-.034-.012-.035-.012-.057-.012-.044v-.057l.012-.045.012-.035.023-.034h.192l.022.067v.247h-.09l-.112.027ZM17.56 19.611l-.022-.022-.012-.022-.01-.035v-.079l.01-.068h.057l.035.057.012.045v.045l-.012.067h-.035l-.022.012ZM17.395 19.544l-.023-.022-.022-.023v-.159l.034.012.035.023.034.022.012.035v.034l-.012.035-.022.022-.037.021ZM13.905 19.522l-.012-.112v-.125l.067-.034.067-.013H14.174v.135l-.08.035-.19.114Z" fill="#fff"/><path clip-rule="evenodd" d="m11.761 19.5-.022-.023v-.023l-.012-.034.012-.035.01-.055.022-.046.045-.01h.057l-.012.089-.01.102-.045.012-.045.022Z" stroke="#fff" stroke-width=".064" stroke-miterlimit="22.926"/><path fill-rule="evenodd" clip-rule="evenodd" d="m17.213 19.487-.057-.045-.034-.034-.013-.057.012-.08.023-.012h.022l.023.012h.012l.034.035.023.034.012.045v.045l-.012.023-.012.012-.01.012-.023.01ZM15.418 19.477l-.034-.035-.057-.012-.078-.055-.08-.035-.034-.022-.012-.023v-.034l.023-.057.034-.012h.114l.067.034.08.045.01.045v.147h-.022l-.01.014ZM11.975 19.454l-.023-.045-.01-.056-.012-.058v-.057l.034-.012.023-.022.022-.012h.035l.01.067v.124l-.034.058h-.023l-.022.013ZM12.144 19.43l-.023-.057-.012-.067v-.067l.012-.068.045-.012.045-.012.023.045.022.067v.125l-.057.022-.055.024ZM16.941 19.43l-.045-.045-.022-.045v-.057l-.01-.067.067.012h.043l.034.012.012.023.023.057v.102h-.057l-.045.008ZM16.706 19.375l-.035-.012-.034-.012v-.092l.012-.034.012-.023.012-.012.035-.012h.079l.012.057v.125h-.048l-.045.015ZM14.266 19.363v-.135l.034-.034.045-.012.045-.012h.045l.09.022.09.023-.013.044-.022.023-.023.022h-.045l-.079.01h-.09l-.034.023-.043.026ZM12.359 19.352l-.023-.044-.012-.045v-.045l.012-.035.023-.034.034-.035.035-.012.057-.012.012.067.012.17-.035.012-.115.014ZM15.011 19.33l-.146-.023-.147-.012-.023-.045v-.044l.102-.023.08.012.079.012.09.045v.035l.012.022-.023.01-.024.01ZM16.446 19.318l-.057-.023-.068-.022-.022-.08.012-.044.012-.035.035-.012.09.012.111.023V19.306h-.056l-.057.012ZM12.628 19.308l-.034-.023-.023-.022-.012-.035-.012-.022v-.135l.124-.012.068-.012.012.045.012.057v.057l-.012.045-.068.022-.055.035ZM12.923 19.284l-.035-.01-.034-.013-.012-.124.012-.067.022-.023.023-.012.057-.01h.067l.023.022.022.012.012.035.012.022v.067l-.022.068-.08.012-.067.02ZM16.142 19.261l-.058-.034-.067-.035-.022-.035-.01-.022v-.045l.022-.045h.124l.067.023.023.012.01.034v.114l-.034.023-.055.01ZM17.53 19.262v-.013h.012v.013h-.013ZM13.195 19.239l-.022-.023-.012-.022-.013-.023v-.148l.045-.035.045-.012h.114l.023.045.012.057V19.18l-.113.035-.079.024ZM15.823 19.216l-.056-.022-.113-.012V19.08l.012-.057.012-.035H15.78l.045.012.035.023.034.022.023.035v.114l-.023.012-.07.01Z" fill="#fff"/><path clip-rule="evenodd" d="M11.67 19.207v-.013l.013-.01v.01l.01.013h-.023Z" stroke="#fff" stroke-width=".064" stroke-miterlimit="22.926"/><path fill-rule="evenodd" clip-rule="evenodd" d="m17.7 19.206-.046-.068-.045-.067v-.487l.023-.159h.034l.023.01.022.013.023.022.022.057.023.057v.147l.012.17V19.07l-.012.067-.023.057h-.022l-.035.012ZM13.532 19.194l-.035-.022-.034-.035V19.035l.012-.034.034-.057H13.68l.012.146-.012.068-.08.022-.067.014ZM15.464 19.194l-.045-.012-.045-.023-.045-.012-.034-.022-.023-.035-.012-.035-.01-.041.012-.057.057-.012.067-.012.057.012h.068l.022.045.023.034.012.035v.069l-.023.022-.034.023-.047.02ZM13.803 19.183l-.023-.022-.012-.035-.012-.022v-.092l.012-.067h.124l.08.012.034.023.012.044v.125l-.09.022-.126.012ZM17.314 19.184v-.013h.026v.013h-.026Z" fill="#fff"/><path clip-rule="evenodd" d="m11.816 19.161-.022-.024-.01-.033h.055v.045h-.01l-.013.012Z" stroke="#fff" stroke-width=".064" stroke-miterlimit="22.926"/><path fill-rule="evenodd" clip-rule="evenodd" d="m14.14 19.16-.012-.022-.022-.034v-.035l-.012-.034V19l.012-.034.012-.035.022-.022.125-.01h.134l.012.044.01.045-.01.057v.045l-.124.045-.147.026ZM17.223 19.161v-.024H17.258v.024H17.223ZM14.955 19.137l-.022-.023-.022-.012-.013-.022V18.933l.045-.022h.202l.012.034.012.023.013.022-.013.023-.012.044-.022.057-.045.012-.135.01ZM17.055 19.127v-.013h.012v.013h-.012ZM14.502 19.114v-.124l.012-.045.012-.022.023-.012.034-.01h.124l.045.022.057.012v.159l-.057.012-.25.008ZM17.44 19.092l-.023-.023-.09-.022-.057-.023-.045-.034-.034-.035-.023-.045-.045-.08-.012-.1v-.205l.012-.226.035-.01H17.26l.057.022.124.045.08.057.01.147.012.226-.012.112-.01.09-.013.035-.022.034-.01.023-.037.012Z" fill="#fff"/><path clip-rule="evenodd" d="m11.613 19.082-.024-.182-.01-.157V18.574l.01-.08.034-.09h.09l.012.079.012.079.01.08-.01.079-.012.169-.023.157-.044.012-.045.023Z" stroke="#fff" stroke-width=".064" stroke-miterlimit="22.926"/><path fill-rule="evenodd" clip-rule="evenodd" d="M12.154 19.07v-.024l.035-.023.01.01-.022.012-.023.025ZM16.738 19.038v-.024h.013l.013.013h-.013l-.013.01ZM16.547 19.015v-.023h.025l-.012.012-.013.011ZM11.885 18.968l-.023-.012h-.012l-.01-.16V18.333l.057-.057.08-.057.034-.012.045-.012h.089l.057.045.035.057.012.057v.067l-.022.125-.013.146.035.09.022.09-.101.034-.09.023-.09.022-.105.018ZM12.665 18.968l-.013-.023.013-.012.012.012.012.023h-.024ZM16.92 18.957l-.058-.022-.067-.023-.068-.01-.067-.012-.067-.012-.057-.012-.057-.023-.045-.034-.012-.26V18.257l.012-.169.124.012.135.012.067.012.057.012.068.023.057.034.034.058.045.067v.318l-.012.146-.023.16-.034.011-.033.005ZM12.82 18.923l.023-.035.034-.022-.012.022v.023h-.022l-.023.012ZM16.24 18.913v-.01h.013v.01h-.013ZM13.023 18.9v-.022l.013-.012.012.012.012.023h-.037ZM15.993 18.9l-.01-.012h-.012v-.024h.069l-.012.022-.035.014ZM16.14 18.89v-.012h.013v.012h-.012ZM12.416 18.878l-.045-.09-.023-.09-.012-.102-.012-.09.012-.191.012-.192.035-.034.045-.023.057-.022.057-.023.124-.022.09-.012.034.067.023.09.012.102.012.124v.112l-.012.113-.012.09-.012.067-.09.045-.09.034-.102.035-.103.012ZM15.903 18.878v-.023l-.012-.012h.024v.012l-.012.023ZM13.193 18.869v-.026h.026v.025h-.026ZM13.262 18.868v-.035h.012l.012.012-.012.012-.012.01ZM15.553 18.856v-.025h.025v.025h-.025ZM15.8 18.844v-.013h.026v.013h-.025ZM13.77 18.834V18.8h.012l.012.01-.012.012-.012.01ZM15.395 18.833v-.022l-.012-.023h.035v.035h-.012l-.01.01ZM15.463 18.833l.012-.012v-.012l.01-.01h.023v.033h-.045v.001ZM13.701 18.822v-.013h.024v.012h-.023ZM13.838 18.821V18.8h.023l.012.01h-.012l-.023.012ZM13.94 18.822v-.046h.035l-.013.035-.022.01ZM14.04 18.82v-.022l-.013-.034h.035v.045h-.012l-.01.012ZM15.293 18.822v-.046h.025v.033h-.013l-.012.013ZM15.63 18.822v-.013h.014v.013h-.013ZM14.55 18.798v-.034l-.013-.035h.033v.057h-.01l-.01.012ZM14.639 18.798v-.069h.034v.057h-.022l-.012.012ZM14.74 18.798l-.01-.022v-.045h.01l.023-.012-.012.067-.01.012ZM14.809 18.798l.012-.045v-.044l.012.012h.01v.069h-.022l-.012.008ZM14.346 18.788v-.024H14.38v.024H14.346ZM14.435 18.789l.013-.023v-.01l.012-.013h.023v.046h-.048ZM14.91 18.789v-.046h.035v.035h-.024l-.01.01ZM15.113 18.788l-.023-.012h-.012v-.022h.046v.01l-.01.024ZM16.095 18.788l-.113-.035-.124-.012-.034-.079-.023-.08-.012-.09v-.27l.012-.17.023-.079.022-.045h.124l.125.023.067.012.057.022.057.035.045.034.022.17v.293l-.012.09-.012.09-.034.079h-.09l-.1.012ZM12.944 18.765l-.012-.022-.012-.012v-.181l-.012-.182v-.35l.012-.035.012-.012.023-.022.034-.012.068-.012.08-.01.158.01.112.034.023.045.034.057-.012.35v.192l-.012.08v.034l-.124.023-.125.012-.124.01h-.123v.003ZM13.769 18.731l-.102-.022-.102-.012-.012-.204-.012-.214v-.112l.012-.102.012-.102.023-.102.134-.012.135-.012.135-.012h.134l.035.057.022.057v.057l-.022.067v.338l-.012.035-.012.022v.069h.024l-.023.068-.022.08-.09.011-.09.012-.09.012-.077.021ZM15.44 18.731l-.16-.057-.158-.034-.012-.192-.01-.204.01-.09.012-.102.012-.09.023-.101.034-.012.045-.012h.034l.058.012.09.012h.09l.066.045.057.045.035.057.034.057.013.124.01.17-.023.034-.012.044v.057l.012.045v.057l.013.045-.013.035-.022.034-.112.012-.126.009ZM14.367 18.652l-.067-.057-.023-.023v-.646l.035-.056.034-.035.057-.023h.057l.125.013.124.012H14.923l.067.012.012.191v.396l-.022.191-.159.013h-.305l-.149.012ZM17.677 18.348l-.012-.023-.022-.022-.012-.023v-.159h.022l.057.113.023.112h-.056v.002Z" fill="#fff"/><path clip-rule="evenodd" d="m11.637 18.313.01-.08.057-.123h.01l.025.012v.057l-.013.055-.022.022-.022.024-.023.023-.022.01Z" stroke="#fff" stroke-width=".064" stroke-miterlimit="22.926"/><path fill-rule="evenodd" clip-rule="evenodd" d="m17.485 18.29-.01-.09-.012-.079h.069l.022.08.013.08h-.045l-.037.01ZM17.326 18.256l-.023-.012-.012-.023v-.034l-.012-.023v-.112h.035l.024.024.022.023.012.022.035.068.012.057h-.045l-.048.01Z" fill="#fff"/><path clip-rule="evenodd" d="M11.793 18.234v-.056l.012-.057.045-.012.057-.022-.012.057-.023.034-.034.033-.045.023Z" stroke="#fff" stroke-width=".064" stroke-miterlimit="22.926"/><path fill-rule="evenodd" clip-rule="evenodd" d="m17.156 18.189-.045-.035-.023-.045-.012-.045.012-.044.012-.013.023-.012.045.035.022.045.012.057-.012.045h-.012l-.022.012ZM11.984 18.156v-.045l.012-.057.012-.034.013-.023.022-.012.023.012.012.045v.057l-.057.045-.037.012ZM12.18 18.1l-.012-.068v-.067l.035-.023h.034l.035.012.034.012-.012.057-.022.035-.045.034-.047.007ZM16.954 18.1l-.078-.023-.08-.035-.022-.034-.01-.035v-.034l.022-.045.045-.01.045.01.034.022.023.023.034.034.01.035.023.044v.045h-.046v.002Z" fill="#fff"/><path clip-rule="evenodd" d="m11.805 18.065-.012-.033v-.023l.035-.079.032-.08h.024l.023.013-.012.067-.01.057-.013.022-.012.023-.022.022-.033.01Z" stroke="#fff" stroke-width=".064" stroke-miterlimit="22.926"/><path fill-rule="evenodd" clip-rule="evenodd" d="M17.516 18.054V17.952l.022.012.012.023v.057h-.022l-.012.01ZM16.569 18.02l-.045-.012h-.057v-.08l.012-.067H16.58l.045.023.044.022V18.008h-.044l-.057.012ZM17.37 18.02l-.022-.023-.012-.034-.012-.035v-.181h.024l.035.067.022.057.023.068v.067h-.023l-.034.014ZM12.415 17.997l-.022-.044-.012-.035.012-.022.012-.023.057-.012h.067l.012.012.012.012-.012.035v.022l-.067.035-.059.02ZM11.975 17.975l-.012-.09v-.147l.022-.044.035-.023.045-.012.012.09-.012.09-.012.044-.023.045-.022.023-.033.024ZM17.222 17.975l-.022-.023-.012-.034-.012-.035v-.124l.012-.08.022.013.023.022.01.035.012.045v.157l-.022.012-.01.012ZM16.355 17.952l-.113-.034-.067-.023-.022-.01-.023-.023-.022-.044-.012-.068.08.012h.079l.067.023.08.045v.101l-.023.013-.024.008ZM17.032 17.918l-.034-.035-.023-.034-.01-.023V17.622h.022l.035-.012.034.035.035.022.012.035.01.034-.01.068-.012.09-.023.012-.036.012ZM12.143 17.908l-.012-.057v-.135l.022-.057.035.012.022.023.023.022.012.022v.069l-.012.035-.012.022-.045.023-.033.02ZM12.653 17.907l-.012-.045.012-.022.022-.023.023-.012.079-.012h.067l.012.023v.044l-.101.023-.102.024ZM15.972 17.873l-.012-.023-.023-.012h-.181l.022-.057.023-.067h.08l.089.012.045.023.022.022.012.045v.045l-.044.012h-.033ZM13.024 17.863l-.034-.012h-.035l-.012-.035v-.034l.057-.035.057-.01.068-.012h.067l.034.057.035.057-.124.012-.113.012ZM13.352 17.84l-.022-.034v-.035l.01-.022v-.035l.045-.022.045-.012h.092V17.794l-.023.012-.045.022-.102.012ZM15.599 17.84l-.035-.022-.034-.012-.035-.012h-.022l-.023-.013-.01-.022-.012-.035v-.079h.08l.079.012h.034l.035.012.034.012.035.035-.023.067-.012.045-.045.012H15.6ZM12.313 17.828l-.012-.102v-.102l.045-.012h.057V17.76l-.012.023-.012.022-.035.012-.031.012ZM12.505 17.793l-.023-.044v-.171l.045-.023h.069l.035.023.012.034.012.035.012.034v.045l-.08.045-.082.022ZM16.783 17.794l-.045-.013-.035-.012-.012-.102V17.6l.023-.012.022-.012H16.838l.023.09v.102l-.023.012-.055.014ZM13.634 17.783l-.022-.023-.01-.022v-.057l.056-.022h.045l.057-.012h.057l-.012.056v.057l-.09.012-.08.01ZM15.26 17.783l-.147-.022-.16-.012-.011-.01-.012-.023.012-.09.012-.022h.09l.09.012h.179l.022.057.023.045-.023.022-.022.023-.023.012-.03.008ZM16.57 17.783l-.035-.022-.034-.023-.023-.034-.02-.023-.012-.034v-.045l-.012-.035.012-.057H16.593l.022.035.012.034.01.035v.09l-.01.034-.022.023-.035.022ZM14.131 17.76l-.045-.022h-.135l-.056-.012.012-.045.022-.034.035-.023.034-.012.045-.012h.045l.045.012.045.023V17.737l-.023.01-.024.014ZM14.3 17.76l-.034-.034v-.069l.022-.045h.159l-.012.045v.035l-.012.022-.023.012-.034.012-.066.023ZM14.604 17.749l-.034-.023-.035-.022v-.08l.023-.022.034-.023.045-.012h.045l.102.023.08.022v.125h-.136l-.124.012ZM12.753 17.738l-.022-.102-.012-.112.045-.01.045-.012h.044l.023.012.012.01-.022.09-.013.09-.057.022-.043.012ZM16.321 17.726l-.012-.012h-.012v-.035l.012-.034.022-.012.045.012.012.022v.057h-.067v.002ZM12.99 17.681l-.022-.022-.023-.035.012-.045.023-.044.022-.035.023-.035.034-.022.045-.012h.045l.057.012v.09l-.012.09-.057.034-.147.024ZM16.175 17.67l-.102-.035-.102-.035-.012-.057v-.088l.012-.045.022-.022.023-.012.045.012.067.034.023.057.034.068.023.067.012.045-.023.012h-.022v-.002ZM15.757 17.647l-.034-.023-.035-.034-.034-.035-.012-.022-.023-.035V17.395l.012-.023.023-.022.022-.012.035-.012h.034l.035.012.045.022.057.035-.012.112v.124h-.057l-.056.016ZM13.297 17.624l-.012-.057V17.465l.012-.034.012-.035.012-.022h.09l.023.057.022.067v.035l-.012.022-.01.035-.012.012-.068.012-.057.01ZM17.134 17.614l-.023-.045v-.192l.012-.01.023.01.022.113.012.124h-.046ZM13.567 17.602l-.023-.045-.022-.057-.012-.045v-.057l.022-.035.023-.022.057.012h.067l.012.102v.08l-.012.022-.023.022-.034.012-.055.01ZM13.803 17.602l-.035-.045-.012-.035v-.045l.012-.045.022-.034.035-.035.035-.034.044-.023h.057l.035.012.034.023.023.022.012.068v.102l-.057.022-.067.023-.08.012-.059.012ZM12.11 17.569l-.012-.067V17.4l.012-.023.022-.022.035-.012-.012.102-.012.102-.023.01-.01.012ZM12.246 17.57l-.012-.113.012-.08.045.013.035.034.034.045v.045l-.057.022-.057.033ZM14.21 17.57h-.012l-.023-.013-.022-.112-.012-.125.044-.034.045-.012.057.012.045.022.023.102-.012.068-.023.034-.022.023-.035.022-.053.012ZM15.385 17.57l-.057-.023-.035-.012-.022-.023-.021-.022v-.169l.08-.013.067-.012.067.012h.08v.135l-.013.057-.022.057-.057.012h-.067ZM16.265 17.569l-.035-.08v-.044l.057.012h.057l-.012.045-.012.034-.022.022-.033.01ZM14.874 17.547l-.08-.045-.067-.035-.012-.045v-.034l.012-.035.022-.022.023-.023.022-.012.035-.012h.182l.066.023.068.012.012.08-.012.056-.023.035-.034.034-.102.012-.112.01ZM16.944 17.546l-.023-.022-.012-.023-.012-.034-.012-.035v-.079l-.012-.067.067.022.068.012.012.112.012.113h-.088v.001ZM14.437 17.523l-.035-.147v-.068l.035-.012.022-.012.045-.012h.035l.067.012.067.035-.012.057-.012.045-.012.034-.022.023-.068.034-.11.01ZM16.716 17.512l-.023-.035-.022-.022-.023-.034V17.319l.012-.08.08.012.08.035-.013.09v.09l-.045.034-.046.012ZM12.46 17.5v-.067l.011-.068.023-.067.034-.045h.069v.214l-.067.023-.07.01ZM12.698 17.455l-.012-.102-.012-.101.034-.035h.08l.034.023.012.112-.012.08-.034.011-.09.012ZM16.501 17.455l-.034-.022-.023-.023-.022-.022v-.182l.08.013.067.022.012.08-.012.056v.023l-.012.022-.023.012-.033.021ZM12.922 17.422l-.012-.067.012-.147.068-.012.079.012v.102l-.022.057-.013.01L13 17.4l-.035.012-.043.01ZM16.287 17.388l-.08-.035-.09-.035-.012-.034v-.102l.045-.022h.068l.057.012.057.012v.057l.012.057v.034l-.012.023-.012.022-.033.01ZM12.37 17.343l-.022-.023v-.034h.079v.022l-.01.023h-.023l-.024.012ZM13.16 17.343l-.012-.102.013-.102.056-.022h.035l.022.012.023.022.012.068.012.079-.034.022-.035.012-.045.013h-.046v-.002ZM13.432 17.308l-.023-.012h-.012l-.012-.09-.012-.09.057-.034.067-.034h.069l.035.022.022.035v.124l-.044.034-.045.023-.045.012-.057.01ZM15.892 17.298l-.022-.045-.013-.045V17.106h.057l.09.012v.08l-.012.057-.01.012-.012.023h-.035l-.043.008ZM12.145 17.286v-.069l.034-.012.022-.023.013-.034.012-.035.022-.08.035-.067h.022l.035.012v.125l-.012.08-.014.023-.035.023-.045.012-.067.012-.012.034h-.01v-.001ZM15.724 17.276l-.068-.035-.057-.045-.022-.034-.012-.035-.012-.034.012-.045h.192l.022.057v.101l-.012.057h-.023l-.02.012ZM13.805 17.263l-.045-.012-.045-.022V17.127l.012-.035.012-.012.022-.012.035-.012.045.012.057.012.012.035.012.034v.057l-.022.023-.023.012-.034.012-.038.01ZM14.03 17.241l-.023-.045-.023-.067v-.114h.102l.045.012.023.045v.102l-.023.034-.022.023h-.035l-.045.01ZM15.294 17.24l-.067-.022-.057-.022v-.18h.249l.012.045.012.045v.057l-.023.057-.057.012-.069.009ZM16.953 17.241l-.022-.022-.023-.023v-.226h.035l.012.057.02.067v.135h-.01l-.012.012ZM14.3 17.218l-.045-.056-.023-.057v-.07l.013-.034.022-.023h.057l.045.013.045.01.045.022-.012.09-.023.057-.022.026-.023.012-.034.012H14.3v-.002ZM14.683 17.219l-.09-.013-.057-.034-.012-.022-.012-.023.012-.045v-.057l.034-.012.035-.012.045-.01H14.74l.057.01.034.012.035.023v.079l.01.08-.102.011-.091.013ZM14.978 17.219l-.023-.045-.012-.057V17.015l.023-.023h.09l.034.023v.09l-.012.067-.012.012-.023.022-.022.013h-.043ZM16.796 17.206l-.022-.012-.023-.034-.012-.023-.01-.034-.012-.08v-.067h.045l.045-.012.012.035.012.022.012.035v.034l-.012.067-.012.057h-.012l-.01.012ZM12.426 17.196v-.204l.012-.044h.069l-.012.112v.124l-.035.012h-.034ZM12.62 17.174l-.022-.012-.012-.068.012-.159.045-.022h.057l.012.035v.169l-.022.022-.023.023h-.024l-.023.012ZM16.547 17.151l-.012-.01h-.022l-.012-.112-.01-.113h.134l.01.057-.01.057v.067l-.023.057h-.055v-.003ZM12.798 17.14l-.022-.046-.012-.045.012-.044.012-.035.022-.035.023-.034.045-.012.044-.012.013.045V17l-.013.067-.022.057h-.057l-.045.014ZM16.355 17.117l-.057-.035-.022-.034-.012-.045v-.067l.022-.045.023-.012.046-.01.045.01.023.146.012.08H16.4l-.045.012ZM13.025 17.072l-.022-.057-.023-.045v-.057l.023-.045.034-.035.035-.012h.045l.034.012.023.023.012.09v.079l-.035.023-.034.012-.045.012h-.047ZM16.107 17.072l-.057-.045-.045-.045-.023-.057v-.08H16.13l.034.046.012.045.012.056v.057l-.045.012-.036.01ZM13.262 17.038l-.012-.102-.012-.09.045-.023.045-.012H13.43l.01.035.012.124-.044.035-.035.022h-.057l-.054.01ZM15.858 17.015l-.056-.023-.057-.022-.013-.057.013-.068v-.034l.022-.023.022-.012h.035l.012.012v.012l.034.013.035.012.01.043-.012.067v.023l-.012.022-.01.023-.023.012ZM13.566 16.992l-.022-.045-.023-.057v-.124l.08-.022h.08l.034.044.012.045v.114l-.067.035-.094.01ZM15.553 16.97l-.057-.022-.067-.013-.022-.09-.012-.101.067-.012h.114l.034.012.023.012.022.022v.068l-.012.057-.012.022-.012.023-.035.012-.03.01ZM13.803 16.96v-.215l.057-.022.034-.012.045.012.045.023v.079l.012.08-.045.034-.045.012-.045.012h-.058v-.003ZM14.537 16.947l-.09-.034-.101-.035V16.71l.09-.012h.09l.044.012.045.012.045.012.034.035v.079l-.012.035-.012.022-.045.023-.088.02ZM14.098 16.935l-.035-.057-.012-.08-.01-.032.012-.045.012-.022.012-.023h.057l.057.012.035.012.022.012.012.023.012.035v.114l-.045.034-.034.012-.045.012h-.05v-.007ZM14.855 16.935l-.023-.022-.022-.023-.012-.022-.012-.022v-.058l-.013-.056.035-.023.057-.012.057.012h.057l.022.057.01.045v.045l.013.057-.045.012-.124.01ZM15.26 16.936l-.08-.035-.079-.022-.012-.035v-.034l-.012-.035-.022-.022.012-.045.022-.023h.068l.079.023.08.034.022.068.01.102-.045.012-.043.012ZM12.426 16.89l-.01-.056v-.058l.022-.056.012-.057h.023l.034.012-.012.08v.079l-.034.034-.035.023ZM16.784 16.868l-.012-.067v-.202l.044.012.023.022.022.035.01.035v.159l-.043.006h-.044ZM16.65 16.846l-.035-.012-.035-.023v-.159l.045-.034.035-.012.022-.013.012.023.012.067v.147h-.034l-.023.016ZM12.62 16.835l-.022-.012-.012-.012v-.09l.012-.045.022-.034h.035l.035.012.022.022.012.013v.056l-.012.068-.045.012-.046.01ZM16.446 16.835l-.034-.034-.035-.023-.012-.067v-.067l.012-.023.012-.022.023-.023.034-.012.023.023.034.022v.067l.012.068v.034l-.012.023-.022.022-.035.012ZM12.822 16.8l-.023-.101-.012-.09h.114l.012.045.012.045v.045l-.012.045-.045.012h-.046ZM15.981 16.789l-.057-.023-.045-.034-.034-.023-.023-.034v-.045l.012-.045.012-.057.023-.057H16.016l.012.022.012.035.012.035v.191l-.035.022-.036.013ZM16.142 16.789l-.022-.057-.012-.08-.012-.043v-.034l.012-.035.012-.022H16.267l.057.022-.013.057-.012.067-.012.057-.022.057-.067.012h-.056v-.001ZM13.024 16.744l-.034-.035-.023-.057-.01-.022V16.575l.01-.023.057.012h.045l.023.012.012.012.01.045v.09l-.045.012-.045.009ZM13.194 16.733l-.012-.056v-.057l.012-.057.012-.057h.159v.112l.012.102-.09.012h-.093v.002ZM13.67 16.689l-.034-.013-.023-.012-.022-.012-.023-.034v-.237l.012-.236.01-.237.035-.226h.012l.012-.012.013-.012.012-.023.08-.022.079-.01.044.01.035.012.034.012.023.035.012.248.01.237v.473l-.159.034-.162.024ZM15.44 16.689h-.057l-.057-.012-.012-.035-.035-.035V15.918l.057-.112.035-.112h.134l.125.012.034.249.012.236v.249l-.012.249h-.224ZM14.618 16.654l-.035-.022-.034-.023v-.269l.102-.012.09-.012.044.012.045.022.035.023.022.044v.068l-.012.057-.022.045-.023.022-.034.023-.045.012-.067.012h-.066v-.002ZM14.31 16.631l-.022-.022-.022-.035-.012-.034v-.135l.022-.067h.09l.09.034.01.045v.057l.012.057-.012.045-.08.035-.075.02ZM14.977 16.631l-.022-.045v-.202l.022-.012.035-.012.022-.012H15.136l.068.023.01.045v.169l-.057.034-.057.01h-.123v.002ZM14.041 16.62v-.08l.012-.067.012-.068.023-.067h.089l.013.067.012.08v.067l-.023.057-.067.012h-.071v-.002ZM12.494 16.574l.012-.124.035-.112.022-.012h.023l-.023.112-.012.112-.034.012-.023.012ZM12.664 16.564l-.012-.135v-.124l.023-.012h.045l.022.045.012.067.012.08v.057l-.057.012-.045.01ZM16.547 16.564v-.034l-.012-.023h.057v.023l-.012.022-.012.012h-.02ZM12.879 16.507l-.035-.057-.034-.079-.023-.045v-.079l.012-.012H12.946l-.012.124v.112l-.035.023-.02.013ZM16.75 16.507l.012-.134.023-.147h.024l.012.067.012.057.012.067v.08H16.8l-.05.01ZM12.99 16.485V16.203l.035-.012.022-.012h.045l.035.035.012.034.012.057-.012.057-.012.045-.013.057-.056.012-.068.009ZM16.354 16.485l-.012-.023-.012-.034v-.09l.012-.09.012-.067.035-.012.102.022.022.068v.08l-.012.067-.022.067-.057.012h-.068ZM16.647 16.485l-.023-.035-.034-.034V16.203l.045.012.045.023.012.102-.012.124-.023.012-.01.009ZM13.328 16.44l-.045-.012-.035-.023-.022-.034-.012-.035-.023-.067v-.102l.045-.01.045-.012h.08l.022.136v.135l-.034.012-.021.012ZM16.151 16.44l-.035-.022-.022-.035-.022-.022-.023-.035-.012-.067v-.09h.204l.022.022.012.035v.057l-.012.067-.01.068-.035.012-.067.01ZM15.836 16.383v-.259h.067l.057.012V16.372l-.067.012h-.057v-.001ZM14.504 16.281l-.045-.012-.045-.012-.012-.057v-.192l.08.023.147.057-.013.067v.08l-.034.034-.078.012ZM15.012 16.282v-.046H15.047v.035l-.023.012h-.012v-.001ZM14.063 16.27v-.236h.022l.01.012v.102l.012.102-.022.01-.023.01ZM14.208 16.27l-.022-.056-.012-.067v-.125l.034-.022h.045l.035.022.034.023v.203l-.034.023h-.08ZM14.82 16.27l-.044-.011-.057-.023V16H14.888l.057.012.045.01.012.023.01.012v.045l-.022.067-.045.09-.057.012h-.067ZM15.114 16.259l-.01-.068-.012-.057v-.124h.079l.023.045.012.067v.068l-.023.056-.034.01h-.035v.003ZM12.561 16.226l-.012-.067-.012-.08.012-.08.023-.056.012-.012h.022l-.012.214-.012.067-.012.012h-.009v.002ZM12.687 16.202l-.023-.068V15.965l.023-.057h.044l.023.102.012.157-.045.023-.034.012ZM12.855 16.157l-.023-.125-.012-.134.045-.012h.102l.022.045v.067l-.012.067v.057l-.056.023-.066.012ZM16.66 16.146l-.013-.022-.012-.034-.01-.023v-.171l.045-.012.045.012.034.012.023.023.022.057.012.102-.034.034-.023.012-.045.012h-.044v-.002ZM16.49 16.124l-.022-.01-.022-.023-.012-.09.012-.08.012-.023.012-.035.034-.012h.045l.012.181-.012.068-.034.012-.024.012ZM13.081 16.112l-.022-.045-.012-.08.012-.08v-.056l.022-.012h.08l.022.09.012.08-.012.021-.022.035-.035.022-.045.025ZM16.04 16.112l.011-.023v-.022l.023-.012.022-.012h.012l.035.012v.032l-.057.013-.047.012ZM16.253 16.079l-.035-.057-.034-.057-.012-.022v-.069l.012-.035.034-.012.147.012.012.045v.067l-.022.08-.035.045h-.067v.003ZM13.365 16.067l-.045-.012-.057-.023-.022-.112-.012-.112.034-.012.023-.01h.044l.045.022.045.034v.225H13.365ZM15.869 16.045l-.023-.023-.012-.045-.012-.034v-.135l.023-.034.022-.023.112.012.113.012v.069l-.01.035-.013.035-.045.067-.045.067h-.11v-.003ZM14.603 16l-.023-.013h-.012v-.034h.069l-.01.034-.024.012ZM14.074 15.943v-.27l.035-.012h.045l.022.135.012.147h-.114ZM14.311 15.932l-.034-.067-.035-.08v-.091l.012-.035.023-.034h.191l.057.034-.012.125-.034.067-.023.035-.034.022-.045.012-.066.012ZM14.773 15.92l-.045-.022-.112-.023-.022-.045V15.683l.022-.044.147.01.159.045-.023.102-.044.112h-.045l-.037.012ZM14.989 15.92l-.012-.057.012-.09.012-.034.01-.035.023-.034.022-.012H15.203l.034.067v.057l-.022.067-.035.057-.102.012h-.09v.002ZM12.62 15.818V15.614l.022-.057h.057l.012.09v.08l-.012.034-.012.023-.035.022-.033.012ZM16.66 15.808l-.013-.023-.012-.022-.01-.035v-.158l.022-.023h.045l.023.012v.237h-.023l-.032.012ZM12.82 15.796l-.012-.01-.022-.013-.013-.067v-.114l.013-.034.022-.023h.034l.035.181.012.068-.034.01h-.035v.002ZM12.991 15.786l-.022-.057-.023-.068-.022-.057v-.067l.067-.023h.08v.08l.012.09-.012.034-.012.035-.035.022-.033.01ZM16.422 15.774l-.012-.023V15.65l.023-.08.012-.056h.09l.012.17v.066l-.057.013-.068.012ZM13.16 15.751v-.147l-.012-.134.023-.023.022-.012h.035l.034.035.012.057v.124l-.012.057-.012.034-.045.01h-.044v-.001ZM16.23 15.75l-.022-.056-.012-.08-.012-.079.022-.057.045-.012.034.012.023.012.022.012.023.035.01.057-.01.057-.023.045-.044.034-.056.02ZM13.363 15.717l-.023-.057-.01-.057v-.057l.01-.045.035-.045.034-.035.045-.022h.068l.022.035.012.044v.092l-.034.034-.035.035-.022.034-.012.035-.045.012h-.045v-.003ZM15.791 15.706v-.045l.022-.012h.035l-.023.035-.034.022ZM15.972 15.706l-.045-.067-.045-.067-.023-.035v-.079l.012-.035.113.012.112.012.012.023.012.034.01.035-.01.034-.012.068-.035.067h-.101v-.002ZM15.273 15.604l-.035-.022-.034-.035-.013-.112.012-.102.047-.022.045-.012h.045l.057.022v.09l-.012.09-.01.034-.023.035-.023.022-.056.012ZM15.688 15.604l-.023-.022-.034-.012-.035-.012-.034-.012h-.021l-.023-.023-.022-.022v-.035l.067-.057.057-.022.045-.023.045.01.023.013.012.045.01.067v.08l-.035.011-.032.014ZM14.92 15.592l-.09-.022-.056-.023-.012-.112.012-.112.09-.012.079-.012h.08l.09.034-.011.112-.012.08-.023.022-.034.023-.045.012-.067.01ZM14.178 15.582l-.023-.035-.012-.034-.012-.045v-.035l.012-.067.022-.08h.16l.01.068.012.057.012.045-.012.034-.012.035-.035.022-.045.023-.078.012ZM14.03 15.57l-.012-.023v-.022l.012-.01h.022l.012.022v.034h-.034v-.001ZM14.471 15.56l-.034-.058-.013-.067-.01-.067V15.3l.067-.012.068-.012h.067l.067.023.012.034.013.159-.057.034-.045.023-.068.012h-.067v-.002ZM13.621 15.492V15.39l.057-.022.045-.012H13.825v.089l-.102.023-.102.024ZM13.94 15.492l-.035-.035-.012-.045v-.044l.012-.045h.134l.012.034.012.023-.012.034-.012.009-.034.034-.066.035ZM16.604 15.458l-.023-.023-.012-.034-.012-.023v-.034l-.012-.068v-.067h.034l.045.012.035.057.012.067.035-.022.022-.057.01.012h.012v.08l-.012.09h-.09l-.044.01ZM12.687 15.445l-.023-.112v-.102l.035-.034.022-.035.022.012.023.035.012.034v.035l-.012.09v.067l-.045.012h-.034v-.002ZM12.854 15.445l-.022-.067v-.18l.022-.079h.057l.035.068.012.079.01.08v.067l-.056.022-.058.01ZM16.4 15.445l-.023-.034-.023-.035-.012-.022v-.035l-.012-.08v-.089l.08.012.079.012-.012.125-.012.134h-.035l-.03.012ZM13.091 15.4l-.022-.011-.023-.023-.012-.034-.012-.045-.012-.068-.012-.067.023-.045.034-.022.035-.013h.056v.307l-.022.011-.033.01ZM15.463 15.4l.022-.057.023-.022.022-.012h.045l-.012.034-.022.023-.035.022-.043.012ZM16.196 15.39l-.022-.057V15.186l.012-.067h.079v.192l-.01.045-.022.022-.037.012ZM13.26 15.367l-.023-.034-.012-.045-.012-.057-.012-.045.012-.057.012-.045.035-.034.034-.023H13.396v.135l-.012.135-.08.057-.044.014ZM15.97 15.356l-.022-.023-.012-.034-.012-.035-.012-.034V15.083h.135l.057.012v.057l-.012.067-.035.057-.022.068H16l-.03.012ZM13.5 15.31l-.023-.067-.012-.079v-.09l.012-.067.067-.022.057-.013.035.023.022.034.023.09.022.112-.057.045-.034.023-.057.012h-.056ZM15.733 15.31l-.035-.022-.012-.034-.012-.045-.012-.045.012-.045v-.045l.023-.045.012-.034.08.022.034.012.022.102.01.09-.01.034-.022.023-.035.022-.055.01ZM15.451 15.266l-.01-.012-.034-.023-.012-.203v-.08l.101.023.09.034v.068l-.01.069-.023.057-.034.067h-.068ZM13.803 15.254l-.022-.057-.023-.067v-.068l-.01-.067.045-.023.057-.022h.057l.022.012.023.01-.012.09-.012.09-.013.035-.022.034-.035.022-.055.01ZM15.147 15.243l-.045-.022-.045-.023-.022-.022-.023-.034-.01-.08v-.102l.034-.022.035-.012.045-.012H15.218l.045.012.034.022.023.023-.013.134-.022.124-.067.01h-.071v.004ZM14.821 15.231l-.057-.012-.045-.012-.022-.034-.023-.031-.012-.035V15.005l.035-.057.012-.022.022-.012.035-.012h.022l.035.012.022.012.035.022.034.035.012.067v.114l-.012.057-.045.012h-.048v-.002ZM14.132 15.22l-.057-.022-.035-.034-.022-.035-.012-.034v-.045l.012-.045.022-.045.023-.045h.191l.013.102-.012.09-.01.035-.035.034-.035.034-.043.01ZM14.412 15.221l-.034-.023-.023-.034-.022-.045-.023-.057V14.96l.013-.045.022-.034h.114l.057.012.045.034.01.113v.09l-.01.034-.035.034-.044.013-.07.01ZM16.681 15.187l-.034-.068-.012-.09.012-.034v-.045l.012-.035.022-.034h.09v.17l-.022.111-.035.012-.033.013ZM16.524 15.13l-.068-.023-.067-.034-.012-.057v-.068l.012-.057.01-.045.023-.034.034-.012h.057l.068.034-.012.147v.147h-.045v.002ZM12.63 15.119l-.013-.124v-.125l.023.012h.034v.137l-.012.034v.035l-.02.019-.013.012ZM12.753 15.085l-.034-.068v-.134l.022-.023.023-.022h.045l.012.08.012.079v.034l-.012.022-.035.023-.033.008ZM16.254 15.062l-.045-.012-.035-.035-.022-.034-.023-.035-.01-.044.01-.045.013-.045.034-.045h.08l.079.012v.067l-.012.068-.012.079-.023.057-.012.012h-.022ZM12.924 15.04l-.022-.045-.023-.057-.012-.068v-.045l.057-.022.09-.023v.225l-.045.022-.045.013ZM15.982 15.005l-.012-.022-.013-.035-.012-.034v-.045l.012-.09.012-.067h.057l.057.022-.012.135-.012.124-.034.012h-.043ZM13.126 14.983l-.035-.035-.022-.045-.012-.045.012-.057.012-.045.034-.022.023-.01h.022l.035.01.034.022v.158l-.012.022-.012.022-.034.01-.045.015ZM15.801 14.96l-.045-.034-.057-.045.012-.102-.012-.09.035-.022.034-.012.023-.012.022.012.035.022.022.035.023.112v.112l-.045.023H15.8v.001ZM13.318 14.95l-.022-.012-.012-.035-.013-.034v-.035l.013-.08.012-.056.057-.023h.034l.023.023.012.034.012.102v.068l-.057.034-.059.014ZM15.587 14.915l-.08-.022-.08-.035v-.248l.08.012.057.012.045.012.023.035.022.034v.114l-.012.08-.035.012h-.02v-.005ZM13.522 14.905l-.045-.102-.012-.102.034-.022.023-.012h.069l.012.067-.012.159-.035.012h-.034ZM13.703 14.905l-.035-.067-.012-.09v-.045l.012-.034.012-.035.023-.022H13.85v.112l-.012.08-.012.034-.035.022-.035.023-.053.022ZM15.293 14.87l-.022-.01-.023-.012-.022-.034-.035-.012v-.225h.057l.035.012.045.01.045.035-.023.112v.125h-.057ZM13.973 14.858h-.023l-.012-.012-.012-.067-.012-.068v-.101l.012-.012.012-.023h.023l.022-.012.057.014.09.034v.068l-.01.057-.013.067-.012.057h-.122v-.002ZM14.942 14.858l-.034-.012-.022-.022-.023-.022-.012-.023-.023-.057-.012-.08.035-.056.034-.045h.08l.045.012.034.012.023.022.012.09v.147l-.035.022-.022.012h-.08ZM14.617 14.848l-.035-.012-.09-.023-.012-.045v-.18l.023-.023.022-.023.023-.012.034-.012.068.012.067.012.022.035.012.034.013.035v.034l-.012.08-.013.08-.034.011h-.088v-.003ZM14.265 14.836l-.034-.012-.023-.023-.022-.034-.012-.023V14.597l.067-.034.045-.012h.045l.067.022v.09l-.012.068-.022.034-.023.035-.034.022-.042.014ZM12.63 14.803l-.013-.112v-.112l.045-.023h.045l.012.057v.147l-.067.035-.023.008ZM16.783 14.803l-.023-.067-.012-.09.012-.045.023-.034.022-.023h.045l.012.057.01.057v.135h-.044l-.045.01ZM16.604 14.769l-.023-.023-.022-.034-.012-.023V14.52h.067l.067.012v.159l-.012.067h-.034l-.031.01ZM12.81 14.746l-.023-.045-.012-.067.012-.067v-.047h.057v.214h-.022l-.012.012ZM16.422 14.734l-.023-.01-.022-.023.012-.102.01-.102h.023l.034.012.012.045.012.057-.012.068v.057h-.046v-.002ZM12.913 14.724l-.012-.057-.012-.057v-.035l.012-.034.012-.035.034-.022.045-.012.057-.012-.012.112v.112l-.067.012-.057.028ZM16.253 14.69l-.057-.023-.057-.012.012-.045.012-.057-.023-.045v-.035l.023-.022.022-.023h.069l.035.013.045.022v.08l.012.067-.012.034-.012.023-.023.012-.046.01ZM13.114 14.656l-.022-.102v-.112h.045l.057.012.034.09.023.102h-.068l-.069.01ZM16.04 14.644l-.08-.045-.057-.01-.012-.181v-.035l.057-.012h.044l.045.012.045.035v.067l.01.067v.035l-.01.034-.012.023-.03.01ZM13.352 14.634h-.022v-.26l.057.012.035.012.034.012.012.022.012.068v.101l-.067.012-.06.021ZM13.589 14.587l-.023-.022-.022-.035-.012-.022v-.045l-.01-.033.012-.034.012-.035.012-.022h.124v.101l.012.113-.067.022-.038.012ZM15.711 14.587l-.067-.012-.08-.022v-.214l.023-.012.034-.01.035-.013h.045l.045.012.034.01.035.013.022.022-.022.112v.102l-.045.012h-.059ZM13.792 14.555l-.034-.045v-.202l.057-.012.057-.013h.045l.057.023-.013.102-.01.102-.08.034-.079.01ZM15.452 14.555l-.034-.023-.035-.034-.022-.023-.023-.034-.012-.068v-.101H15.461l.022.012.023.022v.181l-.012.068H15.452ZM14.04 14.52l-.022-.022-.012-.035v-.069l.012-.067.034-.057.102-.012h.113l-.012.067v.057l-.013.045-.022.034-.023.023-.044.022-.043.014h-.07ZM15.113 14.52l-.067-.035-.067-.022v-.102l.012-.09.022-.022.023-.012h.079l.067.012.057.022v.225l-.067.012-.059.012ZM12.608 14.497h-.012l-.012-.01v-.135l.045-.034h.057v.067l.012.08-.045.022-.045.01ZM16.84 14.497l-.022-.044v-.057l.012-.045.013-.057.034.012.023.012.012.022v.08l-.023.067h-.022l-.026.01ZM14.412 14.487l-.034-.012-.035-.022-.022-.023-.012-.022v-.067l.012-.09.09-.023h.056l.057.01.068.046-.012.044v.035l.012.045.01.045-.102.022-.088.012ZM14.773 14.475l-.045-.012-.045-.012-.035-.102v-.08l.023-.022.022-.012.057-.01h.057l.045.01.045.012.012.102-.012.102-.067.022h-.057v.002ZM13.262 14.465v-.035l.012.012h.012l-.012.013-.012.01ZM16.694 14.465l-.023-.035-.022-.022-.012-.035v-.057l.012-.022.022-.012.012-.012.023-.012h.012l.022.012.012.012.013.034v.08l-.013.067h-.058v.002ZM12.764 14.44l-.012-.067v-.08l.022-.011h.045l.023.067v.08h-.045l-.033.012ZM16.502 14.43l-.022-.057-.035-.057V14.261l.012-.012.012-.012H16.572v.134l-.022.057h-.047v.002ZM12.945 14.418l-.023-.034-.012-.035v-.079l.035-.013.034-.01h.035l.045.01.012.068v.057l-.068.012-.058.024ZM16.287 14.385l-.022-.034-.01-.057-.013-.045v-.045l.057-.035h.035l.022.012.01.035v.08l-.01.09h-.069ZM13.127 14.363v-.159l.022-.012.023-.012h.045l.022.034.023.023.012.034.012.045-.08.023-.079.024ZM16.073 14.328l-.035-.034-.022-.045V14.147l.022-.023h.069l.035.013v.191h-.069ZM13.328 14.306v-.135l.068-.022.056.012.012.012.023.022.012.035v.035l-.035.022-.044.012-.045.012h-.047v-.005ZM15.88 14.271l-.044-.034-.035-.035-.012-.045v-.044l.023-.035.034-.012h.045l.057.034v.113l-.012.045-.035.012h-.02v.001ZM13.567 14.26l-.012-.079-.012-.067.035-.012h.09l.022.022v.125h-.057l-.066.012ZM12.528 14.249l-.045-.057-.022-.068H12.563l.022.08v.045h-.057ZM15.586 14.239l-.034-.035-.013-.035-.012-.044v-.045l.035-.035.022-.022.068.022.034.023.023.079-.012.045-.012.022-.023.012-.035.01h-.041v.002ZM13.803 14.227l-.012-.035-.012-.045v-.034l.023-.045h.134l.045.012-.022.08-.023.034-.057.022-.075.01ZM16.876 14.226h-.01l-.012-.012.012-.022.01-.023.022-.022.023-.022.067-.023.057-.012v.057l-.045.035-.034.022-.035.012-.055.01ZM14.074 14.216l-.022-.034-.023-.035v-.034l.012-.035.023-.022.022-.023.045-.012h.045l.012.08v.09l-.057.022h-.057v.003ZM12.675 14.204l-.035-.057-.035-.057.013-.022.012-.013h.079l.035.057.045.057-.057.035h-.057ZM15.417 14.204l-.057-.022-.067-.023v-.134h.09l.045.012.044.022-.012.068v.067h-.022l-.02.01ZM15.115 14.181l-.057-.034-.023-.034v-.045l.012-.068.045-.022h.08l.022.022.012.035.01.034.013.045v.045l-.023.022h-.091ZM16.717 14.181v-.057l.045-.034.045-.01.034-.012.057-.013-.022.057-.045.035-.045.022-.07.012ZM12.888 14.171l-.034-.022-.023-.035-.022-.034-.012-.045.034-.012.035-.012.034.012.035.012.034.022.023.023.012.034.012.035-.057.012-.07.01ZM14.278 14.171v-.067l-.012-.067.034-.023.035-.012h.089l.023.034.012.045v.045l-.022.045h-.16ZM14.572 14.16l-.034-.036-.013-.034V14l.045-.022h.068l.057.01.044.023-.01.057v.056l-.08.023-.077.012ZM14.82 14.16l-.011-.035v-.045l.012-.035V14h.08l.044.012.022.102.01.045h-.156ZM16.513 14.16l-.012-.023-.01-.012v-.023l.01-.022.022-.023.045-.022.09-.023.08-.012v.057h-.022l-.022.012-.035.045-.044.023-.045.012-.057.01ZM13.15 14.102l-.058-.012-.045-.01-.022-.035-.035-.057.035-.01h.057l.022.01.035.035.045.034v.023l-.012.01-.013.012h-.01ZM16.333 14.102l-.012-.012-.022-.01v-.035l.034-.045.057-.034.035-.023h.033l.022.012.035.023v.033l-.045.034-.035.023-.045.022-.057.012ZM13.317 14.092l-.035-.023-.034-.034-.035-.045-.012-.035.023-.012h.079l.022.035.023.022.022.035v.045h-.034l-.02.012ZM16.196 14.057l-.035-.012-.034-.012v-.034l.012-.023.012-.022.035-.013.044-.008h.058v.034l-.023.035-.035.034-.034.021ZM13.464 14.047l-.023-.035-.022-.034-.012-.045-.012-.035.101.023.102.045.01-.045v-.035l.045-.022h.035l.035.012.044.034-.012.035v.045l-.146.034-.145.023ZM15.995 14.047l-.01-.012-.045-.023v-.034l.011-.023.013-.034.022-.023h.135v.013l.01.012-.034.044-.023.035-.034.035-.045.01ZM12.392 14.012l-.022-.045-.01-.045v-.034l.022-.035.022-.022.035-.022.034-.013h.045l.023.102v.113H12.392v.001ZM15.769 14l-.012-.012-.01-.01-.013-.012v-.023l.012-.034.023-.035.045-.022.034-.01h.023l.022.01.012.012.023.022-.035.047-.034.034-.035.023-.055.01ZM12.63 13.978l-.022-.045-.012-.045-.012-.045v-.057l.034-.012h.045l.023.035.012.045V13.956l-.035.011-.032.01ZM13.87 13.978l-.022-.035-.012-.034v-.035l.012-.022.01-.01.023-.013h.079l.012.035.01.034v.045l-.01.035h-.101ZM15.541 13.978v-.069l.012-.035.012-.022.023-.023.022-.012.035.012.034.012-.012.068-.022.067h-.104v.002ZM16.92 13.967l-.012-.044v-.045l.012-.057.012-.045h.043v.09l-.022.09h-.012l-.02.011ZM15.394 13.955l-.012-.012-.022-.01-.012-.035v-.034l.012-.023.012-.022.034-.023h.08v.057l-.01.045-.013.023-.012.012-.022.012-.035.01ZM17.008 13.955v-.057l.022-.045-.012-.134.012-.135.012-.012h.023l.022.012.012.01v.114l-.012.012h-.012l-.012.125-.022.112h-.033v-.002ZM12.821 13.945l-.022-.035-.023-.045-.012-.057-.012-.044.012-.035.023-.022h.044l.057.022.012.09.012.09-.034.012-.057.024ZM14.063 13.945V13.843l.022-.012h.09l.012.035v.057l-.035.022h-.09ZM14.302 13.923l-.013-.023-.012-.022v-.023l.023-.01.045-.023h.057l.012.035-.012.035-.057.022-.043.009ZM14.977 13.923l-.034-.023-.035-.012v-.114l.012-.012.012-.012.08.012.057.022v.115l-.045.022h-.047v.002ZM15.215 13.922l-.023-.012-.012-.012-.012-.022v-.08l.012-.044h.045l.034.022.023.022.012.023-.012.034-.012.035-.02.022-.035.012ZM16.783 13.923l-.023-.045-.012-.045v-.045l.022-.057h.035l.035.012.012.01.012.023v.057l-.012.08h-.035l-.034.01ZM14.515 13.91l-.035-.08v-.034h.125v.09l-.023.023h-.067v.001ZM14.706 13.91l-.012-.012-.012-.012v-.114l.057.012.067.012.012.045.012.045-.057.012-.067.012ZM16.65 13.9l-.035-.012-.022-.022-.013-.023-.012-.022v-.125l.068.012.067.023V13.878l-.034.01-.02.012ZM12.99 13.888v-.09l.012-.079.023-.022.034-.013.035-.012.067.012-.012.09-.012.068-.023.01-.034.022-.034.01h-.056v.004ZM16.434 13.866l-.022-.012-.023-.023-.012-.022-.012-.023v-.124l.023-.012.034-.012.045.012.035.012v.067l.012.068-.012.022-.01.022-.023.01-.035.015ZM13.261 13.843l-.034-.034-.012-.057v-.057l.012-.023.012-.012h.114l.012.057v.102l-.057.012-.046.012ZM13.465 13.82l-.023-.034-.022-.057v-.045l.012-.057.045-.022h.034l.035.01.045.012v.159l-.023.023-.034.012h-.069ZM15.995 13.809l-.01-.012-.045-.023-.012-.067v-.113l.034-.01.035-.012.034.012.045.01v.114l-.012.057-.012.045h-.057v-.001ZM16.218 13.809l-.044-.023-.035-.045-.012-.045.022-.067.035-.012h.069l.035.012v.114l-.013.022v.023l-.022.012-.035.009ZM13.669 13.776l-.012-.068-.012-.124.034-.022.035-.012.022.012.022.034.045.057.035.067h.022l.012-.067.023-.08.012-.022.034-.022h.023l.045.012-.012.09v.09l-.16.034-.168.02ZM12.301 13.741l-.012-.057v-.057l.024-.01h.035V13.719l-.012.022H12.3ZM12.46 13.741l-.035-.034-.01-.045-.013-.057v-.045l.045-.022h.09l.057.012.035-.023.034-.012h.045l.034.012-.01.102-.012.035-.135.034-.126.043ZM14.075 13.741l-.012-.057v-.057l.012-.067v-.057h.067l.067.01.012.045v.135l-.022.045h-.124v.003ZM15.542 13.742l-.022-.045-.012-.057v-.057l.01-.057h.125l.022.044.022.057.013.057-.023.058h-.135ZM15.824 13.731l-.045-.022-.035-.023v-.124H15.846l.01.045v.124h-.032ZM14.346 13.719l-.022-.012-.022-.023-.013-.034-.012-.023v-.067l.012-.067H14.391l.035.012.022.01.012.023.01.034v.114l-.056.035h-.068v-.002ZM14.822 13.707l-.035-.012-.045-.012v-.113l.012-.034.023-.022.057-.023.112-.012v.102l-.022.102-.045.012-.057.012ZM14.603 13.697l-.034-.013-.023-.012-.022-.102-.012-.09.08.013h.066l.013.102v.09l-.035.011h-.033ZM15.113 13.696l-.057-.034-.045-.045-.023-.035v-.034l.012-.035.01-.044.046.01.034.012.035.012.034.022.023.035.022.034v.035l-.012.045-.034.012-.045.01ZM15.284 13.684h-.012l-.012-.012v-.159l.045-.01.034-.012h.069l.012.045.035.034v.045l-.023.068H15.283v.001ZM16.84 13.684l-.023-.022-.022-.023v-.067l.012-.057h.067l.068.012v.045l.012.112h-.114ZM16.66 13.651v-.079l-.012-.09h.035l.035.012.012.035v.045l-.012.045v.034h-.058v-.002ZM12.99 13.594h-.023l-.01-.01.022-.08.013-.022h.067l.057.035v.045l-.067.012-.06.02ZM13.192 13.55l-.022-.023v-.045l.022-.022h.057l.035.012v.069l-.023.012h-.069v-.003ZM12.313 13.527l-.022-.045-.012-.045v-.114h.034l.045-.012v-.034l-.045-.01h-.057l-.012-.057v-.135l.023-.012h.022l.024.012.023.012.022.034.022.045h.025l.012-.067.01-.057.012-.012.023-.012h.079V13.165l-.022.022-.045.023h-.09v.034l.012.034.022.013.01.022.023.022v.023l.012.057v.067l-.079.023-.07.022ZM13.451 13.527l-.034-.012-.022-.01v-.067l.022-.08h.124l.023.09.034.057-.077.01-.07.012ZM16.377 13.515l-.012-.045.012-.045h.045l.012.045.012.035h-.034l-.035.01ZM17.09 13.515h-.013l-.022-.01v-.057l.012-.08.034-.012h.035l.022.113v.034l-.034.01h-.035v.002ZM15.972 13.505l-.034-.035-.012-.045V13.323h.135v.08l.012.09-.035.012h-.066ZM16.162 13.493l.012-.023.013-.012.012.012v.023H16.162ZM16.255 13.493l-.012-.012-.012-.023.012-.012.012-.022h.044v.069h-.044ZM13.691 13.482l-.034-.034-.012-.035-.012-.045v-.034l.067-.023.068-.022v.08l-.013.056-.01.023-.012.012-.023.012-.019.01ZM15.779 13.482l-.012-.01-.012-.012-.01-.023-.013-.022v-.09l.035-.012h.057l.034.012v.08l-.022.08h-.057v-.003ZM13.905 13.47l-.034-.034-.023-.035v-.055l-.012-.057.112-.022h.057l.012.012.012.012-.012.067-.012.057-.012.012-.022.023-.035.012-.031.008ZM15.609 13.47l-.057-.012h-.068v-.09l.023-.101H15.654v.191h-.023l-.022.012ZM16.93 13.47l-.034-.022-.035-.023v-.08l.01-.066.068.012.035.012V13.472h-.043v-.002ZM12.574 13.46l-.035-.035-.012-.044v-.09l.045-.023.035-.012h.091l.012.057.012.035v.034l-.022.035-.012.022-.035.012-.034.012h-.045v-.003ZM12.957 13.437v-.134h.022l.023.045v.067l-.023.012-.022.01ZM15.26 13.437l-.022-.012-.022-.022-.023-.023v-.045l.012-.022.023-.012.034-.022h.068l.08.012v.057l.011.057-.057.022-.103.01ZM14.132 13.425l-.022-.034-.012-.045v-.09h.114l.022.08v.045l-.022.022-.08.022ZM16.715 13.425l-.023-.012-.022-.012v-.159h.079l.023.012.022.013.012.057v.079l-.034.012-.057.01ZM13.082 13.413l-.012-.034v-.035l.012-.022.012-.035h.07l.012.022.022.013h.012l.023.012.012-.035.022-.034h.023l.012.012.012.067v.045l-.057-.012-.057-.01-.023.022-.022.012-.035.012h-.038ZM14.47 13.403l-.01-.012h-.013v-.057h.045l.01.022.023.023-.023.022h-.032v.002ZM14.606 13.403l-.045-.023-.012-.022.012-.035.022-.034.045.012.045.022v.057l-.034.023h-.033ZM14.876 13.39l-.057-.011-.057-.01v-.035l.012-.045h.137V13.39h-.035ZM14.977 13.38l-.01-.034.01-.035h.035v.069h-.035ZM16.355 13.336h-.012l-.013-.013v-.034l-.012-.022v-.023l.023-.022h.069l.012.022.012.023v.056l-.022.013h-.057ZM16.218 13.323l-.022-.022-.012-.035v-.079h.057l.012.012.01.01V13.312l-.022.012h-.023ZM13.419 13.279l-.023-.057v-.08l.023-.022.022-.012h.035l.01.067v.069l-.022.023-.012.012h-.033ZM17.076 13.279l-.022-.023-.034-.012V13.142l.034-.012h.035l.034.012.035.012v.125H17.076ZM13.59 13.267l-.023-.045-.012-.045-.012-.045v-.045l.09-.012.09.012v.08l.012.067-.09.034h-.055v-.001ZM14.277 13.267v-.013h.026v.013h-.026ZM15.915 13.267l-.045-.035-.022-.035v-.11h.124v.08l-.012.101h-.045v-.002ZM16.06 13.256l-.011-.067v-.068h.045l-.01.113-.023.022ZM14.72 13.244l-.023-.012-.035-.012v-.057l.012-.035h.09v.09l-.022.012-.023.014ZM14.876 13.244l-.01-.022-.012-.08h.034l.023.012-.013.045v.045h-.022ZM14.977 13.244l-.01-.057.01-.045h.035V13.244h-.035ZM13.16 13.234l-.023-.057v-.057l.045-.023.044-.012.035.023.035.022v.069l-.068.023-.069.012ZM13.86 13.234l-.035-.012h-.022V13.052h.045l.057-.012v.18l-.035.012h-.01v.002ZM12.99 13.222l-.034-.013-.022-.01v-.034L13 13.13l.067-.012-.012.057-.012.022-.022.023h-.031v.002ZM14.503 13.222l-.045-.125-.023-.159h.023l.022.013.023.079.012.08.045.022.045.022v.057l-.057.012h-.045v-.001ZM15.317 13.222l-.068-.01-.067-.023v-.068l-.012-.079.09-.022h.09v.18l-.01.01-.023.011ZM15.758 13.222l-.045-.013-.045-.01v-.124l.022-.012.023-.013h.01l.023.013.022.079.012.08h-.022ZM16.897 13.211l-.012-.01-.012-.012v-.057l.012-.045.035-.012h.034v.067l-.012.068h-.045v.001ZM14.03 13.2l-.035-.035-.012-.045-.01-.045v-.057l.034.012h.033l.022.022.013.012.012.023.01.034v.023l-.01.045h-.035l-.022.01ZM15.507 13.2l-.045-.023-.034-.023v-.044l.012-.045.034-.012h.102v.067l.012.08h-.081ZM12.607 13.19l-.023-.023-.012-.035v-.057l.012-.022.023-.023.022-.022h.035l.022.022.012.035v.057l-.022.022-.012.023-.023.022h-.034ZM16.692 13.177l-.012-.034-.012-.045.012-.045v-.045l.112.022.035.012-.012.068v.067h-.123ZM14.175 13.166l-.013-.034-.012-.035v-.022l.023-.022.012-.023h.069l.035.012-.013.057v.067h-.101ZM16.434 13.154l-.012-.034v-.035l.012-.034.012-.035h.01l.023.012-.012.067v.057h-.033v.002ZM16.321 13.142l-.022-.012-.023-.023-.012-.022v-.045h-.022l-.035.023h-.034V12.96l.022-.012h.035v-.023l.012-.012.022-.012.023-.012v-.045l-.035.012h-.034l-.035-.012-.035-.012V12.748l.035-.012H16.285l.045.012v.068l-.012.159.022.012.023.022v.012l.012.023-.012.044v.058H16.32v-.004ZM12.944 13.075l-.022-.022-.035-.035-.012-.022-.012-.035.045-.012h.045l.023.012.022.022v.057l-.022.023-.032.012ZM14.808 13.065l-.023-.023-.022-.022-.045.012-.067.022-.045-.012h-.057v-.09l.034-.012.035-.012h.022l.045.012.035.023.022.01h.023l.012-.01.034-.023.068-.012.022.057.012.057-.057.023h-.048ZM14.977 13.053l-.01-.023v-.045l.022-.012.023-.022.012.034.012.035-.023.022-.036.01ZM13.059 13.042l.012-.034v-.035l.012-.022.012-.013h.125v.09h-.08l-.081.014ZM13.262 13.042v-.09h.022l.023.012v.069h-.023l-.022.01ZM13.43 13.042l-.023-.012-.012-.022-.012-.035v-.022l.012-.045.034-.045.045-.012.057-.012.012.067v.112l-.044.023h-.07v.003ZM16.027 13.042l-.012-.035-.022-.034-.01-.035.01-.034h.034l.057.012v.124h-.057v.002ZM13.669 13.03l-.012-.09-.012-.09.067-.022.08-.012.022.08.012.09-.035.022-.034.012-.045.012h-.043v-.002ZM15.834 13.02l-.022-.023-.023-.045-.012-.034.012-.045h.068l.045.022.012.023v.091l-.045.012h-.035v-.001ZM16.942 13.02h-.012l-.012-.012.023-.068.012-.169-.035-.022-.012-.013v-.067l.012-.057.023-.012h.034v.408l-.022.012h-.01ZM15.417 12.997l-.022-.045-.012-.034V12.816l.09.012.067.022V12.952l-.022.045h-.101ZM15.645 12.997l-.023-.034-.022-.045v-.045l.012-.057h.067l.022.045.013.034.01.035v.057l-.023.012h-.056v-.002ZM13.904 12.985l-.023-.057-.012-.112.068-.012h.067V12.951l-.057.022-.043.012ZM15.225 12.973l-.034-.022-.023-.045-.012-.012v-.023l.012-.022.012-.023.068-.01h.08l-.013.08v.067l-.045.01h-.045ZM14.074 12.963v-.16l.057-.011.045-.012.045.012.045.022V12.916l-.012.022-.012.012-.057.013h-.11ZM12.426 12.95l-.01-.034v-.045l-.013-.045-.022-.034v-.068l.012-.034.012-.012.012-.012h.023l.045.012.034-.035.045-.012H12.666l.012.022v.068l-.045.01-.057.012-.045-.012-.035-.034h-.024l-.01.057v.057h.034l.035.012V12.925l-.057.012-.048.014ZM16.48 12.95l-.023-.032-.034-.022-.023-.102v-.113l.013-.124.022-.102h.159l.01.045.012.045v.237l-.012.112-.022.022-.012.035h-.09ZM16.807 12.95l-.023-.011-.022-.013V12.78l.067-.012h.045v.09l-.01.09h-.057v.003Z" fill="#fff"/><path fill-rule="evenodd" clip-rule="evenodd" d="m12.608 12.918-.022-.045.012-.068.057-.012.057-.012v.125l-.057.012h-.047ZM14.977 12.906l-.035-.012-.067-.012.012-.068.012-.044h.068l.034.012v.057l.01.067h-.034ZM12.876 12.896l-.03-.035-.032-.045-.015-.067-.016-.068.016-.067v-.057l.015-.057.031-.045.094-.012.077.012.016.102.015.112v.112l-.03.102h-.063l-.078.013ZM13.092 12.873v-.124l.045-.012.09-.01v.034l.012.01h.012l.045-.034.067-.023v.069l-.035.045-.034.045h-.202ZM14.717 12.873l-.012-.068v-.067l.057.012.067.012-.012.057-.012.035-.034.022h-.054v-.003ZM14.503 12.86l-.023-.034v-.045h.135l.012.023v.022l-.012.012-.022.012-.057.012h-.033v-.001ZM16.04 12.816v-.057h.023v.057h-.024ZM14.403 12.736l-.012-.022-.012-.034v-.023l.012-.045.09-.012h.045v.045l.012.045-.068.034-.067.012ZM15.022 12.726l-.012-.022-.01-.023v-.022l.01-.045h.08l.09-.012V12.704l-.113.012-.045.01ZM14.244 12.704v-.057l.045-.013h.045l-.01.035v.022h-.035l-.045.013ZM14.674 12.704l-.022-.012-.023-.012-.012-.068V12.386l.012-.124.01-.045.013-.057.022-.035.023-.034.034-.012.045-.012.045.012.057.034.012.135.012.147.012.134.012.135-.057.023-.067.012h-.127v.005ZM16.76 12.704l.01-.068.012-.08-.044-.089-.045-.09-.035-.012-.022-.012-.023-.012v-.035l.023-.044.012-.056.067.012.045.01.022.013.013.012v.034l.012.035-.023.01-.012.023-.01.022v.023l.08.034.089.023.034-.035h.023v.112h-.057l-.045-.012-.012.012-.01.012v.08l.01.067-.034.012h-.08v-.002ZM13.092 12.692v-.057l-.012-.068.012-.01.012-.012.035.022.034.023v.079l-.034.023h-.047ZM16.049 12.692v-.114h.09v.114h-.09ZM16.209 12.692V12.588l.012-.034h.079v-.08l.013-.067.022-.012.023-.012v-.025l-.023-.012h-.022v-.124h.089v.035l.012.022.012.022.023.012.022-.044.012-.045.02-.018.012-.012h.022l.035.023v.045l.012.057-.09.034-.08.035-.012.012v.034l-.022.012-.022.035v.034l-.013.035.013.08v.067H16.209v-.005ZM13.263 12.67l-.012-.013-.022-.012V12.543h.134l.012.057.012.057-.067.012h-.057ZM12.415 12.624v-.09l.01-.09-.022-.012-.022-.011v-.057l.012-.045.034-.023h.045v.08l-.01.079.034.012.035.012v.124l-.08.013-.036.008ZM12.64 12.568h-.022l-.022-.01V12.454h.124l-.022.045v.057h-.035l-.022.01ZM14.244 12.567v-.034l.012-.057.012-.012h.012l-.012-.08-.012-.08.012-.022.012-.034V12.172l-.012-.08v-.067h.035l.022.057v.067l.045-.012h.035l.012.035v.022l-.014.012-.012.013-.035.022-.057.012v.045l.035.012.022.012-.022.057-.022.057h.067l.034.012.01.035v.057l-.09.022-.089.005ZM15.012 12.567l-.01-.057v-.057l.022-.034.013-.035-.013-.045v-.044l.013-.012h.034v.134l.045.023.012.034.012.035v.044h-.067l-.06.014ZM15.182 12.545v-.047h.035v.046h-.035v.001ZM14.503 12.533l-.023-.045v-.045l.023-.012h.022V12.533h-.022Z" fill="#fff"/><path fill-rule="evenodd" clip-rule="evenodd" d="m16.208 12.533-.057-.023-.045-.012-.034.012-.035.012v-.224l.035-.023.067-.022.057-.012h.057l-.012.067-.023.068.035.057.01.057-.034.022-.021.02ZM13.093 12.5l-.023-.067v-.035l.08-.022.08.012.011.022.012.035-.012.022v.035H13.093V12.5ZM13.329 12.5l-.012-.012h-.012v-.069h.057l.022.022v.045h-.022l-.033.014ZM15.18 12.42l-.034-.044-.022-.035v-.012l.012-.023.012-.012.022-.012v-.034l.012-.035h-.056l-.135.01-.012-.067-.01-.057-.013-.045-.034-.034-.035-.022-.045-.013-.057-.012h-.067l-.034.023-.045.022-.045.012-.045.012v-.079l.045-.012h.134l.023-.023.022-.012h.023l.022.012.035.012.045.023h.079l.067.01.012.012.013.023.022.012.022-.012v-.045l.013-.045-.045-.012h-.057v-.057l.022-.057h.035l.012.045v.045h.034v-.023l.012-.022h.057l-.012.09v.08l.012.034.023.044v.125l-.01.124-.028.087ZM12.528 12.386l-.012-.057v-.057l.057-.012h.067l-.012.067-.012.035-.035.012-.053.012ZM12.74 12.386l-.034-.012-.022-.022V12.25l.067-.012.045.012v.091l-.012.023-.012.012-.012.012h-.02v-.002ZM14.503 12.386l-.045-.012h-.045v-.09l.035-.012.022-.023.012-.09-.012-.056-.045-.012-.034-.012v-.023l-.012-.012v-.012l.012-.035.034-.012h.023l.022.012.023.012.022.045.012.068.01.084-.011.068v.067l-.023.045ZM16.864 12.386l-.022-.067v-.068h.045l.034.012.012.023.012.012-.012.022-.012.035-.022.022-.035.009ZM13.296 12.364h-.012l-.022-.012V12.25l.034-.012.035.012.01.045.023.057-.035.012h-.033ZM12.856 12.353l-.012-.09.012-.044h.045l.112.034v.022l.012.023h.035l.012-.035.012-.044h.067l.035.01.022.022v.068l-.08.01-.09.022h-.183v.002ZM12.327 12.207l-.023-.045-.017-.062.307-.006.26-.005.324-.012h.259l.022.023v.034l-.134.012h-.16l-.144.009-.175.007-.127.003-.128.03-.124.012h-.14ZM16.959 12.201l-.073-.019-.09-.038h-.101l-.104.02h-.235l-.18.018-.151.045-.02-.08v-.056l.227-.026.214-.02h.214l.316.042.08.04v.035l-.004.08-.093-.04ZM14.346 11.946l-.012-.057v-.045l.08-.023.079-.022.124-.012.124-.012.013.022-.013.09h-.09l-.079-.012-.01.012-.012.022-.045-.012h-.045l-.022.023-.023.012-.034.012h-.035v.002ZM14.266 11.945l-.012-.044-.012-.023h.057l-.012.023-.012.044h-.009Z" fill="#fff"/><path fill-rule="evenodd" clip-rule="evenodd" d="m14.91 11.913-.044-.023-.045-.012v-.045l-.012-.057H14.91l.022.013.012.011.012.023v.034l.012.023-.034.012-.024.02ZM14.176 11.754v-.033l.124-.034.124-.035.137-.034.134-.012.135-.01.135.01.124.022.124.034.023.013v.012l.012.022v.023H15.213l-.079-.035-.08-.022-.09-.013h-.269l-.158.023-.09.012-.09.023-.09.022-.091.012ZM12.273 12.027v-.086l-.002-.007-.001-.007-.002-.007-.002-.007-.002-.007-.001-.007-.004-.007-.003-.006-.004-.007-.005-.007-.005-.007-.007-.005-.007-.006h-.001v-.11h.107l.03.164h.213l.026-.26h.135l.001.217h.23l.002-.213.13-.003.015.212h.214l.002-.16h.124v.053l.014.062.022.132v.086h-1.219v-.007Z" fill="#fff"/><path fill-rule="evenodd" clip-rule="evenodd" d="m14.13 11.557.002.121.101-.028.182-.056.214-.023H15.036l.214.035.035.022.045.012v-.102l.022-.207-.198-.019-.004.093h-.098v-.165l-.206-.01-.003.198-.142.005v-.2l-.233.01v.204l-.202.03.004-.156-.137.014c-.046.001.004.13-.003.222ZM17.009 12.06l-.068-.023c-.388-.062-.618-.003-.965.009l-.003-.126v-.135l.033-.007h.087c.018.057-.003.087.013.147l.172-.007.01-.178.166-.002.002.096v.079l.147.002.012-.171h.157l.012.102.012.056.023.023.145.01.007-.13.102-.008c.006.066-.006.128-.006.194l.01.058h-.034l-.034.01Z" fill="#fff"/><path clip-rule="evenodd" d="M22.875 10.371c-.062-.019-.036-.03-.138-.033-.102-.003-.126.016-.126.016l.17.183-.151-.045c-.112-.23-.92-.399-1.126-.506-.54-.477-1.036-.639-1.195-.703l-.6-.243-.033-.017.31-.49.008.008s.623.29.81.399c.065.02.581.33.79.537.209.207.893.5.922.538.028.04.316.308.316.308l.043.048Z" stroke="#fff" stroke-width=".022" stroke-miterlimit="22.926"/><path clip-rule="evenodd" d="M23.003 13.78c-.136-.002-.25-.006-.3-.008-.178-.007-.126.016-.126.016.096.105.184.195.264.27-.328-.179-1.052-.595-1.3-.546-.307.06-.554-.135-.779-.427-.224-.292-.568-.276-.568-.276l-.6-.244-.034-.017.311-.488.007.006s.623.29.81.4c.186.108.793.324 1.001.531.21.207 1.164.627 1.193.667.014.012.064.062.121.117Z" stroke="#fff" stroke-width=".023" stroke-miterlimit="22.926"/><path fill-rule="evenodd" clip-rule="evenodd" d="M23.435 16.985c-.17.006-.333.01-.402.007-.176-.007-.06.049-.06.049.172.084.295.174.37.274-.013.005-.015.012 0 .024-.148-.07-.43-.265-.662-.324-.364-.092-.696-.037-.857-.092-.265-.091-.549-.312-.868-.44a3.325 3.325 0 0 1-.663-.394l-.692-.243-.037-.014.042-.066.25-.374s.705.012 1.007.356c.304.343.889.688 1.176.66.288-.027 1.329.508 1.351.536l.045.041Z" fill="#fff"/><path fill-rule="evenodd" clip-rule="evenodd" d="m8.566 7.018.432.252.08.55-.468-.303-.044-.499Zm.113 3.524.431.252.08.55-.468-.303-.043-.499Zm.048 3.39.432.251.079.55-.468-.303-.043-.499Zm12.032-.09-.431.252-.08.549.468-.303.043-.498Zm0-3.284-.431.252-.08.549.468-.302.043-.5Zm.114-3.522-.431.252-.064.466.055.036.395-.256.045-.498Zm-6.13-1.862-.229.444.228.506.232-.506-.232-.444Z" fill="#000"/><path clip-rule="evenodd" d="m20.875 7.036-.43.253-.064.467.055.034.395-.254.044-.5Z" stroke="#fff" stroke-width=".225" stroke-miterlimit="22.926"/><path clip-rule="evenodd" d="M18.183 7.115a.712.712 0 0 0-.135.047c-.152.09-.098.08-.098.08l.242.065-.152.043s-.791.17-1.05.09a3.068 3.068 0 0 0-.89-.135c-.314 0-.628.072-.628.072l-.637.118-.036.003V6.92l.008.002s.682-.09.898-.099c.216-.008.853-.017 1.14.045.286.062.8.126.844.143.045.018.432.09.432.09l.062.014Z" stroke="#fff" stroke-width=".023" stroke-miterlimit="22.926"/><path clip-rule="evenodd" d="M6.387 10.32c.18-.058.31-.085.27-.027a3.685 3.685 0 0 0-.148.247c.043-.029.1-.065.176-.103.216-.107.49-.344.49-.344s.147-.147.58-.264c.43-.117.812-.264.95-.363.137-.098.598-.372.686-.46.036-.037.157-.076.288-.11l-.31-.5-.068.041s-.725.304-.784.44c-.058.137-.264.294-.362.324-.099.029-1.069.381-1.157.47-.088.087-.568.391-.608.617a.155.155 0 0 1-.003.031Z" stroke="#fff" stroke-width=".066" stroke-miterlimit="22.926"/><path fill-rule="evenodd" clip-rule="evenodd" d="M6.553 16.86c.022.008.041.02.057.04-.023.006-.083.148-.145.338.081-.06.166-.12.186-.14.043-.043.884-.485 1.074-.546.19-.062.311-.133.663-.172.352-.04 1.105-.513 1.376-.691l-.295-.5c-.062.08-.271.338-.622.436-.35.098-.95.313-1.05.338-.098.025-.932.54-1.037.632a1.963 1.963 0 0 0-.207.265ZM6.736 13.49c.076-.008.13-.011.147-.008.08.016.095.016.095.016l-.147.174c.1-.012.204-.02.304-.026.361-.015.825-.354.912-.425.086-.07.723-.378.794-.424.07-.047.684-.328.73-.385.047-.057.106-.08.128-.113-.095-.16-.23-.369-.326-.524-.114.124-.365.416-.618.464-.254.048-.74.36-.85.449-.11.086-.597.511-.644.535l-.525.268ZM15.114 22.716c-.264-.012-.526-.01-.79-.023h-.26l-.034-.067-.012-.112-.012-.137v-.134c.019-.425.048-.85.067-1.276.037-.711.038-1.093.801-1.015.39.038.363.593.384.858l.012.27c0 .362-.012.722-.012 1.085v.271l-.023.137-.012.134-.109.009Z" fill="#fff"/><path fill-rule="evenodd" clip-rule="evenodd" d="m3.158 8.425 2.954-2.47-.026-.142-3.375 2.783.447-.17ZM26.308 8.425l-2.954-2.47.025-.142 3.376 2.783-.447-.17ZM14.944 3.335H10.12a.488.488 0 0 0-.488.49v.015a.488.488 0 0 0 .488.488H19.416a.488.488 0 0 0 .488-.488v-.016a.488.488 0 0 0-.488-.489h-4.472Zm-.352-.29H19.416c.214 0 .41.088.55.23.142.142.23.337.23.55v.016c0 .214-.088.41-.23.551a.778.778 0 0 1-.55.23H10.12a.778.778 0 0 1-.55-.23.778.778 0 0 1-.23-.55v-.016c0-.214.088-.41.23-.551a.778.778 0 0 1 .55-.23h4.472Z" fill="#000"/><path fill-rule="evenodd" clip-rule="evenodd" d="M14.946 3.19h-4.824a.638.638 0 0 0-.636.636v.016c0 .348.287.635.636.635h9.295a.637.637 0 0 0 .636-.635v-.016a.638.638 0 0 0-.636-.635h-4.471Z" fill="#fff"/><path fill-rule="evenodd" clip-rule="evenodd" d="m9.061 7.738-.055.036 3.234 5.106.055-.037L9.06 7.739Zm5.651-1.692h.066v5.389h-.066V6.046Zm5.668 1.71.056.036-3.328 5.219-.055-.036 3.327-5.22Zm-.114 3.521-3.358 5.265.017.093 3.398-5.323-.057-.034Zm0 3.284.056.037-2.475 3.824-.017-.093 2.436-3.768Zm-11.09-.017-.056.036 2.34 3.899.016-.093-2.3-3.842Zm0-3.284 3.248 5.16-.017.094-3.289-5.217.057-.037Z" fill="#000" stroke="#000" stroke-width=".216" stroke-miterlimit="22.926"/><path fill-rule="evenodd" clip-rule="evenodd" d="M38.092 23.244c.399-.278.734-.695 1-1.246l.038-.08h2.36l-.037.171c-.259 1.197-.844 2.13-1.643 2.77-.84.671-1.913 1.02-3.092 1.02a4.955 4.955 0 0 1-2.449-.625 4.677 4.677 0 0 1-1.778-1.744c-.22-.39-.366-.682-.46-1.28-.09-.581-.129-1.45-.129-2.988s.038-2.407.13-2.988c.093-.598.242-.89.46-1.28a4.68 4.68 0 0 1 1.777-1.745 4.968 4.968 0 0 1 2.449-.625c1.227 0 2.273.405 3.075 1.065a4.864 4.864 0 0 1 1.662 2.835l.033.167H39.116l-.031-.098a2.569 2.569 0 0 0-.914-1.274 2.431 2.431 0 0 0-1.453-.477c-.411 0-.77.087-1.074.227a2.318 2.318 0 0 0-.84.652c-.245.307-.402.546-.497 1.012-.098.487-.134 1.222-.134 2.526 0 1.302.036 2.039.134 2.526.095.468.252.706.498 1.011.205.254.486.49.839.653.304.14.663.226 1.074.226.52.002.979-.136 1.374-.41Zm4.168-1.015c-.092-.582-.13-1.45-.13-2.988 0-1.539.038-2.407.13-2.99.093-.597.242-.888.46-1.279a4.68 4.68 0 0 1 1.777-1.745 4.968 4.968 0 0 1 2.449-.625 4.95 4.95 0 0 1 2.448.625 4.66 4.66 0 0 1 1.776 1.744c.22.388.366.682.46 1.28.091.581.13 1.45.13 2.988s-.039 2.407-.13 2.988c-.094.598-.242.89-.46 1.28a4.672 4.672 0 0 1-1.776 1.744 4.968 4.968 0 0 1-2.448.625 4.95 4.95 0 0 1-2.449-.625 4.677 4.677 0 0 1-1.778-1.744c-.22-.389-.366-.68-.46-1.278Zm2.274-5.514c-.099.486-.135 1.222-.135 2.526 0 1.301.036 2.038.135 2.525.095.468.252.707.497 1.012.205.254.487.49.839.653.304.14.663.226 1.074.226.41 0 .77-.086 1.074-.226.354-.163.633-.399.839-.653.245-.307.402-.545.497-1.012.099-.486.135-1.224.135-2.525 0-1.302-.036-2.04-.135-2.526-.095-.468-.252-.707-.497-1.012a2.347 2.347 0 0 0-.84-.653 2.55 2.55 0 0 0-1.073-.226c-.413 0-.77.086-1.074.226a2.333 2.333 0 0 0-.84.653c-.244.307-.401.545-.496 1.012Zm3.182-4.576-2.26.004h-.247l.126-.213.542-.91.041-.069h.08l2.379.018.276.001-.166.221-.66.89-.042.056-.07.002Zm11.315 2.576h-2.97v3.595h2.86c.665 0 1.167-.197 1.512-.511.384-.349.574-.846.574-1.376 0-.304-.057-.57-.158-.791a1.348 1.348 0 0 0-.445-.547l-.002-.002a1.738 1.738 0 0 0-.564-.276 2.95 2.95 0 0 0-.807-.092Zm-3.11 11.053h-2.126V12.712h5.254c.564 0 1.07.066 1.526.206.46.142.867.363 1.23.67.403.333.757.77 1.004 1.283.221.462.356.987.356 1.552 0 .856-.25 1.635-.706 2.27a3.847 3.847 0 0 1-1.774 1.342l2.96 5.526.11.207H61.08l-.04-.077-2.665-5.377h-2.312v5.455h-.14Zm13.689 0h-4.593V12.712h4.72c.892 0 1.701.196 2.4.572.696.375 1.278.93 1.713 1.649.332.554.511.956.61 1.567.096.603.11 1.397.11 2.739 0 1.443-.038 2.293-.15 2.9-.116.622-.306.985-.61 1.447a4.726 4.726 0 0 1-1.783 1.621c-.673.35-1.48.561-2.417.561Zm-.092-10.944h-2.232v8.835h2.232c.54 0 1-.09 1.383-.268a2.28 2.28 0 0 0 .93-.784c.208-.305.325-.542.39-.982.067-.458.08-1.134.08-2.312 0-1.143-.013-1.853-.091-2.353-.076-.485-.216-.784-.468-1.114v-.002c-.288-.383-.589-.638-.94-.797-.355-.16-.77-.223-1.284-.223Zm6.777 7.405c-.091-.582-.13-1.45-.13-2.988 0-1.539.038-2.407.13-2.99.093-.597.242-.888.46-1.279a4.68 4.68 0 0 1 1.778-1.745 4.968 4.968 0 0 1 2.448-.625 4.95 4.95 0 0 1 2.448.625 4.658 4.658 0 0 1 1.777 1.744c.219.388.366.682.459 1.28.091.581.13 1.45.13 2.988s-.039 2.407-.13 2.988c-.093.598-.242.89-.46 1.28a4.672 4.672 0 0 1-1.776 1.744 4.968 4.968 0 0 1-2.448.625 4.95 4.95 0 0 1-2.448-.625 4.677 4.677 0 0 1-1.779-1.744c-.217-.389-.366-.68-.459-1.278Zm2.274-5.514c-.099.486-.135 1.222-.135 2.526 0 1.301.036 2.038.135 2.525.095.468.252.707.497 1.012.206.254.487.49.84.653.303.14.662.226 1.073.226.411 0 .77-.086 1.074-.226.354-.163.634-.399.839-.653.245-.307.402-.545.497-1.012.099-.486.135-1.224.135-2.525 0-1.302-.036-2.04-.135-2.526-.095-.468-.252-.707-.497-1.012a2.346 2.346 0 0 0-.839-.653 2.55 2.55 0 0 0-1.074-.226c-.41 0-.77.086-1.074.226a2.331 2.331 0 0 0-.839.653c-.245.307-.402.545-.497 1.012Zm14.92 9.053H87.83V12.712H93.049c1.277 0 2.26.348 2.935.943.72.636 1.087 1.55 1.087 2.624 0 .553-.107 1.099-.414 1.594-.266.43-.684.82-1.309 1.141.555.194.99.543 1.304.976.418.575.623 1.3.623 2.013 0 1.11-.41 2.03-1.067 2.683-.696.692-1.666 1.082-2.717 1.082Zm.974-5.193c-.324-.292-.803-.476-1.452-.476H90.1v3.558h2.912c.65 0 1.128-.185 1.452-.477.368-.331.542-.804.542-1.301 0-.5-.174-.972-.542-1.304Zm-.191-5.404c-.325-.28-.803-.454-1.444-.454h-2.73v3.379h2.73c.644 0 1.124-.173 1.449-.453.354-.307.526-.747.526-1.236 0-.483-.174-.927-.531-1.236Zm9.154.684-1.718 5.057h3.434l-1.716-5.057Zm5.592 9.913H106.822l-.033-.093-.979-2.759h-4.769l-.979 2.76-.032.093h-2.399l.071-.19 4.765-12.777.035-.091h1.849l.035.091 4.765 12.777.071.19h-.204ZM33.518 8.37h.817v.21c0 .502-.36.85-.824.85a.771.771 0 0 1-.62-.293c-.157-.204-.201-.316-.201-1.138 0-.823.044-.936.202-1.138a.776.776 0 0 1 .62-.293c.383 0 .67.271.766.58h.642c-.124-.654-.647-1.19-1.409-1.19-.632 0-1.065.372-1.257.722-.129.237-.174.356-.174 1.32 0 .963.045 1.082.175 1.318.191.35.624.722 1.256.722.8 0 1.432-.632 1.432-1.426v-.817h-1.426v.573h.001ZM35.52 8c0 .963.045 1.082.175 1.318.191.35.625.722 1.257.722.632 0 1.065-.371 1.257-.722.129-.236.174-.355.174-1.319 0-.963-.045-1.082-.174-1.319a1.427 1.427 0 0 0-1.257-.721c-.632 0-1.066.37-1.257.721-.13.237-.175.356-.175 1.32Zm.608 0c0-.824.045-.937.202-1.139a.776.776 0 0 1 .62-.293c.287 0 .495.135.62.293.157.204.202.316.202 1.138 0 .822-.045.936-.202 1.138a.776.776 0 0 1-.62.294.771.771 0 0 1-.62-.294c-.157-.202-.202-.314-.202-1.138Zm2.965 2.005h1.69c.602 0 1.115-.445 1.115-1.137 0-.406-.214-.824-.654-.924v-.01c.468-.21.592-.53.592-.862 0-.632-.406-1.076-1.19-1.076H39.09v4.01h.002Zm1.543-1.78c.45 0 .654.287.654.603s-.203.603-.654.603h-.936V8.225h.936Zm-.055-1.692c.44 0 .647.265.647.575 0 .316-.209.575-.647.575H39.7v-1.15h.879Zm1.95 3.472h.607V5.994h-.608v4.012Zm1.453 0h2.564v-.574H44.59V8.253h1.667v-.54H44.59V6.568h1.957v-.575h-2.564v4.012Zm3.743-3.472h.953c.209 0 .333.04.445.125.125.09.202.248.202.456 0 .338-.226.637-.682.637h-.918V6.533Zm-.61 3.472h.608V8.293h.777l.829 1.713h.722l-.931-1.78c.485-.17.777-.593.777-1.11 0-.362-.175-.665-.4-.857-.215-.187-.479-.264-.817-.264h-1.566v4.01h.002Zm3.438 0h.608V7.153h.012l1.814 2.853h.575V5.992h-.607v2.852h-.013L51.13 5.993h-.575v4.012ZM54.273 8c0 .964.045 1.083.174 1.32.192.348.625.721 1.257.721.632 0 1.066-.371 1.257-.722.13-.236.175-.355.175-1.319 0-.963-.045-1.082-.175-1.319a1.427 1.427 0 0 0-1.257-.721c-.632 0-1.065.37-1.257.721-.127.237-.174.356-.174 1.32Zm.61 0c0-.823.044-.936.203-1.138a.776.776 0 0 1 .62-.293c.287 0 .495.135.62.293.157.204.203.316.203 1.138 0 .822-.044.936-.203 1.138a.776.776 0 0 1-.62.294.771.771 0 0 1-.62-.294c-.159-.202-.204-.314-.204-1.138Zm4.316 2.006h1.364c.597 0 1.015-.293 1.251-.664.18-.282.227-.44.227-1.342 0-.839-.018-.992-.214-1.33-.26-.44-.693-.676-1.223-.676H59.2v4.012H59.2Zm.61-3.437h.726c.326 0 .53.085.717.338.164.22.18.396.18 1.116 0 .744-.016.856-.151 1.06-.157.231-.4.349-.744.349h-.727V6.568h-.002Zm2.941 3.438h2.564V9.43h-1.956V8.253h1.668v-.54h-1.668V6.568h1.956v-.575H62.75v4.012Zm4.486 0H69.8V9.43h-1.956V5.993h-.608v4.012Zm3.843-1.437.58-1.752h.012l.58 1.752H71.08Zm1.658 1.436h.642l-1.46-4.012h-.507l-1.459 4.012h.643l.31-.896h1.521l.31.896Zm3.031-3.437h.88c.174 0 .298.022.432.112.152.102.26.264.26.535 0 .316-.22.648-.67.648h-.902V6.568Zm-.61 3.438h.608V8.44h.924a1.21 1.21 0 0 0 1.257-1.206c0-.433-.192-.771-.433-.958-.31-.242-.585-.281-.901-.281h-1.454v4.01Zm3.953-3.473h.953c.209 0 .333.04.445.125.125.09.204.248.204.456 0 .338-.226.637-.682.637h-.918V6.533h-.002Zm-.61 3.472h.61V8.293h.777l.828 1.713h.722l-.93-1.78c.485-.17.776-.593.776-1.11 0-.362-.174-.665-.4-.857-.214-.187-.478-.264-.817-.264H78.5v4.01h.001ZM81.804 8c0 .964.045 1.083.175 1.32.191.348.625.721 1.257.721.631 0 1.065-.371 1.256-.722.13-.236.175-.355.175-1.319 0-.963-.045-1.082-.175-1.319a1.427 1.427 0 0 0-1.257-.721c-.631 0-1.065.37-1.256.721-.13.237-.175.356-.175 1.32Zm.608 0c0-.823.045-.936.202-1.138a.776.776 0 0 1 .62-.293c.286 0 .495.135.62.293.157.204.202.316.202 1.138 0 .822-.045.936-.202 1.138a.776.776 0 0 1-.62.294.771.771 0 0 1-.62-.294c-.157-.202-.202-.314-.202-1.138Zm3.731 2.006h.473l1.324-4.012h-.642l-.913 3.054h-.012l-.914-3.054h-.642l1.326 4.012Zm2.227 0h.608V5.994h-.608v4.012Zm1.454 0h.61V7.153h.011l1.815 2.853h.575V5.992h-.61v2.852h-.011l-1.815-2.852h-.575v4.012Zm5.917-1.122c-.17.361-.428.548-.767.548a.771.771 0 0 1-.62-.294c-.157-.204-.202-.316-.202-1.138 0-.823.045-.936.202-1.138a.776.776 0 0 1 .62-.293c.383 0 .67.271.767.58h.642c-.124-.654-.647-1.19-1.409-1.19-.632 0-1.065.372-1.257.722-.13.237-.174.356-.174 1.32 0 .963.045 1.082.174 1.318.192.35.625.722 1.257.722.687 0 1.252-.406 1.41-1.155h-.643v-.002Zm1.07 1.123h.608V5.992h-.608v4.012Zm2.165-1.437.58-1.752h.013l.58 1.752h-1.173Zm1.656 1.436h.642l-1.459-4.012h-.507l-1.46 4.012h.643l.311-.896h1.521l.309.896Zm2.424 0h1.364c.597 0 1.015-.293 1.252-.664.181-.282.226-.44.226-1.342 0-.839-.017-.992-.214-1.33-.259-.44-.692-.676-1.222-.676h-1.404v4.012h-.002Zm.608-3.437h.727c.326 0 .53.085.716.338.164.22.18.396.18 1.116 0 .744-.017.856-.152 1.06-.157.231-.401.349-.744.349h-.727V6.568Zm2.942 3.438h2.564V9.43h-1.956V8.253h1.667v-.54h-1.667V6.568h1.956v-.575h-2.564v4.012Z" fill="#000"/></svg>