<svg width="109" height="22" fill="none" xmlns="http://www.w3.org/2000/svg"><path fill-rule="evenodd" clip-rule="evenodd" d="m17.135 3.24.69-3.24H3.506L1.608 8.912l-1.61 7.177H14.72l.747-3.414H7.302l.747-3.473h6.9l.748-3.241h-6.9l.574-2.72h7.764ZM29.152 9.202h5.003c.177-1.047.506-2.607.575-3.878.08-1.488-.503-2.583-1.782-3.3-1.833-1.022-4.533-.967-6.556-1.04-2.773-.102-6.073.258-7.82 2.72-.902 1.269-1.409 3.236-1.608 4.774-.246 1.877-1.187 5.026.515 6.568 1.265 1.149 4.097 1.53 5.743 1.508 1.677-.024 3.305-.134 4.953-.465l4.312 5.265h6.728L29.152 9.202Zm-.747.115c-.55 2.496-1.3 4.595-4.198 4.572-2.91-.021-1.945-3.152-1.668-4.976.392-2.592 1.388-5.31 4.37-5.093 3.02.22 1.954 3.423 1.496 5.497ZM56.008 1.794l-1.553 7.118-1.553 7.177h5.866L61.93 1.794h-5.923ZM76.308 4.63l.69-2.836H64.173l-3.106 14.295h5.924l1.322-6.135h5.808l.23-1.042.345-1.62h-5.75l.575-2.663h6.786Z" fill="#000"/><path fill-rule="evenodd" clip-rule="evenodd" d="M37.146 1.794h5.98l-2.242 10.128c-.274 1.238.88 1.884 1.871 1.97 1.274.11 2.416-.69 2.73-2.027l2.357-10.07h5.923L51.407 12.5c-1.01 2.792-3.348 3.888-5.93 4.162-1.6.17-3.295.026-4.824-.227l-5.29-6.366 1.783-8.276ZM89.59 1.794h7.534l2.3 3.704 3.738-3.704h5.75l-7.532 6.655 4.945 7.64h-7.36l-2.416-4.34-4.14 4.34h-8.798l-.345-3.125H77.17l-2.127 3.125h-4.14L80.907 1.794h7.188l1.38 11.574L94.25 8.97 89.59 1.794ZM79.126 9.896l3.22-4.861.576 4.861h-3.796Z" fill="#000"/></svg>