<svg width="115" height="21" fill="none" xmlns="http://www.w3.org/2000/svg"><path d="M2.008 13.37c.19.027.392.04.581.04 2.474 0 5.286-2.149 6.598-4.218 1.284-2.176 1.595-4.758.906-7.476-.109-.649-.528-.933-.866-.933a.42.42 0 0 0-.297.108c-.23.311-.338.5-.487.785-.257.392-.243.81.027 1.324.46.798 1.258 4.137.19 5.868-1.177 1.933-2.637 2.88-4.476 2.88-.419 0-.797-.04-1.135-.095-.04-.013-.095-.013-.162-.027a1.592 1.592 0 0 0-.365-.04.751.751 0 0 0-.69.392c-.013.027-.04.054-.068.094-.121.19-.283.433-.31.65-.028.188 0 .35.08.445.095.136.257.203.474.203Z" fill="#000"/><path d="m8.955 10.247-.054-.04c-2.637 3-5.76 4.123-7.098 4.123h-.108c-.027-.014-.054-.014-.068-.014-.54 0-.892.19-1.122.568-.176.243-.257.419-.392.69l-.054.108c-.081.189-.081.365 0 .5.108.162.338.257.635.257.176 0 .365-.027.555-.095 2.541-.717 5.042-1.717 7.706-6.097ZM6.79 5.555c1.218 1.46 1.136 3.42 1.042 4.191l-.027.163.094-.149c1.433-2.474.771-4.556-.054-5.868-.202-.378-.486-.446-.81-.216-.177.122-.352.406-.46.595-.028.04-.041.081-.068.108-.325.527.027.892.23 1.095.013.027.04.054.054.081ZM8.728 14.56c-2.515.027-4.867 1.122-6.8 3.136-.433.379-.5.798-.42 1.082.054.189.176.31.311.338.352.04.595.027.92 0h.013c.46 0 .811-.23 1.095-.717.433-.811 2.826-3.245 4.84-3.245h.081c3.786 0 4.786 2.258 5.26 3.34.027.04.04.095.067.148.108.298.27.73.852.73h.284c.162 0 .378-.013.54-.067a.555.555 0 0 0 .339-.31c.04-.136.027-.298-.081-.501-1.041-2.393-4.597-3.907-7.301-3.934Z" fill="#000"/><path d="M18.92 17.601c-1.934-1.784-4.083-3.407-9.126-3.407h-.081v.068c4.259.757 6.733 3.028 7.274 4.015.27.5.621.73 1.095.73.094.014.162.014.243.014.162 0 .297-.014.487-.027.054-.014.108-.014.175-.014.23-.027.379-.148.433-.324.095-.298-.095-.703-.5-1.055ZM7.82 15.722c-1.258.487-2.231 1.42-2.893 2.758-.109.19-.136.365-.082.5.041.136.15.244.338.311.163.068.447.082.636.082h.243c.595 0 .73-.474.798-.758.013-.04.027-.08.04-.108.595-1.811 2.285-2.771 2.988-3.096l.162-.067h-.175c-.77.027-1.46.149-2.055.378ZM20.988 15.871a5.067 5.067 0 0 0-.433-.811c-.216-.42-.581-.622-1.163-.649-.92 0-4.204-.973-5.137-2.758-1.825-3.38-.311-5.34.419-6.287.027-.04.054-.067.094-.108.203-.243.514-.595.244-1.109-.014-.027-.04-.067-.054-.121-.095-.19-.23-.446-.392-.582-.311-.243-.595-.189-.825.163-1.609 2.041-1.257 5.921 0 8.328 1.217 2.204 3.285 3.772 5.976 4.529.175.068.338.095.5.095.297 0 .568-.122.716-.325.055-.135.082-.257.055-.365Z" fill="#000"/><path d="M13.011 11.18c-1.365-4.11-.54-7.396.068-8.342.297-.473.338-.906.108-1.311-.108-.244-.216-.406-.351-.636-.027-.054-.068-.094-.109-.162-.108-.162-.256-.243-.405-.243-.325 0-.635.378-.77.96-.663 2.568-1.055 5.259 1.378 9.76l.081-.026ZM13.795 10.382l.081.149c1.352 2.393 3.38 2.906 4.84 2.906.081 0 .176-.013.257-.013.216 0 .379-.054.473-.162.095-.095.135-.244.108-.433-.013-.216-.175-.5-.284-.703-.027-.04-.04-.081-.054-.108-.148-.27-.365-.42-.649-.42-.148 0-.284.028-.392.055-.04.013-.08.013-.108.027-.23.04-.473.054-.716.054-1.582 0-2.907-.879-3.407-1.244l-.15-.108ZM41.118 18.183v-.176l-.013-5.475c0-.352 0-.73.122-1v-.163h-3.624v.176l.04.013c1.015.42 1.015 1.596 1.015 2.623v3.38a11.2 11.2 0 0 1-3.137.446c-3.637 0-6.49-2.934-6.49-6.665 0-1.825.623-3.393 1.785-4.516C31.94 5.745 33.52 5.15 35.278 5.15c.852 0 2.934.135 4.029 1.393l.013.027h.149V3.73l-.04-.013a17.007 17.007 0 0 0-3.624-.406c-2.758.014-5.124.784-6.84 2.258C27.22 7.07 26.3 9.192 26.3 11.68c0 4.962 3.677 8.152 9.356 8.152h.027c1.906 0 3.799-.378 5.489-.716l.067-.014-.027-.067c-.108-.244-.095-.555-.095-.852ZM56.437 16.263a5.94 5.94 0 0 0-.136-.338L51.515 3.69l-3.718.013v.163l.041.013c.297.095.487.244.581.446.203.42-.027 1.014-.23 1.582L44.337 15.94c-.04.122-.08.23-.121.338-.447 1.23-.88 2.393-2.069 3.015l-.027.013v.176h4.327v-.176l-.041-.013c-1.028-.406-.92-1-.433-2.38l1.176-3.312h5.692l1.217 3.312.108.284c.541 1.42.622 1.636-.392 2.096l-.027.013v.163h4.813v-.163l-.027-.013c-1.176-.636-1.636-1.798-2.095-3.029Zm-4.313-4.556h-4.34l2.177-5.76 2.163 5.76ZM70.227 16.182c-1.19 1.04-2.542 1.528-4.016 1.447l-3.055-.203-.014-10.316V6.76c-.027-1.055-.04-2.488.974-2.867l.04-.027v-.162h-4.488v.162l.04.014c1.028.392 1.014 1.852 1.001 2.92v9.545c.027 1.082.04 2.555-.987 2.934l-.04.013v.163h9.504l1.23-3.286h-.162l-.027.014ZM81.594 16.222a5.495 5.495 0 0 1-3.69 1.42c-.163 0-.338 0-.5-.027l-2.853-.284v-5.516h1.784c.595 0 1.5 0 1.852.622l.014.04h.162V9.841h-.162c-.257.135-.622.135-.987.135h-2.663l-.014-4.312c.73-.136 1.528-.163 2.271-.163 1 0 1.96.068 2.664.92l.027.027h.148l-.013-2.894h-.135l-.014.014c-.175.095-.405.108-.608.108H78.444l-7.382.014v.162l.041.013c1.028.392 1.014 1.866 1 2.92v.298l.014 8.964v.31c.014 1.069.027 2.515-1 2.894l-.041.013v.176l9.599-.013h.04l1.069-3.245h-.176l-.014.04ZM93.872 3.825l.027.014c1.163.69 1.163 1.568 1.163 2.88l.013 8.909-8.287-10.83-.338-.486c-.163-.19-.244-.298-.325-.555v-.08h-3.46v.162l.026.013c1.163.69 1.163 1.622 1.163 2.934l.013 9.504c.014 1.298.014 2.245-1.176 2.961l-.027.014v.175l4.164-.013v-.176l-.027-.013c-1.163-.703-1.163-1.623-1.163-2.907l-.013-9.085 7.76 10.193c.96 1.312 1.677 2.137 3.38 2.732l.068.027-.014-13.426c0-1.311 0-2.257 1.163-2.947l.027-.013v-.15h-4.15v.163h.013ZM107.162 3.244h-.136a7.826 7.826 0 0 0-5.718 2.352c-1.555 1.569-2.434 3.759-2.407 5.99.054 4.677 3.488 8.22 8.004 8.22h.094a7.897 7.897 0 0 0 5.638-2.448c1.528-1.595 2.353-3.745 2.325-6.07-.054-4.53-3.474-8.044-7.8-8.044Zm5.205 8.53c.013 1.907-.582 3.57-1.677 4.706-.933.96-2.19 1.473-3.61 1.473h-.067c-3.367 0-5.489-3.434-5.516-6.624-.041-3.705 2.136-6.233 5.408-6.26h.054c3.461 0 5.367 3.461 5.408 6.706Z" fill="#000"/></svg>