<svg width="128" height="36" fill="none" xmlns="http://www.w3.org/2000/svg"><path fill-rule="evenodd" clip-rule="evenodd" d="M-.002 35.1V.308h128V35.1h-128Z" fill="#fff"/><path fill-rule="evenodd" clip-rule="evenodd" d="M24.409 33.731c34.025 0 68.05.012 102.087.024l-.036.072c-34.05-.024-68.098-.036-102.136-.048a.194.194 0 0 1 .084-.048ZM1.5 33.791v-.012c5.493 0 10.997 0 16.502.012H1.5Z" fill="#000"/><path fill-rule="evenodd" clip-rule="evenodd" d="M1.501 1.821V33.791h-.048V1.821h.048Z" fill="#000"/><path fill-rule="evenodd" clip-rule="evenodd" d="M18.002 33.79c-5.505-.011-11.01-.011-16.502-.011V1.845c5.493-.012 10.997-.024 16.502-.024.565.036 1.142.072 1.719.12.048.048.72.12.769.168 3.113.577 5.648 2.031 8.028 4.075a22.749 22.749 0 0 1 2.969 3.798c.312.66.637 1.322.961 1.983.445 1.466.782 2.788 1.01 4.29.012.794.036 1.599.06 2.404a91.863 91.863 0 0 0-.204 1.84c-.493 2.403-1.359 4.458-2.692 6.501-.674.878-.674.878-.722.986-1.767 1.874-3.473 3.22-5.745 4.387-.565.204-1.117.42-1.67.637-1.455.432-2.957.72-4.483.78Z" fill="#000"/><path fill-rule="evenodd" clip-rule="evenodd" d="M24.408 33.73c2.103-.936 3.918-2.138 5.649-3.665.072-.12.673-.685 1.695-1.887.937-1.31 1.767-2.608 2.475-4.062.205-.565.421-1.13.638-1.683 1.19-3.978 1.13-7.824-.12-11.778-.205-.529-.41-1.058-.614-1.575-1.178-2.307-2.584-4.23-4.447-6.033-.48-.408-.961-.805-1.442-1.202 32.727-.012 65.466-.024 98.206-.024a.153.153 0 0 0 .048.036v31.898c-34.038-.012-68.063-.024-102.088-.024Z" fill="#000"/><path fill-rule="evenodd" clip-rule="evenodd" d="M17.437 30.413c-.673-4.71-1.442-9.458-1.947-14.181.745-.373.962-1.178 1.19-1.936.144-.817.36-1.718.3-2.56-1.43.036-2.992.18-4.29.806-1.599 0-1.707-2.26-.036-2.404 1.43.553 2.86.757 4.387.805-.072-1.502-.229-2.92-.794-4.314 0-.41.097-.638.36-.938.963-.625 1.876-.216 2.032.913-.589 1.443-.673 2.753-.793 4.291a.656.656 0 0 1 .084.048c1.466-.072 2.945-.204 4.303-.805 1.646.156 1.562 2.404-.048 2.404-1.298-.65-2.897-.746-4.327-.782.096.89.192 4.147 1.563 4.483-.073.721-.12.77-1.515 11.178-.048.048-.42 2.909-.469 2.992ZM93.66 27.686c-2.103-.193-3.485-.914-4.675-2.705-.18-.372-.348-.745-.516-1.118-1.13-4.362 1.01-8.845 5.708-9.386 1.31 0 2.536.312 3.774.72-.024.181-.024.181-.745 2.068-.36-.036-.36-.036-1.166-.204h-1.406c-.973.24-1.634.529-2.32 1.274-1.346 1.97-1.574 4.639.481 6.226.253.12.517.24.781.36a8.093 8.093 0 0 0 3.594-.288c.252-.12.252-.12.337-.12.252.48.709 1.105.805 1.634-1.454.866-2.957 1.346-4.651 1.539ZM56.462 12.157h-.961c-2.151 0-3.906 1.238-5.096 2.92-.36.77-.529 1.287-.577 1.335-.433 1.743-.313 3.33.264 5 .854 1.635 1.78 2.5 3.462 3.149.36.06.721.132 1.094.204.757 0 1.983.096 2.632-.228 0-1.346.012-2.692.024-4.039 0-.036 0-.036-3.089-.084-.012-.853-.012-1.706-.012-2.56v-.024h6.226c0 2.849.012 5.697.024 8.558-.601.204-1.202.408-1.791.612-1.034.24-1.995.481-3.065.601-1.466.06-2.692-.072-4.098-.48-2.692-1.118-4.29-3.017-5.096-5.805-.409-2.2-.409-4.075.24-6.25.433-1.07 1.022-1.947 1.719-2.873 1.286-1.286 2.56-1.935 4.279-2.548 2.5-.54 4.891-.24 7.33.433-.287.805-.564 1.623-.84 2.44-1.635-.265-1.635-.265-2.669-.36ZM68.302 14.515c-1.543.056-3.045.648-4.607 1.271.228.613.462 1.237.703 1.862.673-.216 1.341-.43 2.026-.635.733-.168 1.589-.22 2.334-.075 1.178.505 1.223 1.442 1.271 2.595-2.127.133-4.13.17-5.945 1.384-.373.384-.798.75-1.063 1.219-.396 1.046-.348 1.919-.12 2.977.59 1.25 1.23 1.908 2.529 2.4 1.874.349 3.184-.395 4.554-1.645.025 0 .047.018.083.03.192 1.286.24 1.334.24 1.406.9 0 1.805.01 2.706.022l-.037-9.124c-.252-1.37-.683-2.299-1.825-3.104a5.985 5.985 0 0 0-2.85-.583Zm1.72 6.993c.012.757.018 1.527.03 2.296-.54.913-1.92 1.342-2.917 1.45-.685-.192-1.154-.38-1.466-1.076-.409-2.5 2.586-2.622 4.353-2.67ZM111.173 14.492c-1.491.169-2.925.672-4.271 1.31-.096.288.463 1.484.703 1.869 1.358-.505 2.499-.83 3.942-.83.048.048.042.053.523.15 1.058.552 1.048 1.44 1.144 2.557-2.596.168-6.113.145-7.194 3.09-.505 2.451.727 4.63 3.275 5.003 1.563 0 2.775-.71 3.845-1.78a.354.354 0 0 1 .112-.015c.18 1.262.178 1.263.262 1.503.877-.012 1.758-.023 2.647-.023 0-2.872-.005-5.733.008-8.593-.157-1.743-.601-2.769-2.08-3.754-.817-.325-1.171-.371-1.219-.42-.564-.023-1.132-.042-1.697-.067Zm2.019 7c0 .794.011 1.604.022 2.41-1.069.889-3.1 2.172-4.218.597-1.177-2.608 2.489-2.958 4.196-3.006Z" fill="#fff"/><path fill-rule="evenodd" clip-rule="evenodd" d="M82.664 27.349c1.01-.012 2.02-.024 3.04-.024-.167.168-2.655.024-3.04.024ZM113.518 27.349c.877-.012 1.754-.024 2.644-.024h.036c-.036.012-.072.024-.108.048-.866-.012-1.719-.024-2.572-.024ZM70.31 27.3c.9 0 1.802.013 2.704.025-2.753 0-2.753 0-2.705-.024ZM76.115 8.311c0 6.334.012 12.668.024 19.014h3.125-3.21c.013-6.346.037-12.68.06-19.014ZM100.691 27.325h3.125c-3.125.036-3.125.036-3.125 0ZM82.58 14.801V27.35c-.036 0-.036 0 0-12.548Z" fill="#000"/><path fill-rule="evenodd" clip-rule="evenodd" d="M82.578 27.349V14.8h3.088l.037 12.524c-1.022 0-2.031.012-3.04.024h-.085ZM76.111 8.311V8.24h3.15v19.086h-3.126c-.011-6.346-.024-12.68-.024-19.014ZM100.691 27.325v-12.5c1.022-.012 2.056-.024 3.089-.024l.036 12.524h-3.125Z" fill="#fff"/><path fill-rule="evenodd" clip-rule="evenodd" d="M116.16 27.325c0-2.873 0-5.733.012-8.594 0 2.86.012 5.721.024 8.594h-.036ZM60.452 26.387c-.012-2.86-.024-5.708-.024-8.557 0-.012.012-.024.024-.024v8.581Z" fill="#000"/><path fill-rule="evenodd" clip-rule="evenodd" d="M113.213 23.9c-.011-.805-.024-1.61-.024-2.404.013 0 .024.012.049.024-.012.793-.025 1.587-.025 2.38Z" fill="#EFAD84"/><path fill-rule="evenodd" clip-rule="evenodd" d="M54.18 20.414h.036c3.089.048 3.089.048 3.089.084-1.034-.012-2.068-.012-3.101-.012-.012-.024-.024-.048-.024-.072Z" fill="#EFAD7B"/><path fill-rule="evenodd" clip-rule="evenodd" d="M54.18 20.414c0-.853.012-1.706.024-2.56 0 .854 0 1.707.012 2.56h-.036Z" fill="#000"/><path fill-rule="evenodd" clip-rule="evenodd" d="M54.203 17.83c0-.036 0-.036 6.25-.024a.026.026 0 0 0-.024.024h-6.226Z" fill="#EFAD84"/><path fill-rule="evenodd" clip-rule="evenodd" d="M100.691 14.825c0-.036 0-.036 3.089-.024-1.033 0-2.067.012-3.089.024Z" fill="#000"/><path fill-rule="evenodd" clip-rule="evenodd" d="M84.046 12.025c-1.587-.192-1.995-1.9-1.01-3.005 1.563-.985 3.09.217 2.632 1.995-.408.673-.853.938-1.622 1.01ZM102.157 12.025c-1.334-.264-1.935-1.406-1.298-2.68.769-.866 1.947-.962 2.74-.036.577 1.19.216 2.211-.986 2.668-.156.012-.312.024-.456.048Z" fill="#fff"/><path fill-rule="evenodd" clip-rule="evenodd" d="M76.111 8.239a.197.197 0 0 1 .048-.084h3.053c.012.024.024.048.048.084h-3.149Z" fill="#EFAD84"/><path fill-rule="evenodd" clip-rule="evenodd" d="M1.5 1.845V1.82h16.502c-5.505 0-11.01.012-16.502.024ZM28.242 1.845c0-.036 0-.036 98.206-.024-32.74 0-65.479.012-98.206.024Z" fill="#000"/></svg>