<svg width="89" height="37" viewBox="0 0 89 37" fill="none" xmlns="http://www.w3.org/2000/svg">
<path d="M2.71438 32.3938C2.4452 32.1705 2.21037 31.9471 2.12446 31.6035C1.9641 30.9563 2.22183 30.2862 2.81747 29.8795C2.97211 29.7764 3.13248 29.6905 3.29857 29.5874C3.25275 29.4672 3.13248 29.4729 3.04657 29.4328C2.43374 29.135 1.93546 28.7169 1.66628 28.0754C1.16227 26.8612 1.50591 25.2519 2.84611 24.5016C3.66512 24.0434 4.55286 23.9231 5.48069 24.0319C5.77278 24.0663 6.04769 24.1293 6.31688 24.2438C6.52879 24.3355 6.74643 24.3126 6.95834 24.2839C7.54253 24.2095 8.12099 24.1178 8.68227 23.9231C8.76245 23.8945 8.83691 23.8658 8.92282 23.8601C9.02591 23.8487 9.11182 23.8945 9.12327 24.009C9.15191 24.2553 9.17482 24.5016 9.19773 24.7478C9.21491 24.891 9.13473 24.9254 9.01445 24.9254C8.60209 24.9254 8.18972 24.9254 7.77735 24.9254C7.67998 24.9254 7.57689 24.9082 7.48525 24.954C7.4738 25.0743 7.56544 25.1087 7.61698 25.1602C8.05799 25.584 8.25272 26.1167 8.27563 26.718C8.29854 27.1934 8.28708 27.6631 8.06944 28.1098C7.69144 28.883 7.0557 29.3469 6.25388 29.5989C5.5895 29.8051 4.90222 29.8738 4.20349 29.7707C4.15194 29.765 4.1004 29.7535 4.04885 29.7707C3.68803 29.8624 3.39021 30.4866 3.56203 30.8131C3.6823 31.0365 3.89421 31.0995 4.13476 31.1281C4.53567 31.1682 4.93659 31.1739 5.34323 31.1739C5.97324 31.1739 6.60324 31.1682 7.23325 31.1854C7.69144 31.2026 8.12672 31.3171 8.5219 31.5748C8.79109 31.7524 8.99154 31.9929 9.08891 32.2908C9.40391 33.2529 9.26073 34.1464 8.5849 34.9253C7.98926 35.6126 7.19316 35.9391 6.32833 36.1281C5.96751 36.2083 5.59523 36.2369 5.22868 36.277C4.66168 36.34 4.09467 36.2999 3.52766 36.2541C2.8862 36.2083 2.26192 36.0937 1.70064 35.7501C0.709811 35.143 0.704084 33.5794 1.63764 32.9208C1.86673 32.7604 2.11301 32.6344 2.37647 32.537C2.47956 32.4969 2.59411 32.4855 2.71438 32.3938ZM4.9595 32.6172C4.40395 32.6172 3.94003 32.6229 3.47039 32.6172C3.28139 32.6115 3.1382 32.6802 3.00075 32.8119C2.72583 33.0697 2.61129 33.3961 2.57692 33.7455C2.49674 34.5817 2.81747 35.2117 3.69376 35.4007C4.70749 35.6183 5.70405 35.5496 6.67197 35.1888C7.23898 34.9769 7.73726 34.4786 7.7258 33.671C7.71435 33.0009 7.26762 32.7031 6.75215 32.663C6.12215 32.6058 5.49214 32.6287 4.9595 32.6172ZM6.4257 26.9471C6.41424 26.7009 6.41424 26.4489 6.38561 26.2083C6.3627 26.0136 6.31115 25.8246 6.24242 25.6413C5.89305 24.7249 5.24014 24.5359 4.44404 24.7078C3.88276 24.828 3.59639 25.2633 3.44175 25.7845C3.29857 26.277 3.26993 26.781 3.31575 27.2851C3.35011 27.686 3.42457 28.0812 3.63075 28.4363C3.79112 28.7112 3.99158 28.9574 4.29513 29.0605C5.05114 29.3068 5.89305 29.1235 6.23669 28.1957C6.38561 27.7833 6.43142 27.371 6.4257 26.9471Z" fill="black"/>
<path d="M30.2745 24.9883C30.7671 24.4041 31.3513 24.112 32.0214 24.0261C33.1611 23.8772 34.2035 24.0891 35.0339 24.9539C35.5265 25.4637 35.8129 26.0994 35.956 26.781C36.208 27.9551 36.1622 29.1177 35.7327 30.2517C35.1599 31.7809 33.8312 32.7546 32.1875 32.7947C31.6204 32.8118 31.0534 32.8118 30.5036 32.6228C30.3604 32.577 30.3146 32.6343 30.3146 32.766C30.3203 33.4247 30.2917 34.089 30.3375 34.7477C30.3776 35.309 30.6353 35.5323 31.3169 35.6927C31.4658 35.7271 31.6204 35.7442 31.7751 35.7557C31.9526 35.7671 31.924 35.8874 31.9297 35.9962C31.9355 36.1165 31.9068 36.1967 31.7636 36.1967C31.3799 36.1852 30.9962 36.2024 30.6182 36.1738C29.845 36.1222 29.0718 36.1165 28.2986 36.1738C28.0409 36.1967 27.7831 36.1852 27.5254 36.191C27.4166 36.1967 27.3421 36.1623 27.3479 36.0363C27.3536 35.9218 27.302 35.7786 27.4968 35.7557C27.6972 35.7328 27.8633 35.6354 28.018 35.5037C28.3272 35.2402 28.4647 34.9195 28.4819 34.5014C28.5678 31.8096 28.4933 29.112 28.5162 26.4201C28.5162 26.1624 28.4933 25.9047 28.459 25.6469C28.396 25.1487 28.121 24.8909 27.5999 24.8394C27.5197 24.8337 27.4166 24.868 27.3765 24.7707C27.3364 24.6676 27.3364 24.5473 27.3765 24.4385C27.4109 24.3411 27.5082 24.3526 27.5884 24.3526C27.8977 24.3468 28.207 24.3297 28.5162 24.2896C28.9859 24.2323 29.4555 24.1521 29.908 24.0146C30.1943 23.9287 30.2573 23.9746 30.2573 24.2724C30.2745 24.5015 30.2745 24.7077 30.2745 24.9883ZM30.286 28.4705C30.286 29.3182 30.3032 30.1658 30.2803 31.0135C30.2688 31.3399 30.4063 31.5346 30.664 31.6893C31.042 31.9127 31.4486 31.9814 31.8782 31.9928C32.9492 32.0157 33.6365 31.4373 33.9572 30.5152C34.0889 30.1314 34.1634 29.742 34.2035 29.3353C34.2779 28.5335 34.2951 27.726 34.0947 26.9356C33.8369 25.9219 33.2585 25.2117 32.1588 25.0685C31.6204 24.9998 31.0878 25.0456 30.5953 25.3148C30.3776 25.435 30.2745 25.6011 30.2803 25.8646C30.2917 26.7351 30.286 27.6 30.286 28.4705Z" fill="black"/>
<path d="M54.2611 26.4945C54.2611 26.6091 54.2611 26.7179 54.2611 26.8324C54.2611 28.6423 54.2611 30.4464 54.2611 32.2562C54.2611 32.3192 54.2554 32.3822 54.2611 32.4395C54.2726 32.5827 54.2267 32.6457 54.0721 32.6457C53.6597 32.64 53.2474 32.64 52.835 32.6457C52.7033 32.6457 52.6403 32.6056 52.6517 32.4681C52.6574 32.4051 52.6517 32.3421 52.6517 32.2849C52.6517 29.5586 52.6517 26.8324 52.6517 24.1005C52.6517 24.0375 52.6574 23.9745 52.6517 23.9172C52.646 23.8027 52.6861 23.7511 52.8121 23.7511C53.3905 23.7568 53.969 23.7568 54.5475 23.7511C54.7136 23.7511 54.7536 23.8657 54.8166 23.963C55.3722 24.8565 55.9278 25.75 56.489 26.6434C57.1419 27.6973 57.7949 28.7454 58.4535 29.7992C58.5051 29.8851 58.5623 29.9653 58.6425 30.0856C58.6941 29.9538 58.6769 29.8507 58.6769 29.7591C58.6769 27.8691 58.6769 25.9791 58.6769 24.089C58.6769 23.7168 58.6425 23.7568 59.0091 23.7568C59.3699 23.7568 59.7307 23.7626 60.0915 23.7511C60.2404 23.7454 60.3034 23.8027 60.2863 23.9459C60.2805 23.9974 60.2863 24.0489 60.2863 24.1005C60.2863 26.8382 60.2863 29.5758 60.2863 32.3135C60.2863 32.6514 60.3378 32.6514 59.9541 32.6514C59.4558 32.6514 58.9632 32.64 58.465 32.6571C58.2473 32.6629 58.1328 32.5827 58.024 32.4051C56.8556 30.5151 55.6815 28.6365 54.5074 26.7522C54.4501 26.6606 54.3871 26.569 54.3241 26.4773C54.2955 26.4773 54.2783 26.4831 54.2611 26.4945Z" fill="black"/>
<path d="M81.054 28.2242C81.054 26.8611 81.054 25.498 81.054 24.1349C81.054 24.0605 81.0597 23.9917 81.054 23.9173C81.0425 23.7741 81.1112 23.734 81.2372 23.7455C81.2773 23.7512 81.3174 23.7455 81.3632 23.7455C82.2911 23.7455 83.2189 23.7397 84.1525 23.7455C84.7653 23.7455 85.3667 23.8085 85.9566 23.9746C87.3884 24.3869 88.2933 25.3262 88.6599 26.7638C88.9062 27.7317 88.9062 28.7111 88.6599 29.6733C88.259 31.2311 87.2395 32.1647 85.6874 32.5369C85.2349 32.6457 84.771 32.6916 84.3071 32.6973C83.3163 32.703 82.3254 32.703 81.3346 32.6973C81.0654 32.6973 81.0654 32.6916 81.0654 32.4281C81.054 31.0306 81.054 29.6274 81.054 28.2242ZM82.8524 28.2472C82.8524 29.1979 82.8524 30.1486 82.8524 31.0994C82.8524 31.2196 82.8466 31.3227 83.0242 31.317C83.6427 31.2941 84.2613 31.3456 84.8798 31.2483C86.0368 31.0707 86.6897 30.4522 86.8844 29.2953C87.0047 28.5679 86.9989 27.8348 86.8729 27.1074C86.6897 26.0421 86.0368 25.4121 84.9715 25.2231C84.3472 25.1143 83.7172 25.1658 83.0872 25.1544C82.8581 25.1487 82.8524 25.1601 82.8524 25.4007C82.8524 26.3457 82.8524 27.2964 82.8524 28.2472Z" fill="black"/>
<path d="M23.4023 31.8441C23.1847 32.0274 23.0358 32.182 22.8582 32.3023C22.3313 32.6631 21.7471 32.8406 21.1171 32.8521C20.6704 32.8636 20.2294 32.8464 19.7998 32.7261C18.998 32.5027 18.4825 31.993 18.2534 31.1912C18.1217 30.7273 18.0873 30.2576 18.0816 29.7822C18.0644 28.6253 18.0759 27.4684 18.0702 26.3115C18.0702 26.0938 18.0587 25.8819 18.0186 25.6643C17.9155 25.1202 17.7322 24.9255 17.1652 24.8567C17.0106 24.8396 16.9419 24.7995 16.9476 24.6391C16.9533 24.3928 16.9533 24.3756 17.2053 24.3699C18.0358 24.3527 18.8491 24.2611 19.6452 24.0148C19.8514 23.9518 19.9201 24.0148 19.9258 24.2382C19.9373 24.5818 19.8685 24.914 19.8685 25.2576C19.8743 26.5921 19.8685 27.9209 19.8743 29.2553C19.8743 29.6333 19.9029 30.0171 19.9774 30.3951C20.1435 31.2828 20.4756 31.6322 21.3634 31.7754C21.9762 31.8727 22.5718 31.7754 23.1274 31.4604C23.3164 31.3515 23.4023 31.2141 23.3966 30.9907C23.3851 29.5532 23.3966 28.1213 23.3909 26.6838C23.3909 26.363 23.3679 26.0423 23.3336 25.7273C23.2706 25.1717 23.0071 24.9197 22.463 24.8567C22.2397 24.8338 22.2339 24.8166 22.2339 24.5933C22.2339 24.4329 22.3084 24.3756 22.4573 24.3699C22.7952 24.3699 23.1389 24.3527 23.4768 24.3069C23.935 24.2496 24.3931 24.1752 24.8399 24.0434C24.9086 24.0205 24.9773 23.9919 25.0461 23.9919C25.1606 23.9919 25.2351 24.0377 25.2293 24.1809C25.1549 26.3688 25.2007 28.5566 25.195 30.7444C25.195 30.9506 25.2179 31.1568 25.2637 31.3573C25.3496 31.7238 25.5959 31.9128 25.951 31.9873C26.0025 31.9987 26.0541 31.9987 26.1056 32.0045C26.2545 32.0216 26.3175 32.0904 26.3118 32.2507C26.3118 32.4225 26.2144 32.4626 26.077 32.4684C26.0025 32.4741 25.9338 32.4741 25.8593 32.4741C25.1377 32.4913 24.4218 32.5829 23.7288 32.8063C23.4768 32.8865 23.4138 32.8349 23.408 32.5715C23.3966 32.3538 23.4023 32.1362 23.4023 31.8441Z" fill="black"/>
<path d="M78.1422 26.9588C78.1422 27.8064 78.1422 28.6541 78.1422 29.5017C78.1422 29.8625 78.1078 30.2234 78.0276 30.5785C77.7814 31.6724 77.1113 32.3654 76.0402 32.6518C74.9635 32.9381 73.8696 32.9267 72.7986 32.6117C71.6646 32.2795 71.0288 31.5006 70.8226 30.3436C70.7654 30.0172 70.7539 29.685 70.7539 29.3585C70.7539 27.5945 70.7539 25.8248 70.7539 24.0607C70.7539 23.9977 70.7539 23.9347 70.7539 23.8775C70.7539 23.7858 70.8055 23.7515 70.8914 23.7515C71.3954 23.7515 71.9051 23.7515 72.4091 23.7515C72.5179 23.7515 72.558 23.7973 72.5523 23.9004C72.5466 23.9748 72.5523 24.0436 72.5523 24.118C72.5523 25.8019 72.5523 27.4857 72.5523 29.1695C72.5523 29.4788 72.558 29.7881 72.6267 30.0916C72.7699 30.7617 73.1537 31.197 73.8467 31.3345C74.2762 31.4204 74.7115 31.4261 75.1411 31.3402C75.857 31.197 76.2693 30.7617 76.4068 30.0344C76.4583 29.7594 76.4755 29.4845 76.4755 29.2039C76.4755 27.5029 76.4755 25.7961 76.4755 24.0951C76.4755 23.7228 76.4412 23.7572 76.802 23.7572C77.1743 23.7572 77.5465 23.7572 77.9188 23.7572C78.1536 23.7572 78.1536 23.7629 78.1536 23.9977C78.1422 24.9771 78.1422 25.9679 78.1422 26.9588Z" fill="black"/>
<path d="M41.2246 32.8006C40.7206 32.8292 40.0964 32.7089 39.5064 32.4397C38.5271 31.9873 37.92 31.2141 37.5935 30.2003C37.3988 29.5875 37.3129 28.9518 37.3472 28.3103C37.3988 27.3825 37.6164 26.5005 38.1319 25.7044C38.6817 24.8567 39.4492 24.3241 40.4285 24.1007C41.2246 23.9174 42.0265 23.9174 42.8168 24.1351C44.0253 24.473 44.8558 25.2405 45.2624 26.426C45.7779 27.9209 45.692 29.3985 44.9474 30.8017C44.3919 31.8555 43.4984 32.497 42.3186 32.7261C42.0093 32.7948 41.6886 32.7948 41.2246 32.8006ZM43.6702 28.3103C43.6874 28.0526 43.653 27.6803 43.5958 27.3138C43.5156 26.7697 43.3953 26.237 43.1204 25.7559C42.6908 24.9999 42.0837 24.6792 41.3449 24.7479C40.5202 24.8281 39.9589 25.2977 39.6382 26.048C39.3862 26.6322 39.3003 27.2565 39.2659 27.8865C39.2373 28.4134 39.243 28.9403 39.3232 29.4615C39.4148 30.0457 39.5351 30.6242 39.8558 31.1282C40.2968 31.8212 40.8982 32.1247 41.6542 32.0274C42.4503 31.93 42.9887 31.4661 43.2865 30.7215C43.5843 29.9884 43.6645 29.2095 43.6702 28.3103Z" fill="black"/>
<path d="M65.1892 32.812C64.4504 32.8063 63.723 32.7261 63.03 32.4569C62.7322 32.3366 62.7265 32.3366 62.8238 32.0388C62.9212 31.7353 63.0186 31.4317 63.1159 31.1282C63.1904 30.8991 63.1961 30.8934 63.4023 30.9793C64.0953 31.2599 64.817 31.3401 65.5615 31.3C65.7677 31.2885 65.9739 31.2485 66.1686 31.1797C66.8731 30.922 67.0449 30.0744 66.4951 29.5532C66.329 29.3985 66.1342 29.2783 65.9223 29.1866C65.5844 29.0377 65.2408 28.8945 64.8971 28.7456C64.4905 28.5738 64.0896 28.3791 63.7345 28.1041C62.9212 27.4684 62.6921 26.615 62.841 25.6414C62.9842 24.7021 63.5741 24.1179 64.4504 23.8086C65.2007 23.5452 65.9739 23.5509 66.7471 23.6311C67.211 23.6826 67.6634 23.7857 68.0987 23.9518C68.3335 24.0435 68.3335 24.0435 68.2763 24.2783C68.1961 24.599 68.1159 24.9197 68.03 25.2347C67.9784 25.4295 67.9727 25.4295 67.7837 25.3493C67.1022 25.0744 66.3977 24.9598 65.6589 25.0228C65.4412 25.04 65.2293 25.0916 65.0346 25.1947C64.542 25.4467 64.4103 26.0022 64.7368 26.4547C64.88 26.6551 65.0804 26.7811 65.2866 26.8957C65.6073 27.0675 65.9452 27.1935 66.2774 27.3252C66.6726 27.4799 67.0621 27.646 67.4229 27.8693C68.5741 28.6024 69.0036 30.0113 68.4538 31.2656C68.2018 31.8441 67.7551 32.2278 67.1823 32.4741C66.644 32.7147 66.0025 32.8235 65.1892 32.812Z" fill="black"/>
<path d="M13.0977 24.9827C13.4471 24.6219 13.8079 24.3183 14.2661 24.158C14.8675 23.9461 15.4803 23.9002 16.0759 24.1809C16.4711 24.3642 16.5227 24.5131 16.368 24.9197C16.2363 25.2691 16.1046 25.6127 15.9786 25.9621C15.9385 26.0766 15.8869 26.1625 15.7437 26.1625C15.6006 26.1683 15.5261 26.111 15.4631 25.985C15.1366 25.3149 14.5754 25.166 13.974 25.2462C13.7621 25.2748 13.5502 25.3263 13.3554 25.4294C13.2237 25.4982 13.1493 25.5784 13.1607 25.7387C13.1722 25.9334 13.1607 26.1339 13.1607 26.3286C13.1607 27.7032 13.1607 29.0778 13.1607 30.4523C13.1607 30.7387 13.1779 31.0308 13.218 31.3171C13.2638 31.6665 13.4299 31.9071 13.7392 32.0674C13.9568 32.1762 14.1802 32.2392 14.415 32.2736C14.5639 32.2965 14.6613 32.3366 14.6498 32.5199C14.6384 32.7203 14.5009 32.6803 14.3864 32.6803C13.5158 32.6745 12.651 32.6631 11.7804 32.6631C11.3451 32.6631 10.9156 32.6745 10.4803 32.6917C10.3829 32.6974 10.2799 32.7261 10.2684 32.5886C10.2569 32.4741 10.2111 32.3309 10.3772 32.2736C10.4918 32.2335 10.6063 32.1877 10.7151 32.1247C11.0989 31.8899 11.2707 31.5462 11.3165 31.0995C11.3967 30.2977 11.3566 29.4901 11.3623 28.6826C11.368 27.938 11.3566 27.1935 11.368 26.4489C11.3738 26.1797 11.3394 25.9105 11.305 25.6471C11.242 25.1774 10.9671 24.9197 10.4517 24.8567C10.2913 24.8395 10.2455 24.7823 10.2283 24.6333C10.2054 24.41 10.2226 24.3813 10.4459 24.3699C11.2535 24.3355 12.0496 24.2496 12.8228 24.0148C13.0347 23.9518 13.0977 24.0033 13.1034 24.2382C13.1034 24.4844 13.0977 24.7364 13.0977 24.9827Z" fill="black"/>
<path d="M49.61 28.2357C49.61 29.6103 49.61 30.9848 49.61 32.3537C49.61 32.64 49.61 32.64 49.3236 32.64C48.8883 32.64 48.4588 32.64 48.0235 32.64C47.7772 32.64 47.7715 32.6343 47.7715 32.3766C47.7715 31.3457 47.7715 30.309 47.7715 29.2781C47.7715 27.5198 47.7715 25.7672 47.7715 24.0089C47.7715 23.7397 47.7772 23.7397 48.0464 23.7397C48.4931 23.7397 48.9341 23.7397 49.3809 23.7397C49.61 23.7397 49.6157 23.7455 49.6157 23.986C49.61 25.4064 49.61 26.8211 49.61 28.2357Z" fill="black"/>
<path d="M45.125 10.9221C48.6874 10.9221 52.1983 10.9221 55.7206 10.9221C55.6576 11.0023 55.5717 11.0138 55.4915 11.0424C52.9829 11.8671 50.4743 12.6919 47.9715 13.5223C47.8283 13.5681 47.7309 13.5739 47.6164 13.4536C46.826 12.6518 46.0242 11.8557 45.2338 11.0596C45.2052 11.0309 45.1823 10.9966 45.125 10.9221Z" fill="black"/>
<path d="M44.6116 10.9163C44.5772 11.0537 44.4799 11.1053 44.4111 11.1797C43.6952 11.8956 42.9736 12.6058 42.2691 13.3332C42.0801 13.5279 41.9312 13.5737 41.6563 13.4878C39.5372 12.7776 37.4123 12.0846 35.2875 11.3859C34.9324 11.2714 34.583 11.1511 34.2337 11.0365C34.1592 11.0136 34.0905 10.985 34.0332 10.922C37.5498 10.9163 41.0721 10.9163 44.6116 10.9163Z" fill="black"/>
<path d="M44.9766 21.661C44.9766 18.1501 44.9766 14.6392 44.9766 11.1227C45.0797 11.1169 45.114 11.1857 45.1598 11.2372C45.9273 12.0047 46.689 12.7721 47.4622 13.5339C47.5882 13.6541 47.6226 13.7572 47.5653 13.9348C46.7349 16.4262 45.9158 18.929 45.0968 21.4204C45.0682 21.5063 45.0396 21.5865 45.0109 21.6724C44.9995 21.6667 44.988 21.661 44.9766 21.661Z" fill="black"/>
<path d="M44.9707 10.5326C44.9707 7.01026 44.9707 3.51659 44.9707 0C45.0623 0.0859101 45.0738 0.189003 45.1024 0.28064C45.9157 2.74912 46.729 5.21188 47.548 7.68036C47.611 7.86364 47.6053 7.98964 47.4506 8.13855C46.6946 8.87165 45.9558 9.62193 45.2113 10.3665C45.1482 10.4238 45.1024 10.5097 44.9707 10.5326Z" fill="black"/>
<path d="M44.5181 1.44887C44.5465 1.36238 44.5748 1.2759 44.6032 1.18946C44.6579 1.02276 44.7125 0.856179 44.7671 0.689722C44.7717 3.87061 44.7718 7.05714 44.7718 10.2622L44.5181 1.44887ZM44.5181 1.44887C44.2614 2.23158 44.0037 3.01639 43.7434 3.8011C43.3083 5.12362 42.8728 6.4474 42.4258 7.76563C42.4007 7.84105 42.4035 7.8691 42.4056 7.87923C42.4072 7.88684 42.4138 7.91236 42.4677 7.96647C42.9442 8.43222 43.4154 8.90383 43.8856 9.37449C44.0977 9.58683 44.3097 9.79897 44.5218 10.0103C44.5218 7.1449 44.5216 4.2942 44.5181 1.44887ZM44.5218 10.3629C44.2492 10.0922 43.978 9.82074 43.7069 9.54939C43.2373 9.07931 42.7679 8.60951 42.2919 8.14419C42.143 7.99527 42.1258 7.875 42.1888 7.686L44.5218 10.3629Z" fill="white" stroke="black" stroke-width="0.5"/>
<path d="M44.209 11.9705C44.3112 11.8681 44.4134 11.7657 44.5156 11.6634V11.6729V11.6934V11.7139V11.7344V11.7549V11.7754V11.7959V11.8164V11.8369V11.8574V11.8779V11.8984V11.9189V11.9394V11.9599V11.9804V12.0009V12.0214V12.0419V12.0624V12.0829V12.1034V12.1239V12.1444V12.1649V12.1854V12.2059V12.2264V12.2469V12.2674V12.2879V12.3083V12.3288V12.3493V12.3698V12.3903V12.4108V12.4313V12.4518V12.4723V12.4928V12.5133V12.5338V12.5543V12.5748V12.5953V12.6158V12.6363V12.6568V12.6773V12.6978V12.7183V12.7388V12.7593V12.7798V12.8003V12.8208V12.8413V12.8618V12.8823V12.9028V12.9233V12.9438V12.9642V12.9847V13.0052V13.0257V13.0462V13.0667V13.0872V13.1077V13.1282V13.1487V13.1692V13.1897V13.2102V13.2307V13.2512V13.2717V13.2922V13.3127V13.3332V13.3537V13.3742V13.3946V13.4151V13.4356V13.4561V13.4766V13.4971V13.5176V13.5381V13.5586V13.5791V13.5996V13.6201V13.6406V13.6611V13.6816V13.7021V13.7226V13.743V13.7635V13.784V13.8045V13.825V13.8455V13.866V13.8865V13.907V13.9275V13.948V13.9685V13.989V14.0095V14.03V14.0505V14.0709V14.0914V14.1119V14.1324V14.1529V14.1734V14.1939V14.2144V14.2349V14.2554V14.2759V14.2964V14.3169V14.3374V14.3579V14.3783V14.3988V14.4193V14.4398V14.4603V14.4808V14.5013V14.5218V14.5423V14.5628V14.5833V14.6038V14.6243V14.6448V14.6652V14.6857V14.7062V14.7267V14.7472V14.7677V14.7882V14.8087V14.8292V14.8497V14.8702V14.8907V14.9112V14.9317V14.9522V14.9726V14.9931V15.0136V15.0341V15.0546V15.0751V15.0956V15.1161V15.1366V15.1571V15.1776V15.1981V15.2186V15.2391V15.2596V15.28V15.3005V15.321V15.3415V15.362V15.3825V15.403V15.4235V15.444V15.4645V15.485V15.5055V15.526V15.5465V15.567V15.5875V15.6079V15.6284V15.6489V15.6694V15.6899V15.7104V15.7309V15.7514V15.7719V15.7924V15.8129V15.8334V15.8539V15.8744V15.8949V15.9154V15.9359V15.9563V15.9768V15.9973V16.0178V16.0383V16.0588V16.0793V16.0998V16.1203V16.1408V16.1613V16.1818V16.2023V16.2228V16.2433V16.2638V16.2843V16.3048V16.3253V16.3458V16.3663V16.3868V16.4072V16.4277V16.4482V16.4687V16.4892V16.5097V16.5302V16.5507V16.5712V16.5917V16.6122V16.6327V16.6532V16.6737V16.6942V16.7147V16.7352V16.7557V16.7762V16.7967V16.8172V16.8377V16.8582V16.8787V16.8992V16.9197V16.9402V16.9607V16.9812V17.0017V17.0222V17.0427V17.0632V17.0837V17.1042V17.1247V17.1452V17.1657V17.1861V17.2066V17.2271V17.2476V17.2681V17.2886V17.3091V17.3296V17.3501V17.3706V17.3911V17.4116V17.4321V17.4526V17.4731V17.4936V17.5141V17.5346V17.5551V17.5757V17.5962V17.6167V17.6372V17.6577V17.6782V17.6987V17.7192V17.7397V17.7602V17.7807V17.8012V17.8217V17.8422V17.8627V17.8832V17.9037V17.9242V17.9447V17.9652V17.9857V18.0062V18.0267V18.0472V18.0677V18.0882V18.1087V18.1292V18.1497V18.1702V18.1907V18.2112V18.2317V18.2522V18.2728V18.2933V18.3138V18.3343V18.3548V18.3753V18.3958V18.4163V18.4368V18.4573V18.4778V18.4983V18.5188V18.5393V18.5598V18.5803V18.6009V18.6214V18.6419V18.6624V18.6829V18.7034V18.7239V18.7444V18.7649V18.7854V18.8059V18.8264V18.847V18.8675V18.888V18.9085V18.929V18.9495V18.97V18.9905V19.011V19.0315V19.0521V19.0726V19.0931V19.1136V19.1341V19.1546V19.1751V19.1956V19.2162V19.2367V19.2572V19.2777V19.2982V19.3187V19.3392V19.3597V19.3803V19.4008V19.4213V19.4418V19.4623V19.4828V19.5033V19.5239V19.5444V19.5649V19.5854V19.6059V19.6264V19.6469V19.6675V19.688V19.7085V19.729V19.7495V19.77V19.7906V19.8111V19.8316V19.8521V19.8726V19.8932V19.9137V19.9342V19.9547V19.9752V19.9957V20.0163V20.0368V20.0573V20.0778V20.0983V20.1189V20.1394V20.1599V20.1804V20.201V20.2215V20.242V20.2426C44.2276 19.3669 43.9395 18.4917 43.6514 17.6166C43.2391 16.3637 42.8267 15.1109 42.4144 13.8567L42.4144 13.8567L42.414 13.8557C42.4042 13.8262 42.399 13.8066 42.3964 13.7923C42.3953 13.7867 42.3949 13.7827 42.3947 13.7801C42.3972 13.7766 42.4024 13.7701 42.4123 13.7607L42.4123 13.7607L42.4154 13.7577C43.0174 13.1642 43.6132 12.5673 44.209 11.9705Z" fill="white" stroke="black" stroke-width="0.5"/>
<path d="M43.7215 10.1249C43.8355 10.2386 43.9494 10.3523 44.0631 10.4659H44.0619H44.0414H44.0209H44.0004H43.9798H43.9593H43.9388H43.9183H43.8978H43.8773H43.8567H43.8362H43.8157H43.7952H43.7747H43.7542H43.7337H43.7131H43.6926H43.6721H43.6516H43.6311H43.6106H43.5901H43.5696H43.5491H43.5286H43.5081H43.4876H43.467H43.4465H43.426H43.4055H43.385H43.3645H43.344H43.3235H43.303H43.2825H43.262H43.2415H43.221H43.2005H43.18H43.1595H43.139H43.1185H43.0981H43.0776H43.0571H43.0366H43.0161H42.9956H42.9751H42.9546H42.9341H42.9136H42.8931H42.8726H42.8522H42.8317H42.8112H42.7907H42.7702H42.7497H42.7292H42.7087H42.6883H42.6678H42.6473H42.6268H42.6063H42.5859H42.5654H42.5449H42.5244H42.5039H42.4834H42.463H42.4425H42.422H42.4015H42.3811H42.3606H42.3401H42.3196H42.2992H42.2787H42.2582H42.2377H42.2173H42.1968H42.1763H42.1558H42.1354H42.1149H42.0944H42.074H42.0535H42.033H42.0126H41.9921H41.9716H41.9512H41.9307H41.9102H41.8898H41.8693H41.8488H41.8284H41.8079H41.7874H41.767H41.7465H41.7261H41.7056H41.6851H41.6647H41.6442H41.6238H41.6033H41.5828H41.5624H41.5419H41.5215H41.501H41.4805H41.4601H41.4396H41.4192H41.3987H41.3783H41.3578H41.3374H41.3169H41.2965H41.276H41.2556H41.2351H41.2146H41.1942H41.1737H41.1533H41.1328H41.1124H41.0919H41.0715H41.0511H41.0306H41.0102H40.9897H40.9693H40.9488H40.9284H40.9079H40.8875H40.867H40.8466H40.8262H40.8057H40.7853H40.7648H40.7444H40.7239H40.7035H40.6831H40.6626H40.6422H40.6217H40.6013H40.5809H40.5604H40.54H40.5195H40.4991H40.4787H40.4582H40.4378H40.4173H40.3969H40.3765H40.356H40.3356H40.3152H40.2947H40.2743H40.2539H40.2334H40.213H40.1926H40.1721H40.1517H40.1313H40.1108H40.0904H40.07H40.0495H40.0291H40.0087H39.9883H39.9678H39.9474H39.927H39.9065H39.8861H39.8657H39.8453H39.8248H39.8044H39.784H39.7636H39.7431H39.7227H39.7023H39.6818H39.6614H39.641H39.6206H39.6001H39.5797H39.5593H39.5389H39.5185H39.498H39.4776H39.4572H39.4368H39.4163H39.3959H39.3755H39.3551H39.3347H39.3142H39.2938H39.2734H39.253H39.2326H39.2121H39.1917H39.1713H39.1509H39.1305H39.1101H39.0896H39.0692H39.0488H39.0284H39.008H38.9876H38.9671H38.9467H38.9263H38.9059H38.8855H38.8651H38.8446H38.8242H38.8038H38.7834H38.763H38.7426H38.7222H38.7017H38.6813H38.6609H38.6405H38.6201H38.5997H38.5793H38.5589H38.5384H38.518H38.4976H38.4772H38.4568H38.4364H38.416H38.3956H38.3752H38.3548H38.3343H38.3139H38.2935H38.2731H38.2527H38.2323H38.2119H38.1915H38.1711H38.1507H38.1303H38.1099H38.0894H38.069H38.0486H38.0282H38.0078H37.9874H37.967H37.9466H37.9262H37.9058H37.8854H37.865H37.8446H37.8242H37.8038H37.7834H37.7629H37.7425H37.7221H37.7017H37.6813H37.6609H37.6405H37.6201H37.5997H37.5793H37.5589H37.5385H37.5181H37.4977H37.4773H37.4569H37.4365H37.4161H37.3957H37.3753H37.3549H37.3345H37.3141H37.2937H37.2733H37.2529H37.2325H37.2121H37.1917H37.1713H37.1509H37.1305H37.1101H37.0897H37.0693H37.0489H37.0285H37.0081H36.9877H36.9673H36.9469H36.9265H36.9061H36.8857H36.8653H36.8449H36.8245H36.8041H36.7837H36.7633H36.7429H36.7225H36.7021H36.6817H36.6613H36.6409H36.6205H36.6001H36.5797H36.5593H36.5389H36.5185H36.4981H36.4777H36.4573H36.4369H36.4165H36.3961H36.3757H36.3553H36.3349H36.3145H36.2941H36.2737H36.2533H36.2329H36.2125H36.1921H36.1717H36.1513H36.1309H36.1105H36.0901H36.0697H36.0493H36.0289H36.0085H35.9881H35.9677H35.9473H35.9269H35.9065H35.8861H35.8657H35.8453H35.8249H35.8045H35.7841H35.7637H35.7433H35.7229H35.7025H35.6821H35.6617H35.6413H35.6209H35.6005H35.5801H35.5597H35.5394H35.519H35.4986H35.4899L41.8812 8.36467L41.8822 8.36435C41.9251 8.35006 41.9431 8.34886 41.948 8.34886C41.9481 8.34892 41.9482 8.34899 41.9483 8.34906C41.9516 8.35098 41.9613 8.35735 41.9772 8.37405L41.9772 8.37407L41.9802 8.37709C42.5567 8.96224 43.1399 9.54441 43.7215 10.1249Z" fill="white" stroke="black" stroke-width="0.5"/>
<path d="M48.0005 8.39977C50.0892 9.09224 52.1723 9.77907 54.2609 10.4658H54.2453H54.2248H54.2044H54.1839H54.1635H54.143H54.1226H54.1022H54.0817H54.0613H54.0408H54.0204H53.9999H53.9795H53.959H53.9386H53.9181H53.8977H53.8772H53.8568H53.8364H53.8159H53.7955H53.775H53.7546H53.7341H53.7137H53.6932H53.6728H53.6523H53.6319H53.6114H53.591H53.5705H53.5501H53.5296H53.5092H53.4887H53.4683H53.4478H53.4274H53.4069H53.3865H53.366H53.3456H53.3252H53.3047H53.2843H53.2638H53.2434H53.2229H53.2025H53.182H53.1616H53.1411H53.1207H53.1002H53.0798H53.0593H53.0389H53.0184H52.998H52.9775H52.9571H52.9366H52.9162H52.8957H52.8753H52.8548H52.8344H52.8139H52.7935H52.773H52.7526H52.7321H52.7117H52.6912H52.6708H52.6503H52.6299H52.6094H52.5889H52.5685H52.548H52.5276H52.5071H52.4867H52.4662H52.4458H52.4253H52.4049H52.3844H52.364H52.3435H52.3231H52.3026H52.2822H52.2617H52.2413H52.2208H52.2004H52.1799H52.1595H52.139H52.1186H52.0981H52.0777H52.0572H52.0367H52.0163H51.9958H51.9754H51.9549H51.9345H51.914H51.8936H51.8731H51.8527H51.8322H51.8118H51.7913H51.7709H51.7504H51.73H51.7095H51.6891H51.6686H51.6481H51.6277H51.6072H51.5868H51.5663H51.5459H51.5254H51.505H51.4845H51.4641H51.4436H51.4232H51.4027H51.3823H51.3618H51.3413H51.3209H51.3004H51.28H51.2595H51.2391H51.2186H51.1982H51.1777H51.1573H51.1368H51.1164H51.0959H51.0755H51.055H51.0345H51.0141H50.9936H50.9732H50.9527H50.9323H50.9118H50.8914H50.8709H50.8505H50.83H50.8096H50.7891H50.7686H50.7482H50.7277H50.7073H50.6868H50.6664H50.6459H50.6255H50.605H50.5846H50.5641H50.5436H50.5232H50.5027H50.4823H50.4618H50.4414H50.4209H50.4005H50.38H50.3596H50.3391H50.3187H50.2982H50.2777H50.2573H50.2368H50.2164H50.1959H50.1755H50.155H50.1346H50.1141H50.0937H50.0732H50.0528H50.0323H50.0118H49.9914H49.9709H49.9505H49.93H49.9096H49.8891H49.8687H49.8482H49.8278H49.8073H49.7869H49.7664H49.7459H49.7255H49.705H49.6846H49.6641H49.6437H49.6232H49.6028H49.5823H49.5619H49.5414H49.521H49.5005H49.4801H49.4596H49.4391H49.4187H49.3982H49.3778H49.3573H49.3369H49.3164H49.296H49.2755H49.2551H49.2346H49.2142H49.1937H49.1733H49.1528H49.1323H49.1119H49.0914H49.071H49.0505H49.0301H49.0096H48.9892H48.9687H48.9483H48.9278H48.9074H48.8869H48.8665H48.846H48.8256H48.8051H48.7847H48.7642H48.7437H48.7233H48.7028H48.6824H48.6619H48.6415H48.621H48.6006H48.5801H48.5597H48.5392H48.5188H48.4983H48.4779H48.4574H48.437H48.4165H48.3961H48.3756H48.3552H48.3347H48.3143H48.2938H48.2734H48.2529H48.2325H48.212H48.1916H48.1711H48.1507H48.1302H48.1098H48.0893H48.0689H48.0484H48.028H48.0075H47.987H47.9666H47.9461H47.9257H47.9052H47.8848H47.8643H47.8439H47.8234H47.803H47.7825H47.7621H47.7417H47.7212H47.7008H47.6803H47.6599H47.6394H47.619H47.5985H47.5781H47.5576H47.5372H47.5167H47.4963H47.4758H47.4554H47.4349H47.4145H47.394H47.3736H47.3531H47.3327H47.3122H47.2918H47.2713H47.2509H47.2304H47.21H47.1895H47.1691H47.1486H47.1282H47.1078H47.0873H47.0669H47.0464H47.026H47.0055H46.9851H46.9646H46.9442H46.9237H46.9033H46.8828H46.8624H46.8419H46.8215H46.8011H46.7806H46.7602H46.7397H46.7193H46.6988H46.6784H46.6579H46.6375H46.617H46.5966H46.5762H46.5557H46.5353H46.5148H46.4944H46.4739H46.4535H46.433H46.4126H46.3922H46.3717H46.3513H46.3308H46.3104H46.2899H46.2695H46.249H46.2286H46.2082H46.1877H46.1673H46.1468H46.1264H46.1059H46.0855H46.0651H46.0446H46.0242H46.0037H45.9833H45.9629H45.9424H45.922H45.9015H45.8811H45.8606H45.8402H45.8198H45.7993H45.7789H45.7584H45.738H45.7246C45.8272 10.3635 45.9299 10.2612 46.0327 10.1588C46.6093 9.58438 47.1875 9.00825 47.7557 8.42294C47.8051 8.37384 47.8306 8.37061 47.8427 8.36942C47.8687 8.36687 47.9089 8.37218 48.0005 8.39977Z" fill="white" stroke="black" stroke-width="0.5"/>
</svg>
