<svg width="89" height="37" fill="none" xmlns="http://www.w3.org/2000/svg"><path d="M2.714 32.394c-.269-.224-.504-.447-.59-.79-.16-.648.098-1.318.693-1.724.155-.104.315-.19.482-.293-.046-.12-.167-.114-.252-.154-.613-.298-1.112-.716-1.38-1.358-.505-1.214-.161-2.823 1.18-3.573.818-.459 1.706-.579 2.634-.47.292.034.567.097.836.212.212.091.43.069.641.04.585-.075 1.163-.166 1.724-.36.08-.03.155-.058.24-.064.104-.011.19.035.201.149.029.246.052.493.075.739.017.143-.063.177-.184.177H7.777c-.097 0-.2-.017-.292.029-.011.12.08.155.132.206.441.424.636.957.659 1.558.023.475.011.945-.207 1.392-.378.773-1.013 1.237-1.815 1.489a4.595 4.595 0 0 1-2.05.172c-.052-.006-.104-.018-.155 0-.361.091-.659.716-.487 1.042.12.224.332.287.573.315.4.04.802.046 1.208.046.63 0 1.26-.006 1.89.011.458.018.894.132 1.289.39.27.177.47.418.567.716.315.962.172 1.855-.504 2.634-.596.688-1.392 1.014-2.257 1.203-.36.08-.733.109-1.1.149-.566.063-1.133.023-1.7-.023-.642-.046-1.266-.16-1.827-.504-.991-.607-.997-2.17-.063-2.83.229-.16.475-.286.738-.383.104-.04.218-.051.338-.143Zm2.246.223c-.556 0-1.02.006-1.49 0a.615.615 0 0 0-.47.195c-.274.258-.389.584-.423.934-.08.836.24 1.466 1.117 1.655a5.23 5.23 0 0 0 2.978-.212c.567-.212 1.065-.71 1.054-1.518-.012-.67-.458-.968-.974-1.008-.63-.057-1.26-.034-1.792-.046Zm1.466-5.67c-.012-.246-.012-.498-.04-.739a2.423 2.423 0 0 0-.144-.567c-.349-.916-1.002-1.105-1.798-.933-.561.12-.848.555-1.002 1.077a4.028 4.028 0 0 0-.126 1.5c.034.401.109.796.315 1.151.16.275.36.521.664.625.756.246 1.598.063 1.942-.865.149-.413.194-.825.189-1.249ZM30.274 24.988c.493-.584 1.077-.876 1.747-.962 1.14-.149 2.182.063 3.013.928.492.51.779 1.145.922 1.827.252 1.174.206 2.337-.223 3.47-.573 1.53-1.902 2.504-3.545 2.544-.568.017-1.135.017-1.684-.172-.144-.046-.19.011-.19.143.006.659-.022 1.323.023 1.982.04.561.298.784.98.945.149.034.303.051.458.063.178.011.149.131.155.24.006.12-.023.2-.166.2-.384-.01-.768.006-1.146-.022a16.49 16.49 0 0 0-2.32 0c-.257.023-.515.011-.773.017-.108.006-.183-.029-.177-.155.006-.114-.046-.257.149-.28.2-.023.366-.12.521-.252.31-.264.447-.584.464-1.003.086-2.691.011-5.389.034-8.08 0-.259-.023-.516-.057-.774-.063-.498-.338-.756-.86-.808-.08-.005-.182.029-.223-.068a.474.474 0 0 1 0-.332c.035-.098.132-.086.212-.086.31-.006.619-.023.928-.063.47-.058.94-.138 1.392-.275.286-.086.35-.04.35.257.017.23.017.436.017.716Zm.012 3.483c0 .847.017 1.695-.006 2.543-.011.326.126.52.384.675.378.224.785.292 1.214.304 1.071.023 1.758-.556 2.08-1.478a5.15 5.15 0 0 0 .245-1.18c.075-.802.092-1.609-.108-2.4-.258-1.013-.837-1.723-1.936-1.866-.539-.07-1.071-.023-1.564.246a.554.554 0 0 0-.315.55c.012.87.006 1.735.006 2.606ZM54.261 26.494V32.257c0 .063-.006.126 0 .184.012.143-.034.206-.189.206a44.751 44.751 0 0 0-1.237 0c-.132 0-.195-.04-.183-.178.005-.063 0-.126 0-.183V24.1c0-.063.005-.127 0-.184-.006-.114.034-.166.16-.166.579.006 1.157.006 1.736 0 .166 0 .206.115.269.212.555.893 1.11 1.787 1.672 2.68a941.588 941.588 0 0 0 1.965 3.156c.051.086.108.166.188.287.052-.132.035-.235.035-.327v-5.67c0-.372-.035-.332.332-.332.36 0 .722.006 1.083-.006.148-.006.211.052.194.195-.005.051 0 .103 0 .154v8.213c0 .338.052.338-.332.338-.498 0-.99-.011-1.489.006-.218.006-.332-.074-.441-.252-1.168-1.89-2.343-3.768-3.517-5.653-.057-.091-.12-.183-.183-.275a.103.103 0 0 0-.063.017ZM81.054 28.224v-4.09c0-.073.006-.142 0-.217-.011-.143.057-.183.183-.172.04.006.08 0 .126 0 .928 0 1.856-.005 2.79 0 .612 0 1.214.063 1.804.23 1.431.412 2.336 1.351 2.703 2.789a5.82 5.82 0 0 1 0 2.91c-.401 1.557-1.42 2.49-2.973 2.863a6.225 6.225 0 0 1-1.38.16c-.99.006-1.982.006-2.972 0-.27 0-.27-.005-.27-.269-.011-1.397-.011-2.8-.011-4.204Zm1.798.023V31.1c0 .12-.005.224.172.218.619-.023 1.237.029 1.856-.069 1.157-.177 1.81-.796 2.004-1.953.12-.727.115-1.46-.011-2.188-.183-1.065-.836-1.695-1.901-1.884-.625-.109-1.255-.057-1.885-.069-.229-.005-.235.006-.235.247v2.846ZM23.402 31.844c-.217.183-.366.338-.544.458a3.12 3.12 0 0 1-1.74.55c-.448.012-.889-.006-1.318-.126-.802-.223-1.317-.733-1.547-1.535-.131-.464-.166-.933-.171-1.409-.018-1.157-.006-2.314-.012-3.47 0-.218-.011-.43-.051-.648-.103-.544-.287-.739-.854-.807-.154-.017-.223-.058-.217-.218.005-.246.005-.263.257-.27.83-.016 1.644-.108 2.44-.354.206-.063.275 0 .28.223.012.344-.056.676-.056 1.02.005 1.334 0 2.663.005 3.997 0 .378.029.762.103 1.14.166.888.499 1.237 1.386 1.38.613.098 1.209 0 1.764-.315.19-.108.275-.246.27-.47-.012-1.437 0-2.869-.006-4.306 0-.321-.023-.642-.057-.957-.063-.555-.327-.807-.871-.87-.223-.023-.23-.04-.23-.264 0-.16.075-.217.224-.223.338 0 .682-.017 1.02-.063a8.545 8.545 0 0 0 1.363-.264c.069-.023.137-.051.206-.051.115 0 .19.046.183.189-.074 2.188-.028 4.376-.034 6.563 0 .207.023.413.069.613.086.367.332.556.687.63.052.012.103.012.155.018.148.017.211.085.206.246 0 .172-.098.212-.235.217-.075.006-.143.006-.218.006-.721.017-1.437.109-2.13.332-.252.08-.315.029-.321-.234-.011-.218-.006-.436-.006-.728ZM78.142 26.959v2.543c0 .36-.034.721-.114 1.076-.247 1.094-.917 1.787-1.988 2.074a5.939 5.939 0 0 1-3.241-.04c-1.134-.333-1.77-1.111-1.976-2.268a5.706 5.706 0 0 1-.07-.986V23.878c0-.092.052-.127.138-.127h1.518c.109 0 .149.046.143.15-.005.074 0 .143 0 .217v5.052c0 .309.006.618.075.922.143.67.527 1.105 1.22 1.242.43.086.865.092 1.294.006.716-.143 1.128-.578 1.266-1.306a4.48 4.48 0 0 0 .069-.83v-5.109c0-.372-.035-.338.326-.338h1.117c.235 0 .235.006.235.24-.012.98-.012 1.97-.012 2.962ZM41.225 32.8c-.504.03-1.129-.091-1.719-.36-.979-.453-1.586-1.226-1.913-2.24a5.29 5.29 0 0 1-.246-1.89c.052-.927.27-1.81.785-2.606a3.594 3.594 0 0 1 2.297-1.603 4.817 4.817 0 0 1 2.388.034c1.208.338 2.039 1.105 2.445 2.291.516 1.495.43 2.973-.315 4.376-.555 1.053-1.449 1.695-2.628 1.924-.31.069-.63.069-1.094.075Zm2.445-4.49c.017-.257-.017-.63-.074-.996-.08-.544-.2-1.077-.476-1.558-.43-.756-1.036-1.077-1.775-1.008-.825.08-1.386.55-1.707 1.3-.252.584-.338 1.209-.372 1.839a7.621 7.621 0 0 0 .057 1.575c.092.584.212 1.162.533 1.666.44.693 1.042.997 1.798.9.796-.098 1.335-.562 1.632-1.306.298-.734.378-1.513.384-2.412ZM65.19 32.812c-.74-.006-1.467-.086-2.16-.355-.298-.12-.303-.12-.206-.418l.292-.91c.074-.23.08-.236.286-.15.693.28 1.415.361 2.16.321.206-.012.412-.052.607-.12.704-.258.876-1.106.326-1.627a1.997 1.997 0 0 0-.573-.366c-.338-.15-.681-.293-1.025-.441-.407-.172-.807-.367-1.163-.642-.813-.636-1.042-1.489-.893-2.463.143-.939.733-1.523 1.61-1.832.75-.264 1.523-.258 2.296-.178.464.052.916.155 1.352.32.234.093.234.093.177.327-.08.321-.16.642-.246.957-.052.195-.057.195-.246.114a4.56 4.56 0 0 0-2.125-.326c-.218.017-.43.069-.624.172-.493.252-.625.807-.298 1.26.143.2.343.326.55.44.32.172.658.299.99.43.396.155.785.321 1.146.544a2.694 2.694 0 0 1 1.03 3.397c-.251.578-.698.962-1.27 1.208-.539.24-1.18.35-1.994.338ZM13.098 24.983c.35-.361.71-.665 1.168-.825.601-.212 1.214-.258 1.81.023.395.183.447.332.292.739-.132.35-.263.693-.39 1.042-.04.115-.091.2-.234.2-.143.006-.218-.051-.28-.177-.327-.67-.889-.819-1.49-.739-.212.029-.424.08-.619.183-.131.07-.206.15-.194.31.011.194 0 .395 0 .59v4.123c0 .287.017.579.057.865.046.35.212.59.521.75.218.11.441.172.676.207.149.023.246.063.235.246-.012.2-.15.16-.264.16-.87-.005-1.735-.017-2.606-.017-.435 0-.864.012-1.3.029-.097.005-.2.034-.212-.103-.011-.115-.057-.258.11-.315.114-.04.228-.086.337-.15.384-.234.556-.578.601-1.025.08-.801.04-1.609.046-2.416.006-.745-.005-1.49.006-2.234a5.327 5.327 0 0 0-.063-.802c-.063-.47-.338-.727-.853-.79-.16-.017-.207-.075-.224-.224-.023-.223-.005-.252.218-.263.808-.035 1.604-.12 2.377-.355.212-.063.275-.012.28.223 0 .246-.005.498-.005.745ZM49.61 28.236v4.118c0 .286 0 .286-.286.286h-1.3c-.247 0-.252-.006-.252-.263v-8.369c0-.268.005-.268.274-.268h1.335c.229 0 .235.006.235.246-.006 1.42-.006 2.835-.006 4.25ZM45.125 10.922h10.596c-.063.08-.15.092-.23.12-2.508.825-5.017 1.65-7.52 2.48-.143.046-.24.052-.355-.068-.79-.802-1.592-1.598-2.382-2.394-.029-.03-.052-.063-.109-.138ZM44.612 10.916c-.035.138-.132.19-.2.264-.717.716-1.438 1.426-2.143 2.153-.189.195-.338.24-.613.155-2.119-.71-4.244-1.403-6.368-2.102-.356-.115-.705-.235-1.054-.35a.418.418 0 0 1-.2-.114c3.516-.006 7.038-.006 10.578-.006ZM44.977 21.661V11.123c.103-.006.137.063.183.114.767.768 1.529 1.535 2.302 2.297.126.12.16.223.103.4-.83 2.492-1.65 4.995-2.468 7.486l-.086.252a.081.081 0 0 0-.034-.011ZM44.97 10.533V0c.092.086.104.189.132.28a3740.82 3740.82 0 0 0 2.446 7.4c.063.184.057.31-.097.459-.756.733-1.495 1.483-2.24 2.228-.063.057-.109.143-.24.166Z" fill="#000"/><path d="m44.518 1.449.085-.26.164-.5c.005 3.182.005 6.368.005 9.573l-.254-8.813Zm0 0c-.257.783-.514 1.567-.775 2.352-.435 1.323-.87 2.646-1.317 3.965-.025.075-.023.103-.02.113.001.008.008.033.062.087.476.466.947.938 1.418 1.408l.636.636c0-2.865 0-5.716-.004-8.561Zm.004 8.914c-.273-.27-.544-.542-.815-.814-.47-.47-.94-.94-1.415-1.405-.149-.149-.166-.269-.103-.458l2.333 2.677ZM44.209 11.97l.307-.307V20.242l-.865-2.625-1.237-3.76v-.001a.485.485 0 0 1-.02-.076.14.14 0 0 1 .018-.02l.003-.002c.602-.594 1.198-1.19 1.794-1.787ZM43.721 10.125l.342.34H35.49l6.392-2.1h.001a.236.236 0 0 1 .066-.016.143.143 0 0 1 .03.025l.002.003c.577.585 1.16 1.167 1.742 1.748ZM48 8.4c2.09.692 4.172 1.38 6.26 2.066H45.726l.308-.307c.576-.575 1.154-1.15 1.723-1.736.05-.05.075-.052.087-.054A.45.45 0 0 1 48 8.4Z" fill="#fff" stroke="#000" stroke-width=".5"/></svg>