<svg width="119" height="32" fill="none" xmlns="http://www.w3.org/2000/svg"><path d="M47.98 0H16.018v31.962H47.98V0Z" fill="#fff"/><path d="M63.96 16.019 47.978 0v32L63.96 16.019Z" fill="#000"/><path d="M31.999 16.019 47.979 0H16.019l15.98 16.019ZM-.002 16.019l16.019 15.98V0L-.002 16.019ZM31.999 16.019 16.018 32H47.98L31.999 16.02ZM77.985 16.959h-5.79v5.715h-2.896V9.288h2.895v5.49h5.791v-5.49h2.895v13.386h-2.895V16.96ZM87.876 22.938c-2.895 0-5.264-1.166-5.302-4.362h2.896c.037 1.429.865 2.293 2.444 2.293 1.165 0 2.52-.601 2.52-1.917 0-1.053-.903-1.354-2.407-1.805l-.978-.263c-2.106-.602-4.212-1.43-4.212-3.836 0-2.97 2.783-3.986 5.302-3.986 2.595 0 4.851.903 4.889 3.873h-2.896c-.113-1.203-.827-1.917-2.18-1.917-1.091 0-2.144.564-2.144 1.767 0 .978.902 1.278 2.783 1.88l1.128.339c2.294.714 3.76 1.504 3.76 3.76-.038 3.008-2.97 4.174-5.603 4.174ZM95.094 9.325h4.663c.864-.037 1.767 0 2.632.15 1.617.377 2.857 1.43 2.857 3.235 0 1.73-1.09 2.594-2.669 3.008 1.805.338 3.158 1.24 3.158 3.234 0 3.045-3.008 3.722-5.339 3.722h-5.265l-.037-13.349Zm4.663 5.566c1.278 0 2.594-.264 2.594-1.805 0-1.392-1.203-1.768-2.406-1.768h-2.031v3.572h1.843Zm.263 5.79c1.353 0 2.669-.3 2.669-1.955 0-1.654-1.128-1.955-2.519-1.955h-2.294v3.91h2.144ZM113.258 22.938c-4.325 0-6.242-2.745-6.242-6.844s2.143-7.07 6.392-7.07c2.67 0 5.264 1.204 5.34 4.212h-3.009c-.15-1.354-1.052-2.03-2.331-2.03-2.632 0-3.422 2.82-3.422 4.963 0 2.143.79 4.625 3.309 4.625 1.316 0 2.294-.714 2.482-2.068h3.008c-.301 3.084-2.745 4.212-5.527 4.212Z" fill="#000"/></svg>