<svg width="113" height="44" fill="none" xmlns="http://www.w3.org/2000/svg"><path d="M88.275 23.437c-.182-2.43-1.723-4.092-4.003-4.391-1.564-.204-3.047.012-4.42 1.258.3-1.196-.412-1.108-1.075-1.083-.173.006-.35.024-.519-.002-.822-.132-1.02.236-1.014 1.019.037 3.799.01 7.6.018 11.398.003 1.823-.235 1.584 1.587 1.645.755.026 1.026-.138 1.023-.976-.009-2.732-.183-5.468.102-8.192.2-1.904 1.326-2.887 3.128-2.845 1.591.036 2.464 1 2.605 2.924.178 2.414.05 4.832.075 7.249.02 1.963.003 1.95 1.967 1.833.432-.026.627-.156.62-.607-.048-3.075.135-6.156-.094-9.23ZM54.186 26.59c-.291-.468-.254-.784.021-1.225a317.652 317.652 0 0 0 3.212-5.301c.13-.22.428-.46.09-.745-.45-.378-2.405-.017-2.708.5-.75 1.283-1.494 2.568-2.299 3.954-.617-1.07-1.278-1.984-1.698-2.998-.551-1.332-1.432-1.758-2.804-1.57-.843.116-.936.164-.502.895 1.012 1.703 2.009 3.417 3.07 5.089.385.608.416 1.063.018 1.684-1.173 1.838-2.27 3.725-3.408 5.587-.356.58-.223.746.458.835 1.333.17 2.271-.192 2.726-1.535.098-.293.309-.547.47-.82.51-.867 1.022-1.735 1.572-2.666.72 1.244 1.477 2.314 1.986 3.49.56 1.289 1.396 1.705 2.737 1.525.895-.12.988-.167.523-.946-1.143-1.925-2.279-3.854-3.464-5.753ZM100.174 31.957c.168-.153.456-.298.38-.532-.212-.65-.772-1.06-1.273-1.461-.36-.289-.594.204-.841.4-2.234 1.773-4.728 1.053-5.57-1.663-.532-1.717-.544-3.464.093-5.162.838-2.23 3.04-2.956 5.062-1.708 1.336.824 1.32.81 2.319-.443.357-.449.31-.732-.142-1.052-1.208-.85-2.517-1.37-3.9-1.34-2.525-.02-4.498 1.131-5.524 3.313-1.171 2.491-1.22 5.091-.19 7.615 1.596 3.91 6.466 4.903 9.586 2.033ZM61.439 33.276c.611.017.784-.213.776-.806-.032-2.07-.013-4.139-.013-6.21 0-1.783.01-3.566-.003-5.347-.014-1.93.278-1.632-1.688-1.707-.8-.03-.947.272-.94.997.033 3.766-.003 7.532.021 11.298.016 2.068-.406 1.714 1.847 1.774ZM77.634 3.57C77.443 2.048 76.64.934 75.161.374c-.197-.173-.43-.221-.684-.197-.98-.331-1.896-.166-2.763.363-1.123.497-1.847 1.579-2.992 2.045l-1.51.223c-.976-.084-1.79-.558-2.584-1.08-.64-.668-1.315-1.287-2.253-1.51-.687-.238-1.378-.322-2.075-.036-1.561.213-2.902 1.588-3.133 3.214-.268 1.891.563 3.501 2.195 4.248.603.402 1.273.514 1.984.463 1.181-.021 2.123-.55 2.923-1.383 1.06-.855 2.209-1.471 3.632-1.363l1.507.553c.914.579 1.544 1.555 2.645 1.87.542.281 1.116.399 1.725.32.842-.025 1.612-.243 2.251-.82 1.29-.91 1.797-2.187 1.605-3.712ZM60.882 15.394c.988.002 1.76-.765 1.743-1.733a1.74 1.74 0 0 0-1.78-1.717c-.915.02-1.708.809-1.72 1.709-.012.945.79 1.74 1.757 1.74ZM88.277.743c-.423-.235-.774-.719-1.358-.39-.098-.41-.416-.317-.698-.305-.615-.065-1.21-.026-1.758.304-.65.15-1.135.545-1.553 1.039-1.441 2.028-1.368 4.021.198 5.536.505.58 1.125.947 1.897 1.033.384.206.79.2 1.204.142a3.34 3.34 0 0 0 2.075-.7c2.425-1.701 2.422-4.989-.007-6.66Zm-3.1-.39h-.061c.002-.004.005-.006.007-.008-.078-.063.072-.024.053.007ZM75.426 39.15c-.591-.29-1.239-.269-1.785.172-.212.17-.292.19-.534.002-.63-.49-1.306-.508-1.938.048-.097.012-.238.133-.278-.023-.049-.191-.095-.317-.327-.283-.247.036-.22.221-.22.389-.004 1.06-.004 2.121-.004 3.182 0 .235-.002.501.333.477.328-.024.28-.306.284-.529.005-.4.008-.803 0-1.204-.014-.634-.04-1.268.435-1.783 1.142-.381 1.513-.11 1.52 1.115.004.63-.005 1.262.005 1.893.004.181-.072.446.227.465.373.022.278-.287.286-.491.03-.744-.007-1.496.08-2.232.07-.608.471-.981 1.131-.928.665.056.826.532.835 1.096.01.687-.004 1.377.008 2.066.004.18-.077.46.211.477.344.02.296-.282.299-.498.007-.66-.007-1.32.004-1.98.01-.565-.014-1.155-.572-1.43ZM95.902 5.761c1.086-.205 1.693-.99 1.529-1.978-.16-.959-1.049-1.55-2.072-1.375-1.08.271-1.546.94-1.39 1.999.13.895.913 1.442 1.933 1.354Zm.16-2.741a2.666 2.666 0 0 0-.112.188v-.026c-.008-.283.028-.454.023-.563.126.083.234.181.09.4ZM62.582 37.536c-.833-.007-1.666.01-2.498-.007-.373-.009-.508.134-.5.5.016.747.006 1.493.006 2.24l.001 2.411c0 .208.012.422.31.394.238-.022.23-.218.231-.383.005-.546.024-1.092-.005-1.636-.024-.44.114-.624.578-.596.572.034 1.15.008 1.723 0 .135-.002.306.001.304-.208-.002-.2-.168-.212-.304-.216-.487-.01-.981-.053-1.463.002-.697.081-.935-.195-.835-.858.03-.198.028-.405 0-.602-.065-.48.17-.582.596-.561.601.03 1.206.019 1.809 0 .199-.007.529.133.558-.202.026-.34-.297-.277-.511-.278ZM92.657 42.7c-.63.013-.561-.438-.564-.837-.006-.544.012-1.09-.006-1.634-.014-.403-.02-.757.55-.693.15.017.276-.074.267-.257-.005-.137-.1-.221-.22-.206-.605.081-.628-.287-.6-.729.012-.181.066-.45-.24-.45-.361 0-.271.305-.271.512-.002.351.056.717-.491.662-.126-.012-.21.073-.21.207 0 .173.101.275.265.263.515-.036.429.325.43.63.002.344 0 .688.002 1.034.002.4-.007.803.002 1.204.014.672.48.767 1.009.767.148 0 .288-.038.32-.216.037-.189-.084-.261-.243-.258ZM104.209 37.532c-.448.043-.79.263-.873.76-.059.361.116.816-.556.809-.233-.002-.185.41.024.41.682.004.504.47.51.834.012.744-.004 1.49.007 2.237.003.204-.085.513.288.485.299-.022.219-.287.223-.468.01-.774.002-1.548.007-2.322.003-.349-.13-.79.496-.746.159.012.241-.124.226-.292-.014-.155-.14-.18-.247-.171-.372.033-.52-.116-.48-.494.032-.328.146-.546.511-.561.162-.007.382.027.358-.235-.026-.287-.27-.232-.494-.246ZM65.26 39.05c-.435-.023-.863.892-1.254.011-.27-.007-.352.114-.352.318-.002 1.118-.004 2.234-.004 3.351 0 .225.075.408.342.384.211-.02.265-.187.267-.373.001-.517.025-1.033-.002-1.546-.045-.826.262-1.393 1.095-1.597.207-.05.42-.08.385-.35-.041-.303-.292-.187-.477-.197ZM79.62 37.959c0-.17.003-.37-.229-.394-.32-.033-.278.226-.278.413a691.124 691.124 0 0 0 0 4.644c0 .188-.046.456.252.444.275-.013.251-.265.253-.463.003-.774.001-1.548.001-2.322.002-.774.004-1.548 0-2.322ZM100.696 38.038c-.001-.217.049-.507-.312-.475-.284.026-.24.282-.24.47a627.436 627.436 0 0 0-.002 4.55c0 .217-.04.512.312.477.273-.026.239-.28.241-.473.005-.772.001-1.544.003-2.318 0-.743.004-1.488-.002-2.23ZM101.857 39.07c-.25-.005-.261.169-.262.343-.004.572-.002 1.144-.002 1.716 0 .515-.004 1.03.002 1.544.001.197-.014.429.292.4.238-.025.221-.225.221-.388a590.35 590.35 0 0 0 0-3.26c0-.172 0-.35-.251-.355ZM101.853 37.546c-.304-.004-.261.242-.263.432-.001.162-.036.356.215.385.3.035.314-.162.307-.378-.014-.19.042-.436-.259-.44Z" fill="#000"/><path d="M41.258 19.52c-.817.058-1.503.462-2.3.863 0-1.51-.02-2.913.011-4.315.012-.52-.13-.72-.674-.686-.716.045-1.442.06-2.157-.002-.74-.066-.905.216-.9.92.03 4.893.015 9.787.015 14.683v.786c-1.834-4.593-3.519-9.192-5.23-13.78-.318-.855-.365-2.05-1.075-2.457-.698-.4-1.79-.083-2.704-.15-.594-.043-.846.174-1.048.727-1.348 3.69-2.735 7.366-4.112 11.048-.585 1.563-1.174 3.125-1.764 4.688-.134-2.196-.141-4.351-.13-6.508a8.878 8.878 0 0 0-.386-2.722c-.503-1.607-1.538-2.704-3.234-2.996-1.762-.304-3.452-.065-4.887 1.096-.437.352-.658.304-1.032-.071-.78-.786-1.746-1.145-2.881-1.137-1.125.009-2.006.59-3.08 1.2.27-1.098-.398-.972-.99-.963-.691.008-1.382.015-2.073-.002-.418-.01-.629.095-.627.577.014 4.06.015 8.12-.002 12.18-.002.493.21.566.62.554.691-.021 1.39-.066 2.072.01.84.092 1.052-.206 1.048-1.035-.012-2.444-.152-4.894.078-7.335.109-1.159.7-1.674 1.776-1.717 1.214-.048 1.809.411 2.033 1.622.083.45.123.914.126 1.37.012 2.13.02 4.262-.003 6.392-.005.5.093.732.66.698.803-.048 1.613-.04 2.417 0 .506.024.637-.163.621-.641-.03-.949-.03-1.9-.005-2.85.045-1.668-.159-3.341.133-4.998.206-1.166.79-1.617 1.973-1.596 1.099.02 1.66.516 1.833 1.658.064.425.091.858.093 1.287.009 2.13.02 4.262-.005 6.392-.007.54.116.763.715.751 1.957-.036 3.916-.034 5.874-.001.503.008.71-.178.852-.624.295-.928.646-1.84.955-2.764.116-.344.288-.496.677-.49 1.755.022 3.512.024 5.269 0 .423-.006.601.158.724.538.29.9.639 1.781.926 2.683.15.475.38.667.91.658a155.91 155.91 0 0 1 5.615-.001c.57.008 1.055.013 1.083-.747 2.556 1.804 6.528 1.016 7.518-3.007.539-2.194.49-4.395-.292-6.532-.82-2.246-2.698-3.415-5.036-3.253Zm-15.886 6.068 1.817-5.18c.627 1.782 1.178 3.345 1.726 4.909.026.076.026.16.043.271h-3.586Zm17.419 3.265c-.317.883-1.196 1.221-2.217 1.004-1.105-.235-1.612-.814-1.612-1.847v-3.186c.002-.98.475-1.566 1.455-1.803.95-.23 1.812.07 2.197.9.747 1.607.767 3.282.177 4.932ZM111.902 22.147c-1.652-3.64-6.722-4.312-9.249-1.215-1.795 2.201-1.98 4.779-1.512 7.436.313 1.772 1.094 3.329 2.671 4.351 2.266 1.469 5.613.94 7.947-.708.262-.185.167-.361.057-.587-.707-1.441-.859-1.498-2.251-.781-.23.117-.46.238-.698.335-2.597 1.068-4.958-.378-5.216-3.167-.041-.456.062-.61.532-.6 1.294.025 2.59.008 3.884.01 1.237.001 2.475-.03 3.711.013.613.023.818-.233.837-.79.052-1.483-.096-2.936-.713-4.297Zm-2.308 2.893h-2.759c-.891 0-1.781-.005-2.672.004-.315.003-.569.005-.512-.444.334-2.62 2.137-3.858 4.348-3.156 1.108.35 2.113 1.985 2.087 3.218-.008.411-.229.38-.492.378ZM74.323 30.64c-.373-.64-.725-.685-1.287-.263-.316.238-.698.4-1.067.554-2.706 1.122-4.917-.19-5.31-3.097-.077-.556.1-.629.566-.622 1.266.02 2.532.007 3.799.007 1.266 0 2.532-.016 3.799.008.483.01.706-.112.772-.646.095-.787-.005-1.55-.097-2.318-.344-2.873-2.265-4.96-4.785-5.23-2.973-.32-5.314 1.2-6.288 4.104-.64 1.907-.667 3.849-.16 5.778.633 2.398 2.001 4.155 4.587 4.571 1.747.282 3.434-.032 4.984-.938 1.45-.848 1.292-.535.487-1.909Zm-7.675-5.978c.181-1.544 1.054-3.5 3.369-3.403 1.653.07 3.183 1.762 3.082 3.433-.026.428-.287.345-.53.347-.92.005-1.84.002-2.763.002-.893 0-1.785.003-2.678-.002-.247 0-.534.069-.48-.377ZM87.52 39.246c-.793-.484-1.575-.318-2.365.292 0-.54.014-.966-.005-1.39-.01-.23.116-.604-.29-.583-.38.019-.26.384-.261.613-.01 1.318-.007 2.637-.005 3.955 0 .647.002.639.656.639.097 0 .189.12.29.17 1.06.52 2.046.294 2.543-.581.557-.982.285-2.599-.563-3.115Zm-.981 3.538c-.791.026-1.368-.657-1.384-1.641-.017-1.047.537-1.745 1.375-1.731.77.012 1.261.648 1.27 1.638.009 1.065-.46 1.71-1.261 1.734ZM106.869 38.992c-1.018-.062-1.703.449-1.945 1.444-.27 1.116.145 2.24.965 2.62.883.41 1.933.134 2.348-.631.1-.184.335-.441.114-.6-.297-.214-.416.109-.563.323-.442.64-1.126.82-1.703.45-.41-.265-.74-.685-.621-1.14.097-.369.595-.125.911-.175.167-.028.344-.006.516-.006.403 0 .805-.007 1.208.002.292.007.39-.117.408-.41.055-.946-.695-1.82-1.638-1.877Zm.725 1.797c-.71-.01-1.418-.004-2.194-.004.177-.755.467-1.294 1.217-1.36.622-.053 1.017.298 1.238.87.109.283.175.499-.261.493ZM83.773 42.578c-.166-.164-.117-.375-.119-.57-.007-.518.005-1.035-.005-1.553-.02-1.1-.423-1.48-1.54-1.467-.637.002-1.209.137-1.502.786-.08.175-.204.406.045.526.233.112.324-.07.426-.275.332-.674.91-.712 1.543-.517.344.107.492.361.484.726-.009.394-.303.472-.583.506-.513.064-1.034.078-1.52.273-.478.192-.705.558-.682 1.083.022.522.266.89.757 1.035.473.14.979.176 1.425-.078.338-.193.608-.452.967-.017.104.126.413.142.551-.04.213-.28-.126-.299-.247-.418Zm-1.34.033c-.2.1-.437.131-.607.178-.483-.052-.857-.185-.946-.667-.09-.482.252-.66.621-.79.189-.067.393-.141.586-.132.335.015.819-.36.976.055.206.553-.069 1.074-.63 1.356ZM67.723 38.992c-1.175.01-1.9.798-1.912 2.078-.012 1.304.751 2.142 1.947 2.135 1.166-.007 1.896-.806 1.902-2.083.005-1.34-.72-2.14-1.937-2.13Zm.009 3.785c-.786-.007-1.377-.722-1.38-1.669-.004-.97.649-1.736 1.447-1.702.769.035 1.339.774 1.327 1.723-.012.964-.6 1.655-1.394 1.648ZM95.391 38.976c-1.205-.026-1.964.77-1.986 2.079-.023 1.318.708 2.145 1.9 2.152 1.185.009 1.97-.834 1.966-2.11-.002-1.233-.767-2.096-1.88-2.12Zm-.095 3.808c-.78-.02-1.337-.73-1.332-1.7.006-.981.564-1.67 1.355-1.672.793-.002 1.43.79 1.408 1.743-.023.931-.653 1.65-1.43 1.629Z" fill="#000"/></svg>