<svg width="113" height="44" viewBox="0 0 113 44" fill="none" xmlns="http://www.w3.org/2000/svg">
<path d="M88.2746 23.4374C88.0932 21.0067 86.5522 19.3449 84.2719 19.046C82.7085 18.8422 81.2245 19.0581 79.8529 20.3036C80.1517 19.1082 79.44 19.1963 78.7766 19.2205C78.6039 19.2274 78.4277 19.2447 78.2584 19.2188C77.4361 19.0875 77.2374 19.4554 77.2443 20.238C77.2806 24.0368 77.2547 27.8374 77.2616 31.6362C77.265 33.4587 77.0266 33.2203 78.8492 33.2808C79.6041 33.3067 79.8753 33.1426 79.8719 32.3047C79.8632 29.5735 79.6888 26.8371 79.9738 24.1128C80.1742 22.2091 81.3005 21.2261 83.1024 21.2676C84.6934 21.3039 85.5658 22.2678 85.7075 24.1923C85.8854 26.6056 85.7576 29.0242 85.7817 31.441C85.8025 33.4035 85.7852 33.3914 87.7494 33.2739C88.1813 33.248 88.3765 33.1184 88.3696 32.6675C88.3212 29.5925 88.5043 26.5106 88.2746 23.4374Z" fill="black"/>
<path d="M54.1864 26.5901C53.8945 26.1219 53.9325 25.8058 54.2072 25.3652C55.3007 23.6118 56.3597 21.8376 57.4186 20.0635C57.5499 19.8441 57.8471 19.604 57.5085 19.3189C57.0593 18.9406 55.1037 19.3016 54.8014 19.8199C54.0517 21.1017 53.3071 22.387 52.5021 23.7725C51.8854 22.7031 51.2237 21.7893 50.8039 20.7752C50.2529 19.4433 49.3718 19.0166 48.0002 19.2049C47.1571 19.3206 47.0639 19.369 47.4975 20.0997C48.5098 21.8031 49.5066 23.5168 50.5673 25.189C50.9525 25.7971 50.9836 26.2515 50.5863 26.8734C49.4133 28.7115 48.3163 30.5979 47.1779 32.4602C46.822 33.0406 46.955 33.2065 47.6357 33.2946C48.9693 33.4656 49.9074 33.1028 50.3617 31.7605C50.4602 31.4669 50.6709 31.2129 50.8316 30.94C51.3429 30.0727 51.8543 29.2055 52.4036 28.2744C53.124 29.5182 53.8807 30.5876 54.3903 31.764C54.95 33.0527 55.7861 33.4691 57.1267 33.2894C58.0215 33.1685 58.1148 33.1218 57.6501 32.3427C56.5065 30.4183 55.3715 28.4886 54.1864 26.5901Z" fill="black"/>
<path d="M100.174 31.9574C100.342 31.8037 100.63 31.6586 100.554 31.4253C100.342 30.7741 99.7821 30.3646 99.2811 29.9639C98.9218 29.6754 98.6868 30.1677 98.4398 30.3646C96.2061 32.1371 93.7116 31.4167 92.8703 28.701C92.3382 26.9839 92.3261 25.2374 92.9635 23.5392C93.8014 21.309 96.0023 20.5834 98.0252 21.8307C99.3606 22.6547 99.345 22.6409 100.344 21.3884C100.701 20.9393 100.654 20.656 100.202 20.3364C98.9943 19.4864 97.6849 18.9664 96.3029 18.9958C93.7772 18.9751 91.8044 20.1273 90.7782 22.3092C89.607 24.8003 89.5586 27.4002 90.5882 29.9241C92.1844 33.8335 97.0543 34.8268 100.174 31.9574Z" fill="black"/>
<path d="M61.4389 33.2755C62.0504 33.2927 62.2232 33.063 62.2145 32.4704C62.1834 30.4009 62.2024 28.3313 62.2024 26.26C62.2024 24.4772 62.2128 22.6944 62.199 20.9133C62.1852 18.9837 62.4771 19.2808 60.5112 19.2065C59.7113 19.1754 59.5645 19.4777 59.5714 20.2033C59.6042 23.9693 59.568 27.7353 59.5921 31.5013C59.6077 33.5691 59.1862 33.215 61.4389 33.2755Z" fill="black"/>
<path d="M77.6344 3.57077C77.4426 2.0471 76.6393 0.932842 75.1606 0.373124C74.9636 0.200372 74.7304 0.152001 74.4765 0.176187C73.497 -0.155498 72.5814 0.0103444 71.7142 0.538967C70.5913 1.03649 69.8674 2.11792 68.7221 2.58436C68.2194 2.65864 67.7149 2.73292 67.2122 2.80721C66.2362 2.72256 65.4225 2.24922 64.6279 1.7275C63.9887 1.05895 63.3132 0.440498 62.3752 0.217647C61.6876 -0.0207511 60.9966 -0.1054 60.3004 0.181369C58.7387 0.393854 57.3982 1.76896 57.1667 3.39456C56.8989 5.2862 57.7299 6.89626 59.3624 7.64255C59.9653 8.04506 60.6355 8.15735 61.3456 8.10552C62.5272 8.08479 63.4687 7.55617 64.2685 6.7235C65.3292 5.86838 66.478 5.25165 67.9015 5.36049C68.4042 5.54533 68.9052 5.72845 69.4079 5.91329C70.3218 6.49201 70.9523 7.46807 72.0528 7.78248C72.5952 8.06406 73.1687 8.18153 73.7785 8.10379C74.6199 8.07788 75.3903 7.86021 76.0295 7.28322C77.3182 6.37282 77.8261 5.09618 77.6344 3.57077Z" fill="black"/>
<path d="M60.882 15.3939C61.8702 15.3957 62.6424 14.6287 62.6251 13.6612C62.6078 12.6886 61.8132 11.9216 60.8457 11.9441C59.9302 11.9648 59.1372 12.7526 59.1251 13.6526C59.113 14.5976 59.9146 15.3922 60.882 15.3939Z" fill="black"/>
<path d="M88.2771 0.74279C87.8539 0.507847 87.5032 0.0241406 86.9193 0.35237C86.8208 -0.057053 86.503 0.0362332 86.2214 0.0483259C85.6064 -0.01732 85.0104 0.0224131 84.4628 0.35237C83.8132 0.502665 83.3278 0.89654 82.9097 1.39061C81.469 3.41873 81.5415 5.41229 83.1084 6.92733C83.6128 7.50778 84.233 7.87401 85.0052 7.96039C85.3887 8.16596 85.7947 8.16078 86.2093 8.10204C86.978 8.09686 87.6725 7.87401 88.2841 7.4024C90.7095 5.70078 90.706 2.41331 88.2771 0.74279ZM85.1762 0.35237C85.1572 0.35237 85.1365 0.35237 85.1158 0.35237C85.1175 0.348915 85.121 0.347187 85.1227 0.34546C85.0449 0.281542 85.1952 0.321275 85.1762 0.35237Z" fill="black"/>
<path d="M75.4257 39.1509C74.8349 38.8607 74.187 38.8814 73.6411 39.3219C73.4287 39.4929 73.3492 39.5119 73.1073 39.3236C72.4768 38.8347 71.8013 38.8157 71.1691 39.372C71.0723 39.3841 70.9307 39.505 70.8909 39.3495C70.8425 39.1578 70.7959 39.0317 70.5644 39.0662C70.3174 39.1025 70.3433 39.2874 70.3433 39.4549C70.3398 40.5156 70.3398 41.5763 70.3398 42.637C70.3398 42.872 70.3381 43.138 70.6733 43.1138C71.0015 43.0896 70.9531 42.808 70.9566 42.5852C70.9617 42.1844 70.9652 41.7819 70.9566 41.3811C70.9427 40.7471 70.9168 40.1131 71.3919 39.5983C72.5338 39.2165 72.9052 39.4877 72.9121 40.7126C72.9156 41.3431 72.9069 41.9754 72.9173 42.6059C72.9208 42.7873 72.8448 43.0516 73.1436 43.0706C73.5168 43.0931 73.4217 42.7839 73.4304 42.58C73.4597 41.8355 73.4235 41.084 73.5098 40.3481C73.5807 39.74 73.9815 39.3668 74.6414 39.4204C75.3065 39.4757 75.4671 39.9525 75.4758 40.5156C75.4861 41.2032 75.4723 41.8925 75.4844 42.5817C75.4879 42.7614 75.4067 43.0413 75.6952 43.0585C76.0389 43.0793 75.9906 42.777 75.994 42.561C76.0009 41.9011 75.9871 41.2412 75.9975 40.5813C76.0079 40.0164 75.9837 39.4256 75.4257 39.1509Z" fill="black"/>
<path d="M95.9017 5.76126C96.9883 5.55569 97.5947 4.77139 97.4306 3.78325C97.2717 2.82447 96.382 2.23366 95.3593 2.40814C94.2796 2.67936 93.8131 3.34791 93.9686 4.40688C94.0999 5.30174 94.8825 5.84936 95.9017 5.76126ZM96.0624 3.01968C96.0209 3.08187 95.9846 3.14579 95.9501 3.20798C95.9501 3.19934 95.9501 3.19071 95.9501 3.18207C95.9415 2.89875 95.9777 2.72773 95.9726 2.61889C96.0987 2.70182 96.2075 2.80028 96.0624 3.01968Z" fill="black"/>
<path d="M62.5816 37.5356C61.749 37.5287 60.9163 37.546 60.0836 37.5287C59.7105 37.52 59.5757 37.6634 59.5844 38.0297C59.5999 38.776 59.5896 39.5222 59.5896 40.2685C59.5913 41.0718 59.5896 41.8769 59.5913 42.6802C59.5913 42.8875 59.6034 43.1017 59.9005 43.074C60.1389 43.0516 60.1303 42.8564 60.132 42.6905C60.1372 42.1446 60.1562 41.5987 60.1268 41.0546C60.1026 40.6158 60.2408 40.4309 60.7055 40.4586C61.2773 40.4931 61.8543 40.4672 62.4279 40.4586C62.5626 40.4568 62.7336 40.4603 62.7319 40.2513C62.7302 40.0509 62.5643 40.0388 62.4279 40.0353C61.9407 40.025 61.4466 39.9818 60.9647 40.037C60.2685 40.1182 60.0301 39.8418 60.1303 39.1785C60.1596 38.9815 60.1579 38.7742 60.1303 38.5773C60.0646 38.097 60.2996 37.9951 60.7263 38.0158C61.3274 38.0452 61.9321 38.0349 62.535 38.0158C62.7336 38.0089 63.0636 38.1489 63.093 37.8137C63.1189 37.4734 62.7958 37.5373 62.5816 37.5356Z" fill="black"/>
<path d="M92.6574 42.6993C92.0268 42.7131 92.0959 42.2622 92.0925 41.8632C92.0873 41.319 92.1046 40.7731 92.0873 40.2289C92.0735 39.8264 92.0665 39.4723 92.6366 39.5362C92.7869 39.5535 92.913 39.4619 92.9044 39.2788C92.8992 39.1423 92.8042 39.0577 92.6833 39.0732C92.0786 39.1544 92.0562 38.7864 92.0838 38.3442C92.0959 38.1628 92.1495 37.8933 91.8437 37.8933C91.4826 37.8933 91.5725 38.1991 91.5725 38.4064C91.5707 38.7571 91.6295 39.1233 91.0819 39.068C90.9557 39.0559 90.8711 39.1406 90.8711 39.2753C90.8728 39.4481 90.973 39.55 91.1371 39.5379C91.6519 39.5016 91.5656 39.8627 91.5673 40.1685C91.569 40.5122 91.5673 40.856 91.569 41.2015C91.5707 41.6023 91.5621 42.0048 91.5707 42.4056C91.5846 43.0776 92.051 43.1726 92.5796 43.1726C92.7282 43.1726 92.8681 43.1346 92.8992 42.9567C92.9372 42.7684 92.8163 42.6958 92.6574 42.6993Z" fill="black"/>
<path d="M104.209 37.5322C103.761 37.5754 103.419 37.7948 103.336 38.2923C103.277 38.6534 103.452 39.1077 102.78 39.1008C102.547 39.0991 102.595 39.5102 102.804 39.5102C103.486 39.5154 103.308 39.9819 103.314 40.3446C103.326 41.0892 103.31 41.8355 103.321 42.5818C103.324 42.7856 103.236 43.0949 103.609 43.0672C103.908 43.0448 103.828 42.7804 103.832 42.5991C103.842 41.8251 103.834 41.0512 103.839 40.2773C103.842 39.9283 103.709 39.4861 104.335 39.531C104.494 39.5431 104.576 39.4066 104.561 39.239C104.547 39.0835 104.421 39.0594 104.314 39.068C103.942 39.1008 103.794 38.9523 103.834 38.5739C103.866 38.2457 103.98 38.028 104.345 38.0125C104.507 38.0056 104.727 38.0401 104.703 37.7775C104.677 37.4908 104.433 37.546 104.209 37.5322Z" fill="black"/>
<path d="M65.2604 39.0507C64.8251 39.0265 64.3967 39.9421 64.0063 39.0611C63.7368 39.0542 63.6538 39.1751 63.6538 39.3789C63.6521 40.4967 63.6504 41.6126 63.6504 42.7303C63.6504 42.9549 63.7247 43.138 63.9924 43.1139C64.2032 43.0931 64.2567 42.9273 64.2585 42.7407C64.2602 42.2242 64.2844 41.7076 64.2567 41.1946C64.2118 40.3688 64.5193 39.8022 65.352 39.5983C65.5593 39.5482 65.7718 39.5171 65.7372 39.2477C65.6958 38.9453 65.4453 39.0611 65.2604 39.0507Z" fill="black"/>
<path d="M79.6194 37.959C79.6194 37.7897 79.6229 37.5893 79.3914 37.5651C79.0701 37.5323 79.1133 37.7914 79.1133 37.978C79.1081 39.5258 79.1081 41.0737 79.1133 42.6216C79.1133 42.8099 79.0666 43.0776 79.3655 43.0655C79.6402 43.0534 79.616 42.8012 79.6177 42.6026C79.6212 41.8286 79.6194 41.0547 79.6194 40.2808C79.6212 39.5068 79.6229 38.7329 79.6194 37.959Z" fill="black"/>
<path d="M100.696 38.0384C100.695 37.8207 100.745 37.5305 100.384 37.5633C100.1 37.5893 100.144 37.8449 100.144 38.0332C100.138 39.55 100.137 41.0668 100.142 42.5835C100.142 42.7995 100.102 43.0949 100.454 43.0603C100.727 43.0344 100.693 42.7805 100.695 42.587C100.7 41.8148 100.696 41.0426 100.698 40.2686C100.698 39.5258 100.702 38.7813 100.696 38.0384Z" fill="black"/>
<path d="M101.857 39.0697C101.607 39.0645 101.596 39.239 101.595 39.4135C101.591 39.9853 101.593 40.5571 101.593 41.1289C101.593 41.6437 101.589 42.1585 101.595 42.6733C101.596 42.8702 101.581 43.1017 101.887 43.0724C102.125 43.0482 102.108 42.8478 102.108 42.6854C102.111 41.5988 102.111 40.5122 102.108 39.4256C102.108 39.2528 102.108 39.0749 101.857 39.0697Z" fill="black"/>
<path d="M101.853 37.5459C101.549 37.5425 101.592 37.7878 101.59 37.9778C101.589 38.1402 101.554 38.3337 101.805 38.3631C102.105 38.3976 102.119 38.2007 102.112 37.9847C102.098 37.7947 102.154 37.5494 101.853 37.5459Z" fill="black"/>
<path d="M41.2582 19.5209C40.4411 19.578 39.7553 19.9822 38.9589 20.383C38.9589 18.8731 38.9382 17.4704 38.9693 16.0676C38.9814 15.5476 38.8397 15.3473 38.2955 15.3818C37.5786 15.4267 36.8531 15.4423 36.1379 15.3801C35.3985 15.3144 35.2326 15.596 35.2378 16.2991C35.2672 21.1932 35.2534 26.0873 35.2534 30.9831C35.2534 31.2457 35.2534 31.5082 35.2534 31.7691C33.4187 27.1756 31.7344 22.5769 30.0224 17.9886C29.7046 17.1335 29.6579 15.9398 28.9479 15.5321C28.25 15.1313 27.1582 15.4492 26.2443 15.3818C25.6501 15.3386 25.3978 15.5563 25.1957 16.1091C23.8483 19.7991 22.4611 23.4753 21.0842 27.1566C20.4986 28.72 19.9095 30.2817 19.3204 31.8451C19.1857 29.6494 19.1788 27.4935 19.1891 25.3375C19.1943 24.4081 19.0803 23.496 18.8039 22.6149C18.3012 21.0083 17.2664 19.9114 15.57 19.6194C13.8079 19.3154 12.1184 19.5538 10.6828 20.7147C10.2457 21.0671 10.0246 21.0187 9.65146 20.6438C8.87062 19.8578 7.90494 19.4985 6.76995 19.5071C5.64533 19.5158 4.7643 20.0962 3.68978 20.7078C3.95927 19.6091 3.29245 19.7352 2.6999 19.7438C2.0089 19.7524 1.31789 19.7593 0.626876 19.7421C0.208815 19.7317 -0.00194231 19.8371 -0.000214782 20.3191C0.0136054 24.3787 0.0153326 28.4384 -0.00194268 32.4981C-0.0036702 32.9922 0.208815 33.0647 0.618239 33.0526C1.30925 33.0319 2.00717 32.987 2.68954 33.063C3.53084 33.1546 3.7416 32.8574 3.73815 32.0282C3.72605 29.5838 3.58613 27.1341 3.81589 24.6932C3.92472 23.534 4.51553 23.0192 5.59178 22.976C6.80623 22.9276 7.4005 23.3871 7.62508 24.5981C7.708 25.0473 7.74773 25.512 7.75118 25.9681C7.76328 28.0981 7.77019 30.2299 7.74773 32.3599C7.74255 32.8609 7.84102 33.0924 8.40765 33.0578C9.21094 33.0095 10.0212 33.0181 10.8245 33.0578C11.3306 33.082 11.4619 32.8954 11.4464 32.4169C11.4153 31.4685 11.4153 30.5166 11.4412 29.5665C11.4861 27.8994 11.2822 26.2255 11.5742 24.5688C11.7798 23.4027 12.3637 22.9518 13.547 22.9725C14.6457 22.9933 15.2072 23.4891 15.3799 24.631C15.4439 25.0559 15.4715 25.4895 15.4732 25.918C15.4819 28.048 15.4922 30.1798 15.468 32.3098C15.4611 32.8505 15.5838 33.0734 16.1832 33.0613C18.1405 33.025 20.0995 33.0267 22.0568 33.0596C22.5595 33.0682 22.7668 32.8816 22.9085 32.4359C23.2039 31.5082 23.5546 30.5961 23.8638 29.6719C23.9795 29.3281 24.1523 29.1761 24.541 29.1813C26.2962 29.2037 28.053 29.2055 29.8099 29.1813C30.2332 29.1761 30.4111 29.3402 30.5338 29.7203C30.824 30.6203 31.173 31.5013 31.4597 32.4031C31.61 32.8782 31.8398 33.0699 32.3701 33.0613C34.241 33.025 36.1137 33.0285 37.9846 33.0596C38.5547 33.0682 39.0401 33.0734 39.0677 32.3133C41.6245 34.1168 45.5961 33.3291 46.5859 29.3056C47.1249 27.1117 47.0765 24.9108 46.294 22.7739C45.4734 20.5281 43.5956 19.3586 41.2582 19.5209ZM25.3719 25.588C25.9679 23.8899 26.5449 22.2435 27.1893 20.4072C27.8164 22.19 28.3675 23.7534 28.9151 25.3168C28.941 25.3928 28.941 25.4775 28.9583 25.588C27.7956 25.588 26.652 25.588 25.3719 25.588ZM42.7906 28.853C42.4744 29.7358 41.5951 30.0744 40.5741 29.8567C39.4685 29.6218 38.9624 29.0431 38.9624 28.01C38.9624 27.4641 38.9624 26.9199 38.9624 26.374C38.9624 25.8575 38.9624 25.341 38.9624 24.8244C38.9641 23.8449 39.4374 23.2576 40.4169 23.0209C41.3671 22.7912 42.2291 23.0917 42.6143 23.921C43.3606 25.5276 43.3814 27.2032 42.7906 28.853Z" fill="black"/>
<path d="M111.902 22.1468C110.25 18.507 105.18 17.8349 102.653 20.9324C100.858 23.1333 100.673 25.7107 101.141 28.3677C101.454 30.1401 102.235 31.6966 103.812 32.7193C106.078 34.1877 109.425 33.6591 111.759 32.011C112.021 31.8262 111.926 31.65 111.816 31.4236C111.109 29.9829 110.957 29.9259 109.565 30.6428C109.335 30.7603 109.105 30.8812 108.867 30.9779C106.27 32.0456 103.909 30.5996 103.651 27.8114C103.61 27.3553 103.713 27.2016 104.183 27.2102C105.477 27.2361 106.773 27.2189 108.067 27.2206C109.304 27.2223 110.542 27.1912 111.778 27.2344C112.391 27.2569 112.596 27.0012 112.615 26.4432C112.667 24.961 112.519 23.5081 111.902 22.1468ZM109.594 25.0404C108.675 25.0387 107.754 25.0404 106.835 25.0404C105.944 25.0404 105.054 25.0353 104.163 25.0439C103.848 25.0474 103.594 25.0491 103.651 24.5999C103.985 21.9793 105.788 20.7424 107.999 21.4437C109.107 21.7944 110.112 23.4287 110.086 24.6621C110.078 25.0733 109.857 25.0422 109.594 25.0404Z" fill="black"/>
<path d="M74.3233 30.6394C73.9501 30.0002 73.5977 29.9553 73.0363 30.3768C72.7201 30.6152 72.3384 30.7776 71.9687 30.9314C69.2634 32.0525 67.0521 30.7413 66.6583 27.8339C66.5823 27.2776 66.7585 27.2051 67.2249 27.212C68.4912 27.2327 69.7574 27.2189 71.0237 27.2189C72.29 27.2189 73.5563 27.2034 74.8225 27.2275C75.3063 27.2362 75.5291 27.1153 75.5947 26.5815C75.6898 25.7937 75.5896 25.0301 75.498 24.2631C75.1542 21.3902 73.2332 19.3034 70.7128 19.0322C67.7397 18.7126 65.3989 20.2328 64.4246 23.1368C63.7854 25.044 63.7578 26.9857 64.2656 28.9153C64.8979 31.3131 66.2661 33.07 68.8522 33.4864C70.5987 33.768 72.2865 33.4535 73.8361 32.5483C75.2855 31.7001 75.1283 32.0128 74.3233 30.6394ZM66.6479 24.6622C66.8293 23.1178 67.7017 21.1622 70.0166 21.259C71.6698 21.3281 73.2004 23.021 73.0985 24.6915C73.0726 25.12 72.8117 25.037 72.5699 25.0388C71.6491 25.044 70.7283 25.0405 69.8058 25.0405C68.9127 25.0405 68.0213 25.044 67.1282 25.0388C66.8811 25.0388 66.5943 25.1079 66.6479 24.6622Z" fill="black"/>
<path d="M87.5202 39.2459C86.7273 38.7622 85.9447 38.9281 85.1553 39.5379C85.1553 38.9972 85.1691 38.5722 85.1501 38.1472C85.1397 37.9175 85.2658 37.5443 84.8598 37.565C84.4798 37.584 84.6007 37.9485 84.599 38.1783C84.5886 39.4964 84.5921 40.8145 84.5938 42.1326C84.5938 42.7804 84.5955 42.7718 85.2503 42.7718C85.347 42.7718 85.4386 42.8927 85.5405 42.9428C86.5995 43.4628 87.5859 43.2365 88.0834 42.3606C88.6397 41.3794 88.3685 39.7624 87.5202 39.2459ZM86.539 42.7839C85.7478 42.8098 85.1708 42.1274 85.1553 41.1427C85.138 40.0959 85.6925 39.3979 86.5304 39.4118C87.2991 39.4239 87.7915 40.0596 87.8001 41.0495C87.8087 42.1153 87.3406 42.7597 86.539 42.7839Z" fill="black"/>
<path d="M106.869 38.9919C105.851 38.9297 105.166 39.441 104.924 40.4361C104.654 41.5521 105.069 42.6767 105.889 43.0568C106.772 43.4662 107.822 43.1898 108.237 42.4245C108.337 42.2414 108.572 41.984 108.351 41.825C108.054 41.6108 107.935 41.9339 107.788 42.1481C107.346 42.7873 106.662 42.9687 106.085 42.5972C105.675 42.3329 105.345 41.9131 105.464 41.4571C105.561 41.0891 106.059 41.3327 106.375 41.2826C106.542 41.2549 106.719 41.2774 106.891 41.2774C107.294 41.2774 107.696 41.2705 108.099 41.2791C108.391 41.286 108.489 41.1617 108.507 40.8697C108.562 39.923 107.812 39.0489 106.869 38.9919ZM107.594 40.7885C106.884 40.7782 106.176 40.7851 105.4 40.7851C105.577 40.0301 105.867 39.4911 106.617 39.4255C107.239 39.3719 107.634 39.7226 107.855 40.2944C107.964 40.5778 108.03 40.7937 107.594 40.7885Z" fill="black"/>
<path d="M83.7732 42.5782C83.6074 42.4141 83.6557 42.2033 83.654 42.0081C83.6471 41.4899 83.6592 40.9733 83.6488 40.4551C83.6281 39.3546 83.2256 38.9746 82.1096 38.9884C81.4721 38.9901 80.9003 39.1249 80.6066 39.7744C80.5272 39.9489 80.4028 40.1804 80.6516 40.2996C80.8848 40.4119 80.9763 40.2305 81.0783 40.0249C81.4099 39.3512 81.9887 39.3132 82.6209 39.5084C82.9647 39.6155 83.1133 39.8694 83.1047 40.2339C83.096 40.6278 82.8023 40.7056 82.5225 40.7401C82.0094 40.804 81.4877 40.8178 81.0022 41.0131C80.5237 41.2048 80.2974 41.571 80.3199 42.0962C80.3423 42.6179 80.5859 42.9859 81.0765 43.131C81.5499 43.2709 82.056 43.3072 82.5017 43.0533C82.8403 42.8598 83.1098 42.6007 83.4692 43.036C83.5728 43.1621 83.882 43.1776 84.0202 42.9963C84.2327 42.7164 83.8941 42.6974 83.7732 42.5782ZM82.4326 42.611C82.2323 42.7112 81.9956 42.7423 81.8263 42.7889C81.3426 42.7371 80.9694 42.6041 80.8796 42.1221C80.7898 41.6401 81.1318 41.4622 81.5015 41.3326C81.6898 41.2653 81.8937 41.191 82.0871 41.1996C82.4223 41.2152 82.906 40.8403 83.0632 41.2549C83.2688 41.8077 82.9941 42.3294 82.4326 42.611Z" fill="black"/>
<path d="M67.7231 38.9918C66.5483 39.0022 65.8228 39.7899 65.8107 41.07C65.7986 42.3743 66.5622 43.2121 67.7576 43.2052C68.9237 43.1983 69.6544 42.3985 69.6596 41.1218C69.6648 39.7813 68.9392 38.9814 67.7231 38.9918ZM67.7317 42.7768C66.9457 42.7699 66.3549 42.0547 66.3514 41.108C66.3479 40.1389 67.0009 39.3719 67.7991 39.4064C68.5678 39.441 69.1379 40.1803 69.1258 41.1287C69.1137 42.0927 68.5264 42.7837 67.7317 42.7768Z" fill="black"/>
<path d="M95.3915 38.9764C94.1856 38.9505 93.4273 39.7452 93.4048 41.0547C93.3823 42.3728 94.1131 43.2002 95.3051 43.2072C96.4902 43.2158 97.2745 42.3728 97.271 41.0978C97.2693 39.8644 96.504 39.0006 95.3915 38.9764ZM95.2964 42.7839C94.5156 42.7632 93.9593 42.0532 93.9645 41.084C93.9697 40.1028 94.5277 39.4135 95.3189 39.4118C96.1118 39.4101 96.7493 40.2013 96.7268 41.1549C96.7044 42.086 96.0738 42.8046 95.2964 42.7839Z" fill="black"/>
</svg>
