<svg width="111" height="25" fill="none" xmlns="http://www.w3.org/2000/svg"><path fill-rule="evenodd" clip-rule="evenodd" d="M19.239 6.74c-6.595 0-12.063 5.114-12.438 11.625a.58.58 0 0 0 .167.438.568.568 0 0 0 .438.188h4.403c.313 0 .564-.23.606-.564.333-3.506 3.276-6.156 6.845-6.156 3.568 0 6.51 2.65 6.845 6.156.02.313.292.564.605.564h4.382a.569.569 0 0 0 .438-.188.674.674 0 0 0 .167-.438C31.301 11.833 25.833 6.74 19.24 6.74Z" fill="#000"/><path fill-rule="evenodd" clip-rule="evenodd" d="M19.24 13.481c-3.11 0-5.656 2.505-5.656 5.593 0 3.089 2.546 5.593 5.655 5.593 3.11 0 5.656-2.504 5.656-5.593s-2.546-5.593-5.656-5.593Z" fill="#000"/><path fill-rule="evenodd" clip-rule="evenodd" d="M19.24 0C14.23 0 9.472 1.9 5.861 5.342 2.272 8.786.186 13.398-.002 18.344c0 .167.063.313.167.438a.6.6 0 0 0 .438.188h4.362c.313 0 .584-.25.605-.564.355-7.241 6.344-12.897 13.67-12.897 7.303 0 13.314 5.656 13.668 12.897.021.313.271.564.605.564h4.362a.6.6 0 0 0 .438-.188.58.58 0 0 0 .167-.438c-.188-4.946-2.274-9.558-5.864-13.002A19.4 19.4 0 0 0 19.24 0ZM61.144 2.42h-5.009c-.083 0-.146.043-.146.126l-3.13 12.188h-.042L49.791 2.545c-.02-.062-.083-.125-.146-.125h-5.217c-.084 0-.146.063-.167.146l-1.085 16.09c0 .042.02.083.041.125.021.042.084.042.126.042h2.713c.083 0 .146-.063.167-.146l.793-13.398h.02l3.57 13.44c.02.062.083.125.145.125h3.736c.062 0 .125-.042.146-.125l3.694-13.44h.02l.585 13.398c0 .083.083.146.167.146h3.15c.043 0 .084-.021.126-.042.021-.042.042-.083.042-.125l-1.085-16.09a.2.2 0 0 0-.188-.146ZM69.22 6.198c-1.294 0-3.276.209-4.32.438-.063.021-.125.084-.125.146v2.275c0 .042.02.084.062.125.042.021.084.042.126.021.73-.167 2.4-.438 4.07-.438 2.775 0 2.858.668 2.858 2.42h-.25c-2.505 0-5.343 0-6.783 1.42-.605.584-.897 1.398-.897 2.4 0 3.506 2.776 4.027 5.78 4.07.272 0 .543.02.814.02 1.399 0 2.86-.104 4.821-.313.084 0 .146-.084.146-.167v-8.243c0-1.231-.355-2.191-1.043-2.86-1.21-1.189-3.235-1.335-5.26-1.314Zm2.671 7.409v2.942a12.6 12.6 0 0 1-1.753.125c-1.419 0-2.42-.104-2.42-1.544s1.001-1.544 2.42-1.544c.856 0 1.44 0 1.753.02ZM87.668 16.194l-.209.021c-.584.084-1.148.146-2.108.146-3.172 0-4.466-1.106-4.466-3.798 0-2.671 1.252-3.735 4.466-3.735.73 0 1.357.062 2.233.167.042 0 .084 0 .125-.042.042-.021.063-.063.063-.125v-2.15c0-.083-.042-.146-.125-.146-1.044-.23-2.233-.355-3.569-.355-4.8 0-6.95 3.13-6.95 6.22 0 4.173 2.651 6.656 7.096 6.656 1.336 0 2.442-.125 3.527-.396.063-.021.125-.084.125-.146V16.32c0-.042-.02-.084-.062-.126h-.146ZM97.664 6.511a.165.165 0 0 0-.167-.167h-.209c-1.085 0-2.42-.02-4.382 1.085v-.835a.165.165 0 0 0-.167-.167h-2.922a.165.165 0 0 0-.167.167v12.083c0 .084.063.168.167.168h3.298a.165.165 0 0 0 .167-.168V10.06c1.085-.71 2.859-.71 4.048-.71h.188a.165.165 0 0 0 .167-.167l-.021-2.671ZM104.302 6.177c-4.111 0-6.658 2.484-6.658 6.449 0 3.986 2.547 6.448 6.658 6.448 3.881 0 6.615-2.65 6.615-6.448 0-3.986-2.546-6.449-6.615-6.449Zm2.859 6.49c0 2.755-.835 3.882-2.88 3.882-2.066 0-2.901-1.127-2.901-3.881 0-2.776.835-3.903 2.901-3.903 2.045 0 2.88 1.127 2.88 3.902Z" fill="#000"/></svg>