<svg width="99" height="18" fill="none" xmlns="http://www.w3.org/2000/svg"><path fill-rule="evenodd" clip-rule="evenodd" d="M95.514 17.197v-.552h.487l-.487-1.202v-.768h.383l1.462 3.27h-.801l-.313-.75h-.73v.002Zm2.226.118h.696v.634h-.696v-.634Zm-2.226-2.638v.768l-.486 1.202h.486v.552h-.712l-.296.75h-.782l1.407-3.27h.383v-.002Zm-9.83 2.52v-.552h.487l-.486-1.202v-.768h.383l1.461 3.27h-.8l-.314-.75h-.73v.002Zm3.446-.316.714-.068c.035.217.122.384.26.485.123.101.297.15.522.15.245 0 .419-.049.539-.133.122-.101.174-.2.174-.318 0-.083-.019-.15-.07-.2a.605.605 0 0 0-.262-.134 5.67 5.67 0 0 0-.592-.15c-.4-.084-.66-.2-.818-.316-.225-.183-.347-.4-.347-.668 0-.166.051-.318.155-.468a.988.988 0 0 1 .453-.316c.21-.084.435-.118.712-.118.454 0 .802.082 1.027.268.245.183.348.417.367.716l-.731.034c-.035-.166-.106-.301-.193-.367a.862.862 0 0 0-.47-.118c-.209 0-.382.05-.503.133a.234.234 0 0 0-.103.2c0 .066.035.133.103.2.087.068.313.134.66.218.365.067.628.15.8.234a.941.941 0 0 1 .4.335.92.92 0 0 1 .138.517c0 .183-.052.35-.174.518-.105.167-.277.283-.486.367-.21.082-.47.116-.783.116-.47 0-.817-.1-1.06-.284-.242-.182-.38-.466-.432-.833Zm3.548.434h.696v.634h-.696v-.634Zm-6.993-2.638v.768h-.017l-.487 1.202h.506v.552h-.731l-.296.75h-.766l1.41-3.27h.38v-.002Zm-22.701 2.069v-.683c.226-.017.383-.017.451-.05a.347.347 0 0 0 .21-.136c.051-.065.068-.15.068-.25a.33.33 0 0 0-.104-.25c-.054-.084-.157-.117-.26-.132-.052 0-.175-.017-.365-.017v-.55h.068c.383 0 .663.033.835.084a.866.866 0 0 1 .575.833c0 .25-.068.45-.244.6-.156.167-.383.266-.712.302.157.082.296.183.4.284.105.102.241.268.417.517l.435.65h-.871l-.522-.717c-.19-.251-.313-.4-.381-.485Zm3.861 0v-.55h1.565v1.3a1.95 1.95 0 0 1-.66.35 2.733 2.733 0 0 1-.888.152c-.383 0-.713-.067-.992-.217-.28-.15-.487-.35-.625-.618a1.846 1.846 0 0 1-.21-.868c0-.335.069-.635.226-.903.158-.267.4-.467.696-.6.226-.118.522-.167.87-.167.453 0 .799.082 1.043.25.26.167.418.401.488.703l-.714.133a.673.673 0 0 0-.296-.384c-.139-.101-.313-.133-.522-.133-.312 0-.573.082-.766.266-.19.183-.277.451-.277.818 0 .384.087.668.277.868.19.184.454.283.748.283.155 0 .312-.017.47-.084.155-.049.277-.116.4-.184v-.417h-.833v.002Zm2.244 1.202v-3.27h2.68v.55H69.82v.733h1.81v.536h-1.81v.902h2.019v.55h-2.75v-.001Zm3.375 0v-3.27h.714l1.478 2.186v-2.187h.677v3.27h-.73l-1.462-2.135v2.136h-.677Zm4.47 0v-2.72h-1.08v-.55h2.872v.55h-1.06v2.72h-.733Zm2.246-3.27h.728v3.27h-.728v-3.27Zm1.424 3.27v-3.27h.714l1.479 2.186v-2.187h.679v3.27h-.731l-1.462-2.135v2.136h-.679Zm-17.62-3.27v.55h-.748v.835h.748v.683h-.017a.726.726 0 0 0-.209-.133 1.908 1.908 0 0 0-.364-.034h-.157v1.369h-.731v-3.27h1.478Zm-3.706 2.519v-.552h.487l-.487-1.202v-.768h.383l1.462 3.27h-.801l-.313-.75h-.73v.002Zm0-2.52v.768l-.486 1.202h.486v.552h-.714l-.313.75h-.766l1.408-3.27h.385v-.002Zm-5.045 2.52v-.552h.505l-.505-1.202v-.768h.4l1.426 3.27h-.783l-.312-.75h-.731v.002Zm0-2.52v.768l-.487 1.202h.487v.552h-.714l-.297.75h-.782l1.408-3.27h.385v-.002Zm-8.664 2.069v-.683c.244-.017.4-.017.47-.05a.347.347 0 0 0 .209-.136.526.526 0 0 0 .068-.25.33.33 0 0 0-.104-.25c-.051-.084-.157-.117-.279-.132-.035 0-.157-.017-.364-.017v-.55h.068c.4 0 .679.033.853.084a.862.862 0 0 1 .574.833c0 .25-.071.45-.245.6-.157.167-.4.266-.714.302.157.082.296.183.4.284.105.102.244.268.418.517l.434.65h-.865l-.538-.717c-.176-.251-.315-.4-.385-.485Zm2.157-2.069h.73v3.27h-.73v-3.27Zm3.758 2.069.695.2c-.103.352-.28.618-.54.784-.245.184-.574.268-.957.268-.486 0-.87-.152-1.182-.451-.313-.285-.47-.702-.47-1.202 0-.55.157-.967.47-1.269.315-.301.712-.451 1.218-.451.45 0 .817.118 1.078.35.174.133.296.333.383.6l-.73.15a.64.64 0 0 0-.262-.4c-.14-.101-.312-.133-.505-.133-.26 0-.486.082-.644.25-.173.183-.26.45-.26.85 0 .401.087.7.26.87.158.183.365.267.644.267a.72.72 0 0 0 .487-.166c.14-.098.246-.283.315-.517Zm-5.915-2.069v.55h-.731v.836H45.569v.683a.724.724 0 0 0-.21-.133 1.909 1.909 0 0 0-.364-.034h-.157v1.369h-.731v-3.27h1.462Zm-20.37 3.321v-.567h.019c.277 0 .521-.084.712-.283.174-.183.277-.468.277-.851 0-.367-.087-.652-.277-.835-.174-.184-.418-.266-.712-.266h-.019v-.567c.54 0 .957.15 1.288.45.312.285.47.7.47 1.236 0 .534-.158.934-.47 1.234-.313.3-.748.451-1.27.451H25.2v-.002Zm2.331-.05v-3.27h2.68v.55H28.26v.733h1.826v.536h-1.826v.902h2.019v.55h-2.75v-.001Zm3.391 0v-3.239h.731v2.688h1.826v.55h-2.557Zm3.079 0v-3.27h2.679v.55H34.73v.733h1.81v.536h-1.81v.902h2.018v.55H34v-.001Zm5.672-1.202.713.2c-.104.352-.278.618-.539.784-.242.184-.573.268-.956.268-.487 0-.888-.152-1.184-.451-.313-.285-.47-.702-.47-1.202 0-.55.157-.967.47-1.269.312-.301.714-.451 1.22-.451.45 0 .798.118 1.078.35.174.133.296.333.383.6l-.731.15a.64.64 0 0 0-.261-.4c-.139-.101-.313-.133-.505-.133-.261 0-.487.082-.644.25-.174.183-.26.45-.26.85 0 .401.086.7.244.87a.837.837 0 0 0 .643.267.74.74 0 0 0 .506-.166c.136-.098.242-.283.294-.517Zm2.158 1.202v-2.72H40.75v-.55h2.888v.55H42.56v2.72h-.73Zm-35.644 0v-3.27H6.9l1.478 2.186v-2.187h.679v3.27h-.73l-1.462-2.135v2.136h-.68Zm19.013-3.321v.567c-.296 0-.54.082-.712.266-.193.183-.28.468-.28.852 0 .366.087.65.28.834.19.184.435.283.712.283v.567c-.522 0-.956-.151-1.269-.45-.313-.285-.486-.703-.486-1.22 0-.333.068-.617.173-.832.087-.169.193-.319.332-.452.157-.133.312-.234.47-.282.223-.1.484-.133.78-.133Zm-15.361.05h.714v1.77c0 .282.016.467.035.55a.54.54 0 0 0 .226.318c.122.084.277.118.486.118.21 0 .365-.034.47-.118a.472.472 0 0 0 .193-.283c.016-.1.016-.284.016-.55v-1.803h.731v1.719c0 .383-.019.668-.052.835a.78.78 0 0 1-.225.4c-.104.116-.245.2-.419.268-.174.065-.418.099-.695.099-.348 0-.609-.034-.783-.116a.992.992 0 0 1-.434-.268.833.833 0 0 1-.191-.367c-.052-.183-.07-.468-.07-.834v-1.738h-.002Zm5.966 2.069.714.2c-.122.352-.296.618-.557.784-.244.184-.573.268-.956.268-.487 0-.87-.152-1.182-.451-.313-.285-.47-.702-.47-1.202 0-.55.155-.967.47-1.269.313-.301.73-.451 1.234-.451.434 0 .8.118 1.078.35.158.133.28.333.365.6l-.731.15a.64.64 0 0 0-.26-.4c-.14-.101-.297-.133-.488-.133-.279 0-.488.082-.66.25-.174.183-.244.45-.244.85 0 .401.068.7.244.87.157.183.383.267.644.267.19 0 .348-.05.505-.166.139-.098.226-.283.294-.517Zm1.358 1.202v-3.239h.731v2.688h1.81v.55h-2.54Zm3.062 0v-3.27h2.68v.55h-1.949v.733h1.828v.536h-1.828v.902h2.019v.55h-2.75v-.001Z" fill="#000"/><path d="M15.402 9c-.743 0-1.772-.745-2.563-1.85-1.053-1.478-1.341-3.06-.66-3.6a.85.85 0 0 1 .542-.175c.743 0 1.772.745 2.56 1.85 1.055 1.478 1.342 3.058.66 3.598a.837.837 0 0 1-.539.177Zm-2.681-5.412a.66.66 0 0 0-.417.13c-.574.454-.255 1.969.699 3.306.751 1.056 1.715 1.765 2.397 1.765a.648.648 0 0 0 .417-.133c.574-.453.253-1.965-.7-3.305-.75-1.054-1.712-1.763-2.396-1.763Z" fill="#000"/><path d="M12.738 9a.878.878 0 0 1-.518-.153c-.716-.504-.47-2.068.56-3.56.792-1.145 1.837-1.912 2.604-1.912.198 0 .374.052.518.153.714.507.47 2.07-.56 3.562C14.55 8.23 13.505 9 12.738 9Zm2.646-5.42c-.69 0-1.689.75-2.43 1.823-.932 1.35-1.212 2.85-.613 3.273a.69.69 0 0 0 .397.117c.69 0 1.689-.75 2.43-1.824.932-1.35 1.212-2.847.613-3.273a.674.674 0 0 0-.397-.116Z" fill="#000"/><path d="M13.935 7.875c-1.803 0-3.232-.708-3.25-1.61-.019-.945 1.449-1.719 3.343-1.764 1.88-.038 3.39.68 3.407 1.609.02.944-1.45 1.718-3.341 1.76-.055.003-.108.005-.159.005Zm.246-3.149c-.05 0-.1 0-.151.003-1.71.038-3.142.74-3.127 1.531.016.79 1.46 1.428 3.182 1.388 1.71-.038 3.142-.74 3.126-1.532-.013-.767-1.373-1.39-3.03-1.39Z" fill="#000"/><path fill-rule="evenodd" clip-rule="evenodd" d="M13.489 5.625a.56.56 0 0 1 .571.554.562.562 0 1 1-.572-.553Z" fill="#000"/><path d="M15.748 12.375c-6.024 0-10.258-.553-12.753-3.313C1.258 7.142.465 4.212.57.1L.572.01h2.26l-.003.094C2.66 6.708 5.2 10.576 10.2 11.381 5.5 10.054 3.344 6.431 3.439.104L3.44.013 5.82.011l-.004.095c-.204 5.3 1.192 8.587 4.484 10.384C7.51 8.535 6.232 5.05 6.503.102l.004-.087 2.219-.01c.246.002.49.01.732.019C10.306.009 11.01 0 11.668 0c5.121 0 10.27.443 13.235 3.658 1.816 1.968 2.685 4.784 2.657 8.613v.091l-2.255.002.003-.095c.188-5.71-1.563-9.023-5.761-10.585 3.63 1.698 5.243 5.08 5.16 10.585l-.002.089-2.386.002.006-.098c.319-5.287-1.085-8.563-4.517-10.357 2.857 1.948 4.138 5.426 3.813 10.372l-.006.087-2.328.002c-.343.002-.686-.002-1.025-.013-.745.011-1.63.022-2.514.022ZM.738.193c-.092 4.012.687 6.871 2.378 8.741 2.453 2.712 6.653 3.257 12.632 3.257.884 0 3.21-.007 3.559-.01h.175l1.975-.001c.355-5.721-1.478-9.429-5.45-11.026l.054-.173c4.801 1.57 6.788 5.026 6.441 11.194l2.038-.002C24.619 5.465 22.117 1.987 16.438.9l.029-.18c6.524 1.022 9.225 4.45 9.017 11.46l1.908-.002c.012-3.73-.84-6.476-2.608-8.392C21.863.62 16.753.182 11.669.182c-.658 0-1.36.007-2.21.024a35.39 35.39 0 0 0-.675-.02l-.058.01-2.054.001c-.292 5.76 1.546 9.488 5.47 11.078l-.055.174C7.419 9.899 5.43 6.426 5.649.193L3.616.195c-.079 6.789 2.495 10.39 8.093 11.332l-.016.182C5.625 11.464 2.504 7.481 2.666.191L.737.193Z" fill="#000"/></svg>