<svg width="80" height="38" fill="none" xmlns="http://www.w3.org/2000/svg"><path d="M50.392 1.978C50.858.146 52.21.078 53.663.13c1.617.058 2.399 1.015 2.788 2.514.2-.226.39-.382.51-.582C57.85.567 59.219.48 60.67.891c.638.18 1.192.65 1.798.96.201.103.449.162.674.164.794.003 1.618-.167 2.379-.015 1.656.335 3.297.779 4.915 1.268 1.91.577 2.511 2.983 1.112 4.415-.375.383-.465.71-.357 1.201.094.432.263.546.672.391 1.177-.448 2.385-.828 3.537-1.335 1.481-.651 2.342.172 2.234 1.586-.042.534.138.656.624.729 1.065.157 1.645.79 1.407 1.647-.128.462-.551.986-.98 1.187-.808.378-1.141.859-1.062 1.752.069.783-.375 1.355-1.128 1.716 1.496 1.684 1.482 3.82 1.982 5.774.41 1.599.685 3.231 1.013 4.85.232 1.145-.201 1.865-1.338 2.142-1.704.415-3.371.085-5.033-.303-.127-.028-.262-.048-.375-.104-.67-.335-1.07-.204-1.59.442-.901 1.12-2.26 1.203-3.532.766-1.044-.359-1.857-.45-2.915.16-1.584.91-3.313.665-4.938-.194-.94-.495-.928-.447-1.687.241-2.3 2.086-4.946 3.182-8.078 2.508-.804-.174-1.523-.738-2.457-1.214-.27.29-.661.783-1.121 1.198-1.953 1.761-4.239 2.657-6.88 2.37-.748-.083-1.484-.447-2.18-.778-.403-.191-.61-.267-.902.16-1.754 2.565-6.01 3.678-8.783 2.293-1.704-.85-2.513-2.34-2.81-4.156-.063-.38-.11-.763-.177-1.242-.428.196-.777.354-1.123.517-.177.083-.342.199-.526.258-1.63.525-3.315.982-4.981 1.176-1.18.139-2.27.341-3.334.806-1.031.45-2.077.772-3.227.53-.151-.033-.355.104-.515.195-1.45.83-2.98 1.356-4.67 1.046-1.652-.304-2.537-1.438-2.423-3.112.071-1.031.27-2.054.412-3.089a.5.5 0 0 0-.135.044c-.8.342-1.584-.065-1.673-.941-.09-.891-.334-1.546-1.365-1.676-.54-.068-.977-.422-1.109-.986-.133-.576.245-.915.67-1.23.722-.536 1.11-1.136.65-2.116-.372-.786-.075-1.187.794-1.291 1.187-.143 2.392-.161 3.566-.368 1.724-.306 2.11-.843 2.279-2.572.238-2.447.495-4.89.81-7.327.066-.508.317-1.084.671-1.447 1.715-1.771 3.794-2.88 6.267-3.208 1.126-.15 2.084.332 3.067.735.832.341.819.343 1.132-.524.634-1.75 2.095-2.46 3.735-2.942 1.482-.434 2.68.12 3.783 1.052.637.537.642.526.865-.27.243-.862.798-1.507 1.532-1.969 1.845-1.158 3.886-1.592 6.043-1.449 1.158.077 2.14.614 2.88 1.496.4.476.597.368.941-.032 1.117-1.302 2.445-2.32 4.176-2.624 2.248-.395 4.338-.069 6.083 1.559.069.067.169.11.423.267Zm-1.29 21.004c-.048-.432-.087-.93-.16-1.425-.403-2.645-2.76-4.342-5.392-3.939-1.82.28-3.272 1.21-4.433 2.551-2.574 2.97-3.224 6.516-2.664 10.278.364 2.447 2 3.634 4.291 3.445 1.747-.143 3.28-.8 4.612-1.944 2.728-2.345 3.448-5.527 3.746-8.966ZM32.025 3.216c-.4.192-.78.394-1.176.558-.86.36-1.251.995-1.302 1.924-.053.933-.203 1.861-.313 2.79-.321 2.726-.669 5.447-.957 8.177-.183 1.733.428 2.187 2.108 1.664.062-.02.122-.048.184-.063.581-.14.892-.482.903-1.103.006-.39.077-.778.12-1.17.33-2.964.694-5.926.969-8.897.067-.737.492-.85 1.013-.927.549-.08 1.111-.106 1.383.55.423 1.024-.194 2.492-1.262 2.794-.742.21-1.173.59-1.134 1.356.032.634-.01 1.374.299 1.863.293.463.555.893.693 1.423.18.694.34 1.406.639 2.051.185.399.55.851.939.99.838.303 1.512-.18 2.056-.795.678-.77.762-1.266.37-2.008-.396-.75-.779-1.51-1.216-2.237-.27-.449-.24-.741.143-1.126 1.518-1.525 2.149-3.389 1.983-5.533-.082-1.055-.532-1.883-1.457-2.408-1.292-.733-2.624-.516-3.978-.169.048.22.047.386.12.514.34.598.096 1.04-.299 1.511a32.163 32.163 0 0 0-1.872 2.436c-.243.353-.426.813-.455 1.238-.175 2.6-.3 5.207-.439 7.81-.064-1.772.066-3.55-.098-5.3-.214-2.286.304-4.247 1.915-5.886.6-.608.631-1.232.121-2.027ZM23.293 9.8c.148.286.238.389.25.5.099.8.152 1.607.276 2.403.106.685-.137.971-.828 1.071-.982.142-1.234.494-1.247 1.502-.005.346.03.697.09 1.038.138.785.463.971 1.248.754.922-.256.922-.256 1.018.714.005.044.012.087.016.13.21 1.696.785 2.011 2.35 1.286.12-.055.235-.116.346-.184.695-.426.864-.84.767-1.64-.262-2.184-.5-4.372-.756-6.558a253.853 253.853 0 0 0-.56-4.54c-.102-.768-.446-1.133-1.12-1.13-1.437.007-3.459.633-4.092 2.645-.574 1.824-1.279 3.606-1.9 5.415a359.805 359.805 0 0 0-2.192 6.556c-.272.845.108 1.306.984 1.32 1.268.022 1.954-.488 2.337-1.75.872-2.869 1.736-5.741 2.612-8.61.08-.258.216-.5.401-.922Zm28.231 21.825c1.71-.002 3.26-.52 4.673-1.454 1.734-1.147 2.467-2.82 2.427-4.855-.018-.894-.344-1.727-1.136-2.165-1.018-.561-2.115-.98-3.19-1.436-.385-.164-.828-.25-.824-.782.003-.524.39-.75.822-.892.897-.293 1.793-.238 2.703-.004.279.073.698.07.895-.093.86-.708.575-2.593-.452-3.001-4.01-1.591-7.896 1.266-7.819 5.135.029 1.48.685 2.413 2.072 2.915.756.273 1.539.478 2.276.795.365.156.902.484.913.752.015.37-.36.785-.64 1.123-.151.182-.44.277-.685.349-1.031.302-2.015.201-2.956-.355-.197-.116-.525-.195-.708-.11-.708.333-1.282 1.837-1.092 2.712.169.782.83 1.242 1.877 1.31.28.017.561.036.844.056Zm-.688-20.759c-.047 1.229.294 2.294 1.17 3.167.985.983 2.236 1.062 3.525 1.031 2.55-.06 4.75-1.803 5.2-4.312.368-2.054.561-4.14.831-6.212.245-1.883-.223-2.424-2.12-2.446-.152-.002-.305.016-.456.006-.367-.022-.468.158-.507.507-.25 2.25-.497 4.502-.807 6.744-.09.65-.279 1.329-.602 1.89-.413.716-1.327.938-2 .662-.598-.244-.943-.91-.864-1.748.094-.997.212-1.991.33-2.987.155-1.317.347-2.633.474-3.953.11-1.137-.44-1.72-1.586-1.74-.368-.007-.755.004-1.099.112-.2.064-.437.315-.48.521-.123.573-.154 1.163-.22 1.747-.265 2.339-.527 4.676-.79 7.011ZM27.982 23.78c-.09.129-.161.21-.211.303-1.375 2.573-1.876 5.327-1.575 8.212.208 1.988 1.268 3.278 2.936 3.661 2.163.497 4.066-.172 5.706-1.544.925-.774 1.105-1.895.785-3.054-.188-.684-.37-.694-.952-.317-.616.397-1.253.802-1.938 1.04-1.311.457-2.43-.157-2.771-1.496-.515-2.028-.158-3.963 1.011-5.67 1.255-1.831 2.463-2.151 4.552-1.47.169.055.44.014.58-.093.622-.458 1.051-1.931.78-2.703-.306-.869-1.022-1.187-1.878-1.284-1.822-.203-3.284.626-4.703 1.61-.986.685-1.54 1.459-.92 2.709.386.777.245 1.571-.095 2.374-.466 1.098-.807 2.25-1.251 3.36-.203.508-.175.888.223 1.283.866.856 1.487 1.81 1.06 3.117-.043.132.007.295.015.475 1.211-.175 2.385-.344 3.56-.515.004.032.007.065.012.097-1.314.25-2.626.502-4.079.78.139-1.657-.416-3.032-1.164-4.354-.094-.164-.052-.428-.018-.635.092-.58.236-1.152.317-1.733.188-1.352.716-2.705.018-4.153Zm46.18-.212c-.596 0-1.035-.048-1.456.02-.23.036-.546.224-.621.42-.473 1.217.153 2.087 1.438 2.063.965-.018.967-.016 1.074.937.092.811.314 1.131 1.123 1.166.651.03 1.319-.14 1.969-.271.424-.087.492-.409.402-.814-.557-2.529-1.145-5.052-1.625-7.595-.223-1.184-.867-1.826-1.985-2.012-.678-.113-1.381-.123-2.073-.121-.656.002-1.076.383-1.343.973-.492 1.09-1.03 2.16-1.504 3.259a168.038 168.038 0 0 0-2.316 5.602c-.138.357-.148.922.047 1.222.624.969 2.517.832 2.972-.21.504-1.154.869-2.366 1.332-3.539.584-1.476 1.205-2.938 1.81-4.407.059.014.117.03.176.045.184 1.044.369 2.084.58 3.262ZM11.528 9.898c-.853.555-1.388 1.127-1.488 2.115-.16 1.6-.452 3.188-.682 4.782-.277 1.917-.573 3.831-.798 5.755-.037.313.163.855.4.963.993.446 2.627-.561 2.782-1.658.413-2.953.814-5.908 1.21-8.864.117-.88.569-1.313 1.457-1.338.564-.017.93.308.886.878-.092 1.203-.552 2.227-1.734 2.702-.618.248-.814.67-.862 1.238a6.92 6.92 0 0 0-.005 1.112c.058.814.5 1.08 1.243.716 3.286-1.61 4.687-4.375 4.6-7.71-.056-2.113-1.283-2.962-3.324-2.45-.174.043-.391.154-.468.298-.845 1.569-1.754 3.111-2.466 4.739-.722 1.649-1.214 3.397-1.864 5.08-.423 1.093-.713 2.179-.504 3.36.055.31.008.638.008.958-.107-.175-.15-.359-.196-.542-.34-1.327-.408-2.606.14-3.94.568-1.383.865-2.873 1.39-4.276.471-1.261.33-2.522.275-3.918Zm53.633-4.03c.653-.668 1.36-.87 2.236-.469.648.296 1.354.466 2.036.684.332.106 1.237-.238 1.382-.513.2-.375-.068-.81-.676-.975a236.957 236.957 0 0 0-5.042-1.326c-1.605-.402-1.932-.164-2.146 1.46-.357 2.718-.714 5.436-1.084 8.153-.172 1.265.164 1.764 1.417 1.878 1.82.167 3.646.288 5.47.426.626.047.993-.247 1.093-.865.03-.193.048-.39.054-.584.03-.93.03-.955-.872-1.087-1.264-.185-2.533-.332-3.853-.5.027-.367.033-.668.074-.964.119-.881.167-.902 1.029-.756.814.139 1.631.27 2.451.362.63.07 1.022-.23 1.178-.868.276-1.136.146-1.374-.993-1.596-.883-.172-1.769-.33-2.73-.508-.05.797-.091 1.496-.134 2.226-.68-.968-.238-2.006-.247-2.984-.008-.952.116-.96 1.05-.751.868.195 1.733.413 2.602.608.667.15.878.077 1.032-.206-.241-.016-.551.021-.825-.064a24.976 24.976 0 0 1-1.957-.716c-.838-.34-1.667-.656-2.545-.064Zm-22.03 6.869c-.826-.486-1.226-1.245-1.231-2.125-.005-.972.027-1.982.293-2.905.243-.848.717-1.68 1.27-2.372.475-.594 1.234-.906 2.062-.637.846.275 1.218.936 1.356 1.76.057.334.087.673.148 1.154.198-.421.364-.719.481-1.032.298-.797.68-1.493 1.6-1.717.13-.032.292-.214.319-.35.154-.756.135-1.493-.589-1.98-.447-.301-.904-.626-1.404-.804-2.46-.877-4.91-.192-6.602 1.812-2.011 2.38-2.534 5.192-2.299 8.198.077.993.31 1.961.964 2.947.461-1.409 1.521-1.42 2.618-1.307.507.056.843-.105 1.013-.642Zm19.494 4.026c-.845 0-1.628-.008-2.411.001-.798.01-1.245.317-1.414 1.086-.106.478-.086.987-.089 1.484-.003.432.227.607.673.576.717-.051 1.442-.01 2.153-.096.568-.07.707.135.642.638-.164 1.297-.33 2.593-.476 3.893-.162 1.449-.314 2.9-.449 4.352-.053.574.23.95.82.941.604-.008 1.204-.104 1.805-.164.536-.053.776-.334.838-.884.31-2.727.663-5.448.975-8.175.055-.474.188-.727.714-.665.367.043.74.027 1.112.03 1.227.014 1.88-.61 1.825-1.84-.014-.314-.215-.81-.444-.885-.563-.186-1.28-.508-1.764.044-.87.989-1.771 1.978-2.093 3.337-.074.31-.399.578-.65.824-.227.223-.675.349-.738.592-.336 1.317-1.172 2.575-.592 4.027a.46.46 0 0 1 .02.195c-.002.042-.03.083-.044.125-.076-.001-.153-.001-.228-.003-.037-.823-.177-1.658-.086-2.467.15-1.316.457-2.614.682-3.922a1.444 1.444 0 0 0-.025-.632c-.23-.791-.491-1.574-.756-2.412ZM48.484 5.788c-.529 1.009-1.061 1.958-1.526 2.937-.21.444-.246.97-.436 1.427a10.363 10.363 0 0 1-.806 1.552 16.347 16.347 0 0 1-1.143 1.557c-.13.16-.354.315-.55.338-.692.082-1.39.117-2.085.151-1.255.061-1.24.058-1.475 1.256-.087.444.014.777.465.83.918.111 1.864.304 2.765.195 2.644-.322 4.413-1.898 5.57-4.234 1.093-2.21 1.428-4.502.788-7.074l-.348 1.37c-.416-.1-.79-.195-1.219-.305ZM5.082 32.81c-.022 1.121.282 1.658 1.054 1.854 1.703.436 3.738-.804 4.016-2.517.307-1.888.53-3.79.788-5.687.07-.502-.207-.676-.651-.658-.673.027-1.044.412-1.144 1.184-.075.585-.214 1.08-.873 1.31-2.001.699-3.146 2.347-3.19 4.514Zm15.148-5.789c.224-.098.427-.2.637-.28.383-.148.763-.325 1.16-.405.185-.039.41.117.616.187-.146.148-.268.339-.444.436-.663.36-1.409.601-2 1.05-.818.617-1.01 1.782-.583 2.593.373.707 1.137.992 2.172.662.908-.29 1.968-.627 2.206-1.645.307-1.322.37-2.71.457-4.074.04-.618-.381-.98-1.015-1.068-.86-.12-1.634.112-2.37.532-.884.503-1.06.898-.835 2.012Zm-7.934 4.542c-.006-.082-.011-.165-.018-.247.214-.129.417-.282.644-.385.651-.297 1.319-.56 1.967-.863.741-.35 1.053-1.372.738-2.34-.254-.78-.872-1.14-1.737-1.008-2.422.367-4.203 3.88-3.074 6.053.243.468.603.72 1.13.754 1.061.071 1.971-.365 2.758-.986.281-.222.386-.764.421-1.172.033-.377-.185-.602-.633-.327-.404.248-.837.475-1.289.603-.272.08-.603-.046-.907-.082ZM75.303 13.28c-.191-.591-.38-1.294-.646-1.967-.369-.925-.608-1.05-1.605-1.021-.728.02-1.017.534-.639 1.148.101.166.232.319.367.46.466.488.463.998.101 1.54-.18.271-.39.538-.494.84-.075.216-.095.565.03.709.115.133.456.1.696.09.141-.007.281-.107.415-.179 1.125-.608 1.125-.59 1.96.33.206.227.684.505.83.416.258-.154.369-.567.512-.886.05-.11.024-.26.008-.39-.106-.858.293-1.371 1.042-1.76.404-.21.962-.624.976-.967.026-.627-.67-.587-1.156-.66-.616-.091-.925-.424-.878-1.07.022-.301.035-.615-.015-.913-.083-.498-.453-.622-.864-.321-.563.411-.998 2.03-.63 2.608.49.77.07 1.437-.01 1.993ZM3.508 25.258c-.237-.619-.694-1.216-.17-1.909.073-.095.014-.43-.083-.486-.309-.18-.664-.283-1-.415-.08.333-.2.663-.224 1-.03.42.122.874.011 1.26-.18.626-.33 1.187.285 1.69l-.417.345-.775-1.422-.225.03c-.13.266-.41.573-.35.787.065.238.42.43.686.57.203.106.463.106.7.144.563.09.883.436 1.023.967.054.21.038.454.14.632.16.282.35.607.614.74.126.063.49-.24.679-.44.304-.32.137-.631-.113-.92-.177-.203-.331-.429-.52-.68l1.965-.326c-.127-.597-.245-1.127-.354-1.66-.163-.796-.108-.933.64-1.554-.87 1.285.314 2.355.217 3.547l-1.356.182c.007.066.013.13.018.196.225 0 .45-.016.674.005.259.024.521.063.773.125.382.097.834.164.943-.268.07-.277-.114-.721-.331-.953-.924-.994-.922-.966-.45-2.237.105-.281.11-.767-.06-.938-.17-.17-.626-.114-.943-.064-.5.079-.992.225-1.481.364-.393.11-.746.271-.647.799.061.291.09.592.13.89Zm16.324-1.25c.048-.541-.2-.79-.73-.704-.554.092-.979.356-1.062.973-.106.775-.22 1.55-.317 2.326-.201 1.618-.388 3.236-.59 4.854-.061.49.2.682.622.72.52.046 1.126-.398 1.194-.922.307-2.415.59-4.832.883-7.246Zm26.085-7.963c.55.978 2.352 1.665 3.602 1.27.986-.311 1.478-1.024 1.645-1.997.088-.513-.029-.878-.664-.947-.354-.039-.692-.245-1.03-.391-.453-.196-.854-.219-1.264.145-.737.653-1.507 1.267-2.289 1.92Z" fill="#000"/><path d="M49.101 22.983c-.299 3.438-1.018 6.62-3.747 8.965-1.332 1.144-2.865 1.801-4.612 1.944-2.292.189-3.927-.998-4.291-3.445-.558-3.762.092-7.307 2.664-10.278 1.163-1.343 2.613-2.272 4.432-2.55 2.634-.404 4.99 1.293 5.392 3.938.077.494.116.994.162 1.426Zm-3.676 1.093c-.044-.336-.073-.794-.165-1.24-.212-1.024-.865-1.685-1.71-1.703-.813-.018-1.473.38-2.008.952-1.663 1.782-2.172 3.953-1.84 6.287.259 1.823 2.13 2.456 3.569 1.305.302-.241.57-.542.804-.851 1.037-1.37 1.24-2.985 1.35-4.75ZM32.026 3.216c.508.795.48 1.419-.118 2.027-1.611 1.64-2.13 3.6-1.915 5.885.164 1.752.032 3.53.098 5.3.14-2.604.264-5.208.439-7.809.029-.425.212-.885.455-1.239a32.187 32.187 0 0 1 1.872-2.435c.394-.47.639-.913.298-1.512-.072-.127-.07-.294-.12-.513 1.355-.349 2.685-.564 3.979.17.924.524 1.375 1.352 1.457 2.407.167 2.144-.465 4.007-1.983 5.533-.383.385-.414.677-.144 1.126.438.727.82 1.486 1.216 2.237.393.743.31 1.239-.37 2.008-.543.616-1.217 1.098-2.055.796-.39-.14-.755-.592-.94-.991-.297-.645-.456-1.357-.638-2.05-.138-.53-.4-.961-.693-1.424-.31-.49-.269-1.23-.3-1.863-.038-.765.395-1.147 1.135-1.356 1.066-.3 1.685-1.769 1.262-2.794-.272-.656-.835-.63-1.383-.55-.523.076-.946.19-1.013.927-.276 2.97-.639 5.932-.969 8.898-.043.389-.114.778-.12 1.169-.012.62-.322.963-.903 1.103-.062.015-.122.044-.185.063-1.679.523-2.29.07-2.107-1.665.288-2.728.636-5.45.957-8.175.11-.93.26-1.858.312-2.79.053-.93.443-1.566 1.303-1.925.394-.164.774-.366 1.173-.558ZM23.292 9.8c-.185.423-.321.664-.4.923-.875 2.87-1.74 5.74-2.612 8.612-.383 1.26-1.07 1.77-2.337 1.75-.877-.015-1.258-.475-.985-1.32a363.453 363.453 0 0 1 2.193-6.557c.62-1.81 1.325-3.593 1.9-5.416.633-2.012 2.656-2.637 4.091-2.644.674-.003 1.018.362 1.121 1.13.204 1.51.383 3.025.56 4.54.255 2.186.494 4.372.756 6.557.096.802-.073 1.213-.768 1.641-.11.068-.226.129-.345.184-1.565.723-2.14.408-2.35-1.286l-.016-.13c-.097-.97-.097-.97-1.018-.714-.785.217-1.11.03-1.249-.754a5.61 5.61 0 0 1-.09-1.038c.012-1.008.266-1.36 1.247-1.502.69-.1.933-.386.828-1.071-.122-.796-.177-1.602-.275-2.403-.013-.113-.103-.216-.25-.502ZM51.525 31.625c-.283-.02-.565-.039-.848-.057-1.047-.066-1.708-.527-1.877-1.309-.188-.875.384-2.38 1.092-2.712.182-.085.511-.006.708.11.94.556 1.925.659 2.956.355.245-.072.534-.166.685-.349.28-.336.653-.753.64-1.123-.01-.268-.548-.596-.913-.752-.737-.316-1.52-.522-2.276-.795-1.387-.502-2.043-1.435-2.072-2.915-.077-3.87 3.809-6.728 7.819-5.135 1.028.408 1.312 2.293.452 3.001-.197.161-.616.166-.895.093-.908-.234-1.804-.29-2.703.004-.431.14-.819.366-.822.892-.003.533.437.618.825.782 1.074.455 2.171.875 3.19 1.436.792.438 1.117 1.271 1.135 2.165.04 2.035-.692 3.708-2.427 4.855-1.41.934-2.96 1.452-4.67 1.454ZM50.836 10.866l.788-7.008c.066-.584.097-1.176.22-1.747.042-.204.279-.456.48-.52.344-.11.73-.121 1.099-.113 1.145.02 1.695.603 1.585 1.74-.127 1.32-.318 2.635-.474 3.954-.117.994-.236 1.99-.33 2.986-.078.838.266 1.506.864 1.749.674.275 1.588.054 2-.663.326-.561.514-1.242.602-1.89.31-2.242.559-4.494.808-6.744.038-.35.14-.53.506-.507.152.01.306-.01.457-.006 1.897.024 2.365.564 2.12 2.446-.27 2.072-.461 4.158-.831 6.212-.45 2.51-2.65 4.254-5.2 4.312-1.289.03-2.54-.048-3.526-1.03-.873-.877-1.214-1.94-1.168-3.17Z" fill="#fff"/><path d="M27.981 23.78c.698 1.448.17 2.8-.016 4.156-.08.581-.223 1.154-.317 1.733-.034.209-.074.47.018.635.748 1.324 1.303 2.697 1.165 4.354 1.452-.278 2.764-.53 4.079-.78l-.013-.097-3.56.515c-.008-.182-.058-.343-.014-.474.426-1.308-.197-2.264-1.06-3.118-.4-.395-.428-.775-.224-1.283.444-1.11.785-2.26 1.252-3.36.34-.803.48-1.597.094-2.374-.619-1.248-.066-2.024.92-2.709 1.42-.984 2.881-1.813 4.703-1.61.858.095 1.572.415 1.878 1.284.271.77-.16 2.245-.779 2.703a.739.739 0 0 1-.58.094c-2.09-.682-3.298-.362-4.552 1.47-1.17 1.708-1.527 3.641-1.012 5.67.34 1.34 1.459 1.952 2.771 1.495.685-.238 1.322-.643 1.938-1.04.584-.377.764-.367.953.317.32 1.158.14 2.279-.785 3.054-1.64 1.372-3.544 2.041-5.707 1.544-1.668-.383-2.728-1.674-2.935-3.66-.301-2.886.199-5.64 1.574-8.213.048-.097.12-.177.21-.306ZM74.162 23.568c-.21-1.178-.396-2.218-.58-3.259-.06-.014-.118-.03-.178-.045-.605 1.469-1.225 2.93-1.81 4.407-.462 1.173-.826 2.386-1.331 3.539-.455 1.042-2.348 1.179-2.972.21-.193-.3-.185-.865-.047-1.222.73-1.883 1.517-3.746 2.316-5.602.473-1.099 1.012-2.168 1.504-3.259.267-.592.687-.973 1.343-.973.692-.001 1.393.008 2.073.12 1.118.186 1.761.827 1.985 2.013.481 2.543 1.068 5.067 1.625 7.595.09.407.022.727-.403.814-.65.133-1.317.3-1.968.272-.81-.036-1.031-.356-1.123-1.166-.108-.954-.11-.956-1.074-.938-1.285.022-1.911-.846-1.438-2.062.077-.198.392-.385.62-.422.424-.07.863-.022 1.458-.022ZM11.529 9.898c.055 1.396.196 2.657-.273 3.916-.525 1.403-.822 2.894-1.39 4.276-.549 1.334-.478 2.613-.14 3.94.047.182.088.367.196.542 0-.32.047-.646-.008-.957-.209-1.182.08-2.268.504-3.361.65-1.683 1.142-3.431 1.864-5.08.712-1.628 1.621-3.17 2.466-4.738.077-.143.294-.256.468-.3 2.04-.51 3.268.338 3.324 2.452.087 3.334-1.314 6.099-4.6 7.709-.743.363-1.185.098-1.243-.716a7.338 7.338 0 0 1 .005-1.111c.048-.568.244-.99.862-1.239 1.182-.474 1.642-1.499 1.734-2.702.043-.57-.322-.896-.887-.878-.887.026-1.34.458-1.457 1.338-.396 2.956-.796 5.911-1.21 8.864-.152 1.096-1.788 2.104-2.78 1.659-.239-.108-.438-.65-.401-.964.225-1.924.52-3.838.798-5.755.23-1.594.52-3.181.682-4.782.098-.986.634-1.558 1.486-2.113ZM65.162 5.869c.878-.592 1.707-.275 2.545.066a24.98 24.98 0 0 0 1.957.715c.272.086.582.05.825.065-.154.283-.365.355-1.032.206-.87-.195-1.734-.414-2.603-.608-.931-.21-1.057-.201-1.049.75.008.979-.434 2.016.246 2.984.044-.73.087-1.428.134-2.226.96.179 1.846.335 2.731.509 1.139.222 1.27.46.993 1.595-.157.639-.547.94-1.178.869a43.521 43.521 0 0 1-2.451-.362c-.862-.146-.91-.127-1.03.756-.04.296-.046.597-.073.963 1.318.17 2.59.317 3.853.5.901.132.901.157.872 1.088a4.703 4.703 0 0 1-.055.584c-.1.617-.466.912-1.092.865-1.824-.138-3.65-.259-5.47-.426-1.251-.114-1.59-.613-1.417-1.879.37-2.716.725-5.435 1.084-8.153.214-1.623.539-1.861 2.146-1.459 1.685.422 3.366.867 5.042 1.325.608.166.875.6.676.975-.147.275-1.05.618-1.382.513-.682-.218-1.388-.387-2.036-.683-.877-.402-1.583-.201-2.236.468ZM43.131 12.737c-.17.537-.508.696-1.014.645-1.096-.113-2.157-.102-2.62 1.307-.652-.986-.885-1.954-.962-2.946-.235-3.006.289-5.818 2.298-8.199 1.692-2.005 4.145-2.689 6.603-1.812.5.178.957.502 1.404.804.723.489.743 1.224.588 1.98-.027.137-.188.318-.318.35-.92.224-1.303.92-1.6 1.717-.118.315-.283.611-.481 1.032-.062-.48-.092-.82-.148-1.154-.14-.826-.512-1.487-1.356-1.76-.829-.269-1.59.043-2.062.637-.554.693-1.028 1.525-1.27 2.372-.265.924-.298 1.934-.294 2.905.007.878.407 1.636 1.232 2.122ZM62.625 16.763c.265.838.526 1.621.757 2.412.058.198.061.428.026.633-.225 1.307-.532 2.605-.682 3.92-.092.81.05 1.645.085 2.468.076.002.153.002.229.003.016-.041.041-.083.043-.125a.49.49 0 0 0-.02-.195c-.58-1.452.255-2.71.593-4.027.062-.243.511-.369.738-.592.25-.246.576-.513.65-.824.321-1.36 1.222-2.348 2.092-3.337.486-.552 1.202-.23 1.765-.044.227.076.43.571.444.885.054 1.23-.599 1.855-1.826 1.84-.37-.005-.745.011-1.111-.03-.526-.062-.66.191-.715.665-.311 2.727-.664 5.448-.974 8.175-.063.55-.303.833-.838.884-.602.06-1.203.156-1.805.164-.59.008-.875-.367-.82-.94.135-1.453.286-2.904.449-4.353.146-1.298.31-2.595.476-3.893.064-.503-.074-.709-.642-.638-.711.088-1.436.046-2.154.096-.445.033-.675-.143-.672-.575.003-.496-.018-1.006.088-1.485.17-.769.616-1.076 1.414-1.086.782-.008 1.565-.001 2.41-.001Z" fill="#fff"/><path d="m48.483 5.788 1.221.31.348-1.371c.64 2.572.305 4.864-.788 7.074-1.157 2.335-2.926 3.91-5.57 4.233-.903.11-1.847-.083-2.765-.194-.45-.055-.552-.386-.465-.83.235-1.199.22-1.195 1.475-1.257.696-.033 1.394-.067 2.084-.15.197-.025.42-.18.55-.339.406-.5.801-1.013 1.144-1.557.31-.492.582-1.014.806-1.552.19-.457.225-.982.436-1.426.463-.983.995-1.932 1.524-2.94ZM5.081 32.81c.045-2.168 1.19-3.815 3.19-4.513.66-.23.798-.726.873-1.311.1-.772.47-1.155 1.144-1.184.444-.018.72.156.651.658-.259 1.896-.48 3.799-.788 5.687-.278 1.715-2.313 2.953-4.016 2.517-.772-.196-1.078-.731-1.054-1.854ZM8.7 29.863c-.398.155-.677.206-.886.356-.684.49-.869 1.237-.848 2.014.006.222.268.554.484.628.37.128.782-.028.87-.463.158-.782.24-1.576.38-2.535ZM20.23 27.021c-.226-1.114-.049-1.51.834-2.014.737-.42 1.51-.652 2.371-.532.634.088 1.054.45 1.015 1.068-.087 1.364-.148 2.75-.457 4.074-.236 1.018-1.298 1.356-2.206 1.646-1.035.33-1.8.045-2.172-.663-.426-.81-.236-1.975.582-2.593.594-.447 1.339-.69 2.001-1.05.176-.095.298-.288.444-.436-.207-.068-.43-.224-.616-.187-.397.082-.777.26-1.16.406-.209.083-.413.183-.636.281Zm2.245 1.625c-.07-.036-.257-.184-.309-.147-.344.25-.66.538-.986.814.13.11.253.295.394.31.417.052.907-.442.901-.977Z" fill="#fff"/><path d="M12.296 31.563c.304.034.635.161.907.084.45-.129.885-.355 1.288-.603.448-.275.666-.05.634.326-.035.409-.141.95-.421 1.173-.787.622-1.696 1.057-2.759.986-.524-.036-.886-.288-1.129-.755-1.129-2.172.652-5.685 3.074-6.052.865-.13 1.484.228 1.737 1.007.315.968.003 1.991-.738 2.34-.648.304-1.316.566-1.967.864-.226.103-.43.254-.644.384.007.08.011.164.018.246Zm.23-1.99c.458-.199.833-.343 1.189-.527.106-.055.157-.219.233-.331-.142-.074-.304-.232-.423-.206-.502.111-.903.362-1 1.063ZM75.303 13.28c.08-.556.5-1.222.011-1.991-.368-.577.068-2.197.63-2.609.41-.3.78-.177.864.322.05.297.036.61.015.913-.047.645.262.978.878 1.07.486.072 1.182.034 1.157.66-.015.34-.573.757-.977.966-.75.39-1.148.902-1.042 1.761.016.13.04.28-.008.39-.143.318-.254.731-.511.886-.147.088-.626-.191-.83-.417-.835-.92-.834-.937-1.961-.33-.134.073-.275.173-.415.18-.24.01-.58.043-.697-.091-.123-.143-.104-.492-.029-.71.107-.3.314-.567.494-.839.36-.543.365-1.052-.101-1.54a2.792 2.792 0 0 1-.367-.46c-.378-.615-.088-1.127.639-1.148.997-.028 1.238.097 1.605 1.022.265.67.454 1.373.645 1.965ZM3.508 25.259c-.04-.298-.069-.599-.125-.893-.1-.528.254-.689.646-.8.49-.14.982-.284 1.482-.363.317-.05.772-.106.942.064.17.17.166.657.061.938-.472 1.269-.476 1.243.45 2.237.216.233.4.676.33.953-.11.432-.56.366-.942.268a4.81 4.81 0 0 0-.774-.125c-.223-.021-.448-.005-.674-.005l-.017-.196c.445-.06.89-.121 1.356-.182.096-1.192-1.086-2.262-.218-3.547-.747.621-.802.758-.64 1.554.11.532.226 1.063.354 1.66l-1.965.326c.19.251.344.475.52.68.25.289.417.6.113.92-.19.2-.555.504-.678.44-.266-.134-.456-.458-.615-.74-.103-.178-.085-.423-.14-.632-.14-.53-.46-.877-1.023-.967-.236-.037-.497-.037-.7-.145-.266-.14-.62-.33-.686-.569-.06-.212.22-.52.35-.787l.226-.03.775 1.422.417-.344c-.617-.504-.465-1.065-.285-1.69.11-.387-.042-.84-.011-1.26.024-.338.144-.668.223-1 .338.131.692.234 1 .414.097.057.155.391.084.486-.529.697-.072 1.293.164 1.913ZM19.832 24.009c-.292 2.414-.575 4.831-.884 7.246-.068.524-.674.966-1.194.921-.42-.037-.683-.23-.622-.719.202-1.616.39-3.236.59-4.854.097-.777.21-1.55.317-2.326.085-.617.508-.881 1.061-.973.533-.087.78.164.732.705ZM45.918 16.045c.782-.653 1.554-1.267 2.29-1.922.409-.362.811-.34 1.265-.144.337.146.675.352 1.029.39.635.071.753.435.664.948-.167.971-.66 1.684-1.645 1.996-1.252.395-3.053-.29-3.603-1.268Z" fill="#fff"/><path d="M45.424 24.076c-.11 1.765-.313 3.38-1.347 4.748-.235.31-.502.61-.805.851-1.44 1.152-3.311.52-3.569-1.304-.331-2.334.177-4.505 1.84-6.288.534-.572 1.194-.97 2.008-.952.846.018 1.499.68 1.71 1.703.091.446.122.904.163 1.242ZM8.7 29.863c-.138.959-.222 1.755-.38 2.534-.088.434-.498.59-.87.463-.215-.074-.477-.407-.484-.63-.02-.778.164-1.524.848-2.013.21-.148.487-.2.886-.354ZM22.476 28.646c.005.534-.484 1.03-.9.98-.142-.017-.262-.203-.394-.311.325-.277.641-.565.986-.814.051-.039.238.11.308.145ZM12.525 29.572c.097-.7.497-.953 1-1.063.12-.026.28.132.422.206-.075.114-.127.277-.233.331-.355.184-.732.329-1.189.526Z" fill="#000"/></svg>