<svg width="80" height="38" viewBox="0 0 80 38" fill="none" xmlns="http://www.w3.org/2000/svg">
<path d="M50.3919 1.97788C50.8583 0.145867 52.211 0.0783128 53.6634 0.131391C55.2799 0.189295 56.0616 1.14631 56.4509 2.64538C56.6519 2.41859 56.8417 2.26257 56.9607 2.06312C57.8502 0.567277 59.219 0.478814 60.6698 0.890573C61.3083 1.07072 61.8616 1.54038 62.468 1.85081C62.6691 1.95375 62.9168 2.01326 63.142 2.01487C63.9365 2.01809 64.76 1.84759 65.5208 2.00039C67.1775 2.33495 68.8181 2.77888 70.4362 3.26784C72.3454 3.84527 72.947 6.25149 71.5476 7.683C71.1729 8.06581 71.0828 8.39232 71.1906 8.8845C71.2855 9.31556 71.4544 9.42976 71.8629 9.27535C73.0403 8.8266 74.2482 8.44701 75.3998 7.94035C76.8812 7.28893 77.7417 8.11245 77.634 9.52627C77.5921 10.0603 77.7723 10.1825 78.258 10.2549C79.3228 10.4125 79.9035 11.0446 79.6654 11.9019C79.5367 12.3635 79.1137 12.8879 78.6859 13.089C77.8768 13.4669 77.5439 13.9479 77.6227 14.8405C77.6919 15.6238 77.2479 16.1964 76.4952 16.5567C77.991 18.2408 77.9766 20.3768 78.4768 22.331C78.8869 23.9298 79.162 25.5624 79.4901 27.1805C79.7217 28.3257 79.289 29.0462 78.1519 29.3229C76.4485 29.7379 74.7806 29.4081 73.1191 29.0205C72.992 28.9916 72.8569 28.9723 72.7443 28.916C72.0736 28.5814 71.6747 28.7117 71.1536 29.3583C70.2529 30.4778 68.8937 30.5614 67.6215 30.1239C66.5776 29.7652 65.7653 29.6735 64.707 30.2831C63.1227 31.1935 61.3936 30.949 59.7691 30.0901C58.8297 29.5947 58.841 29.643 58.0818 30.3314C55.7818 32.4175 53.1359 33.5129 50.0042 32.8389C49.2 32.6652 48.4811 32.1007 47.5466 31.6246C47.2763 31.9157 46.8855 32.4079 46.4255 32.8229C44.4728 34.5841 42.1873 35.48 39.5462 35.1921C38.7983 35.1101 38.0616 34.7465 37.3652 34.4152C36.9631 34.2238 36.7556 34.1482 36.4644 34.5744C34.7096 37.1399 30.4537 38.2529 27.6808 36.8681C25.9774 36.0172 25.1684 34.5278 24.8708 32.7119C24.8081 32.3323 24.7615 31.9495 24.6939 31.4702C24.2661 31.6664 23.917 31.824 23.5712 31.9865C23.3943 32.0701 23.2286 32.1859 23.0453 32.2454C21.4143 32.7698 19.7303 33.2266 18.0639 33.4212C16.8833 33.5595 15.7944 33.7622 14.7296 34.227C13.6986 34.6774 12.6531 34.9991 11.5031 34.7562C11.3519 34.724 11.1477 34.8607 10.9884 34.9524C9.53761 35.7824 8.00799 36.3083 6.31752 35.9979C4.66566 35.6939 3.78102 34.56 3.89522 32.8856C3.96599 31.8546 4.16543 30.8316 4.30697 29.7974C4.33593 29.7877 4.25068 29.807 4.17187 29.8408C3.37247 30.1834 2.58756 29.7765 2.49909 28.8999C2.40902 28.0088 2.16454 27.3542 1.13353 27.2239C0.594705 27.1563 0.15721 26.8025 0.0253179 26.2379C-0.108182 25.6621 0.2698 25.3227 0.694428 25.0075C1.41662 24.4719 1.80586 23.8719 1.34424 22.8924C0.972687 22.1058 1.27025 21.7053 2.1388 21.6008C3.32583 21.4576 4.53055 21.44 5.70471 21.2325C7.42895 20.9269 7.81497 20.3896 7.98386 18.6606C8.22191 16.2141 8.47926 13.7709 8.79451 11.3341C8.86046 10.8259 9.11137 10.2501 9.46523 9.88656C11.1798 8.11567 13.2595 7.00746 15.7317 6.67934C16.8576 6.52975 17.8162 7.01067 18.799 7.41439C19.6305 7.75538 19.6177 7.75699 19.9313 6.89004C20.565 5.14006 22.0255 4.42913 23.6661 3.94821C25.1475 3.51393 26.3458 4.06884 27.4492 5.00013C28.0861 5.53734 28.0909 5.52609 28.3145 4.72991C28.5574 3.86779 29.1123 3.22281 29.8457 2.76118C31.6906 1.60311 33.7317 1.16883 35.8886 1.31198C37.0467 1.38919 38.0294 1.92641 38.7693 2.80783C39.1682 3.28393 39.3661 3.17616 39.7103 2.77566C40.8265 1.47444 42.1551 0.456295 43.8858 0.152301C46.1344 -0.243374 48.2237 0.0831384 49.9689 1.71088C50.038 1.77843 50.1378 1.82025 50.3919 1.97788ZM49.1019 22.9824C49.0537 22.5498 49.0151 22.0512 48.9411 21.5574C48.539 18.9115 46.1826 17.2146 43.5496 17.6183C41.7305 17.8982 40.278 18.8279 39.1167 20.1693C36.5433 23.1385 35.8934 26.6851 36.4532 30.4472C36.8167 32.8936 38.4525 34.0807 40.7445 33.8925C42.4912 33.7493 44.0241 33.0915 45.3559 31.9479C48.0838 29.6028 48.8044 26.4213 49.1019 22.9824ZM32.0252 3.21637C31.6247 3.40778 31.2451 3.61044 30.8494 3.7745C29.9889 4.13318 29.598 4.76851 29.5466 5.69819C29.4935 6.63108 29.3439 7.55915 29.2345 8.48883C28.9128 11.2135 28.5654 13.935 28.2775 16.6645C28.0941 18.3984 28.7053 18.852 30.3846 18.3292C30.4473 18.3099 30.5068 18.281 30.5695 18.2665C31.1502 18.1266 31.4606 17.784 31.4719 17.1631C31.4783 16.7723 31.5491 16.3846 31.5925 15.9938C31.9222 13.0294 32.2857 10.0667 32.5608 7.09592C32.6283 6.35926 33.0529 6.24506 33.5741 6.16946C34.1226 6.08904 34.6855 6.0633 34.9573 6.71955C35.3804 7.74251 34.7627 9.21101 33.6947 9.5134C32.9532 9.7225 32.5222 10.1037 32.5608 10.8693C32.5929 11.503 32.5511 12.2429 32.8599 12.7319C33.1527 13.1951 33.4148 13.6246 33.5532 14.1553C33.7333 14.8486 33.8925 15.5611 34.1917 16.2061C34.3767 16.605 34.7418 17.057 35.131 17.1969C35.969 17.4993 36.643 17.0168 37.1866 16.4007C37.8654 15.6319 37.949 15.1349 37.5566 14.3934C37.1609 13.6423 36.7781 12.8831 36.3406 12.1561C36.0704 11.7073 36.1009 11.4146 36.4837 11.0302C38.0021 9.50536 38.6326 7.64118 38.4669 5.49713C38.3849 4.442 37.9345 3.61366 37.0097 3.08931C35.7181 2.35586 34.3863 2.573 33.032 2.92042C33.0803 3.13917 33.0787 3.30644 33.1511 3.43351C33.4921 4.03185 33.2476 4.47417 32.8535 4.94544C32.1956 5.73036 31.5603 6.53779 30.9813 7.38061C30.7384 7.73447 30.555 8.19448 30.5261 8.61911C30.3508 11.2199 30.2269 13.8256 30.087 16.4281C30.0227 14.6572 30.1529 12.8799 29.9889 11.1283C29.775 8.84268 30.2929 6.882 31.9045 5.243C32.5045 4.63501 32.535 4.01094 32.0252 3.21637ZM23.293 9.7997C23.4409 10.086 23.531 10.1889 23.5439 10.2999C23.642 11.1009 23.6951 11.9068 23.8189 12.7029C23.9251 13.3881 23.6822 13.6744 22.9906 13.7741C22.0094 13.9157 21.7569 14.2679 21.744 15.2764C21.7392 15.6222 21.7746 15.9729 21.8341 16.3139C21.9724 17.0988 22.2973 17.2854 23.0822 17.0682C24.0039 16.8125 24.0039 16.8125 24.1004 17.7824C24.1052 17.8258 24.1116 17.8692 24.1165 17.9127C24.3256 19.6079 24.9014 19.9232 26.4664 19.1978C26.5854 19.1431 26.7012 19.082 26.8122 19.0144C27.5071 18.5882 27.6759 18.1748 27.5794 17.3738C27.3173 15.1896 27.0792 13.0021 26.8235 10.8162C26.6465 9.30109 26.468 7.78755 26.2637 6.27562C26.1608 5.50839 25.8166 5.14328 25.1427 5.1465C23.7063 5.15293 21.6845 5.77861 21.0508 7.79076C20.4766 9.61473 19.7721 11.3969 19.1512 13.2064C18.4033 15.3858 17.665 17.5684 16.9589 19.7624C16.6871 20.6068 17.0667 21.0684 17.9433 21.0829C19.2107 21.1038 19.8975 20.5939 20.2804 19.3329C21.1521 16.4635 22.0159 13.5908 22.8925 10.7213C22.9713 10.464 23.108 10.2227 23.293 9.7997ZM51.5242 31.6246C53.234 31.623 54.7845 31.105 56.1967 30.1705C57.9306 29.0237 58.6641 27.351 58.6239 25.3163C58.6062 24.422 58.2797 23.5888 57.4883 23.1513C56.4702 22.59 55.3732 22.1702 54.2988 21.715C53.9128 21.5509 53.4704 21.4657 53.4736 20.9333C53.4769 20.4089 53.8645 20.1822 54.2956 20.0406C55.1931 19.7479 56.089 19.8026 56.9993 20.0374C57.2776 20.1098 57.6974 20.1066 57.8936 19.9441C58.7541 19.2364 58.4694 17.3513 57.4417 16.9428C53.4318 15.352 49.5458 18.2086 49.6231 22.0785C49.652 23.5583 50.3082 24.4912 51.6947 24.993C52.4507 25.2664 53.234 25.4707 53.9707 25.7876C54.3358 25.9436 54.873 26.2717 54.8842 26.5403C54.8987 26.9102 54.524 27.3252 54.2441 27.663C54.0929 27.8447 53.8034 27.9396 53.5589 28.012C52.5279 28.3144 51.5435 28.2131 50.6026 27.6566C50.4064 27.5408 50.0782 27.4619 49.8949 27.5472C49.1872 27.8801 48.613 29.384 48.8027 30.259C48.9716 31.0407 49.6327 31.5007 50.6798 31.5683C50.9597 31.586 51.2411 31.6053 51.5242 31.6246ZM50.8358 10.8661C50.7892 12.0949 51.1302 13.1597 52.0051 14.0331C52.9911 15.0159 54.2425 15.0947 55.5308 15.0641C58.0818 15.0046 60.2805 13.2611 60.7309 10.7519C61.0992 8.69792 61.2923 6.61178 61.5625 4.54011C61.807 2.65664 61.3389 2.1162 59.4426 2.09368C59.2898 2.09207 59.137 2.10977 58.9858 2.10012C58.619 2.0776 58.5177 2.25774 58.4791 2.60677C58.2298 4.85698 57.9821 7.10879 57.6717 9.35095C57.5816 10.0008 57.3934 10.6795 57.0701 11.2409C56.6567 11.9566 55.7431 12.1786 55.0692 11.9035C54.4725 11.6591 54.1267 10.9932 54.2055 10.1552C54.3004 9.15794 54.4178 8.16392 54.5352 7.1683C54.6912 5.85099 54.8826 4.53529 55.0097 3.21476C55.1191 2.0776 54.5706 1.49535 53.4238 1.47444C53.0555 1.468 52.6694 1.47926 52.3252 1.58703C52.1242 1.65136 51.8877 1.90228 51.8443 2.10816C51.7221 2.68076 51.6915 3.27106 51.6256 3.85492C51.3602 6.19359 51.098 8.53064 50.8358 10.8661ZM27.9815 23.7802C27.8915 23.9089 27.8207 23.9893 27.7708 24.0826C26.3956 26.6561 25.8954 29.4098 26.1962 32.2953C26.4037 34.2833 27.4636 35.5733 29.1316 35.9561C31.2949 36.4531 33.1977 35.784 34.8383 34.412C35.7632 33.6383 35.9433 32.5173 35.6232 31.3576C35.435 30.674 35.2533 30.6643 34.671 31.0407C34.055 31.438 33.4181 31.8433 32.7329 32.0814C31.422 32.5382 30.3025 31.9237 29.9615 30.5855C29.4468 28.5573 29.8039 26.6223 30.9732 24.9158C32.2278 23.0838 33.4358 22.7637 35.5251 23.4457C35.694 23.5004 35.9642 23.4585 36.1058 23.3524C36.7266 22.894 37.1561 21.4207 36.8842 20.6486C36.5786 19.78 35.8629 19.4616 35.0072 19.3651C33.1848 19.1624 31.7228 19.9908 30.3041 20.9751C29.3182 21.6603 28.7649 22.434 29.3841 23.6837C29.7701 24.4606 29.6286 25.2552 29.2892 26.0578C28.8228 27.1563 28.4818 28.308 28.0378 29.4178C27.8352 29.9261 27.8625 30.3057 28.2614 30.7013C29.1268 31.557 29.7476 32.5108 29.3214 33.8185C29.2779 33.9504 29.3278 34.1128 29.3358 34.293C30.547 34.1176 31.7212 33.9488 32.8953 33.7783C32.9001 33.8104 32.9034 33.8426 32.9082 33.8748C31.5941 34.1257 30.2816 34.3766 28.8292 34.6549C28.9675 32.9982 28.4126 31.623 27.6647 30.3008C27.5714 30.1368 27.6132 29.873 27.647 29.6655C27.7387 29.0865 27.8834 28.5139 27.9639 27.9332C28.152 26.5805 28.6796 25.2278 27.9815 23.7802ZM74.1614 23.5679C73.5662 23.5679 73.1271 23.5197 72.7057 23.5872C72.4757 23.6242 72.1605 23.8124 72.0849 24.0086C71.612 25.2246 72.2377 26.0948 73.5228 26.0706C74.4879 26.0529 74.4895 26.0546 74.5972 27.0084C74.6889 27.819 74.9109 28.1391 75.7199 28.1745C76.3713 28.2034 77.0388 28.0345 77.6887 27.9027C78.1133 27.8158 78.1808 27.4941 78.0908 27.0888C77.5342 24.5603 76.9456 22.0367 76.4662 19.4937C76.2427 18.3099 75.5993 17.6682 74.4814 17.4816C73.8027 17.369 73.0998 17.3594 72.4082 17.361C71.7519 17.3626 71.3321 17.7438 71.0651 18.3341C70.5729 19.4246 70.0341 20.4942 69.5612 21.5928C68.7634 23.4489 67.9753 25.3115 67.2451 27.1949C67.1068 27.552 67.0971 28.1166 67.2917 28.4173C67.9158 29.3856 69.8089 29.2489 70.2641 28.2066C70.7675 27.0534 71.1327 25.8406 71.5959 24.6681C72.1798 23.1915 72.8006 21.7295 73.4054 20.261C73.4649 20.2754 73.5228 20.2915 73.5823 20.306C73.7657 21.3499 73.9506 22.3905 74.1614 23.5679ZM11.5289 9.89782C10.6764 10.4527 10.1408 11.0253 10.041 12.0129C9.88021 13.6133 9.58908 15.2008 9.35907 16.7948C9.08242 18.712 8.78647 20.6261 8.56129 22.5498C8.52429 22.8634 8.72374 23.4055 8.96179 23.5132C9.95419 23.9588 11.5884 22.9519 11.7428 21.8549C12.1561 18.9018 12.5566 15.9471 12.9523 12.9908C13.0697 12.111 13.5217 11.6784 14.4096 11.6526C14.9741 11.6365 15.3392 11.9614 15.2958 12.5308C15.2041 13.7339 14.7441 14.7585 13.5619 15.233C12.9443 15.4807 12.748 15.9037 12.6998 16.4715C12.6676 16.8398 12.6676 17.2146 12.695 17.5829C12.7529 18.3968 13.1952 18.6622 13.9383 18.2987C17.2243 16.6886 18.6253 13.9237 18.5384 10.5894C18.4821 8.47596 17.2549 7.6267 15.2138 8.13819C15.0401 8.18161 14.8229 8.2926 14.7457 8.43736C13.9013 10.0056 12.9925 11.5481 12.28 13.1758C11.5578 14.8245 11.0656 16.5728 10.4158 18.2552C9.9928 19.349 9.70328 20.4347 9.91237 21.6169C9.96706 21.9257 9.92042 22.2538 9.92042 22.5739C9.81265 22.3986 9.77083 22.2152 9.72419 22.0319C9.38481 20.7049 9.31565 19.4262 9.86412 18.0912C10.4319 16.7095 10.7295 15.2185 11.2538 13.816C11.7251 12.555 11.5835 11.2939 11.5289 9.89782ZM65.1621 5.86868C65.8152 5.19957 66.5229 4.99852 67.3979 5.39902C68.0461 5.69497 68.7522 5.86547 69.4342 6.08261C69.7655 6.18876 70.671 5.84456 70.8158 5.56951C71.0153 5.19475 70.7483 4.76047 70.1403 4.5948C68.4643 4.1364 66.7835 3.69086 65.0978 3.26945C63.4926 2.86734 63.1661 3.10539 62.9522 4.7283C62.5951 7.44656 62.238 10.1648 61.8681 12.8815C61.696 14.1473 62.0321 14.6459 63.2851 14.7601C65.1059 14.9274 66.9314 15.048 68.7554 15.1864C69.3811 15.233 69.7478 14.9387 69.8475 14.321C69.8781 14.128 69.8958 13.9318 69.9022 13.7372C69.9312 12.8075 69.9312 12.7817 69.0304 12.6498C67.7662 12.4649 66.4972 12.3185 65.1766 12.1496C65.204 11.7829 65.2104 11.4821 65.2506 11.1862C65.3696 10.3047 65.4179 10.2838 66.28 10.4302C67.0939 10.5685 67.911 10.7004 68.7313 10.7921C69.3618 10.8629 69.7526 10.5621 69.9086 9.92355C70.1853 8.78799 70.055 8.54995 68.9162 8.32798C68.0332 8.15588 67.147 7.99825 66.1851 7.81972C66.1369 8.6175 66.095 9.31556 66.0516 10.0458C65.3712 9.07751 65.8136 8.04007 65.8055 7.06214C65.7975 6.10995 65.9213 6.10191 66.8542 6.311C67.7228 6.50562 68.5881 6.72437 69.4567 6.91899C70.1242 7.06858 70.3349 6.9962 70.4893 6.71311C70.248 6.69703 69.9376 6.73402 69.6642 6.64877C69.0015 6.44129 68.3501 6.1952 67.7067 5.93302C66.8687 5.59364 66.0404 5.27678 65.1621 5.86868ZM43.1314 12.7367C42.3063 12.251 41.9058 11.4918 41.9009 10.612C41.8961 9.64046 41.9283 8.63037 42.1937 7.70713C42.4366 6.85948 42.911 6.02792 43.4643 5.33468C43.9388 4.74117 44.698 4.42913 45.5264 4.69774C46.3724 4.97278 46.7439 5.63385 46.8823 6.45737C46.9386 6.79193 46.9691 7.13131 47.0303 7.61223C47.2281 7.19082 47.3938 6.89326 47.5112 6.57961C47.8087 5.78344 48.1915 5.08698 49.1116 4.86341C49.2419 4.83124 49.4027 4.64949 49.43 4.51277C49.5844 3.75681 49.5651 3.02014 48.8414 2.53279C48.3942 2.23201 47.9374 1.9071 47.4372 1.72857C44.9779 0.851971 42.5266 1.53716 40.8346 3.54128C38.824 5.92176 38.3013 8.73331 38.5361 11.7395C38.6133 12.7319 38.8465 13.7002 39.4996 14.6861C39.9612 13.2771 41.0211 13.2659 42.1181 13.3785C42.6247 13.4348 42.9609 13.2739 43.1314 12.7367ZM62.6256 16.7626C61.7812 16.7626 60.9979 16.7546 60.2146 16.7642C59.4168 16.7739 58.9697 17.0811 58.8008 17.8499C58.6946 18.3276 58.7155 18.8375 58.7123 19.3345C58.7091 19.7656 58.9391 19.9409 59.3847 19.9103C60.102 19.8589 60.8274 19.9007 61.5383 19.8138C62.1061 19.7431 62.2445 19.9489 62.1801 20.4524C62.0161 21.7488 61.8504 23.0452 61.704 24.3448C61.5416 25.794 61.3904 27.2448 61.2553 28.6972C61.2022 29.2714 61.4853 29.6462 62.0756 29.6382C62.6787 29.6301 63.2787 29.5336 63.8802 29.4741C64.4158 29.421 64.6555 29.1395 64.7182 28.5895C65.0287 25.8632 65.3809 23.1417 65.6929 20.4154C65.7476 19.9409 65.8811 19.6884 66.4071 19.7495C66.7738 19.7929 67.147 19.7768 67.5185 19.78C68.7457 19.7945 69.3988 19.1705 69.3441 17.94C69.3296 17.6264 69.1286 17.1293 68.9002 17.0554C68.3372 16.8688 67.6198 16.5471 67.1357 17.0988C66.2655 18.088 65.3648 19.0772 65.0431 20.4363C64.9691 20.7467 64.6442 21.0137 64.3933 21.2598C64.1665 21.4834 63.7178 21.6088 63.655 21.8517C63.3189 23.169 62.4825 24.4268 63.0631 25.8792C63.0873 25.9371 63.0857 26.0095 63.0824 26.0739C63.0808 26.1157 63.0535 26.1575 63.039 26.1993C62.9634 26.1977 62.8862 26.1977 62.8106 26.1961C62.7736 25.3726 62.6337 24.5378 62.7254 23.7288C62.875 22.4131 63.1822 21.115 63.4073 19.8074C63.4427 19.6031 63.4395 19.3731 63.3816 19.1753C63.1516 18.3839 62.891 17.6006 62.6256 16.7626ZM48.4843 5.78826C47.9551 6.79675 47.4227 7.74573 46.9579 8.72527C46.7472 9.16919 46.7118 9.69515 46.522 10.1519C46.2984 10.6892 46.0266 11.2135 45.7162 11.7041C45.3736 12.2477 44.9779 12.7608 44.5726 13.2611C44.4423 13.4219 44.2187 13.5763 44.0225 13.5988C43.3308 13.6809 42.6328 13.7162 41.9379 13.75C40.6834 13.8111 40.6978 13.8079 40.463 15.0062C40.3762 15.4501 40.4775 15.7831 40.9278 15.8362C41.8463 15.9471 42.792 16.1402 43.6927 16.0308C46.337 15.7091 48.1063 14.1328 49.2628 11.7974C50.3565 9.58739 50.6911 7.29537 50.0509 4.72348C49.911 5.27517 49.8112 5.66924 49.7035 6.09386C49.2869 5.99253 48.9121 5.89763 48.4843 5.78826ZM5.08224 32.81C5.05972 33.9311 5.36372 34.4683 6.13577 34.6645C7.8391 35.1004 9.87377 33.8603 10.152 32.1473C10.4592 30.259 10.6812 28.3562 10.9402 26.4599C11.0093 25.9581 10.7327 25.7843 10.2887 25.802C9.61642 25.8294 9.24487 26.2138 9.14515 26.9858C9.06955 27.5713 8.93123 28.0667 8.27177 28.2967C6.27088 28.9948 5.12567 30.6434 5.08224 32.81ZM20.2305 27.0212C20.4541 26.9231 20.6567 26.8218 20.8674 26.7414C21.2502 26.5934 21.6298 26.4165 22.0271 26.336C22.2121 26.2974 22.4373 26.4534 22.6431 26.5226C22.4968 26.6706 22.3745 26.862 22.1992 26.9585C21.5365 27.3188 20.7902 27.5601 20.1983 28.0088C19.3812 28.6264 19.1898 29.791 19.6161 30.6016C19.9892 31.3093 20.7532 31.594 21.7875 31.2643C22.6962 30.9748 23.7562 30.637 23.9942 29.6189C24.3014 28.2967 24.3642 26.9086 24.451 25.5447C24.4912 24.927 24.0698 24.5651 23.4361 24.4767C22.5756 24.3577 21.8019 24.5893 21.0653 25.0091C20.1822 25.5125 20.0069 25.9066 20.2305 27.0212ZM12.2961 31.5634C12.2896 31.4814 12.2848 31.3978 12.2784 31.3158C12.4923 31.1871 12.695 31.0343 12.9218 30.9313C13.5732 30.6338 14.2407 30.3716 14.8889 30.0676C15.6304 29.7186 15.9424 28.6956 15.6271 27.7273C15.373 26.9488 14.7554 26.5886 13.89 26.7204C11.4677 27.0872 9.68719 30.6 10.8163 32.773C11.0592 33.2411 11.4195 33.4936 11.9454 33.5274C13.007 33.5981 13.9174 33.1622 14.7039 32.5414C14.9854 32.3194 15.0899 31.7774 15.1253 31.3688C15.1575 30.9925 14.9403 30.7673 14.4916 31.0423C14.0879 31.29 13.6552 31.5168 13.2032 31.6455C12.9314 31.7243 12.6001 31.5988 12.2961 31.5634ZM75.3033 13.2804C75.1119 12.6885 74.9238 11.9856 74.6567 11.3132C74.2884 10.3884 74.0488 10.2629 73.0515 10.2919C72.3245 10.3128 72.035 10.8259 72.413 11.4403C72.5143 11.606 72.6446 11.7588 72.7797 11.9003C73.2462 12.3877 73.2429 12.8975 72.881 13.4396C72.7009 13.7114 72.4918 13.9784 72.3872 14.2792C72.3117 14.4963 72.2924 14.8454 72.4162 14.9885C72.532 15.122 72.873 15.0898 73.1127 15.0786C73.2542 15.0722 73.3941 14.9724 73.5276 14.9001C74.6535 14.2921 74.6535 14.3098 75.4883 15.2298C75.6942 15.4566 76.1719 15.7348 76.3183 15.6464C76.5756 15.492 76.6866 15.0786 76.8298 14.7601C76.8796 14.6507 76.8539 14.4996 76.8378 14.3709C76.7316 13.512 77.1305 12.9989 77.8801 12.6096C78.2838 12.4005 78.8419 11.9856 78.8564 11.643C78.8821 11.0157 78.1857 11.0559 77.6999 10.9835C77.0839 10.8918 76.7751 10.5589 76.8217 9.9139C76.8442 9.61151 76.8571 9.29787 76.8072 9.00031C76.7236 8.50169 76.3537 8.37784 75.9435 8.67862C75.3805 9.09038 74.9447 10.7085 75.313 11.2875C75.8036 12.0579 75.3838 12.7238 75.3033 13.2804ZM3.50758 25.2584C3.27114 24.6391 2.81435 24.0424 3.3387 23.3492C3.41108 23.2543 3.35156 22.9197 3.25506 22.8634C2.94624 22.6833 2.59077 22.5803 2.25461 22.4484C2.1758 22.7814 2.05516 23.1111 2.03104 23.4489C2.00048 23.8687 2.15328 24.3223 2.0423 24.7083C1.86215 25.334 1.71257 25.8953 2.32699 26.3988C2.18866 26.513 2.04873 26.6272 1.9104 26.743C1.65145 26.2685 1.3941 25.7956 1.13514 25.3211C1.05954 25.3308 0.985555 25.342 0.909958 25.3517C0.779675 25.6171 0.499807 25.9243 0.559319 26.1382C0.625265 26.3762 0.979121 26.5676 1.24612 26.7076C1.44878 26.8137 1.70935 26.8137 1.94579 26.8523C2.50874 26.9424 2.82882 27.2882 2.96876 27.819C3.02344 28.0281 3.00736 28.2726 3.10869 28.4511C3.26953 28.7326 3.45933 29.0575 3.72311 29.191C3.84857 29.2537 4.21208 28.9514 4.40187 28.7519C4.70587 28.4318 4.53859 28.1198 4.28928 27.8319C4.11235 27.6276 3.95794 27.4024 3.76815 27.1515C4.47747 27.0341 5.09511 26.9312 5.73366 26.825C5.60659 26.2283 5.48918 25.6975 5.3798 25.1651C5.21735 24.3689 5.27204 24.2322 6.01996 23.6113C5.1498 24.8965 6.3336 25.9661 6.2371 27.1579C5.77387 27.2207 5.32833 27.2802 4.88119 27.3397C4.88762 27.4056 4.89405 27.47 4.89888 27.5359C5.12406 27.5359 5.34924 27.5198 5.57281 27.5408C5.83177 27.5649 6.09395 27.6035 6.34647 27.6662C6.72767 27.7627 7.17964 27.8303 7.28902 27.3976C7.35979 27.121 7.17482 26.677 6.95768 26.4454C6.03443 25.4514 6.03604 25.4787 6.50892 24.2081C6.61347 23.9266 6.6183 23.4408 6.4478 23.2704C6.27731 23.0999 5.82212 23.1562 5.50526 23.206C5.00504 23.2848 4.51285 23.4312 4.02389 23.5695C3.63143 23.6805 3.27758 23.8413 3.3773 24.3689C3.43842 24.66 3.46737 24.9608 3.50758 25.2584ZM19.8316 24.0086C19.8799 23.4666 19.6322 23.2173 19.1014 23.3041C18.5481 23.3958 18.1234 23.6596 18.0398 24.2772C17.9336 25.0525 17.8194 25.8262 17.7229 26.603C17.5219 28.2211 17.3353 29.8392 17.1326 31.4573C17.0715 31.9463 17.3337 32.1393 17.7551 32.1763C18.2746 32.2229 18.881 31.779 18.9486 31.2546C19.2558 28.8404 19.5389 26.4229 19.8316 24.0086ZM45.9172 16.0453C46.4673 17.0232 48.2687 17.71 49.5185 17.3143C50.5045 17.0039 50.9967 16.2913 51.1639 15.3182C51.2524 14.8052 51.135 14.44 50.4996 14.3709C50.1458 14.3323 49.808 14.1264 49.4702 13.98C49.0167 13.7838 48.6162 13.7613 48.206 14.1248C47.4694 14.7778 46.6989 15.3922 45.9172 16.0453Z" fill="black"/>
<path d="M49.1014 22.9825C48.8022 26.4213 48.0832 29.6028 45.3537 31.9479C44.0219 33.0915 42.4891 33.7493 40.7423 33.8925C38.4503 34.0807 36.8145 32.8937 36.451 30.4472C35.8929 26.6851 36.5427 23.1401 39.1146 20.1693C40.2775 18.8263 41.7283 17.8966 43.5474 17.6183C46.1805 17.2146 48.5368 18.9115 48.9389 21.5574C49.0161 22.0512 49.0547 22.5514 49.1014 22.9825ZM45.4245 24.0762C45.3811 23.74 45.3521 23.2816 45.2604 22.8361C45.0481 21.8115 44.3951 21.1505 43.5491 21.1328C42.7368 21.1151 42.0773 21.5124 41.5417 22.085C39.8786 23.8671 39.3703 26.0385 39.7017 28.3723C39.9606 30.1947 41.8312 30.8284 43.2708 29.6768C43.5732 29.4355 43.8402 29.1347 44.075 28.8259C45.1125 27.4555 45.3151 25.8407 45.4245 24.0762Z" fill="white"/>
<path d="M32.0258 3.21626C32.534 4.01083 32.5051 4.6349 31.9084 5.24289C30.2967 6.88349 29.7788 8.84257 29.9927 11.1282C30.1568 12.8797 30.0249 14.6571 30.0908 16.428C30.2308 13.8239 30.3546 11.2198 30.5299 8.619C30.5589 8.19437 30.7422 7.73436 30.9851 7.3805C31.5641 6.53768 32.1995 5.73024 32.8573 4.94533C33.2514 4.47406 33.4959 4.03174 33.1549 3.4334C33.0825 3.30633 33.0841 3.13905 33.0359 2.92031C34.3902 2.57128 35.7203 2.35575 37.0135 3.08919C37.9384 3.61354 38.3887 4.44189 38.4708 5.49702C38.638 7.64107 38.0059 9.50364 36.4876 11.03C36.1048 11.4145 36.0742 11.7072 36.3444 12.1559C36.7819 12.883 37.1631 13.6421 37.5604 14.3933C37.9529 15.1364 37.8692 15.6318 37.1905 16.4006C36.6468 17.0166 35.9729 17.4992 35.1349 17.1968C34.7456 17.0569 34.3805 16.6049 34.1955 16.206C33.898 15.561 33.7388 14.8485 33.557 14.1552C33.4187 13.6261 33.1565 13.195 32.8638 12.7318C32.5533 12.2412 32.5952 11.5029 32.5646 10.8692C32.526 10.1036 32.9587 9.72238 33.6985 9.51329C34.7649 9.21251 35.3842 7.74401 34.9612 6.71943C34.6893 6.06319 34.1264 6.08893 33.5779 6.16935C33.0552 6.24494 32.6321 6.35914 32.5646 7.09581C32.2895 10.0666 31.926 13.0277 31.5963 15.9937C31.5529 16.3829 31.4821 16.7722 31.4757 17.163C31.4644 17.7839 31.154 18.1265 30.5733 18.2664C30.5106 18.2809 30.4511 18.3098 30.3884 18.3291C28.7092 18.8519 28.098 18.3983 28.2813 16.6644C28.5692 13.9365 28.9167 11.2134 29.2383 8.48871C29.3477 7.55904 29.4989 6.63097 29.5504 5.69808C29.6035 4.7684 29.9927 4.13307 30.8532 3.77439C31.2473 3.61033 31.6269 3.40766 32.0258 3.21626Z" fill="white"/>
<path d="M23.2923 9.79981C23.1073 10.2228 22.9706 10.4641 22.8918 10.7231C22.0168 13.5925 21.1515 16.4636 20.2797 19.3346C19.8969 20.5956 19.2101 21.1055 17.9426 21.0846C17.066 21.0701 16.6848 20.6101 16.9583 19.7641C17.6644 17.5718 18.4026 15.3875 19.1506 13.2081C19.7714 11.3986 20.4759 9.61484 21.0501 7.79248C21.6838 5.78033 23.7073 5.15465 25.142 5.14821C25.8159 5.145 26.1601 5.51011 26.2631 6.27734C26.4673 7.78766 26.6459 9.30281 26.8228 10.818C27.0785 13.0038 27.3166 15.1897 27.5788 17.3755C27.6753 18.1765 27.5064 18.5883 26.8115 19.0162C26.7006 19.0837 26.5848 19.1448 26.4657 19.1995C24.9007 19.9233 24.3265 19.6081 24.1158 17.9144C24.111 17.8709 24.1045 17.8275 24.0997 17.7841C24.0032 16.8142 24.0032 16.8142 23.0816 17.0699C22.2967 17.2871 21.9718 17.1005 21.8334 16.3156C21.7739 15.9746 21.7385 15.624 21.7434 15.2781C21.7546 14.2697 22.0087 13.9174 22.9899 13.7759C23.6799 13.6761 23.9228 13.3898 23.8182 12.7046C23.696 11.9085 23.6413 11.1026 23.5432 10.3016C23.5303 10.1891 23.4403 10.0861 23.2923 9.79981Z" fill="white"/>
<path d="M51.5246 31.6246C51.2415 31.6053 50.96 31.586 50.6769 31.5683C49.6298 31.5023 48.9688 31.0407 48.7999 30.259C48.6117 29.384 49.1843 27.8785 49.892 27.5472C50.0737 27.4619 50.4035 27.5408 50.5997 27.6566C51.5406 28.2131 52.525 28.316 53.556 28.012C53.8005 27.9396 54.09 27.8464 54.2412 27.663C54.5211 27.3268 54.8942 26.9102 54.8814 26.5403C54.8717 26.2717 54.3329 25.9436 53.9678 25.7876C53.2311 25.4723 52.4478 25.2664 51.6918 24.993C50.3054 24.4912 49.6491 23.5583 49.6202 22.0785C49.543 18.2086 53.4289 15.3504 57.4388 16.9428C58.4666 17.3513 58.7513 19.2364 57.8907 19.9441C57.6945 20.105 57.2747 20.1098 56.9965 20.0374C56.0877 19.8026 55.1918 19.7479 54.2927 20.0406C53.8616 20.1805 53.474 20.4073 53.4708 20.9333C53.4675 21.4657 53.9083 21.5509 54.2959 21.715C55.3703 22.1702 56.4673 22.59 57.4854 23.1513C58.2784 23.5888 58.6033 24.422 58.621 25.3163C58.6612 27.351 57.9294 29.0237 56.1938 30.1705C54.7849 31.105 53.2343 31.623 51.5246 31.6246Z" fill="white"/>
<path d="M50.8362 10.8661C51.0984 8.53063 51.3606 6.19358 51.6243 3.85813C51.6903 3.27426 51.7208 2.68236 51.8431 2.11137C51.8865 1.90709 52.123 1.65457 52.324 1.59023C52.6682 1.48086 53.0542 1.4696 53.4226 1.47764C54.5678 1.49855 55.1179 2.08081 55.0085 3.21797C54.8814 4.5385 54.69 5.85259 54.534 7.1715C54.4166 8.16552 54.2976 9.16114 54.2043 10.1584C54.1255 10.9964 54.4697 11.6639 55.068 11.9067C55.7419 12.1818 56.6555 11.9614 57.0689 11.2441C57.3938 10.6827 57.582 10.0024 57.6705 9.35415C57.9793 7.11199 58.2286 4.86018 58.4779 2.60998C58.5165 2.26095 58.6178 2.08081 58.9845 2.10332C59.1357 2.11297 59.2901 2.09367 59.4413 2.09689C61.3377 2.12102 61.8057 2.66145 61.5613 4.54332C61.291 6.61499 61.0996 8.70113 60.7297 10.7551C60.2793 13.2659 58.0806 15.0094 55.5296 15.0673C54.2413 15.0979 52.9899 15.0191 52.0039 14.0363C51.1306 13.1597 50.7896 12.0965 50.8362 10.8661Z" fill="white"/>
<path d="M27.9813 23.7801C28.6793 25.2277 28.1518 26.5804 27.9652 27.9363C27.8848 28.517 27.7416 29.0896 27.6483 29.6686C27.6145 29.8777 27.5743 30.1399 27.666 30.3039C28.4139 31.6277 28.9688 33.0013 28.8305 34.658C30.2829 34.3797 31.5954 34.1288 32.9095 33.8779C32.9047 33.8457 32.9015 33.8135 32.8966 33.7814C31.7225 33.9502 30.5467 34.1207 29.3372 34.2961C29.3291 34.1143 29.2793 33.9535 29.3227 33.8216C29.7489 32.5139 29.1265 31.5585 28.2627 30.7044C27.8622 30.3087 27.8349 29.9292 28.0392 29.4209C28.4831 28.3111 28.8241 27.161 29.2905 26.0609C29.6315 25.2583 29.7714 24.4637 29.3854 23.6868C28.7662 22.4387 29.3195 21.6634 30.3054 20.9782C31.7241 19.9938 33.1862 19.1655 35.0085 19.3682C35.8658 19.4631 36.58 19.7831 36.8856 20.6517C37.1574 21.4221 36.7263 22.8971 36.1071 23.3555C35.9639 23.4616 35.6953 23.5035 35.5264 23.4488C33.4371 22.7668 32.2291 23.0869 30.9746 24.9189C29.8052 26.627 29.4482 28.5604 29.9629 30.5886C30.3022 31.9284 31.4217 32.5413 32.7342 32.0845C33.4194 31.8464 34.0563 31.4411 34.6724 31.0438C35.2562 30.6674 35.4364 30.6771 35.6245 31.3607C35.9446 32.5187 35.7645 33.6398 34.8396 34.4151C33.2006 35.7871 31.2962 36.4562 29.1329 35.9592C27.465 35.5764 26.405 34.2848 26.1975 32.2984C25.8967 29.4129 26.3969 26.6592 27.7722 24.0857C27.8204 23.9892 27.8912 23.9088 27.9813 23.7801Z" fill="white"/>
<path d="M74.1618 23.5679C73.9511 22.3905 73.7661 21.3499 73.5812 20.3092C73.5217 20.2947 73.4638 20.2786 73.4042 20.2642C72.7995 21.7327 72.1786 23.1947 71.5948 24.6713C71.1315 25.8438 70.768 27.0566 70.263 28.2098C69.8078 29.2521 67.9146 29.3888 67.2906 28.4206C67.0976 28.1198 67.1056 27.5552 67.2439 27.1981C67.9742 25.3147 68.7607 23.4521 69.5601 21.596C70.033 20.4974 70.5718 19.4278 71.064 18.3373C71.331 17.7454 71.7508 17.3642 72.407 17.3642C73.0986 17.3626 73.7999 17.3722 74.4803 17.4848C75.5982 17.6698 76.2415 18.3115 76.4651 19.4969C76.946 22.0399 77.5331 24.5635 78.0896 27.092C78.1797 27.4989 78.1121 27.819 77.6875 27.9059C77.0377 28.0394 76.3702 28.2066 75.7188 28.1777C74.9097 28.1423 74.6878 27.8222 74.5961 27.0116C74.4883 26.0578 74.4867 26.0561 73.5217 26.0738C72.2365 26.0964 71.6108 25.2278 72.0837 24.0118C72.1609 23.814 72.4762 23.6274 72.7046 23.5904C73.1276 23.5196 73.5667 23.5679 74.1618 23.5679Z" fill="white"/>
<path d="M11.529 9.89778C11.5837 11.2939 11.7252 12.5549 11.2556 13.8143C10.7312 15.2169 10.4336 16.7079 9.86587 18.0895C9.31739 19.4245 9.38816 20.7033 9.72593 22.0302C9.77258 22.212 9.8144 22.3969 9.92216 22.5723C9.92216 22.2522 9.96881 21.9257 9.91412 21.6152C9.70502 20.433 9.99454 19.3473 10.4176 18.2536C11.0674 16.5712 11.5596 14.8228 12.2817 13.1742C12.9943 11.5464 13.903 10.0039 14.7475 8.43571C14.8247 8.29256 15.0418 8.17997 15.2155 8.13654C17.2566 7.62506 18.4839 8.47431 18.5402 10.5878C18.627 13.9221 17.2261 16.687 13.94 18.297C13.1969 18.6605 12.7546 18.3951 12.6967 17.5813C12.671 17.2129 12.671 16.8382 12.7015 16.4698C12.7498 15.9021 12.946 15.4791 13.5637 15.2314C14.7459 14.7569 15.2059 13.7323 15.2976 12.5292C15.341 11.9598 14.9759 11.6333 14.4113 11.651C13.5235 11.6767 13.0715 12.1094 12.9541 12.9892C12.5584 15.9455 12.1579 18.9002 11.7445 21.8533C11.5917 22.9486 9.95594 23.9571 8.96353 23.5116C8.72549 23.4038 8.52604 22.8618 8.56303 22.5481C8.78822 20.6244 9.08256 18.7104 9.36082 16.7931C9.59083 15.1992 9.88195 13.6117 10.0428 12.0113C10.1409 11.0253 10.6765 10.4527 11.529 9.89778Z" fill="white"/>
<path d="M65.162 5.86877C66.0403 5.27687 66.8686 5.59373 67.7066 5.93472C68.35 6.19689 69.0014 6.44299 69.6641 6.65047C69.9359 6.73572 70.2463 6.70034 70.4892 6.71481C70.3348 6.9979 70.1241 7.07028 69.4566 6.92069C68.5864 6.72607 67.7227 6.50732 66.8541 6.3127C65.9228 6.10361 65.7974 6.11165 65.8054 7.06384C65.8135 8.04177 65.3711 9.07921 66.0515 10.0475C66.0949 9.31726 66.1384 8.6192 66.185 7.82141C67.1452 7.99995 68.0315 8.15597 68.9161 8.32968C70.0549 8.55165 70.1852 8.78969 69.9085 9.92525C69.7525 10.5638 69.3617 10.8646 68.7312 10.7938C67.9109 10.7021 67.0938 10.5702 66.2799 10.4319C65.4178 10.2855 65.3695 10.3048 65.2505 11.1879C65.2103 11.4838 65.2039 11.7846 65.1765 12.1513C66.4954 12.3202 67.7661 12.4682 69.0303 12.6515C69.9311 12.7834 69.9311 12.8076 69.9021 13.7389C69.8957 13.9335 69.878 14.1313 69.8474 14.3227C69.7477 14.9404 69.381 15.2347 68.7553 15.1881C66.9313 15.0497 65.1058 14.9291 63.285 14.7618C62.0336 14.6476 61.6959 14.149 61.868 12.8832C62.2379 10.1665 62.5934 7.44826 62.9521 4.73C63.166 3.10709 63.4909 2.86904 65.0977 3.27115C66.7833 3.69256 68.4642 4.1381 70.1402 4.5965C70.7481 4.76217 71.0151 5.19645 70.8157 5.57121C70.6693 5.84626 69.7654 6.18885 69.4341 6.0843C68.7521 5.86556 68.046 5.69667 67.3978 5.40072C66.5212 4.99861 65.8151 5.19966 65.162 5.86877Z" fill="white"/>
<path d="M43.1314 12.7367C42.9609 13.2739 42.6231 13.4332 42.1165 13.3817C41.0211 13.2691 39.9595 13.2804 39.4979 14.6893C38.8449 13.7034 38.6117 12.7351 38.5345 11.7427C38.2996 8.73652 38.824 5.92497 40.8329 3.54449C42.525 1.53877 44.9779 0.855182 47.4356 1.73178C47.9358 1.91032 48.3926 2.23361 48.8397 2.536C49.5635 3.02496 49.5828 3.76002 49.4284 4.51598C49.4011 4.6527 49.2402 4.83445 49.1099 4.86662C48.1899 5.09019 47.8071 5.78665 47.5095 6.58282C47.3921 6.89808 47.2265 7.19403 47.0286 7.61544C46.9675 7.13452 46.9369 6.79514 46.8806 6.46058C46.7407 5.63545 46.3692 4.97439 45.5247 4.70095C44.6964 4.43234 43.9356 4.74438 43.4627 5.33789C42.9094 6.03113 42.4349 6.86269 42.1921 7.71034C41.9283 8.63358 41.8945 9.64368 41.8993 10.6152C41.9058 11.4934 42.3063 12.251 43.1314 12.7367Z" fill="white"/>
<path d="M62.6246 16.7627C62.89 17.6007 63.1506 18.384 63.3822 19.1753C63.4401 19.3732 63.4433 19.6032 63.4079 19.8075C63.1828 21.1151 62.8756 22.4131 62.726 23.7288C62.6343 24.5379 62.7758 25.3727 62.8112 26.1962C62.8868 26.1978 62.964 26.1978 63.0396 26.1994C63.0557 26.1576 63.0814 26.1157 63.083 26.0739C63.0863 26.0096 63.0863 25.9388 63.0637 25.8793C62.4831 24.4269 63.3179 23.1691 63.6556 21.8518C63.7184 21.6089 64.1671 21.4835 64.3939 21.2599C64.6432 21.0138 64.9697 20.7468 65.0437 20.4364C65.3654 19.0756 66.2661 18.088 67.1363 17.0989C67.6221 16.5472 68.3378 16.8688 68.9008 17.0554C69.1275 17.131 69.3302 17.6264 69.3447 17.9401C69.3994 19.1705 68.7463 19.7946 67.5191 19.7801C67.1492 19.7753 66.7744 19.7914 66.4077 19.7496C65.8817 19.6884 65.7482 19.941 65.6935 20.4154C65.3815 23.1417 65.0293 25.8632 64.7188 28.5895C64.6561 29.1396 64.4164 29.4227 63.8808 29.4742C63.2793 29.5337 62.6777 29.6302 62.0762 29.6382C61.4859 29.6463 61.2012 29.2715 61.2559 28.6973C61.391 27.2449 61.5422 25.7941 61.7046 24.3449C61.851 23.0468 62.015 21.7505 62.1807 20.4524C62.245 19.949 62.1067 19.7431 61.5389 19.8139C60.828 19.9024 60.1026 19.8605 59.3852 19.9104C58.9397 19.9426 58.7097 19.7672 58.7129 19.3346C58.7161 18.8392 58.6952 18.3293 58.8014 17.85C58.9703 17.0812 59.4174 16.7739 60.2152 16.7643C60.9969 16.7563 61.7802 16.7627 62.6246 16.7627Z" fill="white"/>
<path d="M48.4835 5.78837C48.9114 5.89614 49.2862 5.99104 49.7043 6.09719C49.8121 5.67257 49.9118 5.2785 50.0518 4.72681C50.6919 7.2987 50.3574 9.59072 49.2636 11.8007C48.1072 14.1362 46.3379 15.7108 43.6936 16.0341C42.7913 16.1435 41.8471 15.9505 40.9287 15.8395C40.4784 15.7848 40.377 15.4535 40.4639 15.0095C40.6987 13.8113 40.6842 13.8145 41.9388 13.7534C42.6353 13.7196 43.3333 13.6858 44.0234 13.6022C44.2196 13.578 44.4432 13.4236 44.5734 13.2644C44.9788 12.7642 45.3744 12.2511 45.717 11.7074C46.0275 11.2152 46.2993 10.6925 46.5229 10.1553C46.7127 9.69848 46.748 9.17252 46.9587 8.7286C47.422 7.74584 47.9544 6.79686 48.4835 5.78837Z" fill="white"/>
<path d="M5.0814 32.8099C5.12643 30.6418 6.27164 28.9947 8.27092 28.2967C8.93038 28.0667 9.06871 27.5713 9.14431 26.9858C9.24403 26.2138 9.61397 25.8309 10.2879 25.802C10.7318 25.7843 11.0085 25.958 10.9393 26.4598C10.6804 28.3562 10.4584 30.259 10.1512 32.1473C9.87293 33.8619 7.83826 35.1004 6.13492 34.6645C5.36287 34.4682 5.05727 33.9326 5.0814 32.8099ZM8.69877 29.8633C8.30148 30.0177 8.02162 30.0692 7.81252 30.2188C7.12894 30.7093 6.94396 31.4556 6.96487 32.2325C6.97131 32.4545 7.23348 32.7874 7.44901 32.8614C7.81895 32.9885 8.23071 32.8325 8.31918 32.3982C8.4768 31.6165 8.55883 30.8219 8.69877 29.8633Z" fill="white"/>
<path d="M20.2296 27.0212C20.0044 25.9066 20.1814 25.5109 21.0644 25.0075C21.8011 24.5877 22.5747 24.3545 23.4352 24.4751C24.0689 24.5635 24.4888 24.9254 24.4501 25.5431C24.3633 26.907 24.3022 28.2935 23.9934 29.6173C23.7569 30.6354 22.6953 30.9732 21.7866 31.2627C20.7524 31.5924 19.9867 31.3077 19.6152 30.6C19.189 29.7894 19.3787 28.6248 20.1974 28.0072C20.791 27.5601 21.5357 27.3172 22.1983 26.9569C22.3737 26.862 22.4959 26.669 22.6423 26.521C22.4348 26.4535 22.2112 26.2974 22.0262 26.3344C21.629 26.4165 21.2494 26.5934 20.8666 26.7398C20.6575 26.8234 20.4532 26.9231 20.2296 27.0212ZM22.475 28.6458C22.4042 28.6104 22.2176 28.4624 22.1662 28.4994C21.822 28.7487 21.5051 29.0366 21.1802 29.3133C21.3105 29.4226 21.4327 29.6076 21.5743 29.6237C21.9908 29.6752 22.4814 29.1814 22.475 28.6458Z" fill="white"/>
<path d="M12.2959 31.5634C12.5999 31.5972 12.9313 31.7242 13.2031 31.647C13.6534 31.5184 14.0877 31.2916 14.4914 31.0439C14.9386 30.7688 15.1573 30.994 15.1252 31.3704C15.0898 31.7789 14.9836 32.3194 14.7038 32.5429C13.9172 33.1654 13.0085 33.5997 11.9453 33.5289C11.4209 33.4935 11.059 33.241 10.8162 32.7745C9.68705 30.6016 11.4676 27.0887 13.8899 26.722C14.7552 26.5917 15.3745 26.9504 15.627 27.7289C15.9423 28.6972 15.6302 29.7201 14.8887 30.0692C14.2405 30.3732 13.573 30.6353 12.9216 30.9329C12.6964 31.0358 12.4922 31.187 12.2782 31.3173C12.2847 31.3977 12.2895 31.4814 12.2959 31.5634ZM12.5259 29.5722C12.9843 29.3743 13.3591 29.2296 13.7146 29.0462C13.8207 28.9915 13.8722 28.8274 13.9478 28.7149C13.8063 28.6409 13.6438 28.4832 13.5248 28.509C13.0229 28.62 12.6224 28.8709 12.5259 29.5722Z" fill="white"/>
<path d="M75.303 13.2803C75.3834 12.7238 75.8032 12.0579 75.3142 11.289C74.9459 10.7116 75.3818 9.0919 75.9447 8.68014C76.3549 8.37936 76.7248 8.50321 76.8085 9.00183C76.8583 9.29939 76.8439 9.61143 76.8229 9.91542C76.7763 10.5604 77.0851 10.8933 77.7011 10.985C78.1869 11.0574 78.8833 11.0188 78.8576 11.6445C78.8431 11.9855 78.285 12.4021 77.8813 12.6112C77.1318 13.0004 76.7329 13.5135 76.839 14.3724C76.8551 14.5011 76.8792 14.6523 76.831 14.7616C76.6878 15.0801 76.5769 15.4935 76.3195 15.6479C76.1731 15.7364 75.6938 15.4565 75.4896 15.2313C74.6548 14.3113 74.6564 14.2936 73.5289 14.9016C73.3954 14.974 73.2538 15.0737 73.1139 15.0801C72.8742 15.0914 72.5332 15.1235 72.4174 14.99C72.2936 14.8469 72.3129 14.4979 72.3885 14.2807C72.4946 13.9799 72.7021 13.7129 72.8823 13.4411C73.2426 12.8975 73.2474 12.3892 72.7809 11.9018C72.6458 11.7603 72.5156 11.6075 72.4142 11.4418C72.0362 10.8258 72.3258 10.3143 73.0528 10.2934C74.05 10.2645 74.2913 10.3899 74.658 11.3148C74.9234 11.9855 75.1116 12.6884 75.303 13.2803Z" fill="white"/>
<path d="M3.50827 25.2585C3.46806 24.9609 3.43911 24.6601 3.38281 24.3658C3.28309 23.8382 3.63695 23.6774 4.0294 23.5664C4.51837 23.4265 5.01055 23.2817 5.51077 23.2029C5.82764 23.153 6.28282 23.0967 6.45332 23.2672C6.62381 23.4377 6.61899 23.9235 6.51444 24.2049C6.04156 25.474 6.03834 25.4483 6.96319 26.4423C7.18033 26.6755 7.36369 27.1178 7.29453 27.3945C7.18355 27.8271 6.73319 27.7612 6.35199 27.6631C6.09946 27.5987 5.8389 27.5601 5.57833 27.5376C5.35476 27.5167 5.12957 27.5328 4.90439 27.5328C4.89796 27.4669 4.89153 27.4025 4.8867 27.3366C5.33224 27.2771 5.77777 27.2159 6.24261 27.1548C6.33912 25.963 5.15692 24.8934 6.02547 23.6082C5.27755 24.2291 5.22286 24.3658 5.38532 25.162C5.49469 25.6944 5.6105 26.2251 5.73917 26.8219C5.10062 26.928 4.48298 27.031 3.77366 27.1484C3.96346 27.3993 4.11787 27.6229 4.2948 27.8287C4.5441 28.1167 4.71138 28.4287 4.40739 28.7488C4.21759 28.9482 3.85248 29.2522 3.72863 29.1879C3.46323 29.0544 3.27344 28.7295 3.1142 28.448C3.01126 28.2695 3.02896 28.025 2.97427 27.8159C2.83434 27.2851 2.51426 26.9393 1.9513 26.8492C1.71486 26.8122 1.4543 26.8122 1.25164 26.7045C0.984635 26.5645 0.630779 26.3731 0.564833 26.1351C0.505321 25.9228 0.785189 25.6155 0.915472 25.3485C0.991069 25.3389 1.06506 25.3276 1.14065 25.318C1.39961 25.7925 1.65696 26.2653 1.91592 26.7398C2.05424 26.6256 2.19418 26.5114 2.3325 26.3956C1.71647 25.8922 1.86767 25.3308 2.04781 24.7052C2.15879 24.3191 2.00599 23.8656 2.03655 23.4458C2.06068 23.108 2.18131 22.7783 2.26012 22.4453C2.5979 22.5772 2.95175 22.6801 3.26057 22.8603C3.35708 22.9166 3.41498 23.2511 3.34421 23.346C2.81503 24.0425 3.27183 24.6392 3.50827 25.2585Z" fill="white"/>
<path d="M19.8324 24.0087C19.5396 26.423 19.2566 28.8404 18.9477 31.2547C18.8802 31.7791 18.2738 32.2214 17.7543 32.1763C17.3345 32.1393 17.0707 31.9463 17.1318 31.4574C17.3345 29.8409 17.5211 28.2212 17.7221 26.6031C17.8186 25.8262 17.9328 25.0526 18.039 24.2773C18.1242 23.6597 18.5472 23.3959 19.1005 23.3042C19.6329 23.2174 19.8806 23.4683 19.8324 24.0087Z" fill="white"/>
<path d="M45.918 16.0453C46.6997 15.3923 47.4717 14.7779 48.2084 14.1232C48.6169 13.7613 49.019 13.7838 49.4726 13.9785C49.8104 14.1248 50.1482 14.3307 50.502 14.3693C51.1373 14.4401 51.2548 14.8036 51.1663 15.3167C50.999 16.2882 50.5052 17.0007 49.5209 17.3128C48.2695 17.7084 46.4681 17.0232 45.918 16.0453Z" fill="white"/>
<path d="M45.4244 24.0762C45.3134 25.8407 45.1108 27.4556 44.0765 28.8243C43.8417 29.1348 43.5747 29.4339 43.2723 29.6752C41.8328 30.8268 39.9605 30.1947 39.7032 28.3708C39.3719 26.0369 39.8801 23.8655 41.5432 22.0834C42.0772 21.5108 42.7367 21.1135 43.5506 21.1312C44.3966 21.1489 45.0496 21.8116 45.2619 22.8345C45.352 23.2801 45.3826 23.7385 45.4244 24.0762Z" fill="black"/>
<path d="M8.70029 29.8633C8.56197 30.8219 8.47833 31.6181 8.3207 32.3966C8.23224 32.8308 7.82209 32.9869 7.45054 32.8598C7.23501 32.7858 6.97283 32.4529 6.9664 32.2309C6.94549 31.4524 7.13046 30.7061 7.81405 30.2171C8.02314 30.0692 8.3014 30.0177 8.70029 29.8633Z" fill="black"/>
<path d="M22.4764 28.6458C22.4813 29.1798 21.9923 29.6752 21.5757 29.6253C21.4342 29.6092 21.3135 29.4226 21.1816 29.3149C21.5065 29.0382 21.8234 28.7503 22.1676 28.501C22.2191 28.4624 22.4057 28.6104 22.4764 28.6458Z" fill="black"/>
<path d="M12.5254 29.5723C12.6219 28.8711 13.0224 28.6185 13.5242 28.5092C13.6449 28.4834 13.8057 28.641 13.9472 28.715C13.8717 28.8292 13.8202 28.9917 13.714 29.0464C13.3586 29.2297 12.9822 29.3745 12.5254 29.5723Z" fill="black"/>
</svg>
