<svg width="111" height="32" fill="none" xmlns="http://www.w3.org/2000/svg"><path d="M23.516 11.35c-.005 3.282-.022 6.564 0 9.846.003.563-.162.885-.672 1.168a586.917 586.917 0 0 0-8.033 4.567c-.432.248-.754.28-1.213.012-2.662-1.55-5.355-3.046-8.019-4.589-.497-.287-.874-.3-1.37 0-1.192.724-2.426 1.376-3.63 2.081-.442.26-.579.194-.579-.325.013-5 .008-10.002.011-15.002 0-.165-.073-.378.18-.456l4.672 2.672c.02.283.054.567.054.85.005 2.965.002 5.928.004 8.892 0 .836.008.843.72.44 2.608-1.477 5.205-2.97 7.826-4.422.523-.291.728-.6.722-1.212-.029-3.249 0-6.5.008-9.748.287-.011.484.187.706.314a7537.27 7537.27 0 0 1 8.613 4.913Z" fill="#000"/><path d="M4.862 11.324.19 8.65c2.845-1.637 5.685-3.277 8.532-4.908 1.71-.978 3.43-1.938 5.138-2.919.237-.136.413-.26.692-.058.318.229.686.387 1.029.582l12.798 7.267-4.866 2.736a5763.01 5763.01 0 0 0-8.613-4.91c-.222-.127-.42-.324-.706-.315-.237-.045-.4.114-.577.214l-8.754 4.985ZM90.178 18.172c.749-2.149 1.44-4.058 2.074-5.982.269-.812.726-1.206 1.62-1.146.788.051 1.585.012 2.377.01.62 0 .914.287.913.91-.008 2.995-.01 5.989 0 8.983.001.619-.275.891-.899.925-1.827.097-1.938.005-1.938-1.79v-5.73l-.16-.03-1.762 4.79c-.216.587-.455 1.167-.632 1.764-.234.793-.773 1.01-1.558 1.009-.79-.002-1.369-.155-1.657-.988-.699-2.017-1.451-4.015-2.181-6.021-.069-.186-.14-.37-.369-.53v1.263c0 1.745-.01 3.488.005 5.233.005.666-.246 1.01-.966 1.035-1.804.063-1.88.008-1.88-1.76 0-2.655-.003-5.312.002-7.966.001-.915.18-1.084 1.122-1.092.714-.006 1.427-.001 2.141-.001 1.097.001 1.287.137 1.654 1.182.586 1.67 1.17 3.34 1.754 5.01.084.232.172.465.34.922ZM59.697 17.229c1.4 1.127 2.074 2.628 2.96 3.974.234.354.09.66-.411.66-.556 0-1.111.013-1.665-.008-.578-.02-.98-.342-1.281-.803-.457-.7-.906-1.406-1.378-2.095-.438-.643-1.052-.985-1.849-1.06-.306-.028-.873.305-.844-.426.025-.656-.178-1.433.782-1.632.383-.078.787-.058 1.183-.072.474-.017.95-.003 1.408-.169.543-.198.917-.531.903-1.14-.015-.57-.381-.888-.89-1.072-.455-.164-.926-.2-1.405-.188-.947.025-2.196-.31-2.754.158-.58.486-.156 1.758-.17 2.685-.026 1.587-.003 3.175-.01 4.764-.003.853-.205 1.043-1.078 1.061-1.801.04-1.812.029-1.812-1.735 0-2.655-.003-5.31.001-7.966.002-.927.178-1.105 1.102-1.109 1.956-.006 3.911-.007 5.867.004.94.004 1.84.178 2.63.722 1.108.763 1.533 1.832 1.373 3.12-.148 1.186-.992 1.777-2.051 2.141-.167.055-.338.103-.611.186ZM75.105 21.913c-.965-.04-2.085.05-3.149-.358-.749-.288-1.44-.665-1.897-1.346-.458-.683-.452-1.465-.007-1.78.49-.347 1.914-.246 2.192.262.536.975 1.388 1.085 2.353 1.066.793-.016 1.586.023 2.378.014.497-.006.994-.114 1.099-.688.103-.566-.372-.749-.79-.92-.763-.309-1.579-.421-2.377-.586-1.114-.23-2.214-.497-3.254-.963-1.341-.599-1.91-1.488-1.808-2.808.094-1.233.834-2.15 2.16-2.482 2.004-.502 4.038-.448 6.051-.07.948.179 1.786.659 2.334 1.495.442.679.41 1.484-.04 1.775-.52.335-1.91.197-2.186-.314-.478-.884-1.227-1.053-2.124-1.032-.765.017-1.533-.019-2.298-.007-.48.008-.92.165-1.005.698-.085.53.353.719.75.868 1.264.476 2.614.623 3.917.95.822.207 1.624.444 2.336.924.973.655 1.383 1.545 1.213 2.686-.165 1.106-.803 1.844-1.867 2.22-1.247.441-2.544.426-3.98.396ZM110.832 16.46c0 1.485-.016 2.969.006 4.454.009.663-.276.935-.94.96-1.905.07-1.976.05-1.927-1.84.019-.691-.217-.826-.846-.785-.816.053-1.639-.01-2.457.022-.462.017-.649-.09-.649-.596.001-1.28.252-1.562 1.567-1.565.607-.001 1.217-.02 1.823.006.397.018.565-.082.553-.514a46.44 46.44 0 0 1 0-2.89c.014-.43-.151-.565-.551-.51-.052.007-.106.001-.159.001-2.935-.026-3.095.088-3.868 2.87-.438 1.581-.883 3.16-1.271 4.752-.18.73-.561 1.046-1.324 1.052-1.915.016-1.915.033-1.434-1.766.51-1.913 1.067-3.812 1.519-5.737.466-1.98 1.786-2.936 3.718-3.196 1.814-.244 3.644-.093 5.467-.112.627-.007.779.4.776.943-.011 1.48-.003 2.966-.003 4.45ZM38.184 16.569c0-1.432-.006-2.864.002-4.296.004-.938.173-1.106 1.1-1.107 1.877-.004 3.754 0 5.631.001.132 0 .265.002.397.008 2.973.133 4.418 1.846 4.008 4.752-.283 2-1.484 3.158-3.567 3.344-.892.08-1.796.028-2.693.06-.392.013-.475-.146-.487-.504-.045-1.239.21-1.543 1.434-1.626.29-.02.581-.047.867-.094 1.095-.183 1.568-.747 1.6-1.887.029-1.02-.397-1.583-1.483-1.798-1.174-.233-2.373-.075-3.56-.103-.5-.013-.338.376-.338.62-.011 2.266-.005 4.531-.006 6.797-.002 1.07-.154 1.22-1.23 1.224-.239.002-.477-.01-.715.002-.67.03-.965-.288-.962-.94.01-1.485.002-2.97.002-4.453ZM64.637 16.47c0-1.458.015-2.917-.006-4.374-.01-.722.303-1.072 1.041-1.041h.08c1.76-.033 1.789-.006 1.789 1.695 0 2.655.003 5.31-.002 7.966-.002.983-.163 1.138-1.146 1.149h-.556c-1.03-.01-1.198-.17-1.2-1.18V16.47ZM65.094 28.719v-.313c.001-1.155.266-1.43 1.414-1.293.497.06.965.072 1.463.005.924-.125 1.283.195 1.324 1.091.024.52.003 1.042.008 1.562.002.203-.03.37-.289.364-.27-.006-.26-.198-.26-.386.001-.52-.002-1.04-.003-1.562-.002-.512-.299-.663-.773-.653-.477.01-.551.26-.526.661.034.52.01 1.041.011 1.562 0 .185.023.382-.26.378-.272-.003-.267-.193-.268-.381-.004-.52.003-1.041-.013-1.562-.014-.488-.287-.675-.776-.658-.495.015-.534.311-.524.683.011.47.01.938 0 1.406-.005.212.1.519-.29.508-.343-.011-.227-.29-.235-.474-.015-.313-.003-.625-.003-.938ZM76.63 28.014c0 .364-.03.732.007 1.093.062.6-.07.986-.783 1.066-.892.102-1.504-.117-1.727-.728-.5-1.375.093-2.283 1.564-2.316.444-.01.348-.24.389-.488.04-.234-.216-.67.292-.64.468.029.228.446.25.687.037.438.009.882.009 1.326Zm-.536.613c-.162-.394.343-1.113-.627-1.107-.775.006-.905.453-.897 1.074.011.876.226 1.165.894 1.17.954.009.483-.712.63-1.137ZM107.173 29.105c0 .338-.009.676.003 1.013.018.466-.03.898-.549 1.092-.568.212-1.138.148-1.701-.03-.11-.034-.148-.14-.096-.253.054-.114.162-.113.267-.11.341.011.686.047 1.025.027.339-.02.551-.249.516-.57-.043-.4-.379-.162-.566-.16-.618.006-1.172-.055-1.402-.74-.238-.708-.076-1.757.371-2.039.605-.383 1.261-.283 1.904-.075.266.086.223.322.227.523.004.439 0 .88.001 1.322Zm-.516-.51c-.101-.392.313-1.081-.627-1.077-.768.003-.904.473-.917 1.078-.014.613.132 1.08.884 1.108.897.034.616-.61.66-1.108ZM90.698 27.973c0 .391.002.782-.001 1.171-.004.432.11.9-.576.98-.702.083-1.418.213-1.837-.51-.729-1.258 0-2.518 1.45-2.488.57.012.394-.313.439-.588.032-.197-.165-.53.23-.546.456-.017.276.357.287.576.026.467.008.938.008 1.405Zm-.51.658c-.15-.403.34-1.12-.618-1.108-.702.01-.945.278-.938 1.112.006.827.273 1.136.938 1.13.935-.008.478-.715.617-1.134ZM97.46 29.285c0-.39.028-.78-.005-1.166-.048-.562.053-.939.74-1.007.985-.1 1.575.117 1.782.76.46 1.433-.107 2.259-1.62 2.28-.45.007-.338.265-.38.5-.04.224.166.617-.243.617-.462 0-.245-.424-.264-.66-.035-.44-.01-.882-.01-1.324Zm.517-.713c0 1.157.019 1.187.64 1.193.753.006.912-.454.909-1.073-.003-.855-.232-1.147-.892-1.172-.911-.035-.599.628-.657 1.052ZM93.501 29.762c.264-.025.395-.035.527-.05.137-.016.28-.025.322.137.06.232-.128.249-.28.268-.678.084-1.423.292-1.932-.32-.493-.589-.416-1.328-.204-2.016.19-.605.973-.863 1.754-.633.553.162.899.79.792 1.368-.044.239-.174.284-.376.3-.395.028-.792.053-1.184.106-.184.025-.48-.102-.517.202-.038.295.173.495.446.564.252.066.52.061.652.074Zm-.473-1.217c.281-.181.875.225.898-.41.018-.478-.373-.633-.822-.617-.471.017-.741.247-.736.72.005.525.425.192.66.307ZM72.072 29.76c.254-.02.36-.03.465-.036.176-.01.41-.087.42.193.007.214-.214.192-.358.21-.654.079-1.369.264-1.86-.321-.498-.593-.404-1.334-.209-2.02.173-.609.969-.868 1.751-.638.559.164.91.79.798 1.366-.046.236-.179.286-.38.302-.396.03-.793.055-1.185.11-.184.026-.482-.108-.522.19-.036.288.172.499.445.57.25.067.519.064.635.074Zm-.423-1.208c.275-.199.888.23.87-.457-.011-.447-.371-.58-.784-.577-.465.003-.762.211-.78.685-.022.594.46.203.694.349ZM103.514 28.697c-.002 1.341-.599 1.78-1.838 1.438-.488-.134-.704-.444-.685-.913.019-.46.235-.797.737-.875.26-.04.525-.056.786-.1.162-.027.42.067.438-.199a.431.431 0 0 0-.415-.481c-.339-.027-.684-.004-1.027 0-.131.001-.279.015-.315-.15-.035-.16.074-.244.214-.26.524-.058 1.065-.163 1.568.038.772.301.47 1.003.537 1.502Zm-.526.436c.088-.436-.13-.549-.524-.495-.403.054-.895-.018-.917.586-.019.514.359.544.749.549.446.003.802-.074.692-.64ZM82.177 28.631c0 1.1-.432 1.584-1.397 1.57-.932-.014-1.314-.464-1.319-1.554-.005-1.13.38-1.563 1.383-1.551.946.01 1.333.456 1.333 1.535Zm-.556-.017c-.004-.546-.02-1.072-.796-1.08-.835-.008-.818.569-.821 1.132-.002.547.027 1.083.793 1.086.818.005.823-.566.824-1.138ZM110.999 28.628c.003 1.115-.413 1.589-1.381 1.572-.93-.016-1.326-.476-1.329-1.55-.005-1.124.389-1.565 1.386-1.554.952.01 1.32.435 1.324 1.532Zm-2.153.022c.03.5-.036 1.082.754 1.104.8.022.87-.522.868-1.107-.001-.575-.034-1.126-.852-1.113-.8.01-.741.578-.77 1.116ZM84.39 27.102c.053 0 .108-.009.157.002.237.056.658-.081.658.244 0 .41-.404.139-.624.181-.18.035-.368.011-.55.04-.161.024-.303.107-.323.289-.02.173.078.304.23.369.289.122.592.212.88.334.388.163.55.466.5.876-.045.381-.275.592-.648.69-.421.109-.835.08-1.251-.007-.135-.028-.268-.063-.245-.232.023-.16.146-.175.292-.176.45-.003 1.126.269 1.248-.293.153-.694-.68-.528-1.068-.75-.403-.231-.572-.543-.464-.966.16-.635.703-.598 1.208-.6ZM77.812 28.647c0-.39.002-.78-.001-1.17-.002-.207.053-.36.31-.342.204.016.253.152.253.322 0 .78-.003 1.56.003 2.34.002.221-.074.35-.314.338-.202-.01-.254-.139-.25-.319.004-.389 0-.778 0-1.169ZM78.087 26.613c-.238-.023-.32-.161-.306-.372.014-.23.159-.324.368-.294.17.023.27.14.265.327-.006.219-.116.33-.327.339Z" fill="#000"/></svg>