<svg width="111" height="32" viewBox="0 0 111 32" fill="none" xmlns="http://www.w3.org/2000/svg">
<path d="M23.5157 11.3505C23.5109 14.6322 23.4935 17.914 23.5157 21.1957C23.5189 21.7586 23.3538 22.0806 22.8443 22.3636C20.1522 23.8615 17.4792 25.3905 14.811 26.9306C14.3793 27.1792 14.057 27.2104 13.5983 26.9431C10.9364 25.3937 8.24279 23.8974 5.57932 22.3543C5.0825 22.0666 4.70473 22.0541 4.20949 22.3543C3.01744 23.0781 1.78253 23.7301 0.579361 24.4352C0.136507 24.6948 0 24.6291 0 24.11C0.0126983 19.11 0.00793645 14.1084 0.011111 9.10842C0.011111 8.94269 -0.0619043 8.73005 0.190475 8.65188C1.74761 9.5415 3.30474 10.4327 4.86345 11.3239C4.8825 11.6069 4.91742 11.8914 4.91742 12.1744C4.92218 15.1388 4.91901 18.1016 4.9206 21.0659C4.9206 21.9024 4.92853 21.9087 5.64123 21.5053C8.24914 20.0294 10.8459 18.5362 13.4666 17.0837C13.9904 16.7929 14.1951 16.4834 14.1888 15.872C14.1602 12.6231 14.1888 9.37264 14.1967 6.12372C14.484 6.11278 14.6808 6.31134 14.9031 6.43799C17.7761 8.07339 20.6459 9.71192 23.5157 11.3505Z" fill="black"/>
<path d="M4.86243 11.3236C3.30371 10.4324 1.74658 9.54122 0.189453 8.65004C3.03388 7.01307 5.87354 5.37297 8.72113 3.74226C10.4306 2.76352 12.1513 1.80354 13.8592 0.823235C14.0957 0.687211 14.2719 0.563696 14.5512 0.765386C14.8687 0.993654 15.237 1.15157 15.5798 1.347C19.8068 3.74695 24.0353 6.1469 28.3781 8.61408C26.7019 9.55686 25.1067 10.4543 23.5115 11.3502C20.6417 9.71164 17.7719 8.07311 14.8989 6.43927C14.6766 6.31263 14.4798 6.11563 14.1925 6.12501C13.956 6.07967 13.7925 6.23914 13.6163 6.33921C10.6989 7.99806 7.77987 9.66161 4.86243 11.3236Z" fill="black"/>
<path d="M90.1777 18.1716C90.9269 16.0234 91.6174 14.1144 92.2523 12.1897C92.5206 11.3783 92.9777 10.9843 93.8714 11.0437C94.6603 11.0953 95.4571 11.0562 96.2491 11.0546C96.8682 11.0531 97.1634 11.3408 97.1618 11.9646C97.1539 14.9587 97.1523 17.9527 97.1618 20.9468C97.1634 21.5659 96.8872 21.838 96.2634 21.8724C94.4364 21.9693 94.3253 21.8771 94.3253 20.0822C94.3253 18.1716 94.3253 16.261 94.3253 14.352C94.2714 14.3426 94.2174 14.3317 94.165 14.3223C93.5777 15.9186 92.9904 17.515 92.4031 19.1128C92.1873 19.6991 91.9476 20.2792 91.7714 20.8764C91.5365 21.6691 90.9984 21.8865 90.2127 21.8849C89.4222 21.8833 88.8444 21.7301 88.5555 20.8968C87.8571 18.8799 87.1048 16.8817 86.3746 14.8758C86.3063 14.6897 86.2349 14.5068 86.0064 14.3458C86.0064 14.7663 86.0064 15.1885 86.0064 15.6091C86.0064 17.3539 85.9968 19.0972 86.0111 20.842C86.0159 21.5081 85.7651 21.8521 85.0445 21.8771C83.2413 21.9396 83.1651 21.8849 83.1651 20.1166C83.1651 17.4618 83.1619 14.8054 83.1667 12.1506C83.1683 11.236 83.3476 11.0671 84.2889 11.0593C85.0032 11.0531 85.7159 11.0578 86.4302 11.0578C87.527 11.0593 87.7174 11.1953 88.0841 12.2398C88.6698 13.9096 89.2539 15.5809 89.8381 17.2507C89.9222 17.4821 90.0095 17.7151 90.1777 18.1716Z" fill="black"/>
<path d="M59.6968 17.229C61.0968 18.3563 61.7714 19.8573 62.6571 21.2034C62.8905 21.5568 62.7476 21.8632 62.246 21.8632C61.6905 21.8632 61.1349 21.8757 60.581 21.8554C60.0032 21.8351 59.6016 21.513 59.3 21.0518C58.8429 20.3513 58.3937 19.6462 57.9223 18.9567C57.4842 18.3141 56.8699 17.9717 56.0731 17.8967C55.7667 17.8685 55.2001 18.2015 55.2286 17.4714C55.254 16.8147 55.0508 16.0377 56.0112 15.8391C56.3937 15.7609 56.7985 15.7813 57.1937 15.7672C57.6683 15.75 58.1445 15.7641 58.6016 15.5983C59.1445 15.3998 59.5191 15.0667 59.5048 14.4586C59.4905 13.8879 59.1238 13.5705 58.6143 13.386C58.1604 13.2218 57.6889 13.1859 57.2096 13.1984C56.2635 13.2234 55.0143 12.8873 54.4556 13.3563C53.8763 13.8425 54.3001 15.1137 54.2858 16.0408C54.2604 17.6277 54.2826 19.2162 54.2763 20.8047C54.2731 21.6584 54.0715 21.8476 53.1985 21.8663C51.3969 21.9054 51.3858 21.8945 51.3858 20.1309C51.3858 17.4761 51.3826 14.8213 51.3874 12.1649C51.389 11.2378 51.5652 11.0595 52.489 11.0564C54.4445 11.0502 56.4 11.0486 58.3556 11.0595C59.2953 11.0642 60.1953 11.2378 60.9857 11.7819C62.0937 12.5448 62.519 13.6143 62.3587 14.9026C62.2111 16.0877 61.3667 16.6787 60.308 17.043C60.1413 17.0977 59.9699 17.1462 59.6968 17.229Z" fill="black"/>
<path d="M75.1054 21.913C74.1404 21.8739 73.0197 21.963 71.9563 21.5549C71.2071 21.2673 70.5166 20.8905 70.0595 20.2088C69.6007 19.5255 69.6071 18.7438 70.0515 18.4295C70.542 18.0824 71.9658 18.1825 72.2436 18.6906C72.7801 19.6662 73.6324 19.7757 74.5975 19.7569C75.3896 19.7413 76.1832 19.7804 76.9753 19.771C77.4721 19.7647 77.9689 19.6569 78.0737 19.0831C78.1769 18.5171 77.7023 18.3342 77.2832 18.1637C76.5213 17.8542 75.7054 17.7416 74.907 17.5774C73.7928 17.3476 72.6928 17.0802 71.6531 16.6143C70.3118 16.0155 69.7436 15.1259 69.8452 13.8063C69.9388 12.5727 70.6785 11.6565 72.0055 11.3235C74.0086 10.8216 76.0435 10.8763 78.0562 11.2547C79.0038 11.4329 79.8419 11.9129 80.3895 12.7494C80.8324 13.4279 80.8006 14.2331 80.3499 14.5239C79.8292 14.8585 78.4403 14.7209 78.1642 14.2097C77.6864 13.3263 76.9372 13.1575 76.0404 13.1778C75.2753 13.195 74.507 13.159 73.742 13.1715C73.2626 13.1793 72.8229 13.3357 72.7372 13.8688C72.6515 14.3989 73.0896 14.588 73.4864 14.7366C74.7515 15.2134 76.1007 15.3604 77.4038 15.6872C78.2261 15.8936 79.0276 16.1312 79.7403 16.6112C80.7133 17.2663 81.1229 18.1559 80.953 19.2973C80.7879 20.4026 80.1499 21.1406 79.0864 21.5174C77.8388 21.9583 76.5419 21.9427 75.1054 21.913Z" fill="black"/>
<path d="M110.832 16.4598C110.832 17.9451 110.816 19.4289 110.838 20.9142C110.847 21.5771 110.562 21.8492 109.898 21.8742C107.993 21.9445 107.922 21.9242 107.971 20.0339C107.99 19.3429 107.754 19.2084 107.125 19.2491C106.309 19.3022 105.486 19.2397 104.668 19.271C104.206 19.2882 104.019 19.1819 104.019 18.6753C104.02 17.3948 104.271 17.1134 105.586 17.1102C106.193 17.1087 106.803 17.0899 107.409 17.1165C107.806 17.1337 107.974 17.0336 107.962 16.6021C107.932 15.639 107.932 14.6743 107.962 13.7112C107.976 13.2828 107.811 13.1468 107.411 13.2015C107.359 13.2093 107.305 13.2031 107.252 13.2031C104.317 13.1765 104.157 13.2906 103.384 16.0736C102.946 17.6543 102.501 19.2334 102.113 20.8251C101.933 21.5552 101.552 21.871 100.789 21.8773C98.8745 21.8929 98.8745 21.9101 99.3554 20.1106C99.865 18.1984 100.422 16.2988 100.874 14.3741C101.34 12.3932 102.66 11.4379 104.592 11.1784C106.406 10.9345 108.236 11.0846 110.059 11.0658C110.686 11.0595 110.838 11.4661 110.835 12.0086C110.824 13.4892 110.832 14.9745 110.832 16.4598Z" fill="black"/>
<path d="M38.184 16.569C38.184 15.1369 38.1777 13.7047 38.1856 12.2726C38.1904 11.3345 38.3586 11.1672 39.2856 11.1656C41.1634 11.1625 43.0396 11.1656 44.9173 11.1672C45.0491 11.1672 45.1824 11.1688 45.3141 11.175C48.2871 11.3079 49.7316 13.0215 49.3221 15.9265C49.0395 17.9277 47.8379 19.0847 45.7554 19.2707C44.8634 19.3505 43.9586 19.2989 43.0618 19.3302C42.6697 19.3442 42.5872 19.1848 42.5745 18.8267C42.53 17.5884 42.7856 17.2836 44.0094 17.2007C44.2999 17.1819 44.5903 17.1538 44.8761 17.1069C45.9713 16.924 46.4443 16.3595 46.476 15.2198C46.5046 14.2004 46.0792 13.6375 44.9935 13.4218C43.8189 13.1888 42.6205 13.3467 41.4332 13.3186C40.9332 13.3061 41.0951 13.6954 41.0951 13.9393C41.084 16.2048 41.0904 18.4702 41.0888 20.7357C41.0872 21.8052 40.9348 21.9552 39.8586 21.9599C39.6205 21.9615 39.3824 21.9506 39.1444 21.9615C38.4745 21.9912 38.1793 21.6738 38.1825 21.0218C38.192 19.5365 38.184 18.0528 38.184 16.569Z" fill="black"/>
<path d="M64.6374 16.4692C64.6374 15.012 64.6517 13.5533 64.6311 12.0961C64.6215 11.3738 64.9342 11.0236 65.6723 11.0549C65.6993 11.0564 65.7247 11.0549 65.7517 11.0549C67.512 11.022 67.5406 11.0486 67.5406 12.7497C67.5406 15.4045 67.5437 18.0608 67.539 20.7156C67.5374 21.6991 67.3755 21.8539 66.393 21.8648C66.2072 21.8664 66.0231 21.8664 65.8374 21.8648C64.8073 21.8554 64.639 21.6944 64.6374 20.6859C64.6358 19.2804 64.6374 17.8748 64.6374 16.4692Z" fill="black"/>
<path d="M65.0935 28.719C65.0935 28.6142 65.0935 28.5111 65.0935 28.4063C65.095 27.2509 65.3601 26.9757 66.5077 27.1133C67.0046 27.1727 67.4728 27.1852 67.9712 27.118C68.895 26.9929 69.2537 27.3134 69.295 28.2093C69.3188 28.7284 69.2982 29.2506 69.303 29.7712C69.3045 29.9745 69.2728 30.1418 69.0141 30.1355C68.7442 30.1293 68.7538 29.937 68.7538 29.7493C68.7553 29.2287 68.7522 28.7081 68.7506 28.1874C68.749 27.6746 68.4522 27.5245 67.9776 27.5339C67.5014 27.5433 67.4268 27.7934 67.4522 28.1952C67.4855 28.7143 67.4617 29.2365 67.4633 29.7572C67.4633 29.9416 67.4855 30.1386 67.203 30.1355C66.9315 30.1324 66.9363 29.9416 66.9347 29.754C66.9315 29.2334 66.9379 28.7127 66.922 28.1921C66.9077 27.7043 66.6347 27.5167 66.1458 27.5339C65.6506 27.5495 65.6125 27.845 65.622 28.2171C65.6331 28.6862 65.6316 29.1552 65.622 29.6227C65.6173 29.8353 65.722 30.1418 65.3316 30.1308C64.9887 30.1199 65.1046 29.8416 65.0966 29.6571C65.0824 29.3444 65.0935 29.0317 65.0935 28.719Z" fill="black"/>
<path d="M76.6306 28.014C76.6306 28.3783 76.6005 28.7458 76.637 29.1069C76.6989 29.7073 76.5671 30.0935 75.8544 30.1732C74.9624 30.2748 74.3497 30.056 74.1275 29.4446C73.6275 28.0703 74.2195 27.1619 75.6909 27.1291C76.1354 27.1197 76.0386 26.8883 76.0798 26.6413C76.1195 26.4068 75.864 25.9706 76.3719 26.0018C76.8401 26.03 76.6005 26.4474 76.6211 26.6882C76.6592 27.126 76.6306 27.57 76.6306 28.014ZM76.0941 28.6269C75.9322 28.2329 76.437 27.5137 75.4671 27.52C74.6925 27.5262 74.5624 27.9734 74.5703 28.5941C74.5814 29.4696 74.7957 29.7589 75.464 29.7636C76.4179 29.773 75.9465 29.0522 76.0941 28.6269Z" fill="black"/>
<path d="M107.173 29.1053C107.173 29.443 107.164 29.7807 107.176 30.1184C107.194 30.5843 107.146 31.0159 106.627 31.2097C106.059 31.4224 105.489 31.3583 104.926 31.18C104.816 31.1456 104.778 31.0393 104.83 30.9267C104.884 30.8126 104.992 30.8142 105.097 30.8173C105.438 30.8282 105.783 30.8642 106.122 30.8439C106.461 30.8236 106.673 30.5953 106.638 30.2732C106.595 29.8745 106.259 30.1122 106.072 30.1137C105.454 30.12 104.9 30.059 104.67 29.3742C104.432 28.6659 104.594 27.6168 105.041 27.3354C105.646 26.9524 106.302 27.0524 106.945 27.2604C107.211 27.3464 107.168 27.5824 107.172 27.7826C107.176 28.2219 107.172 28.6628 107.173 29.1053ZM106.657 28.5956C106.556 28.2032 106.97 27.5137 106.03 27.5183C105.262 27.5215 105.126 27.9905 105.113 28.5956C105.099 29.2085 105.245 29.676 105.997 29.7041C106.894 29.7385 106.613 29.0943 106.657 28.5956Z" fill="black"/>
<path d="M90.6983 27.9732C90.6983 28.3641 90.6998 28.7549 90.6967 29.1443C90.6935 29.5758 90.8078 30.0448 90.1205 30.1246C89.4189 30.2074 88.703 30.3372 88.284 29.6149C87.5554 28.3563 88.284 27.0961 89.7348 27.1258C90.3046 27.1383 90.1284 26.8131 90.1729 26.5379C90.2046 26.3409 90.0078 26.0079 90.403 25.9923C90.8586 25.9751 90.6792 26.3487 90.6903 26.5676C90.7157 27.0351 90.6983 27.5057 90.6983 27.9732ZM90.1871 28.6314C90.0379 28.2281 90.5284 27.5104 89.5697 27.5229C88.8681 27.5323 88.6253 27.8012 88.6316 28.6346C88.638 29.4616 88.9046 29.7712 89.5697 29.765C90.5046 29.7571 90.0475 29.0504 90.1871 28.6314Z" fill="black"/>
<path d="M97.4608 29.2849C97.4608 28.8956 97.4878 28.5047 97.4545 28.1185C97.4069 27.5572 97.5084 27.1804 98.1957 27.1116C99.1799 27.0116 99.7703 27.2289 99.9767 27.8715C100.437 29.3052 99.8703 30.1307 98.3576 30.1526C97.9068 30.1589 98.0195 30.4168 97.9767 30.6529C97.937 30.8765 98.1433 31.2689 97.7338 31.2689C97.2719 31.2689 97.4894 30.8452 97.4703 30.6091C97.4354 30.1698 97.4592 29.7273 97.4608 29.2849ZM97.9767 28.5719C97.9767 29.7289 97.9957 29.7586 98.6179 29.7649C99.3703 29.7711 99.5291 29.3115 99.5259 28.6923C99.5227 27.8371 99.2941 27.5447 98.6338 27.5197C97.7227 27.4853 98.0354 28.1482 97.9767 28.5719Z" fill="black"/>
<path d="M93.5011 29.7618C93.7646 29.7367 93.8963 29.7274 94.028 29.7117C94.1646 29.6961 94.3074 29.6867 94.3503 29.8493C94.4106 30.0807 94.2217 30.0979 94.0693 30.1167C93.3915 30.2011 92.6471 30.409 92.1376 29.7977C91.6455 29.2083 91.7217 28.4688 91.9344 27.7808C92.1233 27.1758 92.9074 26.9178 93.6884 27.1476C94.2407 27.3102 94.5868 27.9387 94.4804 28.5157C94.436 28.7549 94.3058 28.8002 94.1042 28.8158C93.709 28.844 93.3122 28.869 92.9201 28.9222C92.736 28.9472 92.4408 28.8205 92.4027 29.1239C92.3646 29.4194 92.5757 29.6195 92.8487 29.6883C93.1011 29.7539 93.3693 29.7492 93.5011 29.7618ZM93.0281 28.5454C93.309 28.364 93.9026 28.7705 93.9265 28.1342C93.9439 27.6573 93.5534 27.5025 93.1042 27.5182C92.6328 27.5354 92.363 27.7652 92.3677 28.2374C92.3725 28.7627 92.7931 28.4297 93.0281 28.5454Z" fill="black"/>
<path d="M72.0715 29.7604C72.3255 29.7401 72.4318 29.7307 72.5366 29.7244C72.7128 29.7135 72.9477 29.6369 72.9572 29.9167C72.9636 30.1309 72.7429 30.1091 72.5985 30.1263C71.9445 30.206 71.2303 30.3905 70.7398 29.8057C70.2414 29.2132 70.335 28.4721 70.5303 27.7857C70.7033 27.1775 71.4985 26.918 72.281 27.1478C72.8398 27.312 73.1906 27.9374 73.0794 28.5143C73.0334 28.7504 72.9001 28.8004 72.6985 28.8161C72.3033 28.8458 71.9064 28.8708 71.5144 28.9255C71.3303 28.9521 71.0318 28.8176 70.9922 29.1162C70.9556 29.4039 71.1636 29.615 71.4366 29.6869C71.6874 29.7526 71.9556 29.7495 72.0715 29.7604ZM71.6493 28.5518C71.9239 28.3533 72.5366 28.7817 72.5191 28.0953C72.508 27.6481 72.1477 27.5152 71.735 27.5184C71.2699 27.5215 70.9731 27.7294 70.9557 28.2032C70.9334 28.7973 71.4144 28.4064 71.6493 28.5518Z" fill="black"/>
<path d="M103.514 28.697C103.512 30.0384 102.915 30.4762 101.676 30.1354C101.188 30.0009 100.972 29.6913 100.991 29.2223C101.01 28.7611 101.226 28.4249 101.728 28.3467C101.988 28.3061 102.253 28.2905 102.514 28.2467C102.676 28.2201 102.934 28.3139 102.952 28.0481C102.969 27.7886 102.807 27.5884 102.537 27.5666C102.198 27.54 101.853 27.5634 101.51 27.5666C101.379 27.5681 101.231 27.5822 101.195 27.4165C101.16 27.257 101.269 27.1726 101.409 27.1569C101.933 27.0991 102.474 26.9943 102.977 27.1945C103.749 27.4962 103.447 28.1982 103.514 28.697ZM102.988 29.1332C103.076 28.697 102.858 28.5844 102.464 28.6375C102.061 28.6923 101.569 28.6203 101.547 29.2239C101.528 29.7382 101.906 29.7679 102.296 29.7726C102.742 29.7758 103.098 29.6992 102.988 29.1332Z" fill="black"/>
<path d="M82.1768 28.6313C82.1768 29.7304 81.7451 30.2151 80.78 30.201C79.8483 30.187 79.4657 29.7367 79.461 28.6469C79.4562 27.5165 79.8419 27.0835 80.8435 27.096C81.7895 27.1069 82.1768 27.5525 82.1768 28.6313ZM81.6213 28.6141C81.6165 28.0685 81.6006 27.5416 80.8245 27.5337C79.9895 27.5259 80.007 28.1028 80.0038 28.6657C80.0022 29.2129 80.0308 29.7492 80.7975 29.7523C81.6149 29.757 81.6197 29.1863 81.6213 28.6141Z" fill="black"/>
<path d="M110.999 28.6284C111.002 29.7431 110.586 30.2169 109.618 30.1997C108.688 30.184 108.292 29.7244 108.289 28.6502C108.284 27.5261 108.678 27.0852 109.675 27.0961C110.627 27.1055 110.995 27.5308 110.999 28.6284ZM108.846 28.6502C108.876 29.1506 108.81 29.7322 109.6 29.7541C110.4 29.776 110.47 29.2319 110.468 28.6471C110.467 28.0718 110.434 27.5214 109.616 27.5339C108.816 27.5449 108.875 28.1124 108.846 28.6502Z" fill="black"/>
<path d="M84.3903 27.1024C84.4427 27.1024 84.4982 27.093 84.5474 27.1039C84.7839 27.1602 85.2046 27.0226 85.2046 27.3478C85.2046 27.7575 84.8014 27.487 84.5807 27.5292C84.4014 27.5636 84.2125 27.5402 84.0315 27.5683C83.8696 27.5933 83.7284 27.6762 83.7077 27.8575C83.6887 28.0311 83.7855 28.1624 83.9379 28.2265C84.2268 28.3485 84.5299 28.4392 84.8188 28.5611C85.2061 28.7237 85.368 29.027 85.3188 29.4367C85.2728 29.8181 85.0426 30.0292 84.6696 30.1262C84.249 30.2356 83.8347 30.2075 83.4189 30.1199C83.2839 30.0918 83.1506 30.0574 83.1744 29.8885C83.1966 29.7275 83.3204 29.7134 83.4665 29.7118C83.9157 29.7087 84.5919 29.9807 84.7141 29.4195C84.8665 28.7253 84.0331 28.891 83.6458 28.669C83.2427 28.4376 83.0744 28.1265 83.1823 27.7028C83.3427 27.068 83.8855 27.1055 84.3903 27.1024Z" fill="black"/>
<path d="M77.8122 28.647C77.8122 28.2577 77.8138 27.8668 77.8106 27.4775C77.809 27.2696 77.8645 27.1163 78.1201 27.1351C78.3249 27.1507 78.3741 27.2868 78.3741 27.4572C78.3741 28.2374 78.3709 29.0175 78.3772 29.7962C78.3788 30.0182 78.3026 30.1479 78.063 30.1354C77.8614 30.1245 77.809 29.9963 77.8122 29.8165C77.8169 29.4272 77.8122 29.0379 77.8122 28.647Z" fill="black"/>
<path d="M78.0872 26.613C77.8491 26.5896 77.7666 26.452 77.7809 26.2409C77.7951 26.0111 77.9396 25.9173 78.1491 25.947C78.3189 25.9704 78.4189 26.0877 78.4142 26.2738C78.4078 26.4926 78.2983 26.6037 78.0872 26.613Z" fill="black"/>
</svg>
