<svg width="125" height="32" fill="none" xmlns="http://www.w3.org/2000/svg"><path d="M-.002 32h124.444V0H-.002v32Z" fill="#000"/><path fill-rule="evenodd" clip-rule="evenodd" d="M28.465 22.482c.278-1.268.363-2.588.248-3.903l2.577-1.18c-.288 2.027-1.349 3.805-2.825 5.083Zm.186-4.47 2.702-1.235a8.333 8.333 0 0 0-.464-3.272l-.119-.32-3.044 1.437c.467 1.097.773 2.24.925 3.39Zm-1.795 5.574-1.614-3.418 3.007-1.376a14.175 14.175 0 0 1-.328 4.124c-.338.25-.695.474-1.065.67Zm-1.846-3.909 3.185-1.456a12.165 12.165 0 0 0-.897-3.397l-3.746 1.767 1.458 3.086Zm.34 4.532c-1.365-.715-2.533-1.552-3.512-2.483l2.978-1.363 1.628 3.429c-.355.165-.72.304-1.093.417Zm-4-2.259a13.978 13.978 0 0 0 3.364 2.426c-1.963.427-4.096.115-6-1.22l2.635-1.206Zm.076-.632 3.157-1.444-1.462-3.08L19.4 18.55a12.492 12.492 0 0 0 2.027 2.768Zm-3.911-7.654-2.353 1.077c.322-1.83 1.272-3.445 2.584-4.652a12.962 12.962 0 0 0-.231 3.575Zm3.385-1.55-2.92 1.337a14.236 14.236 0 0 1 .316-3.829 8.733 8.733 0 0 1 1.08-.72l1.524 3.212Zm3.368-1.542-2.926 1.34-1.529-3.24a8.327 8.327 0 0 1 1.097-.445c1.294.68 2.412 1.47 3.358 2.345Zm-2.694 1.83 3.113-1.424a12.567 12.567 0 0 1 2.043 2.692l-3.735 1.74-1.42-3.008Zm-3.548 1.622 3.106-1.42 1.428 3.008-3.723 1.734a12.26 12.26 0 0 1-.811-3.322Zm-2.949 1.35 2.491-1.141c.132 1.122.41 2.238.84 3.313l-2.885 1.343a8.31 8.31 0 0 1-.446-3.516Zm12.417-6.278c-1.906-1.254-4.024-1.51-5.964-1.044a14.067 14.067 0 0 1 3.23 2.295l2.734-1.251Zm-4.25-2.365c3.337 0 5.679 1.59 7.3 3.43l-1.163.607a9.424 9.424 0 0 0-1.375-1.307l-2.836 1.296a12.869 12.869 0 0 1 1.995 2.711l4.298-2.002c.74 1.404 1.152 3.062 1.213 4.693.023 5.02-4.153 9.505-9.507 9.505-3.338 0-5.68-1.591-7.3-3.43l1.162-.608c.38.44.779.824 1.189 1.158l2.726-1.247a12.88 12.88 0 0 1-1.979-2.784l-4.132 1.95c-.64-1.248-1.028-2.614-1.099-4.47-.023-5.018 4.154-9.502 9.507-9.502ZM45.645 17.16c-.572.476-1.403.714-2.45.714H41.15v3.52h-1.974v-9.823h4.162c.974 0 1.735.262 2.307.76.57.525.856 1.31.856 2.356 0 1.165-.285 1.974-.856 2.473Zm-1.522-3.543c-.262-.214-.619-.334-1.095-.334H41.15v2.902h1.878c.476 0 .833-.119 1.095-.357s.404-.618.404-1.117c0-.524-.142-.88-.404-1.094ZM54.322 11.833c.356.166.666.38.903.69.214.238.38.523.5.832.119.285.19.642.19 1.023 0 .475-.12.927-.357 1.38-.214.45-.594.76-1.117.95.428.19.736.452.927.785.19.334.285.833.285 1.522v.667c0 .451 0 .76.048.904.048.26.166.45.357.57v.238h-2.189a3.434 3.434 0 0 1-.142-.524 4.682 4.682 0 0 1-.072-.832l-.023-.927c0-.619-.12-1.047-.333-1.238-.214-.213-.618-.332-1.213-.332h-2.07v3.853h-1.95V11.57h4.71c.665.024 1.189.095 1.545.262Zm-4.305 1.45v2.641H52.3c.452 0 .785-.048.999-.167.404-.19.595-.547.595-1.094 0-.594-.19-.999-.571-1.213-.215-.095-.547-.167-.976-.167h-2.33ZM69.68 18.111c.048.452.167.785.357.999.333.404.88.618 1.665.618.476 0 .856-.071 1.141-.166.572-.215.856-.595.856-1.142 0-.332-.141-.57-.427-.761-.286-.167-.714-.309-1.308-.452l-1-.238c-.998-.214-1.688-.475-2.068-.737-.643-.452-.975-1.165-.975-2.14 0-.88.309-1.618.927-2.188.642-.57 1.546-.88 2.758-.88 1 0 1.88.285 2.57.832.713.547 1.093 1.332 1.141 2.378h-1.926c-.047-.57-.286-1-.762-1.26-.308-.167-.69-.239-1.164-.239-.5 0-.928.12-1.237.31-.31.215-.453.524-.453.904 0 .357.143.618.453.784.19.119.617.262 1.26.405l1.64.404c.714.19 1.262.428 1.642.714.57.476.856 1.142.856 2.021 0 .88-.332 1.64-1.022 2.236-.666.595-1.594.88-2.83.88-1.237 0-2.213-.285-2.926-.88-.713-.57-1.07-1.379-1.07-2.402h1.902ZM84.3 13.307h-5.067V15.4h4.638v1.713h-4.638v2.521h5.304v1.76h-7.254v-9.823H84.3v1.736ZM92.526 14.377c-.167-.666-.524-1.142-1.118-1.403a2.709 2.709 0 0 0-1.094-.215c-.76 0-1.403.286-1.902.904-.5.595-.738 1.475-.738 2.688s.262 2.069.809 2.569a2.57 2.57 0 0 0 1.831.737c.666 0 1.213-.19 1.641-.571.428-.404.69-.927.785-1.57h-2.212v-1.64h3.995v5.255h-1.33L93 19.918c-.404.453-.737.786-1.046.976-.523.333-1.189.499-1.95.499-1.261 0-2.307-.452-3.116-1.356-.832-.903-1.26-2.14-1.26-3.71 0-1.594.428-2.853 1.284-3.829.832-.951 1.974-1.427 3.377-1.427 1.213 0 2.188.31 2.926.952.737.617 1.165 1.403 1.26 2.354h-1.95ZM96.559 11.31h2.021v6.04c0 .69.072 1.165.238 1.474.238.571.762.833 1.57.833.832 0 1.355-.262 1.593-.833.143-.309.238-.784.238-1.475v-6.04h2.021v6.04c0 1.047-.166 1.856-.475 2.45-.595 1.07-1.712 1.594-3.377 1.594-1.642 0-2.783-.523-3.377-1.593-.31-.595-.452-1.404-.452-2.45v-6.04ZM108.221 13.283v2.641h2.259c.452 0 .785-.048 1.023-.167.403-.19.594-.547.594-1.094 0-.594-.191-.999-.571-1.213a2.573 2.573 0 0 0-.975-.167h-2.33Zm4.28-1.45c.357.166.666.38.927.69.214.237.381.523.501.832.118.285.166.642.166 1.023 0 .475-.119.927-.333 1.38-.238.45-.618.76-1.142.95.452.19.761.452.928.785.19.333.286.833.286 1.522v.667c0 .451.023.76.047.904.048.26.19.45.38.57v.238h-2.211c-.072-.214-.095-.381-.119-.524a3.16 3.16 0 0 1-.096-.832l-.024-.928c0-.618-.118-1.046-.332-1.236-.214-.214-.619-.333-1.19-.333h-2.068v3.853h-1.951V11.57h4.685c.667.024 1.189.095 1.546.262ZM64.09 18.753c.452-.594.69-1.45.69-2.569 0-1.094-.238-1.95-.69-2.545-.476-.594-1.094-.904-1.879-.904-.809 0-1.427.287-1.903.904-.475.595-.713 1.451-.713 2.545 0 1.118.238 1.975.713 2.57.476.593 1.094.903 1.903.903.785 0 1.403-.31 1.88-.904Zm1.26 1.499c-.737.76-1.783 1.141-3.139 1.141-1.38 0-2.426-.38-3.139-1.141-.976-.952-1.45-2.307-1.45-4.068 0-1.783.474-3.139 1.45-4.043.713-.76 1.759-1.141 3.14-1.141 1.355 0 2.401.38 3.139 1.141.951.904 1.426 2.26 1.426 4.043 0 1.76-.475 3.116-1.426 4.068Z" fill="#fff"/></svg>