<svg width="109" height="19" fill="none" xmlns="http://www.w3.org/2000/svg"><path d="M14.412 8.74c-.045-.686-.228-1.373-.595-1.968l-3.111-5.445A4.67 4.67 0 0 1 10.203 0l-.138.229a4.34 4.34 0 0 0 0 4.347l2.517 4.347a4.34 4.34 0 0 1 0 4.347l-.137.23a4.671 4.671 0 0 0-.504-1.328L9.653 8.191 8.19 5.628a4.671 4.671 0 0 1-.503-1.327l-.138.23c-.777 1.326-.777 2.974 0 4.346l2.517 4.348a4.34 4.34 0 0 1 0 4.347l-.137.229a4.67 4.67 0 0 0-.503-1.327l-3.158-5.446c-.412-.732-.595-1.556-.595-2.38-3.34.87-5.674 2.746-5.674 4.897 0 3.02 4.485 5.445 10.022 5.445 5.536 0 10.02-2.425 10.02-5.445.047-2.06-2.241-3.935-5.628-4.805Zm9.473 9.29c.045-.779.137-1.282.366-1.922 1.052.503 2.425.732 3.432.732 1.739 0 2.745-.55 2.745-1.694 0-1.098-.732-1.601-2.47-2.379l-.962-.366c-1.784-.778-2.974-1.785-2.974-3.752 0-2.151 1.51-3.524 4.53-3.524 1.236 0 2.38.183 3.432.55a7.179 7.179 0 0 1-.366 1.875 9.927 9.927 0 0 0-3.112-.549c-1.647 0-2.38.64-2.38 1.648 0 .96.733 1.556 2.06 2.105l1.007.411c2.38 1.007 3.386 2.105 3.386 3.936 0 2.15-1.647 3.66-4.85 3.66-1.51 0-2.792-.228-3.844-.732Zm18.807-9.015v9.426H40.77l-.091-1.144c-.55.824-1.328 1.373-2.654 1.373-2.471 0-4.165-1.83-4.165-4.988 0-3.295 1.785-5.216 5.263-5.216 1.373.045 2.517.183 3.569.549Zm-2.06 7.276v-5.904c-.411-.091-.914-.091-1.51-.091-2.15 0-3.157 1.327-3.157 3.432 0 1.922.778 3.295 2.609 3.295.87-.046 1.51-.32 2.059-.732Zm12.676-4.165v6.315H51.25v-5.949c0-1.51-.503-2.196-2.563-2.196-.503 0-1.052.046-1.647.137v8.008H44.98V9.015c1.327-.32 2.791-.55 3.752-.55 3.478.046 4.576 1.373 4.576 3.661Zm5.766 4.805c.595 0 1.19-.091 1.602-.274-.046.549-.138 1.19-.23 1.738-.548.23-1.189.32-1.738.32-2.014 0-3.295-.914-3.295-3.202v-9.93c.64-.23 1.419-.32 2.06-.32v3.569h3.294c-.046.64-.091 1.235-.183 1.784h-3.112v4.622c0 1.19.595 1.693 1.602 1.693Zm11.12-7.916v9.426h-1.922l-.092-1.144c-.549.824-1.327 1.373-2.654 1.373-2.47 0-4.164-1.83-4.164-4.988 0-3.295 1.785-5.216 5.262-5.216 1.373.045 2.471.183 3.57.549Zm-2.105 7.276v-5.904c-.412-.091-.915-.091-1.51-.091-2.151 0-3.158 1.327-3.158 3.432 0 1.922.778 3.295 2.608 3.295.87-.046 1.556-.32 2.06-.732Zm12.721-4.165v6.315h-2.105v-5.949c0-1.51-.503-2.196-2.563-2.196-.503 0-1.052.046-1.647.137v8.008h-2.06V9.015c1.328-.32 2.792-.55 3.753-.55 3.478.046 4.622 1.373 4.622 3.661Zm10.479-6.864v13.18h-1.922l-.091-1.19c-.55.869-1.328 1.418-2.7 1.418-2.471 0-4.164-1.83-4.164-4.988 0-3.295 1.784-5.216 5.262-5.216.55 0 1.052.045 1.556.137V5.49c.64-.183 1.373-.229 2.059-.229Zm-2.06 11.029v-5.812c-.548-.091-1.097-.183-1.647-.183-2.059 0-3.02 1.281-3.02 3.432 0 1.922.778 3.295 2.609 3.295a3.718 3.718 0 0 0 2.059-.732Zm12.493-1.877h-6.635c.275 1.694 1.236 2.471 3.112 2.471 1.144 0 2.288-.228 3.294-.732-.091.55-.183 1.282-.32 1.876-.961.412-1.922.595-3.066.595-3.478 0-5.125-1.922-5.125-5.125 0-2.791 1.281-5.033 4.576-5.033 2.974 0 4.256 1.921 4.256 4.301 0 .64 0 1.098-.092 1.647Zm-6.635-1.739h4.668c0-1.555-.824-2.47-2.243-2.47-1.51.045-2.288.869-2.425 2.47Zm13.911-4.072c0 .64-.091 1.373-.183 1.784-.503-.045-.961-.091-1.556-.091-.503 0-1.007.046-1.51.091v8.054h-2.059V9.015c.869-.32 2.379-.55 3.523-.55.595.046 1.327.046 1.785.138Z" fill="#000"/></svg>