<svg width="112" height="45" fill="none" xmlns="http://www.w3.org/2000/svg"><path d="M81.926.48c2.024 5.236 4.338 15.848-1.088 27.505-.063.151.131.285.337.151 6.5-4.256 12.168-12.418 14.032-19.086-6.47-3.313-10.362-6.735-12.72-8.93-.312-.304-.697.026-.56.36ZM4.992 37.078c-1.851-.635-2.391-.94-2.391-1.728 0-.72.78-1.26 1.814-1.26.972 0 1.996.287 3.117.87a.113.113 0 0 0 .062.018c.024 0 .05-.005.067-.019a.148.148 0 0 0 .075-.104l.3-1.925a.144.144 0 0 0-.081-.147c-1.021-.46-2.253-.71-3.475-.71-2.403 0-4.084 1.455-4.084 3.53 0 1.911 1.282 2.71 3.808 3.593 1.675.572 2.228.91 2.228 1.798 0 .89-.842 1.465-2.159 1.465-1.09 0-2.57-.405-3.766-1.028a.115.115 0 0 0-.067-.02.114.114 0 0 0-.061.016.136.136 0 0 0-.075.103L0 43.414a.143.143 0 0 0 .086.15c1.362.573 2.818.892 4.095.892 2.668 0 4.46-1.493 4.46-3.715 0-2.01-1.28-2.838-3.648-3.663ZM20.706 32.236h-2.113a.14.14 0 0 0-.14.14v7.154c0 1.916-.898 2.93-2.602 2.93-1.662 0-2.578-1.057-2.578-2.978v-7.108a.139.139 0 0 0-.141-.14H11.04a.138.138 0 0 0-.137.14v7.201c0 3.1 1.842 4.952 4.924 4.952 3.142 0 5.02-1.887 5.02-5.045v-7.108a.137.137 0 0 0-.142-.138ZM27.765 37.768h-1.348V34.28h1.394c1.02 0 2.232.306 2.232 1.743 0 1.173-.741 1.746-2.278 1.746Zm.256-5.532h-3.838c-.075 0-.132.062-.132.14v11.78c0 .076.057.143.132.143h2.095a.143.143 0 0 0 .138-.143v-4.372h1.347c2.925 0 4.598-1.385 4.598-3.809.001-2.307-1.66-3.739-4.34-3.739ZM42.31 42.182h-5.25v-3.094h4.343c.04 0 .081-.018.105-.046a.134.134 0 0 0 .03-.113l-.297-1.837a.143.143 0 0 0-.143-.117H37.06V34.35h5.087a.14.14 0 0 0 .14-.14v-1.834a.14.14 0 0 0-.14-.139h-7.32a.14.14 0 0 0-.14.14v11.78c0 .076.065.143.14.143h7.482c.075 0 .136-.067.136-.143v-1.834a.134.134 0 0 0-.135-.14ZM51 36.022c0 1.17-.796 1.812-2.233 1.812h-1.394v-3.507h1.394c1.02 0 2.233.296 2.233 1.695Zm-.012 3.39c1.537-.592 2.38-1.797 2.38-3.41 0-2.362-1.71-3.766-4.576-3.766h-3.65a.136.136 0 0 0-.134.14v11.78c0 .076.059.143.133.143h2.097c.075 0 .135-.067.135-.143v-4.413h1.07l3.25 4.635a.14.14 0 0 0 .115.054s.018 0 .026-.004l2.165-.487a.148.148 0 0 0 .1-.085.138.138 0 0 0-.02-.132l-3.091-4.311ZM66.032 32.248h-2.108c-.063 0-.113.035-.13.093l-3.308 8.823-3.247-8.829a.138.138 0 0 0-.13-.096H54.81a.132.132 0 0 0-.092.07.14.14 0 0 0-.012.114L59.3 44.197c.024.054.07.086.127.086h1.939a.13.13 0 0 0 .126-.086l4.67-11.758a.137.137 0 0 0-.014-.132.136.136 0 0 0-.117-.059ZM70.602 32.236H68.49a.142.142 0 0 0-.143.14v11.78c0 .076.067.143.143.143h2.11a.144.144 0 0 0 .142-.143v-11.78a.14.14 0 0 0-.141-.14ZM82.199 42.182h-5.251v-3.094h4.343c.043 0 .08-.018.107-.046a.147.147 0 0 0 .03-.113l-.303-1.837a.136.136 0 0 0-.133-.117h-4.044V34.35h5.084a.14.14 0 0 0 .143-.14v-1.834a.14.14 0 0 0-.143-.139h-7.316a.138.138 0 0 0-.136.14v11.78c0 .076.062.143.136.143h7.482a.144.144 0 0 0 .139-.143v-1.834a.138.138 0 0 0-.138-.14ZM101.331 42.203h-4.327v-9.828a.137.137 0 0 0-.134-.139h-2.095a.138.138 0 0 0-.136.14v11.78c0 .076.061.143.136.143h6.855a.137.137 0 0 0 .105-.051.153.153 0 0 0 .033-.112l-.303-1.813a.137.137 0 0 0-.134-.12ZM111.33 42.182h-5.257v-3.094h4.349a.147.147 0 0 0 .104-.046.156.156 0 0 0 .034-.113l-.306-1.837c-.007-.067-.065-.117-.137-.117h-4.043V34.35h5.094a.14.14 0 0 0 .139-.14v-1.834a.14.14 0 0 0-.139-.139h-7.318a.137.137 0 0 0-.139.14v11.78c0 .076.06.143.139.143h7.481c.075 0 .136-.067.136-.143v-1.834a.138.138 0 0 0-.137-.14ZM111.203 14.226c-5.386-.846-10.629-2.612-14.042-4.235-1.979 5.183-5.796 10.738-9.792 14.557-.218.187-.044.51.313.26 8.535-5.904 17.426-8.737 23.53-9.92.333-.075.338-.568-.009-.662ZM92.14 42.203h-4.323v-9.828a.136.136 0 0 0-.139-.139h-2.09a.138.138 0 0 0-.137.14v11.78c0 .076.062.143.137.143h6.855a.13.13 0 0 0 .104-.051.15.15 0 0 0 .032-.112l-.304-1.813a.136.136 0 0 0-.136-.12Z" fill="#000"/></svg>