<svg width="107" height="30" fill="none" xmlns="http://www.w3.org/2000/svg"><path d="M49.466 8.268h-3.048v-1.88h8.329v1.88h-3.048v8.287h-2.233V8.268ZM55.786 13.365c.057 1.281.683 1.866 1.81 1.866.811 0 1.466-.5 1.593-.955h1.78c-.57 1.738-1.78 2.478-3.445 2.478-2.32 0-3.758-1.594-3.758-3.873 0-2.208 1.523-3.888 3.758-3.888 2.507 0 3.716 2.108 3.574 4.372h-5.312Zm3.29-1.282c-.186-1.026-.627-1.566-1.609-1.566-1.28 0-1.652.996-1.68 1.566h3.29ZM67.307 11.784c-.127-.825-.655-1.268-1.495-1.268-1.296 0-1.724 1.31-1.724 2.392 0 1.053.414 2.321 1.68 2.321.94 0 1.481-.597 1.609-1.495h1.95c-.256 1.95-1.608 3.018-3.544 3.018-2.221 0-3.717-1.566-3.717-3.772 0-2.292 1.367-3.987 3.759-3.987 1.737 0 3.332.911 3.46 2.791h-1.978ZM70.682 6.388h4.585c2.534 0 3.517 1.609 3.517 3.261 0 1.652-.982 3.26-3.517 3.26h-2.35v3.646h-2.235V6.388Zm2.235 4.784h1.738c1.04 0 1.965-.228 1.965-1.523s-.925-1.523-1.965-1.523h-1.738v3.046ZM80.023 6.388h2.023v10.167h-2.023V6.388ZM83.554 11.456c.113-1.894 1.809-2.463 3.46-2.463 1.466 0 3.231.328 3.231 2.093v3.831c0 .67.071 1.34.257 1.638h-2.05a3.024 3.024 0 0 1-.142-.712c-.64.669-1.58.91-2.477.91-1.396 0-2.507-.697-2.507-2.206 0-1.665 1.253-2.064 2.507-2.235 1.239-.185 2.392-.142 2.392-.967 0-.87-.598-.997-1.31-.997-.769 0-1.268.313-1.339 1.111h-2.022v-.003Zm4.67 1.496c-.342.299-1.052.313-1.68.428-.626.127-1.196.342-1.196 1.082 0 .754.583.94 1.239.94 1.581 0 1.638-1.253 1.638-1.694v-.756ZM94.375 9.194h1.481v1.351h-1.48v3.646c0 .683.17.854.854.854.213 0 .413-.014.626-.056v1.58c-.342.057-.783.072-1.182.072-1.239 0-2.32-.285-2.32-1.751v-4.343h-1.225V9.195h1.224v-2.21h2.022v2.209ZM96.739 11.456c.114-1.894 1.809-2.463 3.46-2.463 1.466 0 3.231.328 3.231 2.093v3.831c0 .67.071 1.34.257 1.638h-2.051a3.004 3.004 0 0 1-.142-.712c-.641.669-1.581.91-2.478.91-1.395 0-2.506-.697-2.506-2.206 0-1.665 1.253-2.064 2.506-2.235 1.239-.185 2.392-.142 2.392-.967 0-.87-.597-.997-1.31-.997-.768 0-1.267.313-1.338 1.111h-2.021v-.003Zm4.669 1.496c-.342.299-1.053.313-1.68.428-.626.127-1.196.342-1.196 1.082 0 .754.583.94 1.239.94 1.581 0 1.637-1.253 1.637-1.694v-.756ZM35.607 28.561l1.883-3.432h.573l.695 3.432h-.52l-.194-.985h-1.36l-.533.985h-.544Zm2.35-1.463-.254-1.442-.764 1.442h1.018ZM39.406 28.561l.672-3.432h.69l.97 2.75.536-2.75h.502l-.667 3.432h-.657l-.993-2.832-.55 2.832h-.503ZM45.065 28.561l.664-3.432h.502l-.665 3.432h-.502ZM49.502 27.58h.613a1.846 1.846 0 0 1-.694.777 1.912 1.912 0 0 1-1.019.274c-.21 0-.404-.029-.581-.087a1.473 1.473 0 0 1-.475-.257 1.522 1.522 0 0 1-.433-.546c-.1-.214-.151-.444-.151-.69a2.043 2.043 0 0 1 .573-1.427c.172-.181.375-.319.608-.416.232-.097.478-.145.74-.145.403 0 .75.106 1.04.319.29.213.482.503.58.873h-.56a1.096 1.096 0 0 0-.417-.537 1.169 1.169 0 0 0-.663-.187c-.18 0-.35.035-.512.105-.16.07-.306.17-.436.304-.13.137-.23.3-.305.485-.074.185-.11.375-.11.567 0 .34.103.62.307.838.205.218.466.327.784.327.23 0 .444-.051.64-.153a1.22 1.22 0 0 0 .47-.423ZM51.315 28.561l.574-2.957h-.754l.091-.475h1.98l-.091.475h-.724l-.576 2.957h-.5ZM53.447 27.465h.528l-.003.048-.003.043c0 .196.044.345.133.444.088.1.219.15.393.15a.553.553 0 0 0 .406-.159.535.535 0 0 0 .16-.398.498.498 0 0 0-.078-.286c-.052-.079-.168-.17-.348-.277-.027-.018-.07-.042-.129-.076a2.244 2.244 0 0 1-.487-.344.79.79 0 0 1-.17-.264.88.88 0 0 1-.056-.32c0-.279.097-.51.293-.692.194-.183.44-.274.74-.274.286 0 .513.078.678.236.166.158.248.375.248.647l-.001.066-.003.04h-.512l.003-.033.003-.035a.475.475 0 0 0-.12-.341.424.424 0 0 0-.324-.126.462.462 0 0 0-.335.138.447.447 0 0 0-.14.329c0 .18.196.383.588.61l.185.11c.16.097.285.22.375.372a.959.959 0 0 1 .133.492c0 .302-.106.555-.317.76a1.096 1.096 0 0 1-.792.308c-.337 0-.595-.093-.775-.28-.18-.188-.27-.456-.27-.807v-.081h-.003ZM56.236 28.561l.665-3.432h.502l-.665 3.432h-.502ZM62.735 27.307h-1.566l.088-.431h2.096c-.064.535-.27.963-.614 1.28-.345.319-.776.478-1.292.478-.495 0-.887-.144-1.172-.43-.288-.288-.431-.678-.431-1.173 0-.268.046-.522.139-.763a1.888 1.888 0 0 1 1.013-1.059 1.97 1.97 0 0 1 .76-.143c.419 0 .761.101 1.028.303.266.201.448.499.547.889h-.535a1.02 1.02 0 0 0-.376-.554 1.092 1.092 0 0 0-.659-.193c-.399 0-.732.144-1 .43-.266.288-.4.65-.4 1.086 0 .35.1.63.3.841.201.21.466.316.796.316.285 0 .545-.08.78-.24.232-.16.399-.373.498-.637ZM63.938 28.561l.664-3.432h.87c.402 0 .714.089.934.267.22.177.331.428.331.752 0 .314-.102.573-.303.776-.202.203-.477.32-.827.354l.7 1.285h-.558l-.92-1.687h.086c.492-.005.804-.045.934-.12a.699.699 0 0 0 .256-.249.648.648 0 0 0 .091-.336.514.514 0 0 0-.186-.422c-.123-.1-.296-.151-.519-.151a6.308 6.308 0 0 0-.479.019l-.573 2.944h-.501ZM67.432 27.069c0-.303.049-.582.148-.834a1.806 1.806 0 0 1 1.04-1.043c.229-.089.478-.134.751-.134.476 0 .856.144 1.14.43.285.285.427.667.427 1.146 0 .23-.03.45-.09.654-.06.204-.147.39-.261.557-.173.25-.396.444-.67.582a1.959 1.959 0 0 1-.896.206c-.484 0-.87-.141-1.157-.425-.289-.28-.432-.66-.432-1.14Zm.512-.02c0 .345.1.62.299.826.198.206.462.31.793.31.407 0 .74-.143 1-.429.26-.285.391-.654.391-1.106 0-.348-.099-.626-.296-.832-.197-.204-.463-.307-.795-.307-.404 0-.738.143-1 .43-.262.287-.392.656-.392 1.109ZM72.18 25.13h.501l-.406 2.095c-.018.083-.03.163-.04.237a1.72 1.72 0 0 0-.012.197c0 .151.046.268.137.353.092.084.22.126.388.126.214 0 .377-.067.487-.199.109-.132.2-.393.274-.782l.392-2.028h.506l-.405 2.072c-.002.02-.01.053-.018.098-.076.393-.167.68-.276.856a.887.887 0 0 1-.392.356 1.41 1.41 0 0 1-.608.119c-.303 0-.543-.08-.72-.24-.177-.16-.267-.374-.267-.644 0-.077.004-.162.014-.255s.023-.19.042-.292l.402-2.07ZM75.318 28.561h-.502l.665-3.432h.69c.42 0 .736.083.942.248.206.166.31.417.31.752 0 .162-.03.312-.091.45a.97.97 0 0 1-.263.352 1.173 1.173 0 0 1-.405.226 2.099 2.099 0 0 1-.599.068h-.487l-.26 1.336Zm.573-2.953-.222 1.143h.43c.16 0 .277-.01.352-.03a.592.592 0 0 0 .205-.103.622.622 0 0 0 .226-.479c0-.186-.057-.323-.171-.412-.115-.09-.289-.135-.525-.135-.04 0-.084.002-.134.005-.049.002-.103.005-.16.011ZM82.678 27.58h.613a1.846 1.846 0 0 1-.695.777 1.912 1.912 0 0 1-1.018.274 1.86 1.86 0 0 1-.582-.087 1.473 1.473 0 0 1-.474-.257 1.52 1.52 0 0 1-.434-.546c-.1-.214-.15-.444-.15-.69a2.043 2.043 0 0 1 .572-1.427c.173-.181.376-.319.608-.416.232-.097.479-.145.74-.145.403 0 .751.106 1.04.319.29.213.483.503.582.873h-.562a1.097 1.097 0 0 0-.416-.537 1.172 1.172 0 0 0-.663-.187c-.181 0-.35.035-.512.105a1.384 1.384 0 0 0-.741.789c-.074.185-.11.375-.11.567 0 .34.103.62.307.838.205.218.466.327.784.327.23 0 .443-.051.64-.153a1.22 1.22 0 0 0 .47-.423ZM84.106 27.069c0-.303.049-.582.147-.834a1.808 1.808 0 0 1 1.04-1.043c.23-.089.48-.134.752-.134.476 0 .856.144 1.14.43.284.285.426.667.426 1.146 0 .23-.03.45-.09.654-.059.204-.146.39-.26.557-.173.25-.397.444-.67.582a1.958 1.958 0 0 1-.896.206c-.484 0-.87-.141-1.157-.425-.289-.28-.432-.66-.432-1.14Zm.51-.02c0 .345.1.62.299.826.199.206.463.31.793.31.408 0 .74-.143 1.001-.429.26-.285.39-.654.39-1.106 0-.348-.098-.626-.296-.832-.197-.204-.462-.307-.794-.307-.405 0-.739.143-1 .43-.262.287-.393.656-.393 1.109ZM88.227 28.561l.671-3.432h.78l.48 2.713 1.546-2.713h.825l-.667 3.432h-.502l.566-2.934-1.667 2.934h-.453l-.506-2.93-.57 2.93h-.503ZM93.426 28.561h-.502l.664-3.432h.69c.421 0 .736.083.942.248.206.166.31.417.31.752 0 .162-.03.312-.09.45a.97.97 0 0 1-.263.352 1.173 1.173 0 0 1-.405.226 2.099 2.099 0 0 1-.6.068h-.487l-.26 1.336Zm.573-2.953-.222 1.143h.43c.159 0 .276-.01.352-.03a.592.592 0 0 0 .204-.103.622.622 0 0 0 .226-.479c0-.186-.056-.323-.17-.412-.115-.09-.29-.135-.526-.135-.039 0-.084.002-.133.005-.048.002-.103.005-.161.011ZM95.356 28.561l1.882-3.432h.573l.695 3.432h-.52l-.194-.985h-1.36l-.533.985h-.543Zm2.35-1.463-.256-1.442-.763 1.442h1.018ZM99.154 28.561l.672-3.432h.69l.969 2.75.538-2.75h.502l-.667 3.432h-.657l-.992-2.832-.551 2.832h-.504ZM103.544 28.561l.212-1.173-.625-2.259h.519l.457 1.7 1.116-1.7h.557l-1.497 2.259-.243 1.173h-.496Z" fill="#000"/><path d="M106.898 22.846H0V0h106.898v22.846ZM.846 22.002h105.208V.846H.846v21.156ZM-.002 23.953v5.136h32.227v-5.136H-.002Zm3.206 4.051-.084-.561h-.598l-.084.561H1.99l.495-3.095h.712l.495 3.095h-.49Zm2.617 0c-.027-.08-.044-.127-.044-.38v-.486c0-.287-.097-.393-.32-.393H5.29v1.26h-.486V24.91h.734c.504 0 .72.235.72.712v.244c0 .319-.1.526-.319.628.244.101.324.336.324.658v.478c0 .15.004.26.054.375H5.82Zm3.056-2.052h-.46v-.332c0-.22-.097-.305-.252-.305-.156 0-.253.084-.253.305v1.67c0 .221.097.3.253.3.155 0 .252-.079.252-.3v-.57h-.22v-.442h.68v.982c0 .495-.248.78-.725.78-.478 0-.726-.284-.726-.78v-1.61c0-.495.248-.779.726-.779.477 0 .725.283.725.779v.302Zm2.524-.6h-.84v.86h.667v.443h-.667v.907h.84v.442h-1.328V24.91h1.328v.442Zm2.724 2.652h-.5l-.605-2.242v2.242h-.438V24.91h.61l.5 1.852V24.91h.433v3.095Zm2.595-2.653h-.51v2.653h-.485v-2.653h-.51v-.442h1.503v.442h.002Zm1.582 2.653h-.485V24.91h.485v3.095Zm2.778 0h-.499l-.606-2.242v2.242h-.438V24.91h.61l.5 1.852V24.91h.433v3.095Zm2.317 0-.084-.561h-.598l-.084.561h-.447l.495-3.095h.712l.495 3.095h-.49Z" fill="#000"/><path d="M5.524 25.351h-.235v.95h.19c.181 0 .292-.08.292-.328v-.304c.001-.22-.074-.318-.247-.318ZM22.777 27.022h.469l-.234-1.565-.235 1.565ZM2.584 27.022h.469l-.235-1.565-.234 1.565ZM23.274 10.953V2.47L6.637 10.953h16.637ZM24.213 11.893v6.974l6.049-6.974h-6.05ZM30.82 19.72v-7.04l-6.056 6.985 6.056.055ZM24.213 10.953h7.89v-2.77h4.62l-12.51-5.616v8.386Z" fill="#000"/><path d="M.424.422v22.002h44.07V.422H.424Zm41.163 11.471h-9.829v10.531h-.938v-1.765l-6.607-.06v1.825h-.939V11.893H1.945v-.939H4.57l18.69-9.53a.47.47 0 0 1 .349-.03.474.474 0 0 1 .328.02L38.84 8.106a.47.47 0 0 1 .277.428v2.42h2.47v.939Z" fill="#000"/></svg>