<svg width="107" height="30" viewBox="0 0 107 30" fill="none" xmlns="http://www.w3.org/2000/svg">
<path d="M49.4656 8.26809H46.418V6.38818H54.747V8.26809H51.6994V16.5551H49.4656V8.26809Z" fill="black"/>
<path d="M55.7862 13.3653C55.8428 14.6462 56.4694 15.2307 57.5951 15.2307C58.4074 15.2307 59.0616 14.7318 59.1892 14.2763H60.969C60.399 16.014 59.1892 16.7538 57.524 16.7538C55.2031 16.7538 53.7656 15.1597 53.7656 12.8809C53.7656 10.6731 55.2887 8.99341 57.524 8.99341C60.0305 8.99341 61.2403 11.101 61.0981 13.3653H55.7862ZM59.0761 12.0831C58.8904 11.0575 58.4494 10.5165 57.4674 10.5165C56.1866 10.5165 55.8152 11.513 55.7877 12.0831H59.0761Z" fill="black"/>
<path d="M67.3072 11.7843C67.1796 10.9589 66.6516 10.5165 65.8117 10.5165C64.5164 10.5165 64.0885 11.8263 64.0885 12.9084C64.0885 13.9615 64.5019 15.2293 65.7682 15.2293C66.7081 15.2293 67.2492 14.6317 67.3768 13.7338H69.3278C69.0711 15.6848 67.7192 16.7524 65.7827 16.7524C63.5619 16.7524 62.0664 15.1858 62.0664 12.9795C62.0664 10.6876 63.4328 8.99341 65.8248 8.99341C67.5625 8.99341 69.1567 9.90435 69.2843 11.7843H67.3072Z" fill="black"/>
<path d="M70.6816 6.38818H75.2668C77.8009 6.38818 78.7844 7.99684 78.7844 9.64901C78.7844 11.3012 77.8024 12.9098 75.2668 12.9098H72.9169V16.5551H70.6816V6.38818ZM72.9169 11.1721H74.6547C75.6947 11.1721 76.6202 10.9443 76.6202 9.64901C76.6202 8.35367 75.6947 8.12594 74.6547 8.12594H72.9169V11.1721Z" fill="black"/>
<path d="M80.0234 6.38818H82.0455V16.5551H80.0234V6.38818Z" fill="black"/>
<path d="M83.5539 11.4564C83.667 9.56202 85.3627 8.99341 87.0135 8.99341C88.48 8.99341 90.2453 9.32123 90.2453 11.0865V14.9174C90.2453 15.5861 90.3163 16.2563 90.502 16.5551H88.4524C88.3813 16.3274 88.3247 16.0851 88.3102 15.8429C87.6691 16.5116 86.7291 16.7538 85.8327 16.7538C84.4373 16.7538 83.3262 16.0561 83.3262 14.5475C83.3262 12.8823 84.5794 12.4834 85.8327 12.3123C87.0715 12.1266 88.2247 12.1701 88.2247 11.3447C88.2247 10.4759 87.627 10.3482 86.9148 10.3482C86.146 10.3482 85.647 10.6615 85.576 11.4593H83.5539V11.4564ZM88.2247 12.9519C87.8823 13.2508 87.1716 13.2653 86.5449 13.3799C85.9183 13.5075 85.3482 13.7222 85.3482 14.462C85.3482 15.2162 85.9313 15.4019 86.587 15.4019C88.1681 15.4019 88.2247 14.1486 88.2247 13.7077V12.9519Z" fill="black"/>
<path d="M94.3752 9.19357H95.8562V10.5455H94.3752V14.1907C94.3752 14.8739 94.5464 15.0451 95.2296 15.0451C95.4428 15.0451 95.643 15.0306 95.8562 14.9885V16.5696C95.5139 16.6262 95.0729 16.6407 94.674 16.6407C93.4353 16.6407 92.3532 16.3564 92.3532 14.8899V10.5469H91.1289V9.19502H92.3532V6.98584H94.3752V9.19357Z" fill="black"/>
<path d="M96.739 11.4564C96.8535 9.56202 98.5478 8.99341 100.199 8.99341C101.665 8.99341 103.43 9.32123 103.43 11.0865V14.9174C103.43 15.5861 103.501 16.2563 103.687 16.5551H101.636C101.565 16.3274 101.508 16.0851 101.494 15.8429C100.853 16.5116 99.9127 16.7538 99.0163 16.7538C97.6209 16.7538 96.5098 16.0561 96.5098 14.5475C96.5098 12.8823 97.763 12.4834 99.0163 12.3123C100.255 12.1266 101.408 12.1701 101.408 11.3447C101.408 10.4759 100.811 10.3482 100.098 10.3482C99.3296 10.3482 98.8306 10.6615 98.7596 11.4593H96.739V11.4564ZM101.408 12.9519C101.066 13.2508 100.355 13.2653 99.7285 13.3799C99.1019 13.5075 98.5318 13.7222 98.5318 14.462C98.5318 15.2162 99.115 15.4019 99.7706 15.4019C101.352 15.4019 101.408 14.1486 101.408 13.7077V12.9519Z" fill="black"/>
<path d="M35.6074 28.5614L37.4902 25.1294H38.0632L38.758 28.5614H38.2373L38.0443 27.5765H36.6837L36.1514 28.5614H35.6074ZM37.9573 27.0978L37.7035 25.6559L36.939 27.0978H37.9573Z" fill="black"/>
<path d="M39.4062 28.5614L40.0779 25.1294H40.7683L41.7373 27.8796L42.274 25.1294H42.7759L42.1086 28.5614H41.4515L40.4593 25.7285L39.9081 28.5614H39.4062Z" fill="black"/>
<path d="M45.0645 28.5614L45.7288 25.1294H46.2307L45.5663 28.5614H45.0645Z" fill="black"/>
<path d="M49.5018 27.5809H50.1154C49.95 27.916 49.7179 28.1742 49.4206 28.3569C49.1218 28.5397 48.7823 28.6311 48.4023 28.6311C48.192 28.6311 47.9976 28.6021 47.8206 28.5441C47.6436 28.486 47.4855 28.4004 47.3463 28.2873C47.1577 28.1365 47.0127 27.9537 46.9126 27.7405C46.8125 27.5272 46.7617 27.2966 46.7617 27.0514C46.7617 26.7831 46.811 26.5263 46.9097 26.2812C47.0083 26.0361 47.149 25.817 47.3347 25.6241C47.5073 25.4428 47.7104 25.305 47.9425 25.2078C48.1745 25.1106 48.4211 25.0627 48.6822 25.0627C49.0855 25.0627 49.4336 25.1686 49.7223 25.3819C50.0124 25.5951 50.2053 25.8852 50.3039 26.2551H49.7426C49.6527 26.023 49.5149 25.8431 49.3263 25.7184C49.1392 25.5936 48.9172 25.5313 48.6634 25.5313C48.4821 25.5313 48.3123 25.5661 48.1513 25.6357C47.9903 25.7053 47.8453 25.8069 47.7147 25.9403C47.5856 26.0767 47.4841 26.2391 47.4101 26.4248C47.3361 26.6105 47.2999 26.8005 47.2999 26.992C47.2999 27.3328 47.4029 27.6128 47.6074 27.8304C47.8119 28.048 48.073 28.1568 48.3907 28.1568C48.6213 28.1568 48.8345 28.106 49.0304 28.0044C49.2276 27.9029 49.3843 27.7608 49.5018 27.5809Z" fill="black"/>
<path d="M51.3146 28.5614L51.889 25.6037H51.1348L51.2262 25.1294H53.2061L53.1148 25.6037H52.3909L51.8151 28.5614H51.3146Z" fill="black"/>
<path d="M53.4473 27.4648H53.9753C53.9753 27.4779 53.9738 27.4938 53.9724 27.5127C53.9709 27.533 53.9695 27.5475 53.9695 27.5562C53.9695 27.752 54.013 27.9014 54.1015 28.0001C54.1899 28.1002 54.3205 28.1495 54.4946 28.1495C54.6585 28.1495 54.7934 28.0973 54.9007 27.9914C55.0081 27.8855 55.0617 27.7535 55.0617 27.5925C55.0617 27.4793 55.0356 27.3836 54.9834 27.3067C54.9312 27.2284 54.8151 27.137 54.6353 27.0297C54.6077 27.0122 54.5642 26.9876 54.5062 26.9542C54.2842 26.8295 54.1218 26.7149 54.0188 26.6104C53.9434 26.5321 53.8868 26.4436 53.8491 26.3464C53.8114 26.2493 53.7925 26.1419 53.7925 26.0259C53.7925 25.7474 53.8897 25.5167 54.0855 25.334C54.2799 25.1512 54.5265 25.0598 54.8253 25.0598C55.1125 25.0598 55.3388 25.1381 55.5041 25.2963C55.6695 25.4544 55.7522 25.6705 55.7522 25.9432C55.7522 25.9722 55.7522 25.9925 55.7507 26.0085C55.7493 26.023 55.7493 26.0375 55.7478 26.0491H55.2358C55.2358 26.0418 55.2372 26.0302 55.2387 26.0157C55.2401 26.0012 55.2416 25.9896 55.2416 25.9809C55.2416 25.8373 55.201 25.7242 55.1212 25.64C55.0414 25.5559 54.9341 25.5138 54.7977 25.5138C54.6672 25.5138 54.5555 25.5603 54.4626 25.6516C54.3698 25.743 54.3234 25.8533 54.3234 25.9809C54.3234 26.1608 54.5192 26.3639 54.9109 26.5916C54.9906 26.638 55.053 26.6757 55.0965 26.7018C55.2561 26.7976 55.3808 26.9209 55.4708 27.0732C55.5593 27.2255 55.6042 27.3879 55.6042 27.5649C55.6042 27.8666 55.4983 28.1205 55.2866 28.325C55.0748 28.5295 54.8108 28.6325 54.4946 28.6325C54.158 28.6325 53.8998 28.5397 53.72 28.3526C53.5401 28.1654 53.4502 27.8971 53.4502 27.546V27.4648H53.4473Z" fill="black"/>
<path d="M56.2363 28.5614L56.9007 25.1294H57.4026L56.7382 28.5614H56.2363Z" fill="black"/>
<path d="M62.7347 27.3068H61.1695L61.2566 26.876H63.3526C63.2888 27.4112 63.0828 27.8391 62.739 28.1568C62.3938 28.4745 61.963 28.634 61.4466 28.634C60.952 28.634 60.5603 28.4904 60.2746 28.2032C59.9874 27.916 59.8438 27.5258 59.8438 27.0312C59.8438 26.7628 59.8902 26.509 59.983 26.2682C60.0758 26.0288 60.2078 25.8171 60.3819 25.6357C60.5589 25.4472 60.7634 25.305 60.9955 25.2093C61.2276 25.1135 61.48 25.0657 61.7556 25.0657C62.1748 25.0657 62.5171 25.1672 62.784 25.3688C63.0495 25.5705 63.2322 25.8678 63.3309 26.258H62.7956C62.7231 26.0172 62.5983 25.833 62.4199 25.7039C62.2415 25.5748 62.0225 25.511 61.7614 25.511C61.3625 25.511 61.0288 25.6546 60.7619 25.9418C60.495 26.229 60.3616 26.5902 60.3616 27.0268C60.3616 27.3778 60.4617 27.6578 60.6619 27.8681C60.862 28.0785 61.1275 28.1843 61.4568 28.1843C61.7425 28.1843 62.0022 28.1046 62.2371 27.9436C62.4692 27.784 62.636 27.5708 62.7347 27.3068Z" fill="black"/>
<path d="M63.9375 28.5614L64.6019 25.1294H65.4722C65.874 25.1294 66.1858 25.2179 66.4063 25.3963C66.6268 25.5733 66.7371 25.8242 66.7371 26.1477C66.7371 26.4624 66.6355 26.7206 66.4339 26.9237C66.2323 27.1268 65.9567 27.2443 65.6071 27.2777L66.3077 28.5628H65.7492L64.8281 26.8758C64.8484 26.8758 64.8775 26.8758 64.9152 26.8758C65.4069 26.8715 65.7188 26.8309 65.8493 26.7555C65.9581 26.6931 66.0422 26.6104 66.1046 26.5074C66.1655 26.4044 66.196 26.2927 66.196 26.1709C66.196 25.9896 66.1336 25.8489 66.0103 25.7488C65.887 25.6487 65.7144 25.5979 65.491 25.5979C65.4287 25.5979 65.3561 25.5994 65.2735 25.6023C65.1922 25.6052 65.1052 25.6095 65.0124 25.6168L64.4394 28.5614H63.9375Z" fill="black"/>
<path d="M67.4316 27.0688C67.4316 26.7656 67.481 26.4871 67.5796 26.2347C67.6782 25.9823 67.8204 25.7662 68.0075 25.5849C68.1859 25.4123 68.3905 25.2817 68.6196 25.1918C68.8488 25.1033 69.0983 25.0583 69.371 25.0583C69.8468 25.0583 70.2268 25.202 70.5111 25.4877C70.7955 25.7735 70.9376 26.155 70.9376 26.6336C70.9376 26.8643 70.9071 27.0833 70.8477 27.2878C70.7882 27.4924 70.7012 27.678 70.5866 27.8448C70.414 28.0943 70.1906 28.2887 69.9179 28.4265C69.6452 28.5643 69.3464 28.6325 69.0214 28.6325C68.537 28.6325 68.1511 28.4918 67.8639 28.2075C67.5752 27.9275 67.4316 27.5475 67.4316 27.0688ZM67.9437 27.0499C67.9437 27.3937 68.0438 27.6693 68.2425 27.8753C68.4412 28.0813 68.7052 28.1843 69.0359 28.1843C69.4435 28.1843 69.7757 28.0421 70.0368 27.7564C70.2965 27.4706 70.427 27.1022 70.427 26.6496C70.427 26.3015 70.3284 26.0244 70.1311 25.8184C69.9338 25.6139 69.6684 25.5109 69.3362 25.5109C68.9315 25.5109 68.5979 25.6545 68.3368 25.9417C68.0742 26.2275 67.9437 26.5974 67.9437 27.0499Z" fill="black"/>
<path d="M72.1791 25.1294H72.681L72.2748 27.2254C72.2574 27.3081 72.2443 27.3879 72.2356 27.4619C72.2269 27.5358 72.2226 27.6026 72.2226 27.6591C72.2226 27.81 72.269 27.9275 72.3604 28.0116C72.4518 28.0958 72.5809 28.1378 72.7477 28.1378C72.9624 28.1378 73.1248 28.0711 73.2351 27.9391C73.3439 27.8071 73.4352 27.546 73.5092 27.1573L73.9009 25.1294H74.4071L74.0024 27.2008C73.9995 27.2211 73.9923 27.2544 73.9835 27.2994C73.9081 27.6925 73.8167 27.9783 73.708 28.1552C73.6151 28.3119 73.4846 28.4308 73.3163 28.5106C73.148 28.5904 72.945 28.6296 72.7085 28.6296C72.4054 28.6296 72.1646 28.5498 71.9876 28.3902C71.8106 28.2307 71.7207 28.016 71.7207 27.7462C71.7207 27.6693 71.7251 27.5837 71.7352 27.4909C71.7454 27.398 71.7584 27.3009 71.7773 27.1993L72.1791 25.1294Z" fill="black"/>
<path d="M75.3183 28.5614H74.8164L75.4808 25.1294H76.1712C76.5919 25.1294 76.9066 25.2121 77.1126 25.3774C77.3186 25.5428 77.423 25.7937 77.423 26.1288C77.423 26.2913 77.3926 26.4407 77.3317 26.5785C77.2707 26.7163 77.1837 26.8338 77.0691 26.931C76.9429 27.0369 76.808 27.1123 76.6644 27.1573C76.5194 27.2022 76.3206 27.2254 76.0653 27.2254H75.5779L75.3183 28.5614ZM75.8913 25.6081L75.6693 26.7511H76.0987C76.2583 26.7511 76.3757 26.7409 76.4512 26.7206C76.5252 26.7003 76.5933 26.6655 76.6557 26.6177C76.7253 26.5625 76.7804 26.4915 76.8211 26.4044C76.8617 26.3174 76.882 26.2289 76.882 26.139C76.882 25.9533 76.8254 25.8155 76.7108 25.727C76.5962 25.6371 76.4222 25.5921 76.1857 25.5921C76.1466 25.5921 76.1016 25.5936 76.0523 25.5965C76.003 25.5994 75.9493 25.6023 75.8913 25.6081Z" fill="black"/>
<path d="M82.6776 27.5809H83.2912C83.1258 27.916 82.8937 28.1742 82.5964 28.3569C82.2975 28.5397 81.9581 28.6311 81.5781 28.6311C81.3677 28.6311 81.1734 28.6021 80.9964 28.5441C80.8194 28.486 80.6613 28.4004 80.5221 28.2873C80.3335 28.1365 80.1884 27.9537 80.0884 27.7405C79.9883 27.5272 79.9375 27.2966 79.9375 27.0514C79.9375 26.7831 79.9868 26.5263 80.0855 26.2812C80.1841 26.0361 80.3262 25.817 80.5105 25.6241C80.6831 25.4428 80.8862 25.305 81.1182 25.2078C81.3503 25.1106 81.5969 25.0627 81.858 25.0627C82.2613 25.0627 82.6094 25.1686 82.8981 25.3819C83.1882 25.5951 83.3811 25.8852 83.4797 26.2551H82.9184C82.8284 26.023 82.6906 25.8431 82.5021 25.7184C82.3135 25.5936 82.093 25.5313 81.8392 25.5313C81.6579 25.5313 81.4881 25.5661 81.3271 25.6357C81.1676 25.7053 81.0211 25.8069 80.8905 25.9403C80.7614 26.0767 80.6599 26.2391 80.5859 26.4248C80.5119 26.6105 80.4757 26.8005 80.4757 26.992C80.4757 27.3328 80.5786 27.6128 80.7832 27.8304C80.9877 28.048 81.2488 28.1568 81.5665 28.1568C81.7971 28.1568 82.0103 28.106 82.2062 28.0044C82.4034 27.9029 82.5601 27.7608 82.6776 27.5809Z" fill="black"/>
<path d="M84.1055 27.0688C84.1055 26.7656 84.1548 26.4871 84.2534 26.2347C84.3521 25.9823 84.4942 25.7662 84.6813 25.5849C84.8597 25.4123 85.0643 25.2817 85.2935 25.1918C85.5227 25.1033 85.7721 25.0583 86.0448 25.0583C86.5206 25.0583 86.9007 25.202 87.185 25.4877C87.4693 25.7735 87.6114 26.155 87.6114 26.6336C87.6114 26.8643 87.581 27.0833 87.5215 27.2878C87.462 27.4924 87.375 27.678 87.2604 27.8448C87.0878 28.0943 86.8644 28.2887 86.5917 28.4265C86.319 28.5643 86.0202 28.6325 85.6953 28.6325C85.2108 28.6325 84.8249 28.4918 84.5377 28.2075C84.2491 27.9275 84.1055 27.5475 84.1055 27.0688ZM84.6161 27.0499C84.6161 27.3937 84.7161 27.6693 84.9149 27.8753C85.1136 28.0813 85.3776 28.1843 85.7083 28.1843C86.1159 28.1843 86.4481 28.0421 86.7092 27.7564C86.9688 27.4706 87.0994 27.1022 87.0994 26.6496C87.0994 26.3015 87.0008 26.0244 86.8035 25.8184C86.6062 25.6139 86.3408 25.5109 86.0086 25.5109C85.6039 25.5109 85.2703 25.6545 85.0092 25.9417C84.7466 26.2275 84.6161 26.5974 84.6161 27.0499Z" fill="black"/>
<path d="M88.2266 28.5614L88.8982 25.1294H89.6786L90.1572 27.8419L91.7035 25.1294H92.5289L91.8616 28.5614H91.3597L91.9255 25.6269L90.2588 28.5614H89.8062L89.3 25.6313L88.7299 28.5614H88.2266Z" fill="black"/>
<path d="M93.4257 28.5614H92.9238L93.5882 25.1294H94.2786C94.6993 25.1294 95.0141 25.2121 95.22 25.3774C95.426 25.5428 95.5305 25.7937 95.5305 26.1288C95.5305 26.2913 95.5 26.4407 95.4391 26.5785C95.3782 26.7163 95.2911 26.8338 95.1765 26.931C95.0503 27.0369 94.9154 27.1123 94.7718 27.1573C94.6268 27.2022 94.428 27.2254 94.1727 27.2254H93.6854L93.4257 28.5614ZM93.9987 25.6081L93.7767 26.7511H94.2061C94.3657 26.7511 94.4832 26.7409 94.5586 26.7206C94.6326 26.7003 94.7007 26.6655 94.7631 26.6177C94.8327 26.5625 94.8879 26.4915 94.9285 26.4044C94.9691 26.3174 94.9894 26.2289 94.9894 26.139C94.9894 25.9533 94.9328 25.8155 94.8182 25.727C94.7036 25.6371 94.5296 25.5921 94.2931 25.5921C94.254 25.5921 94.209 25.5936 94.1597 25.5965C94.1118 25.5994 94.0567 25.6023 93.9987 25.6081Z" fill="black"/>
<path d="M95.3555 28.5614L97.2383 25.1294H97.8112L98.506 28.5614H97.9853L97.7924 27.5765H96.4318L95.8994 28.5614H95.3555ZM97.7054 27.0978L97.4501 25.6559L96.6871 27.0978H97.7054Z" fill="black"/>
<path d="M99.1543 28.5614L99.8259 25.1294H100.516L101.485 27.8796L102.023 25.1294H102.525L101.858 28.5614H101.201L100.209 25.7285L99.6576 28.5614H99.1543Z" fill="black"/>
<path d="M103.544 28.5614L103.756 27.3879L103.131 25.1294H103.65L104.107 26.8294L105.223 25.1294H105.78L104.283 27.3879L104.04 28.5614H103.544Z" fill="black"/>
<path d="M106.898 22.8461H0V0H106.898V22.8461ZM0.845667 22.0019H106.054V0.845668H0.845667V22.0019Z" fill="black"/>
<path d="M-0.00195312 23.9529V29.0893H32.2248V23.9529H-0.00195312ZM3.20375 28.0043L3.11962 27.4429H2.522L2.43786 28.0043H1.9911L2.48573 24.9088H3.19795L3.69258 28.0043H3.20375ZM5.82053 28.0043C5.79442 27.9245 5.77702 27.8766 5.77702 27.6242V27.1383C5.77702 26.8511 5.67983 26.7452 5.4579 26.7452H5.28964V28.0057H4.8037V24.9088H5.53768C6.04247 24.9088 6.2586 25.1438 6.2586 25.621V25.8647C6.2586 26.1838 6.15706 26.3912 5.93948 26.4928C6.18317 26.5943 6.26295 26.8293 6.26295 27.1513V27.6286C6.26295 27.7794 6.2673 27.8897 6.31662 28.0043H5.82053ZM8.87683 25.9517H8.41701V25.6196C8.41701 25.3991 8.31982 25.3149 8.16461 25.3149C8.00941 25.3149 7.91222 25.3991 7.91222 25.6196V27.2906C7.91222 27.5111 8.00941 27.5908 8.16461 27.5908C8.31982 27.5908 8.41701 27.5111 8.41701 27.2906V26.7205H8.19653V26.2781H8.87683V27.2601C8.87683 27.7548 8.62879 28.0391 8.15156 28.0391C7.67433 28.0391 7.42629 27.7562 7.42629 27.2601V25.65C7.42629 25.1554 7.67433 24.8711 8.15156 24.8711C8.62879 24.8711 8.87683 25.1539 8.87683 25.65V25.9517ZM11.4008 25.3512H10.5609V26.2128H11.2282V26.6552H10.5609V27.5618H11.4008V28.0043H10.0735V24.9088H11.4008V25.3512ZM14.1249 28.0043H13.6259L13.0196 25.7617V28.0043H12.5815V24.9088H13.1922L13.6912 26.7611V24.9088H14.1249V28.0043ZM16.7199 25.3512H16.2108V28.0043H15.7249V25.3512H15.2157V24.9088H16.7185V25.3512H16.7199ZM18.3025 28.0043H17.8165V24.9088H18.3025V28.0043ZM21.0803 28.0043H20.5813L19.975 25.7617V28.0043H19.5369V24.9088H20.1476L20.6466 26.7611V24.9088H21.0803V28.0043ZM23.3968 28.0043L23.3127 27.4429H22.715L22.6309 28.0043H22.1841L22.6788 24.9088H23.391L23.8856 28.0043H23.3968Z" fill="black"/>
<path d="M5.52405 25.3511H5.28906V26.3012H5.47908C5.6604 26.3012 5.77064 26.2214 5.77064 25.9734V25.6687C5.77209 25.4483 5.69666 25.3511 5.52405 25.3511Z" fill="black"/>
<path d="M22.7773 27.0222H23.2459L23.0123 25.457L22.7773 27.0222Z" fill="black"/>
<path d="M2.58398 27.0222H3.05251L2.81752 25.457L2.58398 27.0222Z" fill="black"/>
<path d="M23.2745 10.953V2.47021L6.63672 10.953H23.2745Z" fill="black"/>
<path d="M24.2129 11.8931V18.8673L30.2617 11.8931H24.2129Z" fill="black"/>
<path d="M30.8197 19.7202V12.6807L24.7637 19.665L30.8197 19.7202Z" fill="black"/>
<path d="M24.2129 10.953H32.1024V8.18389H36.7238L24.2129 2.56738V10.953Z" fill="black"/>
<path d="M0.423828 0.422119V22.424H44.4943V0.422119H0.423828ZM41.5874 11.893H31.7585V22.424H30.82V20.6587L24.2128 20.5992V22.424H23.2743V11.893H4.68408H4.68263H4.68118H1.94545V10.9545H4.56948L23.2598 1.42445C23.3714 1.36787 23.4962 1.36062 23.6079 1.39398C23.7152 1.36207 23.8313 1.36787 23.9357 1.41429L38.8401 8.10566C39.0083 8.18108 39.1171 8.34935 39.1171 8.53357V10.9531H41.5874V11.893Z" fill="black"/>
</svg>
