<svg width="102" height="38" viewBox="0 0 102 38" fill="none" xmlns="http://www.w3.org/2000/svg">
<path d="M28.7492 13.0657L22.877 11.1059V2.61329L28.7564 4.35535L28.7492 13.0657Z" fill="black"/>
<path d="M30.2812 4.35535L36.1607 2.61329L36.1402 11.1L30.2812 13.0657V4.35535Z" fill="black"/>
<path d="M34.9602 1.69347L29.4805 -3.14713e-05L24.0723 1.69347L29.4883 3.14526L34.9602 1.69347Z" fill="black"/>
<path d="M43.5539 13.0657L37.6816 11.1059V2.61329L43.5611 4.35535L43.5539 13.0657Z" fill="black"/>
<path d="M45.0879 4.35535L50.9674 2.61329L50.9469 11.1L45.0879 13.0657V4.35535Z" fill="black"/>
<path d="M49.7688 1.69347L44.2891 -3.14713e-05L38.8809 1.69347L44.2969 3.14526L49.7688 1.69347Z" fill="black"/>
<path d="M6.54353 16.7677L0.664062 15.0256V23.5182L6.53639 25.478L6.54353 16.7677Z" fill="black"/>
<path d="M8.06641 16.7677L13.9459 15.0256L13.9255 23.5125L8.06641 25.478V16.7677Z" fill="black"/>
<path d="M12.7492 14.1058L7.26955 12.4123L1.86133 14.1058L7.27747 15.5576L12.7492 14.1058Z" fill="black"/>
<path d="M21.3411 25.4778L15.4688 23.518V15.0254L21.3482 16.7675L21.3411 25.4778Z" fill="black"/>
<path d="M22.877 16.7675L28.7564 15.0254L28.736 23.5123L22.877 25.4778V16.7675Z" fill="black"/>
<path d="M27.5578 14.1058L22.0781 12.4123L16.6699 14.1058L22.0861 15.5576L27.5578 14.1058Z" fill="black"/>
<path d="M13.9387 37.8901L8.06641 35.9303V27.4378L13.9459 29.1798L13.9387 37.8901Z" fill="black"/>
<path d="M15.4688 29.1798L21.3482 27.4378L21.3278 35.9246L15.4688 37.8901V29.1798Z" fill="black"/>
<path d="M20.1535 26.5182L14.6738 24.8247L9.26562 26.5182L14.6818 27.97L20.1535 26.5182Z" fill="black"/>
<path d="M39.9442 30.3826L39.5122 30.3842C39.3537 30.3842 39.1516 30.4913 39.102 30.6649L37.7913 35.2825L36.495 30.6749C36.456 30.5305 36.3199 30.3842 36.1348 30.3842H35.6233C35.439 30.3842 35.3047 30.5324 35.2675 30.6779L34.0615 35.2375L32.8155 30.6638C32.7663 30.4965 32.5592 30.3842 32.3968 30.3842L31.7751 30.3831C31.6422 30.3831 31.5187 30.4401 31.4525 30.532C31.4077 30.5943 31.3953 30.6649 31.416 30.7263L33.3409 37.5412C33.3834 37.6845 33.5075 37.8289 33.6891 37.8289H34.3074C34.4744 37.8289 34.6207 37.7071 34.663 37.5345L35.8478 32.9949L37.1371 37.5396C37.1759 37.6788 37.3007 37.8289 37.4831 37.8289H38.0913C38.2605 37.8289 38.403 37.7113 38.4448 37.5391L40.2977 30.7291C40.3194 30.6635 40.3068 30.5906 40.2626 30.5292C40.1975 30.4388 40.0756 30.3826 39.9442 30.3826Z" fill="#100F0D"/>
<path d="M45.2909 33.276H42.025C42.1001 32.3595 42.6953 31.4092 43.7035 31.3726C44.7764 31.4077 45.2672 32.3362 45.2909 33.276ZM43.7011 30.3339C41.495 30.3339 40.4902 32.2843 40.4902 34.0963C40.4902 36.3577 41.7393 37.8188 43.6723 37.8188C45.0557 37.8188 46.1103 37.1199 46.5659 35.8987C46.5903 35.8288 46.5827 35.753 46.5446 35.6851C46.4982 35.6026 46.4102 35.5403 46.3061 35.5174L45.6938 35.4003C45.5294 35.3745 45.341 35.4719 45.2787 35.6132C44.9813 36.2917 44.4391 36.6767 43.7586 36.6968C43.1038 36.6766 42.5025 36.2876 42.2271 35.7064C42.0032 35.2317 41.9701 34.7638 41.9664 34.2879L46.4002 34.2864C46.4932 34.2864 46.5894 34.2455 46.6574 34.1767C46.7142 34.1196 46.7451 34.0487 46.7445 33.9776C46.7336 32.216 45.9285 30.3339 43.7011 30.3339Z" fill="#100F0D"/>
<path d="M52.1989 34.1073C52.1989 34.5245 52.1233 36.6078 50.6432 36.6612C50.1471 36.6422 49.6459 36.3506 49.3658 35.9195C49.1596 35.5935 49.0392 35.1427 49.0083 34.5851V33.3593C49.0324 32.4203 49.6933 31.3899 50.6384 31.35C52.1235 31.4086 52.1989 33.657 52.1989 34.1073ZM50.8753 30.2708H50.758C50.0256 30.2708 49.4501 30.575 49.0083 31.1985L49.0076 28.3256C49.0076 28.1643 48.841 28.0173 48.657 28.0173H48.0194C47.8529 28.0173 47.6665 28.1492 47.666 28.3256V37.2938C47.6667 37.4567 47.8333 37.6047 48.017 37.6047L48.2043 37.6037C48.3811 37.6037 48.507 37.4612 48.5495 37.3288L48.7489 36.6958C49.2123 37.3538 49.9102 37.7404 50.6571 37.7404H50.7715C52.7389 37.7404 53.6195 35.8267 53.6195 33.9303C53.6195 32.9863 53.3867 32.0837 52.9811 31.4539C52.5122 30.7242 51.7052 30.2708 50.8753 30.2708Z" fill="#100F0D"/>
<path d="M60.6001 33.9051C60.1854 33.6072 59.687 33.5077 59.1877 33.408L58.2302 33.2305C57.5432 33.1175 57.1455 32.9333 57.1455 32.327C57.1455 31.6862 57.8097 31.4412 58.3728 31.426C59.0605 31.4433 59.5777 31.7501 59.8288 32.2898C59.8884 32.4169 60.0206 32.5025 60.158 32.5025C60.1815 32.5025 60.2055 32.4999 60.2281 32.4949L60.8257 32.3629C60.9232 32.3414 61.0142 32.2745 61.063 32.1876C61.102 32.1186 61.1105 32.0433 61.0872 31.976C60.7216 30.9109 59.7933 30.3481 58.3889 30.3481C57.1201 30.3509 55.7641 30.9151 55.7641 32.4909C55.7641 33.568 56.4409 34.252 57.777 34.5242L58.8489 34.7284C59.4372 34.841 60.0389 35.0413 60.0389 35.6731C60.0389 36.6083 58.9505 36.7037 58.6215 36.7105C57.8833 36.6946 57.0476 36.3653 56.8446 35.6681C56.8039 35.5148 56.611 35.4063 56.4418 35.4415L55.8168 35.5705C55.7227 35.5903 55.6367 35.6515 55.5866 35.7341C55.5446 35.8029 55.5326 35.88 55.552 35.9503C55.8745 37.1072 56.9914 37.8049 58.5396 37.8166L58.574 37.8169C59.9568 37.8169 61.4343 37.2248 61.4343 35.5638C61.4343 34.8876 61.1301 34.2831 60.6001 33.9051Z" fill="#100F0D"/>
<path d="M66.9231 33.283H63.6563C63.731 32.3656 64.3261 31.4149 65.3343 31.38C66.4068 31.4141 66.8983 32.3425 66.9231 33.283ZM65.3326 30.3405C63.126 30.3405 62.1211 32.291 62.1211 34.1029C62.1211 36.3641 63.3704 37.8251 65.3036 37.8251C66.6873 37.8251 67.7419 37.126 68.1978 35.9051C68.222 35.8351 68.2144 35.7592 68.1761 35.6911C68.1297 35.6085 68.0415 35.5462 67.9376 35.5237L67.3244 35.4066C67.1809 35.3833 66.9808 35.4575 66.9102 35.6198C66.6126 36.2979 66.0701 36.6829 65.3903 36.7038C64.7348 36.6829 64.1338 36.294 63.8595 35.713C63.6352 35.2394 63.6019 34.771 63.5986 34.2941L68.0319 34.293C68.1242 34.293 68.2198 34.2523 68.2878 34.1839C68.3448 34.1266 68.3758 34.0556 68.3751 33.9842C68.3649 32.2227 67.5605 30.3405 65.3326 30.3405Z" fill="#100F0D"/>
<path d="M72.5613 30.4234C72.4748 30.4139 72.3916 30.4093 72.3109 30.4093C71.5668 30.4093 70.9625 30.8138 70.5431 31.5867L70.5446 30.9098C70.544 30.7459 70.3804 30.6019 70.1947 30.6019H69.6409C69.4593 30.6019 69.2991 30.7465 69.2977 30.9125L69.2969 37.4872C69.2969 37.6523 69.4571 37.7971 69.6401 37.7971L70.2861 37.7969C70.4543 37.7969 70.6435 37.6649 70.645 37.4872L70.6454 34.1725C70.6454 33.626 70.6964 33.2142 70.9575 32.727C71.3305 32.0331 71.8514 31.6927 72.55 31.6872C72.725 31.6859 72.8788 31.5331 72.8788 31.36V30.745C72.8788 30.5841 72.7392 30.4428 72.5613 30.4234Z" fill="#100F0D"/>
<path d="M79.3431 30.2941L78.8329 30.2943C78.6731 30.2943 78.4682 30.4091 78.4185 30.5774L76.7647 35.7755L75.0757 30.5826C75.0259 30.4102 74.8205 30.2943 74.6598 30.2943L73.9312 30.2936C73.7975 30.2936 73.6681 30.3533 73.6019 30.4454C73.5575 30.5071 73.5453 30.577 73.5673 30.6422L75.8788 37.4992C75.9232 37.6349 76.0411 37.7935 76.2275 37.7935H77.1092C77.2709 37.7935 77.4036 37.6833 77.4643 37.4986L79.7063 30.6445C79.7288 30.5794 79.7168 30.5092 79.6726 30.4474C79.606 30.3544 79.4768 30.2941 79.3431 30.2941Z" fill="#100F0D"/>
<path d="M81.0201 27.6583C80.5501 27.6583 80.168 28.0415 80.168 28.513C80.168 28.9844 80.5501 29.3674 81.0201 29.3674C81.4902 29.3674 81.8728 28.9844 81.8728 28.513C81.8728 28.0415 81.4902 27.6583 81.0201 27.6583Z" fill="#100F0D"/>
<path d="M81.3734 30.2523L80.6738 30.2516C80.4835 30.2516 80.3101 30.4055 80.3101 30.5743L80.3066 37.5554C80.3066 37.6399 80.3502 37.7237 80.4255 37.786C80.4946 37.8426 80.5828 37.8752 80.6714 37.8752L81.376 37.8763H81.3765C81.5696 37.8746 81.7393 37.7248 81.7393 37.5558V30.5743C81.7393 30.4027 81.5681 30.2523 81.3734 30.2523Z" fill="#100F0D"/>
<path d="M87.9092 34.9865L87.325 34.9887C87.1619 34.9887 87.0251 35.0867 86.9643 35.2569C86.7509 36.1776 86.2675 36.6547 85.5346 36.6758C84.1069 36.6334 83.9961 34.6435 83.9961 34.0346C83.9961 32.8205 84.4166 31.5102 85.5905 31.4756C86.2991 31.4974 86.8145 32.0054 86.9691 32.8333C86.9983 33.0023 87.1281 33.1301 87.3054 33.1523L87.9305 33.1584C88.1174 33.1382 88.2639 32.9968 88.2626 32.8215C88.0414 31.3253 87.0046 30.3583 85.619 30.3583L85.5711 30.3596L85.5169 30.3583C83.5018 30.3583 82.5996 32.239 82.5996 34.1028C82.5996 35.8116 83.3602 37.8069 85.5056 37.8069H85.6084C86.9593 37.8069 87.9791 36.8599 88.2711 35.3245C88.2776 35.2513 88.2524 35.1781 88.2006 35.1187C88.1335 35.0416 88.0266 34.9922 87.9092 34.9865Z" fill="#100F0D"/>
<path d="M93.6805 33.2829H90.4132C90.4879 32.3653 91.0833 31.4148 92.0921 31.3799C93.1648 31.4139 93.6561 32.3424 93.6805 33.2829ZM92.09 30.3404C89.8836 30.3404 88.8789 32.2908 88.8789 34.1027C88.8789 36.364 90.1282 37.825 92.0614 37.825C93.4444 37.825 94.4986 37.1263 94.955 35.9052C94.9787 35.8348 94.9709 35.7586 94.9328 35.6909C94.8858 35.6077 94.8002 35.5469 94.6946 35.5236L94.0822 35.4065C93.9381 35.3832 93.7386 35.4574 93.6681 35.6196C93.3695 36.2978 92.8269 36.6827 92.1472 36.7039C91.492 36.6827 90.8912 36.2938 90.6168 35.7129C90.3923 35.2386 90.359 34.7702 90.3555 34.2939L94.7893 34.2933C94.8825 34.2933 94.9787 34.2522 95.0469 34.1831C95.1035 34.1254 95.134 34.0544 95.1329 33.9841C95.1227 32.2226 94.3181 30.3404 92.09 30.3404Z" fill="#100F0D"/>
<path d="M100.686 33.9051C100.271 33.6069 99.7718 33.5075 99.2733 33.408L98.3159 33.2305C97.6295 33.1175 97.2321 32.9333 97.2321 32.327C97.2321 31.5004 98.2579 31.4313 98.4581 31.426C99.1464 31.4433 99.6636 31.7501 99.9142 32.29C99.9743 32.4172 100.107 32.5025 100.245 32.5025C100.268 32.5025 100.292 32.4999 100.315 32.4949L100.912 32.3629C101.01 32.3414 101.101 32.2743 101.149 32.1874C101.188 32.1184 101.197 32.0433 101.173 31.976C100.808 30.9109 99.8796 30.3481 98.4746 30.3481C97.2062 30.3509 95.8506 30.9151 95.8506 32.4909C95.8506 33.5682 96.5272 34.2522 97.8631 34.5242L98.9354 34.7284C99.5238 34.841 100.125 35.0413 100.125 35.6731C100.125 36.6083 99.0371 36.7037 98.708 36.7105C98.0236 36.6959 97.1476 36.4132 96.9313 35.6689C96.8917 35.5148 96.699 35.4065 96.5268 35.4415L95.9029 35.5705C95.8084 35.5906 95.7221 35.6522 95.6721 35.7349C95.6305 35.8039 95.6185 35.8804 95.6381 35.9503C95.9597 37.1072 97.0764 37.8049 98.6249 37.8166L98.6593 37.8169C100.042 37.8169 101.52 37.2248 101.52 35.5638C101.52 34.8872 101.216 34.2825 100.686 33.9051Z" fill="#100F0D"/>
<path fill-rule="evenodd" clip-rule="evenodd" d="M72.2449 16.8115V15.2262C72.2457 14.9858 72.4282 14.8244 72.6473 14.8246L79.7495 14.8244C79.9762 14.8244 80.1591 14.9897 80.1591 15.2244V16.5839C80.1569 16.8115 79.9646 17.109 79.624 17.5815L75.9455 22.834C77.3104 22.8016 78.7554 23.006 79.9958 23.7033C80.276 23.8605 80.3505 24.0938 80.3733 24.3215V26.013C80.3733 26.2462 80.1181 26.5158 79.8503 26.3754C77.6642 25.23 74.763 25.105 72.3453 26.3886C72.0985 26.5204 71.8398 26.255 71.8398 26.0218V24.4144C71.8398 24.158 71.8451 23.7174 72.104 23.3251L76.3666 17.2108L72.6558 17.21C72.4287 17.21 72.247 17.0483 72.2449 16.8115Z" fill="#100F0D"/>
<path fill-rule="evenodd" clip-rule="evenodd" d="M46.3403 26.709H44.1791C43.9737 26.6955 43.8093 26.5407 43.793 26.3431L43.7945 15.2532C43.7945 15.0313 43.9813 14.854 44.2113 14.854L46.2236 14.853C46.4344 14.8647 46.6029 15.0237 46.6173 15.2253V16.6743H46.6574C47.1813 15.2734 48.1697 14.621 49.5006 14.621C50.8518 14.621 51.6991 15.2734 52.3043 16.6743C52.8291 15.2734 54.0187 14.621 55.2904 14.621C56.198 14.621 57.1851 14.9938 57.7902 15.8335C58.476 16.7675 58.3346 18.1201 58.3346 19.3108L58.3333 26.3094C58.3333 26.5307 58.1467 26.709 57.917 26.709H55.759C55.5417 26.6955 55.3707 26.5222 55.3707 26.3105V20.4308C55.3707 19.9644 55.4106 18.7971 55.31 18.354C55.1482 17.6066 54.6639 17.3978 54.0396 17.3978C53.5146 17.3978 52.9697 17.7478 52.7478 18.3067C52.5262 18.8677 52.5466 19.801 52.5466 20.4308V26.3094C52.5466 26.5307 52.36 26.709 52.1298 26.709H49.9714C49.7552 26.6955 49.5838 26.5222 49.5838 26.3105L49.581 20.4308C49.581 19.1939 49.7833 17.3744 48.2507 17.3744C46.6976 17.3744 46.7582 19.1475 46.7582 20.4308L46.7569 26.3094C46.7577 26.5307 46.5709 26.709 46.3403 26.709Z" fill="#100F0D"/>
<path fill-rule="evenodd" clip-rule="evenodd" d="M86.2934 16.8838C84.6992 16.8838 84.5988 19.0539 84.5988 20.4079C84.5988 21.7611 84.5787 24.6546 86.2738 24.6546C87.9481 24.6546 88.0285 22.3209 88.0285 20.8976C88.0285 19.9643 87.9886 18.8445 87.7062 17.9576C87.4634 17.1872 86.9797 16.8838 86.2934 16.8838ZM86.2738 14.621C89.4805 14.621 91.2154 17.3743 91.2154 20.8735C91.2154 24.258 89.2984 26.9419 86.2738 26.9419C83.127 26.9419 81.4121 24.1878 81.4121 20.7574C81.4121 17.3037 83.1463 14.621 86.2738 14.621Z" fill="#100F0D"/>
<path fill-rule="evenodd" clip-rule="evenodd" d="M95.372 26.709H93.219C93.0021 26.6955 92.8312 26.5222 92.8312 26.3105L92.8281 15.2155C92.846 15.0134 93.0254 14.854 93.2423 14.854L95.2472 14.853C95.4362 14.8634 95.5913 14.9919 95.6309 15.1637V16.8606H95.6718C96.2761 15.3436 97.1238 14.621 98.6157 14.621C99.5841 14.621 100.533 14.9701 101.137 15.9272C101.702 16.8136 101.702 18.3067 101.702 19.3803V26.3593C101.678 26.556 101.502 26.709 101.289 26.709H99.1218C98.9219 26.696 98.7612 26.5483 98.737 26.3593V20.3375C98.737 19.1241 98.8785 17.3502 97.3854 17.3502C96.8612 17.3502 96.3778 17.701 96.1354 18.2371C95.8325 18.9136 95.7925 19.5903 95.7925 20.3375V26.3094C95.7888 26.5307 95.6019 26.709 95.372 26.709Z" fill="#100F0D"/>
<path fill-rule="evenodd" clip-rule="evenodd" d="M68.7636 26.6803C68.6203 26.8082 68.4152 26.8167 68.2536 26.7306C67.5361 26.1342 67.4072 25.8576 67.015 25.2903C65.8288 26.4985 64.989 26.8608 63.4531 26.8608C61.6333 26.8608 60.2188 25.7381 60.2188 23.493C60.2188 21.7395 61.1684 20.5466 62.5226 19.9616C63.695 19.4469 65.3326 19.3532 66.5856 19.2124V18.9322C66.5856 18.4179 66.6258 17.8096 66.3223 17.3655C66.0603 16.9679 65.5549 16.8046 65.1096 16.8046C64.2854 16.8046 63.5531 17.2271 63.3728 18.1024C63.3362 18.2967 63.1933 18.4898 62.9976 18.4992L60.9038 18.2723C60.7266 18.2325 60.5304 18.0911 60.5815 17.8212C61.0628 15.2801 63.3571 14.5122 65.4134 14.5122C66.4638 14.5122 67.839 14.7927 68.6678 15.5877C69.7184 16.5704 69.6172 17.8799 69.6172 19.3067V22.6729C69.6172 23.6855 70.0381 24.1299 70.4338 24.6757C70.5707 24.8725 70.6017 25.1058 70.4257 25.2501C69.9845 25.6199 69.2004 26.3004 68.7695 26.6851L68.7636 26.6803ZM66.5856 21.4114C66.5856 22.2536 66.6056 22.9558 66.181 23.7036C65.8373 24.3122 65.2912 24.6861 64.6847 24.6861C63.8568 24.6861 63.3719 24.0548 63.3719 23.1189C63.3719 21.279 65.0229 20.944 66.5856 20.944V21.4114Z" fill="#100F0D"/>
<path fill-rule="evenodd" clip-rule="evenodd" d="M40.4389 26.6808C40.2961 26.8087 40.0894 26.8172 39.9278 26.7311C39.2103 26.1346 39.0819 25.8581 38.6892 25.2908C37.5038 26.499 36.6634 26.8613 35.1267 26.8613C33.3076 26.8613 31.8926 25.7386 31.8926 23.4935C31.8926 21.7399 32.8431 20.5471 34.1973 19.9621C35.37 19.4474 37.0073 19.3537 38.2603 19.2129V18.9327C38.2603 18.4184 38.301 17.8101 37.9974 17.366C37.7348 16.9684 37.229 16.8051 36.7849 16.8051C35.9607 16.8051 35.2275 17.2276 35.0479 18.1029C35.0104 18.2972 34.8682 18.4903 34.6727 18.4997L32.5781 18.2728C32.4013 18.233 32.2048 18.0916 32.2556 17.8217C32.7368 15.2805 35.0313 14.5127 37.0874 14.5127C38.1392 14.5127 39.5132 14.7932 40.3422 15.5882C41.3934 16.5709 41.2919 17.8804 41.2919 19.3072V22.6734C41.2919 23.686 41.713 24.1304 42.1076 24.6762C42.2452 24.873 42.2764 25.1062 42.1009 25.2506C41.6592 25.6204 40.8747 26.3009 40.4439 26.6856L40.4389 26.6808ZM38.2603 21.4119C38.2603 22.254 38.2801 22.9563 37.8563 23.7041C37.5129 24.3127 36.9663 24.6866 36.3608 24.6866C35.5311 24.6866 35.0464 24.0553 35.0464 23.1194C35.0464 21.2795 36.697 20.9445 38.2603 20.9445V21.4119Z" fill="#100F0D"/>
</svg>
