<svg width="118" height="19" viewBox="0 0 118 19" fill="none" xmlns="http://www.w3.org/2000/svg">
<path d="M109.32 6.34482L111.911 1.85741C112.057 1.60583 111.969 1.28631 111.72 1.14013C111.472 0.993937 111.149 1.07894 111.007 1.33048L108.382 5.87566C106.38 4.9612 104.126 4.45125 101.702 4.45125C99.2781 4.45125 97.0242 4.9612 95.0219 5.87566L92.3974 1.33052C92.3629 1.27079 92.317 1.21845 92.2623 1.17653C92.2075 1.1346 92.145 1.10391 92.0783 1.08622C92.0117 1.06853 91.9422 1.06419 91.8738 1.07345C91.8055 1.08271 91.7397 1.10538 91.6801 1.14017C91.6204 1.17463 91.568 1.22056 91.5261 1.27532C91.4842 1.33007 91.4535 1.39258 91.4358 1.45923C91.4181 1.52589 91.4138 1.59539 91.423 1.66373C91.4323 1.73207 91.455 1.79791 91.4898 1.85746L94.0802 6.34487C89.6132 8.76533 86.5876 13.2867 86.0879 18.5798H117.316C116.816 13.2867 113.791 8.76529 109.32 6.34482ZM94.5324 14.1943C93.8083 14.1943 93.2235 13.6062 93.2235 12.8855C93.2235 12.1615 93.8117 11.5767 94.5324 11.5767C95.2564 11.5767 95.8412 12.1648 95.8412 12.8855C95.8447 13.6062 95.2565 14.1943 94.5324 14.1943ZM108.868 14.1943C108.144 14.1943 107.559 13.6062 107.559 12.8855C107.559 12.1615 108.148 11.5767 108.868 11.5767C109.592 11.5767 110.177 12.1648 110.177 12.8855C110.181 13.6062 109.592 14.1943 108.868 14.1943Z" fill="black"/>
<path d="M5.61846 6.6496C2.84837 6.6496 0 8.86935 0 12.7547C0 16.3067 2.50441 18.8155 5.61846 18.8155C8.18896 18.8155 9.33458 17.0902 9.33458 17.0902V17.8423C9.33458 18.1977 9.67066 18.5943 10.0867 18.5943H11.9447V6.91512H9.33458V8.39717C9.33458 8.39717 8.17935 6.6496 5.61846 6.6496ZM6.08339 9.03779C8.36376 9.03779 9.5599 11.0433 9.5599 12.7538C9.5599 14.6591 8.13968 16.4686 6.08822 16.4686C4.37335 16.4686 2.65551 15.0797 2.65551 12.7287C2.65551 10.6065 4.13383 9.03779 6.08339 9.03779ZM15.5724 18.5943C15.1714 18.5943 14.8203 18.3067 14.8203 17.8423V6.91512H17.4305V8.3604C18.0219 7.47137 19.1774 6.6461 20.9511 6.6461C23.85 6.6461 25.3936 8.95696 25.3936 11.1179V18.5944H23.5797C23.1041 18.5944 22.7834 18.1962 22.7834 17.7981V11.693C22.7834 10.4952 22.0496 9.04052 20.3523 9.04052C18.5209 9.04052 17.4305 10.7713 17.4305 12.4008V18.5944L15.5724 18.5943ZM33.0028 6.6496C30.2327 6.6496 27.3844 8.86935 27.3844 12.7547C27.3844 16.3067 29.8887 18.8155 33.0028 18.8155C35.5733 18.8155 36.7189 17.0902 36.7189 17.0902V17.8423C36.7189 18.1977 37.055 18.5943 37.471 18.5943H39.3291V1.07544H36.7189V8.39709C36.7189 8.39709 35.5637 6.6496 33.0028 6.6496ZM33.4678 9.03779C35.7481 9.03779 36.9443 11.0433 36.9443 12.7538C36.9443 14.6591 35.524 16.4686 33.4726 16.4686C31.7577 16.4686 30.0399 15.0797 30.0399 12.7287C30.0399 10.6065 31.5181 9.03779 33.4678 9.03779ZM42.9567 18.5943C42.5557 18.5943 42.2046 18.3067 42.2046 17.8423V6.91512H44.8148V8.86166C45.2641 7.7712 46.2335 6.7824 47.9558 6.7824C48.4359 6.7824 48.8848 6.87091 48.8848 6.87091V9.56951C48.8848 9.56951 48.3243 9.34828 47.6461 9.34828C45.8148 9.34828 44.8148 11.0791 44.8148 12.7086V18.5944L42.9567 18.5943ZM64.7226 18.5943C64.3216 18.5943 63.9705 18.3067 63.9705 17.8423V6.91512H66.5807V18.5944L64.7226 18.5943ZM74.2342 6.6496C71.4641 6.6496 68.6157 8.86935 68.6157 12.7547C68.6157 16.3067 71.1201 18.8155 74.2342 18.8155C76.8046 18.8155 77.9503 17.0902 77.9503 17.0902V17.8423C77.9503 18.1977 78.2864 18.5943 78.7024 18.5943H80.5604V1.07544H77.9503V8.39709C77.9503 8.39709 76.7951 6.6496 74.2342 6.6496ZM74.6991 9.03779C76.9795 9.03779 78.1756 11.0433 78.1756 12.7538C78.1756 14.6591 76.7554 16.4686 74.7039 16.4686C72.989 16.4686 71.2712 15.0797 71.2712 12.7287C71.2712 10.6065 72.7495 9.03779 74.6991 9.03779Z" fill="black"/>
<path d="M65.2537 4.39609C66.2072 4.39609 66.9801 3.62317 66.9801 2.66973C66.9801 1.71628 66.2072 0.943359 65.2537 0.943359C64.3003 0.943359 63.5273 1.71628 63.5273 2.66973C63.5273 3.62317 64.3003 4.39609 65.2537 4.39609Z" fill="black"/>
<path d="M55.7659 6.64551C52.865 6.64551 49.6777 8.81098 49.6777 12.7337C49.6777 16.3084 52.3925 18.8157 55.7596 18.8157C59.9093 18.8157 61.9355 15.4798 61.9355 12.7564C61.9355 9.41443 59.3264 6.64551 55.7659 6.64551ZM55.7754 9.08301C57.7816 9.08301 59.278 10.6999 59.278 12.7411C59.278 14.8176 57.6895 16.4201 55.7814 16.4201C54.0102 16.4201 52.2884 14.9787 52.2884 12.776C52.2884 10.5366 53.926 9.08301 55.7754 9.08301Z" fill="black"/>
</svg>
