<svg width="105" height="30" viewBox="0 0 105 30" fill="none" xmlns="http://www.w3.org/2000/svg">
<path fill-rule="evenodd" clip-rule="evenodd" d="M30.8848 21.9313V9.01103H32.5459L40.4417 19.4088V9.01103H42.0208V21.9313H40.3596L32.4639 11.431V21.9313H30.8848ZM54.8795 21.4186C53.8336 21.8082 52.7056 22.0133 51.5162 22.0133C46.8403 22.0133 44.5023 19.7779 44.5023 15.2866C44.5023 11.0414 46.7582 8.90849 51.2701 8.90849C52.5621 8.90849 53.7721 9.09306 54.8795 9.44171V10.8773C53.7721 10.4466 52.6236 10.2415 51.4546 10.2415C47.9272 10.2415 46.1635 11.9232 46.1635 15.2456C46.1635 18.8345 47.9067 20.6188 51.3726 20.6188C51.9263 20.6188 52.5416 20.5367 53.2183 20.3932V16.0659H54.8795V21.4186ZM57.5456 16.9478V9.01103H59.2068V16.9478C59.2068 19.4293 60.4373 20.6803 62.9188 20.6803C65.3798 20.6803 66.6308 19.4293 66.6308 16.9478V9.01103H68.292V16.9478C68.292 20.3316 66.5077 22.0338 62.9188 22.0338C59.3298 22.0338 57.5456 20.3316 57.5456 16.9478ZM72.9269 9.01103V20.5777H79.6946V21.9313H71.2657V9.01103H72.9269ZM82.0941 21.9313H80.3509L86.77 7.30884L93.1891 21.9313H91.3433L89.6822 17.8706H85.4164L85.8676 16.5171H89.1285L86.7085 10.6722L82.0941 21.9313ZM94.9733 21.9313V9.01103H100.49C102.951 9.01103 104.182 10.0364 104.182 12.1078C104.182 13.7895 102.972 15.0405 100.572 15.8403L105.002 21.9313H102.808L98.7058 16.1274V15.0405C101.167 14.6508 102.418 13.7074 102.418 12.1898C102.418 11.0003 101.741 10.4056 100.367 10.4056H96.6755V21.9313H94.9733Z" fill="black"/>
<path fill-rule="evenodd" clip-rule="evenodd" d="M0 5.56555L13.2279 0.848633L26.8044 5.48352L24.61 22.9771L13.2279 29.2732L2.03033 23.0592L0 5.56555Z" fill="black"/>
<path fill-rule="evenodd" clip-rule="evenodd" d="M26.8031 5.48352L13.2266 0.848633V29.2732L24.6087 22.9771L26.8031 5.48352Z" fill="black"/>
<path fill-rule="evenodd" clip-rule="evenodd" d="M13.2483 4.17139L5.00391 22.5058L8.08016 22.4443L9.74133 18.3016H17.1038L18.9086 22.4853L21.8413 22.5469L13.2483 4.17139ZM13.2688 10.0573L16.0579 15.8816H10.8283L13.2688 10.0573Z" fill="white"/>
</svg>
