<svg width="118" height="16" viewBox="0 0 118 16" fill="none" xmlns="http://www.w3.org/2000/svg">
<path d="M79.4984 14.5915C79.4984 14.8999 79.3841 15.1672 79.1556 15.3918C78.927 15.6164 78.6486 15.7287 78.3224 15.7287C78.0035 15.7287 77.7325 15.6164 77.5094 15.3918C77.2864 15.1672 77.1758 14.8999 77.1758 14.5915C77.1758 14.2742 77.2864 14.0069 77.5094 13.7859C77.7325 13.5631 78.0035 13.4543 78.3224 13.4543C78.6486 13.4543 78.927 13.5666 79.1556 13.7912C79.3841 14.0158 79.4984 14.2832 79.4984 14.5915Z" fill="black"/>
<path d="M94.0823 15.497H91.9587L84.248 3.98281C84.0673 3.70654 83.9125 3.40531 83.7797 3.07557H83.7171C83.7724 3.38392 83.8 4.04519 83.8 5.05937V15.497H82.0488V1.05078H84.3217L91.802 12.385C92.1007 12.8341 92.3034 13.1567 92.4067 13.351H92.4491C92.379 12.9357 92.344 12.2263 92.344 11.2264V1.05078H94.0841L94.0823 15.497Z" fill="black"/>
<path d="M105.312 15.497H97.3926V1.05078H104.967V2.58185H99.1419V7.38716H104.539V8.91823H99.1419V13.9659H105.312V15.497Z" fill="black"/>
<path d="M117.32 2.58185H113.016V15.497H111.265V2.58185H106.953V1.05078H117.32V2.58185Z" fill="black"/>
<path d="M13.252 3.64694C14.6271 7.71434 15.1488 14.9704 19.171 14.9704C19.477 14.9704 19.7867 14.9419 20.0964 14.8849C16.441 14.0596 16.0078 6.88375 13.7773 3.16748C13.6022 3.32077 13.4289 3.48118 13.252 3.64694Z" fill="black"/>
<path d="M13.7754 3.1673C16.0059 6.88357 16.439 14.0595 20.0963 14.8847C20.3838 14.833 20.6714 14.7564 20.9608 14.6583C17.6778 13.1041 16.7709 6.13497 14.2362 2.78052C14.0832 2.9035 13.9284 3.03362 13.7754 3.1673Z" fill="black"/>
<path d="M16.9928 0.956787C16.6868 0.956787 16.3771 0.985305 16.0656 1.04234C15.2508 1.19028 14.425 1.52893 13.5918 2.04226C13.8204 2.25971 14.036 2.50746 14.2407 2.78017C15.0886 2.0993 15.931 1.59666 16.7697 1.29544C17.085 1.18315 17.3983 1.0976 17.7136 1.04234C17.485 0.985305 17.2453 0.956787 16.9928 0.956787Z" fill="black"/>
<path d="M23.5249 13.2252C23.8604 12.9668 24.1977 12.6816 24.5332 12.3697C23.1359 8.32187 22.6346 0.962402 18.5847 0.962402C18.2953 0.962402 18.0022 0.989138 17.7109 1.04083C21.4013 1.92846 21.8751 9.69074 23.5249 13.2252Z" fill="black"/>
<path d="M17.7091 1.04088C17.4824 0.985623 17.2428 0.955322 16.9902 0.955322L18.5829 0.960669C18.2935 0.962452 18.0004 0.987405 17.7091 1.04088Z" fill="black"/>
<path d="M23.4512 14.0863C23.2927 13.9402 23.1434 13.7798 22.9941 13.6086C22.312 14.0756 21.6337 14.4285 20.959 14.6585C21.1986 14.7725 21.4512 14.8563 21.7184 14.908C21.9249 14.949 22.1387 14.9704 22.3655 14.9704C23.1231 14.9704 23.7203 14.883 24.2309 14.6478C23.9489 14.5016 23.6908 14.3109 23.4512 14.0863Z" fill="black"/>
<path d="M16.7656 1.2959C20.0708 2.96777 20.3583 10.5358 22.9943 13.6086C23.1713 13.4874 23.3464 13.3609 23.5215 13.2254C21.8717 9.69093 21.398 1.92686 17.7094 1.04102C17.3942 1.09805 17.0808 1.18182 16.7656 1.2959Z" fill="black"/>
<path d="M14.2402 2.78038C16.7749 6.13483 17.6818 13.104 20.963 14.6582C21.6376 14.4283 22.316 14.0736 22.998 13.6084C20.3602 10.5355 20.0745 2.96753 16.7693 1.29565C15.9306 1.59688 15.0882 2.09951 14.2402 2.78038Z" fill="black"/>
<path d="M11.6319 3.55067C11.2356 4.4187 10.8282 5.55942 10.3379 7.0495C11.313 5.71984 12.2863 4.57555 13.2522 3.64871C13.1195 3.25302 12.9757 2.88763 12.8227 2.56323C12.4264 2.85376 12.0283 3.1835 11.6319 3.55067Z" fill="black"/>
<path d="M13.1743 2.31201C13.0582 2.39222 12.9402 2.47599 12.8223 2.56333C12.9771 2.88772 13.119 3.25311 13.2518 3.6488C13.4269 3.48304 13.602 3.32262 13.7753 3.16756C13.5891 2.85564 13.39 2.56868 13.1743 2.31201Z" fill="black"/>
<path d="M13.5924 2.04297C13.4541 2.12852 13.3159 2.21764 13.1758 2.31211C13.3915 2.57055 13.5905 2.85752 13.7786 3.16944C13.9334 3.03397 14.0864 2.90386 14.2394 2.78266C14.0366 2.50817 13.8191 2.26042 13.5924 2.04297Z" fill="black"/>
<path d="M36.1326 0.646949C34.2634 7.61608 30.3592 13.2145 27.0872 14.6262H27.0817C27.0227 14.6529 26.9637 14.6761 26.9047 14.6993C26.8974 14.7046 26.89 14.7046 26.8826 14.7082C26.866 14.7153 26.8494 14.7207 26.8329 14.726C26.8255 14.7314 26.8181 14.7314 26.8107 14.7349C26.7831 14.7438 26.7554 14.7527 26.7296 14.7634C26.7186 14.7688 26.7075 14.7706 26.6964 14.7741C26.6835 14.7795 26.6706 14.783 26.6559 14.7866C26.643 14.792 26.6301 14.7955 26.6172 14.7991C26.6061 14.8044 26.5932 14.8062 26.5822 14.8098C26.5582 14.8169 26.5361 14.8223 26.5121 14.8294C26.5029 14.8294 26.4937 14.8347 26.4826 14.8365C26.4679 14.8419 26.4513 14.8454 26.4347 14.849C26.4236 14.8543 26.4144 14.8543 26.4033 14.8579C26.3868 14.8633 26.3683 14.8668 26.3517 14.8704C26.3296 14.8757 26.3093 14.8793 26.2891 14.8829C26.4365 14.9363 26.5914 14.9631 26.7573 14.9631C29.8615 14.9631 32.9897 9.58561 38.1677 0.641602L36.1326 0.646949Z" fill="black"/>
<path d="M9.66474 1.23862C9.66658 1.23862 9.66842 1.23328 9.67027 1.23328C9.67211 1.23328 9.6758 1.23328 9.67764 1.22793H9.68133C9.69792 1.22258 9.71451 1.21545 9.7311 1.21011C9.73479 1.21011 9.73847 1.21011 9.74032 1.20476C9.744 1.20476 9.74953 1.19941 9.75322 1.19941C9.77165 1.19406 9.79009 1.18693 9.80668 1.18159H9.81036C9.85092 1.16911 9.88963 1.15485 9.93018 1.14059C9.93571 1.14059 9.94124 1.13525 9.94862 1.13525C9.96521 1.1299 9.9818 1.12455 10.0002 1.12099C10.0076 1.11564 10.0168 1.11564 10.0242 1.11386C10.0426 1.10851 10.0592 1.10316 10.0758 1.0996C10.0832 1.0996 10.0906 1.09425 10.0961 1.09425C10.1532 1.07821 10.2104 1.06395 10.2675 1.05147C10.2749 1.05147 10.2823 1.04613 10.2915 1.04613C10.3081 1.04078 10.3228 1.039 10.3413 1.03721C10.3486 1.03187 10.3578 1.03187 10.3652 1.03009C10.3818 1.02474 10.3984 1.02474 10.415 1.02117H10.426C10.4611 1.01404 10.4961 1.0087 10.5293 1.00335H10.5496C10.5661 0.998002 10.5809 0.998002 10.5975 0.994437C10.6067 0.994437 10.6159 0.98909 10.6251 0.98909C10.6399 0.98909 10.6565 0.983743 10.6712 0.981961C10.6786 0.981961 10.6878 0.981961 10.697 0.976614C10.7339 0.971266 10.7708 0.969484 10.8095 0.967702C10.7025 0.957007 10.5919 0.95166 10.4795 0.95166C6.98449 0.95166 2.16964 7.22209 0 15.3426H0.418443C1.10786 14.1467 1.73276 13.0148 2.30236 11.9525C3.82129 6.20078 6.91629 2.27775 9.66474 1.23862Z" fill="black"/>
<path d="M11.6309 3.5505C12.0272 3.18511 12.4272 2.85537 12.8217 2.56306C12.7313 2.37234 12.6373 2.19589 12.5378 2.03369C12.2189 2.40621 11.9258 2.90171 11.6309 3.5505Z" fill="black"/>
<path d="M11.9173 1.28684C12.1459 1.47221 12.3505 1.72709 12.5367 2.03188C12.5956 1.96237 12.6546 1.89642 12.7173 1.83582C12.4574 1.60054 12.1772 1.40983 11.873 1.26367C11.886 1.2708 11.897 1.27615 11.9099 1.2815C11.9099 1.2815 11.9154 1.28684 11.9173 1.28684Z" fill="black"/>
<path d="M2.30273 11.9527C5.4899 6.01378 6.99962 2.25651 9.66512 1.23877C6.91667 2.27968 3.82166 6.20093 2.30273 11.9527Z" fill="black"/>
<path d="M12.7178 1.83569C12.6551 1.89629 12.5961 1.96046 12.5371 2.03176C12.6367 2.19395 12.7307 2.37041 12.821 2.56112C12.939 2.47379 13.0569 2.3918 13.1731 2.30981C13.0293 2.1387 12.8763 1.98007 12.7178 1.83569Z" fill="black"/>
<path d="M3.75037 15.3179C3.73009 15.3233 3.71166 15.3233 3.69322 15.3251H3.68216C3.66557 15.3251 3.64898 15.3304 3.63239 15.3304H3.62502C3.58447 15.3358 3.54575 15.3358 3.50704 15.3376H3.49414C6.72002 15.2502 8.19471 13.6888 8.92652 11.4234C9.48322 9.707 9.93853 8.2597 10.3404 7.0459C8.98735 8.88532 7.63064 11.0777 6.26655 13.532C5.60848 14.7155 4.60753 15.2092 3.75037 15.3162" fill="black"/>
<path d="M3.75 15.3179C4.60901 15.2128 5.60811 14.719 6.26619 13.5337C7.63027 11.0794 8.98883 8.88707 10.3382 7.04765C10.8285 5.55758 11.234 4.41685 11.6322 3.54883C8.94275 6.02456 6.24038 10.1419 3.75 15.3179Z" fill="black"/>
<path d="M2.30362 11.9526C1.73402 13.0149 1.10912 14.1485 0.416016 15.3445H1.63263C1.79116 14.1557 2.01974 13.0221 2.30362 11.9526Z" fill="black"/>
<path d="M10.6948 0.982154C10.6856 0.982154 10.6782 0.987501 10.669 0.987501C10.6542 0.992848 10.6395 0.992848 10.6229 0.992848C10.6137 0.992848 10.6044 0.992848 10.5952 0.998195C10.5786 1.00354 10.5639 1.00354 10.5473 1.00711C10.5399 1.00711 10.5326 1.00711 10.527 1.01245C10.492 1.0178 10.457 1.02493 10.4238 1.03028H10.4127C10.3943 1.03563 10.3796 1.03741 10.363 1.03919C10.3538 1.04454 10.3464 1.04454 10.3372 1.04632C10.3206 1.05167 10.304 1.05345 10.2874 1.05523C10.2782 1.06058 10.2726 1.06058 10.2634 1.06058C10.2063 1.07306 10.1491 1.08731 10.092 1.10336C10.0865 1.10336 10.0791 1.1087 10.0717 1.1087C10.0551 1.11405 10.0385 1.11762 10.0201 1.12296C10.0127 1.12831 10.0035 1.12831 9.99614 1.13009C9.97955 1.13544 9.96112 1.139 9.94453 1.14435C9.93715 1.14435 9.93162 1.1497 9.92609 1.1497C9.88738 1.16396 9.84867 1.17822 9.80812 1.19069C9.79153 1.19604 9.77309 1.20317 9.75466 1.20852C9.74729 1.21386 9.73991 1.21386 9.73254 1.21743C9.71595 1.22278 9.69752 1.22991 9.68277 1.23525C9.67724 1.2406 9.66987 1.2406 9.66618 1.24238C7.00252 2.25834 5.49097 6.01739 2.30564 11.9545C2.02176 13.0239 1.79318 14.1575 1.63281 15.3464H1.80425C2.28536 15.3464 2.41993 15.341 2.97294 15.341H3.00059H3.08354H3.11119H3.11856H3.14621H3.1628H3.17386H3.19598H3.26419H3.33239H3.38954H3.40428H3.50567C3.54438 15.3357 3.58309 15.3357 3.62364 15.3339H3.63102C3.64761 15.3339 3.6642 15.3286 3.68079 15.3286H3.69185C3.71028 15.3286 3.73056 15.3232 3.74899 15.3214C6.24121 10.1472 8.94174 6.02987 11.6312 3.55414C11.9261 2.90535 12.2192 2.41163 12.5381 2.03733C12.352 1.73254 12.1473 1.47766 11.9188 1.29229C11.9188 1.29229 11.9132 1.29229 11.9114 1.28694C11.8985 1.28159 11.8856 1.27625 11.8727 1.26912C11.8598 1.26199 11.8487 1.25664 11.8358 1.25129C11.8248 1.24595 11.81 1.2406 11.7989 1.23347C11.7824 1.22812 11.7695 1.22278 11.7566 1.21565C11.7455 1.2103 11.7344 1.20673 11.7234 1.20139C11.6994 1.19248 11.6754 1.18356 11.6533 1.17287C11.6423 1.16752 11.633 1.16574 11.6238 1.16217C11.6072 1.15683 11.5888 1.1497 11.5704 1.14257C11.5612 1.13722 11.5519 1.13722 11.5427 1.13366C11.5169 1.12474 11.4929 1.11762 11.469 1.1087H11.4635C11.4358 1.09979 11.4082 1.09266 11.3787 1.08553C11.3713 1.08018 11.3658 1.08018 11.3602 1.08018C11.3344 1.07306 11.3123 1.06771 11.2883 1.06058C11.2828 1.06058 11.2773 1.05523 11.2717 1.05523C11.2146 1.04097 11.1538 1.0285 11.0948 1.0178C11.0893 1.0178 11.0819 1.01245 11.0764 1.01245C11.0505 1.00711 11.0247 1.00354 10.9989 0.999978C10.9934 0.99463 10.9897 0.99463 10.9842 0.99463C10.9528 0.989283 10.9234 0.985719 10.8939 0.983936H10.8773C10.8533 0.978589 10.8293 0.978589 10.8072 0.976807C10.7685 0.982154 10.7316 0.983936 10.6948 0.987501" fill="black"/>
<path d="M28.8321 4.50552C28.2182 6.40554 27.7224 7.97225 27.291 9.26092C28.974 7.02224 30.6312 4.20608 32.2091 0.956787C30.3657 1.51467 29.3851 2.79443 28.8321 4.50552Z" fill="black"/>
<path d="M27.3422 14.507C27.2555 14.5498 27.1707 14.589 27.0859 14.6265C30.3579 13.2148 34.2621 7.61634 36.1313 0.647217H35.7534C31.4584 8.06372 30.0777 13.0294 27.3422 14.507Z" fill="black"/>
<path d="M25.2059 13.8847C25.9175 13.0435 26.4981 11.6158 27.2889 9.26123C26.3746 10.475 25.4566 11.5177 24.5368 12.3679C24.5368 12.3733 24.5368 12.3733 24.5312 12.3751C24.7322 12.9561 24.9534 13.4694 25.2059 13.8847Z" fill="black"/>
<path d="M25.2056 13.885C24.9623 14.172 24.7061 14.3894 24.4203 14.5498C24.3577 14.5855 24.295 14.6176 24.2305 14.6479C24.5328 14.8047 24.8609 14.9099 25.2296 14.9527C25.283 14.958 25.3365 14.9634 25.3936 14.9669H25.4028C25.4287 14.9669 25.4545 14.9669 25.4821 14.9723H25.4932H25.5743H25.6609H25.6886H25.7494C25.7586 14.9723 25.7697 14.9723 25.7789 14.9669C25.7973 14.9669 25.8176 14.9669 25.8379 14.9616H25.8453H25.8674C25.8876 14.9616 25.9098 14.9562 25.9319 14.9544H25.9374C25.9429 14.9544 25.9503 14.9491 25.9577 14.9491C25.9798 14.9437 26.0038 14.942 26.0259 14.9384H26.0462C26.072 14.9331 26.0978 14.9313 26.1236 14.9259H26.1291H26.1365C26.1881 14.917 26.2379 14.9063 26.2895 14.8938C25.8674 14.7441 25.5134 14.3912 25.2093 13.8904" fill="black"/>
<path d="M19.1699 14.9701C19.4759 14.9701 19.7856 14.9416 20.0953 14.8828C20.3829 14.8329 20.6704 14.7545 20.9598 14.6582C21.1995 14.7723 21.452 14.856 21.7174 14.9077C21.9239 14.9487 22.1396 14.9701 22.3645 14.9701H19.1699Z" fill="black"/>
<path d="M22.3671 14.9701C23.1229 14.9701 23.7219 14.8827 24.2307 14.6475C24.5312 14.8043 24.8611 14.9095 25.2298 14.9522C25.2833 14.9576 25.3367 14.9629 25.3939 14.9665H25.4031C25.4289 14.9665 25.4547 14.9665 25.4824 14.9719H25.4934H25.5745H22.3652L22.3671 14.9701Z" fill="black"/>
<path d="M25.5761 14.97H25.6627H25.6904H25.7512C25.7622 14.97 25.7715 14.97 25.7807 14.9647C25.7991 14.9647 25.8194 14.9647 25.8397 14.9593H25.8452H25.8673C25.8876 14.9593 25.9097 14.954 25.93 14.9522H25.9355C25.941 14.9522 25.9484 14.9468 25.954 14.9468C25.9761 14.9415 26 14.9397 26.0222 14.9361C26.0295 14.9361 26.0351 14.9361 26.0424 14.9308C26.0682 14.9254 26.094 14.9237 26.1199 14.9183H26.1254H26.1328C26.1844 14.9094 26.2341 14.8987 26.2858 14.8862C26.4332 14.9397 26.5881 14.9664 26.754 14.9664L25.5742 14.9718L25.5761 14.97Z" fill="black"/>
<path d="M24.5336 12.375V12.3696C24.1962 12.6815 23.8607 12.9667 23.5252 13.2252C23.3501 13.3606 23.175 13.4872 22.998 13.6084C23.1455 13.7795 23.2967 13.9399 23.4552 14.0861C23.6967 14.3124 23.9529 14.5014 24.2331 14.6475C24.2976 14.6172 24.3603 14.5834 24.423 14.5495C24.7087 14.3873 24.9649 14.1698 25.2082 13.8847C24.9557 13.4694 24.7363 12.956 24.5336 12.375Z" fill="black"/>
<path d="M34.5526 0.646875H32.96H32.8015H32.6521H32.6466C32.5434 0.652222 32.4438 0.655787 32.3443 0.661134C32.2982 0.757383 32.2503 0.855414 32.2042 0.951663C30.6263 4.20095 28.9691 7.01712 27.2861 9.2558C26.4953 11.6103 25.9147 13.038 25.2031 13.8793C25.5073 14.3819 25.8612 14.7348 26.2833 14.8846C26.2962 14.8792 26.3055 14.8792 26.3165 14.8774H26.3239C26.3313 14.8774 26.3386 14.8721 26.3479 14.8721C26.3644 14.8667 26.3829 14.865 26.4013 14.8596C26.4124 14.8543 26.4216 14.8543 26.4326 14.8507C26.4492 14.8454 26.4658 14.8418 26.4806 14.8382C26.4898 14.8329 26.5009 14.8329 26.5101 14.8293C26.534 14.8222 26.5562 14.8168 26.5801 14.8097C26.5912 14.8044 26.6022 14.8008 26.6151 14.799C26.628 14.7937 26.6428 14.7901 26.6538 14.7848C26.6686 14.7794 26.6815 14.7776 26.6944 14.7723C26.7055 14.7669 26.7165 14.7652 26.7276 14.7598C26.7552 14.7509 26.7829 14.742 26.8105 14.7313C26.8179 14.7313 26.8253 14.7242 26.8327 14.7224C26.8492 14.7152 26.8658 14.7099 26.8824 14.7028C26.888 14.6974 26.8953 14.6974 26.9045 14.6956C26.9617 14.6725 27.0225 14.6493 27.0815 14.6226H27.087C27.1718 14.5869 27.2585 14.5459 27.3433 14.5031C30.0788 13.0255 31.4595 8.05982 35.7545 0.643311L34.5526 0.646875Z" fill="black"/>
<path d="M10.8085 0.9729C10.8159 0.9729 10.8214 0.9729 10.8288 0.978248C10.8454 0.978248 10.8619 0.978248 10.8785 0.983595H10.8951C10.9246 0.988942 10.956 0.990724 10.9854 0.994289C10.991 0.994289 10.9965 0.994289 11.0002 0.999636C11.026 1.00498 11.0518 1.00855 11.0776 1.01211C11.0831 1.01211 11.0905 1.01746 11.096 1.01746C11.155 1.02815 11.2159 1.04063 11.273 1.05489C11.2785 1.05489 11.2841 1.06024 11.2896 1.06024C11.3136 1.06558 11.3357 1.07271 11.3615 1.07984C11.3689 1.07984 11.3744 1.08519 11.3818 1.08519C11.4113 1.09232 11.4371 1.09945 11.4666 1.10836C11.4684 1.10836 11.4703 1.10836 11.4721 1.11371C11.4961 1.12084 11.52 1.12975 11.5458 1.13866C11.555 1.14401 11.5643 1.14579 11.5735 1.14757C11.5901 1.1547 11.6103 1.16183 11.6269 1.16896C11.6362 1.16896 11.6472 1.17609 11.6564 1.17966C11.6786 1.19035 11.7025 1.19926 11.7265 1.20818C11.7394 1.21352 11.7486 1.21887 11.7615 1.22243C11.7744 1.22956 11.7892 1.23491 11.8039 1.24026C11.8168 1.24561 11.8297 1.25273 11.8408 1.25808C11.8537 1.26521 11.8666 1.27056 11.8776 1.27591C12.1818 1.42028 12.462 1.61278 12.7219 1.84805C12.8177 1.75002 12.9173 1.66268 13.0205 1.58426C12.4528 1.1957 11.8094 0.9729 11.0666 0.9729C10.9799 0.9729 10.8951 0.978248 10.8066 0.983595" fill="black"/>
<path d="M12.7207 1.83557C12.8792 1.97816 13.0322 2.13858 13.176 2.30968C13.3161 2.21522 13.4544 2.1261 13.5926 2.04054C13.4101 1.86409 13.2203 1.70724 13.0193 1.57178C12.9161 1.6502 12.8166 1.73932 12.7207 1.83557Z" fill="black"/>
<path d="M10.8046 0.972829C10.8912 0.965699 10.9778 0.962134 11.0645 0.962134C11.8074 0.962134 12.4507 1.18493 13.0184 1.57349C13.6175 1.1172 14.342 0.956787 15.3485 0.956787H10.4746C10.5871 0.956787 10.6958 0.962134 10.8046 0.972829Z" fill="black"/>
<path d="M15.3476 0.956787C14.3411 0.956787 13.6167 1.1172 13.0176 1.57349C13.2167 1.70895 13.4084 1.86759 13.589 2.04226C14.4241 1.52893 15.2499 1.19028 16.0647 1.04234C16.3743 0.985305 16.6859 0.956787 16.99 0.956787H15.3476Z" fill="black"/>
<path d="M27.2892 9.26131C27.7224 7.97087 28.2165 6.40415 28.8321 4.50413C29.3851 2.79304 30.3658 1.51328 32.2073 0.953615C32.2553 0.857366 32.3013 0.759335 32.3493 0.663086C29.3483 0.83776 27.9455 2.31357 27.2395 4.49878C26.0044 8.31487 25.2579 10.7888 24.5371 12.3644C25.4569 11.5178 26.3768 10.4733 27.2892 9.26131Z" fill="black"/>
<path d="M31.6915 13.9545H31.3523V14.9758H31.2141V13.9545H30.873V13.8333H31.6933V13.9545H31.6915Z" fill="black"/>
<path d="M33.0844 14.9758H32.9461V14.2076C32.9461 14.147 32.9516 14.0721 32.9572 13.9848C32.9424 14.0364 32.9314 14.0739 32.9203 14.097L32.5184 14.9758H32.4502L32.0465 14.1042C32.0355 14.0792 32.0226 14.04 32.0097 13.9865H32.0041C32.0097 14.0329 32.0097 14.1077 32.0097 14.2111V14.9775H31.877V13.8333H32.0594L32.4226 14.6318C32.4502 14.6924 32.4668 14.7387 32.476 14.769H32.4816C32.5055 14.7066 32.5258 14.6585 32.5387 14.6282L32.9092 13.8333H33.0844V14.9758Z" fill="black"/>
<path d="M42.4542 11.4981L41.4183 15.1056H38.0117L42.4542 1.05151H46.7677L51.2747 15.1056H47.7391L46.6184 11.4981H42.4542ZM46.1428 9.12215L45.2377 6.14022C44.9796 5.30607 44.7197 4.26337 44.504 3.42922H44.4616C44.246 4.26337 44.0303 5.32746 43.7925 6.14022L42.9298 9.12215H46.1428Z" fill="black"/>
<path d="M53.3215 11.8313C54.2063 12.2698 55.5649 12.7065 56.9658 12.7065C58.4755 12.7065 59.2737 12.1022 59.2737 11.1843C59.2737 10.3092 58.5843 9.80832 56.8368 9.20409C54.422 8.39132 52.8477 7.09731 52.8477 5.0547C52.8477 2.65739 54.9178 0.821533 58.3465 0.821533C59.9852 0.821533 61.1926 1.15484 62.0553 1.53092L61.3217 4.09577C60.7392 3.82485 59.705 3.42916 58.2801 3.42916C56.857 3.42916 56.1676 4.05478 56.1676 4.78378C56.1676 5.68032 56.9879 6.076 58.8626 6.76401C61.4286 7.68193 62.636 8.97416 62.636 10.9562C62.636 13.3125 60.7594 15.3141 56.7704 15.3141C55.1095 15.3141 53.4708 14.897 52.6523 14.4586L53.3215 11.8313Z" fill="black"/>
<path d="M64.8613 1.23884C65.8752 1.0713 67.2983 0.946533 69.3038 0.946533C71.3315 0.946533 72.7749 1.32262 73.7463 2.073C74.6735 2.78239 75.2984 3.94985 75.2984 5.32585C75.2984 6.70185 74.8247 7.86932 73.962 8.66248C72.8412 9.68378 71.1804 10.1436 69.2393 10.1436C68.808 10.1436 68.419 10.1223 68.1185 10.0813V15.1058H64.8613V1.23884ZM68.1167 7.61978C68.3969 7.68217 68.7416 7.70355 69.2172 7.70355C70.9647 7.70355 72.0431 6.84801 72.0431 5.40963C72.0431 4.1174 71.1159 3.34562 69.4771 3.34562C68.808 3.34562 68.3563 3.40801 68.1185 3.47039V7.61978H68.1167Z" fill="black"/>
</svg>
