<svg width="88" height="26" viewBox="0 0 88 26" fill="none" xmlns="http://www.w3.org/2000/svg">
<path d="M15.0594 23.979C19.2307 23.2422 22.676 22.6324 22.7155 22.624L22.7875 22.6088L18.8493 17.9245C16.6834 15.3481 14.9112 13.2302 14.9112 13.218C14.9112 13.1949 18.9777 1.99669 19.0005 1.95685C19.0082 1.94353 21.7755 6.72129 25.7088 13.5385C29.3911 19.9208 32.4271 25.1831 32.4553 25.2324L32.5066 25.322L19.9909 25.3204L7.47513 25.3188L15.0594 23.979ZM63.0558 22.8462C61.1506 22.724 60.0426 21.6392 59.749 19.6086C59.6708 19.0685 59.6705 19.0545 59.6625 15.5477L59.6548 12.1538H60.498H61.3411L61.3478 15.4366C61.3538 18.3953 61.3575 18.7422 61.3858 18.9503C61.5006 19.795 61.7292 20.3631 62.1183 20.7708C62.4297 21.0971 62.7942 21.2882 63.2989 21.3896C63.5369 21.4374 64.2142 21.4375 64.4313 21.3898C64.9428 21.2772 65.3529 21.0546 65.7146 20.693C66.1269 20.2808 66.4319 19.6961 66.5795 19.0349L66.6292 18.8121L66.6348 15.5015L66.6403 12.1909H67.5011H68.3619V17.3952V22.5995H67.51H66.658V21.7738C66.658 21.2128 66.6519 20.9502 66.6389 20.9545C66.6283 20.958 66.5846 21.025 66.5416 21.1033C66.248 21.6387 65.7589 22.1283 65.2229 22.4233C64.5804 22.7769 63.9361 22.9026 63.0558 22.8462ZM82.3931 22.8378C81.7206 22.7872 81.0125 22.556 80.4337 22.198C79.2138 21.4434 78.492 20.1996 78.2807 18.4879C78.2075 17.8956 78.1987 17.1 78.2598 16.5967C78.3961 15.4721 78.838 14.3681 79.4673 13.5799C79.6287 13.3779 79.9946 13.0119 80.1967 12.8506C80.7422 12.415 81.3804 12.1104 82.058 11.9621C82.4528 11.8758 83.148 11.8352 83.5674 11.8741C84.6211 11.9718 85.5868 12.4679 86.2431 13.2487C86.91 14.042 87.2765 15.1505 87.3233 16.5154C87.3306 16.7294 87.3324 17.1044 87.3273 17.3489L87.3179 17.7934L83.6276 17.7981L79.9374 17.8027V17.9674C79.9374 18.4687 80.0593 19.0397 80.27 19.5255C80.4517 19.9444 80.7644 20.4019 81.0205 20.6233C81.5456 21.0772 82.1882 21.3489 82.8914 21.4143C83.1522 21.4385 83.8167 21.413 84.1138 21.3673C84.9615 21.237 85.7675 20.9045 86.4184 20.4166C86.4949 20.3592 86.5682 20.3055 86.5812 20.2974C86.6002 20.2855 86.6047 20.4355 86.6042 21.066L86.6036 21.8494L86.4292 21.9573C85.693 22.4126 84.8495 22.705 83.9564 22.8145C83.6898 22.8472 82.7118 22.8617 82.3931 22.8378ZM85.6047 16.2303C85.6047 15.3906 85.2508 14.4578 84.7501 13.9774C84.3927 13.6346 83.9606 13.4251 83.447 13.3456C83.2041 13.3079 82.6919 13.3224 82.4358 13.3742C81.8942 13.4836 81.4463 13.7217 81.0556 14.1078C80.6444 14.5141 80.3361 15.0076 80.1423 15.5698C80.0725 15.772 79.991 16.1039 79.9657 16.2886L79.9536 16.3765H82.7792H85.6047V16.2303ZM35.5471 22.5763C35.5515 22.5636 36.8046 19.2716 38.3319 15.2607L41.1087 7.96827L42.0009 7.96822L42.8932 7.96816L42.9672 8.158C43.1934 8.73812 48.5263 22.5837 48.5263 22.5909C48.5263 22.5956 48.0991 22.5994 47.5771 22.5994L46.6279 22.5992L45.8593 20.5528L45.0907 18.5064L41.9959 18.5064L38.9011 18.5064L38.8742 18.5758C38.8594 18.614 38.531 19.5348 38.1445 20.622L37.4416 22.5988L36.4905 22.5991C35.7376 22.5994 35.5409 22.5947 35.5471 22.5763ZM44.5258 16.9448C44.5258 16.9415 44.0085 15.5393 43.3764 13.8287C42.1936 10.6284 42.1275 10.4359 42.034 9.92208C41.9902 9.68116 41.9681 9.67446 41.942 9.8943C41.9235 10.0514 41.8428 10.403 41.7807 10.5981C41.7499 10.6949 41.2173 12.1566 40.5971 13.8465C39.977 15.5364 39.4696 16.9261 39.4696 16.9348C39.4696 16.9436 40.6073 16.9507 41.9977 16.9507C43.3882 16.9507 44.5258 16.948 44.5258 16.9448ZM49.1004 22.333V22.0665L52.1837 17.8278L55.2671 13.5892L52.4754 13.5799L49.6838 13.5707L49.679 12.8622L49.6741 12.1538H53.7118H57.7496V12.3931V12.6324L54.6659 16.8941C52.9698 19.2381 51.5822 21.1598 51.5822 21.1646C51.5822 21.1695 52.9532 21.1734 54.6288 21.1734H57.6755V21.8865V22.5995H53.3879H49.1004V22.333ZM71.7265 22.5872C71.7197 22.5804 71.7142 20.2301 71.7142 17.3643V12.1538H72.5569H73.3996V13.228C73.3996 13.8188 73.4067 14.3022 73.4155 14.3022C73.4243 14.3022 73.4653 14.2055 73.5067 14.0873C73.6961 13.5457 74.0247 13.0396 74.448 12.6373C74.8294 12.275 75.2652 12.0583 75.7795 11.9754C75.9239 11.9521 76.0462 11.9476 76.3351 11.9551C76.698 11.9646 76.8877 11.9911 77.1083 12.0633L77.1778 12.086V12.9607V13.8354L76.9787 13.7357C76.627 13.5597 76.28 13.49 75.8628 13.5117C75.5913 13.5258 75.4131 13.5607 75.1961 13.6421C74.7495 13.8097 74.3872 14.1056 74.1341 14.5094C73.7677 15.094 73.5063 15.8454 73.4293 16.5361C73.4154 16.66 73.4073 17.6694 73.404 19.6593L73.3992 22.5995H72.5691C72.1124 22.5995 71.7333 22.5939 71.7265 22.5872ZM0.0390625 22.5506C0.0390625 22.544 1.8947 19.3227 4.16269 15.3923L8.28632 8.24595L13.0919 4.21307C15.735 1.99499 17.9047 0.177478 17.9134 0.174163C17.9221 0.170849 17.8873 0.258359 17.8361 0.368631C17.7849 0.478902 15.4367 5.51554 12.6179 11.5612L7.49274 22.5532L3.7659 22.5579C1.71614 22.5604 0.0390625 22.5571 0.0390625 22.5506Z" fill="black"/>
</svg>
