<svg width="118" height="24" viewBox="0 0 118 24" fill="none" xmlns="http://www.w3.org/2000/svg">
<path d="M3.35964 15.8503C2.56269 15.6827 1.76375 15.5131 0.966797 15.3455C0.966797 13.2168 0.966797 11.09 0.966797 8.9613C1.57049 8.3967 2.03272 7.70641 2.49296 7.03806C2.9791 6.33181 3.58079 5.90088 4.3618 5.6076C6.39203 4.84748 8.40832 4.04547 10.4326 3.26939C10.7753 3.13772 10.9805 2.97412 10.9386 2.55516C10.8948 2.11026 10.9247 1.65937 10.9307 1.21048C10.9327 1.0848 10.8689 0.919205 10.9964 0.841398C11.1419 0.75162 11.2375 0.92519 11.3311 0.991027C12.4927 1.82297 13.6463 2.66888 14.7999 3.51279C15.7283 4.1931 16.6707 4.85347 17.5712 5.5697C17.9956 5.90886 18.4021 5.70736 18.7946 5.64152C20.1354 5.41807 21.4683 5.13876 22.8052 4.87941C23.1937 4.80359 23.3989 4.82753 23.397 5.35623C23.3711 9.64162 23.379 13.929 23.387 18.2144C23.387 18.4957 23.3352 18.6932 23.0941 18.8847C21.6337 20.0598 20.1354 21.199 18.7667 22.4759C18.0753 23.1203 17.5234 23.0385 16.7564 22.7671C14.509 21.9731 12.2337 21.2569 9.97632 20.4928C9.63363 20.3771 9.51408 20.395 9.52604 20.794C9.54995 21.5362 9.53202 22.2784 9.53202 23.0205C9.49018 23.0425 9.44834 23.0644 9.4065 23.0864C7.38822 20.6703 5.36995 18.2563 3.34968 15.8403C3.58079 15.8443 3.8139 15.8263 4.04103 15.8582C5.356 16.0458 6.66897 16.2533 7.98394 16.4368C9.52803 16.6523 11.0761 16.8438 12.6222 17.0553C14.232 17.2767 15.8439 17.4822 17.4437 17.7555C17.9319 17.8393 17.904 17.6398 17.902 17.3106C17.9 13.6736 17.902 10.0346 17.902 6.39765C17.902 6.31386 17.896 6.23206 17.9 6.14827C17.91 5.92881 17.8044 5.84502 17.5952 5.88492C17.1927 5.96472 16.7922 6.04652 16.3898 6.12433C14.6026 6.47147 12.8154 6.81861 11.0283 7.15976C8.62748 7.61663 6.22866 8.08348 3.82386 8.51042C3.40347 8.58424 3.34768 8.75581 3.35167 9.1229C3.36562 11.3654 3.35964 13.6078 3.35964 15.8503Z" fill="black"/>
<path d="M117.606 15.8441C116.975 17.4102 115.495 18.1624 113.797 17.7793C113.749 17.7694 113.701 17.7534 113.654 17.7454C112.349 17.5499 112.195 17.3205 112.506 15.9519C113.219 16.4367 114.004 16.6122 114.849 16.5484C115.034 16.5344 115.214 16.5105 115.375 16.4347C115.648 16.307 115.895 16.1374 115.909 15.7883C115.923 15.4431 115.783 15.1957 115.469 15.0241C115.002 14.7708 114.488 14.6431 114.008 14.4316C113.209 14.0785 112.552 13.5877 112.428 12.6341C112.291 11.5747 113.102 10.8006 114.034 10.4714C114.879 10.1722 115.752 10.2121 116.62 10.3737C117.045 10.4535 117.256 10.649 117.222 11.1477C117.168 11.9318 117.204 11.9478 116.481 11.6844C115.947 11.4889 115.399 11.5288 114.861 11.5767C114.524 11.6066 114.186 11.7842 114.128 12.2011C114.068 12.6301 114.241 12.9453 114.646 13.1129C114.903 13.2206 115.168 13.3124 115.431 13.4062C116.449 13.7712 117.367 14.2421 117.606 15.4431C117.606 15.5788 117.606 15.7104 117.606 15.8441Z" fill="black"/>
<path d="M103.17 12.4187C103.184 14.0406 102.833 15.4571 101.705 16.5345C100.57 17.6178 99.1791 17.9769 97.6072 17.7694C96.0292 17.5619 94.8676 16.8038 94.1165 15.4133C93.5228 14.314 93.4032 13.1229 93.5387 11.9059C93.6264 11.1219 93.8316 10.3558 94.2381 9.66348C95.0848 8.22504 96.3958 7.49884 98.0136 7.38312C99.3604 7.28736 100.616 7.57664 101.654 8.57817C102.781 9.66947 103.192 10.9982 103.17 12.4187ZM101.371 12.7099C101.365 12.1593 101.399 11.6945 101.267 11.2416C100.873 9.87695 100.233 9.13279 98.6352 8.87144C97.6331 8.70785 96.3141 9.43405 95.81 10.4096C95.298 11.3992 95.2163 12.4286 95.3717 13.5279C95.561 14.8586 96.4695 16.0616 97.902 16.313C98.6273 16.4407 100.116 16.0098 100.608 15.3195C101.203 14.4855 101.405 13.6017 101.371 12.7099Z" fill="black"/>
<path d="M69.7894 12.6143C69.7894 11.1021 69.8054 9.5898 69.7795 8.07754C69.7735 7.6526 69.911 7.54486 70.3174 7.55484C71.3794 7.58077 72.4433 7.52491 73.5032 7.57279C74.7385 7.62865 75.914 7.94986 76.8903 8.75187C77.6912 9.41025 78.0996 10.338 78.2152 11.3315C78.3367 12.3749 78.3706 13.4463 77.9542 14.4617C77.3206 16.0059 76.167 16.9755 74.5871 17.4124C73.0968 17.8254 71.5587 17.59 70.0425 17.6319C69.7177 17.6399 69.7934 17.3805 69.7934 17.199C69.7875 15.6728 69.7914 14.1425 69.7894 12.6143ZM71.483 12.6004C71.483 13.6458 71.4969 14.6912 71.475 15.7366C71.467 16.1117 71.5547 16.2673 71.9671 16.2533C72.4453 16.2374 72.9195 16.1675 73.3936 16.1496C74.8401 16.0957 76.0196 15.1321 76.3722 13.7136C76.5237 13.1031 76.4778 12.4926 76.4519 11.8861C76.3902 10.4796 75.5833 9.47209 74.1408 9.15089C73.3518 8.97532 72.5588 9.105 71.7699 9.06111C71.461 9.04315 71.483 9.26062 71.483 9.46212C71.485 10.5095 71.485 11.5549 71.483 12.6004Z" fill="black"/>
<path d="M28.834 17.6398C29.9995 14.5315 31.1212 11.5149 32.2649 8.50438C32.6255 7.55473 32.6534 7.5647 33.6954 7.5647C34.5401 7.5647 34.5242 7.57069 34.8211 8.37869C35.8989 11.3094 36.9828 14.2382 38.0846 17.161C38.224 17.53 38.2221 17.6597 37.7837 17.6458C36.0265 17.5899 36.5066 17.943 35.9328 16.329C35.4786 15.0562 35.5045 15.0462 34.1716 15.0462C33.4423 15.0462 32.7111 15.0602 31.9819 15.0402C31.6891 15.0322 31.5356 15.122 31.448 15.4073C31.2527 16.0357 31.0196 16.6522 30.8264 17.2787C30.7387 17.562 30.5873 17.6617 30.2924 17.6458C29.8322 17.6218 29.3679 17.6398 28.834 17.6398ZM34.9386 13.6476C34.8649 13.0711 33.6854 9.70141 33.4702 9.43408C33.0239 10.7229 32.5777 12.0097 32.1354 13.2985C32.0796 13.4601 31.968 13.6536 32.3067 13.6496C33.1833 13.6417 34.058 13.6476 34.9386 13.6476Z" fill="black"/>
<path d="M106.181 11.5869C106.673 11.0682 107.097 10.5694 107.743 10.3719C109.297 9.8991 110.845 10.6891 111.311 12.2473C111.702 13.5501 111.606 14.8289 111.058 16.1057C110.295 17.8853 107.537 18.5377 106.151 16.6284C106.151 17.219 106.151 17.7058 106.151 18.1926C106.151 18.9726 106.141 19.7547 106.155 20.5348C106.161 20.836 106.059 20.9298 105.756 20.9378C104.557 20.9697 104.557 20.9817 104.557 19.7946C104.557 16.8539 104.565 13.9132 104.547 10.9724C104.545 10.5535 104.67 10.4378 105.079 10.4457C106.097 10.4677 106.097 10.4497 106.181 11.5869ZM106.153 14.1087C106.153 14.2743 106.147 14.4399 106.153 14.6055C106.185 15.4933 106.82 16.3372 107.529 16.4369C108.625 16.5925 109.339 16.1357 109.669 15.0763C109.9 14.3341 109.93 13.57 109.705 12.8398C109.49 12.1396 108.992 11.6268 108.211 11.6029C107.585 11.5829 107 11.7326 106.597 12.3251C106.22 12.8797 106.145 13.4782 106.153 14.1087Z" fill="black"/>
<path d="M83.2856 14.5475C82.5883 14.5475 81.8909 14.5535 81.1956 14.5455C80.9087 14.5415 80.823 14.6293 80.8848 14.9305C81.1717 16.3191 82.4309 16.6762 83.5984 16.5026C84.0387 16.4368 84.4511 16.2632 84.8416 16.0418C85.0967 15.8961 85.2202 15.9281 85.2361 16.2632C85.282 17.173 85.1784 17.3725 84.2997 17.5959C83.437 17.8154 82.5584 17.9491 81.6658 17.7276C80.3648 17.4064 79.5858 16.5625 79.2869 15.2836C79.0199 14.1425 79.1156 13.0292 79.6834 11.9738C80.7294 10.0306 83.5964 9.66755 84.9034 11.1798C85.6944 12.0955 85.792 13.2068 85.7143 14.354C85.6964 14.6053 85.4752 14.5375 85.3238 14.5395C84.6464 14.5515 83.965 14.5475 83.2856 14.5475ZM82.4727 13.3484C82.919 13.3484 83.3653 13.3504 83.8116 13.3464C83.959 13.3444 84.0965 13.3564 84.1363 13.139C84.234 12.5903 83.6044 11.6506 83.0425 11.5569C81.7176 11.3374 81.2036 12.0995 80.8928 13.0592C80.8131 13.3065 80.9386 13.3484 81.1358 13.3464C81.5801 13.3484 82.0264 13.3484 82.4727 13.3484Z" fill="black"/>
<path d="M62.2692 14.5473C61.5718 14.5473 60.8765 14.5513 60.1792 14.5453C59.8983 14.5433 59.8405 14.5972 59.8983 14.9204C60.1453 16.3269 61.4603 16.6641 62.5501 16.5105C63.0183 16.4446 63.4785 16.303 63.881 16.0317C63.9966 15.9539 64.1141 15.884 64.1978 16.0716C64.407 16.5364 64.1599 17.2706 63.6877 17.4402C62.2951 17.9369 60.9004 18.0985 59.5695 17.2506C58.8503 16.7918 58.4877 16.0975 58.2884 15.2755C58.0075 14.1164 58.1051 13.0071 58.6789 11.9737C59.8365 9.89285 62.9924 9.57564 64.2197 11.6226C64.7158 12.4525 64.7517 13.3742 64.7059 14.3079C64.6939 14.5593 64.5245 14.5453 64.3572 14.5453C63.6618 14.5473 62.9645 14.5453 62.2692 14.5473ZM61.4483 13.3483C61.8946 13.3483 62.3409 13.3503 62.7872 13.3463C62.9326 13.3443 63.0741 13.3583 63.1139 13.1428C63.2195 12.5902 62.6497 11.6924 62.0879 11.5607C61.0738 11.3253 60.1852 11.8839 59.9301 12.9054C59.8544 13.2047 59.8445 13.3962 60.2589 13.3563C60.6534 13.3204 61.0518 13.3503 61.4483 13.3483Z" fill="black"/>
<path d="M50.0795 16.6742C49.6671 17.3086 49.1033 17.6338 48.398 17.7854C47.3799 18.0029 45.9115 17.4822 45.5907 16.2632C45.4732 15.8163 45.3696 15.3754 45.3755 14.9025C45.3935 13.6077 45.3955 12.3109 45.3736 11.0181C45.3656 10.6032 45.4473 10.4356 45.9115 10.4456C47.075 10.4735 47.075 10.4476 47.075 11.6286C47.075 12.7419 47.073 13.8531 47.075 14.9664C47.077 15.6746 47.5054 16.341 48.0135 16.4367C48.9638 16.6163 49.689 16.2472 49.972 15.4372C50.0915 15.0941 50.1692 14.7469 50.1652 14.3758C50.1553 13.2127 50.1692 12.0516 50.1553 10.8885C50.1513 10.5752 50.235 10.4575 50.5697 10.4496C51.8528 10.4236 51.8528 10.4116 51.8528 11.7084C51.8528 13.518 51.8428 15.3275 51.8607 17.139C51.8647 17.5201 51.7691 17.7076 51.3646 17.6418C51.3327 17.6358 51.2989 17.6418 51.265 17.6418C50.9343 17.6338 50.5597 17.7196 50.2848 17.5919C49.9879 17.4482 50.2688 17.0093 50.0795 16.6742Z" fill="black"/>
<path d="M40.614 16.343C41.8094 16.343 42.9032 16.361 43.9971 16.333C44.4035 16.323 44.533 16.4647 44.4872 16.8458C44.4673 17.0094 44.4772 17.1769 44.4832 17.3445C44.4912 17.556 44.3995 17.6418 44.1883 17.6398C42.3314 17.6358 40.4725 17.6438 38.6157 17.6338C38.259 17.6318 38.1733 17.153 38.4642 16.75C38.7711 16.3231 39.0978 15.9101 39.4126 15.4891C40.3151 14.2781 41.2157 13.0631 42.1481 11.8082C41.6261 11.7065 41.138 11.7703 40.6539 11.7603C40.1239 11.7484 39.5919 11.7444 39.0619 11.7623C38.7113 11.7743 38.5957 11.6247 38.6037 11.2875C38.6236 10.286 38.53 10.4695 39.4186 10.4636C40.9109 10.4516 42.4032 10.4556 43.8974 10.4655C44.0907 10.4675 44.3696 10.3339 44.4613 10.6132C44.547 10.8685 44.4932 11.1379 44.3198 11.3653C43.8935 11.9279 43.4611 12.4885 43.0407 13.0571C42.2497 14.1205 41.4647 15.1899 40.614 16.343Z" fill="black"/>
<path d="M89.5713 16.1554C90.1531 14.3638 90.7348 12.6002 91.2947 10.8286C91.3883 10.5333 91.5358 10.4395 91.8266 10.4535C92.253 10.4734 92.6794 10.4575 93.1715 10.4575C92.7491 11.5627 92.3546 12.6062 91.9542 13.6456C91.4859 14.8566 90.9998 16.0616 90.5515 17.2806C90.4519 17.5499 90.3304 17.6357 90.0574 17.6437C88.6488 17.6856 88.6349 17.6976 88.1507 16.3948C87.4554 14.5314 86.7859 12.656 86.0946 10.7906C86.0009 10.5353 86.0607 10.4515 86.3118 10.4575C86.3954 10.4595 86.4771 10.4575 86.5608 10.4555C87.7821 10.4495 87.7821 10.4495 88.1447 11.6046C88.6169 13.1109 89.0891 14.6152 89.5713 16.1554Z" fill="black"/>
<path d="M55.2723 11.7409C55.6847 10.9888 56.133 10.4581 56.922 10.3104C57.5795 10.1868 57.8365 10.3663 57.8385 11.0347C57.8385 11.1005 57.8385 11.1683 57.8385 11.2342C57.8385 11.9145 57.8445 11.8726 57.1591 11.7828C56.2924 11.6691 55.5433 12.2876 55.35 13.4168C55.1368 14.6497 55.2783 15.8966 55.2564 17.1356C55.2504 17.5086 55.1727 17.6543 54.7623 17.6503C53.5529 17.6383 53.5529 17.6563 53.5529 16.4672C53.5529 14.6258 53.5609 12.7823 53.5469 10.9409C53.5449 10.5858 53.6226 10.4481 54.0111 10.4481C55.2066 10.4501 55.2066 10.4341 55.2723 11.7409Z" fill="black"/>
</svg>
