<svg width="123" height="30" viewBox="0 0 123 30" fill="none" xmlns="http://www.w3.org/2000/svg">
<path d="M4.48091 0.0201596C3.82914 0.100798 3.31995 0.262075 2.72928 0.544309C1.772 1.02814 1.03876 1.75389 0.54993 2.70139C0.305516 3.18522 0.18331 3.48761 0.0814711 3.9916C0 4.33431 0 4.85847 0 14.8778C0 24.8971 0 25.4213 0.0814711 25.764C0.18331 26.268 0.305516 26.5704 0.54993 27.0542C1.03876 28.0017 1.772 28.7274 2.72928 29.2113C3.21811 29.4532 3.52362 29.5741 4.03282 29.6749C4.37907 29.7556 4.90863 29.7556 15.0314 29.7556C25.1542 29.7556 25.6838 29.7556 26.03 29.6749C26.5392 29.5741 26.8447 29.4532 27.3335 29.2113C28.2908 28.7274 29.0241 28.0017 29.5129 27.0542C29.7573 26.5704 29.8795 26.268 29.9813 25.764C30.0628 25.4213 30.0628 24.8971 30.0628 14.8778C30.0628 4.85847 30.0628 4.33431 29.9813 3.9916C29.8795 3.48761 29.7573 3.18522 29.5129 2.70139C28.8204 1.37085 27.6187 0.463671 26.0911 0.0806384C25.7856 0 25.2357 0 15.1944 0C9.36917 0 4.56238 0.0201596 4.48091 0.0201596ZM18.0255 6.55187C20.0622 6.9349 21.2639 7.84209 21.712 9.35406C21.9361 10.1201 21.9564 11.1886 21.7528 11.9143C21.6713 12.2369 21.4065 12.7812 21.2232 13.0433C20.877 13.5271 20.2863 14.0109 19.6753 14.3133C19.5327 14.394 19.4105 14.4544 19.4105 14.4746C19.4105 14.4948 19.5123 14.5351 19.6345 14.5552C19.7567 14.5754 20.0011 14.656 20.1845 14.7367C21.7731 15.3616 22.6897 16.8736 22.6897 18.95C22.6897 20.1596 22.3027 21.2482 21.5898 21.9941C20.7751 22.861 19.6549 23.3851 18.0051 23.6875C17.6385 23.748 17.1089 23.7682 12.8928 23.7682L8.16747 23.7883V6.43091L12.9335 6.45107C17.0275 6.49139 17.72 6.49139 18.0255 6.55187ZM11.243 11.3297V13.7287L14.0538 13.7085C16.5183 13.6884 16.8849 13.6884 17.0886 13.6279C17.7607 13.4263 18.331 13.0029 18.5754 12.4788C18.7587 12.0958 18.8198 11.8337 18.8198 11.2692C18.8198 10.2008 18.4939 9.57581 17.7811 9.2331C17.17 8.95086 17.17 8.95086 14.0741 8.93071L11.243 8.91055V11.3297ZM11.243 18.6275V21.349L14.2982 21.3289C17.2922 21.3087 17.3737 21.3087 17.6996 21.2281C18.1884 21.0869 18.5347 20.9055 18.8605 20.5628C19.3901 20.0588 19.5734 19.4943 19.5734 18.6073C19.5734 17.7203 19.3494 17.1558 18.8402 16.6518C18.4939 16.3293 18.168 16.168 17.6385 16.0269C17.2922 15.9462 17.1904 15.9261 14.2574 15.9261L11.243 15.9059V18.6275Z" fill="black"/>
<path d="M40.1855 6.51151C40.2467 6.49135 40.3078 6.47119 40.3689 6.47119C42.65 6.47119 44.9109 6.47119 47.1921 6.51151C47.966 6.53167 48.6789 6.79375 49.3103 7.25742C50.7564 8.30572 50.899 11.2692 48.9029 12.3376C48.8011 12.3981 48.6993 12.4384 48.5567 12.5191C48.9437 12.7005 49.3103 12.8215 49.6158 13.0231C50.8175 13.8294 51.3063 15.6237 50.7564 17.1961C50.288 18.567 49.1677 19.1516 47.8846 19.454C47.4568 19.5548 47.0087 19.5951 46.581 19.6153C44.4628 19.6354 42.3242 19.6153 40.1855 19.6153C40.1855 15.2608 40.1855 10.8861 40.1855 6.51151ZM42.4464 17.7001C44.0351 17.7001 45.5626 17.7404 47.0902 17.6799C48.0475 17.6396 48.74 16.6115 48.6993 15.6035C48.6382 14.5955 48.0271 13.7488 47.0902 13.7085C45.5626 13.6279 44.0554 13.648 42.5278 13.648C42.5075 13.648 42.4871 13.6883 42.4464 13.7085V17.7001ZM42.4667 11.9344C43.8721 11.9344 45.2368 11.9949 46.6014 11.9143C47.5994 11.8538 48.1697 11.0676 48.129 9.9588C48.0882 8.99114 47.5179 8.40651 46.4996 8.36619C45.2164 8.32588 43.9332 8.34604 42.6297 8.34604C42.5686 8.34604 42.5278 8.36619 42.4667 8.38635V11.9344ZM112.858 10.1402H114.752V11.1684C114.956 11.0071 115.22 10.8257 115.465 10.6241C116.911 9.37418 120.353 9.51529 121.534 12.0554C122.553 14.2326 122.512 16.43 121.127 18.446C120.373 19.5749 119.192 19.9781 117.868 19.8975C116.707 19.837 115.689 19.4741 114.894 18.3855V23.1633H112.858C112.858 18.8089 112.858 14.4746 112.858 10.1402ZM114.772 14.9382C114.854 15.4221 114.894 15.9059 115.037 16.3696C115.322 17.3977 116.218 18.1638 117.155 18.2444C118.398 18.325 119.294 17.8614 119.742 16.7526C120.312 15.3414 120.292 13.9101 119.457 12.5997C118.479 11.0474 116.117 11.1684 115.281 12.8013C114.935 13.4666 114.772 14.1722 114.772 14.9382ZM111.513 18.2646C111.513 18.6476 111.534 19.0508 111.513 19.454C111.513 19.5548 111.391 19.7161 111.31 19.7161C110.719 19.7564 110.128 19.8572 109.538 19.7967C109.029 19.7362 108.743 19.2927 108.58 18.7887C107.358 19.7967 105.953 19.9983 104.466 19.8169C103.224 19.6556 102.185 18.6274 102.104 17.4783C101.981 15.9059 102.572 14.8777 103.977 14.4947C104.955 14.2326 105.994 14.1318 106.992 13.9504C107.236 13.9101 107.481 13.8698 107.725 13.8093C108.194 13.6883 108.519 13.4263 108.54 12.9021C108.58 12.3578 108.356 11.9344 107.868 11.7328C107.012 11.3901 106.116 11.3901 105.261 11.7933C104.874 11.9748 104.65 12.3376 104.446 12.9827H102.45C102.45 12.2167 102.715 11.5716 103.224 11.0273C103.896 10.3015 104.772 10.0193 105.709 9.93864C106.686 9.83785 107.664 9.83785 108.621 10.1604C109.904 10.6039 110.515 11.4506 110.515 12.8215C110.515 14.273 110.515 15.7245 110.515 17.1759C110.495 18.1839 110.495 18.1839 111.513 18.2646ZM108.418 14.9987C107.786 15.0995 107.216 15.2003 106.646 15.3213C106.055 15.4422 105.444 15.5632 104.874 15.7648C104.324 15.9664 104.12 16.4905 104.14 17.055C104.161 17.5993 104.527 17.9017 104.996 18.063C105.81 18.3452 106.625 18.3049 107.379 17.942C107.929 17.6799 108.356 17.2566 108.397 16.6115C108.458 16.0672 108.418 15.5229 108.418 14.9987ZM57.0704 9.85801C60.2071 9.81769 62.0402 12.136 61.8365 15.2809C61.7754 16.3696 61.4699 17.3977 60.757 18.2646C59.983 19.1919 59.0054 19.6959 57.8037 19.8169C56.8056 19.9378 55.8484 19.8572 54.9318 19.4338C53.5672 18.8089 52.7728 17.7203 52.4469 16.2486C52.2229 15.2406 52.2229 14.2528 52.4877 13.265C53.058 11.1079 54.7281 9.87817 57.0704 9.85801ZM54.3411 14.8979C54.4226 15.3616 54.4633 15.8253 54.5856 16.2889C54.9114 17.438 55.8076 18.1839 56.826 18.2444C58.0888 18.3049 58.9646 17.7606 59.4534 16.5913C59.9219 15.4221 59.9219 14.2528 59.4127 13.1037C58.6591 11.4103 56.6427 10.9668 55.3392 12.2368C54.5856 12.9223 54.4022 13.8698 54.3411 14.8979ZM67.9264 9.85801C70.7576 9.85801 72.6721 11.7732 72.7129 14.6358C72.7332 15.8454 72.5296 16.9945 71.837 18.0025C70.839 19.454 69.3929 19.958 67.7228 19.8773C67.1117 19.8572 66.46 19.7161 65.8897 19.4741C64.5454 18.95 63.7307 17.8815 63.3844 16.4905C63.0789 15.2608 63.0993 14.031 63.5066 12.8215C64.0973 10.9668 65.7878 9.85801 67.9264 9.85801ZM70.6353 14.6358C70.5946 14.3738 70.5539 13.8899 70.4113 13.4263C70.0651 12.257 69.1485 11.5313 68.0079 11.4909C66.9284 11.4506 65.9508 12.0756 65.5434 13.2045C65.0546 14.535 65.0953 15.8454 65.8286 17.0751C66.6025 18.3654 68.3542 18.6476 69.5151 17.6799C70.3909 16.9542 70.5946 15.9462 70.6353 14.6358ZM88.0905 12.7811C87.4387 12.7811 86.8277 12.7811 86.1963 12.7811C86.1148 12.7811 85.9926 12.7005 85.9723 12.64C85.626 11.6522 84.7909 11.5313 83.9355 11.5313C83.5892 11.5313 83.2023 11.6119 82.8764 11.753C82.1635 12.0554 82.1024 12.8618 82.7542 13.2448C83.2023 13.5069 83.7522 13.648 84.2614 13.8093C84.9946 14.0109 85.7482 14.152 86.4815 14.3536C88.3349 14.9181 89.0682 16.7929 88.0294 18.3452C87.5406 19.0911 86.787 19.4943 85.9315 19.6959C84.6687 19.9983 83.4059 20.0184 82.1839 19.5749C80.86 19.0911 80.1675 18.1234 80.0656 16.672H82.082C82.6523 18.1839 84.2817 18.7686 85.789 18.0025C86.1352 17.8211 86.3796 17.5791 86.4 17.1558C86.4204 16.7123 86.2574 16.3292 85.8501 16.168C85.1372 15.9059 84.4039 15.7245 83.6707 15.5027C83.0597 15.3213 82.4486 15.2003 81.8783 14.9584C80.7581 14.5149 80.2693 13.7488 80.2693 12.5594C80.2693 11.5313 80.86 10.6644 81.9191 10.2814C83.3652 9.75721 84.852 9.67657 86.2982 10.2612C87.2758 10.6442 87.8665 11.4103 88.1109 12.4384C88.1109 12.5191 88.0905 12.6199 88.0905 12.7811ZM77.153 10.0999H79.0269V11.6321H77.1938C77.1734 11.8135 77.1734 11.9546 77.1734 12.0756C77.1734 13.6279 77.1734 15.1801 77.1734 16.7324C77.1734 16.934 77.1938 17.1558 77.2141 17.3574C77.2549 17.7606 77.4789 18.0025 77.8863 18.0428C78.2529 18.063 78.6399 18.0428 79.0472 18.0428V19.5749C78.1918 19.7967 77.3363 19.7765 76.5013 19.5951C75.5236 19.3733 75.1366 18.6879 75.1163 17.4179C75.0959 15.664 75.1163 13.9302 75.1163 12.1764V11.6724H73.5683V10.1201H75.0959V7.27758H77.1938C77.153 8.20492 77.153 9.13226 77.153 10.0999ZM94.5878 19.6556C93.7935 19.6556 93.0195 19.6757 92.2659 19.6556C91.5327 19.6153 90.9624 19.1314 90.7994 18.4057C90.718 17.9823 90.6569 17.559 90.6569 17.1356C90.6365 15.5027 90.6569 13.8496 90.6569 12.2167V11.6925H89.1089V10.1604H90.6365V7.29774H92.7344V10.1201H94.5878V11.6724H92.8158C92.7955 11.8135 92.7751 11.9143 92.7751 11.9949C92.7751 13.6682 92.7751 15.3414 92.7751 17.0147C92.7751 17.9017 93.0195 18.1033 93.875 18.1033C94.099 18.1033 94.3434 18.1033 94.6082 18.1033L94.5878 19.6556ZM98.0707 10.1402V11.753C98.8651 10.3822 99.9853 9.65641 101.635 9.89832V11.8941C100.861 11.7732 100.108 11.753 99.4354 12.2368C98.5596 12.8618 98.254 13.8093 98.2337 14.8173C98.1929 16.3897 98.2337 17.9823 98.2337 19.5951H96.1765V10.1201C96.7876 10.1402 97.3986 10.1402 98.0707 10.1402Z" fill="black"/>
</svg>
