<svg width="34" height="39" viewBox="0 0 34 39" fill="none" xmlns="http://www.w3.org/2000/svg">
<path d="M33.8148 12.0896C33.8145 11.4545 33.6787 10.8933 33.404 10.4116C33.1342 9.93797 32.7301 9.54099 32.1881 9.22712C27.714 6.64733 23.2356 4.07544 18.7629 1.49303C17.5571 0.796895 16.388 0.822273 15.1912 1.5284C13.4103 2.57864 4.49438 7.68679 1.83754 9.22567C0.743377 9.85908 0.210957 10.8285 0.210694 12.0884C0.208984 17.2765 0.210694 22.4645 0.208984 27.6527C0.208984 28.2739 0.339295 28.8242 0.601889 29.2986C0.871846 29.7866 1.28158 30.1945 1.83609 30.5155C4.49306 32.0544 13.4102 37.1621 15.1906 38.2126C16.388 38.9192 17.5571 38.9444 18.7633 38.248C23.2361 35.6655 27.7148 33.0937 32.1895 30.5139C32.7441 30.1931 33.1538 29.7849 33.4237 29.2973C33.6859 28.8229 33.8165 28.2726 33.8165 27.6513C33.8165 27.6513 33.8165 17.2778 33.8148 12.0896Z" fill="black"/>
<path d="M17.0638 19.8198L0.601562 29.2984C0.87152 29.7864 1.28126 30.1943 1.83577 30.5153C4.49274 32.0542 13.4099 37.1619 15.1903 38.2124C16.3877 38.919 17.5568 38.9442 18.763 38.2478C23.2358 35.6653 27.7145 33.0935 32.1892 30.5137C32.7437 30.1929 33.1535 29.7847 33.4234 29.2971L17.0638 19.8198Z" fill="black"/>
<path d="M33.8151 12.0896C33.8148 11.4545 33.679 10.8933 33.4043 10.4116L17.0645 19.82L33.424 29.2973C33.6862 28.8229 33.8165 28.2726 33.8168 27.6513C33.8168 27.6513 33.8168 17.2779 33.8151 12.0896Z" fill="black"/>
<path d="M26.7552 16.2765V18.0482H28.5269V16.2765H29.4128V18.0482H31.1845V18.9341H29.4128V20.7058H31.1845V21.5916H29.4128V23.3633H28.5269V21.5916H26.7552V23.3633H25.8694V21.5916H24.0977V20.7058H25.8694V18.9341H24.0977V18.0482H25.8694V16.2765H26.7552ZM28.5269 18.9341H26.7552V20.7058H28.5269V18.9341Z" fill="white"/>
<path d="M17.0994 7.37878C21.7206 7.37878 25.7553 9.88852 27.9164 13.619L27.8953 13.5831L22.4582 16.7137C21.387 14.8999 19.4231 13.6759 17.1704 13.6507L17.0994 13.6503C13.6641 13.6503 10.879 16.4353 10.879 19.8707C10.879 20.9941 11.1785 22.0472 11.6994 22.9568C12.7716 24.8286 14.7872 26.0911 17.0994 26.0911C19.4259 26.0911 21.4531 24.8126 22.5198 22.9207L22.4939 22.9661L27.9228 26.1112C25.7855 29.8101 21.8061 32.312 17.2386 32.3619L17.0994 32.3627C12.4637 32.3627 8.41751 29.8375 6.26189 26.0873C5.20954 24.2565 4.60742 22.134 4.60742 19.8707C4.60742 12.9717 10.2002 7.37878 17.0994 7.37878Z" fill="white"/>
</svg>
