<svg width="101" height="27" viewBox="0 0 101 27" fill="none" xmlns="http://www.w3.org/2000/svg">
<path d="M32.3386 9.86399C32.1478 8.43794 31.3843 7.19975 30.0067 6.08112L29.2101 5.52607L28.679 6.35437C27.9985 7.42177 27.6582 8.9076 27.7661 10.3336C27.8159 10.8289 27.9736 11.7341 28.4632 12.5111C27.9736 12.7929 27.0026 13.1687 25.7081 13.143H0.978264L0.928473 13.4419C0.696112 14.868 0.696112 19.334 3.47614 22.7582C5.59228 25.3627 8.75404 26.6862 12.8867 26.6862C21.8492 26.6862 28.4715 22.391 31.5835 14.5691C32.8034 14.5947 35.434 14.5776 36.7867 11.8878C36.8199 11.828 36.9029 11.6658 37.1352 11.1534L37.268 10.8716L36.5128 10.3422C35.683 9.78714 33.7992 9.57365 32.3386 9.86399ZM20.7538 0.325684H16.9945V3.88654H20.7538V0.325684ZM20.7538 4.60383H16.9945V8.16468H20.7538V4.60383ZM16.3058 4.60383H12.5465V8.16468H16.3058V4.60383ZM11.866 4.60383H8.10675V8.16468H11.866V4.60383ZM7.41797 8.88198H3.65871V12.4428H7.41797V8.88198ZM11.866 8.88198H8.10675V12.4428H11.866V8.88198ZM16.3058 8.88198H12.5465V12.4428H16.3058V8.88198ZM20.7538 8.88198H16.9945V12.4428H20.7538V8.88198ZM25.2019 8.88198H21.4426V12.4428H25.2019V8.88198ZM48.0562 8.07929C47.7823 8.07929 47.55 8.17322 47.3757 8.36109C47.1931 8.54895 47.1018 8.79659 47.1018 9.07838V13.903C46.1724 13.1089 45.1019 12.7161 43.8737 12.7161C42.4546 12.7161 41.243 13.2455 40.2389 14.3044C39.2348 15.3632 38.7369 16.6356 38.7369 18.1299C38.7369 19.6243 39.2431 20.8967 40.2389 21.9555C41.243 23.0144 42.4546 23.5438 43.8737 23.5438C45.2927 23.5438 46.496 23.0144 47.5085 21.9555C48.5126 20.9137 49.0105 19.6329 49.0105 18.1299V9.08692C49.0105 8.79659 48.9192 8.55749 48.7284 8.36963C48.5541 8.17322 48.33 8.07929 48.0562 8.07929ZM46.8529 19.445C46.6869 19.8549 46.4545 20.2135 46.1641 20.5209C45.8736 20.8283 45.5334 21.076 45.1434 21.2553C44.7533 21.4346 44.3301 21.5286 43.882 21.5286C43.4339 21.5286 43.0106 21.4432 42.6123 21.2553C42.2223 21.076 41.882 20.8283 41.5916 20.5209C41.3011 20.2135 41.0771 19.8549 40.9111 19.445C40.7451 19.0351 40.6621 18.5911 40.6621 18.1299C40.6621 17.6688 40.7451 17.2248 40.9111 16.8149C41.0771 16.405 41.3094 16.0464 41.5916 15.739C41.882 15.4316 42.2223 15.1925 42.6123 15.0046C43.0023 14.8253 43.4256 14.7313 43.882 14.7313C44.3384 14.7313 44.745 14.8167 45.1434 15.0046C45.5334 15.1839 45.8736 15.4316 46.1641 15.739C46.4545 16.0464 46.6869 16.405 46.8529 16.8149C47.0189 17.2248 47.1018 17.6603 47.1018 18.1214C47.1018 18.5911 47.0189 19.0266 46.8529 19.445ZM90.0968 14.3044C89.0844 13.2455 87.8645 12.7161 86.4621 12.7161C85.0513 12.7161 83.8314 13.2455 82.8273 14.3044C81.8231 15.3632 81.3252 16.6356 81.3252 18.1299C81.3252 19.6243 81.8314 20.8967 82.8273 21.9555C83.8314 23.0144 85.043 23.5438 86.4621 23.5438C87.7566 23.5438 88.8686 23.1083 89.823 22.2288C90.0056 22.0324 90.0968 21.7847 90.0968 21.5029C90.0968 21.2211 90.0056 20.9735 89.823 20.7856C89.6404 20.5978 89.4163 20.5039 89.1425 20.5039C88.9018 20.5124 88.6944 20.5892 88.5118 20.76C88.2214 21.0162 87.9143 21.2126 87.5741 21.3407C87.2338 21.4688 86.8687 21.5371 86.4621 21.5371C86.1052 21.5371 85.765 21.4773 85.4413 21.3663C85.1177 21.2468 84.8106 21.0845 84.5451 20.8796C84.2712 20.6661 84.0389 20.4185 83.8314 20.1281C83.6322 19.8378 83.4746 19.5133 83.375 19.1547H90.6445C90.9101 19.1547 91.1425 19.0607 91.325 18.8729C91.5159 18.685 91.6072 18.4374 91.6072 18.1556C91.6072 17.4041 91.4827 16.7124 91.2337 16.072C90.9765 15.4145 90.603 14.8338 90.0968 14.3044ZM83.3584 17.1309C83.458 16.7808 83.6073 16.4563 83.8065 16.1574C84.0057 15.8671 84.2463 15.6109 84.5202 15.4059C84.794 15.1925 85.1011 15.0388 85.433 14.9192C85.765 14.7997 86.1052 14.7484 86.4538 14.7484C86.8023 14.7484 87.1425 14.8082 87.4662 14.9192C87.7981 15.0388 88.0969 15.201 88.3624 15.4059C88.6363 15.6194 88.8769 15.8671 89.0761 16.1574C89.2836 16.4477 89.4329 16.7722 89.5408 17.1309H83.3584ZM100.163 13.3992C99.9888 13.2284 99.773 13.0918 99.5157 12.9893C99.2585 12.8869 98.968 12.8186 98.661 12.7844C98.3539 12.7417 98.0635 12.7246 97.7896 12.7246C97.1755 12.7246 96.6029 12.8271 96.0635 13.032C95.5241 13.237 95.0262 13.5359 94.5698 13.9201V13.7323C94.5698 13.4505 94.4785 13.2199 94.2876 13.0235C94.0968 12.8271 93.881 12.7246 93.6154 12.7246C93.3499 12.7246 93.1175 12.8271 92.935 13.0235C92.7441 13.2199 92.6528 13.459 92.6528 13.7323V22.5447C92.6528 22.8265 92.7441 23.0571 92.935 23.2535C93.1258 23.4499 93.3499 23.5524 93.6154 23.5524C93.881 23.5524 94.105 23.4499 94.2876 23.2535C94.4785 23.0571 94.5698 22.818 94.5698 22.5447V18.1385C94.5698 17.6688 94.6528 17.2248 94.8187 16.8149C94.9847 16.405 95.2171 16.0464 95.5075 15.739C95.798 15.4316 96.1382 15.1925 96.5282 15.0131C96.9183 14.8338 97.3415 14.7484 97.7896 14.7484C98.2378 14.7484 98.661 14.8338 99.051 14.9875C99.2004 15.0558 99.3415 15.0985 99.4576 15.0985C99.5904 15.0985 99.7149 15.0729 99.8311 15.0217C99.9473 14.9704 100.047 14.8936 100.138 14.8082C100.221 14.7143 100.296 14.6118 100.346 14.4837C100.395 14.3642 100.42 14.2275 100.42 14.0909C100.42 13.8006 100.337 13.57 100.163 13.3992ZM58.8941 14.3044C57.8817 13.2455 56.6618 12.7161 55.2593 12.7161C53.8569 12.7161 52.6287 13.2455 51.6246 14.3044C50.6204 15.3632 50.1225 16.6356 50.1225 18.1299C50.1225 19.6243 50.6287 20.8967 51.6246 21.9555C52.6287 23.0144 53.8403 23.5438 55.2593 23.5438C56.6784 23.5438 57.8817 23.0144 58.8941 21.9555C59.8983 20.9137 60.3962 19.6329 60.3962 18.1299C60.3879 17.3785 60.2634 16.6868 60.0144 16.0549C59.7655 15.423 59.392 14.8338 58.8941 14.3044ZM58.2302 19.445C58.0643 19.8549 57.8319 20.2135 57.5415 20.5209C57.251 20.8283 56.9108 21.076 56.5207 21.2553C56.1307 21.4346 55.7075 21.5286 55.2593 21.5286C54.8112 21.5286 54.388 21.4432 53.9897 21.2553C53.5996 21.076 53.2594 20.8283 52.9689 20.5209C52.6785 20.2135 52.4544 19.8549 52.2885 19.445C52.1225 19.0351 52.0395 18.5911 52.0395 18.1299C52.0395 17.6688 52.1225 17.2248 52.2885 16.8149C52.4544 16.405 52.6868 16.0464 52.9689 15.739C53.2594 15.4316 53.5996 15.1925 53.9897 15.0046C54.3797 14.8253 54.8029 14.7313 55.2593 14.7313C55.7158 14.7313 56.1224 14.8167 56.5207 15.0046C56.9108 15.1839 57.251 15.4316 57.5415 15.739C57.8319 16.0464 58.0643 16.405 58.2302 16.8149C58.3962 17.2248 58.4792 17.6603 58.4792 18.1214C58.4792 18.5911 58.3962 19.0266 58.2302 19.445ZM80.2713 13.7237C80.2713 13.5871 80.2464 13.459 80.1966 13.3394C80.1468 13.2199 80.0804 13.1089 79.9892 13.015C79.9062 12.921 79.7983 12.8442 79.6821 12.8015C79.5659 12.7502 79.4414 12.7246 79.3087 12.7246C79.1178 12.7246 78.9435 12.7759 78.7942 12.8783L73.3005 16.6356V9.09546C73.3005 8.81366 73.2092 8.57457 73.0183 8.37816C72.8275 8.18176 72.6117 8.07929 72.3462 8.07929C72.0806 8.07929 71.8482 8.18176 71.6657 8.37816C71.4748 8.57457 71.3835 8.81366 71.3835 9.09546V22.5276C71.3835 22.8094 71.4748 23.0485 71.6657 23.2449C71.8565 23.4413 72.0806 23.5438 72.3462 23.5438C72.6117 23.5438 72.8358 23.4413 73.0183 23.2449C73.2092 23.0485 73.3005 22.8094 73.3005 22.5276V19.0351L74.4208 18.258L78.6614 23.2706C78.8356 23.4413 79.0514 23.5267 79.3004 23.5267C79.4332 23.5267 79.5576 23.5011 79.6738 23.4499C79.79 23.3986 79.8896 23.3218 79.9809 23.2364C80.0638 23.1425 80.1385 23.04 80.1883 22.9119C80.2381 22.7924 80.263 22.6557 80.263 22.5276C80.263 22.2629 80.1717 22.0324 79.9975 21.8189L76.0639 17.1479L79.9145 14.5179C80.1551 14.3471 80.2713 14.0824 80.2713 13.7237ZM64.3297 15.7304C64.6202 15.423 64.9687 15.1839 65.3587 15.0046C65.7488 14.8253 66.172 14.7399 66.6201 14.7399C67.0268 14.7399 67.4002 14.8082 67.7404 14.9534C68.0807 15.0985 68.4126 15.3035 68.7197 15.5767C68.9022 15.7304 69.1097 15.8073 69.3421 15.8073C69.6159 15.8073 69.8483 15.7134 70.0225 15.5169C70.2051 15.3205 70.2964 15.0814 70.2964 14.7911C70.2964 14.5008 70.1885 14.2361 69.9645 14.0311C69.0184 13.1516 67.9064 12.7161 66.6118 12.7161C65.1928 12.7161 63.9812 13.2455 62.977 14.3044C61.9729 15.3632 61.475 16.6356 61.475 18.1299C61.475 19.6243 61.9812 20.8967 62.977 21.9555C63.9812 23.0144 65.1928 23.5438 66.6118 23.5438C67.8981 23.5438 69.0184 23.1083 69.9645 22.2288C70.1636 22.0153 70.2715 21.7677 70.2715 21.4859C70.2715 21.2041 70.1802 20.9564 69.9977 20.7686C69.8151 20.5807 69.591 20.4868 69.3172 20.4868C69.0848 20.4953 68.8856 20.5636 68.7114 20.7003C68.4043 20.982 68.0807 21.187 67.7404 21.3236C67.4002 21.4602 67.0268 21.5286 66.6201 21.5286C66.172 21.5286 65.7571 21.4432 65.3587 21.2638C64.9687 21.0845 64.6202 20.8454 64.3297 20.538C64.0393 20.2391 63.8069 19.872 63.6326 19.4621C63.4667 19.0522 63.3837 18.6081 63.3837 18.1385C63.3837 17.6688 63.4667 17.2248 63.6326 16.8149C63.8069 16.3965 64.0393 16.0464 64.3297 15.7304Z" fill="black"/>
</svg>
