<svg width="119" height="19" viewBox="0 0 119 19" fill="none" xmlns="http://www.w3.org/2000/svg">
<path d="M13.9033 5.3626H14.5706L16.4722 3.46093L16.5657 2.65356C15.4763 1.69202 14.1597 1.02407 12.7404 0.712815C11.3211 0.401556 9.84586 0.457261 8.45406 0.874667C7.06226 1.29207 5.79985 2.0574 4.78607 3.09836C3.77229 4.13931 3.04061 5.42152 2.66016 6.82388C2.87201 6.73704 3.10669 6.72296 3.32741 6.78384L7.13074 6.15663C7.13074 6.15663 7.32424 5.83634 7.42433 5.85636C8.23926 4.96136 9.36548 4.4117 10.5724 4.3199C11.7794 4.22811 12.9758 4.60113 13.9167 5.3626H13.9033Z" fill="black"/>
<path d="M19.1816 6.82344C18.7445 5.21378 17.847 3.76672 16.5993 2.65979L13.9303 5.32879C14.4866 5.7833 14.9323 6.35819 15.234 7.01009C15.5357 7.66199 15.6854 8.37389 15.6718 9.09209V9.56584C15.9838 9.56584 16.2927 9.62728 16.5809 9.74665C16.8691 9.86603 17.1309 10.041 17.3515 10.2616C17.5721 10.4822 17.7471 10.744 17.8664 11.0322C17.9858 11.3204 18.0473 11.6293 18.0473 11.9412C18.0473 12.2532 17.9858 12.5621 17.8664 12.8503C17.7471 13.1385 17.5721 13.4003 17.3515 13.6209C17.1309 13.8415 16.8691 14.0165 16.5809 14.1358C16.2927 14.2552 15.9838 14.3167 15.6718 14.3167H10.921L10.4473 14.7971V17.6462L10.921 18.12H15.6718C16.9985 18.1303 18.2932 17.7134 19.3645 16.9308C20.4359 16.1482 21.2268 15.0416 21.6205 13.7747C22.0141 12.5077 21.9895 11.1477 21.5502 9.89584C21.111 8.64397 20.2805 7.56671 19.1816 6.82344Z" fill="black"/>
<path d="M6.16353 18.0934H10.9144V14.2901H6.16353C5.82505 14.29 5.49055 14.2172 5.18267 14.0765L4.51542 14.2834L2.60041 16.1851L2.43359 16.8523C3.50749 17.6632 4.81787 18.0992 6.16353 18.0934Z" fill="black"/>
<path d="M6.16332 5.75578C4.87607 5.76347 3.62337 6.17301 2.58018 6.9272C1.53698 7.6814 0.755398 8.74258 0.344581 9.96254C-0.0662348 11.1825 -0.0857646 12.5003 0.28872 13.7319C0.663204 14.9635 1.413 16.0474 2.43339 16.8321L5.18913 14.0764C4.83893 13.9182 4.53235 13.6774 4.29568 13.3746C4.05902 13.0718 3.89934 12.7162 3.83034 12.3382C3.76134 11.9601 3.78509 11.571 3.89955 11.2042C4.01401 10.8373 4.21575 10.5037 4.48748 10.232C4.75921 9.96026 5.0928 9.75852 5.45964 9.64406C5.82648 9.5296 6.21561 9.50585 6.59365 9.57485C6.97168 9.64385 7.32734 9.80353 7.63009 10.0402C7.93285 10.2769 8.17367 10.5834 8.33188 10.9336L11.0876 8.1779C10.5092 7.42174 9.76374 6.80963 8.90947 6.38945C8.05521 5.96926 7.11532 5.75238 6.16332 5.75578Z" fill="black"/>
<path d="M34.5475 15.438C33.7296 15.4484 32.9179 15.2936 32.1612 14.9829C31.4045 14.6722 30.7183 14.212 30.1437 13.6298C29.551 13.0722 29.0806 12.3976 28.7624 11.6487C28.4443 10.8998 28.2852 10.0929 28.2954 9.27928C28.2856 8.4657 28.4448 7.65895 28.763 6.91009C29.0811 6.16123 29.5513 5.48657 30.1437 4.92881C30.7155 4.34056 31.4004 3.87414 32.1573 3.55764C32.9141 3.24114 33.7272 3.08111 34.5475 3.08719C35.3292 3.07678 36.1051 3.22183 36.8302 3.51393C37.5553 3.80603 38.2151 4.23934 38.7712 4.78868L37.5835 5.99641C36.7701 5.21035 35.6785 4.7785 34.5475 4.79536C33.9608 4.78815 33.379 4.90307 32.8391 5.13281C32.2993 5.36255 31.8131 5.7021 31.4114 6.12986C30.9941 6.54394 30.6648 7.03821 30.4435 7.5829C30.2222 8.12759 30.1134 8.71145 30.1236 9.2993C30.1188 9.88044 30.2302 10.4567 30.4513 10.9941C30.6725 11.5316 30.9989 12.0193 31.4114 12.4287C32.2377 13.2522 33.3528 13.7206 34.5193 13.7343C35.6857 13.748 36.8115 13.3059 37.6569 12.5021C38.1803 11.9289 38.5014 11.2 38.571 10.427H34.5675V8.71879H40.2325C40.2882 9.06281 40.3105 9.41139 40.2992 9.7597C40.3345 10.4806 40.2231 11.2012 39.972 11.8778C39.7208 12.5545 39.335 13.1732 38.8379 13.6965C38.2853 14.2719 37.6176 14.7244 36.8783 15.0244C36.1391 15.3245 35.3449 15.4654 34.5475 15.438ZM47.7191 14.3037C46.9588 15.0324 45.9464 15.4393 44.8932 15.4393C43.8401 15.4393 42.8277 15.0324 42.0674 14.3037C41.689 13.9368 41.391 13.4952 41.1923 13.0071C40.9936 12.5189 40.8985 11.9947 40.9131 11.4679C40.8989 10.941 40.9942 10.417 41.1929 9.9289C41.3916 9.44078 41.6894 8.99919 42.0674 8.63205C42.8285 7.90481 43.8406 7.49898 44.8932 7.49898C45.9459 7.49898 46.958 7.90481 47.7191 8.63205C48.0971 8.99919 48.3949 9.44078 48.5936 9.9289C48.7923 10.417 48.8876 10.941 48.8734 11.4679C48.8871 11.9952 48.791 12.5197 48.5911 13.0079C48.3912 13.4961 48.092 13.9374 47.7124 14.3037H47.7191ZM43.3152 13.1894C43.5174 13.4053 43.7618 13.5775 44.0332 13.6952C44.3047 13.8129 44.5974 13.8736 44.8932 13.8736C45.1891 13.8736 45.4818 13.8129 45.7532 13.6952C46.0247 13.5775 46.2691 13.4053 46.4713 13.1894C46.6918 12.9615 46.8644 12.6918 46.979 12.3961C47.0936 12.1004 47.1479 11.7848 47.1385 11.4679C47.1484 11.1498 47.0944 10.8331 46.9798 10.5363C46.8652 10.2394 46.6923 9.96858 46.4713 9.73968C46.2664 9.52594 46.0204 9.35586 45.748 9.23966C45.4757 9.12347 45.1827 9.06357 44.8866 9.06357C44.5905 9.06357 44.2975 9.12347 44.0251 9.23966C43.7528 9.35586 43.5068 9.52594 43.3019 9.73968C43.0809 9.96858 42.908 10.2394 42.7933 10.5363C42.6787 10.8331 42.6248 11.1498 42.6346 11.4679C42.6262 11.7853 42.6815 12.1012 42.7972 12.3969C42.913 12.6926 43.0868 12.962 43.3085 13.1894H43.3152ZM56.4067 14.3037C55.6464 15.0324 54.634 15.4393 53.5809 15.4393C52.5277 15.4393 51.5153 15.0324 50.755 14.3037C50.3766 13.9368 50.0786 13.4952 49.8799 13.0071C49.6812 12.5189 49.5861 11.9947 49.6007 11.4679C49.5865 10.941 49.6818 10.417 49.8805 9.9289C50.0792 9.44078 50.377 8.99919 50.755 8.63205C51.5153 7.90329 52.5277 7.49642 53.5809 7.49642C54.634 7.49642 55.6464 7.90329 56.4067 8.63205C56.7847 8.99919 57.0825 9.44078 57.2812 9.9289C57.4799 10.417 57.5752 10.941 57.561 11.4679C57.5756 11.9947 57.4805 12.5189 57.2818 13.0071C57.0831 13.4952 56.7851 13.9368 56.4067 14.3037ZM52.0028 13.1894C52.205 13.4053 52.4494 13.5775 52.7209 13.6952C52.9923 13.8129 53.285 13.8736 53.5809 13.8736C53.8767 13.8736 54.1694 13.8129 54.4408 13.6952C54.7123 13.5775 54.9567 13.4053 55.1589 13.1894C55.3794 12.9615 55.552 12.6918 55.6666 12.3961C55.7812 12.1004 55.8355 11.7848 55.8262 11.4679C55.836 11.1498 55.782 10.8331 55.6674 10.5363C55.5528 10.2394 55.3799 9.96858 55.1589 9.73968C54.954 9.52594 54.708 9.35586 54.4356 9.23966C54.1633 9.12347 53.8703 9.06357 53.5742 9.06357C53.2781 9.06357 52.9851 9.12347 52.7127 9.23966C52.4404 9.35586 52.1944 9.52594 51.9895 9.73968C51.7685 9.96858 51.5956 10.2394 51.481 10.5363C51.3663 10.8331 51.3124 11.1498 51.3222 11.4679C51.3138 11.7853 51.3691 12.1012 51.4848 12.3969C51.6006 12.6926 51.7744 12.962 51.9961 13.1894H52.0028ZM62.1183 19.0011C61.3186 19.0266 60.5343 18.7769 59.8964 18.2938C59.33 17.8681 58.8839 17.3024 58.6019 16.6524L60.1232 16.0185C60.2888 16.407 60.5478 16.7485 60.8772 17.0127C61.2298 17.2969 61.6723 17.446 62.125 17.4331C62.4121 17.4505 62.6995 17.4059 62.9678 17.3023C63.2361 17.1987 63.4789 17.0385 63.6797 16.8326C64.0817 16.3476 64.2802 15.7258 64.2335 15.0977V14.5239H64.1735C63.9192 14.8259 63.5981 15.0645 63.2356 15.2209C62.8731 15.3772 62.4791 15.447 62.085 15.4247C61.584 15.4262 61.0881 15.3238 60.6287 15.1239C60.1694 14.9241 59.7564 14.6312 59.416 14.2636C59.0466 13.899 58.755 13.4633 58.5588 12.9827C58.3627 12.5022 58.2661 11.9868 58.275 11.4679C58.2657 10.9459 58.3621 10.4274 58.5581 9.94353C58.7542 9.45967 59.046 9.0204 59.416 8.65206C59.7556 8.283 60.1682 7.98861 60.6277 7.78758C61.0872 7.58656 61.5834 7.48331 62.085 7.48438C62.5094 7.48363 62.9287 7.57707 63.3127 7.75795C63.6449 7.90301 63.941 8.11943 64.1801 8.39184H64.2402V7.75795H65.895V14.8642C65.9385 15.4263 65.8669 15.9914 65.6845 16.5249C65.5021 17.0584 65.2127 17.5491 64.834 17.9669C64.4734 18.3119 64.0473 18.5812 63.5808 18.7588C63.1144 18.9365 62.6171 19.0188 62.1183 19.0011ZM62.2384 13.8766C62.5234 13.8829 62.8062 13.8264 63.0668 13.711C63.3274 13.5957 63.5594 13.4245 63.7464 13.2094C64.1581 12.7376 64.3752 12.127 64.3536 11.5012C64.3783 10.8649 64.1614 10.2427 63.7464 9.7597C63.5597 9.54427 63.3277 9.37275 63.0671 9.2574C62.8064 9.14205 62.5234 9.08573 62.2384 9.09245C61.9457 9.08644 61.6551 9.14284 61.3859 9.25789C61.1167 9.37294 60.875 9.544 60.6771 9.7597C60.2357 10.2254 59.9959 10.8464 60.0098 11.4879C60.003 11.8025 60.0585 12.1154 60.173 12.4085C60.2875 12.7017 60.4588 12.9693 60.6771 13.196C60.8741 13.4138 61.1152 13.5872 61.3844 13.7045C61.6537 13.8219 61.9448 13.8805 62.2384 13.8766ZM68.8375 3.53425V15.1978H67.096V3.53425H68.8375ZM73.6151 15.438C73.0935 15.4514 72.5748 15.357 72.0914 15.1607C71.608 14.9643 71.1704 14.6703 70.8059 14.297C70.4361 13.9264 70.1454 13.4846 69.9516 12.9982C69.7577 12.5119 69.6647 11.9912 69.6783 11.4679C69.6585 10.9432 69.7447 10.4199 69.9315 9.92929C70.1184 9.43864 70.4022 8.99065 70.7659 8.61203C71.1087 8.25069 71.5231 7.96492 71.9827 7.77304C72.4423 7.58115 72.937 7.48738 73.4349 7.49772C73.8928 7.49288 74.3469 7.58143 74.7694 7.75795C75.15 7.91157 75.4968 8.13825 75.7903 8.4252C76.0423 8.66846 76.2661 8.93928 76.4575 9.23257C76.6124 9.4802 76.7442 9.74153 76.8512 10.0133L77.0314 10.467L71.6934 12.6622C71.8548 13.0332 72.1249 13.3465 72.4679 13.5609C72.8109 13.7753 73.2109 13.8807 73.6151 13.8633C74.0083 13.8644 74.3951 13.7635 74.7377 13.5706C75.0804 13.3776 75.3671 13.0991 75.5701 12.7623L76.9046 13.6631C76.564 14.1504 76.1282 14.5635 75.6235 14.8775C75.0232 15.2568 74.3249 15.4516 73.6151 15.438ZM71.3864 11.3478L74.9362 9.87313C74.8268 9.61312 74.6313 9.3987 74.3824 9.26594C74.1037 9.10857 73.7883 9.02798 73.4683 9.0324C72.9252 9.04646 72.4097 9.27426 72.0337 9.66629C71.8086 9.88162 71.6339 10.144 71.5221 10.4347C71.4102 10.7253 71.3639 11.0371 71.3864 11.3478Z" fill="black"/>
<path d="M86.1516 15.4378C85.411 15.4506 84.6754 15.3136 83.989 15.035C83.3027 14.7564 82.6796 14.342 82.1574 13.8167C81.6352 13.2913 81.2245 12.6659 80.95 11.9779C80.6755 11.2898 80.5429 10.5535 80.5601 9.8129C80.5429 9.07235 80.6755 8.33596 80.95 7.64794C81.2245 6.95992 81.6352 6.33446 82.1574 5.80911C82.6796 5.28376 83.3027 4.86936 83.989 4.59078C84.6754 4.3122 85.411 4.17519 86.1516 4.18798C86.9013 4.16454 87.6465 4.3108 88.3317 4.61583C89.0168 4.92086 89.6242 5.37678 90.1084 5.94952L89.1476 6.88367C88.7921 6.43654 88.3361 6.07962 87.8167 5.84194C87.2972 5.60426 86.7291 5.49252 86.1583 5.51581C85.6089 5.50343 85.0626 5.60226 84.5524 5.80637C84.0421 6.01047 83.5784 6.31563 83.189 6.70351C82.7843 7.11055 82.468 7.59688 82.2602 8.13198C82.0523 8.66707 81.9574 9.23936 81.9813 9.8129C81.9574 10.3864 82.0523 10.9587 82.2602 11.4938C82.468 12.0289 82.7843 12.5153 83.189 12.9223C83.5784 13.3102 84.0421 13.6153 84.5524 13.8194C85.0626 14.0235 85.6089 14.1224 86.1583 14.11C86.796 14.1171 87.4271 13.9805 88.0047 13.7102C88.5823 13.4399 89.0915 13.0428 89.4946 12.5486L90.4554 13.5095C89.9523 14.1111 89.3207 14.5922 88.6071 14.9174C87.8379 15.2725 86.9988 15.4504 86.1516 15.4378Z" fill="black"/>
<path d="M93.0394 15.1981H91.6582V4.422H93.0394V15.1981Z" fill="black"/>
<path d="M95.296 8.71248C96.0197 7.99372 96.9983 7.59033 98.0183 7.59033C99.0384 7.59033 100.017 7.99372 100.741 8.71248C101.095 9.08616 101.371 9.52613 101.554 10.0071C101.738 10.4881 101.824 11.0005 101.808 11.5149C101.824 12.0294 101.738 12.5418 101.554 13.0228C101.371 13.5037 101.095 13.9437 100.741 14.3174C100.017 15.0362 99.0384 15.4395 98.0183 15.4395C96.9983 15.4395 96.0197 15.0362 95.296 14.3174C94.942 13.9437 94.6655 13.5037 94.4823 13.0228C94.2991 12.5418 94.2128 12.0294 94.2284 11.5149C94.2128 11.0005 94.2991 10.4881 94.4823 10.0071C94.6655 9.52613 94.942 9.08616 95.296 8.71248ZM96.3235 13.45C96.5411 13.68 96.8034 13.8631 97.0942 13.9883C97.3851 14.1135 97.6984 14.1781 98.015 14.1781C98.3316 14.1781 98.645 14.1135 98.9358 13.9883C99.2266 13.8631 99.4889 13.68 99.7065 13.45C99.9479 13.1909 100.135 12.8864 100.258 12.5542C100.381 12.222 100.436 11.8687 100.42 11.5149C100.436 11.1612 100.381 10.8079 100.258 10.4757C100.135 10.1435 99.9479 9.83896 99.7065 9.57991C99.4889 9.34992 99.2266 9.16672 98.9358 9.04152C98.645 8.91633 98.3316 8.85175 98.015 8.85175C97.6984 8.85175 97.3851 8.91633 97.0942 9.04152C96.8034 9.16672 96.5411 9.34992 96.3235 9.57991C96.0821 9.83896 95.8946 10.1435 95.7721 10.4757C95.6495 10.8079 95.5943 11.1612 95.6096 11.5149C95.596 11.8681 95.6528 12.2204 95.7765 12.5514C95.9002 12.8824 96.0884 13.1856 96.3302 13.4433L96.3235 13.45Z" fill="black"/>
<path d="M109.459 15.1979H108.124V14.177H108.084C107.847 14.5647 107.51 14.8825 107.11 15.0978C106.694 15.3386 106.222 15.4653 105.742 15.4648C105.352 15.4914 104.961 15.4297 104.598 15.2841C104.235 15.1385 103.91 14.9129 103.647 14.624C103.141 13.9847 102.887 13.1825 102.933 12.3687V7.83142H104.314V12.1152C104.314 13.4897 104.921 14.177 106.136 14.177C106.406 14.1854 106.673 14.1292 106.917 14.0132C107.161 13.8971 107.373 13.7245 107.537 13.5097C107.895 13.056 108.086 12.4929 108.077 11.915V7.83142H109.459V15.1979Z" fill="black"/>
<path d="M114.151 15.4383C113.682 15.4399 113.219 15.3399 112.793 15.1452C112.367 14.9505 111.988 14.6658 111.682 14.3107C110.99 13.5466 110.62 12.5452 110.648 11.5149C110.62 10.4846 110.99 9.48314 111.682 8.71909C111.988 8.36393 112.367 8.07922 112.793 7.88455C113.219 7.68988 113.682 7.58988 114.151 7.59144C114.676 7.58315 115.195 7.70706 115.659 7.95175C116.067 8.15714 116.413 8.4682 116.66 8.85254H116.72L116.66 7.83165V4.422H118.041V15.1981H116.707V14.1772H116.647C116.399 14.5615 116.054 14.8726 115.646 15.078C115.185 15.3205 114.671 15.4444 114.151 15.4383ZM114.378 14.1772C114.69 14.1818 115 14.1198 115.286 13.9956C115.573 13.8714 115.829 13.6876 116.039 13.4566C116.509 12.9223 116.748 12.2247 116.707 11.5149C116.748 10.8051 116.509 10.1074 116.039 9.57317C115.828 9.34087 115.57 9.15528 115.283 9.02828C114.996 8.90128 114.685 8.83568 114.371 8.83568C114.057 8.83568 113.747 8.90128 113.459 9.02828C113.172 9.15528 112.914 9.34087 112.703 9.57317C112.47 9.83594 112.291 10.1421 112.177 10.4742C112.062 10.8062 112.014 11.1576 112.036 11.5082C112.014 11.8588 112.062 12.2102 112.177 12.5422C112.291 12.8743 112.47 13.1805 112.703 13.4432C112.913 13.6784 113.172 13.8657 113.461 13.9923C113.75 14.1189 114.062 14.182 114.378 14.1772Z" fill="black"/>
</svg>
