<svg width="91" height="32" viewBox="0 0 91 32" fill="none" xmlns="http://www.w3.org/2000/svg">
<path d="M15.743 9.19629C14.3738 9.19629 13.0354 9.6023 11.8969 10.363C10.7585 11.1236 9.87123 12.2048 9.34727 13.4698C8.82331 14.7347 8.68622 16.1266 8.95333 17.4695C9.22044 18.8123 9.87976 20.0458 10.8479 21.014C11.8161 21.9821 13.0496 22.6415 14.3924 22.9086C15.7353 23.1757 17.1272 23.0386 18.3922 22.5146C19.6571 21.9907 20.7383 21.1034 21.4989 19.965C22.2596 18.8265 22.6656 17.4881 22.6656 16.1189C22.6634 14.2836 21.9334 12.5241 20.6356 11.2263C19.3378 9.92853 17.5783 9.19848 15.743 9.19629Z" fill="black"/>
<path d="M25.6827 9.81002C27.4243 9.81002 28.8361 8.39818 28.8361 6.6566C28.8361 4.91501 27.4243 3.50317 25.6827 3.50317C23.9411 3.50317 22.5293 4.91501 22.5293 6.6566C22.5293 8.39818 23.9411 9.81002 25.6827 9.81002Z" fill="black"/>
<path d="M29.5638 9.8268L29.4315 9.53749L29.2249 9.7772C28.7079 10.3638 28.0542 10.8138 27.3217 11.0873L27.115 11.1617L27.1977 11.3684C28.3114 14.0466 28.4523 17.0302 27.5961 19.8015C26.7399 22.5728 24.9406 24.9569 22.5103 26.5402C20.0801 28.1235 17.1722 28.8061 14.2913 28.4695C11.4103 28.133 8.73808 26.7985 6.7382 24.6977C4.73832 22.5968 3.53698 19.8621 3.34261 16.9681C3.14825 14.0741 3.97313 11.2034 5.67413 8.85395C7.37513 6.50455 9.84491 4.82474 12.655 4.10597C15.465 3.3872 18.4381 3.67483 21.0582 4.91895L21.2525 5.01194L21.3372 4.80529C21.646 4.08701 22.1273 3.45601 22.7383 2.96821L22.9863 2.76156L22.7031 2.61484C20.5524 1.49701 18.1631 0.916338 15.7392 0.92241C12.4574 0.922882 9.26409 1.98611 6.63707 3.95298C4.01005 5.91985 2.09063 8.68458 1.16608 11.8334C0.241528 14.9822 0.361562 18.3458 1.50822 21.4206C2.65488 24.4955 4.76649 27.1164 7.52703 28.891C10.2876 30.6656 13.5486 31.4985 16.822 31.2651C20.0954 31.0316 23.2052 29.7443 25.686 27.5959C28.1667 25.4475 29.885 22.5535 30.5837 19.347C31.2823 16.1405 30.9238 12.7939 29.5617 9.8082L29.5638 9.8268Z" fill="black"/>
<path d="M41.9511 9.50659H38.748V22.732H41.9511V9.50659Z" fill="black"/>
<path d="M76.5175 9.50659H73.3145V22.732H76.5175V9.50659Z" fill="black"/>
<path d="M65.9199 9.19653C63.6674 9.19653 61.9275 10.5542 61.5286 10.9282L61.322 9.5065H58.6562V22.7319H61.8593V14.7243C61.8593 13.1621 63.9919 11.8685 65.552 11.8685C67.1122 11.8685 68.2839 13.3605 68.2839 15.1376V22.7319H71.4869V15.4538C71.4766 11.9863 69.9805 9.19653 65.9199 9.19653Z" fill="black"/>
<path d="M84.9264 20.3286C82.519 20.3286 80.9278 18.444 80.9278 16.1192C80.9278 13.7944 82.519 11.9098 84.9264 11.9098C86.9805 11.9098 88.2327 13.8998 88.2327 13.8998L90.5534 12.3479C89.8818 11.3147 89.1068 10.6947 88.0488 10.0541C87.1356 9.50014 86.0895 9.20379 85.0214 9.19653C81.0146 9.19653 77.9541 12.2053 77.9355 16.1192C77.9541 20.0331 81.0146 23.0418 85.0214 23.0418C86.0853 23.0323 87.1269 22.7361 88.0364 22.1843C89.0944 21.5457 89.8694 20.9237 90.541 19.8905L88.2203 18.3386C88.2203 18.3386 86.9805 20.3286 84.9264 20.3286Z" fill="black"/>
<path d="M50.304 9.19668C49.3953 9.18206 48.4928 9.34924 47.6497 9.68837C46.8065 10.0275 46.0396 10.5318 45.3941 11.1715C44.7485 11.8113 44.2374 12.5736 43.8907 13.4137C43.544 14.2538 43.3687 15.1547 43.3752 16.0635C43.3752 19.8142 46.1814 23.042 50.3516 23.042C54.127 23.042 57.2205 20.1489 57.2205 16.1441C57.2205 11.5586 53.6228 9.19668 50.304 9.19668ZM50.3433 11.9161C52.3292 11.9161 54.2096 13.528 54.2096 16.1255C54.2096 18.6673 52.3374 20.3246 50.335 20.3246C48.1342 20.3246 46.4087 18.5557 46.4087 16.1049C46.4087 13.7078 48.1218 11.9161 50.3536 11.9161H50.3433Z" fill="black"/>
</svg>
