<svg width="57" height="23" viewBox="0 0 57 23" fill="none" xmlns="http://www.w3.org/2000/svg">
<path d="M26.6611 21.914H24.9758V11.5897H26.6611V21.914ZM25.8184 9.869C25.2286 9.869 24.723 9.35278 24.723 8.75053C24.723 8.14828 25.2286 7.63207 25.8184 7.63207C26.4083 7.63207 26.9139 8.14828 26.9139 8.75053C26.9139 9.35278 26.4083 9.869 25.8184 9.869ZM36.0146 22.1721C31.5485 22.1721 28.6835 18.9027 28.6835 13.7406C28.6835 8.57846 31.5485 5.30911 36.0146 5.30911C40.4806 5.30911 43.3457 8.57846 43.3457 13.7406C43.3457 18.9027 40.4806 22.1721 36.0146 22.1721ZM41.7446 13.7406C41.7446 9.43882 39.5537 6.68568 36.0146 6.68568C32.4754 6.68568 30.2845 9.43882 30.2845 13.7406C30.2845 18.0424 32.4754 20.7095 36.0146 20.7095C39.5537 20.7095 41.7446 18.0424 41.7446 13.7406ZM50.761 22.1721C47.3904 22.1721 45.031 20.2793 44.8624 17.4401H46.3792C46.5477 19.4189 48.3173 20.7095 50.8453 20.7095C53.289 20.7095 54.9743 19.3329 54.9743 17.5262C54.9743 15.9775 53.9631 15.1172 51.5194 14.5149L49.497 13.9987C46.5477 13.2244 45.1995 11.9339 45.1995 9.78296C45.1995 7.11586 47.5589 5.22307 50.6767 5.22307C53.7946 5.22307 56.0697 7.11586 56.154 9.69693H54.8058C54.7215 7.89018 53.1204 6.68568 50.8453 6.68568C48.6544 6.68568 46.9691 7.97621 46.9691 9.78296C46.9691 11.1595 47.9803 12.0199 50.3397 12.6221L52.1093 13.0523C55.3113 13.9127 56.6596 15.1172 56.6596 17.4401C56.5753 20.2793 54.3844 22.1721 50.761 22.1721ZM18.2345 17.6982C17.8975 18.4726 17.4762 19.2469 17.0548 19.8491C16.465 20.7955 15.9594 21.3978 15.538 21.7419C14.9482 22.3442 14.2741 22.6023 13.5999 22.6023C13.0944 22.6023 12.5045 22.4302 11.7461 22.1721C11.072 21.914 10.3979 21.7419 9.808 21.7419C9.21814 21.7419 8.54401 21.914 7.78563 22.1721C7.1115 22.4302 6.52164 22.6023 6.01605 22.6023C5.34193 22.6023 4.6678 22.3442 3.99368 21.6559C3.57235 21.3117 3.06676 20.6234 2.39264 19.6771C1.71851 18.7307 1.12865 17.5262 0.707327 16.2356C0.286 14.9451 0.0332031 13.5685 0.0332031 12.278C0.0332031 10.7294 0.370265 9.43882 0.960123 8.40639C1.46572 7.54604 2.13984 6.85775 2.98249 6.34154C3.82515 5.82532 4.75207 5.56722 5.67899 5.56722C6.18458 5.56722 6.94297 5.73929 7.78563 6.08343C8.62828 6.42757 9.21814 6.59964 9.47093 6.59964C9.63947 6.59964 10.2293 6.42757 11.3248 5.99739C12.336 5.65325 13.1786 5.48118 13.8527 5.56722C15.7066 5.73929 17.1391 6.42757 18.066 7.80414C16.3807 8.83657 15.6223 10.2992 15.6223 12.1059C15.6223 13.5685 16.1279 14.773 17.1391 15.7194C17.5604 16.1496 18.066 16.4937 18.6559 16.7518C18.4873 17.01 18.3188 17.3541 18.2345 17.6982ZM13.937 0.577151C13.937 1.69561 13.5157 2.72804 12.7573 3.76047C11.8304 4.87893 10.6507 5.56722 9.38667 5.48118C9.38667 5.30911 9.38667 5.22307 9.38667 5.051C9.38667 3.93254 9.808 2.81408 10.6507 1.86768C11.072 1.35147 11.5776 1.00733 12.1674 0.663186C12.7573 0.319044 13.3471 0.146973 13.937 0.146973C13.937 0.319044 13.937 0.405079 13.937 0.577151Z" fill="black"/>
</svg>
