<svg width="40" height="43" viewBox="0 0 40 43" fill="none" xmlns="http://www.w3.org/2000/svg">
<path opacity="0.85" d="M29.5595 0.303582C30.031 0.296846 30.5059 0.290111 30.9807 0.286743C30.9875 0.549435 30.9975 1.07145 31.0043 1.33414C30.5193 1.33414 30.0343 1.33078 29.5527 1.33078C29.5527 1.07482 29.5595 0.562907 29.5595 0.303582Z" fill="#101010"/>
<path d="M0.787326 0.518799C1.65286 0.525535 2.52178 0.528903 3.39405 0.532271C3.31996 2.08148 3.62306 3.69131 3.18524 5.20011C2.61944 6.28456 1.21168 6.07238 0.197953 6.09259C0.157539 5.74907 0.117124 5.40555 0.0800781 5.06203C0.662716 5.01488 1.29587 5.12938 1.83136 4.82965C2.17825 3.7553 2.02333 2.60686 1.93577 1.50221C1.6394 1.50894 1.05002 1.51568 0.753648 1.51905C0.763752 1.26983 0.777223 0.76802 0.787326 0.518799Z" fill="#131313"/>
<path d="M18.1275 0.943536C19.1479 0.155459 20.4883 0.478774 21.6233 0.785249C21.6199 1.08499 21.6165 1.68446 21.6165 1.9842C20.7375 1.63058 19.0671 0.859342 18.8448 2.31425C19.6767 2.56684 20.5557 2.71502 21.3101 3.16632C22.1116 3.81968 21.886 5.3049 20.9632 5.75283C19.9124 6.37588 18.6663 6.03572 17.5583 5.81008C17.4943 5.34868 17.4303 4.89066 17.373 4.42926C18.3059 4.84014 20.1953 5.81345 20.4748 4.24066C19.5386 3.88704 18.3733 3.83652 17.693 3.02824C17.3933 2.34119 17.4438 1.38472 18.1275 0.943536Z" fill="#131313"/>
<path d="M36.7483 0.710938C37.1424 0.710938 37.5398 0.710938 37.9405 0.710938C37.9506 1.0915 37.9641 1.47207 37.981 1.85264C38.2841 1.85601 38.8936 1.86274 39.2001 1.86611C39.2068 2.09849 39.217 2.55989 39.2237 2.7889C38.9139 2.78553 38.2942 2.7788 37.9843 2.77206C38.0012 3.5433 37.8025 4.38526 38.1898 5.09588C38.4794 5.12619 39.0587 5.18344 39.3483 5.21375C39.318 6.63162 37.7014 5.98836 36.846 5.76608C36.7685 4.90054 36.7315 4.035 36.7315 3.1661C36.5126 2.85963 36.2937 2.54978 36.0781 2.24331C36.2431 2.09176 36.5732 1.78865 36.7382 1.6371C36.7416 1.40471 36.745 0.939951 36.7483 0.710938Z" fill="#131313"/>
<path d="M4.44441 1.89658C5.54233 1.83933 7.07807 1.43182 7.76848 2.56679C8.01434 3.69165 7.85941 4.86029 7.89646 6.00536C7.40475 5.96158 6.91305 5.91443 6.42472 5.87064C5.86565 5.91779 5.20891 6.33204 4.69363 5.96157C3.83819 5.5507 3.82474 4.03517 4.72395 3.66807C5.37731 3.39864 6.0913 3.35149 6.77497 3.18984C6.12497 2.51627 5.20218 2.77222 4.3838 2.85979C4.40064 2.6173 4.43094 2.1357 4.44441 1.89658ZM5.5154 4.21029C5.47835 4.53697 5.44467 4.86366 5.41436 5.19371C5.78819 5.1735 6.16202 5.15666 6.53922 5.13645C6.56616 4.78283 6.59648 4.4292 6.62679 4.07558C6.25295 4.11936 5.88249 4.16651 5.5154 4.21029Z" fill="#131313"/>
<path d="M8.39844 1.77856C8.72175 1.84255 9.37175 1.97053 9.69506 2.03452C10.0352 2.81586 10.2676 3.63762 10.5977 4.42569C10.8738 3.58373 11.1298 2.73167 11.379 1.8796C11.7023 1.87286 12.3523 1.86276 12.6756 1.85602C12.2176 3.30083 11.7057 4.7288 11.1331 6.13656C10.6886 6.07931 10.2508 5.98501 9.82642 5.8604C9.21347 4.55367 8.80932 3.15938 8.39844 1.77856Z" fill="#131313"/>
<path d="M13.0923 2.85271C13.1866 2.53277 13.2944 2.21282 13.4123 1.89961C14.4563 1.74806 15.8708 1.52578 16.5881 2.50245C16.834 3.66773 16.6824 4.87342 16.706 6.05554C16.2109 5.98818 15.7192 5.92082 15.2275 5.85347C14.3452 6.3216 12.8734 6.1532 12.8936 4.91047C12.7252 3.43535 14.5674 3.41514 15.5677 3.2198C14.9648 2.41152 13.9208 2.83924 13.0923 2.85271ZM14.3115 4.24026C14.2744 4.54337 14.2407 4.84984 14.2071 5.15295C14.5775 5.16305 14.948 5.17316 15.3218 5.1799C15.3555 4.80606 15.3892 4.4356 15.4229 4.06177C15.0524 4.11902 14.6819 4.17964 14.3115 4.24026Z" fill="#131313"/>
<path d="M22.102 3.95433C21.9976 2.12222 24.3281 1.16238 25.7224 2.13906C25.7561 2.39839 25.8201 2.9204 25.8504 3.17973C25.2105 2.97766 24.5537 2.51963 23.8667 2.82947C23.1392 3.52325 23.2908 5.28463 24.5234 5.18023C24.8636 5.07246 25.5405 4.85692 25.8807 4.74914C25.82 5.03878 25.7022 5.61805 25.6449 5.90432C24.1866 6.59136 21.9874 5.77971 22.102 3.95433Z" fill="#131313"/>
<path d="M26.4095 1.76514C26.9147 1.89985 27.43 2.03457 27.9385 2.17938C28.3191 2.0413 28.7031 1.90659 29.0904 1.7685C29.1072 2.09182 29.1476 2.73845 29.1678 3.06176C28.6828 3.08533 28.1979 3.10891 27.7196 3.13248C27.686 4.09906 27.6759 5.06226 27.6691 6.02883C27.3525 6.0322 26.716 6.03557 26.3994 6.03894C26.3826 4.61434 26.3792 3.18974 26.4095 1.76514Z" fill="#131313"/>
<path d="M31.8831 1.85633C32.8126 2.06514 33.7489 2.00115 34.6751 1.81592C36.1266 2.11566 36.1603 4.17341 35.6079 5.25112C35.1499 6.18065 34.0284 6.09309 33.1629 6.04594C33.1696 6.53764 33.1764 7.02598 33.1831 7.51769C32.8598 7.51432 32.2064 7.50758 31.8797 7.50085C31.8797 5.62159 31.8764 3.73896 31.8831 1.85633ZM33.1966 2.84648C33.1831 3.63119 33.1764 4.41926 33.1831 5.20397C33.6007 5.08947 34.1396 5.1703 34.4562 4.80994C34.6919 4.17005 34.5067 3.47964 34.4595 2.81954C34.0385 2.82627 33.6176 2.83638 33.1966 2.84648Z" fill="#131313"/>
<path d="M29.6798 1.8667C29.9795 1.8667 30.579 1.8667 30.8754 1.8667C30.8956 3.25762 30.8956 4.64517 30.8754 6.0361C30.5757 6.0361 29.9795 6.0361 29.6798 6.0361C29.6562 4.64854 29.6562 3.25762 29.6798 1.8667Z" fill="#131313"/>
<path d="M4.69141 8.73999C8.04915 8.59854 11.4136 8.78041 14.7747 8.72315C18.4827 8.60528 22.1874 8.70295 25.8988 8.71642C28.8423 8.72315 31.7857 8.70294 34.7292 8.72652C33.8031 18.9412 32.8702 29.1559 32.0114 39.3773C28.0677 40.4988 24.1205 41.6035 20.1768 42.7182C19.6716 42.927 19.153 42.7317 18.668 42.6003C14.9196 41.5226 11.1711 40.455 7.41599 39.4177C6.43932 29.1997 5.5199 18.9715 4.69141 8.73999ZM19.7726 11.404C19.6346 16.4423 19.7524 21.4806 19.712 26.5189C19.7491 31.1261 19.6447 35.7367 19.7659 40.3439C23.0799 39.5625 26.35 38.6027 29.6202 37.6563C30.442 28.91 31.2435 20.1637 31.9306 11.4073C27.879 11.3669 23.8242 11.4141 19.7726 11.404ZM15.5561 31.0789C13.6095 30.5468 11.6864 29.9339 9.71287 29.5129C9.65562 30.6849 9.67583 31.8569 9.81054 33.0222C12.7002 33.7261 15.5291 34.6522 18.4221 35.3426C18.4423 28.6709 18.412 21.9958 18.4356 15.3241C17.4926 15.3006 16.5496 15.2871 15.6066 15.2669C15.4988 20.5342 15.5999 25.8082 15.5561 31.0789Z" fill="black"/>
<path d="M19.7705 11.4039C23.822 11.414 27.8769 11.3669 31.9285 11.4073C31.2414 20.1637 30.4399 28.91 29.6181 37.6563C26.3479 38.6027 23.0778 39.5625 19.7638 40.3438C19.6425 35.7366 19.747 31.126 19.7099 26.5188C19.7503 21.4805 19.6324 16.4422 19.7705 11.4039ZM20.9055 15.3207C20.919 19.6585 20.9223 23.9997 20.9055 28.3375C22.8858 28.0175 24.8593 27.6504 26.8329 27.2901C26.8026 28.3004 26.7622 29.3108 26.7184 30.3211C24.7954 30.833 22.8757 31.3618 20.9425 31.8367C20.9122 33.0019 20.9089 34.1672 20.919 35.3358C23.3539 34.7903 25.7518 34.1032 28.1699 33.4936C28.473 33.3522 29.0557 33.369 29.0287 32.8942C29.3217 29.7755 29.5036 26.6434 29.7865 23.5181C27.7826 23.6831 25.799 24.0199 23.7951 24.158C23.7783 22.3865 23.7749 20.615 23.8018 18.8435C25.9101 18.8435 28.015 18.8435 30.1233 18.8469C30.258 17.6647 30.3759 16.4793 30.4668 15.2938C27.2808 15.3073 24.0915 15.2635 20.9055 15.3207Z" fill="black"/>
<path d="M15.5549 31.0789C15.5987 25.8082 15.4977 20.5342 15.6055 15.2668C16.5485 15.2871 17.4914 15.3005 18.4344 15.3241C18.4109 21.9958 18.4412 28.6709 18.421 35.3426C15.528 34.6522 12.699 33.726 9.8094 33.0222C9.67468 31.8569 9.65446 30.6849 9.71172 29.5128C11.6853 29.9338 13.6083 30.5468 15.5549 31.0789Z" fill="#EBEBEB"/>
</svg>
