<svg width="66" height="44" viewBox="0 0 66 44" fill="none" xmlns="http://www.w3.org/2000/svg">
<mask id="mask0_508_98" style="mask-type:luminance" maskUnits="userSpaceOnUse" x="0" y="0" width="66" height="44">
<path d="M65.927 0.437744H0.796875V43.2538H65.927V0.437744Z" fill="white"/>
</mask>
<g mask="url(#mask0_508_98)">
<path d="M10.9225 33.5533C10.9225 33.5533 9.29579 34.5055 12.0844 34.8262C15.4605 35.2127 17.1889 35.1581 20.91 34.4502C20.91 34.4502 21.89 35.0664 23.2588 35.5992C14.9085 39.1952 4.36545 35.3947 10.9225 33.5533ZM9.90215 28.8665C9.90215 28.8665 8.0761 30.2234 10.864 30.5146C14.4729 30.8906 17.3228 30.9193 22.2524 29.9678C22.2524 29.9678 22.9312 30.661 24.006 31.0439C13.9209 34.0049 2.68506 31.2736 9.90215 28.8665Z" fill="black"/>
<path d="M18.5013 20.9119C20.5594 23.2896 17.9604 25.4307 17.9604 25.4307C17.9604 25.4307 23.1807 22.7246 20.7852 19.333C18.5452 16.1711 16.8279 14.6027 26.1254 9.18701C26.1247 9.18351 11.5309 12.8446 18.5013 20.9119Z" fill="black"/>
<path d="M29.5361 37.0209C29.5361 37.0209 30.7412 38.02 28.2077 38.7895C23.3903 40.2556 8.16015 40.6967 3.92747 38.8476C2.40599 38.1838 5.26007 37.261 6.15637 37.0678C7.09309 36.8633 7.62697 36.8997 7.62697 36.8997C5.93543 35.7032 -3.30426 39.2488 2.9329 40.2661C19.9479 43.0387 33.9472 39.0233 29.5361 37.0209ZM11.707 24.0084C11.707 24.0084 3.95953 25.8575 8.96235 26.5283C11.0756 26.8126 15.2866 26.7474 19.2112 26.4156C22.4166 26.146 25.6373 25.5656 25.6373 25.5656C25.6373 25.5656 24.5082 26.0543 23.6879 26.6123C15.8205 28.6911 0.620361 27.7249 4.9987 25.5985C8.69751 23.804 11.707 24.0084 11.707 24.0084ZM25.6045 31.8131C33.6022 27.6408 29.9027 23.6289 27.3218 24.1688C26.6904 24.3004 26.4067 24.4166 26.4067 24.4166C26.4067 24.4166 26.643 24.0483 27.0891 23.888C32.1971 22.0865 36.1217 29.2057 25.4407 32.028C25.4442 32.021 25.5676 31.9118 25.6045 31.8131Z" fill="black"/>
<path d="M20.7846 0.437744C20.7846 0.437744 25.2138 4.89075 16.584 11.7327C9.66447 17.2255 15.0046 20.3545 16.5805 23.9323C12.5395 20.2704 9.57735 17.0469 11.563 14.0488C14.4819 9.64273 22.5709 7.50585 20.7846 0.437744Z" fill="black"/>
<path d="M12.49 43.1264C20.165 43.6186 31.9563 42.8526 32.2358 39.202C32.2358 39.202 31.6984 40.5841 25.8934 41.6819C19.3405 42.9219 11.2591 42.7763 6.46681 41.9809C6.46332 41.9851 7.44744 42.798 12.49 43.1264ZM45.6614 36.8718C44.9387 37.5027 44.1727 37.8563 43.4869 37.8563C42.507 37.8563 41.9766 37.2653 41.9766 36.3208C41.9766 35.2958 42.5467 34.548 44.8195 34.548H45.6614V36.8718ZM47.6582 39.1361V32.1269C47.6582 30.3359 46.6421 29.1547 44.1915 29.1547C42.7613 29.1547 41.5089 29.5083 40.4885 29.9606L40.7827 31.2005C41.5849 30.9051 42.6233 30.6278 43.6437 30.6278C45.0558 30.6278 45.6621 31.2006 45.6621 32.3817V33.2681H44.9575C41.527 33.2681 39.9804 34.6026 39.9804 36.6163C39.9804 38.3485 41.0008 39.3336 42.9209 39.3336C44.1553 39.3336 45.0774 38.8232 45.9381 38.0719L46.0942 39.1369H47.6582V39.1361ZM54.3268 39.1361H51.8365L48.8382 29.3332H51.0127L52.875 35.3581L53.289 37.1673C54.2292 34.5487 54.8934 31.8902 55.228 29.3332H57.3447C56.7773 32.561 55.7577 36.1024 54.3268 39.1361ZM63.8899 36.8718C63.1636 37.5027 62.3977 37.8563 61.7119 37.8563C60.7319 37.8563 60.2015 37.2653 60.2015 36.3208C60.2015 35.2958 60.7717 34.548 63.0445 34.548H63.8864L63.8899 36.8718ZM65.8867 39.1361V32.1269C65.8867 30.3359 64.8663 29.1547 62.4158 29.1547C60.9856 29.1547 59.729 29.5083 58.7093 29.9606L59.0035 31.2005C59.8057 30.9051 60.8476 30.6278 61.8645 30.6278C63.2766 30.6278 63.8829 31.2006 63.8829 32.3817V33.2681H63.1783C59.7478 33.2681 58.2012 34.6026 58.2012 36.6163C58.2012 38.3485 59.2216 39.3336 61.1417 39.3336C62.3761 39.3336 63.2982 38.8232 64.1624 38.0719L64.3185 39.1369H65.8867V39.1361ZM37.7871 40.8032C37.217 41.6385 36.2984 42.3023 35.2892 42.6741L34.3016 41.5069C35.0675 41.1092 35.7248 40.4749 36.0293 39.8804C36.2942 39.3518 36.4036 38.6698 36.4036 37.0427V25.8464H38.5273V36.8858C38.5273 39.0633 38.3565 39.9427 37.7871 40.8032Z" fill="black"/>
</g>
</svg>
