<svg width="103" height="33" viewBox="0 0 103 33" fill="none" xmlns="http://www.w3.org/2000/svg">
<path fill-rule="evenodd" clip-rule="evenodd" d="M24.049 16.171C24.049 22.6007 18.9531 27.813 12.667 27.813C6.38102 27.813 1.28516 22.6007 1.28516 16.171C1.28516 9.74116 6.38102 4.52875 12.667 4.52875C18.9531 4.52875 24.049 9.74116 24.049 16.171Z" fill="white"/>
<path d="M1.74773 19.0544C1.74773 19.0544 0.923759 6.91374 12.1106 6.56682L11.3302 5.26603L5.25988 7.30398L3.52545 9.29849L2.00789 12.2037L1.14062 15.5857L1.40078 17.8404" fill="white"/>
<path d="M4.87152 8.22913C2.87455 10.2724 1.6388 13.0936 1.6388 16.2146C1.6388 19.3349 2.87455 22.1564 4.87152 24.1994C6.86947 26.2423 9.62292 27.5029 12.667 27.5029C15.7111 27.5029 18.4648 26.2423 20.4625 24.1994C22.4594 22.1564 23.6954 19.3349 23.6954 16.2146C23.6954 13.0936 22.4594 10.2724 20.4625 8.22913C18.4648 6.18662 15.7111 4.92602 12.667 4.92576C9.62292 4.92602 6.86947 6.18662 4.87152 8.22913ZM4.36604 24.6936C2.24371 22.5231 0.931641 19.5234 0.931641 16.2146C0.931641 12.9052 2.24371 9.90585 4.36604 7.73522C6.48787 5.56419 9.42502 4.21852 12.667 4.21891C15.909 4.21852 18.8464 5.56419 20.9679 7.73522C23.0904 9.90585 24.4026 12.9055 24.4024 16.2146C24.4026 19.5234 23.0904 22.5231 20.9679 24.6936C18.8464 26.8645 15.909 28.21 12.667 28.21C9.42502 28.21 6.48787 26.8645 4.36604 24.6936Z" fill="black"/>
<path fill-rule="evenodd" clip-rule="evenodd" d="M17.4581 16.2359L15.7236 16.4961L13.3822 16.7562L11.8645 16.7996L10.3904 16.7562L9.26293 16.4093L8.26564 15.3254L7.48516 13.114L7.31174 12.637L6.2711 12.2902L5.66405 11.2929L5.23047 9.86204L5.7075 8.60456L6.83476 8.21432L7.74532 8.64801L8.179 9.60188L8.69932 9.51511L8.87269 9.2984L8.69932 8.30108L8.65588 7.04361L8.91603 5.30926L8.90588 4.31857L9.69651 3.05459L11.084 2.05727L13.5123 1.01664L16.2005 1.40688L18.5419 3.09791L19.626 4.83226L20.3197 6.08973L20.4931 9.21164L19.9728 11.9L19.0189 14.2847L18.1084 15.5422" fill="white"/>
<path fill-rule="evenodd" clip-rule="evenodd" d="M15.9814 23.737L9.78085 23.9972V25.0378L10.3012 28.68L10.041 28.9836L5.7051 27.5093L5.40149 26.989L4.96791 22.0894L3.97077 19.1409L3.75391 18.4472L7.2226 16.0625L8.30668 15.6288L9.26053 16.7995L10.0843 17.5367L11.0384 17.8401L11.4719 17.9702L11.9922 20.2249L12.3824 20.7019L13.3798 20.355L12.6859 21.6992L16.4583 23.4769L15.9814 23.737Z" fill="black"/>
<path fill-rule="evenodd" clip-rule="evenodd" d="M5.70673 8.60461L6.834 8.21437L7.74455 8.64806L8.17824 9.60193L8.69856 9.51517L8.82863 8.99485L8.56848 7.99766L8.82863 5.61279L8.61177 4.31199L9.39224 3.40144L11.0833 2.05732L10.6063 1.40693L8.22153 2.57764L7.22424 3.35812L6.66058 4.57215L5.79336 5.74286L5.5332 7.13042L5.70673 8.60461Z" fill="black"/>
<path fill-rule="evenodd" clip-rule="evenodd" d="M7.48547 4.52871C7.48547 4.52871 8.13587 2.92445 10.7375 2.14397C13.339 1.36349 10.8675 1.58021 10.8675 1.58021L8.04923 2.66429L6.96515 3.74824L6.48828 4.61548L7.48547 4.52871Z" fill="#DCD9D8"/>
<path fill-rule="evenodd" clip-rule="evenodd" d="M6.1836 8.30077C6.1836 8.30077 5.27304 5.2655 8.74185 4.83195L8.61177 4.31163L6.22705 4.87539L5.5332 7.13006L5.70673 8.60425L6.1836 8.30077Z" fill="#DCD9D8"/>
<path fill-rule="evenodd" clip-rule="evenodd" d="M7.57031 12.3333L8.13804 11.7832C8.13804 11.7832 8.39429 11.813 8.43758 12.1165C8.48087 12.4201 8.61095 15.1518 10.4754 16.6261C10.6455 16.7606 9.08797 16.4091 9.08797 16.4091L7.70039 14.2412" fill="white"/>
<path fill-rule="evenodd" clip-rule="evenodd" d="M15.549 11.5095C15.549 11.5095 15.6501 10.1952 16.004 10.2963C16.358 10.3973 16.358 10.7513 16.358 10.7513C16.358 10.7513 15.4984 11.3074 15.549 11.5095Z" fill="white"/>
<path d="M19.1494 6.69648C19.1494 6.69648 18.4347 6.84737 18.3689 7.47695C18.3031 8.10667 19.1494 7.60703 19.2794 7.56372" fill="white"/>
<path d="M13.9032 6.74035C13.9032 6.74035 12.9492 6.87043 12.9492 7.47738C12.9492 8.08446 14.0333 8.04114 14.3368 7.78098" fill="white"/>
<path fill-rule="evenodd" clip-rule="evenodd" d="M8.0058 9.55808C8.0058 9.55808 6.35806 8.56076 6.18469 9.51476C6.01127 10.4686 5.62092 11.1625 6.44485 12.1597L5.88119 11.9863L5.36087 10.6422L5.1875 9.34137L6.18469 8.3006L7.31206 8.38737L7.96246 8.90768L8.0058 9.55808Z" fill="white"/>
<path fill-rule="evenodd" clip-rule="evenodd" d="M8.78625 6.82666C8.78625 6.82666 9.52339 3.01104 13.2524 2.27388C16.3224 1.66706 17.9352 2.40396 18.5422 3.09767C18.5422 3.09767 15.8106 -0.154182 13.209 0.843007C10.6074 1.84033 8.69962 3.66144 8.74291 4.83202C8.81674 6.82588 8.78625 6.82666 8.78625 6.82666Z" fill="white"/>
<path fill-rule="evenodd" clip-rule="evenodd" d="M18.8477 3.53141C18.8477 3.53141 17.5903 3.48809 17.5469 4.61549C17.5469 4.61549 17.5467 4.78888 17.6335 4.96228C17.6335 4.96228 18.631 3.83488 19.2379 4.44196" fill="white"/>
<path fill-rule="evenodd" clip-rule="evenodd" d="M13.3386 5.07971C13.3386 5.07971 13.1222 3.34926 11.6468 4.3553C10.6929 5.00569 10.7797 5.91625 10.9531 6.08964C11.1265 6.26317 11.0794 6.61243 11.2114 6.3727C11.3433 6.13296 11.2999 5.35248 11.7769 5.13577C12.2539 4.91893 13.0358 4.67672 13.3386 5.07971Z" fill="white"/>
<path fill-rule="evenodd" clip-rule="evenodd" d="M9.26053 16.7999L5.18478 18.621C5.18478 18.621 6.87581 25.3418 6.00855 27.4231L5.40149 27.2064L5.35815 24.6481L4.23093 19.7919L3.75391 18.4476L8.00308 15.586L9.26053 16.7999Z" fill="white"/>
<path fill-rule="evenodd" clip-rule="evenodd" d="M9.6827 20.5166L10.2609 21.2221V23.8237H9.5671C9.5671 23.8237 9.48047 22.0026 9.48047 21.7858C9.48047 21.5689 9.5671 20.7885 9.5671 20.7885" fill="white"/>
<path fill-rule="evenodd" clip-rule="evenodd" d="M9.69533 24.2141L7.74414 24.3008L8.3079 24.691L9.69533 24.9078" fill="white"/>
<path fill-rule="evenodd" clip-rule="evenodd" d="M16.375 23.7807L17.9793 23.7374L18.3695 27.7265L16.7218 27.9432L16.375 23.7807Z" fill="black"/>
<path fill-rule="evenodd" clip-rule="evenodd" d="M16.8086 23.7808L19.2368 23.6507C19.2368 23.6507 20.234 21.1358 20.234 21.0058C20.234 20.8757 21.1012 17.3636 21.1012 17.3636L19.15 15.3257L18.7598 14.9788L17.7191 16.0194V20.0519L16.8086 23.7808Z" fill="black"/>
<path fill-rule="evenodd" clip-rule="evenodd" d="M17.8925 23.4769L16.375 23.7804L16.5917 24.9946C17.1553 25.2548 18.1093 24.5609 18.1093 24.5609" fill="white"/>
<path fill-rule="evenodd" clip-rule="evenodd" d="M17.9355 15.8889L20.9707 18.1436L21.0575 17.1029L18.7593 14.9783L17.9355 15.8889Z" fill="white"/>
<path fill-rule="evenodd" clip-rule="evenodd" d="M11.2032 32.3225L10.3055 28.6798L9.85899 25.992L9.78516 23.9969L13.8482 23.7806L16.3759 23.7802L16.1461 28.3334L16.5363 31.8455L16.493 32.4959L13.1978 32.7561L11.2032 32.3225Z" fill="white"/>
<path fill-rule="evenodd" clip-rule="evenodd" d="M15.8102 23.7369C15.8102 23.7369 15.5935 28.2464 16.2439 31.455C16.2439 31.455 14.9431 32.2789 13.0352 32.4956L16.6774 32.3655L17.111 32.1054L16.5907 24.9944L16.4606 23.4767" fill="#DCD9D8"/>
<path fill-rule="evenodd" clip-rule="evenodd" d="M18.4426 27.3795L20.1337 26.9025L23.3422 26.7291L23.8192 25.2549L22.952 22.6967L21.9548 22.5666L20.5672 23.0002L19.236 23.6501L18.5293 23.5205L17.9785 23.7369" fill="white"/>
<path fill-rule="evenodd" clip-rule="evenodd" d="M18.4121 26.5122C18.4121 26.5122 19.5394 25.992 19.7129 26.0353L19.236 23.6504L19.7997 23.4337C19.7997 23.4337 20.1899 25.6884 20.1899 25.9485C20.1899 25.9485 22.618 26.0786 22.8348 26.0786C22.8348 26.0786 23.3551 25.0813 23.225 24.0407L23.702 25.4282L23.7454 26.2087L23.0517 27.2493L22.2712 27.4227L20.9704 27.3794L20.5368 26.8158L19.0192 27.0325L18.5422 27.206" fill="#DCD9D8"/>
<path d="M16.7071 23.4337L15.7532 21.0055L14.7559 19.5746C14.7559 19.5746 14.9726 18.9676 15.2762 18.9676C15.5798 18.9676 16.2735 18.9676 16.2735 18.9676L17.2274 19.3145L17.1407 20.9188L16.7071 23.4337Z" fill="white"/>
<path fill-rule="evenodd" clip-rule="evenodd" d="M16.8949 22.6095C16.8949 22.6095 15.6808 20.2682 15.6808 19.9213C15.6808 19.9213 15.8975 19.401 16.2011 19.5311C16.5047 19.6611 17.1551 20.0079 17.1551 20.0079V19.1841L15.6808 18.8805L14.6836 19.0106L16.3746 22.9998L16.7214 23.0432" fill="#DCD9D8"/>
<path d="M11.5923 16.8863L10.3911 16.7557L9.26367 16.4088V16.7991L9.81453 17.4065L11.5489 18.187" fill="white"/>
<path fill-rule="evenodd" clip-rule="evenodd" d="M9.65352 17.0167C9.65352 17.0167 10.9978 17.5805 11.4313 17.4504L11.4745 17.9702L10.2606 17.7106L9.52344 17.1903L9.65352 17.0167Z" fill="#DCD9D8"/>
<path fill-rule="evenodd" clip-rule="evenodd" d="M18.4371 19.1155C17.7013 19.0939 17.0366 19.0065 16.4546 18.8423C16.4942 18.6037 16.4202 18.3696 16.4796 18.1978C16.6418 18.081 16.9137 18.0828 17.1589 18.0553C16.9469 17.9511 16.649 17.9099 16.4043 17.9701C16.3986 17.8045 16.3243 17.7019 16.2793 17.5723C16.6929 17.4247 17.6695 16.4568 18.2188 16.7773C18.4805 16.9298 18.5917 17.8005 18.612 18.2239C18.6289 18.5751 18.5801 18.9295 18.4371 19.1155Z" fill="white"/>
<path d="M18.4371 19.1155C17.7013 19.0939 17.0366 19.0065 16.4546 18.8423C16.4942 18.6037 16.4202 18.3696 16.4796 18.1978C16.6418 18.081 16.9137 18.0828 17.1589 18.0553C16.9469 17.9511 16.649 17.9099 16.4043 17.9701C16.3986 17.8045 16.3243 17.7019 16.2793 17.5723C16.6929 17.4247 17.6695 16.4568 18.2188 16.7773C18.4805 16.9298 18.5917 17.8005 18.612 18.2239C18.6289 18.5751 18.5801 18.9295 18.4371 19.1155Z" stroke="white" stroke-width="2.5"/>
<path fill-rule="evenodd" clip-rule="evenodd" d="M14.9215 17.9127C14.9195 17.9684 14.9172 18.0244 14.9149 18.0806C14.6852 18.2315 14.3144 18.2297 14.0623 18.3565C14.4339 18.3728 14.7265 18.4623 14.9796 18.5885C14.974 18.7287 14.9687 18.8688 14.9632 19.009C14.5421 19.2973 14.1575 19.7265 13.6617 19.9969C13.4273 20.1247 12.6047 20.4537 12.3553 20.3955C12.2142 20.3628 12.2015 20.1877 12.1451 20.0226C12.0249 19.6692 11.7482 19.1066 11.7241 18.5746C11.6934 17.9026 11.6255 16.7763 12.3497 16.9147C12.934 17.0262 13.6135 17.2954 14.0658 17.5425C14.3422 17.6937 14.5021 17.8805 14.9215 17.9127Z" fill="white"/>
<path d="M14.9215 17.9127C14.9195 17.9684 14.9172 18.0244 14.9149 18.0806C14.6852 18.2315 14.3144 18.2297 14.0623 18.3565C14.4339 18.3728 14.7265 18.4623 14.9796 18.5885C14.974 18.7287 14.9687 18.8688 14.9632 19.009C14.5421 19.2973 14.1575 19.7265 13.6617 19.9969C13.4273 20.1247 12.6047 20.4537 12.3553 20.3955C12.2142 20.3628 12.2015 20.1877 12.1451 20.0226C12.0249 19.6692 11.7482 19.1066 11.7241 18.5746C11.6934 17.9026 11.6255 16.7763 12.3497 16.9147C12.934 17.0262 13.6135 17.2954 14.0658 17.5425C14.3422 17.6937 14.5021 17.8805 14.9215 17.9127Z" stroke="white" stroke-width="2.5"/>
<path fill-rule="evenodd" clip-rule="evenodd" d="M15.3388 18.7146C15.2745 18.3486 15.2003 18.2441 15.229 17.9248C16.2053 17.2738 16.3885 19.0428 15.3388 18.7146Z" fill="white"/>
<path d="M15.3388 18.7146C15.2745 18.3486 15.2003 18.2441 15.229 17.9248C16.2053 17.2738 16.3885 19.0428 15.3388 18.7146Z" stroke="white" stroke-width="2.5"/>
<path fill-rule="evenodd" clip-rule="evenodd" d="M16.7516 19.0111C16.7516 19.0111 16.448 18.5774 16.6648 18.4473C16.8817 18.3173 17.0985 18.4475 17.2286 18.2306C17.3587 18.0138 17.2286 17.8837 17.2719 17.6236C17.3152 17.3634 17.5322 17.3199 17.7489 17.2766C17.9656 17.2333 18.5729 17.1466 18.6595 17.3634L18.3993 16.5829L17.879 16.4095L16.2313 17.3634L16.1445 17.8404V18.7943" fill="white"/>
<path fill-rule="evenodd" clip-rule="evenodd" d="M12.1993 20.4421C12.1473 19.7655 12.0921 19.0897 12.0308 18.4137C11.939 17.4043 12.2733 17.5804 13.1483 17.5804C13.2819 17.5804 13.9711 17.7397 14.0204 17.8405C14.2569 18.3235 13.625 18.2162 14.2928 18.5804C14.8566 18.8878 15.8525 18.3938 15.6247 17.7105C15.4972 17.5585 14.9605 17.6631 14.7681 17.5633C14.4294 17.3877 14.0907 17.2121 13.7519 17.0365C13.3209 16.8129 12.3248 16.4869 11.8654 16.7994C10.7011 17.5912 11.9388 19.5696 12.3542 20.3955" fill="white"/>
<path fill-rule="evenodd" clip-rule="evenodd" d="M13.3413 5.07981C12.1595 4.80457 11.5722 5.57438 11.214 6.3728C10.8941 6.29528 11.0214 5.86029 11.1022 5.63864C11.3138 5.05692 12.1662 4.28256 12.8628 4.38753C13.1625 4.43267 13.5681 4.70675 13.3413 5.07981Z" fill="black"/>
<path fill-rule="evenodd" clip-rule="evenodd" d="M19.0979 6.42546C19.1165 6.42625 19.1354 6.4269 19.154 6.42768C19.421 6.98246 19.6522 7.57016 19.9891 8.05991C19.7634 8.58556 18.2801 9.05073 18.303 8.10687C18.6238 7.96665 19.1775 8.07826 19.4619 7.89914C19.2975 7.44789 19.0602 7.06376 19.0979 6.42546Z" fill="black"/>
<path fill-rule="evenodd" clip-rule="evenodd" d="M13.9439 6.43963C14.1973 6.90415 14.2798 7.3922 14.64 7.74329C14.8022 7.90133 15.1176 8.09398 14.9613 8.53352C14.9247 8.63719 14.6577 8.86834 14.5035 8.91374C13.9404 9.07998 12.6283 8.94808 13.0726 8.24604C13.5383 8.26777 14.1643 8.54848 14.5124 8.2104C14.2451 7.78309 13.7685 6.93771 13.9439 6.43963Z" fill="black"/>
<path fill-rule="evenodd" clip-rule="evenodd" d="M18.8855 11.161C18.0376 11.7057 17.0922 12.2979 15.703 12.1606C15.4061 11.9025 15.2929 11.3282 15.5813 10.9489C15.7314 11.207 15.6371 11.6816 16.0555 11.753C16.8438 11.8879 17.7612 11.2708 18.3282 11.0552C18.6798 10.4624 18.2979 10.2444 17.9812 9.86284C17.3327 9.0812 16.4629 8.11236 16.4945 6.94217C16.7566 6.75212 16.7792 7.23225 16.8168 7.31966C17.1554 8.1121 18.0076 9.12555 18.6295 9.80379C18.7822 9.97081 19.0336 10.1311 19.0616 10.2415C19.1423 10.5627 18.8518 10.9474 18.8855 11.161Z" fill="black"/>
<path fill-rule="evenodd" clip-rule="evenodd" d="M7.70813 10.5876C7.44238 10.4359 7.37912 9.7678 7.06712 9.74881C6.62125 9.72175 6.70255 10.6155 6.70433 11.1382C6.39742 10.8596 6.34345 10.0017 6.56892 9.5611C6.31196 9.43492 6.19722 9.70028 6.05469 9.79381C6.23787 8.4631 8.00131 9.17659 7.70813 10.5876Z" fill="black"/>
<path fill-rule="evenodd" clip-rule="evenodd" d="M19.4267 11.715C19.0321 12.4663 18.4738 13.2936 17.3157 13.3176C17.2921 13.075 17.2741 12.7059 17.317 12.5598C18.2023 12.4747 18.7489 12.0241 19.4267 11.715Z" fill="black"/>
<path fill-rule="evenodd" clip-rule="evenodd" d="M13.8789 12.2022C14.6175 12.5906 15.9751 12.6323 16.979 12.6029C17.0329 12.8229 17.0316 13.0946 17.0336 13.3629C15.7431 13.4273 14.2173 13.1079 13.8789 12.2022Z" fill="black"/>
<path fill-rule="evenodd" clip-rule="evenodd" d="M13.7355 12.9263C14.2463 14.2088 16.0019 14.0611 17.4823 14.0258C17.4171 14.1923 17.2758 14.3889 17.1002 14.4601C16.6258 14.6531 15.3174 14.7996 14.6588 14.4498C14.2411 14.2278 13.9727 13.7261 13.7439 13.432C13.6334 13.2899 13.0831 12.9271 13.7355 12.9263Z" fill="black"/>
<path fill-rule="evenodd" clip-rule="evenodd" d="M18.8255 20.0008C18.2261 21.0274 17.6526 22.0818 16.9414 22.9873C17.2395 22.1107 17.3672 20.6435 17.4122 19.525C18.0359 19.2331 18.57 19.5906 18.8255 20.0008Z" fill="white"/>
<path fill-rule="evenodd" clip-rule="evenodd" d="M22.0512 23.6903C21.3801 23.8246 20.9086 24.4768 20.2539 24.435C20.6137 23.9277 21.2442 23.7139 22.0512 23.6903Z" fill="black"/>
<path fill-rule="evenodd" clip-rule="evenodd" d="M22.3458 24.7407C21.7988 24.7985 21.1564 24.887 20.6016 24.8414C20.8642 24.4402 21.8761 24.5786 22.3458 24.7407Z" fill="black"/>
<path fill-rule="evenodd" clip-rule="evenodd" d="M22.5374 25.6459C21.9226 25.6592 21.1585 25.6469 20.5742 25.5979C20.9198 25.2267 22.1387 25.4601 22.5374 25.6459Z" fill="black"/>
<path fill-rule="evenodd" clip-rule="evenodd" d="M17.6672 28.1239C17.7554 28.896 18.0615 29.6783 18.0231 30.5238C17.6832 30.6384 17.488 30.7386 17.0325 30.738C17.0004 30.0194 16.9043 28.9209 16.933 28.2359C17.157 28.2508 17.4873 28.0759 17.6672 28.1239Z" fill="#DCD9D8"/>
<path fill-rule="evenodd" clip-rule="evenodd" d="M16.6758 16.7459C16.3671 16.9474 16.1042 17.199 15.8078 17.4141C15.1503 17.4466 14.7916 17.3686 14.3086 16.9911C14.3165 16.9608 14.365 16.9743 14.3669 16.9371C15.0706 17.2507 15.9652 16.8094 16.6758 16.7459Z" fill="white"/>
<path fill-rule="evenodd" clip-rule="evenodd" d="M12.9805 21.5426C13.1738 20.7047 13.9314 20.2708 14.6194 19.8094C15.3295 20.7106 15.7614 21.8696 16.2369 22.988C15.1133 22.6493 13.9652 22.0997 12.9805 21.5426Z" fill="white"/>
<path fill-rule="evenodd" clip-rule="evenodd" d="M16.9346 28.2356C16.9058 28.9206 17.002 30.0191 17.0341 30.7377C17.4895 30.7383 17.6847 30.638 18.0246 30.5234C18.063 29.6779 17.7569 28.8956 17.6687 28.1236C17.4888 28.0756 17.1586 28.2504 16.9346 28.2356ZM9.84342 24.3399C10.1437 27.1005 10.5787 29.4212 11.3764 31.8659C13.147 32.4035 15.2814 32.4503 16.8464 31.9652C16.559 30.5855 16.6846 28.9057 16.5166 27.4333C16.3901 26.3266 16.4546 25.2131 16.2811 24.084C14.3848 23.6895 11.7044 23.9918 9.84342 24.3399ZM16.7294 24.1013C16.7134 25.287 16.7825 26.4565 16.8731 27.6436C17.3283 27.5753 17.6373 27.5297 18.0603 27.4369C17.9229 26.2941 17.9398 25.0081 17.66 23.9971C17.3367 24.0002 17.0519 23.9933 16.7294 24.1013ZM19.039 23.9102C18.8229 23.8607 18.5714 23.9083 18.3649 23.9123C18.462 24.8788 18.6974 25.9453 18.7803 26.9598C19.1051 26.9699 19.2786 26.8167 19.5458 26.7652C19.5601 25.8747 19.468 24.6477 19.039 23.9102ZM22.5361 27.1053C23.2131 26.9409 23.6389 26.1116 23.4495 25.26C23.3224 24.6877 23.096 23.6099 22.8538 23.2438C22.6749 22.973 22.1895 22.6184 21.802 22.8666C21.1717 23.2702 20.0612 23.3874 19.6015 23.876C19.832 24.6435 19.9035 25.6976 19.9986 26.6701C20.7861 26.7192 21.7551 26.4534 22.41 26.7354C21.9528 26.8835 21.3595 26.8847 20.9644 27.1005C21.2873 27.2565 22.0432 27.225 22.5361 27.1053ZM16.2398 22.9878C15.7643 21.8694 15.3324 20.7104 14.6223 19.8092C13.9343 20.2706 13.1767 20.7045 12.9834 21.5423C13.9681 22.0995 15.1162 22.6491 16.2398 22.9878ZM17.4121 19.5244C17.3671 20.643 17.2395 22.1102 16.9413 22.9868C17.6525 22.0813 18.226 21.0269 18.8254 20.0002C18.5699 19.5901 18.0358 19.2325 17.4121 19.5244ZM16.0832 19.0523C15.8138 19.0232 15.5851 19.362 15.2348 19.2155C15.1546 19.3042 15.0816 19.4003 14.9998 19.487C15.7735 20.4194 16.1251 21.7423 16.7227 22.8381C17.0433 21.7855 17.0064 20.6323 17.077 19.4835C16.6364 19.5114 16.392 19.085 16.0832 19.0523ZM15.2287 17.9245C15.2 18.2438 15.2742 18.3483 15.3385 18.7143C16.3882 19.0425 16.205 17.2735 15.2287 17.9245ZM14.0646 17.5423C13.6123 17.2951 12.9328 17.026 12.3486 16.9145C11.6244 16.776 11.6922 17.9023 11.723 18.5743C11.7471 19.1064 12.0238 19.669 12.1439 20.0224C12.2003 20.1874 12.213 20.3625 12.3541 20.3953C12.6035 20.4534 13.4262 20.1245 13.6606 19.9966C14.1563 19.7263 14.541 19.2971 14.9621 19.0088C14.9675 18.8686 14.9729 18.7285 14.9784 18.5883C14.7253 18.4621 14.4328 18.3726 14.0611 18.3563C14.3132 18.2295 14.6841 18.2313 14.9138 18.0804C14.916 18.0242 14.9183 17.9682 14.9203 17.9125C14.5009 17.8802 14.3411 17.6934 14.0646 17.5423ZM9.74423 16.7575C9.36882 17.1387 10.7972 17.6582 11.2519 17.6862C11.2494 17.445 11.3894 17.2176 11.3612 17.0446C10.821 16.9498 10.1112 17.0123 9.74423 16.7575ZM14.3688 16.9365C14.3669 16.9737 14.3184 16.9602 14.3105 16.9905C14.7935 17.368 15.1522 17.446 15.8097 17.4135C16.1061 17.1984 16.369 16.9468 16.6777 16.7453C15.967 16.8088 15.0725 17.2501 14.3688 16.9365ZM18.6135 18.2236C18.5932 17.8002 18.482 16.9295 18.2203 16.777C17.671 16.4564 16.6945 17.4244 16.2808 17.5721C16.3258 17.7016 16.4001 17.8043 16.4058 17.9699C16.6505 17.9096 16.9484 17.9509 17.1604 18.0551C16.9152 18.0825 16.6433 18.0807 16.4811 18.1975C16.4217 18.3693 16.4957 18.6035 16.4561 18.842C17.0381 19.0062 17.7028 19.0936 18.4386 19.1152C18.5816 18.9292 18.6304 18.5749 18.6135 18.2236ZM9.11223 17.1262C8.99434 17.0421 8.19685 16.0045 8.08759 16.0475C6.64453 16.6166 5.2952 17.6007 4.08943 18.5314C5.23906 20.9983 5.70313 24.0205 5.78514 26.9335C7.10209 27.5494 8.25883 28.4374 10.0459 28.5301C9.8391 27.067 9.65033 25.7616 9.53294 24.3841C9.08392 24.1948 8.43972 24.3927 8.01951 24.3254C8.01594 23.819 8.66127 24.1036 8.71502 23.7631C8.75552 23.5055 8.35995 23.486 8.48876 23.0804C8.81726 23.1998 8.98977 23.4636 9.34011 23.5626C9.66024 22.8623 9.33564 21.6231 9.38178 21.0378C9.39052 20.9279 9.43666 20.4289 9.68285 20.5164C9.90073 20.5939 9.6704 21.8435 9.69428 22.3975C9.71603 22.9079 9.63264 23.4018 9.83935 23.7222C11.5662 23.4872 13.321 23.3353 15.1894 23.284C14.7784 23.1076 14.2901 22.9407 13.7547 22.6389C13.4645 22.4753 12.5496 22.1349 12.4658 21.8592C12.3322 21.4199 12.8164 21.186 12.8993 20.8094C12.0276 21.2848 11.8575 20.3537 11.6513 19.6941C11.4645 19.0966 11.3581 18.6503 11.3123 18.3057C10.5614 17.9477 9.75855 17.5852 9.11223 17.1262ZM17.8509 16.1731C19.0532 15.5901 19.2699 18.352 18.7986 19.2418C18.8715 19.5071 19.122 19.6087 19.2242 19.8473C18.5533 21.0492 17.8081 22.1712 17.1235 23.3589C17.6327 23.0419 18.3601 23.3022 18.9594 23.0649C19.1784 22.9783 19.337 22.4768 19.5029 22.0757C19.9591 20.972 20.438 19.5805 20.6511 18.5272C20.6992 18.2873 20.8303 17.7643 20.8009 17.5507C20.7485 17.1683 20.2296 16.8847 19.9657 16.6483C19.4795 16.2114 19.1732 15.8271 18.6661 15.4186C18.4604 15.7222 18.0191 15.9262 17.8509 16.1731ZM6.36252 5.51073C5.78961 6.14109 5.90953 7.32221 5.97889 8.16252C7.01444 7.51109 8.38891 8.21404 8.37595 9.32205C8.87036 9.30891 8.56065 8.70457 8.47122 8.31524C8.17896 7.04358 8.9636 5.66201 8.5068 4.4991C7.61987 4.56635 6.89121 4.92862 6.36252 5.51073ZM10.4618 1.85211C9.16482 2.21972 7.50259 3.16214 6.96963 4.32726C7.38232 4.2673 7.6688 4.05917 8.07591 4.03341C8.22977 4.0234 8.43134 4.09793 8.60817 4.05397C8.96056 3.96655 9.25796 3.17645 9.5238 2.88247C9.78294 2.59539 10.0944 2.47272 10.3076 2.211C10.4445 2.14492 10.647 2.14948 10.6548 1.94382C10.5954 1.88034 10.5329 1.83195 10.4618 1.85211ZM17.2133 2.19786C15.8671 1.43833 13.5885 0.86702 12.1565 1.5809C11.0011 2.15702 9.4392 3.11024 8.90669 4.31816C9.40414 5.4838 8.75934 6.55188 8.71818 7.73534C8.69632 8.36506 9.01467 8.91477 9.03906 9.60029C8.86884 9.88113 8.34877 9.91573 7.98876 9.89648C7.86758 9.29005 7.65543 8.60844 7.03096 8.54002C6.14733 8.44337 5.50125 9.17467 5.46111 9.93889C5.4136 10.8376 6.15139 12.3271 7.19711 12.2237C7.60107 12.1838 7.70031 11.7789 8.14044 11.783C8.379 12.259 7.77246 12.4084 7.71006 12.7489C7.6938 12.8368 7.76036 13.1805 7.79908 13.3416C7.98902 14.1264 8.41244 15.1421 8.8292 15.7395C9.35816 16.4974 10.3974 16.6116 11.5154 16.6858C11.7151 16.2557 12.4507 16.2911 12.93 16.4036C12.3556 16.1761 11.8215 15.6245 11.379 15.1363C10.8706 14.5762 10.3556 13.9754 10.3296 13.2433C11.2903 14.5761 12.084 15.74 13.8309 16.3263C15.1528 16.7696 16.6965 16.1231 17.7122 15.4099C18.1337 15.1134 18.3852 14.6431 18.6848 14.2125C19.8057 12.6002 20.3287 10.2988 20.2138 8.06822C20.1664 7.1483 20.1685 6.23149 19.8598 5.61258C19.5372 4.96543 18.4461 4.38645 17.8074 4.97181C17.689 4.34248 18.3385 3.95329 19.1014 4.17975C18.5574 3.47771 17.9865 2.63415 17.2133 2.19786ZM19.7214 22.9543C20.7734 22.4313 22.7389 21.5467 23.3984 22.9562C23.6417 23.4758 23.9273 24.354 24.0533 24.8904C24.2314 25.647 23.8603 27.2374 23.0825 27.4913C22.3956 27.7155 21.594 27.7019 20.7666 27.5357C20.6692 27.4546 20.5607 27.3133 20.4848 27.1661C19.894 27.1432 19.3408 27.1978 18.8741 27.4407C18.9183 27.8776 18.6227 27.9477 18.3457 28.0377C18.1403 28.8521 18.7566 29.9157 18.6091 30.6583C18.5039 31.1874 17.8529 31.2692 17.3745 31.3682C17.3589 31.6622 17.3955 31.9076 17.4281 32.1563C17.3187 32.5594 16.828 32.7889 16.3631 32.8451C14.8335 33.029 12.5111 33.1116 11.0398 32.5826C10.6292 31.5755 10.3058 30.3507 9.96383 29.2008C8.5289 29.354 7.36834 28.5816 6.27426 28.0756C5.89546 27.9 5.37143 27.8032 5.22992 27.5017C5.09272 27.2098 5.14886 26.6503 5.11482 26.1218C5.02819 24.772 4.95401 23.47 4.59755 22.0879C4.4375 21.4677 4.15853 20.9205 3.96392 20.3229C3.78405 19.769 3.46977 19.0845 3.38781 18.5322C3.26628 17.7136 4.03709 17.6681 4.52997 17.3133C5.2919 16.7648 5.88997 16.4615 6.71515 15.9664C6.95956 15.8198 7.6966 15.4487 7.78044 15.2777C7.94709 14.9389 7.49437 14.4611 7.37333 14.1955C7.18186 13.7754 7.08201 13.4186 7.05458 13.0042C6.36236 12.8948 5.83762 12.4829 5.52066 12.0183C4.99633 11.2496 4.63271 9.82728 5.08636 8.74541C5.12194 8.66021 5.29937 8.49266 5.32554 8.3618C5.37717 8.10412 5.22838 7.76149 5.21913 7.48741C5.17147 6.08125 5.45705 4.86969 6.40368 4.44563C6.78797 2.91473 8.1634 2.40573 9.45927 1.6449C9.94367 1.36054 10.4776 1.17882 11.0291 0.975899C13.0074 0.247845 16.0426 0.384949 17.6845 1.62669C18.3807 2.15325 19.4935 3.26503 19.8915 4.06997C20.9428 6.19507 20.8682 9.74663 20.1328 12.3317C20.034 12.6787 19.8906 13.1889 19.6904 13.6058C19.5509 13.8969 19.1171 14.4794 19.1697 14.7365C19.224 15.0022 20.1589 15.7121 20.3593 15.9054C20.7203 16.2536 21.4061 16.7158 21.4616 17.1552C21.5213 17.6228 21.2556 18.2625 21.1209 18.7138C20.6708 20.2197 20.2317 21.6117 19.7214 22.9543Z" fill="black"/>
<path fill-rule="evenodd" clip-rule="evenodd" d="M12.7013 12.5301C12.7584 12.4541 13.0722 12.3388 13.5112 12.5501C13.5112 12.5501 12.9909 12.6369 13.0342 13.5044L12.8173 13.4609C12.8173 13.4609 12.5933 12.6744 12.7013 12.5301Z" fill="white"/>
<path fill-rule="evenodd" clip-rule="evenodd" d="M16.5043 19.9862C16.5043 20.1179 16.3975 20.2246 16.2658 20.2246C16.1341 20.2246 16.0273 20.1179 16.0273 19.9862C16.0273 19.8546 16.1341 19.7476 16.2658 19.7476C16.3975 19.7476 16.5043 19.8546 16.5043 19.9862Z" fill="#1D1919"/>
<path fill-rule="evenodd" clip-rule="evenodd" d="M16.7426 21.0924C16.7426 21.2241 16.6358 21.3308 16.5041 21.3308C16.3724 21.3308 16.2656 21.2241 16.2656 21.0924C16.2656 20.9607 16.3724 20.8538 16.5041 20.8538C16.6358 20.8538 16.7426 20.9607 16.7426 21.0924Z" fill="#1D1919"/>
<path d="M37.7113 9.40985H40.5582V18.9086C40.5582 19.7866 40.3609 20.5494 39.9662 21.1968C39.576 21.8443 39.0327 22.3431 38.3365 22.6935C37.6403 23.0438 36.831 23.219 35.9086 23.219C35.0882 23.219 34.3432 23.0748 33.6736 22.7866C33.0084 22.4939 32.4807 22.0505 32.0905 21.4562C31.7003 20.8576 31.5074 20.1059 31.5118 19.2013H34.3787C34.3876 19.5605 34.4608 19.8687 34.5982 20.1259C34.7401 20.3786 34.933 20.5738 35.1769 20.7112C35.4253 20.8443 35.7179 20.9108 36.055 20.9108C36.4097 20.9108 36.7091 20.8354 36.953 20.6846C37.2013 20.5294 37.3898 20.3033 37.5184 20.0061C37.647 19.709 37.7113 19.3432 37.7113 18.9086V9.40985Z" fill="black"/>
<path d="M47.5426 23.2323C46.4916 23.2323 45.587 23.0194 44.8287 22.5937C44.0748 22.1635 43.4939 21.556 43.0859 20.7711C42.6779 19.9818 42.4739 19.0483 42.4739 17.9707C42.4739 16.9197 42.6779 15.9973 43.0859 15.2036C43.4939 14.4098 44.0682 13.7912 44.8087 13.3477C45.5537 12.9043 46.4273 12.6825 47.4295 12.6825C48.1036 12.6825 48.7311 12.7912 49.312 13.0085C49.8973 13.2213 50.4073 13.5428 50.8419 13.973C51.2809 14.4031 51.6224 14.9441 51.8663 15.596C52.1102 16.2435 52.2321 17.0018 52.2321 17.8709V18.6492H43.6047V16.8931H49.5647C49.5647 16.4851 49.4761 16.1237 49.2987 15.8089C49.1213 15.494 48.8752 15.2479 48.5603 15.0705C48.2499 14.8887 47.8885 14.7978 47.4761 14.7978C47.0459 14.7978 46.6646 14.8976 46.332 15.0971C46.0038 15.2922 45.7466 15.5561 45.5604 15.8887C45.3741 16.2168 45.2788 16.5827 45.2743 16.9862V18.6558C45.2743 19.1614 45.3675 19.5982 45.5537 19.9662C45.7444 20.3343 46.0127 20.6181 46.3586 20.8177C46.7045 21.0172 47.1147 21.117 47.5892 21.117C47.904 21.117 48.1923 21.0726 48.4539 20.984C48.7155 20.8953 48.9395 20.7622 49.1257 20.5849C49.312 20.4075 49.4539 20.1902 49.5514 19.933L52.1722 20.1059C52.0392 20.7356 51.7665 21.2855 51.3541 21.7556C50.9461 22.2212 50.4184 22.5848 49.771 22.8465C49.1279 23.1037 48.3852 23.2323 47.5426 23.2323Z" fill="black"/>
<path d="M56.915 17.1259V23.0327H54.0813V12.8156H56.7819V14.6182H56.9017C57.1278 14.024 57.507 13.5539 58.0391 13.208C58.5713 12.8577 59.2165 12.6825 59.9748 12.6825C60.6843 12.6825 61.3029 12.8377 61.8306 13.1482C62.3584 13.4586 62.7685 13.902 63.0612 14.4785C63.3539 15.0506 63.5002 15.7335 63.5002 16.5273V23.0327H60.6666V17.0328C60.671 16.4075 60.5114 15.9197 60.1877 15.5694C59.8639 15.2146 59.4183 15.0373 58.8506 15.0373C58.4693 15.0373 58.1322 15.1193 57.8396 15.2834C57.5513 15.4475 57.3252 15.6869 57.1611 16.0018C57.0014 16.3122 56.9194 16.6869 56.915 17.1259Z" fill="black"/>
<path d="M68.3012 20.0926L68.3078 16.6936H68.7202L71.9929 12.8156H75.2456L70.8488 17.9507H70.177L68.3012 20.0926ZM65.7336 23.0327V9.40985H68.5672V23.0327H65.7336ZM72.1193 23.0327L69.1127 18.5827L71.0018 16.5805L75.4385 23.0327H72.1193Z" fill="black"/>
<path d="M76.6359 23.0327V12.8156H79.4695V23.0327H76.6359ZM78.0593 11.4985C77.6381 11.4985 77.2766 11.3588 76.9751 11.0794C76.678 10.7956 76.5294 10.4564 76.5294 10.0617C76.5294 9.67149 76.678 9.33668 76.9751 9.05731C77.2766 8.7735 77.6381 8.63159 78.0593 8.63159C78.4806 8.63159 78.8398 8.7735 79.1369 9.05731C79.4385 9.33668 79.5893 9.67149 79.5893 10.0617C79.5893 10.4564 79.4385 10.7956 79.1369 11.0794C78.8398 11.3588 78.4806 11.4985 78.0593 11.4985Z" fill="black"/>
<path d="M84.5731 17.1259V23.0327H81.7394V12.8156H84.4401V14.6182H84.5598C84.786 14.024 85.1651 13.5539 85.6973 13.208C86.2294 12.8577 86.8746 12.6825 87.6329 12.6825C88.3424 12.6825 88.9611 12.8377 89.4888 13.1482C90.0165 13.4586 90.4267 13.902 90.7194 14.4785C91.012 15.0506 91.1584 15.7335 91.1584 16.5273V23.0327H88.3247V17.0328C88.3291 16.4075 88.1695 15.9197 87.8458 15.5694C87.5221 15.2146 87.0764 15.0373 86.5088 15.0373C86.1274 15.0373 85.7904 15.1193 85.4977 15.2834C85.2095 15.4475 84.9833 15.6869 84.8192 16.0018C84.6596 16.3122 84.5775 16.6869 84.5731 17.1259Z" fill="black"/>
<path d="M101.893 15.729L99.2985 15.8887C99.2542 15.667 99.1588 15.4674 99.0125 15.29C98.8661 15.1082 98.6732 14.9641 98.4338 14.8577C98.1987 14.7468 97.9171 14.6914 97.589 14.6914C97.15 14.6914 96.7797 14.7845 96.4781 14.9707C96.1766 15.1526 96.0258 15.3965 96.0258 15.7024C96.0258 15.9463 96.1234 16.1525 96.3185 16.3211C96.5136 16.4896 96.8484 16.6248 97.3229 16.7268L99.1721 17.0993C100.165 17.3033 100.906 17.6315 101.394 18.0838C101.882 18.5361 102.126 19.1303 102.126 19.8665C102.126 20.5361 101.928 21.1236 101.533 21.6292C101.143 22.1347 100.607 22.5294 99.9238 22.8132C99.2453 23.0926 98.4626 23.2323 97.5757 23.2323C96.2232 23.2323 95.1456 22.9507 94.3429 22.3875C93.5447 21.8199 93.0769 21.0483 92.9394 20.0727L95.7265 19.9263C95.8107 20.3387 96.0147 20.6536 96.3384 20.8709C96.6622 21.0837 97.0768 21.1902 97.5823 21.1902C98.079 21.1902 98.4781 21.0948 98.7797 20.9041C99.0856 20.709 99.2408 20.4585 99.2453 20.1525C99.2408 19.8953 99.1322 19.6846 98.9193 19.5206C98.7065 19.3521 98.3783 19.2235 97.9349 19.1348L96.1655 18.7822C95.1677 18.5827 94.425 18.2368 93.9372 17.7445C93.4538 17.2523 93.2121 16.6248 93.2121 15.8621C93.2121 15.2058 93.3895 14.6404 93.7443 14.1659C94.1035 13.6914 94.6068 13.3255 95.2542 13.0683C95.9061 12.8111 96.6688 12.6825 97.5424 12.6825C98.8329 12.6825 99.8484 12.9553 100.589 13.5007C101.334 14.0461 101.769 14.7889 101.893 15.729Z" fill="black"/>
</svg>
