<svg width="91" height="21" viewBox="0 0 91 21" fill="none" xmlns="http://www.w3.org/2000/svg">
<path d="M25.2481 0.838453H29.4392L29.4392 9.16624L37.1682 0.838453H42.2303L34.4741 8.9213L42.584 19.889H37.5493L31.6436 11.7791L29.4392 14.065L29.4391 19.889H25.248L25.2481 0.837891V0.838453Z" fill="black"/>
<path d="M40.3555 12.6769V12.6227C40.3555 8.4316 43.7302 5.02954 48.2751 5.02954C52.7928 5.02954 56.1403 8.377 56.1403 12.5681V12.6226C56.1403 16.8137 52.7655 20.2153 48.2207 20.2153C43.7029 20.2153 40.3555 16.868 40.3555 12.6769ZM52.058 12.6769V12.6227C52.058 10.4726 50.5068 8.59483 48.2207 8.59483C45.853 8.59483 44.4377 10.4182 44.4377 12.5683V12.6228C44.4377 14.7726 45.989 16.6504 48.2751 16.6504C50.6428 16.6504 52.058 14.8271 52.058 12.6769Z" fill="black"/>
<path d="M57.2828 15.7528V8.84024H55.541V5.30225H57.2828L57.2828 1.57373H61.4195V5.30225H64.8485V8.84024H61.4195V15.0726C61.4195 16.0249 61.8276 16.4878 62.753 16.4878C63.5151 16.4878 64.1954 16.2973 64.794 15.9705V19.2908C63.9231 19.8079 62.9162 20.1345 61.5283 20.1345C58.9974 20.1345 57.2828 19.1274 57.2828 15.7528Z" fill="black"/>
<path d="M66.0391 0.0222168H70.1758L70.1758 19.8886H66.0391L66.0391 0.0222168Z" fill="black"/>
<path d="M71.668 0.0222168H76.0223V3.69632H71.668V0.0222168ZM71.7769 5.3019H75.9136L75.9136 19.8891L71.7769 19.8891L71.7769 5.3019Z" fill="black"/>
<path d="M77.4883 5.30147H81.625V7.36982C82.5775 6.14513 83.8023 5.02942 85.8978 5.02942C89.0276 5.02942 90.851 7.09776 90.851 10.4452V19.8887L86.7143 19.8887V11.7514C86.7143 9.79211 85.7888 8.78505 84.2105 8.78505C82.6319 8.78505 81.6252 9.79209 81.6252 11.7514L81.6252 19.8887H77.4885L77.4885 5.30147L77.4883 5.30147Z" fill="black"/>
<path d="M9.62748 0.829224L0.0644531 10.8861V19.8756L9.61383 10.3104L19.1125 0.829224H9.62748Z" fill="black"/>
<path d="M0.0644531 19.8751L9.61382 10.3099L19.1125 19.8751H0.0644531Z" fill="black"/>
<path d="M0.0644531 0.829224H9.62766L0.0644531 10.886V0.829224Z" fill="black"/>
</svg>
