<svg width="111" height="20" viewBox="0 0 111 20" fill="none" xmlns="http://www.w3.org/2000/svg">
<path d="M17.5942 4.65928C17.4839 4.30651 17.2193 4.01988 16.8886 3.84349L10.1638 0.624403C9.98742 0.536209 9.78898 0.51416 9.6126 0.51416C9.43621 0.51416 9.23777 0.51416 9.06138 0.558257L2.33658 3.79939C2.00585 3.95373 1.76332 4.24036 1.67512 4.61519L0.0214832 11.8692C-0.0446624 12.244 0.0435317 12.6188 0.264017 12.9275L4.91626 18.6821C5.18084 18.9467 5.55567 19.1231 5.93049 19.1452H13.3388C13.7357 19.1893 14.1105 19.0129 14.353 18.6821L19.0053 12.9275C19.2258 12.6188 19.314 12.244 19.2699 11.8692L17.5942 4.65928Z" fill="black"/>
<path d="M16.5575 11.5824C16.5355 11.5824 16.5134 11.5824 16.5134 11.5604C16.5134 11.5383 16.4693 11.5383 16.4252 11.5383C16.337 11.5163 16.2488 11.5163 16.1606 11.5163C16.1165 11.5163 16.0724 11.5163 16.0283 11.4942H16.0063C15.7638 11.4722 15.4992 11.4281 15.2566 11.3619C15.1905 11.3399 15.1243 11.2737 15.1023 11.2076L14.9259 11.1635C15.0141 10.5241 14.97 9.86263 14.8377 9.22322C14.6834 8.58381 14.4188 7.96645 14.066 7.41524L14.1983 7.28295V7.2609C14.1983 7.19476 14.2204 7.10656 14.2645 7.06246C14.4629 6.88608 14.6613 6.75378 14.8818 6.62149C14.9259 6.59945 14.97 6.5774 15.0141 6.55535C15.1023 6.51125 15.1684 6.46715 15.2566 6.42306C15.2787 6.40101 15.3007 6.40101 15.3228 6.37896C15.3448 6.35691 15.3228 6.35691 15.3228 6.33486C15.5212 6.18052 15.5653 5.91594 15.411 5.7175C15.3448 5.62931 15.2125 5.56316 15.1023 5.56316C14.9921 5.56316 14.8818 5.60726 14.7936 5.67341L14.7716 5.69546C14.7495 5.7175 14.7275 5.73955 14.7054 5.73955C14.6393 5.8057 14.5731 5.87184 14.529 5.93799C14.507 5.98209 14.4629 6.00413 14.4408 6.02618C14.2865 6.20257 14.0881 6.37896 13.8896 6.51125C13.8455 6.5333 13.8014 6.55535 13.7573 6.55535C13.7353 6.55535 13.6912 6.55535 13.6691 6.5333H13.6471L13.4707 6.64354C13.2943 6.46715 13.0959 6.29077 12.9195 6.11438C12.1037 5.47497 11.0895 5.0781 10.0532 4.96785L10.0311 4.79147V4.81351C9.96499 4.76942 9.94294 4.70327 9.92089 4.63713C9.92089 4.39459 9.92089 4.15206 9.96499 3.88748V3.86543C9.96499 3.82133 9.98704 3.77723 9.98704 3.73314C10.0091 3.64494 10.0091 3.55675 10.0311 3.46855V3.33626C10.0532 3.11578 9.87679 2.89529 9.65631 2.87324C9.52402 2.85119 9.39173 2.91734 9.28148 3.02758C9.19329 3.11578 9.14919 3.22602 9.14919 3.33626V3.44651C9.14919 3.5347 9.17124 3.62289 9.19329 3.71109C9.21534 3.75518 9.21534 3.79928 9.21534 3.84338V3.86543C9.25944 4.10796 9.25944 4.35049 9.25944 4.61508C9.23739 4.68122 9.21534 4.74737 9.14919 4.79147V4.83556L9.12714 5.01195C8.88461 5.034 8.64208 5.0781 8.37749 5.12219C7.34121 5.34268 6.39313 5.89389 5.66553 6.66559L5.53323 6.5774H5.51119C5.48914 6.5774 5.46709 6.59945 5.42299 6.59945C5.37889 6.59945 5.3348 6.5774 5.2907 6.55535C5.09226 6.40101 4.89383 6.22462 4.73949 6.04823C4.71744 6.00413 4.67334 5.98209 4.65129 5.96004C4.58515 5.89389 4.54105 5.82775 4.4749 5.7616C4.45286 5.73955 4.43081 5.73955 4.40876 5.7175C4.38671 5.69546 4.38671 5.69546 4.38671 5.69546C4.29852 5.62931 4.18827 5.58521 4.07803 5.58521C3.94574 5.58521 3.8355 5.62931 3.76935 5.73955C3.63706 5.93799 3.68116 6.20257 3.85755 6.35691C3.87959 6.35691 3.87959 6.37896 3.87959 6.37896C3.87959 6.37896 3.92369 6.42306 3.94574 6.42306C4.01189 6.46715 4.10008 6.51125 4.18827 6.55535C4.23237 6.5774 4.27647 6.59945 4.32057 6.62149C4.54105 6.75378 4.76154 6.88608 4.93792 7.06246C4.98202 7.10656 5.02612 7.19476 5.00407 7.2609V7.23885L5.13636 7.37114C5.11431 7.41524 5.09226 7.43729 5.07022 7.48139C4.38671 8.56176 4.10008 9.84058 4.29852 11.0973L4.12213 11.1414C4.12213 11.1635 4.10008 11.1635 4.10008 11.1635C4.07803 11.2296 4.01189 11.2737 3.94574 11.3178C3.70321 11.384 3.46067 11.4281 3.19609 11.4501C3.15199 11.4501 3.1079 11.4501 3.0638 11.4722C2.9756 11.4722 2.88741 11.4942 2.79922 11.4942C2.77717 11.4942 2.75512 11.5163 2.71102 11.5163C2.68897 11.5163 2.68897 11.5163 2.66693 11.5383C2.42439 11.5824 2.27005 11.8029 2.31415 12.0454C2.35825 12.2439 2.55668 12.3762 2.75512 12.3541C2.79922 12.3541 2.82127 12.3541 2.86536 12.3321C2.88741 12.3321 2.88741 12.3321 2.88741 12.31C2.88741 12.288 2.95356 12.31 2.9756 12.31C3.0638 12.288 3.15199 12.2439 3.21814 12.2218C3.26224 12.1998 3.30633 12.1777 3.35043 12.1777H3.37248C3.61501 12.0895 3.8355 12.0234 4.10008 11.9793H4.12213C4.18827 11.9793 4.25442 12.0013 4.29852 12.0454C4.32057 12.0454 4.32057 12.0675 4.32057 12.0675L4.519 12.0454C4.84973 13.0597 5.46709 13.9637 6.32698 14.6251C6.52542 14.7795 6.70181 14.9117 6.92229 15.022L6.81205 15.1763C6.81205 15.1984 6.8341 15.1984 6.8341 15.1984C6.87819 15.2645 6.87819 15.3527 6.85615 15.4189C6.76795 15.6393 6.63566 15.8598 6.50337 16.0583V16.0803C6.48132 16.1244 6.45927 16.1465 6.41518 16.1906C6.37108 16.2347 6.32698 16.3228 6.26084 16.411C6.23879 16.4331 6.23879 16.4551 6.21674 16.4772C6.21674 16.4772 6.21674 16.4992 6.19469 16.4992C6.08445 16.7197 6.17264 16.9843 6.37108 17.0945C6.41518 17.1166 6.48132 17.1386 6.52542 17.1386C6.70181 17.1386 6.85615 17.0284 6.94434 16.8741C6.94434 16.8741 6.94434 16.852 6.96639 16.852C6.96639 16.83 6.98844 16.8079 7.01049 16.7859C7.03253 16.6977 7.07663 16.6315 7.09868 16.5433L7.14278 16.411C7.20892 16.1685 7.31917 15.948 7.42941 15.7275C7.47351 15.6614 7.53965 15.6173 7.6058 15.5952C7.62784 15.5952 7.62784 15.5952 7.62784 15.5732L7.71604 15.3968C8.3334 15.6393 8.97281 15.7496 9.63426 15.7496C10.0311 15.7496 10.428 15.7055 10.8249 15.5952C11.0674 15.5511 11.3099 15.463 11.5304 15.3968L11.6186 15.5511C11.6407 15.5511 11.6407 15.5511 11.6407 15.5732C11.7068 15.5952 11.773 15.6393 11.8171 15.7055C11.9273 15.926 12.0375 16.1465 12.1037 16.389V16.411L12.1478 16.5433C12.1698 16.6315 12.1919 16.7197 12.236 16.7859C12.258 16.8079 12.258 16.83 12.2801 16.852C12.2801 16.852 12.2801 16.8741 12.3021 16.8741C12.3903 17.0284 12.5447 17.1386 12.7211 17.1386C12.7872 17.1386 12.8313 17.1166 12.8974 17.0945C12.9856 17.0504 13.0738 16.9623 13.0959 16.852C13.1179 16.7418 13.1179 16.6315 13.0738 16.5213C13.0738 16.4992 13.0518 16.4992 13.0518 16.4992C13.0518 16.4772 13.0297 16.4551 13.0077 16.4331C12.9636 16.3449 12.9195 16.2787 12.8533 16.2126C12.8313 16.1685 12.8092 16.1465 12.7652 16.1024V16.0583C12.6108 15.8598 12.5006 15.6393 12.4124 15.4189C12.3903 15.3527 12.3903 15.2645 12.4344 15.1984C12.4344 15.1763 12.4565 15.1763 12.4565 15.1763L12.3903 14.9999C13.5148 14.3164 14.3747 13.2581 14.7716 12.0013L14.948 12.0234C14.97 12.0234 14.97 12.0013 14.97 12.0013C15.0141 11.9572 15.0802 11.9352 15.1464 11.9352H15.1684C15.411 11.9793 15.6535 12.0454 15.874 12.1336H15.896C15.9401 12.1557 15.9842 12.1777 16.0283 12.1777C16.1165 12.2218 16.1827 12.2659 16.2709 12.288C16.2929 12.288 16.315 12.31 16.3591 12.31C16.3811 12.31 16.3811 12.31 16.4032 12.3321C16.4473 12.3541 16.4693 12.3541 16.5134 12.3541C16.7118 12.3541 16.8882 12.2218 16.9544 12.0454C16.9323 11.8029 16.7559 11.6265 16.5575 11.5824ZM10.1855 10.8989L9.59016 11.1855L8.99485 10.8989L8.84051 10.2595L9.25944 9.73034H9.92089L10.3398 10.2595L10.1855 10.8989ZM13.7794 9.46575C13.8896 9.92877 13.9117 10.3918 13.8676 10.8548L11.773 10.2595C11.5745 10.2154 11.4643 10.017 11.5084 9.81853C11.5304 9.75239 11.5525 9.70829 11.5966 9.66419L13.2502 8.16489C13.4928 8.56176 13.6691 9.00273 13.7794 9.46575ZM12.5888 7.34909L10.7808 8.62791C10.6264 8.7161 10.406 8.69406 10.2957 8.53972C10.2516 8.49562 10.2296 8.45152 10.2296 8.38538L10.0973 6.15847C11.0674 6.26872 11.9273 6.68764 12.5888 7.34909ZM8.59798 6.22462L9.03895 6.13643L8.92871 8.34128C8.92871 8.53972 8.75232 8.69406 8.55388 8.69406C8.48774 8.69406 8.44364 8.67201 8.37749 8.64996L6.54747 7.34909C7.12073 6.79788 7.82628 6.40101 8.59798 6.22462ZM5.90806 8.16489L7.53965 9.62009C7.69399 9.75238 7.71604 9.97287 7.58375 10.1272C7.53965 10.1934 7.49555 10.2154 7.40736 10.2375L5.26865 10.8548C5.20251 9.92877 5.42299 8.98069 5.90806 8.16489ZM5.53323 11.8911L7.71604 11.5163C7.89243 11.5163 8.06882 11.6265 8.09086 11.8029C8.11291 11.869 8.11291 11.9572 8.06881 12.0234L7.23097 14.0518C6.45927 13.5447 5.84191 12.773 5.53323 11.8911ZM10.5383 14.6251C10.2296 14.6913 9.92089 14.7354 9.59016 14.7354C9.12714 14.7354 8.64208 14.6472 8.20111 14.5149L9.28148 12.5525C9.39173 12.4203 9.56812 12.3762 9.72245 12.4644C9.7886 12.5085 9.8327 12.5525 9.89884 12.6187L10.9572 14.5369C10.8249 14.559 10.6926 14.581 10.5383 14.6251ZM13.2282 12.7069C12.8974 13.2361 12.4344 13.6991 11.9053 14.0298L11.0454 11.9572C11.0013 11.7809 11.0895 11.6045 11.2438 11.5383C11.3099 11.5163 11.3761 11.4942 11.4422 11.4942L13.6471 11.869C13.5368 12.1777 13.4046 12.4644 13.2282 12.7069Z" fill="white"/>
<path d="M106.824 14.2945C107.133 14.3165 107.463 14.2724 107.75 14.1622C107.926 14.074 108.037 13.8756 108.015 13.6771C107.993 13.4566 107.86 13.2582 107.662 13.1921C107.331 12.9936 106.956 12.8172 106.581 12.707C106.207 12.5747 105.876 12.4204 105.567 12.266C105.281 12.1337 105.038 11.9573 104.795 11.7369C104.575 11.5164 104.421 11.2738 104.31 10.9872C104.178 10.6565 104.134 10.3037 104.134 9.95093C104.112 9.22333 104.443 8.51777 105.016 8.0768C105.611 7.61378 106.405 7.3933 107.419 7.3933C107.904 7.3933 108.411 7.4374 108.897 7.54764C109.271 7.61378 109.646 7.70198 110.021 7.83427L109.602 9.70839C109.293 9.59815 109.007 9.53201 108.698 9.44381C108.345 9.35562 107.97 9.33357 107.618 9.33357C106.868 9.33357 106.493 9.53201 106.493 9.95093C106.493 10.0391 106.515 10.1273 106.537 10.2155C106.581 10.3037 106.648 10.3699 106.736 10.436C106.824 10.5021 106.956 10.5683 107.111 10.6565C107.265 10.7447 107.485 10.8329 107.75 10.9211C108.191 11.0754 108.632 11.2738 109.029 11.4943C109.337 11.6487 109.602 11.8471 109.823 12.1117C110.021 12.3101 110.153 12.5527 110.241 12.8393C110.33 13.148 110.374 13.4566 110.374 13.7653C110.418 14.515 110.065 15.2426 109.426 15.6615C108.808 16.0804 107.926 16.3009 106.78 16.3009C106.14 16.323 105.523 16.2568 104.906 16.1025C104.553 16.0143 104.222 15.904 103.892 15.7938L104.288 13.8535C104.685 14.0079 105.104 14.1401 105.523 14.2283C105.964 14.2504 106.383 14.2945 106.824 14.2945ZM94.6752 11.8692C94.6532 11.2077 94.7855 10.5462 95.0059 9.92888C95.2044 9.39972 95.5131 8.9367 95.9099 8.51777C96.2848 8.14295 96.7037 7.85632 97.1888 7.67993C97.6738 7.48149 98.1809 7.3933 98.688 7.3933C99.8787 7.3933 100.827 7.76812 101.51 8.49573C102.194 9.22333 102.547 10.3037 102.547 11.7148C102.547 11.8471 102.547 12.0014 102.524 12.1778C102.524 12.3542 102.502 12.4865 102.502 12.6188H97.1226C97.1667 13.0818 97.4092 13.5228 97.8061 13.7874C98.2912 14.0961 98.8644 14.2504 99.4377 14.2283C99.8566 14.2283 100.298 14.1842 100.717 14.1181C101.069 14.052 101.422 13.9417 101.753 13.7874L102.084 15.7276C101.929 15.8158 101.753 15.8599 101.576 15.9261C101.334 15.9922 101.091 16.0584 100.849 16.0804C100.584 16.1245 100.32 16.1686 100.011 16.2127C99.7243 16.2348 99.4157 16.2568 99.107 16.2568C98.4235 16.2789 97.762 16.1686 97.1226 15.9261C96.5934 15.7276 96.1304 15.419 95.7336 15.0221C95.3587 14.6252 95.0941 14.1401 94.9178 13.633C94.7634 13.0377 94.6752 12.4424 94.6752 11.8692ZM100.254 10.9652C100.254 10.7667 100.209 10.5683 100.143 10.3699C100.099 10.1714 99.9889 10.0171 99.8787 9.86273C99.7464 9.7084 99.592 9.5761 99.4156 9.48791C99.1952 9.37767 98.9747 9.33357 98.7322 9.33357C98.4896 9.33357 98.2691 9.37767 98.0487 9.48791C97.8723 9.5761 97.6959 9.68635 97.5636 9.84069C97.4313 9.99503 97.321 10.1714 97.2549 10.3699C97.1888 10.5683 97.1447 10.7667 97.1226 10.9652H100.254ZM88.215 5.49713L90.5962 5.1223V7.59174H93.4625V9.5761H90.5962V12.5306C90.5742 12.9495 90.6624 13.3685 90.8608 13.7212C91.0372 14.0079 91.39 14.1622 91.9412 14.1622C92.2058 14.1622 92.4704 14.1401 92.7129 14.0961C92.9775 14.052 93.22 13.9858 93.4625 13.8976L93.7933 15.7497C93.4846 15.882 93.1539 15.9702 92.8232 16.0584C92.4042 16.1466 91.9632 16.1907 91.5223 16.1907C90.9711 16.2127 90.4199 16.1245 89.9127 15.9261C89.5159 15.7717 89.1631 15.5072 88.8985 15.1985C88.6339 14.8678 88.4575 14.4709 88.3473 14.052C88.2371 13.5669 88.193 13.0598 88.215 12.5747V5.49713ZM78.5798 11.8692C78.5577 11.2077 78.69 10.5462 78.9105 9.92888C79.109 9.39972 79.4176 8.9367 79.8145 8.51777C80.1893 8.14295 80.6083 7.85632 81.0933 7.67993C81.5784 7.48149 82.0855 7.3933 82.5926 7.3933C83.7832 7.3933 84.7313 7.76812 85.4148 8.49573C86.0983 9.22333 86.4511 10.3037 86.4511 11.7148C86.4511 11.8471 86.4511 12.0014 86.4291 12.1778C86.407 12.3542 86.407 12.4865 86.407 12.6188H81.0051C81.0492 13.0818 81.2918 13.5228 81.6886 13.7874C82.1737 14.0961 82.747 14.2504 83.3202 14.2283C83.7391 14.2283 84.1801 14.1842 84.599 14.1181C84.9518 14.052 85.3046 13.9417 85.6574 13.7874L85.9881 15.7276C85.8338 15.8158 85.6574 15.8599 85.481 15.9261C85.2385 15.9922 84.9959 16.0584 84.7534 16.0804C84.4888 16.1245 84.2242 16.1686 83.9155 16.2127C83.6289 16.2348 83.3202 16.2568 83.0116 16.2568C82.328 16.2789 81.6666 16.1686 81.0272 15.9261C80.498 15.7276 80.035 15.419 79.6381 15.0221C79.2633 14.6252 78.9987 14.1401 78.8223 13.633C78.6459 13.0377 78.5577 12.4424 78.5798 11.8692ZM84.1581 10.9652C84.1581 10.7667 84.114 10.5683 84.0478 10.3699C84.0037 10.1714 83.8935 10.0171 83.7833 9.86273C83.651 9.7084 83.4966 9.5761 83.3202 9.48791C83.0997 9.37767 82.8793 9.33357 82.6367 9.33357C82.3942 9.33357 82.1737 9.37767 81.9532 9.48791C81.7768 9.5761 81.6225 9.68635 81.4902 9.84069C81.3579 9.99503 81.2477 10.1714 81.1815 10.3699C81.1154 10.5683 81.0713 10.7667 81.0492 10.9652H84.1581ZM69.5399 7.87837C70.047 7.74608 70.5762 7.63583 71.1053 7.54764C71.7668 7.4374 72.4503 7.3933 73.1118 7.3933C73.7071 7.37125 74.3024 7.48149 74.8756 7.67993C75.3166 7.83427 75.7135 8.09885 76.0001 8.45163C76.2868 8.8044 76.4852 9.22333 76.5954 9.6643C76.7277 10.1714 76.7718 10.7006 76.7718 11.2297V15.9702H74.4126V11.5384C74.4126 10.7667 74.3024 10.2376 74.1039 9.90683C73.9055 9.59815 73.5307 9.42176 72.9795 9.42176C72.8031 9.42176 72.6267 9.42176 72.4283 9.44381C72.2298 9.44381 72.0755 9.46586 71.9211 9.48791V15.9702H69.5399V7.87837ZM67.8642 9.70839C67.6437 9.6643 67.4012 9.59815 67.1146 9.55405C66.8059 9.48791 66.4972 9.46586 66.1885 9.46586C66.0121 9.46586 65.8357 9.48791 65.6373 9.50996C65.483 9.53201 65.3286 9.55406 65.1743 9.59815V16.0143H62.7931V8.03271C63.2781 7.85632 63.7852 7.72403 64.2923 7.61378C64.9318 7.45944 65.5932 7.3933 66.2326 7.41535C66.387 7.41535 66.5413 7.4374 66.6956 7.4374C66.872 7.4374 67.0484 7.45944 67.2468 7.50354C67.4232 7.52559 67.5996 7.54764 67.7981 7.59174C67.9524 7.61378 68.1067 7.65788 68.2611 7.72403L67.8642 9.70839ZM53.0696 11.8692C53.0476 11.2077 53.1799 10.5462 53.4004 9.92888C53.5988 9.39972 53.9075 8.9367 54.3044 8.51777C54.6792 8.14295 55.0981 7.85632 55.5832 7.67993C56.0682 7.48149 56.5754 7.3933 57.0825 7.3933C58.2731 7.3933 59.2212 7.76812 59.9047 8.49573C60.5882 9.22333 60.941 10.3037 60.941 11.6928C60.941 11.8251 60.941 11.9794 60.9189 12.1558C60.8969 12.3322 60.8969 12.4645 60.8969 12.5968H55.495C55.5391 13.0598 55.7816 13.5007 56.1785 13.7653C56.6636 14.074 57.2368 14.2283 57.8101 14.2063C58.229 14.2063 58.67 14.1622 59.0889 14.0961C59.4417 14.0299 59.7944 13.9197 60.1252 13.7874L60.4559 15.7276C60.3016 15.8158 60.1252 15.8599 59.9488 15.9261C59.7063 15.9922 59.4637 16.0584 59.2212 16.0804C58.9566 16.1245 58.692 16.1686 58.3833 16.2127C58.0967 16.2348 57.788 16.2568 57.4794 16.2568C56.7958 16.2789 56.1344 16.1686 55.495 15.9261C54.9658 15.7276 54.5028 15.419 54.1059 15.0221C53.7311 14.6252 53.4665 14.1401 53.2901 13.633C53.1578 13.0377 53.0696 12.4645 53.0696 11.8692ZM58.67 10.9652C58.67 10.7667 58.6259 10.5683 58.5597 10.3699C58.5156 10.1714 58.4054 10.0171 58.2951 9.86273C58.1629 9.7084 58.0085 9.5761 57.8321 9.48791C57.6116 9.37767 57.3912 9.33357 57.1486 9.33357C56.9061 9.33357 56.6856 9.37767 56.4651 9.48791C56.2887 9.5761 56.1123 9.68635 55.9801 9.84069C55.8478 9.99503 55.7375 10.1714 55.6714 10.3699C55.6052 10.5683 55.5611 10.7667 55.5391 10.9652H58.67ZM49.2112 11.7369C49.2112 10.1935 48.6379 9.44381 47.5134 9.44381C47.2709 9.44381 47.0283 9.46586 46.7858 9.53201C46.5874 9.5761 46.3889 9.6643 46.2126 9.77454V14.0961C46.3228 14.1181 46.4771 14.1401 46.6535 14.1622C46.8299 14.1842 47.0283 14.1842 47.2488 14.1842C47.8221 14.2283 48.3733 13.9858 48.7261 13.5228C49.0568 12.9936 49.2332 12.3763 49.2112 11.7369ZM51.6365 11.8251C51.6365 12.4424 51.5483 13.0598 51.3278 13.6551C51.1514 14.1842 50.8648 14.6473 50.49 15.0441C50.0931 15.441 49.6301 15.7497 49.123 15.9481C48.5276 16.1686 47.9103 16.2568 47.2709 16.2568C46.9843 16.2568 46.6756 16.2348 46.3669 16.2127C46.0582 16.1907 45.7495 16.1466 45.4409 16.1245C45.1542 16.0804 44.8676 16.0363 44.581 15.9702C44.2943 15.9261 44.0518 15.8599 43.8534 15.7717V3.97578L46.2346 3.60095V7.79017C46.4992 7.67993 46.7858 7.59174 47.0724 7.52559C47.3811 7.45944 47.6898 7.4374 47.9985 7.4374C48.5497 7.4374 49.0789 7.52559 49.586 7.76812C50.027 7.96656 50.4238 8.27524 50.7325 8.65007C51.0632 9.06899 51.3058 9.53201 51.4381 10.0391C51.5703 10.5903 51.6365 11.2077 51.6365 11.8251ZM41.5824 15.7056C41.0752 15.8379 40.5461 15.9481 40.0169 16.0143C39.3555 16.1245 38.672 16.1686 38.0105 16.1686C37.3931 16.1907 36.7978 16.0804 36.2246 15.882C35.7836 15.7056 35.4088 15.441 35.1001 15.0882C34.8135 14.7134 34.615 14.2945 34.5048 13.8315C34.3725 13.3244 34.3284 12.7731 34.3284 12.244V7.59174H36.7096V11.9794C36.7096 12.7511 36.8199 13.3023 37.0183 13.633C37.2168 13.9638 37.5916 14.1401 38.1428 14.1401C38.3192 14.1401 38.4956 14.1401 38.694 14.1181C38.8924 14.0961 39.0468 14.0961 39.2011 14.052V7.59174H41.5824V15.7056ZM27.6918 10.6344C27.9343 10.3699 28.1548 10.1053 28.4194 9.84069C28.6619 9.55405 28.9045 9.28947 29.147 9.02489C29.3895 8.73826 29.61 8.49573 29.8084 8.25319C30.0069 8.01066 30.2053 7.79017 30.3597 7.61378H33.1819C32.6086 8.25319 32.0574 8.8926 31.5282 9.48791C30.977 10.0832 30.4038 10.7006 29.7643 11.3179C30.1171 11.6487 30.4479 11.9794 30.7565 12.3542C31.0873 12.7511 31.418 13.148 31.7487 13.5889C32.0574 14.0079 32.3661 14.4488 32.6307 14.8678C32.8952 15.2867 33.1157 15.6835 33.2921 16.0363H30.5581C30.3817 15.7497 30.1833 15.4631 29.9628 15.1323C29.7423 14.8016 29.4998 14.4709 29.2793 14.1181C29.0367 13.7874 28.7722 13.4566 28.4855 13.148C28.243 12.8613 27.9784 12.5968 27.6918 12.3763V16.0584H25.3105V3.97578L27.6918 3.60095V10.6344Z" fill="black"/>
</svg>
