<svg width="91" height="26" viewBox="0 0 91 26" fill="none" xmlns="http://www.w3.org/2000/svg">
<path fill-rule="evenodd" clip-rule="evenodd" d="M45.9584 0.0796236C45.8955 0.0804157 45.8318 0.0958983 45.7756 0.129857C45.6635 0.197722 45.5928 0.322358 45.5928 0.456383V10.0637C45.5928 10.1581 45.5502 10.2425 45.471 10.2898C45.3916 10.3373 45.2947 10.3373 45.2151 10.2898L43.6918 9.38559C43.4648 9.25072 43.1876 9.25081 42.9606 9.38559L36.8796 13.0025C36.6522 13.1376 36.514 13.3976 36.514 13.6681V20.9019C36.514 21.1721 36.6524 21.4195 36.8796 21.5549L42.9606 25.1718C43.1879 25.307 43.4644 25.307 43.6918 25.1718L49.7728 21.5549C49.9999 21.4195 50.1384 21.1721 50.1384 20.9019V2.86765C50.1384 2.59331 49.9931 2.33586 49.7606 2.20203L46.1412 0.117301C46.0844 0.0846288 46.0214 0.0788996 45.9584 0.0796236ZM6.84009 9.10927C6.72413 9.11408 6.61518 9.13498 6.51106 9.19719L0.430045 12.8141C0.203456 12.9491 0.0644531 13.1949 0.0644531 13.4671L0.0766134 23.1749C0.0766134 23.31 0.14421 23.4354 0.259411 23.5015C0.372324 23.5712 0.512471 23.5712 0.625002 23.5015L4.23218 21.3665C4.46067 21.2266 4.60995 20.9833 4.60995 20.7135V16.1798C4.60995 15.9094 4.74799 15.6612 4.97555 15.5267L6.51103 14.61C6.62564 14.5417 6.74867 14.5095 6.87662 14.5095C7.00195 14.5095 7.13078 14.5417 7.24222 14.61L8.7777 15.5267C9.00525 15.6612 9.14329 15.9094 9.14329 16.1798V20.7135C9.14329 20.9833 9.29407 21.2282 9.52107 21.3665L13.1282 23.5015C13.2415 23.5712 13.3815 23.5712 13.4938 23.5015C13.6058 23.4354 13.6766 23.31 13.6766 23.1749L13.6888 13.4671C13.6888 13.1949 13.5513 12.9491 13.3232 12.8141L7.2422 9.19719C7.13935 9.13498 7.02992 9.11417 6.91317 9.10927H6.84009ZM61.4839 9.19719C61.3569 9.19703 61.2324 9.23015 61.1183 9.29767L55.0373 12.9146C54.8101 13.0497 54.6717 13.2972 54.6717 13.5676V20.8014C54.6717 21.0734 54.8204 21.32 55.0495 21.4544L61.0818 24.996C61.3045 25.1271 61.5765 25.1369 61.8007 25.0084L65.4567 22.9111C65.5727 22.8448 65.6512 22.7209 65.6516 22.5846C65.6524 22.4482 65.5834 22.3259 65.4689 22.2581L59.3513 18.6412C59.2367 18.5738 59.1563 18.4375 59.1563 18.3021V16.0415C59.1563 15.9064 59.2377 15.7825 59.3513 15.715L61.2524 14.5847C61.3655 14.5173 61.5044 14.5173 61.618 14.5847L63.519 15.715C63.6326 15.7825 63.7018 15.9064 63.7018 16.0415V17.8249C63.7018 17.9602 63.771 18.0839 63.8846 18.1514C63.9987 18.219 64.1366 18.2193 64.2502 18.1514L67.894 15.9662C68.1201 15.8308 68.2595 15.5827 68.2595 15.3131V13.5675C68.2595 13.2979 68.1206 13.0498 67.894 12.9144L61.8495 9.29754C61.7357 9.22955 61.6109 9.19735 61.4839 9.19719ZM43.3018 14.5974C43.3335 14.5974 43.3708 14.6054 43.3993 14.6223L45.4832 15.8657C45.5397 15.8994 45.5807 15.9616 45.5807 16.0289V18.5155C45.5807 18.583 45.5401 18.6452 45.4832 18.6788L43.3993 19.9221C43.3425 19.9554 43.2732 19.9554 43.2165 19.9221L41.1326 18.6788C41.0759 18.645 41.0351 18.583 41.0351 18.5155V16.0289C41.0351 15.9616 41.0761 15.8996 41.1326 15.8657L43.2165 14.6225C43.245 14.6057 43.2701 14.5976 43.3018 14.5976V14.5974Z" fill="black"/>
<path fill-rule="evenodd" clip-rule="evenodd" d="M79.7022 9.02136C79.4914 9.02136 79.2864 9.0663 79.105 9.17207L73.3653 12.588C72.9938 12.8084 72.7681 13.225 72.7681 13.6681V20.4874C72.7681 20.9303 72.9938 21.3464 73.3653 21.5674L74.8642 22.4591C75.5924 22.829 75.861 22.8233 76.1925 22.8233C77.2708 22.8233 77.8864 22.1491 77.8864 20.9772V14.2458C77.8864 14.1506 77.8065 14.0825 77.7158 14.0825H76.9968C76.9047 14.0825 76.8262 14.1506 76.8262 14.2458V20.9772C76.8262 21.4966 76.3012 22.019 75.4491 21.58L73.8893 20.6381C73.8342 20.6072 73.7918 20.5526 73.7918 20.4874V13.6681C73.7918 13.6033 73.8337 13.5376 73.8893 13.5048L79.6169 10.1014C79.6705 10.0697 79.7344 10.0697 79.7875 10.1014L85.5151 13.5048C85.5697 13.5386 85.6126 13.6013 85.6126 13.6681V20.4874C85.6126 20.5526 85.5809 20.6193 85.5273 20.6507L79.7875 24.0541C79.7383 24.0842 79.6705 24.0842 79.6169 24.0541L78.1423 23.1499C78.0984 23.1233 78.0385 23.1253 77.9961 23.1499C77.5891 23.3876 77.5125 23.4153 77.1309 23.5517C77.0368 23.5855 76.8939 23.638 77.1796 23.8029L79.105 24.9708C79.2883 25.0802 79.4926 25.1341 79.7022 25.1341C79.9147 25.1341 80.116 25.0802 80.2993 24.9708L86.0391 21.5674C86.4106 21.3448 86.6362 20.9303 86.6362 20.4874V13.6681C86.6362 13.225 86.4106 12.8093 86.0391 12.588L80.2993 9.17207C80.1194 9.0663 79.913 9.02136 79.7022 9.02136ZM25.1071 9.15949C24.9804 9.15949 24.855 9.19244 24.7415 9.25996L18.6605 12.8643C18.4332 12.9993 18.2949 13.2597 18.2949 13.5299V20.7637C18.2949 21.0342 18.4333 21.2814 18.6605 21.4167L24.7415 25.0336C24.9689 25.1689 25.2454 25.1689 25.4727 25.0336L31.5537 21.4167C31.7807 21.2814 31.9193 21.0342 31.9193 20.7637V13.5299C31.9193 13.2593 31.7811 12.9993 31.5537 12.8643L25.4727 9.25996C25.3592 9.19244 25.2338 9.15949 25.1071 9.15949ZM88.2205 9.19727V9.37309H88.6957V10.6666H88.8907V9.37309H89.3782V9.19727H88.2205ZM89.5488 9.19727V10.6666H89.7316V9.80008C89.7316 9.76471 89.7331 9.71002 89.7316 9.63684C89.7292 9.56229 89.7316 9.49731 89.7316 9.46098V9.4232L90.1337 10.6665H90.3287L90.7431 9.4232C90.7431 9.50229 90.7328 9.57865 90.7309 9.64925C90.7301 9.71797 90.7309 9.76958 90.7309 9.79996V10.6665H90.9137V9.19714H90.6456L90.2313 10.4405L89.8291 9.19714L89.5488 9.19727ZM81.2377 13.8942C79.6032 13.8942 78.6298 14.611 78.6298 15.8031C78.6298 17.0963 79.5959 17.4516 81.1645 17.6116C83.0413 17.8009 83.1875 18.0848 83.1875 18.4655C83.1875 19.1259 82.6766 19.4074 81.4692 19.4074C79.9522 19.4074 79.6188 19.0172 79.5072 18.2395C79.4941 18.1561 79.4316 18.0888 79.3488 18.0888H78.6054C78.5138 18.0888 78.4348 18.17 78.4348 18.2646C78.4348 19.26 78.9603 20.4373 81.4692 20.4373C83.2855 20.4373 84.333 19.7026 84.333 18.4153C84.333 17.1392 83.4868 16.7967 81.7251 16.5566C79.9449 16.3139 79.7753 16.1951 79.7753 15.7655C79.7753 15.4108 79.9191 14.9365 81.2377 14.9365C82.4154 14.9365 82.8507 15.1983 83.0291 16.0166C83.0447 16.0935 83.1105 16.1548 83.1875 16.1548H83.9309C83.9767 16.1548 84.021 16.1258 84.0527 16.0919C84.0839 16.0558 84.1059 16.015 84.1015 15.9664C83.9864 14.5571 83.0744 13.8942 81.2377 13.8942ZM61.4713 15.6148C61.447 15.6148 61.4202 15.6148 61.3982 15.6272L60.2283 16.3305C60.1844 16.3562 60.1552 16.4041 60.1552 16.4561V17.8375C60.1552 17.8895 60.1844 17.9372 60.2283 17.9631L61.3982 18.6538C61.4421 18.6799 61.4889 18.6799 61.5323 18.6538L62.7022 17.9631C62.7455 17.9374 62.7753 17.8895 62.7753 17.8375V16.4561C62.7753 16.4041 62.7456 16.3564 62.7022 16.3305L61.5323 15.6272C61.5106 15.6139 61.4956 15.6148 61.4713 15.6148Z" fill="black"/>
</svg>
