<svg width="61" height="33" viewBox="0 0 61 33" fill="none" xmlns="http://www.w3.org/2000/svg">
<mask id="mask0_508_207" style="mask-type:luminance" maskUnits="userSpaceOnUse" x="0" y="0" width="61" height="33">
<path d="M60.7901 0.627197H0.308594V32.1661H60.7901V0.627197Z" fill="white"/>
</mask>
<g mask="url(#mask0_508_207)">
<path fill-rule="evenodd" clip-rule="evenodd" d="M60.794 16.3915C60.794 20.5667 57.6078 24.571 51.9361 27.5234C46.2643 30.4757 38.5722 32.1341 30.5513 32.1341C22.5305 32.1341 14.838 30.4757 9.16656 27.5234C3.4948 24.571 0.308594 20.5667 0.308594 16.3915C0.308594 12.2162 3.4948 8.21222 9.16656 5.25989C14.838 2.30723 22.5305 0.648804 30.5513 0.648804C38.5722 0.648804 46.2646 2.30723 51.9361 5.25989C57.6078 8.2119 60.794 12.2162 60.794 16.3915Z" fill="black"/>
</g>
<path fill-rule="evenodd" clip-rule="evenodd" d="M8.80469 25.7117L12.119 8.93321H19.783C23.097 9.14031 24.7545 10.7971 24.7545 13.6975C24.7545 18.6689 20.8189 21.569 17.2972 21.3616H13.569L12.7406 25.7117H8.80469ZM14.3974 18.2547L15.4332 12.0404H18.1259C19.5759 12.0404 20.6114 12.6617 20.6114 13.9043C20.4047 17.426 18.7472 18.0473 16.8833 18.2544H14.3974V18.2547ZM23.9844 21.3619L27.2987 4.58374H31.2343L30.4059 8.93321H34.134C37.4486 9.14031 38.6913 10.7971 38.2771 12.8688L36.827 21.3616H32.6843L34.1344 13.6975C34.3415 12.6617 34.3415 12.0404 32.8918 12.0404H29.7846L27.9203 21.3616H23.9844V21.3619ZM36.5618 25.7117L39.8761 8.93321H47.5402C50.8545 9.14031 52.5119 10.7971 52.5119 13.6975C52.5119 18.6689 48.576 21.569 45.0546 21.3616H41.3258L40.4974 25.7117H36.5618ZM42.1542 18.2547L43.1901 12.0404H45.8831C47.3331 12.0404 48.3686 12.6617 48.3686 13.9043C48.1618 17.426 46.5044 18.0473 44.6401 18.2544H42.1542V18.2547Z" fill="white"/>
</svg>
