<svg width="106" height="26" viewBox="0 0 106 26" fill="none" xmlns="http://www.w3.org/2000/svg">
<path d="M39.8828 13.0823C39.8828 9.8351 38.9579 8.16801 37.1078 8.0768C36.3716 8.04202 35.6532 8.15931 34.9539 8.43114C34.3959 8.63094 34.0203 8.82896 33.8227 9.02898V16.7798C35.006 17.5232 36.0568 17.8689 36.9733 17.8145C38.912 17.6858 39.8828 16.1101 39.8828 13.0823ZM42.1648 13.217C42.1648 14.8667 41.7783 16.2361 41.0009 17.325C40.1345 18.5575 38.9338 19.1921 37.3988 19.2269C36.2415 19.2637 35.0493 18.9009 33.8225 18.14V25.1846L31.8379 24.4759V8.83966C32.1636 8.43984 32.5828 8.09643 33.0907 7.80498C34.272 7.11593 35.7071 6.76181 37.3965 6.74442L37.4246 6.77252C38.9686 6.75312 40.1581 7.38776 40.9942 8.67443C41.7739 9.85473 42.1648 11.3675 42.1648 13.217ZM54.2937 17.8403C54.2937 20.0531 54.0722 21.5853 53.6294 22.4373C53.1843 23.2892 52.3374 23.9695 51.0868 24.4762C50.0727 24.876 48.9761 25.0934 47.7994 25.1304L47.4713 23.8785C48.6678 23.7157 49.5102 23.5525 49.9988 23.3895C50.9607 23.0635 51.6207 22.5638 51.9834 21.8941C52.2743 21.3487 52.4175 20.3075 52.4175 18.7666V18.2493C51.0605 18.8668 49.6383 19.1732 48.1512 19.1732C47.1739 19.1732 46.312 18.8668 45.5693 18.2493C44.7355 17.5776 44.3187 16.7258 44.3187 15.6934V7.42477L46.3033 6.74442V15.0667C46.3033 15.9556 46.5898 16.6404 47.163 17.1207C47.7361 17.6011 48.4788 17.8316 49.3886 17.814C50.2984 17.7944 51.2732 17.4423 52.3088 16.7532V7.04412H54.2934L54.2937 17.8403ZM62.0408 19.1183C61.8234 19.1367 61.6053 19.1461 61.3872 19.1464C60.2647 19.1464 59.3894 18.8793 58.7643 18.3423C58.141 17.8055 57.8285 17.0645 57.8285 16.1188V8.294H56.4692V7.04435H57.8285V3.72532L59.8109 3.01888V7.04435H62.0408V8.294H59.8109V16.0644C59.8109 16.8101 60.0105 17.3381 60.4099 17.647C60.7529 17.9012 61.2981 18.0468 62.0405 18.0838V19.1183H62.0408ZM74.0569 18.9553H72.0723V11.287C72.0723 10.5068 71.8901 9.8351 71.5274 9.2745C71.1084 8.63964 70.5265 8.32232 69.7794 8.32232C68.8696 8.32232 67.7319 8.80265 66.3662 9.7633V18.9553H64.3818V0.625941L66.3662 0V8.34841C67.6341 7.42455 69.0195 6.96162 70.5243 6.96162C71.5753 6.96162 72.4263 7.31595 73.0778 8.02239C73.7314 8.72861 74.0571 9.60899 74.0571 10.6611L74.0569 18.9553ZM84.605 12.7695C84.605 11.5218 84.3684 10.4916 83.8971 9.67655C83.3368 8.68334 82.4663 8.15931 81.2894 8.10512C79.1136 8.23112 78.0279 9.79162 78.0279 12.7826C78.0279 14.154 78.2538 15.2995 78.7098 16.2189C79.2916 17.3906 80.1646 17.9688 81.3286 17.9491C83.5128 17.9315 84.605 16.2058 84.605 12.7695ZM86.7785 12.7824C86.7785 14.5583 86.3248 16.0363 85.4192 17.2164C84.4223 18.5381 83.0461 19.2008 81.2894 19.2008C79.548 19.2008 78.191 18.5378 77.2117 17.2164C76.3235 16.0363 75.8804 14.5583 75.8804 12.7824C75.8804 11.1133 76.3603 9.70911 77.3202 8.56583C78.3342 7.35297 79.6672 6.74442 81.3155 6.74442C82.9632 6.74442 84.3052 7.35297 85.3388 8.56583C86.2987 9.70911 86.7785 11.1133 86.7785 12.7824ZM98.156 18.9553H96.1714V10.8524C96.1714 9.96355 95.9045 9.27004 95.3703 8.77009C94.8362 8.27237 94.1237 8.03109 93.2358 8.05049C92.2937 8.06788 91.3967 8.37651 90.5457 8.97435V18.9553H88.5611V8.72884C89.7032 7.89663 90.7542 7.35297 91.7139 7.09876C92.6192 6.86194 93.4183 6.74442 94.1066 6.74442C94.5775 6.74442 95.0208 6.78991 95.4376 6.88134C96.2171 7.06174 96.8513 7.39645 97.3396 7.88771C97.8847 8.43114 98.156 9.08295 98.156 9.84603V18.9553Z" fill="black"/>
<path d="M12.2339 0.698948C11.2128 0.703631 10.2377 0.790822 9.37986 0.942903C6.85237 1.39 6.39348 2.32546 6.39348 4.05098V6.32974H12.3662V7.08926H4.1518C2.41602 7.08926 0.895869 8.13375 0.42049 10.1206C-0.127957 12.398 -0.152238 13.8192 0.42049 16.1972C0.845079 17.9673 1.8591 19.2285 3.59489 19.2285H5.64855V16.4969C5.64855 14.5234 7.35426 12.7827 9.37986 12.7827H15.3457C17.0064 12.7827 18.3321 11.414 18.3321 9.74443V4.05076C18.3321 2.43049 16.9666 1.21317 15.3457 0.94268C14.3194 0.771867 13.2551 0.694043 12.2339 0.698948ZM9.00383 2.5315C9.62089 2.5315 10.1246 3.04416 10.1246 3.67434C10.1246 4.30229 9.62067 4.81027 9.00383 4.81027C8.38477 4.81027 7.8831 4.30251 7.8831 3.67434C7.8831 3.04416 8.38477 2.5315 9.00383 2.5315Z" fill="black"/>
<path d="M19.0781 7.08911V9.74407C19.0781 11.8025 17.3347 13.5349 15.3468 13.5349H9.38091C7.74671 13.5349 6.39453 14.9349 6.39453 16.5732V22.2665C6.39453 23.8869 7.80196 24.84 9.38091 25.3047C11.2715 25.8613 13.0846 25.9619 15.3468 25.3047C16.8504 24.869 18.3332 23.9918 18.3332 22.2665V19.9879H12.3673V19.2284H21.3195C23.0555 19.2284 23.7022 18.0162 24.3059 16.197C24.9297 14.3243 24.9032 12.523 24.3059 10.1205C23.8769 8.39072 23.0575 7.08911 21.3195 7.08911H19.0781ZM15.7226 21.5069C16.3416 21.5069 16.8433 22.0147 16.8433 22.6429C16.8433 23.273 16.3416 23.7857 15.7226 23.7857C15.1055 23.7857 14.6018 23.273 14.6018 22.6429C14.6018 22.0149 15.1057 21.5069 15.7226 21.5069Z" fill="black"/>
<path d="M102.018 5.27302H102.366V3.08858H103.19V2.82812H101.193V3.08858H102.018L102.018 5.27302ZM103.499 5.27302H103.796V3.2779L104.441 5.2728H104.772L105.444 3.28459V5.27302H105.768V2.82835H105.339L104.605 4.92292L103.978 2.82835H103.499V5.27302Z" fill="black"/>
</svg>
