<svg width="100" height="35" viewBox="0 0 100 35" fill="none" xmlns="http://www.w3.org/2000/svg">
<path d="M19.3911 20.7077C21.2489 20.7077 22.7549 19.2017 22.7549 17.344C22.7549 15.4862 21.2489 13.9802 19.3911 13.9802C17.5333 13.9802 16.0273 15.4862 16.0273 17.344C16.0273 19.2017 17.5333 20.7077 19.3911 20.7077Z" fill="black"/>
<path fill-rule="evenodd" clip-rule="evenodd" d="M19.394 10.5049C23.9103 10.5049 28.1059 11.1529 31.2693 12.242C35.0807 13.5542 37.4242 15.5431 37.4242 17.3441C37.4242 19.2209 34.9406 21.3339 30.8476 22.69C27.7532 23.7152 23.6812 24.2504 19.394 24.2504C14.9986 24.2504 10.8363 23.748 7.707 22.6787C3.74789 21.3255 1.36328 19.1851 1.36328 17.3441C1.36328 15.5577 3.60078 13.5841 7.35867 12.274C10.5339 11.1669 14.833 10.5049 19.3934 10.5049H19.394Z" stroke="black" stroke-width="1.66272"/>
<path fill-rule="evenodd" clip-rule="evenodd" d="M13.4389 13.9441C15.6952 10.0318 18.3524 6.72112 20.8762 4.52478C23.917 1.87854 26.8107 0.842196 28.3708 1.74182C29.9967 2.6794 30.5863 5.88653 29.7163 10.1096C29.0592 13.3024 27.4879 17.0971 25.3462 20.8109C23.1503 24.6186 20.6358 27.9733 18.1464 30.1493C14.9963 32.903 11.9509 33.8995 10.3561 32.9797C8.80852 32.0879 8.21673 29.1632 8.95912 25.2532C9.58638 21.9496 11.1605 17.8947 13.4381 13.9441L13.4389 13.9441Z" stroke="black" stroke-width="1.66272"/>
<path fill-rule="evenodd" clip-rule="evenodd" d="M13.4468 20.821C11.1842 16.9132 9.64367 12.9568 9.00064 9.67343C8.2266 5.7174 8.77388 2.69272 10.3325 1.79048C11.9568 0.850154 15.0298 1.94094 18.254 4.80376C20.6917 6.96818 23.1949 10.224 25.3428 13.9343C27.5451 17.7384 29.1956 21.5923 29.8377 24.8357C30.6502 28.9401 29.9926 32.0761 28.3992 32.9985C26.8532 33.8935 24.0241 32.9459 21.0075 30.35C18.4587 28.1567 15.7318 24.7677 13.4468 20.821V20.821Z" stroke="black" stroke-width="1.66272"/>
<path fill-rule="evenodd" clip-rule="evenodd" d="M56.732 25.938L52.6091 19.7091C54.6928 19.5252 56.5704 18.0154 56.5704 15.2571C56.5704 12.4503 54.5786 10.6541 51.7845 10.6541H45.6484V25.9264H47.5493V19.8581H50.595L54.4876 25.9264L56.732 25.938ZM51.557 18.1983H47.5502V12.3594H51.557C53.3669 12.3594 54.6028 13.5498 54.6028 15.2677C54.6028 16.9856 53.3659 18.2002 51.557 18.2002V18.1983ZM63.8078 26.2119C65.6177 26.2119 67.1052 25.6167 68.2047 24.5182L67.3801 23.3955C66.509 24.2888 65.2276 24.7921 63.9685 24.7921C61.5876 24.7921 60.1214 23.052 59.9839 20.9692H68.9364V20.5337C68.9364 17.214 66.9668 14.6028 63.623 14.6028C60.463 14.6028 58.1741 17.1908 58.1741 20.3962C58.1741 23.8543 60.5327 26.2032 63.8069 26.2032L63.8078 26.2119ZM67.2436 19.7081H59.9849C60.0768 18.0144 61.2431 16.0207 63.6027 16.0207C66.1219 16.0207 67.2204 18.0589 67.2436 19.7081ZM80.3422 25.9371V18.3348C80.3422 15.6558 78.3969 14.6018 76.0606 14.6018C74.2507 14.6018 72.8319 15.197 71.6414 16.4339L72.4428 17.6244C73.4271 16.5714 74.5043 16.0904 75.8321 16.0904C77.4349 16.0904 78.6263 16.9372 78.6263 18.4257V20.4175C77.733 19.3868 76.4738 18.9058 74.9621 18.9058C73.0845 18.9058 71.0907 20.0739 71.0907 22.5467C71.0907 24.9508 73.0825 26.2109 74.9621 26.2109C76.4506 26.2109 77.7107 25.6844 78.6263 24.6769V25.9351L80.3422 25.9371ZM75.5805 24.975C73.9778 24.975 72.8551 23.9685 72.8551 22.5709C72.8551 21.1511 73.9778 20.1436 75.5805 20.1436C76.7942 20.1436 77.9614 20.6014 78.6263 21.5179V23.6017C77.9623 24.5172 76.7942 24.975 75.5805 24.975ZM88.6462 26.2119C90.6612 26.2119 91.8517 25.3873 92.6995 24.2888L91.5545 23.2358C90.8219 24.2201 89.8831 24.6779 88.7478 24.6779C86.3892 24.6779 84.9249 22.8458 84.9249 20.3962C84.9249 17.9467 86.3902 16.1378 88.7478 16.1378C89.8928 16.1378 90.8316 16.5733 91.5545 17.5798L92.6995 16.5268C91.8526 15.4274 90.6612 14.6038 88.6462 14.6038C85.3488 14.6038 83.1276 17.123 83.1276 20.3972C83.1276 23.6946 85.3488 26.2042 88.6462 26.2042V26.2119ZM97.8987 26.2119C98.9052 26.2119 99.5246 25.9138 99.9601 25.5025L99.4569 24.2201C99.2275 24.4718 98.7794 24.6779 98.2887 24.6779C97.5338 24.6779 97.166 24.0827 97.166 23.2581V16.3884H99.4114V14.8777H97.166V11.8551H95.4481V14.8777H93.616V16.3894H95.4481V23.6259C95.4481 25.2751 96.2727 26.2139 97.8987 26.2139V26.2119Z" fill="black"/>
</svg>
