<svg width="99" height="26" viewBox="0 0 99 26" fill="none" xmlns="http://www.w3.org/2000/svg">
<path d="M32.495 18.2989C32.1953 18.1372 31.9648 17.7908 31.9648 17.3291C31.9648 16.7067 32.4489 16.2021 33.0966 16.2021C33.326 16.2021 33.5345 16.2697 33.6949 16.362C34.8729 17.147 36.0958 17.5395 37.2016 17.5395C38.4011 17.5395 39.093 17.0313 39.093 16.2229V16.1772C39.093 15.2313 37.802 14.9088 36.3706 14.4709C34.5722 13.9629 32.5652 13.2255 32.5652 10.8952V10.8484C32.5652 8.54114 34.4798 7.13444 36.9022 7.13444C38.1944 7.13444 39.5548 7.50407 40.7314 8.126C41.1247 8.33429 41.4001 8.70354 41.4001 9.18673C41.4001 9.83338 40.8934 10.3189 40.2476 10.3189C40.0156 10.3189 39.8774 10.2726 39.6948 10.1798C38.7012 9.67161 37.6865 9.34812 36.8332 9.34812C35.7482 9.34812 35.1252 9.85687 35.1252 10.5494V10.5943C35.1252 11.4943 36.4401 11.8624 37.8709 12.3247C39.6472 12.8788 41.6543 13.6857 41.6543 15.8772V15.9239C41.6543 18.4843 39.6693 19.7517 37.1323 19.7517C35.5877 19.7517 33.9035 19.2689 32.495 18.2989Z" fill="black"/>
<path d="M52.4671 13.4547V13.408C52.4671 11.0561 50.875 9.51024 48.9843 9.51024C47.0927 9.51024 45.4318 11.0789 45.4318 13.408V13.4547C45.4318 15.7847 47.0927 17.3549 48.9843 17.3549C50.8989 17.3549 52.4671 15.8543 52.4671 13.4547ZM42.709 8.54027C42.709 7.75736 43.3081 7.13357 44.094 7.13357C44.8778 7.13357 45.5007 7.75736 45.5007 8.54027V9.37197C46.4005 8.10376 47.669 7.08833 49.6534 7.08833C52.5134 7.08833 55.3051 9.34805 55.3051 13.408V13.4547C55.3051 17.4923 52.5367 19.7756 49.6534 19.7756C47.6235 19.7756 46.3545 18.7594 45.5007 17.6315V21.9429C45.5007 22.7301 44.8778 23.3301 44.094 23.3301C43.3332 23.3301 42.709 22.7301 42.709 21.9429V8.54027Z" fill="black"/>
<path d="M56.3633 8.54174C56.3633 7.75889 56.9613 7.13504 57.746 7.13504C58.5323 7.13504 59.1542 7.75889 59.1542 8.54174V9.2129C59.2935 8.16754 60.9989 7.13504 62.2222 7.13504C63.0983 7.13504 63.6065 7.71131 63.6065 8.5183C63.6065 9.25591 63.1217 9.74122 62.4986 9.85626C60.5146 10.2024 59.1542 11.9385 59.1542 14.3402V18.3648C59.1542 19.1269 58.5323 19.7494 57.746 19.7494C56.9853 19.7494 56.3633 19.1493 56.3633 18.3648V8.54174Z" fill="black"/>
<path d="M64.6602 8.5475C64.6602 7.76337 65.2619 7.13952 66.045 7.13952C66.8291 7.13952 67.4522 7.76337 67.4522 8.5475V18.3672C67.4522 19.1504 66.8291 19.7495 66.045 19.7495C65.2832 19.7495 64.6602 19.1504 64.6602 18.3672V8.5475Z" fill="black"/>
<path d="M68.8613 8.55293C68.8613 7.7688 69.4615 7.14645 70.2446 7.14645C71.0298 7.14645 71.6523 7.7688 71.6523 8.55293V9.12569C72.438 7.99495 73.5666 7.13938 75.4581 7.13938C78.2033 7.13938 79.7961 8.98572 79.7961 11.7997V18.3655C79.7961 19.1494 79.1953 19.75 78.4112 19.75C77.6271 19.75 77.0046 19.1494 77.0046 18.3655V12.6536C77.0046 10.7629 76.0588 9.67782 74.3975 9.67782C72.783 9.67782 71.6523 10.8081 71.6523 12.7012V18.3655C71.6523 19.1494 71.0298 19.75 70.2446 19.75C69.4838 19.75 68.8613 19.1494 68.8613 18.3655V8.55293Z" fill="black"/>
<path d="M87.173 17.3292C85.2565 17.3292 83.6893 15.8293 83.6893 13.4298V13.3845C83.6893 11.0319 85.2799 9.4861 87.173 9.4861C89.065 9.4861 90.7257 11.0552 90.7257 13.3845V13.4298C90.7257 15.7603 89.065 17.3292 87.173 17.3292ZM92.0611 7.10942C91.2781 7.10942 90.655 7.73364 90.655 8.51675V9.34697C89.7545 8.07876 88.4871 7.06391 86.5042 7.06391C83.642 7.06391 80.8516 9.32369 80.8516 13.3845V13.4298C80.8516 17.4673 83.6191 19.7499 86.5042 19.7499C88.5222 19.7499 89.788 18.7459 90.6423 17.6235C90.5024 19.817 89.1596 20.9751 86.804 20.9751C85.3979 20.9751 84.1747 20.6279 83.0657 20.0039C82.9275 19.9364 82.7686 19.8907 82.5602 19.8907C81.9143 19.8907 81.3821 20.4219 81.3821 21.0428C81.3821 21.5738 81.6825 21.9659 82.1684 22.1505C83.6425 22.8659 85.164 23.2351 86.8721 23.2351C89.065 23.2351 90.7725 22.7049 91.8798 21.5971C92.8926 20.5812 93.4465 19.0605 93.4465 17.0063V8.51675C93.4465 7.73364 92.8468 7.10942 92.0611 7.10942Z" fill="black"/>
<path d="M67.4667 3.77809C67.4667 4.5543 66.8362 5.18542 66.059 5.18542C65.2812 5.18542 64.6523 4.5543 64.6523 3.77809C64.6523 2.99976 65.2812 2.37139 66.059 2.37139C66.8362 2.37139 67.4667 2.99976 67.4667 3.77809Z" fill="black"/>
<path d="M23.1278 18.9159C20.0333 23.039 13.4228 21.6473 9.18467 21.8475C9.18467 21.8475 8.43441 21.8892 7.67872 22.0136C7.67872 22.0136 7.96447 21.8917 8.32889 21.7661C11.3055 20.7367 12.7122 20.5299 14.5209 19.6008C17.9193 17.86 21.3015 14.0681 21.9897 10.129C20.6961 13.9175 16.762 17.1782 13.1798 18.5023C10.728 19.407 6.29404 20.2875 6.2934 20.2879C6.29547 20.2911 6.11669 20.1951 6.11419 20.193C3.09876 18.7259 3.01175 12.195 8.48837 10.0897C10.8896 9.16607 13.1863 9.67339 15.7821 9.05555C18.5506 8.39731 21.7571 6.32211 23.0604 3.60903C24.5215 7.94273 26.2766 14.7228 23.1278 18.9159ZM23.1816 2.26612C22.8132 3.14137 22.3636 3.93007 21.8453 4.63552C19.564 2.29414 16.3797 0.835346 12.8601 0.835346C5.93663 0.835346 0.304688 6.46793 0.304688 13.3901C0.304688 17.0189 1.85363 20.2917 4.32313 22.5857L4.59807 22.8293C4.13894 22.4549 4.06833 21.7806 4.44046 21.3211C4.81487 20.8613 5.48977 20.7901 5.94913 21.1624C6.40972 21.5356 6.47989 22.2115 6.10696 22.6719C5.73542 23.1325 5.05929 23.2021 4.59932 22.8303L4.78642 22.9961C6.97083 24.8353 9.78667 25.9463 12.8601 25.9463C19.4778 25.9463 24.9119 20.7963 25.377 14.2961C25.7215 11.1135 24.7815 7.07221 23.1816 2.26612Z" fill="black"/>
<path d="M96.7164 7.9887H96.2778V8.56932H96.7164C96.8583 8.56932 97.0135 8.45471 97.0135 8.28587C97.0135 8.10331 96.8583 7.9887 96.7164 7.9887ZM96.987 9.42612L96.5611 8.77825H96.2778V9.42612H96.0487V7.78605H96.7164C96.9933 7.78605 97.2501 7.98227 97.2501 8.28587C97.2501 8.65008 96.9253 8.77176 96.8312 8.77176L97.2703 9.42612H96.987ZM96.5952 7.38792C95.92 7.38792 95.3799 7.92783 95.3799 8.60319C95.3799 9.271 95.92 9.81797 96.5952 9.81797C97.2629 9.81797 97.8099 9.271 97.8099 8.60319C97.8099 7.92783 97.2629 7.38792 96.5952 7.38792ZM96.5952 10.0342C95.8052 10.0342 95.1641 9.39268 95.1641 8.60319C95.1641 7.80614 95.8052 7.17177 96.5952 7.17177C97.3915 7.17177 98.0263 7.80614 98.0263 8.60319C98.0263 9.39268 97.3915 10.0342 96.5952 10.0342Z" fill="black"/>
</svg>
