<svg width="84" height="27" viewBox="0 0 84 27" fill="none" xmlns="http://www.w3.org/2000/svg">
<path d="M26.1195 7.78508C26.118 7.52512 26.1151 7.2653 26.1079 7.00504C26.0928 6.43891 26.0593 5.86765 25.9587 5.30757C25.8566 4.73878 25.6897 4.20991 25.4266 3.69322C25.1684 3.1858 24.8309 2.72147 24.4282 2.31881C24.0256 1.91615 23.5613 1.57864 23.0537 1.32029C22.5374 1.05755 22.0084 0.890692 21.4402 0.78859C20.8798 0.687664 20.3085 0.654413 19.742 0.639094C19.4818 0.632043 19.222 0.629084 18.9619 0.627473C18.6533 0.625732 18.3444 0.625732 18.0358 0.625732H11.1935H8.35894C8.05007 0.625732 7.74154 0.625732 7.43297 0.627517C7.17285 0.629127 6.91267 0.632087 6.65294 0.639137C6.51132 0.642967 6.36939 0.647928 6.22738 0.654761C5.80139 0.675304 5.37475 0.71295 4.95468 0.788634C4.52847 0.865232 4.12433 0.978214 3.73116 1.14077C3.60011 1.19491 3.47025 1.25462 3.34116 1.32029C2.96043 1.51405 2.60399 1.75233 2.2798 2.02922C2.17174 2.12153 2.06724 2.2181 1.96662 2.31877C1.56387 2.72143 1.22632 3.18576 0.968102 3.69318C0.705058 4.20987 0.53837 4.73874 0.436181 5.30752C0.335646 5.8676 0.302222 6.43887 0.286989 7.005C0.279852 7.26525 0.276849 7.52508 0.275151 7.78503C0.273193 8.09378 0.273454 8.40256 0.273454 8.71122V12.9249V18.388C0.273454 18.6969 0.273149 19.0054 0.275151 19.3144C0.276849 19.5743 0.279852 19.8342 0.286989 20.094C0.302222 20.6604 0.335603 21.2318 0.436181 21.7916C0.53837 22.3602 0.705058 22.8896 0.968102 23.4061C1.22632 23.9137 1.56387 24.3779 1.96662 24.7804C2.36906 25.1832 2.83352 25.5207 3.3412 25.7792C3.8575 26.042 4.38642 26.2086 4.95481 26.3107C5.51485 26.4115 6.08655 26.445 6.65298 26.4602C6.91272 26.4671 7.17289 26.4702 7.43302 26.4717C7.74159 26.4739 8.05011 26.4736 8.35898 26.4736H18.0358C18.3444 26.4736 18.6533 26.4739 18.9619 26.4717C19.2219 26.4702 19.4818 26.4671 19.7419 26.4602C20.3085 26.445 20.8798 26.4115 21.4401 26.3107C22.0084 26.2086 22.5374 26.0419 23.0536 25.7792C23.5613 25.5207 24.0256 25.1832 24.4282 24.7804C24.8308 24.3779 25.1684 23.9137 25.4266 23.4061C25.6896 22.8896 25.8565 22.3603 25.9586 21.7916C26.0593 21.2318 26.0927 20.6604 26.1079 20.094C26.115 19.8342 26.1179 19.5744 26.1194 19.3144C26.1215 19.0054 26.1213 18.6969 26.1213 18.388V8.71122C26.1213 8.40256 26.1215 8.09378 26.1195 7.78508Z" fill="black"/>
<path d="M20.7542 16.5807C20.7536 16.5799 20.753 16.5793 20.7523 16.5786C20.7809 16.4813 20.8104 16.3846 20.8355 16.2848C21.9083 12.0106 19.29 6.95732 14.8593 4.29663C16.8009 6.92877 17.6594 10.1169 16.8966 12.905C16.8286 13.1537 16.7468 13.3923 16.6564 13.6243C16.5583 13.5599 16.4347 13.4867 16.2687 13.3952C16.2687 13.3952 11.8614 10.6739 7.08447 5.86062C6.95913 5.73428 9.6317 9.68051 12.6648 12.885C11.2358 12.083 7.25338 9.18545 4.73226 6.87798C5.042 7.39454 5.41042 7.89195 5.81538 8.37082C7.92074 11.0408 10.6664 14.3352 13.9558 16.8649C11.6446 18.2792 8.37889 18.3892 5.12735 16.8664C4.32312 16.4895 3.56706 16.0347 2.86719 15.518C4.24356 17.7196 6.36336 19.619 8.94337 20.7279C12.0201 22.0501 15.0797 21.9605 17.3585 20.7496L17.3567 20.7522C17.3671 20.7456 17.3804 20.7384 17.3912 20.7318C17.4847 20.6815 17.5776 20.6302 17.6684 20.5761C18.7633 20.0078 20.9259 19.4313 22.0867 21.6898C22.371 22.2425 22.975 19.3133 20.7542 16.5807Z" fill="white"/>
<path d="M35.9296 17.4003C36.1316 19.1935 37.8419 20.3692 40.2171 20.3692C42.4739 20.3692 44.1009 19.1935 44.1009 17.5667C44.1009 16.1652 43.1152 15.3097 40.8465 14.7399L38.6494 14.1817C35.4902 13.3977 34.0648 11.9724 34.0648 9.62097C34.0648 6.72309 36.5946 4.7157 40.1935 4.7157C43.6851 4.7157 46.1674 6.73475 46.2506 9.64482H43.9348C43.7564 7.86327 42.3074 6.77027 40.1341 6.77027C37.9842 6.77027 36.4878 7.87493 36.4878 9.49006C36.4878 10.749 37.4143 11.4975 39.6947 12.0795L41.5237 12.5544C45.063 13.4216 46.5119 14.7993 46.5119 17.2816C46.5119 20.4408 44.0057 22.4244 40.0151 22.4244C36.3096 22.4244 33.7799 20.4525 33.5898 17.4004L35.9296 17.4003Z" fill="black"/>
<path d="M61.2238 22.139H58.8957L56.1759 12.6613H56.1285L53.4206 22.139H51.0928L47.6484 9.72742H49.9049L52.304 19.6923H52.3517L55.0596 9.72742H57.2448L59.9765 19.6923H60.0242L62.4234 9.72742H64.656L61.2238 22.139Z" fill="black"/>
<path d="M66.1602 6.39004C66.1602 5.64212 66.7779 5.03625 67.5262 5.03625C68.2863 5.03625 68.9038 5.64212 68.9038 6.39004C68.9038 7.13848 68.2863 7.75605 67.5262 7.75605C66.7779 7.75605 66.1602 7.13852 66.1602 6.39004ZM66.3979 9.7274H68.6663V22.139H66.3979V9.7274Z" fill="black"/>
<path d="M83.4786 11.5568V9.72745H81.0795V6.75854H78.8227V9.72745H76.9818H74.4865V8.63498C74.4981 7.53031 74.9259 7.06702 75.9474 7.06702C76.2797 7.06702 76.6123 7.10306 76.8856 7.15024V5.36868C76.4817 5.30932 76.1135 5.2738 75.686 5.2738C73.2631 5.2738 72.2417 6.28359 72.2417 8.59946V9.72745H70.5078V11.5568H72.2417V22.1391H74.4982V11.5568H76.9818H78.8227V18.885C78.8227 21.2841 79.7374 22.2101 82.1126 22.2101C82.6233 22.2101 83.2054 22.1746 83.4667 22.1152V20.2626C83.3122 20.2865 82.8608 20.322 82.6115 20.322C81.5545 20.322 81.0796 19.8232 81.0796 18.7069V11.5568H83.4786Z" fill="black"/>
</svg>
