<svg width="73" height="27" viewBox="0 0 73 27" fill="none" xmlns="http://www.w3.org/2000/svg">
<path fill-rule="evenodd" clip-rule="evenodd" d="M24.1684 0.782837H30.0211L15.2428 26.2495L0.367188 0.782837H6.35299L15.2428 16.1142L24.1684 0.782837Z" fill="black"/>
<path fill-rule="evenodd" clip-rule="evenodd" d="M18.6369 0.7771H24.2033L15.2346 16.1405L6.33789 0.7771H11.8173L15.2346 6.69175L18.6369 0.7771Z" fill="black"/>
<path fill-rule="evenodd" clip-rule="evenodd" d="M33.5117 5.80441C33.5117 5.61654 33.616 5.45998 33.8246 5.33472C34.0332 5.20948 34.2512 5.14685 34.4788 5.14685C34.7948 5.14685 34.9907 5.26583 35.0666 5.50382L38.4039 16.6634L41.7222 5.50382C41.8107 5.26585 42.0003 5.14685 42.291 5.14685C42.5312 5.14685 42.7556 5.21573 42.9642 5.35351C43.1728 5.49128 43.277 5.64784 43.277 5.8232C43.277 5.83572 43.2739 5.85451 43.2676 5.87956C43.2612 5.9046 43.2581 5.92966 43.2581 5.9547L39.4089 18.4482C39.2698 18.8114 38.9348 18.993 38.4039 18.993C37.8729 18.993 37.5506 18.8114 37.4368 18.4482L33.5498 5.95471C33.5245 5.87956 33.5117 5.82946 33.5117 5.80441ZM43.4265 15.4233V10.5388C43.4265 10.3885 43.5055 10.257 43.6635 10.1442C43.8215 10.0315 44.0079 9.97515 44.2229 9.97515C44.4251 9.97515 44.6053 10.0346 44.7633 10.1536C44.9213 10.2726 45.0003 10.401 45.0003 10.5388V15.4233C45.0003 15.9869 45.2152 16.4942 45.645 16.945C46.0748 17.3959 46.5868 17.6214 47.1809 17.6214C47.7624 17.6214 48.268 17.3991 48.6978 16.9544C49.1276 16.5098 49.3425 15.9994 49.3425 15.4233V10.5197C49.3425 10.3819 49.4215 10.2567 49.5796 10.1439C49.7376 10.0312 49.924 9.97487 50.1389 9.97487C50.3665 9.97487 50.5529 10.0281 50.6983 10.1346C50.8437 10.241 50.9164 10.3694 50.9164 10.5197V15.4233C50.9164 16.3877 50.5466 17.23 49.8071 17.9502C49.0676 18.6703 48.1922 19.0304 47.1809 19.0304C46.157 19.0304 45.2753 18.6703 44.5358 17.9502C43.7963 17.23 43.4265 16.3877 43.4265 15.4233ZM52.2032 15.3857V13.4131C52.2032 12.4487 52.573 11.6158 53.3125 10.9144C54.052 10.213 54.94 9.86231 55.9766 9.86231C56.9626 9.86231 57.8159 10.1911 58.5365 10.8486C59.257 11.5062 59.6173 12.3297 59.6173 13.3191C59.6173 13.6824 59.573 13.9736 59.4845 14.1928C59.3961 14.412 59.2602 14.5685 59.0769 14.6625C58.8936 14.7564 58.7229 14.8159 58.5649 14.8409C58.4069 14.866 58.1951 14.8785 57.9297 14.8785H53.777V15.4421C53.777 16.131 54.0266 16.6821 54.526 17.0954C55.0253 17.5087 55.6731 17.7154 56.4695 17.7154C56.8867 17.7154 57.2501 17.6528 57.5598 17.5275C57.8695 17.4023 58.1192 17.2801 58.3088 17.1612C58.4985 17.0422 58.6501 16.9827 58.7639 16.9827C58.9409 16.9827 59.0926 17.061 59.219 17.2175C59.3454 17.3741 59.4086 17.5338 59.4086 17.6966C59.4086 17.9847 59.121 18.279 58.5459 18.5796C57.9707 18.8802 57.2596 19.0305 56.4127 19.0305C55.1738 19.0305 54.1625 18.6954 53.3788 18.0254C52.595 17.3553 52.2032 16.4754 52.2032 15.3857ZM53.777 13.8264H57.285C57.6136 13.8264 57.8348 13.7857 57.9486 13.7043C58.0624 13.6229 58.1193 13.4632 58.1193 13.2252C58.1193 12.6616 57.9107 12.1669 57.4936 11.741C57.0764 11.3152 56.5644 11.1023 55.9577 11.1023C55.3635 11.1023 54.8515 11.2995 54.4217 11.694C53.9919 12.0886 53.777 12.5739 53.777 13.15L53.777 13.8264ZM60.4114 18.0159C60.4114 17.7403 60.5062 17.5055 60.6958 17.3114C60.8854 17.1172 61.1193 17.0202 61.3974 17.0202C61.6628 17.0202 61.8904 17.1172 62.08 17.3114C62.2696 17.5055 62.3644 17.7403 62.3644 18.0159C62.3644 18.2789 62.2696 18.5075 62.08 18.7016C61.8904 18.8957 61.6628 18.9928 61.3974 18.9928C61.1193 18.9928 60.8854 18.8957 60.6958 18.7016C60.5062 18.5075 60.4114 18.2789 60.4114 18.0159ZM61.8122 22.506C61.8122 22.3056 61.8754 22.1397 62.0018 22.0082C62.1282 21.8767 62.2799 21.8109 62.4569 21.8109C62.9499 21.8109 63.2722 21.6293 63.4239 21.2661C63.5756 20.9029 63.6515 20.3581 63.6515 19.6316V10.5198C63.6515 10.357 63.7242 10.2255 63.8695 10.1253C64.0149 10.0251 64.2014 9.97501 64.4289 9.97501C64.6565 9.97501 64.8461 10.0251 64.9978 10.1253C65.1495 10.2255 65.2253 10.357 65.2253 10.5198V19.6316C65.2253 20.7213 65.0104 21.5855 64.5806 22.2243C64.1508 22.863 63.4998 23.1824 62.6276 23.1824C62.084 23.1824 61.8122 22.9569 61.8122 22.506ZM63.4429 6.63088C63.4429 6.39291 63.5377 6.18627 63.7273 6.01091C63.9169 5.83556 64.1508 5.74789 64.4289 5.74789C64.6944 5.74789 64.9219 5.83556 65.1115 6.01091C65.3011 6.18625 65.3959 6.39291 65.3959 6.63088C65.3959 6.86885 65.3011 7.07865 65.1115 7.26025C64.9219 7.44186 64.6944 7.53267 64.4289 7.53267C64.1634 7.53267 63.9327 7.44187 63.7368 7.26025C63.5408 7.07865 63.4429 6.86885 63.4429 6.63088ZM66.3985 17.6024C66.3985 17.4396 66.4522 17.2799 66.5597 17.1234C66.6672 16.9668 66.7967 16.8885 66.9484 16.8885C67.0495 16.8885 67.1949 16.9637 67.3845 17.114C67.5741 17.2643 67.8459 17.4115 68.1999 17.5555C68.5538 17.6995 68.971 17.7715 69.4513 17.7715C70.0834 17.7715 70.5416 17.6588 70.8261 17.4334C71.1105 17.2079 71.2527 16.9261 71.2527 16.5879C71.2527 16.1746 71.0947 15.8458 70.7787 15.6016C70.4626 15.3574 70.0771 15.1726 69.622 15.0474C69.1669 14.9221 68.7118 14.7844 68.2567 14.6341C67.8016 14.4838 67.4161 14.2333 67.1 13.8826C66.784 13.5319 66.626 13.0685 66.626 12.4923C66.626 11.7784 66.882 11.1616 67.3939 10.6418C67.9059 10.122 68.6865 9.86215 69.7357 9.86215C70.4057 9.86215 71.0188 9.96548 71.575 10.1721C72.1312 10.3788 72.4093 10.6136 72.4093 10.8766C72.4093 11.0269 72.3493 11.196 72.2292 11.3839C72.1091 11.5718 71.9606 11.6657 71.7836 11.6657C71.733 11.6657 71.4897 11.5749 71.0535 11.3933C70.6174 11.2117 70.1845 11.1209 69.7547 11.1209C69.1732 11.1209 68.7402 11.2555 68.4558 11.5248C68.1714 11.7941 68.0291 12.0978 68.0291 12.436C68.0291 12.7867 68.1872 13.0622 68.5032 13.2626C68.8192 13.463 69.2079 13.6196 69.6693 13.7323C70.1307 13.845 70.589 13.9828 71.0441 14.1456C71.4992 14.3084 71.8847 14.5871 72.2007 14.9816C72.5168 15.3762 72.6748 15.8865 72.6748 16.5128C72.6748 17.2893 72.3967 17.903 71.8405 18.3539C71.2843 18.8048 70.5069 19.0303 69.5082 19.0303C68.6486 19.0303 67.9154 18.8768 67.3086 18.57C66.7019 18.2631 66.3985 17.9406 66.3985 17.6024Z" fill="#010101"/>
</svg>
