<svg width="98" height="24" viewBox="0 0 98 24" fill="none" xmlns="http://www.w3.org/2000/svg">
<path fill-rule="evenodd" clip-rule="evenodd" d="M39.5097 18.3411L37.0097 13.4567L34.4527 18.3411H31.7031L35.6017 12.0372L32.0932 5.77203H34.8809L37.1572 10.532L39.6239 5.77203H42.1737L38.5701 11.9984L42.2307 18.3411H39.5097ZM48.4241 18.3411V16.9732H48.386C47.7073 18.0468 46.7464 18.5837 45.5032 18.5837C44.5454 18.5837 43.7907 18.3185 43.2388 17.7881C42.687 17.2513 42.4111 16.5333 42.4111 15.6343C42.4111 13.7068 43.4735 12.6105 45.5983 12.3453L48.4431 11.9475C48.4431 10.5957 47.8278 9.91983 46.5973 9.91982C45.4239 9.91983 44.3456 10.2885 43.3625 11.0258V9.04664C43.7304 8.82027 44.2568 8.61653 44.9419 8.43541C45.6332 8.25432 46.2612 8.16377 46.8257 8.16375C49.3374 8.16377 50.5932 9.45737 50.5933 12.0446V18.3411H48.4241ZM46.3405 13.7909C45.6872 13.875 45.2273 14.0399 44.9609 14.2857C44.7008 14.525 44.5708 14.8969 44.5708 15.4014C44.5708 15.8154 44.7199 16.155 45.018 16.4202C45.3161 16.6789 45.7062 16.8082 46.1882 16.8082C46.8415 16.8082 47.3806 16.5786 47.8056 16.1194C48.2306 15.6602 48.4431 15.0877 48.4431 14.4021V13.5096L46.3405 13.7909ZM64.6208 18.3411V12.7334C64.6208 11.8085 64.4781 11.1229 64.1927 10.6766C63.9136 10.2238 63.4125 9.99744 62.6895 9.99743C62.1122 9.99744 61.627 10.2691 61.2338 10.8124C60.8405 11.3493 60.6439 11.9993 60.6439 12.7625V18.3411H58.4462V12.5394C58.4461 10.8447 57.8087 9.99744 56.5338 9.99743C55.9376 9.99744 55.446 10.2529 55.0591 10.7639C54.6785 11.2749 54.4883 11.9411 54.4883 12.7625V18.3411H52.2905V8.40631H54.4883V9.93922H54.5263C55.2304 8.75559 56.2579 8.16377 57.6089 8.16375C58.2559 8.16377 58.8267 8.3384 59.3215 8.68767C59.8225 9.03048 60.1746 9.50587 60.3775 10.1139C61.1196 8.8138 62.2106 8.16377 63.6504 8.16375C65.7688 8.16377 66.8281 9.50911 66.8281 12.1998V18.3411H64.6208ZM74.1346 18.3411V16.9732H74.0965C73.4178 18.0468 72.4569 18.5837 71.2137 18.5837C70.256 18.5837 69.5012 18.3185 68.9494 17.7881C68.3975 17.2513 68.1216 16.5333 68.1216 15.6343C68.1216 13.7068 69.184 12.6105 71.3089 12.3453L74.1536 11.9475C74.1536 10.5957 73.5384 9.91983 72.3079 9.91982C71.1344 9.91983 70.0562 10.2885 69.073 11.0258V9.04664C69.4409 8.82027 69.9674 8.61653 70.6524 8.43541C71.3437 8.25432 71.9717 8.16377 72.5362 8.16375C75.0479 8.16377 76.3038 9.45737 76.3038 12.0446V18.3411H74.1346ZM72.051 13.7909C71.3976 13.875 70.9378 14.0399 70.6714 14.2857C70.4114 14.525 70.2813 14.8969 70.2813 15.4014C70.2813 15.8154 70.4304 16.155 70.7285 16.4202C71.0266 16.6789 71.4167 16.8082 71.8987 16.8082C72.552 16.8082 73.0912 16.5786 73.5162 16.1194C73.9411 15.6602 74.1536 15.0877 74.1536 14.4021V13.5096L72.051 13.7909ZM83.6657 10.5893C83.3041 10.3629 82.8792 10.2497 82.3908 10.2497C81.7565 10.2497 81.2396 10.5278 80.84 11.0841C80.4467 11.6403 80.2501 12.3647 80.2501 13.2573V18.3411H78.0523V8.40631H80.2501V10.337H80.2882C80.7575 8.93346 81.5884 8.23168 82.7809 8.23167C83.1678 8.23168 83.4627 8.27695 83.6657 8.3675L83.6657 10.5893ZM85.8535 6.18456C85.4793 6.18456 85.1622 6.06167 84.9021 5.81588C84.6421 5.56364 84.5121 5.25641 84.5121 4.89419C84.5121 4.51906 84.6421 4.20536 84.9021 3.9531C85.1622 3.70086 85.4793 3.57473 85.8535 3.57472C86.2341 3.57473 86.5544 3.7041 86.8145 3.9628C87.0745 4.21506 87.2046 4.52553 87.2046 4.89419C87.2046 5.25641 87.0745 5.56364 86.8145 5.81588C86.5544 6.06167 86.2341 6.18456 85.8535 6.18456ZM84.7309 18.3411V8.40631H86.9286V18.3411H84.7309ZM95.2349 18.3411V12.7625C95.2349 10.9191 94.5848 9.99744 93.2845 9.99743C92.6312 9.99744 92.0826 10.2529 91.6386 10.7639C91.2009 11.2684 90.9821 11.912 90.9821 12.6946V18.3411H88.7843V8.40631H90.9821V9.99743H91.0202C91.7306 8.77499 92.7835 8.16377 94.1789 8.16375C96.3481 8.16377 97.4327 9.52204 97.4327 12.2386V18.3411H95.2349ZM7.90951 0.765625C7.24193 0.76707 6.58844 1.15398 6.25237 1.74421L1.02547 11.0147C0.694636 11.6065 0.694636 12.38 1.02547 12.9719L6.25237 22.2423C6.58847 22.8326 7.24193 23.2196 7.90951 23.2209H18.3633C19.0309 23.2195 19.6843 22.8326 20.0204 22.2423L25.2473 12.9719C25.5781 12.38 25.5781 11.6065 25.2473 11.0147L20.0204 1.74421C19.6843 1.15398 19.0309 0.766962 18.3633 0.765625H7.90951ZM8.00438 6.18896C8.01874 6.18751 8.0338 6.18751 8.0482 6.18896H9.85132C9.93114 6.19065 10.0086 6.23774 10.0484 6.30848L13.1072 11.8738C13.1226 11.9013 13.1325 11.9319 13.1363 11.9634C13.14 11.9319 13.15 11.9013 13.1654 11.8738L16.2168 6.30848C16.2579 6.2356 16.339 6.18824 16.4212 6.18896H18.2243C18.384 6.1904 18.5035 6.39574 18.4287 6.54006L15.443 11.9933L18.4287 17.439C18.5106 17.5842 18.3881 17.799 18.2243 17.7976H16.4212C16.3375 17.7969 16.256 17.7462 16.2168 17.6706L13.1654 12.1053C13.15 12.0778 13.14 12.0471 13.1363 12.0157C13.1325 12.0472 13.1226 12.0778 13.1072 12.1053L10.0484 17.6706C10.0104 17.7441 9.93254 17.7942 9.85132 17.7976H8.0482C7.8844 17.799 7.76192 17.5842 7.84382 17.439L10.8295 11.9933L7.84382 6.54006C7.77225 6.40838 7.85957 6.21706 8.00438 6.18896Z" fill="black"/>
</svg>
