<svg xmlns="http://www.w3.org/2000/svg" width="91" height="91" fill="none"><circle cx="45.411" cy="45.411" r="45.411" fill="#fff"/><path stroke="url(#a)" stroke-miterlimit="10" stroke-width="2" d="M73.172 15.39C80.951 22.789 85.8 33.238 85.8 44.82c0 22.427-18.18 40.607-40.607 40.607S4.584 67.248 4.584 44.82c0-13.899 6.982-26.166 17.633-33.487"/><path stroke="url(#b)" stroke-miterlimit="10" stroke-width="2" d="M68.81 17.297a5.95 5.95 0 1 0 0-11.902 5.95 5.95 0 0 0 0 11.902Z"/><path fill="url(#c)" d="M25 55.842c.222-.25.43-.513.666-.748 2.298-2.285 4.6-4.563 6.903-6.843.1-.1.215-.186.374-.322-.526-.511-1.022-.978-1.501-1.46-.857-.859-1.17-1.875-.803-3.044.28-.89.883-1.5 1.76-1.84.107-.042.215-.08.322-.12-.7-1.88.302-3.661 2.175-4.131-.453-2.038.75-3.39 2.306-3.772-.26-1.133-.086-2.181.804-3.006.874-.81 1.913-.985 3.11-.612-.04-.21-.088-.378-.1-.546a23.329 23.329 0 0 1-.064-1.428c-.003-.67.294-.961.982-.965 1.445-.008 2.89-.005 4.335-.001.638.002 1.276-.003 1.913.027 1.288.061 2.392.56 3.315 1.448.16.154.275.236.53.133 1.095-.438 2.13-.285 3.029.472.887.748 1.196 1.718.967 2.853-.016.076-.025.152-.042.26.84.204 1.528.626 1.986 1.371.461.75.508 1.554.3 2.418.928.218 1.644.703 2.088 1.545.438.831.407 1.68.121 2.44.51.353 1.043.605 1.421 1.002 1.113 1.169 1.09 2.865-.078 4.038-2.654 2.661-5.311 5.32-8.034 7.91-1.929 1.836-4.31 2.802-6.97 3.055-.405.038-.629.245-.941.608.644.2 1.228.438 1.835.556.517.1 1.061.081 1.592.08.336-.002.603.093.838.328 1.35 1.344 2.708 2.682 4.057 4.027.413.41.446.859.108 1.195-.33.327-.804.294-1.208-.105-1.238-1.22-2.465-2.447-3.71-3.659a.776.776 0 0 0-.499-.208c-1.387.022-2.683-.296-3.873-1.002-.23-.136-.34-.053-.491.097-1.56 1.556-3.123 3.109-4.688 4.659-.128.127-.262.26-.417.343-.317.17-.639.134-.897-.118-.255-.25-.324-.563-.145-.885.086-.155.217-.29.345-.416 2.184-2.177 4.376-4.348 6.555-6.532.304-.305.64-.456 1.063-.482 2.732-.171 5.034-1.277 6.96-3.18 2.424-2.397 4.85-4.791 7.254-7.207.258-.258.463-.63.547-.983.133-.558-.188-1.083-.69-1.349a1.345 1.345 0 0 0-1.53.162c-.343.298-.65.634-.98.943-.336.316-.666.377-.993.202-.494-.265-.548-.849-.101-1.306.608-.619 1.231-1.224 1.849-1.834.341-.338.533-.735.459-1.22-.083-.541-.391-.924-.914-1.108-.545-.192-1.034-.054-1.44.334-.607.583-1.197 1.185-1.799 1.774-.12.117-.245.235-.389.32a.742.742 0 0 1-.925-.145c-.239-.269-.289-.578-.102-.892.084-.142.205-.265.323-.384.845-.842 1.695-1.678 2.538-2.521.404-.402.519-.89.344-1.425-.166-.51-.544-.811-1.071-.907-.502-.091-.918.095-1.27.444l-2.516 2.489c-.1.1-.206.2-.324.277a.769.769 0 0 1-.965-.09.751.751 0 0 1-.093-.957c.086-.127.198-.24.308-.349 1.067-1.06 2.133-2.119 3.203-3.175.418-.41.63-.881.452-1.467a1.367 1.367 0 0 0-2.199-.659c-.15.123-.284.266-.422.402-1.51 1.496-3.018 2.992-4.531 4.486-.1.1-.226.175-.353.271.74 1.036.924 2.088.376 3.185-.547 1.095-1.495 1.6-2.701 1.644-.121 1.835-1.34 2.966-2.993 3.041-.171.522-.271 1.063-.518 1.527-.458.862-1.225 1.345-2.214 1.448-.252.026-.453.025-.477.392-.13 1.968-2.204 3.219-4.038 2.438-.272-.115-.404-.065-.59.12-2.425 2.413-4.858 4.82-7.288 7.228-.244.242-.512.51-.876.378-.245-.09-.434-.33-.648-.501-.002-.156-.002-.311-.002-.466Zm19.641-17.08.055-.094c.557.007 1.049-.3 1.276-.794.243-.53.144-1.104-.314-1.561a711.716 711.716 0 0 0-4.636-4.59c-.58-.568-1.41-.566-1.96-.034-.551.535-.558 1.388.024 1.972a356.57 356.57 0 0 0 4.612 4.56c.252.244.626.364.943.542Zm1.253-4.538 4.604-4.562c-.74-.737-1.677-1.11-2.77-1.11-1.615-.002-3.23-.002-4.844 0-.114 0-.23.014-.339.02-.129 1.183.75 2.157 1.963 2.186.716.016 1.433-.01 2.148.004.43.009.728.296.767.683.038.387-.18.703-.57.809a1.515 1.515 0 0 1-.386.049c-.866.004-1.732.002-2.507.002l1.934 1.919Zm-7.947.855c-.788.03-1.222.287-1.47.819-.25.533-.142 1.098.32 1.56a506.106 506.106 0 0 0 3.839 3.803c.59.578 1.447.586 1.994.046.557-.549.554-1.379-.038-1.973a244.103 244.103 0 0 0-3.846-3.796c-.255-.242-.628-.363-.799-.459Zm-3.883 5.022c-.01.556.18.894.477 1.188 1.003.993 1.997 1.994 3.014 2.973.196.19.46.35.722.424.612.173 1.221-.114 1.525-.654.306-.546.218-1.174-.27-1.664-1.013-1.02-2.039-2.026-3.06-3.036a1.64 1.64 0 0 0-.271-.22c-.453-.288-.927-.321-1.404-.072-.477.248-.712.658-.733 1.061Zm2.854 6.132c-.063-.138-.126-.47-.324-.679a46.397 46.397 0 0 0-2.313-2.296c-.51-.47-1.312-.402-1.81.073-.5.476-.607 1.27-.135 1.786a39.16 39.16 0 0 0 2.396 2.375c.404.37.933.378 1.427.126.491-.25.74-.668.759-1.385Z"/><path fill="url(#d)" d="M62.26 50.546c.274.153.492.225.642.366a64.372 64.372 0 0 1 1.803 1.764c.374.38.387.809.071 1.135-.327.339-.774.331-1.174-.05-.6-.57-1.184-1.156-1.773-1.737-.261-.259-.397-.587-.205-.907.134-.226.406-.372.635-.57Z"/><path fill="url(#e)" d="M59.603 49.477a.778.778 0 0 1 .781-.753c.412.009.768.377.76.783-.01.406-.386.765-.79.756a.78.78 0 0 1-.751-.786Z"/><defs><linearGradient id="a" x1="4.584" x2="85.799" y1="85.429" y2="85.429" gradientUnits="userSpaceOnUse"><stop stop-color="#1723FF"/><stop offset="1" stop-color="#30E35E"/></linearGradient><linearGradient id="b" x1="62.859" x2="74.761" y1="17.297" y2="17.297" gradientUnits="userSpaceOnUse"><stop stop-color="#1723FF"/><stop offset="1" stop-color="#30E35E"/></linearGradient><linearGradient id="c" x1="25" x2="65" y1="63.001" y2="63.001" gradientUnits="userSpaceOnUse"><stop stop-color="#1723FF"/><stop offset="1" stop-color="#30E35E"/></linearGradient><linearGradient id="d" x1="25" x2="65" y1="63.001" y2="63.001" gradientUnits="userSpaceOnUse"><stop stop-color="#1723FF"/><stop offset="1" stop-color="#30E35E"/></linearGradient><linearGradient id="e" x1="25" x2="65" y1="63.001" y2="63.001" gradientUnits="userSpaceOnUse"><stop stop-color="#1723FF"/><stop offset="1" stop-color="#30E35E"/></linearGradient></defs></svg>