<svg xmlns="http://www.w3.org/2000/svg" width="91" height="91" fill="none"><circle cx="45.411" cy="45.411" r="45.411" fill="#fff"/><path stroke="url(#a)" stroke-miterlimit="10" stroke-width="2" d="M73.172 15.39C80.951 22.789 85.8 33.238 85.8 44.82c0 22.427-18.18 40.607-40.607 40.607S4.584 67.248 4.584 44.82c0-13.899 6.982-26.166 17.633-33.487"/><path stroke="url(#b)" stroke-miterlimit="10" stroke-width="2" d="M68.81 17.297a5.95 5.95 0 1 0 0-11.902 5.95 5.95 0 0 0 0 11.902Z"/><path fill="url(#c)" d="M32.31 49.12V29.214c0-1.002.212-1.214 1.212-1.214H54.82c1.002 0 1.228.221 1.228 1.208v12.604c.346 0 .658-.004.97.001.738.012.965.212 1.072.926.024.165.061.33.084.496.099.707.26.895.971 1.04.123.026.291-.04.405-.114.296-.192.572-.416.86-.62.399-.282.797-.274 1.147.07.891.87 1.776 1.749 2.652 2.635.328.331.353.71.077 1.094-.166.232-.318.479-.512.687-.275.293-.294.557-.134.937.162.386.351.603.784.613.268.007.536.072.8.124.56.11.77.357.772.935.005 1.175.005 2.35 0 3.523-.003.596-.22.844-.814.96-.232.044-.468.107-.7.102-.486-.012-.69.233-.86.663-.138.349-.099.564.118.85.995 1.313.987 1.32-.17 2.467-.61.605-1.218 1.212-1.83 1.815-.562.556-.864.58-1.494.126-.123-.089-.272-.157-.365-.269-.46-.553-.955-.3-1.435-.063-.106.053-.183.226-.211.356-.072.326-.106.662-.16.992-.092.572-.362.826-.955.832-1.183.014-2.367.012-3.549 0-.615-.005-.879-.257-.975-.865-.028-.183-.065-.364-.09-.547-.102-.742-.224-.891-.957-1.055-.123-.027-.292.035-.407.107-.27.171-.517.378-.78.562-.539.378-.874.357-1.34-.1-.651-.636-1.305-1.268-1.934-1.925-.253-.264-.512-.369-.883-.367-5.476.012-10.953-.003-16.43.014-1.614.006-2.939-.533-3.914-1.827a4.146 4.146 0 0 1-.856-2.53 648.958 648.958 0 0 1-.003-4.278c.002-.761.27-1.035 1.035-1.037 1.944-.004 3.887 0 5.83-.002.124 0 .242-.011.443-.02Zm1.623-19.478v.625c0 7.565-.005 15.129.004 22.692.002 1.463.068 2.928-.998 4.184.15.028.211.05.273.05 4.36.001 8.72.002 13.08-.004a.63.63 0 0 0 .399-.145c.52-.496.531-.67.281-1.345-.107-.289-.245-.44-.57-.454-.336-.016-.669-.09-1-.152-.462-.086-.715-.362-.716-.835-.004-1.241-.005-2.482.002-3.724.002-.468.247-.748.716-.83.333-.057.664-.137 1-.157.318-.02.435-.174.576-.444.24-.465.226-.83-.158-1.197-.156-.149-.27-.343-.392-.523-.314-.456-.306-.784.075-1.172.863-.874 1.74-1.737 2.618-2.598.353-.346.746-.355 1.147-.079.29.201.564.428.86.62.115.075.28.145.404.122.693-.126.882-.342.977-1.035.027-.198.063-.397.094-.596.094-.584.343-.806.95-.832.279-.012.559-.001.847-.001V29.64c-6.812.002-13.598.002-20.469.002Zm14.178 17.29c.2.27.377.534.582.777.347.412.382.825.106 1.294-.16.272-.326.568-.38.872-.158.892-.725 1.223-1.566 1.243-.101.003-.218-.009-.299.037-.097.056-.231.163-.234.252-.019.732-.01 1.463-.01 2.195.402.06.735.115 1.068.157.466.059.75.292.897.757.15.477.36.937.58 1.388.19.39.173.736-.092 1.078-.225.29-.436.59-.637.864.592.586 1.15 1.139 1.727 1.708.277-.199.586-.404.877-.632.346-.273.685-.282 1.08-.09.453.22.924.408 1.4.574.423.148.693.382.741.849.038.362.12.72.186 1.086h2.413c.06-.356.136-.684.166-1.015.046-.528.34-.79.83-.944.448-.14.89-.322 1.304-.538.414-.214.766-.19 1.126.091.288.224.592.43.818.592l1.74-1.717c-.171-.23-.36-.509-.571-.766-.317-.386-.333-.768-.105-1.21.216-.415.409-.85.54-1.295.152-.513.473-.739.98-.79.33-.033.655-.095.957-.14v-2.423c-.367-.057-.697-.12-1.03-.156-.45-.05-.734-.262-.883-.702-.166-.49-.373-.97-.596-1.437-.187-.39-.177-.734.092-1.078.226-.288.435-.588.626-.848-.592-.59-1.15-1.145-1.728-1.724-.264.193-.569.405-.86.63-.347.267-.692.28-1.085.09a13.207 13.207 0 0 0-1.399-.576c-.425-.146-.693-.38-.744-.846-.04-.363-.12-.723-.185-1.09H54.13c-.063.37-.142.715-.177 1.062-.049.485-.32.73-.77.88-.477.16-.941.367-1.397.58-.374.174-.71.167-1.041-.085-.305-.231-.617-.453-.91-.666-.58.58-1.129 1.124-1.725 1.713ZM26.678 50.77c-.022.096-.043.143-.043.191-.003 1.124-.011 2.247-.003 3.37.012 1.63 1.238 2.859 2.834 2.859 1.593 0 2.821-1.229 2.841-2.86.013-1.056.005-2.112.002-3.169 0-.126-.029-.252-.045-.39h-5.586Z"/><path fill="url(#d)" d="M37.472 35.939c0-1.173-.005-2.347 0-3.52.004-.723.278-.992 1.02-.996 1.165-.005 2.331-.007 3.496 0 .734.004 1.009.274 1.011 1.007.006 2.346.006 4.693 0 7.04 0 .74-.265 1.007-.996 1.011-1.182.007-2.365.008-3.547 0-.711-.004-.98-.272-.983-.971-.005-1.192-.001-2.382-.001-3.571Zm3.87 2.907V33.06h-2.215v5.787h2.216Z"/><path fill="url(#e)" d="M50.884 36.993c0 .839.004 1.676-.002 2.515-.004.677-.274.965-.938.97-1.218.011-2.434.01-3.651 0-.664-.005-.95-.29-.955-.962-.01-1.676-.01-3.354 0-5.031.004-.695.298-.97.997-.973a524.84 524.84 0 0 1 3.55 0c.723.002.995.279.997 1.015.004.821.002 1.643.002 2.466Zm-3.892-1.852v3.695h2.239v-3.694h-2.239Z"/><path fill="url(#f)" d="M39.445 50.035c-1.012 0-2.023.004-3.037-.001-.615-.003-.955-.288-.961-.784-.007-.5.337-.819.937-.822a849.78 849.78 0 0 1 6.122 0c.6.002.96.313.967.799.008.51-.349.806-.993.808-1.012.003-2.023 0-3.035 0Z"/><path fill="url(#g)" d="M39.417 45.266c1.027 0 2.057-.004 3.085.001.612.003.963.29.972.777.01.488-.345.825-.94.827-2.057.01-4.114.01-6.172-.001-.597-.004-.933-.34-.915-.843.017-.48.346-.756.933-.76 1.013-.007 2.025-.001 3.037-.001Z"/><path fill="url(#h)" d="M39.417 51.592c1.064 0 2.13-.001 3.194.002.397 0 .74.167.804.551.043.258-.061.594-.215.813-.108.151-.414.229-.632.23-2.079.017-4.16.017-6.238.006-.568-.003-.893-.335-.882-.822.01-.468.322-.766.875-.774 1.03-.018 2.063-.006 3.094-.006Z"/><path fill="url(#i)" d="M49.75 52.42c-.01-3.076 2.489-5.577 5.584-5.59 3.082-.01 5.605 2.495 5.602 5.57-.001 3.05-2.487 5.54-5.558 5.562-3.08.024-5.617-2.474-5.628-5.543Zm9.563-.005a3.972 3.972 0 0 0-3.977-3.973c-2.18.006-3.955 1.77-3.963 3.937a3.97 3.97 0 0 0 3.978 3.973c2.177-.004 3.955-1.772 3.962-3.937Z"/><defs><linearGradient id="a" x1="4.584" x2="85.799" y1="85.429" y2="85.429" gradientUnits="userSpaceOnUse"><stop stop-color="#1723FF"/><stop offset="1" stop-color="#30E35E"/></linearGradient><linearGradient id="b" x1="62.859" x2="74.761" y1="17.297" y2="17.297" gradientUnits="userSpaceOnUse"><stop stop-color="#1723FF"/><stop offset="1" stop-color="#30E35E"/></linearGradient><linearGradient id="c" x1="25" x2="66" y1="63.001" y2="63.001" gradientUnits="userSpaceOnUse"><stop stop-color="#1723FF"/><stop offset="1" stop-color="#30E35E"/></linearGradient><linearGradient id="d" x1="25" x2="66" y1="63.001" y2="63.001" gradientUnits="userSpaceOnUse"><stop stop-color="#1723FF"/><stop offset="1" stop-color="#30E35E"/></linearGradient><linearGradient id="e" x1="25" x2="66" y1="63.001" y2="63.001" gradientUnits="userSpaceOnUse"><stop stop-color="#1723FF"/><stop offset="1" stop-color="#30E35E"/></linearGradient><linearGradient id="f" x1="25" x2="66" y1="63.001" y2="63.001" gradientUnits="userSpaceOnUse"><stop stop-color="#1723FF"/><stop offset="1" stop-color="#30E35E"/></linearGradient><linearGradient id="g" x1="25" x2="66" y1="63.001" y2="63.001" gradientUnits="userSpaceOnUse"><stop stop-color="#1723FF"/><stop offset="1" stop-color="#30E35E"/></linearGradient><linearGradient id="h" x1="25" x2="66" y1="63.001" y2="63.001" gradientUnits="userSpaceOnUse"><stop stop-color="#1723FF"/><stop offset="1" stop-color="#30E35E"/></linearGradient><linearGradient id="i" x1="25" x2="66" y1="63.001" y2="63.001" gradientUnits="userSpaceOnUse"><stop stop-color="#1723FF"/><stop offset="1" stop-color="#30E35E"/></linearGradient></defs></svg>