<svg xmlns="http://www.w3.org/2000/svg" width="91" height="91" fill="none"><circle cx="45.411" cy="45.411" r="45.411" fill="#fff"/><path fill="url(#a)" d="M57.857 40.893c-1.387 1.384-2.658 2.657-3.932 3.927-2.396 2.39-4.794 4.781-7.192 7.17-.714.712-1.085.7-1.765-.054l-6.483-7.178c-.117-.13-.241-.254-.383-.402-2.143 2.14-4.261 4.254-6.38 6.367-1.267 1.264-1.3 1.264-2.576-.007-.58-.578-1.163-1.153-1.74-1.737-.543-.55-.543-.954.011-1.508 3.316-3.31 6.635-6.619 9.956-9.925.587-.585 1.024-.57 1.58.046 2.187 2.417 4.37 4.838 6.554 7.258.12.131.242.256.335.355l8.103-8.079c-.605 0-1.217.003-1.828 0-.831-.004-1.112-.288-1.114-1.13-.003-.997-.006-1.992.002-2.989.005-.695.317-1.004 1.022-1.004 3.32-.004 6.638-.004 9.957 0 .697.002 1.011.316 1.013 1.015.004 3.31.004 6.618 0 9.927-.002.696-.317 1.008-1.016 1.012-1.035.008-2.069.008-3.105 0-.7-.004-1.008-.314-1.016-1.012-.009-.633-.003-1.269-.003-2.052Zm3.4-7.146h-8.516v1.67c1.074 0 2.122.008 3.17-.002.445-.005.819.087 1.012.532.195.453-.02.78-.33 1.09-3.32 3.307-6.638 6.617-9.96 9.925-.587.585-1.017.565-1.58-.056-1.028-1.136-2.053-2.275-3.08-3.411l-3.76-4.163-8.958 8.927 1.23 1.257c.118-.113.261-.244.398-.379l6.4-6.379c.71-.706 1.084-.689 1.765.066 2.16 2.395 4.323 4.785 6.482 7.182.116.13.209.279.366.495.218-.26.344-.437.494-.588 3.822-3.814 7.646-7.626 11.468-11.441.326-.327.652-.634 1.164-.423.504.206.562.633.55 1.105-.014.569-.003 1.138-.003 1.708v1.364h1.688v-8.479Z"/><path fill="url(#b)" d="M41.537 67h-1.662V52.543h-1.721V65.29h-1.697c-.008-.168-.023-.338-.023-.51-.001-4.27-.001-8.54 0-12.812 0-.91.266-1.173 1.177-1.175 1-.001 2-.008 3 .003.634.007.96.326.962.957.004 5.018.001 10.036 0 15.054-.002.051-.019.102-.036.192Z"/><path fill="url(#c)" d="M60.446 47.403h-1.72v11.896h-1.702c-.008-.173-.024-.345-.024-.516-.002-3.968-.002-7.936-.002-11.904 0-.953.255-1.209 1.196-1.209 1-.001 2-.008 2.999.003.604.007.941.326.943.921.007 4.182.002 8.364.001 12.545 0 .05-.023.098-.041.171h-1.65V47.403Z"/><path fill="url(#d)" d="M48.381 67H46.73V55.959h-1.72v11.04h-1.722V55.386c0-.911.266-1.175 1.176-1.176 1-.001 1.999-.007 2.999.003.612.006.96.316.96.903.008 3.914.002 7.829 0 11.743 0 .034-.02.067-.042.141Z"/><path fill="url(#e)" d="M34.685 63.584h-1.662v-8.478h-1.721v8.474h-1.723v-9.045c0-.913.264-1.178 1.173-1.18 1 0 2-.006 2.999.004.636.007.964.324.965.952.008 3.026.003 6.05 0 9.075 0 .053-.015.103-.031.198Z"/><path fill="url(#f)" d="M53.59 52.529h-1.72v8.478h-1.698c-.009-.154-.026-.309-.026-.462V51.95c0-.878.273-1.153 1.143-1.154 1.017-.002 2.035-.009 3.052.003.604.007.94.326.94.92.01 2.759.004 5.517.002 8.274 0 .05-.023.099-.041.171h-1.65l-.001-7.635Z"/><path stroke="url(#g)" stroke-miterlimit="10" stroke-width="2" d="M66.95 19.901A5.95 5.95 0 1 0 66.95 8a5.95 5.95 0 0 0 0 11.901Z"/><path stroke="url(#h)" stroke-miterlimit="10" stroke-width="2" d="M72.588 17.058c7.778 7.397 12.627 17.846 12.627 29.429 0 22.427-18.181 40.607-40.608 40.607C22.181 87.094 4 68.915 4 46.487 4 32.588 10.982 20.321 21.633 13"/><defs><linearGradient id="a" x1="27" x2="63" y1="67.001" y2="67.001" gradientUnits="userSpaceOnUse"><stop stop-color="#1723FF"/><stop offset="1" stop-color="#30E35E"/></linearGradient><linearGradient id="b" x1="27" x2="63" y1="67.001" y2="67.001" gradientUnits="userSpaceOnUse"><stop stop-color="#1723FF"/><stop offset="1" stop-color="#30E35E"/></linearGradient><linearGradient id="c" x1="27" x2="63" y1="67.001" y2="67.001" gradientUnits="userSpaceOnUse"><stop stop-color="#1723FF"/><stop offset="1" stop-color="#30E35E"/></linearGradient><linearGradient id="d" x1="27" x2="63" y1="67.001" y2="67.001" gradientUnits="userSpaceOnUse"><stop stop-color="#1723FF"/><stop offset="1" stop-color="#30E35E"/></linearGradient><linearGradient id="e" x1="27" x2="63" y1="67.001" y2="67.001" gradientUnits="userSpaceOnUse"><stop stop-color="#1723FF"/><stop offset="1" stop-color="#30E35E"/></linearGradient><linearGradient id="f" x1="27" x2="63" y1="67.001" y2="67.001" gradientUnits="userSpaceOnUse"><stop stop-color="#1723FF"/><stop offset="1" stop-color="#30E35E"/></linearGradient><linearGradient id="g" x1="61" x2="72.901" y1="19.902" y2="19.902" gradientUnits="userSpaceOnUse"><stop stop-color="#1723FF"/><stop offset="1" stop-color="#30E35E"/></linearGradient><linearGradient id="h" x1="4" x2="85.215" y1="87.096" y2="87.096" gradientUnits="userSpaceOnUse"><stop stop-color="#1723FF"/><stop offset="1" stop-color="#30E35E"/></linearGradient></defs></svg>