<svg xmlns="http://www.w3.org/2000/svg" width="91" height="91" fill="none"><circle cx="45.411" cy="45.411" r="45.411" fill="#fff"/><path stroke="url(#a)" stroke-miterlimit="10" stroke-width="2" d="M73.172 15.39C80.951 22.789 85.8 33.238 85.8 44.82c0 22.427-18.18 40.607-40.607 40.607S4.584 67.248 4.584 44.82c0-13.899 6.982-26.166 17.633-33.487"/><path stroke="url(#b)" stroke-miterlimit="10" stroke-width="2" d="M68.81 17.297a5.95 5.95 0 1 0 0-11.902 5.95 5.95 0 0 0 0 11.902Z"/><path fill="url(#c)" d="M23 37.82C23 30.173 29.215 24 36.915 24c7.657 0 13.914 6.194 13.914 13.789 0 7.657-6.246 13.85-13.956 13.85C29.215 51.63 23 45.446 23 37.82Zm1.556-.031c-.01 6.78 5.48 12.284 12.286 12.305 6.838.02 12.42-5.473 12.43-12.233 0-6.791-5.52-12.295-12.357-12.315-6.797-.01-12.348 5.472-12.359 12.243Z"/><path fill="url(#d)" d="M53.423 66.995c-6.89.195-13.136-5.009-14.06-11.759a18.762 18.762 0 0 1-.155-1.535c-.042-.588.26-.97.747-.99.488-.02.778.33.799.938.187 5.71 3.912 10.378 9.38 11.738 7.15 1.783 14.309-3.071 15.232-10.337.851-6.677-3.766-12.727-10.49-13.726-.53-.083-1.069-.093-1.598-.124-.57-.031-.923-.31-.934-.763-.01-.474.363-.783.965-.783 6.205.01 11.86 4.565 13.323 10.594 1.816 7.461-3.279 15.19-11.216 16.53-.675.114-1.339.144-1.993.217Z"/><path fill="url(#e)" d="M52.977 43.333c5.832.031 10.366 4.772 10.117 10.563-.249 5.73-5.51 10.151-11.248 9.46-5.437-.659-9.297-5.265-8.975-10.717.03-.484.352-.814.788-.804.436.01.768.34.758.835-.021 1.195.083 2.37.487 3.514 1.266 3.638 5.022 6.07 8.779 5.668 4.14-.433 7.294-3.431 7.782-7.4.622-5.07-3.248-9.49-8.384-9.573-.311 0-.612.01-.924-.01a.761.761 0 0 1-.726-.763c0-.402.29-.732.716-.773.28-.02.55 0 .83 0Z"/><path fill="url(#f)" d="M52.624 49.836c.716-.794 1.536-1.288 2.542-1.381 2.138-.196 3.84 1.608 3.59 3.803-.248 2.154-1.41 3.823-3.04 5.152-.715.578-1.598.959-2.407 1.433-.58.33-1.13.237-1.712-.052-1.722-.845-3.02-2.143-4.036-3.73-.498-.783-.893-1.597-1.028-2.525-.238-1.608.416-3.05 1.723-3.73 1.297-.68 2.957-.382 4.109.741.083.073.156.155.26.289Zm4.649 2.278c-.042-.959-.29-1.567-.944-1.938-.644-.36-1.328-.288-1.878.124-.436.33-.716.845-1.1 1.236-.197.206-.447.413-.716.485-.343.082-.602-.155-.758-.485a3.804 3.804 0 0 0-.363-.628c-.591-.804-1.65-1.154-2.438-.825-.8.34-1.235 1.237-.976 2.288.592 2.36 2.127 3.957 4.275 5.009.135.072.384.01.54-.062 1.795-.783 3.113-2.061 3.922-3.834.239-.495.342-1.061.436-1.37Z"/><path fill="url(#g)" d="M26.279 37.789c.114-6.04 4.898-10.646 10.916-10.522 5.842.123 10.449 4.957 10.335 10.841-.115 5.782-5.002 10.357-10.937 10.244-5.686-.103-10.418-4.947-10.314-10.563Zm1.556.041c.063 5.09 4.11 9.048 9.215 8.997 5-.052 8.996-4.153 8.934-9.172-.063-4.895-4.182-8.873-9.132-8.832-5.011.041-9.079 4.102-9.017 9.007Z"/><path fill="url(#h)" d="M32.235 41.282c.052-.32.114-.793.218-1.267.083-.402 0-.711-.322-.99a9.053 9.053 0 0 1-.903-.875c-.55-.598-.695-1.31-.435-2.062.27-.783.85-1.319 1.67-1.34 1.266-.03 2.055-.535 2.47-1.762.28-.814 1.006-1.216 1.878-1.205.871.01 1.587.412 1.868 1.226.404 1.216 1.193 1.69 2.428 1.731.85.031 1.442.567 1.712 1.371.28.804.135 1.608-.54 2.113-1.058.793-1.338 1.7-.955 2.957.229.742-.134 1.433-.757 1.907-.654.495-1.39.587-2.158.268a11.191 11.191 0 0 1-1.162-.598c-.312-.185-.602-.175-.913.01-.405.227-.82.464-1.256.64-1.38.576-2.874-.454-2.843-2.124Zm1.857-1.587c-.083.495-.197 1.062-.27 1.639-.062.536.312.783.8.556.394-.185.778-.401 1.162-.608.684-.36 1.359-.36 2.044-.01.384.206.768.433 1.162.587.187.073.477.083.612-.02.135-.103.208-.392.197-.588-.02-.401-.124-.793-.197-1.185-.145-.773.042-1.432.602-1.989.3-.298.623-.566.892-.886.135-.165.29-.464.229-.608-.084-.185-.364-.34-.582-.392-.404-.103-.83-.134-1.245-.195-.747-.114-1.266-.526-1.598-1.186-.197-.391-.373-.783-.58-1.164-.27-.495-.727-.484-.997.01-.228.413-.415.835-.633 1.247-.322.608-.82.98-1.504 1.093-.467.072-.934.123-1.39.216-.561.103-.696.536-.312.948.311.33.643.629.965.948.415.413.623.928.643 1.587Z"/><defs><linearGradient id="a" x1="4.584" x2="85.799" y1="85.429" y2="85.429" gradientUnits="userSpaceOnUse"><stop stop-color="#1723FF"/><stop offset="1" stop-color="#30E35E"/></linearGradient><linearGradient id="b" x1="62.859" x2="74.761" y1="17.297" y2="17.297" gradientUnits="userSpaceOnUse"><stop stop-color="#1723FF"/><stop offset="1" stop-color="#30E35E"/></linearGradient><linearGradient id="c" x1="23" x2="67" y1="67.001" y2="67.001" gradientUnits="userSpaceOnUse"><stop stop-color="#1723FF"/><stop offset="1" stop-color="#30E35E"/></linearGradient><linearGradient id="d" x1="23" x2="67" y1="67.001" y2="67.001" gradientUnits="userSpaceOnUse"><stop stop-color="#1723FF"/><stop offset="1" stop-color="#30E35E"/></linearGradient><linearGradient id="e" x1="23" x2="67" y1="67.001" y2="67.001" gradientUnits="userSpaceOnUse"><stop stop-color="#1723FF"/><stop offset="1" stop-color="#30E35E"/></linearGradient><linearGradient id="f" x1="23" x2="67" y1="67.001" y2="67.001" gradientUnits="userSpaceOnUse"><stop stop-color="#1723FF"/><stop offset="1" stop-color="#30E35E"/></linearGradient><linearGradient id="g" x1="23" x2="67" y1="67.001" y2="67.001" gradientUnits="userSpaceOnUse"><stop stop-color="#1723FF"/><stop offset="1" stop-color="#30E35E"/></linearGradient><linearGradient id="h" x1="23" x2="67" y1="67.001" y2="67.001" gradientUnits="userSpaceOnUse"><stop stop-color="#1723FF"/><stop offset="1" stop-color="#30E35E"/></linearGradient></defs></svg>