<svg xmlns="http://www.w3.org/2000/svg" width="42" height="33" fill="none"><path fill="url(#a)" d="M41.998 11.162c-.34.796-.98 1.241-1.724 1.603-1.673.81-3.327 1.659-4.997 2.474-.263.128-.341.28-.341.566.01 3.105-.003 6.209.015 9.314.003.48-.14.849-.444 1.2-2.575 2.988-5.783 4.896-9.606 5.702-3.754.791-7.435.5-10.998-.979a16.965 16.965 0 0 1-6.595-4.856c-.236-.282-.33-.578-.33-.946.01-3.159.002-6.32.013-9.48.001-.289-.081-.438-.346-.56-.717-.333-1.418-.699-2.172-1.075-.014.155-.03.27-.03.384-.002 2.065 0 4.13-.002 6.195 0 .195-.007.35.221.471.832.443 1.27 1.153 1.26 2.117-.012.957-.45 1.659-1.284 2.105-.034.019-.063.05-.128.104l2.146 6.923H.586l2.144-6.918c-.215-.156-.428-.282-.609-.445-1.222-1.103-1.037-3.014.38-3.835.24-.14.308-.285.306-.55a569.47 569.47 0 0 1 .005-6.984c.003-.342-.128-.478-.396-.612-.547-.276-1.118-.532-1.607-.898-1.088-.816-1.07-2.1.005-2.937.246-.192.526-.346.808-.483C7.17 6.07 12.712 3.375 18.266.704c1.965-.946 3.956-.941 5.92.03 5.33 2.635 10.652 5.285 15.986 7.91.81.4 1.524.855 1.828 1.77-.002.25-.002.498-.002.748Zm-40.541-.384c.304.2.495.35.708.46.412.214.828.424 1.26.595.243.096.522.163.78.15.544-.03 1.084-.121 1.625-.187 1.977-.237 3.956-.477 5.933-.713l5.242-.628c1.246-.15 2.491-.31 3.739-.447.59-.066.951.19 1.001.657.053.477-.227.788-.825.877-.554.08-1.111.13-1.666.196l-5.202.613c-1.774.21-3.55.424-5.323.636-.746.09-1.49.182-2.35.287.227.114.347.174.468.233 4.005 1.95 8.01 3.904 12.018 5.846 1.545.749 3.097.756 4.647-.012 3.657-1.81 7.316-3.614 10.974-5.424a840.26 840.26 0 0 0 5.247-2.618c.268-.135.504-.335.842-.565-.31-.205-.5-.362-.713-.467-5.496-2.728-10.993-5.46-16.498-8.168-1.389-.683-2.856-.706-4.24-.04C13.432 4.798 7.764 7.58 2.09 10.348c-.189.093-.353.238-.634.43Zm31.933 5.341c-.206.096-.341.156-.473.221-2.902 1.441-5.806 2.871-8.7 4.326-2.037 1.023-4.067.999-6.1.018-3.027-1.46-6.05-2.933-9.074-4.399-.13-.062-.262-.117-.406-.181-.021.087-.039.127-.039.166-.001 2.925-.006 5.848.006 8.772 0 .159.09.354.203.468.57.577 1.129 1.171 1.747 1.69 2.66 2.23 5.749 3.406 9.17 3.662 1.58.118 3.162.028 4.724-.31 3.443-.742 6.368-2.393 8.72-5.06a.965.965 0 0 0 .212-.582c.015-2.329.009-4.657.009-6.984l.001-1.807Z"/><defs><linearGradient id="a" x1="0" x2="42" y1="32.451" y2="32.451" gradientUnits="userSpaceOnUse"><stop stop-color="#1723FF"/><stop offset="1" stop-color="#30E35E"/></linearGradient></defs></svg>