<svg xmlns="http://www.w3.org/2000/svg" width="40" height="52" fill="none"><path stroke="url(#a)" stroke-linecap="round" stroke-width="2" d="M19.755 38.502v-5m0 0a5 5 0 0 0 4.329-2.499m-4.33 2.5a5 5 0 0 1-4.329-2.5m10.58 13.748H13.505m12.498 0c0-1.782 0-2.674.095-3.267.308-1.907.36-2.03 1.578-3.53.377-.464 1.777-1.72 4.579-4.229a18.7 18.7 0 0 0 6.246-13.97 18.674 18.674 0 0 0-1.067-6.249m-11.43 31.245c0 2.337 0 3.505-.503 4.374a3.75 3.75 0 0 1-1.372 1.373c-.87.502-2.037.502-4.375.502-2.337 0-3.504 0-4.374-.502a3.75 3.75 0 0 1-1.372-1.373c-.503-.87-.503-2.037-.503-4.374m0 0c0-1.782 0-2.674-.095-3.267-.307-1.907-.36-2.03-1.577-3.53-.377-.464-1.78-1.72-4.579-4.229A18.747 18.747 0 0 1 29.114 3.508"/><defs><linearGradient id="a" x1="1" x2="38.502" y1="51.001" y2="51.001" gradientUnits="userSpaceOnUse"><stop stop-color="#1723FF"/><stop offset="1" stop-color="#30E35E"/></linearGradient></defs></svg>