<svg xmlns="http://www.w3.org/2000/svg" width="48" height="40" fill="none"><path fill="url(#a)" d="M48 3.8v32.411c-1.09 2.359-2.895 3.773-5.73 3.774-12.168.005-24.336.042-36.503-.023-3.683-.019-5.7-2.125-5.701-5.594C.058 25.036.2 15.7.002 6.372-.09 1.977 2.608-.04 6.881 0c11.418.106 22.838.083 34.256.006C44.34-.015 46.717.924 48 3.801ZM1.953 12.21c-.122.2-.236.3-.237.401-.016 7.39-.1 14.781.013 22.17.039 2.448 1.612 3.56 4.35 3.563 11.974.012 23.949.013 35.922 0 2.852-.004 4.347-1.246 4.373-3.932.07-7.214.01-14.43-.008-21.644 0-.161-.12-.322-.215-.559H1.953Zm44.449-1.782c0-1.7.056-3.218-.013-4.73-.127-2.787-1.507-4.012-4.48-4.027-3.74-.018-7.48-.004-11.22-.004-8.229 0-16.457-.012-24.685.007-2.646.006-4.046 1.086-4.269 3.463-.162 1.726-.032 3.476-.032 5.291h44.699Z"/><path fill="url(#b)" d="M26.208 17.326c-1.064 4.811-2.032 9.282-3.077 13.736-.09.38-.689.656-1.052.98-.201-.427-.647-.9-.568-1.275a519.147 519.147 0 0 1 3.013-13.389c.085-.353.736-.587 1.124-.877l.56.825Z"/><path fill="url(#c)" d="M15.179 24.214c1.451 1.174 2.752 2.159 3.952 3.243.297.269.268.857.387 1.3-.484-.047-1.103.07-1.43-.168-1.517-1.109-3.014-2.258-4.371-3.532-.315-.296-.316-1.395-.002-1.688 1.407-1.31 2.956-2.49 4.515-3.644.276-.204.845-.058 1.28-.073-.072.403.01.957-.24 1.181-1.251 1.123-2.591 2.159-4.091 3.381Z"/><path fill="url(#d)" d="M32.87 24.216c-1.397-1.138-2.685-2.125-3.88-3.204-.315-.285-.341-.855-.5-1.295.526.051 1.194-.072 1.552.184 1.48 1.059 2.867 2.23 4.284 3.365.786.63.79 1.265-.005 1.898-1.468 1.17-2.902 2.379-4.425 3.481-.305.221-.939.041-1.42.047.119-.402.103-.939.38-1.183 1.25-1.109 2.583-2.134 4.014-3.293Z"/><path fill="url(#e)" d="M16.105 6.373c-.173 1.341-1.453 2.245-2.924 2.025-1.46-.218-2.12-1.156-2.106-2.442.014-1.325 1.39-2.296 2.824-2.146 1.313.14 2.363 1.356 2.206 2.563Z"/><path fill="url(#f)" d="M8.354 6.055c.021 1.35-.997 2.343-2.422 2.362-1.438.02-2.49-.933-2.512-2.275-.022-1.357.983-2.336 2.42-2.359 1.447-.022 2.492.923 2.514 2.272Z"/><path fill="url(#g)" d="M21.286 3.809c1.401.002 2.471 1.018 2.467 2.34-.005 1.309-1.102 2.331-2.492 2.325-1.401-.008-2.476-1.029-2.465-2.346.009-1.306 1.099-2.321 2.49-2.319Z"/><defs><linearGradient id="a" x1="48" x2=".255" y1="40" y2="-.302" gradientUnits="userSpaceOnUse"><stop stop-color="#2DCF6E"/><stop offset="1" stop-color="#1723FF"/></linearGradient><linearGradient id="b" x1="48" x2=".255" y1="40" y2="-.302" gradientUnits="userSpaceOnUse"><stop stop-color="#2DCF6E"/><stop offset="1" stop-color="#1723FF"/></linearGradient><linearGradient id="c" x1="48" x2=".255" y1="40" y2="-.302" gradientUnits="userSpaceOnUse"><stop stop-color="#2DCF6E"/><stop offset="1" stop-color="#1723FF"/></linearGradient><linearGradient id="d" x1="48" x2=".255" y1="40" y2="-.302" gradientUnits="userSpaceOnUse"><stop stop-color="#2DCF6E"/><stop offset="1" stop-color="#1723FF"/></linearGradient><linearGradient id="e" x1="48" x2=".255" y1="40" y2="-.302" gradientUnits="userSpaceOnUse"><stop stop-color="#2DCF6E"/><stop offset="1" stop-color="#1723FF"/></linearGradient><linearGradient id="f" x1="48" x2=".255" y1="40" y2="-.302" gradientUnits="userSpaceOnUse"><stop stop-color="#2DCF6E"/><stop offset="1" stop-color="#1723FF"/></linearGradient><linearGradient id="g" x1="48" x2=".255" y1="40" y2="-.302" gradientUnits="userSpaceOnUse"><stop stop-color="#2DCF6E"/><stop offset="1" stop-color="#1723FF"/></linearGradient></defs></svg>