<svg xmlns="http://www.w3.org/2000/svg" width="42" height="50" fill="none"><path fill="url(#a)" d="M29.346 46.38c-.372.734-.563 1.657-1.145 2.125-.832.666-1.942 1.394-2.947 1.412-7.126.119-14.253.088-21.382.05-2.251-.014-3.856-1.588-3.859-3.75C-.005 32.071-.005 17.93.02 3.788.02 1.625 1.613.05 3.874.036 11.001-.011 18.13-.011 25.257.028c2.24.013 3.797 1.626 3.914 3.897.056 1.07-.005 2.142.019 3.212.02 1.016-.192 1.978.908 2.848.535.422.36 1.752.399 2.675.045 1.047.247 2.194-1.09 2.768-.132.056-.21.37-.21.563-.013 2.901-.007 5.803-.007 8.691 8.601.687 12.906 4.512 12.81 11.264-.088 6.17-4.783 10.03-12.654 10.435ZM1.741 8.509c-.075.258-.12.337-.12.417-.008 12.346-.019 24.69-.008 37.037.003 1.545.98 2.446 2.604 2.448 6.909.013 13.818.026 20.724-.026.637-.005 1.395-.324 1.881-.738.97-.823.683-1.569-.401-2.225-1.409-.851-2.931-1.7-3.991-2.896-4.943-5.566-2.91-13.787 4.023-16.88.417-.186.946-.729.951-1.11.056-6.9.05-13.802.024-20.703-.005-1.317-.9-2.227-2.232-2.232-7.082-.031-14.166-.029-21.253-.003-1.251.005-2.208.877-2.309 2.068-.085 1.01-.018 2.035-.018 3.197h1.676c6.287 0 12.577-.013 18.864.018.741.003 1.974-.409 1.961.839-.013 1.113-1.172.771-1.9.78-2.965.03-5.933.012-8.902.012-3.84-.003-7.687-.003-11.574-.003ZM21.423 35.56c-.003 5.056 4.185 9.17 9.396 9.229 5.173.059 9.581-4.175 9.587-9.214.008-5.052-4.371-9.265-9.572-9.208-5.234.056-9.409 4.133-9.411 9.193Z"/><path fill="url(#b)" d="M12.154 44.282c-.002-1.68 1.43-3.066 3.123-3.023 1.623.041 3.037 1.436 3.045 3.005.008 1.625-1.483 3.053-3.157 3.017-1.669-.036-3.008-1.371-3.01-3Zm2.796-1.562c-.378.512-.973.986-1.082 1.544-.16.833.49 1.468 1.342 1.29.531-.11 1.214-.71 1.342-1.208.202-.787-.375-1.343-1.602-1.626Z"/><path fill="url(#c)" d="M21.213 4.467c-.484.312-1.029.926-1.438.852-.452-.083-1.039-.772-1.084-1.24-.032-.345.71-1.057 1.113-1.062.468-.005.944.584 1.417.915l-.008.535Z"/><path fill="url(#d)" d="M36.524 35.565c-.986-1.019-1.935-1.914-2.761-2.902-.255-.303-.181-.867-.258-1.309.462.062 1.079-.036 1.358.216 1.127 1.016 2.144 2.148 3.218 3.22.526.528.555 1.006.013 1.546-1.076 1.073-2.086 2.207-3.213 3.226-.281.254-.892.167-1.352.234.064-.44-.027-1.003.22-1.302.827-.99 1.776-1.89 2.775-2.93Z"/><path fill="url(#e)" d="M25.225 35.562c.973.993 1.905 1.847 2.7 2.809.281.342.226.944.324 1.427-.486-.102-1.116-.056-1.438-.337-1.041-.92-1.95-1.98-2.95-2.945-.655-.635-.735-1.178-.036-1.846.972-.932 1.833-1.976 2.843-2.866.367-.321 1.265-.625 1.499-.437.725.57.085 1.114-.37 1.58-.816.833-1.637 1.663-2.572 2.615Z"/><path fill="url(#f)" d="M29.128 39.148c.662-2.603 1.247-5.006 1.92-7.385.07-.255.655-.373 1.003-.556.178.342.566.73.5 1.022a144.273 144.273 0 0 1-1.783 7.068c-.077.275-.646.612-.951.584-.277-.029-.502-.52-.689-.733Z"/><defs><linearGradient id="a" x1="0" x2="42.002" y1="50.002" y2="50.002" gradientUnits="userSpaceOnUse"><stop stop-color="#1723FF"/><stop offset="1" stop-color="#30E35E"/></linearGradient><linearGradient id="b" x1="0" x2="42.002" y1="50.002" y2="50.002" gradientUnits="userSpaceOnUse"><stop stop-color="#1723FF"/><stop offset="1" stop-color="#30E35E"/></linearGradient><linearGradient id="c" x1="0" x2="42.002" y1="50.002" y2="50.002" gradientUnits="userSpaceOnUse"><stop stop-color="#1723FF"/><stop offset="1" stop-color="#30E35E"/></linearGradient><linearGradient id="d" x1="0" x2="42.002" y1="50.002" y2="50.002" gradientUnits="userSpaceOnUse"><stop stop-color="#1723FF"/><stop offset="1" stop-color="#30E35E"/></linearGradient><linearGradient id="e" x1="0" x2="42.002" y1="50.002" y2="50.002" gradientUnits="userSpaceOnUse"><stop stop-color="#1723FF"/><stop offset="1" stop-color="#30E35E"/></linearGradient><linearGradient id="f" x1="0" x2="42.002" y1="50.002" y2="50.002" gradientUnits="userSpaceOnUse"><stop stop-color="#1723FF"/><stop offset="1" stop-color="#30E35E"/></linearGradient></defs></svg>