<svg width="52" height="44" viewBox="0 0 52 44" fill="none" xmlns="http://www.w3.org/2000/svg">
<path d="M52 4.18065C52 16.0641 52 27.9488 52 39.8323C50.8189 42.4266 48.8634 43.9818 45.793 43.983C32.6108 43.9889 19.4285 44.0298 6.2475 43.9584C2.25816 43.9374 0.0735729 41.6204 0.0711225 37.8043C0.0625459 27.5392 0.216925 17.2706 0.00250965 7.00905C-0.0979591 2.17491 2.82544 -0.043813 7.45435 0.00065496C19.8243 0.117676 32.1954 0.0919314 44.5653 0.00767622C48.0339 -0.0168982 50.6106 1.0164 52 4.18065ZM2.11603 13.43C1.9837 13.6512 1.85996 13.7612 1.85873 13.8723C1.84158 22.0018 1.74969 30.1312 1.87343 38.2595C1.91509 40.9522 3.61939 42.175 6.58566 42.1786C19.5572 42.1914 32.5299 42.1926 45.5014 42.1774C48.5902 42.1739 50.2099 40.8082 50.2381 37.8535C50.3153 29.9183 50.2491 21.9807 50.2295 14.0444C50.2295 13.8677 50.0997 13.6909 49.9967 13.43C34.0185 13.43 18.0354 13.43 2.11603 13.43ZM50.2687 11.4711C50.2687 9.60106 50.33 7.93117 50.2553 6.26713C50.1168 3.20235 48.622 1.85427 45.4009 1.83789C41.3491 1.81799 37.2972 1.8332 33.2454 1.8332C24.3319 1.8332 15.4183 1.82033 6.5048 1.8414C3.63776 1.84842 2.12093 3.03618 1.87956 5.65043C1.70435 7.54968 1.84525 9.47468 1.84525 11.4711C18.0281 11.4711 34.01 11.4711 50.2687 11.4711Z" fill="white"/>
<path d="M28.3922 19.0584C27.2392 24.3513 26.1904 29.2685 25.0583 34.1682C24.9615 34.5871 24.3121 34.8902 23.9188 35.2471C23.7008 34.7767 23.218 34.2571 23.3038 33.844C24.3281 28.9221 25.4148 24.0119 26.5678 19.1158C26.6597 18.7273 27.3654 18.4698 27.7857 18.1515C28.0454 18.5412 28.3064 18.9309 28.3922 19.0584Z" fill="white"/>
<path d="M16.4438 26.6356C18.0158 27.9264 19.4248 29.01 20.7248 30.2024C21.047 30.4985 21.0152 31.1456 21.145 31.6324C20.6206 31.5809 19.9492 31.7097 19.5963 31.4475C17.9521 30.2282 16.3299 28.9643 14.8596 27.5624C14.519 27.2371 14.5178 26.0283 14.8584 25.7065C16.3826 24.2659 18.0599 22.967 19.7495 21.6973C20.0485 21.4726 20.6647 21.6341 21.1352 21.6178C21.058 22.0601 21.1475 22.6698 20.8767 22.9167C19.5204 24.1513 18.0685 25.291 16.4438 26.6356Z" fill="white"/>
<path d="M35.6087 26.6379C34.0956 25.3858 32.7 24.2998 31.4062 23.1132C31.0643 22.7996 31.0362 22.1724 30.8646 21.6891C31.4344 21.7452 32.1572 21.6095 32.5456 21.8915C34.1482 23.0559 35.6516 24.3443 37.1868 25.5929C38.0383 26.2857 38.042 26.9843 37.1807 27.6805C35.5903 28.9666 34.0367 30.2971 32.3876 31.5095C32.0568 31.7529 31.3706 31.5551 30.8487 31.561C30.9773 31.1186 30.9602 30.5288 31.2604 30.2597C32.6155 29.0403 34.0588 27.9122 35.6087 26.6379Z" fill="white"/>
<path d="M17.4475 7.01013C17.2601 8.48577 15.8731 9.47928 14.2791 9.23821C12.6973 8.99832 11.983 7.9662 11.9977 6.55141C12.0136 5.0945 13.5047 4.0261 15.0571 4.1911C16.4796 4.34439 17.6166 5.68312 17.4475 7.01013Z" fill="white"/>
<path d="M9.04969 6.66005C9.07297 8.14504 7.97026 9.23802 6.42648 9.25908C4.86799 9.28015 3.72975 8.23281 3.70524 6.756C3.68074 5.26399 4.76997 4.18622 6.32723 4.16165C7.8943 4.13707 9.02641 5.17622 9.04969 6.66005Z" fill="white"/>
<path d="M23.06 4.18987C24.578 4.19221 25.7371 5.30976 25.7322 6.76433C25.7273 8.20369 24.5388 9.32827 23.033 9.32124C21.515 9.31305 20.351 8.18965 20.362 6.74093C20.3718 5.30391 21.5529 4.18753 23.06 4.18987Z" fill="white"/>
</svg>
