<svg width="29" height="24" viewBox="0 0 29 24" fill="none" xmlns="http://www.w3.org/2000/svg">
<path d="M29 2.28035C29 8.76226 29 15.2448 29 21.7267C28.3413 23.1418 27.2507 23.9901 25.5384 23.9907C18.1868 23.9939 10.8351 24.0163 3.48418 23.9773C1.25936 23.9658 0.0410311 22.702 0.0396645 20.6205C0.0348813 15.0214 0.120977 9.42034 0.00139961 3.82312C-0.054631 1.18631 1.57572 -0.023898 4.15723 0.000357251C11.0558 0.0641869 17.9551 0.0501444 24.8537 0.00418703C26.7882 -0.0092172 28.2251 0.554399 29 2.28035ZM1.18009 7.32545C1.1063 7.44609 1.03728 7.50609 1.0366 7.56673C1.02703 12.001 0.975786 16.4352 1.0448 20.8688C1.06803 22.3376 2.0185 23.0046 3.67277 23.0065C10.9069 23.0135 18.1417 23.0141 25.3758 23.0058C27.0984 23.0039 28.0017 22.259 28.0174 20.6473C28.0605 16.3191 28.0236 11.9895 28.0126 7.66056C28.0126 7.56417 27.9402 7.46779 27.8828 7.32545C18.9719 7.32545 10.0582 7.32545 1.18009 7.32545ZM28.0345 6.25694C28.0345 5.23694 28.0687 4.32609 28.027 3.41844C27.9498 1.74674 27.1161 1.01142 25.3197 1.00248C23.0601 0.991632 20.8004 0.99993 18.5407 0.99993C13.5697 0.99993 8.59869 0.992909 3.62768 1.0044C2.02875 1.00823 1.18283 1.6561 1.04822 3.08205C0.950504 4.11801 1.02908 5.16801 1.02908 6.25694C10.0541 6.25694 18.9671 6.25694 28.0345 6.25694Z" fill="white"/>
<path d="M15.8341 10.3955C15.1911 13.2825 14.6062 15.9646 13.9748 18.6372C13.9208 18.8657 13.5587 19.031 13.3394 19.2257C13.2177 18.9691 12.9485 18.6857 12.9963 18.4604C13.5676 15.7757 14.1737 13.0974 14.8167 10.4268C14.8679 10.2149 15.2615 10.0744 15.4959 9.90083C15.6407 10.1134 15.7863 10.3259 15.8341 10.3955Z" fill="white"/>
<path d="M9.1706 14.5285C10.0473 15.2326 10.8331 15.8236 11.558 16.474C11.7378 16.6355 11.72 16.9885 11.7924 17.254C11.5 17.226 11.1255 17.2962 10.9287 17.1532C10.0117 16.4881 9.10705 15.7987 8.28709 15.034C8.09713 14.8566 8.09645 14.1972 8.2864 14.0217C9.13643 13.236 10.0719 12.5275 11.0141 11.8349C11.1809 11.7124 11.5246 11.8004 11.787 11.7915C11.7439 12.0328 11.7938 12.3653 11.6428 12.5C10.8864 13.1734 10.0767 13.7951 9.1706 14.5285Z" fill="white"/>
<path d="M19.8587 14.5298C19.0148 13.8468 18.2365 13.2544 17.515 12.6072C17.3243 12.4361 17.3086 12.094 17.213 11.8304C17.5307 11.861 17.9338 11.787 18.1505 11.9408C19.0442 12.5759 19.8826 13.2787 20.7388 13.9598C21.2137 14.3376 21.2157 14.7187 20.7354 15.0985C19.8485 15.8 18.982 16.5257 18.0623 17.187C17.8778 17.3198 17.4952 17.2119 17.2041 17.2151C17.2758 16.9738 17.2663 16.6521 17.4337 16.5053C18.1894 15.8402 18.9943 15.2249 19.8587 14.5298Z" fill="white"/>
<path d="M9.73036 3.82371C9.62581 4.6286 8.85231 5.17052 7.96334 5.03903C7.0812 4.90818 6.68283 4.3452 6.69103 3.5735C6.69992 2.77882 7.53149 2.19605 8.39723 2.28605C9.19055 2.36967 9.82465 3.09988 9.73036 3.82371Z" fill="white"/>
<path d="M5.04694 3.63275C5.05993 4.44275 4.44496 5.03892 3.584 5.05041C2.71484 5.0619 2.08005 4.49062 2.06639 3.68509C2.05272 2.87127 2.66017 2.28339 3.52865 2.26999C4.40259 2.25659 5.03396 2.82339 5.04694 3.63275Z" fill="white"/>
<path d="M12.8604 2.28538C13.707 2.28666 14.3534 2.89623 14.3506 3.68964C14.3479 4.47474 13.6851 5.08814 12.8453 5.08431C11.9987 5.07985 11.3496 4.46708 11.3557 3.67687C11.3612 2.89304 12.0199 2.28411 12.8604 2.28538Z" fill="white"/>
</svg>
