<svg xmlns="http://www.w3.org/2000/svg" width="44" height="42" fill="none"><path fill="url(#a)" d="M39.124 26.13c.923 3.01.602 5.749-1.144 8.078 1.598 1.724 3.13 3.382 4.667 5.037.238.258.493.501.743.745.514.501.924 1.059.28 1.71-.602.607-1.113.181-1.58-.292-1.591-1.608-3.184-3.213-4.776-4.819-.273-.274-.553-.539-.864-.842-2.02 1.273-4.134 1.932-6.504 1.358-1.834-.445-3.394-1.348-4.489-2.9-.525-.747-1.088-.929-1.92-.926-7.253.028-14.505.016-21.757.014-1.697 0-1.84-.09-1.764-1.795.097-2.23-.021-4.545.534-6.664.973-3.72 3.482-6.14 7.239-7.009.523-.12 1.227-.13 1.655.133 3.261 1.99 6.585 1.667 9.87.246 1.315-.57 2.389-.495 3.611.108.412.204 1.104.138 1.532-.082 1.232-.634 2.32-1.072 3.785-.424 1.778.788 3.683.52 5.535-.127.59-.206 1.368-.232 1.949-.022 2.905 1.055 4.59 3.604 4.588 6.678-.003.89-.088 1.665-1.19 1.795ZM26.53 22.626c-1.516-.88-3.009-1.734-4.488-2.611-.648-.386-1.222-.362-1.94-.076-3.423 1.372-6.928 2.03-10.393.263-1.197-.61-2.19-.518-3.227.085-.697.404-1.389.865-1.967 1.424C1.784 24.34 1.78 27.758 1.9 31.29h21.865c.26-5.32.26-5.32 2.767-8.664Zm-.92 6.507c-.005 3.46 2.726 6.262 6.075 6.231 3.322-.03 6.026-2.783 6.05-6.16.022-3.44-2.693-6.273-6.038-6.3-3.342-.028-6.083 2.78-6.088 6.23Zm12.68-4.902c.17-2.04-1.058-3.9-3.017-4.677a1.66 1.66 0 0 0-1.076-.019c-2.345.835-4.666.811-7.01-.017-.386-.137-.858-.018-1.29-.018.555.756 1.166 1.172 1.682 1.688.442.444.82.508 1.415.303 3.222-1.11 6.053-.383 8.483 2.033.23.225.486.424.813.707Z"/><path fill="url(#b)" d="M22.953 8.184c.005 4.569-3.516 8.154-7.988 8.137-4.382-.016-7.952-3.622-7.986-8.073C6.939 3.793 10.587.024 14.958 0c4.388-.024 7.988 3.66 7.995 8.184ZM8.946 8.158c-.02 3.474 2.655 6.234 6.044 6.236 3.317.002 6.046-2.74 6.079-6.108.032-3.48-2.611-6.243-6.007-6.271-3.417-.03-6.095 2.66-6.116 6.143Z"/><path fill="url(#c)" d="M30.79 17.026c-3.048-.026-5.393-2.455-5.372-5.569.021-3.057 2.493-5.569 5.458-5.545 2.91.024 5.454 2.665 5.424 5.63-.035 3.06-2.495 5.51-5.51 5.484Zm3.538-5.533c-.005-2.027-1.535-3.578-3.519-3.569-1.977.01-3.516 1.582-3.507 3.585.01 1.968 1.61 3.597 3.533 3.597 1.94-.002 3.497-1.613 3.493-3.613Z"/><defs><linearGradient id="a" x1="0" x2="44" y1="42.001" y2="42.001" gradientUnits="userSpaceOnUse"><stop stop-color="#1723FF"/><stop offset="1" stop-color="#30E35E"/></linearGradient><linearGradient id="b" x1="0" x2="44" y1="42.001" y2="42.001" gradientUnits="userSpaceOnUse"><stop stop-color="#1723FF"/><stop offset="1" stop-color="#30E35E"/></linearGradient><linearGradient id="c" x1="0" x2="44" y1="42.001" y2="42.001" gradientUnits="userSpaceOnUse"><stop stop-color="#1723FF"/><stop offset="1" stop-color="#30E35E"/></linearGradient></defs></svg>