<svg xmlns="http://www.w3.org/2000/svg" width="45" height="45" fill="none"><path fill="url(#a)" d="M0 21.098c.111-.81.196-1.622.338-2.426C1.917 9.749 8.424 2.67 17.276.662c8.704-1.974 16.167.488 22.173 7.084 3.21 3.524 5.018 7.758 5.444 12.5.653 7.285-1.677 13.528-6.948 18.609-3.467 3.341-7.663 5.26-12.425 5.947-.533.077-1.069.132-1.604.198h-2.813c-.098-.025-.193-.066-.29-.073-1.908-.136-3.777-.486-5.57-1.15C7.068 40.752 2.108 34.954.356 26.422c-.17-.827-.24-1.674-.356-2.512v-2.812Zm43.516.968c-.164-11.463-9.763-20.715-21.333-20.559-11.606.155-20.893 9.73-20.668 21.43.222 11.613 9.777 20.798 21.45 20.552 11.58-.244 20.754-9.802 20.551-21.423Z"/><path fill="url(#b)" d="M22.93 42c-10.865.163-19.777-8.41-19.932-19.174-.155-10.775 8.455-19.663 19.197-19.82 10.84-.156 19.684 8.487 19.825 19.375.138 10.549-8.536 19.461-19.09 19.62ZM4.564 23.257c.079 5.242 3.012 11.815 9.584 15.145 6.575 3.331 13.033 2.845 19.021-1.45 4.62-3.313 6.95-7.987 7.34-13.695h-.57c-1.977 0-3.955.002-5.933 0-1.578 0-2.37-.687-2.624-2.239a8.413 8.413 0 0 0-1.17-3.128c-.116.172-.206.304-.292.437-.8 1.242-1.572 2.505-2.409 3.721-.704 1.023-1.415 2.058-2.247 2.974-1.87 2.059-5.188 1.441-6.228-1.106-.628-1.537-.243-3.258 1.154-4.343 1.546-1.201 3.185-2.284 4.798-3.398.684-.472 1.404-.893 2.14-1.358-.136-.087-.23-.155-.33-.211-5.351-2.996-12.266.394-13.171 6.456-.218 1.457-1.061 2.19-2.531 2.194-1.378.004-2.754.002-4.132.002h-2.4Zm17.17-18.689c-3.835.016-8.539 1.88-11.31 4.661l5.285 5.286c1.71-1.446 3.736-2.269 6.025-2.482V4.567Zm-12.51 5.796C6.331 13.588 4.75 17.361 4.527 21.71c.112.021.154.036.198.036 2.183.003 4.364.007 6.547 0 .535-.002.77-.242.855-.805.28-1.865 1.024-3.526 2.203-4.997.08-.098.15-.205.2-.273l-5.305-5.31ZM23.3 4.528v7.509c1.86.172 3.541.752 5.077 1.762.106.069.335.037.462-.03.655-.356 1.258-.866 1.952-1.07.566-.165.938-.468 1.314-.845.445-.446.888-.894 1.337-1.336.413-.408.832-.808 1.278-1.24-3.289-2.937-7.05-4.513-11.42-4.75Zm12.453 5.789c-.927.93-1.812 1.824-2.703 2.711-.328.327-.685.62-.685 1.154 0 .158-.122.325-.21.475-.264.454-.517.918-.819 1.348-.217.31-.207.533.005.852.804 1.208 1.299 2.546 1.536 3.977.123.746.31.916 1.067.916h6.104c.14 0 .28-.017.45-.027-.245-4.368-1.809-8.13-4.745-11.406Zm-5.38 4.438-.078-.075c-.049.021-.103.035-.148.063-2.667 1.718-5.338 3.427-7.993 5.165a7.285 7.285 0 0 0-1.33 1.138c-.657.705-.733 1.737-.262 2.568.463.816 1.361 1.24 2.303 1.106.81-.115 1.337-.635 1.777-1.251.926-1.297 1.856-2.592 2.728-3.924 1.033-1.577 2.006-3.193 3.004-4.79Z"/><path fill="url(#c)" d="M16.813 32.255c.811.807 1.591 1.558 2.337 2.34.174.185.34.49.315.718-.023.222-.26.534-.468.596-.228.07-.601-.016-.786-.178-.56-.49-1.06-1.049-1.698-1.556 0 .336.013.674-.002 1.009-.027.582-.458.927-.962.776-.35-.106-.53-.355-.53-.719-.004-1.99-.008-3.98.002-5.97.002-.455.323-.767.733-.768.405-.001.718.307.755.762.014.174.005.351.006.526v.644l1.456-1.454c.547-.545.948-.622 1.315-.252.365.368.288.772-.256 1.315l-2.217 2.21Z"/><path fill="url(#d)" d="M22.51 32.988c0 .757.003 1.428-.002 2.1-.003.561-.277.896-.731.909-.467.013-.763-.337-.765-.917-.002-1.887-.002-3.772 0-5.658.002-.642.265-.92.897-.924.555-.003 1.118-.031 1.664.043 1.203.161 1.99 1.163 1.926 2.372-.058 1.109-.958 1.996-2.115 2.073-.273.019-.55.002-.874.002Zm.018-1.489c.522-.044 1.093.178 1.367-.403.099-.207.077-.572-.048-.765-.315-.49-.84-.31-1.319-.327v1.495Z"/><path fill="url(#e)" d="M28.504 32.292c0 .936.004 1.873-.001 2.809-.003.56-.286.895-.74.896-.452.001-.755-.34-.756-.89-.005-1.902-.005-3.804 0-5.706.001-.549.302-.898.75-.9.45-.003.743.34.746.893.005.966.001 1.933.001 2.898Z"/><defs><linearGradient id="a" x1="0" x2="45" y1="45.001" y2="45.001" gradientUnits="userSpaceOnUse"><stop stop-color="#1723FF"/><stop offset="1" stop-color="#30E35E"/></linearGradient><linearGradient id="b" x1="0" x2="45" y1="45.001" y2="45.001" gradientUnits="userSpaceOnUse"><stop stop-color="#1723FF"/><stop offset="1" stop-color="#30E35E"/></linearGradient><linearGradient id="c" x1="0" x2="45" y1="45.001" y2="45.001" gradientUnits="userSpaceOnUse"><stop stop-color="#1723FF"/><stop offset="1" stop-color="#30E35E"/></linearGradient><linearGradient id="d" x1="0" x2="45" y1="45.001" y2="45.001" gradientUnits="userSpaceOnUse"><stop stop-color="#1723FF"/><stop offset="1" stop-color="#30E35E"/></linearGradient><linearGradient id="e" x1="0" x2="45" y1="45.001" y2="45.001" gradientUnits="userSpaceOnUse"><stop stop-color="#1723FF"/><stop offset="1" stop-color="#30E35E"/></linearGradient></defs></svg>