<svg width="1390" height="235" viewBox="0 0 1390 235" fill="none" xmlns="http://www.w3.org/2000/svg">
<path d="M1263.59 168C1263.5 198.574 1239.2 223 1209.76 223C1180.33 223 1156.18 198.574 1156.28 168C1156.37 137.426 1180.67 113 1210.11 113C1239.54 113 1263.69 137.426 1263.59 168Z" stroke="url(#paint0_linear_127_8)" stroke-width="20"/>
<path fill-rule="evenodd" clip-rule="evenodd" d="M1387.87 164.499L1329.87 164.499C1275.66 241.587 1169.77 192.746 1053.95 177.499C939.148 161.493 809.682 74.8217 693.855 38.2858C578.027 1.74984 462.213 -8.17479 346.413 6.99125C231.629 22.918 115.842 63.935 57.9494 85.2039L0.0561512 105.712L0.105862 199.232L58.0101 199.252C115.914 199.273 231.723 199.313 346.515 199.353C462.324 199.393 578.132 199.434 693.94 199.474C809.749 199.515 925.557 199.555 1040.35 199.595C1156.16 199.636 1271.97 199.676 1329.87 199.696L1387.77 199.717L1387.9 152.115L1387.94 140.615L1387.87 164.499Z" fill="url(#paint1_linear_127_8)"/>
<path fill-rule="evenodd" clip-rule="evenodd" d="M1389.91 140.487L1331.94 156.5C1273.97 171.749 1158.02 185.263 1042.07 169.967C927.13 153.909 811.167 109.04 695.206 72.3733C579.245 35.7066 463.291 25.7535 347.343 40.9878C232.413 56.9855 116.472 98.1703 58.5023 119.526L0.531993 140.118L0.556548 233.998L58.5323 234.013C116.508 234.029 232.459 234.06 347.394 234.09C463.345 234.121 579.297 234.152 695.248 234.182C811.199 234.213 927.151 234.244 1042.09 234.274C1158.04 234.305 1273.99 234.336 1331.96 234.351L1389.94 234.367L1389.91 140.487Z" fill="white"/>
<defs>
<linearGradient id="paint0_linear_127_8" x1="1146.08" y1="233.003" x2="1273.39" y2="233.398" gradientUnits="userSpaceOnUse">
<stop stop-color="#1723FF"/>
<stop offset="1" stop-color="#30E35E"/>
</linearGradient>
<linearGradient id="paint1_linear_127_8" x1="1387.77" y1="199.721" x2="0.106613" y2="200.459" gradientUnits="userSpaceOnUse">
<stop offset="0.311011" stop-color="#1723FF"/>
<stop offset="1" stop-color="#30E35E"/>
</linearGradient>
</defs>
</svg>
