<svg width="1335" height="513" viewBox="0 0 1335 513" fill="none" xmlns="http://www.w3.org/2000/svg">
<circle cx="30.2954" cy="130.295" r="58.1967" transform="rotate(-15.824 30.2954 130.295)" stroke="url(#paint0_linear_116_312)" stroke-width="25"/>
<path fill-rule="evenodd" clip-rule="evenodd" d="M-234 16.6346L-167.236 50.6346C-100.471 84.6346 33.0571 153.635 166.586 201.635C298.943 248.635 432.471 276.635 566 242.635C699.529 207.635 833.057 112.635 966.586 98.6346C1098.94 84.6346 1232.47 153.635 1299.24 187.635L1366 221.635V344.635H1299.24C1232.47 344.635 1098.94 344.635 966.586 344.635C833.057 344.635 699.529 344.635 566 344.635C432.471 344.635 298.943 344.635 166.586 344.635C33.0571 344.635 -100.471 344.635 -167.236 344.635H-234V16.6346Z" fill="url(#paint1_linear_116_312)"/>
<path fill-rule="evenodd" clip-rule="evenodd" d="M-107.959 208.961L-55.9407 219.752C-5.06018 230.503 97.8843 250.77 202.014 237.91C306.189 223.775 411.594 175.239 516.043 153.459C620.537 130.406 725.212 134.15 827.199 181.175C929.186 228.2 1029.58 319.82 1133.75 305.685C1237.93 291.551 1345.8 174.21 1399.18 114.882L1453.71 55.5944L1438.76 473.517L1386.42 471.645C1335.22 469.813 1231.68 466.11 1128.15 462.406C1024.61 458.702 921.073 454.999 817.537 451.295C714 447.592 609.325 443.847 505.788 440.144C402.251 436.44 298.714 432.737 195.177 429.033C91.6402 425.329 -11.8968 421.626 -63.0964 419.794L-115.434 417.922L-107.959 208.961Z" fill="#F3F3F3"/>
<path fill-rule="evenodd" clip-rule="evenodd" d="M-86 355L-35.2518 361.744C14.3931 368.488 114.786 381.012 215.179 368.488C315.572 355 415.966 315.5 516.359 296.232C616.752 276 718.248 276 818.641 308.756C919.034 341.512 1019.43 407.988 1119.82 394.5C1220.21 381.012 1320.61 289.488 1370.25 243.244L1421 197V513H1370.25C1320.61 513 1220.21 513 1119.82 513C1019.43 513 919.034 513 818.641 513C718.248 513 616.752 513 516.359 513C415.966 513 315.572 513 215.179 513C114.786 513 14.3931 513 -35.2518 513H-86V355Z" fill="white"/>
<circle cx="361.5" cy="344.5" r="15.5" stroke="url(#paint2_linear_116_312)" stroke-width="8"/>
<circle cx="1062" cy="325" r="77" stroke="white" stroke-width="20"/>
<defs>
<linearGradient id="paint0_linear_116_312" x1="-40.4013" y1="200.995" x2="100.992" y2="200.995" gradientUnits="userSpaceOnUse">
<stop stop-color="#1723FF"/>
<stop offset="1" stop-color="#30E35E"/>
</linearGradient>
<linearGradient id="paint1_linear_116_312" x1="-234" y1="344.642" x2="1366" y2="344.642" gradientUnits="userSpaceOnUse">
<stop stop-color="#1723FF"/>
<stop offset="1" stop-color="#30E35E"/>
</linearGradient>
<linearGradient id="paint2_linear_116_312" x1="342" y1="364.001" x2="381" y2="364.001" gradientUnits="userSpaceOnUse">
<stop stop-color="#1723FF"/>
<stop offset="1" stop-color="#30E35E"/>
</linearGradient>
</defs>
</svg>
