<svg width="1335" height="513" fill="none" xmlns="http://www.w3.org/2000/svg"><circle cx="30.295" cy="130.295" r="58.197" transform="rotate(-15.824 30.295 130.295)" stroke="url(#a)" stroke-width="25"/><path fill-rule="evenodd" clip-rule="evenodd" d="m-234 16.635 66.764 34c66.765 34 200.293 103 333.822 151 132.357 47 265.885 75 399.414 41 133.529-35 267.057-130 400.586-144 132.354-14 265.884 55 332.654 89l66.76 34v123H-234v-328Z" fill="url(#b)"/><path fill-rule="evenodd" clip-rule="evenodd" d="m-107.959 208.961 52.018 10.791c50.88 10.751 153.825 31.018 257.955 18.158 104.175-14.135 209.58-62.671 314.029-84.451 104.494-23.053 209.169-19.309 311.156 27.716C929.186 228.2 1029.58 319.82 1133.75 305.685c104.18-14.134 212.05-131.475 265.43-190.803l54.53-59.288-14.95 417.923-52.34-1.872-258.27-9.239-310.613-11.111-311.749-11.151-310.611-11.111-258.273-9.239-52.338-1.872 7.475-208.961Z" fill="#F3F3F3"/><path fill-rule="evenodd" clip-rule="evenodd" d="m-86 355 50.748 6.744c49.645 6.744 150.038 19.268 250.431 6.744C315.572 355 415.966 315.5 516.359 296.232 616.752 276 718.248 276 818.641 308.756c100.393 32.756 200.789 99.232 301.179 85.744 100.39-13.488 200.79-105.012 250.43-151.256L1421 197v316H-86V355Z" fill="#fff"/><circle cx="361.5" cy="344.5" r="15.5" stroke="url(#c)" stroke-width="8"/><circle cx="1062" cy="325" r="77" stroke="#fff" stroke-width="20"/><defs><linearGradient id="a" x1="-40.401" y1="200.995" x2="100.992" y2="200.995" gradientUnits="userSpaceOnUse"><stop stop-color="#1723FF"/><stop offset="1" stop-color="#30E35E"/></linearGradient><linearGradient id="b" x1="-234" y1="344.642" x2="1366" y2="344.642" gradientUnits="userSpaceOnUse"><stop stop-color="#1723FF"/><stop offset="1" stop-color="#30E35E"/></linearGradient><linearGradient id="c" x1="342" y1="364.001" x2="381" y2="364.001" gradientUnits="userSpaceOnUse"><stop stop-color="#1723FF"/><stop offset="1" stop-color="#30E35E"/></linearGradient></defs></svg>