<svg width="29" height="23" fill="none" xmlns="http://www.w3.org/2000/svg"><path d="M28.999 7.707c-.235.55-.677.857-1.19 1.107-1.156.559-2.298 1.145-3.451 1.708-.182.089-.236.193-.236.391.008 2.144-.002 4.287.01 6.43.003.332-.096.587-.306.83-1.778 2.063-3.993 3.38-6.633 3.937-2.592.546-5.133.345-7.593-.676a11.713 11.713 0 0 1-4.554-3.353.952.952 0 0 1-.227-.653c.006-2.182 0-4.364.008-6.546.001-.2-.056-.303-.239-.387-.495-.23-.979-.482-1.5-.742-.009.107-.02.186-.02.265l-.001 4.278c0 .135-.006.24.152.325.574.305.877.796.87 1.461-.008.662-.31 1.146-.886 1.454-.024.013-.044.035-.089.072l1.482 4.78H.405l1.48-4.777c-.148-.107-.296-.195-.42-.307-.844-.761-.716-2.08.262-2.648.165-.096.212-.197.211-.38a393.2 393.2 0 0 1 .003-4.822c.002-.236-.088-.33-.273-.422-.378-.191-.772-.368-1.11-.62-.75-.564-.738-1.45.004-2.028.17-.133.363-.24.558-.334C4.95 4.19 8.778 2.33 12.612.486c1.357-.653 2.732-.65 4.088.02 3.68 1.82 7.355 3.65 11.038 5.463.56.276 1.052.59 1.262 1.222l-.001.516ZM1.006 7.442c.21.138.342.242.489.318.284.147.572.292.87.41.168.067.36.113.539.104.375-.02.748-.084 1.122-.129 1.365-.164 2.73-.33 4.096-.493l3.62-.433c.86-.104 1.72-.214 2.581-.309.408-.045.657.132.691.454.037.33-.156.544-.57.605-.382.056-.767.09-1.15.136l-3.591.423-3.676.44-1.622.197c.156.08.24.12.322.161 2.766 1.347 5.531 2.696 8.298 4.037 1.068.517 2.139.522 3.21-.008 2.525-1.25 5.051-2.496 7.577-3.745 1.21-.6 2.418-1.2 3.623-1.808.184-.094.347-.232.58-.39-.213-.142-.344-.25-.491-.323-3.795-1.883-7.59-3.77-11.392-5.64-.959-.472-1.972-.487-2.928-.027-3.929 1.89-7.842 3.811-11.76 5.723-.13.064-.244.164-.438.297Zm22.05 3.688c-.143.066-.236.107-.328.153-2.003.995-4.009 1.982-6.007 2.986-1.407.707-2.808.69-4.211.013-2.091-1.008-4.177-2.026-6.266-3.037-.09-.043-.18-.081-.28-.126-.015.06-.027.088-.027.115-.001 2.02-.004 4.038.004 6.057 0 .11.062.244.14.323.393.398.78.809 1.206 1.167 1.837 1.54 3.97 2.352 6.332 2.529 1.091.08 2.183.019 3.262-.214 2.377-.513 4.397-1.653 6.02-3.494a.666.666 0 0 0 .147-.402c.01-1.608.006-3.216.006-4.822l.001-1.248Z" fill="#fff"/></svg>