<svg width="27" height="36" fill="none" xmlns="http://www.w3.org/2000/svg"><path d="M13.502 26.501v-3.4m0 0c.585 0 1.16-.156 1.667-.455a3.366 3.366 0 0 0 1.22-1.244m-2.887 1.7c-.585 0-1.16-.157-1.666-.456a3.366 3.366 0 0 1-1.22-1.244m7.053 9.349H9.337m8.332 0c0-1.212 0-1.819.063-2.222.205-1.297.24-1.38 1.051-2.4.252-.316 1.185-1.17 3.053-2.876a12.706 12.706 0 0 0 3.078-4.295A12.934 12.934 0 0 0 26 13.754a12.926 12.926 0 0 0-.712-4.25m-7.62 21.247c0 1.589 0 2.383-.334 2.974-.22.388-.535.71-.915.933-.58.342-1.358.342-2.916.342-1.558 0-2.336 0-2.916-.342a2.525 2.525 0 0 1-.915-.933c-.335-.591-.335-1.385-.335-2.974m0 0c0-1.212 0-1.819-.063-2.222-.205-1.297-.24-1.38-1.052-2.4-.251-.316-1.186-1.17-3.052-2.876a12.835 12.835 0 0 1-4.098-8.136 12.94 12.94 0 0 1 2.3-8.84 12.48 12.48 0 0 1 7.512-4.995c3.023-.66 6.18-.153 8.857 1.423" stroke="#fff" stroke-linecap="round"/></svg>