<svg width="31" height="26" fill="none" xmlns="http://www.w3.org/2000/svg"><path d="M31 2.47v21.067c-.704 1.533-1.87 2.452-3.7 2.453-7.859.003-15.718.028-23.576-.015-2.378-.012-3.68-1.381-3.682-3.636C.037 16.273.13 10.205.002 4.142-.059 1.285 1.683-.026 4.443 0c7.374.07 14.75.054 22.124.005C28.636-.01 30.172.6 31 2.47ZM1.261 7.936c-.078.13-.152.196-.153.261-.01 4.804-.065 9.608.009 14.41.025 1.592 1.04 2.315 2.81 2.317 7.732.007 15.466.008 23.199-.001 1.841-.002 2.807-.809 2.824-2.555.046-4.689.006-9.38-.005-14.07 0-.103-.078-.208-.14-.362H1.262Zm28.707-1.158c0-1.105.036-2.091-.008-3.075-.083-1.81-.974-2.607-2.894-2.617-2.416-.012-4.831-.003-7.247-.003-5.313 0-10.627-.007-15.941.005-1.71.004-2.614.706-2.757 2.25-.105 1.123-.02 2.26-.02 3.44h28.867Z" fill="#fff"/><path d="M16.926 11.262c-.687 3.127-1.312 6.033-1.987 8.928-.058.248-.445.427-.68.638-.13-.278-.418-.585-.366-.83a339.58 339.58 0 0 1 1.945-8.702c.055-.23.476-.382.726-.57l.362.536ZM9.803 15.74c.937.762 1.777 1.402 2.552 2.107.192.175.173.557.25.845-.312-.03-.712.046-.923-.11-.98-.72-1.947-1.467-2.823-2.295-.203-.192-.204-.907-.001-1.097.909-.851 1.909-1.619 2.916-2.369.178-.133.545-.037.826-.047-.046.262.007.622-.154.768-.809.73-1.674 1.403-2.643 2.197ZM21.228 15.74c-.902-.74-1.734-1.381-2.505-2.082-.204-.185-.22-.556-.323-.842.34.034.77-.047 1.002.12.956.688 1.852 1.45 2.767 2.187.508.41.51.822-.004 1.234-.948.76-1.874 1.546-2.857 2.262-.197.144-.606.027-.917.03.076-.26.066-.61.245-.768.808-.72 1.668-1.387 2.592-2.14ZM10.401 4.142c-.111.872-.938 1.46-1.888 1.317-.943-.142-1.37-.752-1.36-1.588.009-.86.898-1.492 1.823-1.394.848.09 1.526.881 1.425 1.665ZM5.395 3.935c.014.878-.643 1.524-1.564 1.536-.929.013-1.607-.606-1.622-1.479-.015-.881.635-1.518 1.563-1.533.934-.014 1.61.6 1.623 1.476ZM13.747 2.476c.905.001 1.596.662 1.593 1.521-.003.85-.711 1.515-1.609 1.511-.905-.005-1.599-.669-1.592-1.525.006-.849.71-1.509 1.608-1.507Z" fill="#fff"/></svg>