<svg width="32" height="37" fill="none" xmlns="http://www.w3.org/2000/svg"><path d="M9.365 34.321c.275.543.417 1.226.847 1.572.616.493 1.438 1.032 2.18 1.045 5.274.088 10.548.065 15.824.036 1.665-.01 2.853-1.174 2.855-2.775.014-10.466.014-20.93-.004-31.396-.002-1.6-1.18-2.765-2.853-2.777C22.94-.008 17.664-.008 12.39.021c-1.658.01-2.81 1.203-2.896 2.883-.042.792.003 1.586-.014 2.378-.016.751.141 1.463-.673 2.107-.395.312-.265 1.296-.295 1.98-.033.774-.183 1.623.807 2.047.098.042.155.274.155.417.01 2.147.006 4.294.006 6.431C3.116 18.773-.07 21.603 0 26.6c.065 4.566 3.54 7.423 9.364 7.722ZM29.793 6.296c.055.19.088.25.088.308.006 9.137.014 18.27.006 27.407-.002 1.144-.726 1.81-1.927 1.812-5.112.01-10.225.019-15.335-.02-.472-.003-1.032-.239-1.392-.545-.718-.61-.506-1.162.297-1.647 1.042-.63 2.168-1.258 2.953-2.143 3.657-4.119 2.153-10.202-2.977-12.492-.309-.137-.7-.538-.704-.82-.041-5.107-.037-10.213-.018-15.32.004-.975.667-1.648 1.652-1.652 5.24-.023 10.483-.021 15.727-.002.926.004 1.634.649 1.708 1.53.063.748.014 1.506.014 2.366h-1.24c-4.653 0-9.307-.01-13.96.013-.548.002-1.46-.302-1.45.62.01.825.867.572 1.405.577 2.195.023 4.391.01 6.587.01 2.842-.002 5.689-.002 8.566-.002ZM15.228 26.314c.002 3.742-3.097 6.785-6.953 6.829-3.828.044-7.09-3.09-7.094-6.818-.006-3.738 3.235-6.856 7.083-6.814 3.873.042 6.962 3.059 6.964 6.803Z" fill="#fff"/><path d="M22.087 32.768c.002-1.243-1.058-2.269-2.31-2.237-1.202.03-2.248 1.062-2.254 2.224-.006 1.202 1.097 2.259 2.336 2.232 1.235-.026 2.226-1.014 2.228-2.22Zm-2.069-1.155c.28.378.72.729.8 1.142.118.616-.361 1.086-.992.955-.394-.082-.9-.525-.994-.895-.149-.582.278-.993 1.186-1.202ZM15.384 3.306c.357.23.76.685 1.063.63.335-.061.77-.571.803-.918.023-.255-.525-.782-.824-.786-.346-.004-.698.432-1.048.678l.006.396ZM4.054 26.317c.73-.753 1.431-1.416 2.043-2.147.188-.224.133-.641.19-.968-.342.045-.798-.027-1.004.16-.834.751-1.587 1.589-2.382 2.382-.389.39-.41.745-.01 1.144.797.794 1.544 1.633 2.378 2.387.208.189.66.124 1 .173-.046-.325.02-.742-.162-.963-.612-.732-1.314-1.399-2.053-2.168ZM12.415 26.315c-.72.735-1.41 1.367-1.998 2.079-.209.253-.167.698-.24 1.056.36-.076.826-.042 1.064-.25.77-.68 1.443-1.465 2.182-2.178.486-.47.545-.872.028-1.367-.72-.689-1.357-1.462-2.104-2.12-.272-.238-.936-.463-1.11-.324-.536.423-.062.824.274 1.169.604.616 1.211 1.231 1.904 1.935ZM9.526 28.969c-.49-1.927-.922-3.704-1.42-5.465-.053-.188-.485-.276-.743-.41-.132.252-.419.54-.37.755.396 1.753.836 3.498 1.32 5.23.057.204.478.453.704.432.204-.02.371-.384.509-.542Z" fill="#fff"/></svg>