<svg width="27" height="26" fill="none" xmlns="http://www.w3.org/2000/svg"><path d="M24.008 16.176c.567 1.863.37 3.558-.702 5 .98 1.068 1.92 2.094 2.864 3.118.146.16.302.31.456.462.315.31.566.655.172 1.058-.37.376-.684.113-.97-.18-.976-.996-1.954-1.99-2.93-2.983-.168-.17-.34-.334-.53-.522-1.24.788-2.538 1.196-3.992.84-1.125-.275-2.082-.834-2.754-1.794-.323-.463-.668-.575-1.18-.574-4.45.018-8.9.01-13.35.009-1.041 0-1.13-.056-1.082-1.111.06-1.38-.013-2.814.328-4.125.596-2.303 2.136-3.802 4.441-4.34.321-.074.753-.08 1.016.083 2.001 1.232 4.041 1.032 6.057.152.807-.353 1.466-.306 2.216.067.252.126.677.085.94-.051.756-.392 1.423-.663 2.322-.262 1.091.487 2.26.322 3.397-.08.362-.126.84-.143 1.196-.012 1.782.653 2.816 2.23 2.815 4.134-.002.55-.054 1.03-.73 1.11Zm-7.727-2.17c-.93-.544-1.847-1.073-2.754-1.616-.398-.238-.75-.224-1.19-.047-2.102.85-4.252 1.256-6.379.163-.734-.378-1.343-.32-1.98.053-.427.25-.852.535-1.207.88-1.676 1.629-1.679 3.745-1.605 5.93h13.417c.16-3.293.16-3.293 1.698-5.363Zm-.566 4.029c-.002 2.142 1.674 3.876 3.729 3.857 2.038-.019 3.697-1.723 3.712-3.813.014-2.13-1.652-3.884-3.705-3.9-2.051-.018-3.733 1.72-3.736 3.856ZM23.497 15c.105-1.263-.65-2.414-1.851-2.895a1.011 1.011 0 0 0-.66-.012c-1.44.517-2.864.502-4.302-.01-.237-.085-.527-.012-.793-.012.341.469.716.726 1.033 1.045.271.276.503.315.868.188 1.977-.687 3.714-.238 5.206 1.259.14.139.298.262.498.437ZM14.085 5.067c.003 2.828-2.158 5.047-4.902 5.037-2.69-.01-4.88-2.243-4.9-4.998C4.257 2.348 6.496.015 9.178 0c2.693-.015 4.902 2.266 4.906 5.067ZM5.49 5.05C5.477 7.2 7.119 8.91 9.198 8.91c2.036.002 3.71-1.696 3.73-3.78.02-2.155-1.602-3.865-3.686-3.883-2.096-.019-3.74 1.647-3.752 3.803ZM18.894 10.54c-1.87-.016-3.31-1.52-3.296-3.447.012-1.893 1.53-3.448 3.349-3.433 1.785.014 3.346 1.65 3.328 3.485-.021 1.894-1.531 3.411-3.38 3.395Zm2.17-3.426c-.002-1.254-.941-2.214-2.158-2.209-1.213.006-2.158.98-2.152 2.22.005 1.218.987 2.226 2.167 2.226 1.19-.001 2.147-.998 2.144-2.237Z" fill="#fff"/></svg>