<svg width="29" height="29" fill="none" xmlns="http://www.w3.org/2000/svg"><path d="M0 13.597c.072-.522.126-1.046.218-1.564C1.235 6.283 5.428 1.72 11.133.427c5.61-1.272 10.42.314 14.29 4.565 2.068 2.271 3.234 5 3.508 8.056.42 4.694-1.08 8.718-4.477 11.992-2.235 2.153-4.939 3.39-8.008 3.832-.343.05-.689.086-1.033.128H13.6c-.063-.016-.124-.042-.188-.047-1.229-.087-2.433-.313-3.589-.741-5.268-1.95-8.465-5.686-9.593-11.184-.11-.533-.155-1.08-.23-1.62v-1.811Zm28.044.623C27.938 6.833 21.752.87 14.295.971 6.816 1.071.831 7.241.976 14.782 1.12 22.266 7.277 28.184 14.8 28.026c7.463-.157 13.376-6.317 13.245-13.806Z" fill="#fff"/><path d="M14.777 27.067c-7.002.105-12.745-5.42-12.845-12.357-.1-6.944 5.449-12.672 12.372-12.772 6.985-.101 12.684 5.469 12.776 12.486.088 6.797-5.501 12.541-12.303 12.643ZM2.942 14.987c.05 3.379 1.941 7.615 6.177 9.76 4.237 2.147 8.398 1.834 12.257-.933 2.978-2.136 4.48-5.149 4.73-8.826H21.916c-1.017-.001-1.527-.444-1.691-1.443a5.423 5.423 0 0 0-.755-2.016c-.074.11-.132.195-.187.281-.516.8-1.014 1.614-1.553 2.398-.454.66-.912 1.326-1.448 1.917-1.205 1.326-3.344.928-4.014-.713-.405-.99-.156-2.1.744-2.8.996-.773 2.053-1.47 3.092-2.189.44-.304.905-.575 1.379-.875-.088-.056-.148-.1-.212-.136-3.45-1.93-7.905.254-8.489 4.16-.14.94-.683 1.413-1.63 1.415-.889.002-1.776 0-2.663 0H2.942ZM14.007 2.944c-2.471.01-5.503 1.212-7.289 3.004l3.406 3.406c1.102-.932 2.408-1.462 3.883-1.599v-4.81ZM5.945 6.678c-1.865 2.08-2.884 4.51-3.028 7.314.073.013.1.023.128.023 1.407.002 2.813.005 4.22 0 .344-.002.496-.156.55-.519a6.642 6.642 0 0 1 1.42-3.22c.051-.063.097-.132.128-.176L5.945 6.678Zm9.07-3.76v4.839a7.022 7.022 0 0 1 3.272 1.136c.068.044.216.024.298-.02.422-.229.81-.558 1.258-.69.364-.106.604-.3.846-.544.287-.287.572-.576.862-.86.266-.263.536-.522.823-.8-2.119-1.892-4.543-2.908-7.36-3.061Zm8.025 3.73c-.597.6-1.167 1.176-1.741 1.748-.212.21-.442.4-.442.744 0 .101-.08.209-.135.305-.17.293-.334.592-.528.87-.14.199-.134.343.003.548a6.48 6.48 0 0 1 .99 2.563c.079.481.2.59.687.59h3.934c.09 0 .18-.01.29-.017-.157-2.815-1.165-5.239-3.058-7.35Zm-3.466 2.86-.051-.048c-.032.014-.067.023-.095.041-1.72 1.107-3.44 2.209-5.152 3.329a4.7 4.7 0 0 0-.856.733c-.424.454-.473 1.12-.17 1.655.299.526.878.799 1.484.713.523-.074.863-.41 1.146-.807.597-.836 1.196-1.67 1.758-2.529.665-1.016 1.293-2.057 1.936-3.086Z" fill="#fff"/><path d="M10.835 20.786c.523.52 1.025 1.005 1.506 1.509.112.119.219.315.203.462-.015.144-.168.344-.301.384a.624.624 0 0 1-.507-.114c-.36-.316-.683-.676-1.094-1.003 0 .217.008.434-.002.65-.017.375-.295.597-.62.5-.225-.068-.342-.229-.342-.463-.002-1.283-.004-2.565.002-3.847.001-.294.208-.495.473-.495.26-.001.462.198.486.49.01.113.003.227.004.34v.415l.939-.937c.352-.351.61-.401.846-.163.236.238.186.498-.164.848l-1.429 1.424ZM14.506 21.26c0 .487.002.92 0 1.352-.003.362-.18.578-.472.586-.3.008-.492-.217-.493-.591V18.96c.001-.414.171-.593.578-.595.358-.003.72-.02 1.072.027.776.104 1.283.75 1.242 1.529-.038.714-.617 1.286-1.363 1.336-.176.012-.354.001-.564.001Zm.012-.96c.336-.03.704.114.881-.26a.593.593 0 0 0-.03-.493c-.204-.316-.542-.2-.85-.211v.963ZM18.37 20.81c0 .604.002 1.207-.002 1.81-.001.361-.184.577-.476.578-.292 0-.487-.22-.488-.574a726.94 726.94 0 0 1 0-3.677c.001-.353.195-.578.484-.58.29-.001.479.22.48.575.004.623.001 1.246.001 1.869Z" fill="#fff"/></svg>