<svg width="15" height="15" viewBox="0 0 15 15" fill="none" xmlns="http://www.w3.org/2000/svg">
<path d="M7.94053 15C7.64773 15 7.35447 15 7.06167 15C7.02403 14.9917 6.98686 14.9784 6.94877 14.9757C5.77526 14.8931 4.67795 14.5572 3.67609 13.9438C1.73295 12.7531 0.536956 11.0367 0.117029 8.79122C0.0642512 8.51042 0.0380918 8.22411 0 7.94056C0 7.64783 0 7.35464 0 7.06191C0.00917874 7.01007 0.0192754 6.95822 0.0270773 6.90637C0.0738889 6.58336 0.100966 6.25622 0.169807 5.93826C0.56128 4.13738 1.4865 2.66181 2.95372 1.55054C4.77891 0.16811 6.83449 -0.290254 9.07594 0.176828C10.8699 0.550768 12.3284 1.49089 13.4441 2.94077C14.6488 4.50627 15.15 6.28926 14.9614 8.25164C14.8085 9.84146 14.1913 11.2455 13.1316 12.4439C11.97 13.7575 10.523 14.576 8.79324 14.8835C8.51099 14.9335 8.22461 14.9619 7.94053 15ZM6.33287 8.73845C6.0543 8.48381 5.78169 8.23329 5.50816 7.98415C5.09283 7.60654 4.68896 7.21516 4.25802 6.85682C3.85645 6.5228 3.23505 6.74303 3.11435 7.24269C3.03679 7.56295 3.14418 7.82448 3.38512 8.04288C4.19514 8.77745 5.00241 9.51478 5.81106 10.2507C6.19336 10.599 6.5908 10.5893 6.96116 10.2218C8.51374 8.68156 10.0663 7.14083 11.6185 5.60057C11.6598 5.55927 11.7011 5.51752 11.7382 5.47255C12.0402 5.10917 11.9438 4.57372 11.5345 4.33743C11.2128 4.15161 10.8663 4.21263 10.567 4.51132C9.19618 5.88091 7.8258 7.25141 6.45495 8.62191C6.41732 8.65907 6.37831 8.69486 6.33287 8.73845Z" fill="url(#paint0_linear_1173_1894)"/>
<defs>
<linearGradient id="paint0_linear_1173_1894" x1="3.26085" y1="15" x2="15.0001" y2="7.82617" gradientUnits="userSpaceOnUse">
<stop stop-color="#1723FF"/>
<stop offset="1" stop-color="#30E35E"/>
</linearGradient>
</defs>
</svg>
