<svg width="402" height="459" viewBox="0 0 402 459" fill="none" xmlns="http://www.w3.org/2000/svg">
<circle cx="180.5" cy="278.5" r="180.5" fill="#F8F8F8"/>
<circle cx="359.5" cy="42.5" r="37.5" stroke="#F8F8F8" stroke-width="10"/>
<path d="M246.323 274.516L84.0254 180.637C75.7298 175.851 69 162.978 69 151.906V61.4455C69 50.3734 75.7298 45.2875 84.0254 50.0732L246.323 143.952C254.618 148.755 261.348 161.611 261.348 172.683V263.144C261.348 274.233 254.618 279.319 246.323 274.516Z" fill="url(#paint0_linear_133_59)"/>
<path d="M250.586 141.685L88.2891 47.8055C84.9909 45.9046 81.9592 45.5544 79.4938 46.5215C79.1773 46.6382 74.9962 48.8727 74.6963 49.0394L74.6797 49.0561C77.245 47.8055 80.4933 48.0389 84.0414 50.0899L246.339 143.969C254.634 148.772 261.364 161.628 261.364 172.7V263.161C261.364 270.064 258.749 274.65 254.751 275.95C255.067 275.967 255.484 275.834 256.067 275.5C256.25 275.384 260.798 272.816 260.981 272.699C263.829 270.698 265.612 266.579 265.612 260.893V170.415C265.612 159.343 258.882 146.487 250.586 141.685Z" fill="url(#paint1_linear_133_59)"/>
<path d="M242.875 199.58L116.742 126.527V92.4274L242.875 165.463V199.58Z" fill="url(#paint2_linear_133_59)"/>
<path d="M119.94 125.327V94.2616L116.742 92.4274V126.527L242.875 199.58V196.528L119.94 125.327Z" fill="url(#paint3_linear_133_59)"/>
<path d="M242.875 251.522L116.742 178.486V144.369L242.875 217.405V251.522Z" fill="url(#paint4_linear_133_59)"/>
<path d="M119.94 177.285V146.22L116.742 144.369V178.486L242.875 251.522V248.47L119.94 177.285Z" fill="url(#paint5_linear_133_59)"/>
<path d="M247.038 143.586L84.7405 49.7064C81.3423 47.7388 78.2106 47.472 75.6953 48.5559C77.8442 48.2224 80.3095 48.7393 82.9415 50.2567L245.239 144.136C253.534 148.938 260.264 161.795 260.264 172.867V263.328C260.264 269.864 257.915 274.283 254.284 275.85C258.915 275.117 262.063 270.348 262.063 262.777V172.333C262.063 161.244 255.35 148.388 247.038 143.586Z" fill="white"/>
<path d="M85.7908 153.557L92.2041 149.489L82.959 141.851L84.6581 136.932L93.3035 146.654L92.0875 134.981L97.5346 138.133L96.3186 148.405L104.964 148.671L106.663 155.558L97.418 152.507L103.831 163.996L99.4835 165.163L94.836 153.09L90.1718 159.777L85.7908 153.557Z" fill="white"/>
<path d="M101.616 107.768C100.283 106.634 99.084 105.184 98.1345 103.599C97.5515 102.632 97.5848 101.582 98.1345 101.265C98.8508 100.848 99.5005 100.164 99.9169 99.2807C100.533 99.4474 101.283 99.2306 101.283 98.3802C101.283 97.5298 100.9 96.596 100.4 96.1291C100.25 92.4773 99.0007 88.7088 94.8029 86.291C90.6052 83.8564 89.3558 86.1742 89.2059 89.6593C88.7062 89.5426 88.3231 90.0428 88.3231 90.8932C88.3231 91.727 89.0727 92.8275 89.689 93.3611C90.1054 94.7284 90.7384 96.1458 91.4714 97.3964C92.0378 98.3635 92.0544 99.4474 91.4714 99.7476C90.5219 100.248 89.3225 100.298 87.9899 99.8976C86.2242 99.364 84.9082 100.431 84.9082 102.599V106.367C84.9082 107.101 85.4246 107.985 86.0576 108.352L103.532 118.457C104.165 118.824 104.681 118.523 104.681 117.806V114.038C104.681 111.853 103.365 109.286 101.616 107.768Z" fill="white"/>
<path d="M291.864 154.441L207.359 122.892V185.523V185.64C207.075 187.674 208.158 189.658 210.657 191.109L267.793 224.242C272.741 227.11 281.386 226.743 287.1 223.441C290.131 221.691 291.714 219.473 291.814 217.338L291.847 217.355V154.441H291.864Z" fill="url(#paint6_linear_133_59)"/>
<path d="M267.808 161.194L210.672 128.061C205.724 125.193 206.34 120.208 212.054 116.906C217.768 113.604 226.413 113.238 231.361 116.106L288.497 149.238C293.444 152.107 292.828 157.092 287.114 160.394C281.401 163.696 272.755 164.046 267.808 161.194Z" fill="url(#paint7_linear_133_59)"/>
<path d="M287.382 159.844C281.668 163.145 273.023 163.512 268.075 160.644L210.922 127.528C208.407 126.077 207.324 124.059 207.641 121.992C206.591 124.476 207.524 127.028 210.573 128.778L267.709 161.911C272.656 164.779 281.302 164.413 287.015 161.111C289.814 159.494 291.396 157.459 291.696 155.475C291.047 157.042 289.597 158.576 287.382 159.844Z" fill="#838383"/>
<g opacity="0.3">
<path d="M255.248 77.6868C239.29 68.4823 219.367 80.0213 219.367 98.447V130.112C219.367 130.129 219.367 130.146 219.367 130.162C219.367 132.697 222.882 134.748 227.23 134.748C231.577 134.748 235.092 132.697 235.092 130.162C235.092 130.129 235.092 130.096 235.092 130.079H235.175V101.815C235.175 94.0115 243.604 89.1257 250.367 93.011C258.213 97.5299 263.061 105.901 263.061 114.972V155.308H263.144C263.227 157.793 266.709 159.794 270.99 159.794C275.304 159.794 278.802 157.759 278.836 155.258V118.54C278.836 101.682 269.84 86.1076 255.248 77.6868Z" fill="url(#paint8_linear_133_59)"/>
<path d="M224.231 132.297V102.249C224.231 89.9094 234.259 79.8712 246.585 79.8712C250.483 79.8712 254.215 80.8884 257.696 82.8893C259.945 84.19 262.061 85.674 264.026 87.3082C261.211 84.4568 257.996 81.9555 254.448 79.9212C250.983 77.9202 247.235 76.9031 243.337 76.9031C231.01 76.9031 220.982 86.9413 220.982 99.2807V129.329V130.946C220.982 130.98 220.982 131.013 220.982 131.046C221.032 131.997 222.298 133.014 224.231 133.564V132.297Z" fill="url(#paint9_radial_133_59)"/>
<path d="M267.924 157.993H267.891V119.291C267.891 110.886 263.943 102.999 257.396 97.9468C261.977 102.866 264.659 109.419 264.659 116.322V155.025H264.693L264.743 156.609C264.776 157.559 266.042 158.576 267.974 159.127L267.924 157.993Z" fill="url(#paint10_radial_133_59)"/>
<path d="M238.823 85.5239C231.727 85.5239 225.963 91.2934 225.963 98.3969V131.213L225.88 134.031C225.813 134.264 230.277 133.898 230.377 133.497L230.461 130.679V97.8633C230.461 92.0771 234.292 87.1747 239.556 85.5573C239.306 85.5406 239.056 85.5239 238.823 85.5239Z" fill="url(#paint11_linear_133_59)"/>
<path d="M252.548 81.522C249.233 79.6211 245.685 78.6539 241.986 78.6539C240.454 78.6539 238.888 78.8374 237.356 79.2042C237.389 79.2042 237.439 79.2042 237.472 79.2042C241.17 79.2042 244.735 80.1713 248.033 82.0723C261.743 89.9761 270.271 104.733 270.271 120.574V159.193V159.41C270.271 159.627 274.769 159.243 274.769 158.877V158.66V120.041C274.769 104.183 266.257 89.4425 252.548 81.522Z" fill="url(#paint12_linear_133_59)"/>
<path opacity="0.5" d="M231.094 103.083V133.381C232.876 132.83 234.026 131.863 234.076 130.963V130.946L234.159 129.195V102.532C234.159 97.2797 237.607 92.8109 242.371 91.2935C236.108 91.5603 231.094 96.7461 231.094 103.083Z" fill="url(#paint13_linear_133_59)"/>
<g opacity="0.5">
<path d="M255.449 80.0046C253.8 79.0542 252.101 78.3372 250.352 77.8369C265.31 86.7913 274.572 103.099 274.572 120.574V158.576C276.721 158.06 278.153 156.959 278.17 155.958V155.758V119.341C278.17 103.149 269.458 88.0753 255.449 80.0046Z" fill="url(#paint14_linear_133_59)"/>
</g>
</g>
<path d="M228.497 129.746C233.547 129.746 237.642 127.357 237.642 124.41C237.642 121.463 233.547 119.074 228.497 119.074C223.446 119.074 219.352 121.463 219.352 124.41C219.352 127.357 223.446 129.746 228.497 129.746Z" fill="#E6E7E8"/>
<path d="M280.869 149.439C280.869 152.29 276.887 154.608 271.99 154.608C267.093 154.608 263.111 152.29 263.111 149.439C263.111 146.587 267.093 144.269 271.99 144.269C276.904 144.253 280.869 146.57 280.869 149.439Z" fill="#E6E7E8"/>
<path d="M255.248 77.6034C239.29 68.3989 219.367 79.9379 219.367 98.3636V124.36C219.367 124.376 219.367 124.393 219.367 124.41C219.367 126.944 222.882 128.995 227.23 128.995C231.577 128.995 235.092 126.944 235.092 124.41C235.092 124.376 235.092 124.343 235.092 124.326H235.175V101.715C235.175 93.9114 243.604 89.0257 250.367 92.9109C258.213 97.4298 263.061 105.801 263.061 114.872V149.522H263.144C263.227 152.007 266.709 154.007 270.99 154.007C275.304 154.007 278.802 151.973 278.836 149.472V118.457C278.836 101.599 269.84 86.0242 255.248 77.6034Z" fill="url(#paint15_linear_133_59)"/>
<path d="M224.231 126.527V102.165C224.231 89.8261 234.259 79.7878 246.585 79.7878C250.483 79.7878 254.215 80.805 257.696 82.806C259.945 84.1066 262.061 85.5907 264.026 87.2248C261.211 84.3734 257.996 81.8722 254.448 79.8378C250.983 77.8369 247.235 76.8197 243.337 76.8197C231.01 76.8197 220.982 86.8579 220.982 99.1973V123.543V125.16C220.982 125.193 220.982 125.227 220.982 125.26C221.032 126.211 222.298 127.228 224.231 127.778V126.527Z" fill="url(#paint16_radial_133_59)"/>
<path d="M267.924 152.223H267.891V119.207C267.891 110.803 263.943 102.916 257.396 97.8633C261.977 102.782 264.659 109.336 264.659 116.239V149.255H264.693L264.743 150.839C264.776 151.79 266.042 152.807 267.974 153.357L267.924 152.223Z" fill="url(#paint17_radial_133_59)"/>
<path d="M238.823 85.4406C231.727 85.4406 225.963 91.21 225.963 98.3135V125.46L225.88 128.278C225.813 128.512 230.277 128.145 230.377 127.745L230.461 124.927V97.7633C230.461 91.9771 234.292 87.0747 239.556 85.4572C239.306 85.4406 239.056 85.4406 238.823 85.4406Z" fill="url(#paint18_linear_133_59)"/>
<path d="M252.548 81.4386C249.233 79.5377 245.685 78.5706 241.986 78.5706C240.454 78.5706 238.888 78.754 237.356 79.1208C237.389 79.1208 237.439 79.1208 237.472 79.1208C241.17 79.1208 244.735 80.088 248.033 81.9889C261.743 89.8928 270.271 104.65 270.271 120.491V153.424V153.641C270.271 153.857 274.769 153.474 274.769 153.107V152.89V119.941C274.769 104.1 266.257 89.3425 252.548 81.4386Z" fill="url(#paint19_linear_133_59)"/>
<path opacity="0.5" d="M231.094 102.983V127.611C232.876 127.061 234.026 126.094 234.076 125.193V125.177L234.159 123.426V102.449C234.159 97.1963 237.607 92.7275 242.371 91.2101C236.108 91.4769 231.094 96.6461 231.094 102.983Z" fill="url(#paint20_linear_133_59)"/>
<g opacity="0.5">
<path d="M255.449 79.9045C253.8 78.9541 252.101 78.2371 250.352 77.7368C265.31 86.6912 274.572 102.999 274.572 120.474V152.79C276.721 152.273 278.153 151.173 278.17 150.172V149.972V119.257C278.17 103.066 269.458 87.9918 255.449 79.9045Z" fill="url(#paint21_linear_133_59)"/>
</g>
<path d="M246.536 79.8712C250.617 79.8712 254.531 80.8717 258.213 82.806C256.83 81.7722 255.398 80.8217 253.882 79.9546C250.567 78.0537 247.019 77.0865 243.321 77.0865C233.093 77.0865 222.049 85.2239 222.049 98.3803V98.447C225.214 86.808 236.224 79.8712 246.536 79.8712Z" fill="url(#paint22_linear_133_59)"/>
<path d="M265.744 115.522C266.46 109.302 265.694 100.465 258.364 92.7108C251.518 85.4739 243.272 83.6063 238.941 90.5431C240.824 89.4592 243.006 88.8422 245.321 88.8422C247.537 88.8422 249.752 89.4425 251.701 90.5597C260.363 95.5455 265.744 104.85 265.744 114.855V115.522Z" fill="url(#paint23_linear_133_59)"/>
<path d="M243.806 180.587V193.06L238.209 189.825V177.352C235.977 174.851 234.428 171.366 234.428 168.348C234.428 164.179 237.376 162.495 241.008 164.596C244.639 166.697 247.587 171.783 247.587 175.952C247.587 178.97 246.038 180.671 243.806 180.587Z" fill="#454545"/>
<path d="M181.469 28H191.927V45.3777H209.489V55.8446H191.927V73.952H181.469V55.8446H164V45.3777H181.469V28Z" fill="url(#paint24_linear_133_59)"/>
<circle cx="116.5" cy="336.5" r="47.5" stroke="url(#paint25_linear_133_59)" stroke-width="20"/>
<defs>
<linearGradient id="paint0_linear_133_59" x1="69" y1="276.326" x2="261.348" y2="276.326" gradientUnits="userSpaceOnUse">
<stop stop-color="#1723FF"/>
<stop offset="1" stop-color="#30E35E"/>
</linearGradient>
<linearGradient id="paint1_linear_133_59" x1="74.6797" y1="275.952" x2="265.612" y2="275.952" gradientUnits="userSpaceOnUse">
<stop stop-color="#1723FF"/>
<stop offset="1" stop-color="#30E35E"/>
</linearGradient>
<linearGradient id="paint2_linear_133_59" x1="116.748" y1="145.999" x2="242.88" y2="145.999" gradientUnits="userSpaceOnUse">
<stop stop-color="#FAFDFD"/>
<stop offset="1" stop-color="#F3F9FB"/>
</linearGradient>
<linearGradient id="paint3_linear_133_59" x1="116.742" y1="199.58" x2="242.875" y2="199.58" gradientUnits="userSpaceOnUse">
<stop stop-color="#1723FF"/>
<stop offset="1" stop-color="#30E35E"/>
</linearGradient>
<linearGradient id="paint4_linear_133_59" x1="116.748" y1="197.947" x2="242.88" y2="197.947" gradientUnits="userSpaceOnUse">
<stop stop-color="#FAFDFD"/>
<stop offset="1" stop-color="#F3F9FB"/>
</linearGradient>
<linearGradient id="paint5_linear_133_59" x1="116.742" y1="251.522" x2="242.875" y2="251.522" gradientUnits="userSpaceOnUse">
<stop stop-color="#1723FF"/>
<stop offset="1" stop-color="#30E35E"/>
</linearGradient>
<linearGradient id="paint6_linear_133_59" x1="292.676" y1="174.523" x2="206.795" y2="174.523" gradientUnits="userSpaceOnUse">
<stop stop-color="#666666"/>
<stop offset="0.2273" stop-color="#A4A4A4"/>
<stop offset="0.4343" stop-color="#DCDCDC"/>
</linearGradient>
<linearGradient id="paint7_linear_133_59" x1="257.127" y1="102.177" x2="246.681" y2="152.553" gradientUnits="userSpaceOnUse">
<stop offset="0.0354" stop-color="#828282"/>
<stop offset="0.3279" stop-color="#B3B3B3"/>
<stop offset="0.8925" stop-color="#818181"/>
<stop offset="1" stop-color="#545454"/>
</linearGradient>
<linearGradient id="paint8_linear_133_59" x1="300.912" y1="143.646" x2="188.081" y2="74.9715" gradientUnits="userSpaceOnUse">
<stop stop-color="#92C1CF"/>
<stop offset="0.6061" stop-color="#C9E3EC"/>
<stop offset="1" stop-color="#EAF4F8"/>
</linearGradient>
<radialGradient id="paint9_radial_133_59" cx="0" cy="0" r="1" gradientUnits="userSpaceOnUse" gradientTransform="translate(213.226 136.873) scale(48.5034 48.5529)">
<stop stop-color="#FF5F98"/>
<stop offset="0.0152" stop-color="#F75C93"/>
<stop offset="0.132" stop-color="#BE4771"/>
<stop offset="0.252" stop-color="#8B3453"/>
<stop offset="0.3727" stop-color="#602439"/>
<stop offset="0.4942" stop-color="#3E1725"/>
<stop offset="0.6167" stop-color="#230D15"/>
<stop offset="0.7407" stop-color="#0F0609"/>
<stop offset="0.8672" stop-color="#040102"/>
<stop offset="1"/>
</radialGradient>
<radialGradient id="paint10_radial_133_59" cx="0" cy="0" r="1" gradientUnits="userSpaceOnUse" gradientTransform="translate(251.6 165.243) scale(57.7215 57.7804)">
<stop stop-color="#FF5F98"/>
<stop offset="0.0152" stop-color="#F75C93"/>
<stop offset="0.132" stop-color="#BE4771"/>
<stop offset="0.252" stop-color="#8B3453"/>
<stop offset="0.3727" stop-color="#602439"/>
<stop offset="0.4942" stop-color="#3E1725"/>
<stop offset="0.6167" stop-color="#230D15"/>
<stop offset="0.7407" stop-color="#0F0609"/>
<stop offset="0.8672" stop-color="#040102"/>
<stop offset="1"/>
</radialGradient>
<linearGradient id="paint11_linear_133_59" x1="234.368" y1="110.81" x2="202.353" y2="91.3239" gradientUnits="userSpaceOnUse">
<stop stop-color="#92C1CF"/>
<stop offset="0.6061" stop-color="#C9E3EC"/>
<stop offset="1" stop-color="#EAF4F8"/>
</linearGradient>
<linearGradient id="paint12_linear_133_59" x1="273.679" y1="124.141" x2="192.825" y2="98.2829" gradientUnits="userSpaceOnUse">
<stop stop-color="#92C1CF"/>
<stop offset="0.6061" stop-color="#C9E3EC"/>
<stop offset="1" stop-color="#EAF4F8"/>
</linearGradient>
<linearGradient id="paint13_linear_133_59" x1="245.579" y1="117.737" x2="220.24" y2="102.314" gradientUnits="userSpaceOnUse">
<stop stop-color="#FFE4A7"/>
<stop offset="1"/>
</linearGradient>
<linearGradient id="paint14_linear_133_59" x1="299.165" y1="140.11" x2="212.726" y2="87.4992" gradientUnits="userSpaceOnUse">
<stop stop-color="#FFE4A7"/>
<stop offset="1"/>
</linearGradient>
<linearGradient id="paint15_linear_133_59" x1="299.279" y1="139.719" x2="190.404" y2="73.4524" gradientUnits="userSpaceOnUse">
<stop stop-color="#92C1CF"/>
<stop offset="0.6061" stop-color="#C9E3EC"/>
<stop offset="1" stop-color="#EAF4F8"/>
</linearGradient>
<radialGradient id="paint16_radial_133_59" cx="0" cy="0" r="1" gradientUnits="userSpaceOnUse" gradientTransform="translate(213.226 130.77) scale(48.4838 48.5332)">
<stop stop-color="#FF5F98"/>
<stop offset="0.0152" stop-color="#F75C93"/>
<stop offset="0.132" stop-color="#BE4771"/>
<stop offset="0.252" stop-color="#8B3453"/>
<stop offset="0.3727" stop-color="#602439"/>
<stop offset="0.4942" stop-color="#3E1725"/>
<stop offset="0.6167" stop-color="#230D15"/>
<stop offset="0.7407" stop-color="#0F0609"/>
<stop offset="0.8672" stop-color="#040102"/>
<stop offset="1"/>
</radialGradient>
<radialGradient id="paint17_radial_133_59" cx="0" cy="0" r="1" gradientUnits="userSpaceOnUse" gradientTransform="translate(251.6 158.903) scale(57.0903 57.1486)">
<stop stop-color="#FF5F98"/>
<stop offset="0.0152" stop-color="#F75C93"/>
<stop offset="0.132" stop-color="#BE4771"/>
<stop offset="0.252" stop-color="#8B3453"/>
<stop offset="0.3727" stop-color="#602439"/>
<stop offset="0.4942" stop-color="#3E1725"/>
<stop offset="0.6167" stop-color="#230D15"/>
<stop offset="0.7407" stop-color="#0F0609"/>
<stop offset="0.8672" stop-color="#040102"/>
<stop offset="1"/>
</radialGradient>
<linearGradient id="paint18_linear_133_59" x1="233.992" y1="107.65" x2="205.933" y2="90.5718" gradientUnits="userSpaceOnUse">
<stop stop-color="#92C1CF"/>
<stop offset="0.6061" stop-color="#C9E3EC"/>
<stop offset="1" stop-color="#EAF4F8"/>
</linearGradient>
<linearGradient id="paint19_linear_133_59" x1="273.175" y1="121.049" x2="194.656" y2="95.9375" gradientUnits="userSpaceOnUse">
<stop stop-color="#92C1CF"/>
<stop offset="0.6061" stop-color="#C9E3EC"/>
<stop offset="1" stop-color="#EAF4F8"/>
</linearGradient>
<linearGradient id="paint20_linear_133_59" x1="243.946" y1="113.811" x2="222.562" y2="100.795" gradientUnits="userSpaceOnUse">
<stop stop-color="#FFE4A7"/>
<stop offset="1"/>
</linearGradient>
<linearGradient id="paint21_linear_133_59" x1="297.532" y1="136.184" x2="215.049" y2="85.9801" gradientUnits="userSpaceOnUse">
<stop stop-color="#FFE4A7"/>
<stop offset="1"/>
</linearGradient>
<linearGradient id="paint22_linear_133_59" x1="234.164" y1="80.7447" x2="239.577" y2="89.6668" gradientUnits="userSpaceOnUse">
<stop stop-color="#FFE4A7"/>
<stop offset="1"/>
</linearGradient>
<linearGradient id="paint23_linear_133_59" x1="267.099" y1="96.7674" x2="209.437" y2="116.749" gradientUnits="userSpaceOnUse">
<stop stop-color="#FFE4A7"/>
<stop offset="1"/>
</linearGradient>
<linearGradient id="paint24_linear_133_59" x1="172.573" y1="65.0546" x2="200.869" y2="36.7593" gradientUnits="userSpaceOnUse">
<stop stop-color="#000DFF"/>
<stop offset="1" stop-color="#30E35E"/>
</linearGradient>
<linearGradient id="paint25_linear_133_59" x1="59" y1="394.003" x2="174" y2="394.003" gradientUnits="userSpaceOnUse">
<stop stop-color="#1723FF"/>
<stop offset="1" stop-color="#30E35E"/>
</linearGradient>
</defs>
</svg>
