<svg width="12" height="41" fill="none" xmlns="http://www.w3.org/2000/svg"><path d="M0 35.392c0-.314.127-.628.382-.866a1.38 1.38 0 0 1 1.854 0L6 38.044l3.764-3.518a1.38 1.38 0 0 1 1.854 0c.51.476.51 1.25 0 1.732l-4.691 4.385a1.38 1.38 0 0 1-1.854 0l-4.69-4.385A1.182 1.182 0 0 1 0 35.392Z" fill="#F3F3F3"/><path d="M0 28.555c0-.314.127-.628.382-.866a1.38 1.38 0 0 1 1.854 0L6 31.207l3.764-3.518a1.38 1.38 0 0 1 1.854 0c.51.476.51 1.25 0 1.732l-4.691 4.385a1.38 1.38 0 0 1-1.854 0L.383 29.42A1.181 1.181 0 0 1 0 28.555Z" fill="#F3F3F3"/><path d="M0 21.723c0-.314.127-.627.382-.866a1.38 1.38 0 0 1 1.854 0L6 24.376l3.764-3.519a1.38 1.38 0 0 1 1.854 0c.51.477.51 1.25 0 1.733l-4.691 4.384a1.38 1.38 0 0 1-1.854 0L.383 22.59A1.181 1.181 0 0 1 0 21.723Z" fill="#F3F3F3"/><path d="M0 14.892c0-.314.127-.628.382-.866a1.38 1.38 0 0 1 1.854 0L6 17.544l3.764-3.518a1.38 1.38 0 0 1 1.854 0c.51.476.51 1.25 0 1.732l-4.691 4.385a1.38 1.38 0 0 1-1.854 0l-4.69-4.385A1.182 1.182 0 0 1 0 14.892Z" fill="#F3F3F3"/><path d="M0 8.055c0-.314.127-.628.382-.866a1.38 1.38 0 0 1 1.854 0L6 10.707 9.764 7.19a1.38 1.38 0 0 1 1.854 0c.51.476.51 1.25 0 1.732l-4.691 4.385a1.38 1.38 0 0 1-1.854 0L.383 8.92A1.182 1.182 0 0 1 0 8.055Z" fill="#F3F3F3"/><path d="M0 1.223C0 .91.127.595.382.357a1.38 1.38 0 0 1 1.854 0L6 3.876 9.764.357a1.38 1.38 0 0 1 1.854 0c.51.477.51 1.25 0 1.733L6.927 6.474a1.38 1.38 0 0 1-1.854 0L.383 2.09A1.182 1.182 0 0 1 0 1.223Z" fill="#F3F3F3"/></svg>