<svg xmlns="http://www.w3.org/2000/svg" width="22" height="22" fill="none"><path fill="#000" d="M2.07 2.585c.613-.406 1.192-.821 1.8-1.187C5.09.665 6.396.17 7.826.036c1.293-.121 2.55.075 3.78.447 1.346.408 2.674.872 4.027 1.254 1.757.497 3.521.504 5.268-.097.38-.13.715-.035.931.238.219.278.223.602.017.962-1.219 2.13-3.061 3.477-5.363 4.23-1.367.448-2.752.84-4.12 1.286-2.066.676-3.887 1.75-5.34 3.396a13.962 13.962 0 0 0-1.712 2.418.465.465 0 0 0-.03.319c.565 2.123 1.14 4.243 1.706 6.366.046.176.072.376.037.551a.75.75 0 0 1-.746.594c-.37.001-.672-.236-.78-.628-.235-.858-.464-1.718-.695-2.579C3.222 12.918 1.638 7.043.06 1.165a1.328 1.328 0 0 1-.048-.55C.075.257.397.014.75.007a.77.77 0 0 1 .77.567c.17.58.32 1.166.478 1.749l.074.261Zm2.591 9.621c.053-.06.076-.082.094-.108 1.828-2.714 4.367-4.438 7.48-5.366 1.143-.34 2.29-.67 3.427-1.033 1.201-.383 2.33-.915 3.287-1.758.1-.087.193-.183.32-.305-.113 0-.169-.004-.225.001-1.507.139-2.972-.082-4.406-.53-1.146-.36-2.28-.761-3.429-1.111-1.516-.461-3.05-.581-4.592-.106-1.474.454-2.728 1.287-3.912 2.246-.145.118-.166.222-.119.394.458 1.67.907 3.342 1.358 5.013l.717 2.663Z"/></svg>