<svg xmlns="http://www.w3.org/2000/svg" width="41" height="42" fill="none"><circle cx="20.68" cy="21.037" r="20.32" fill="#30E35E"/><path fill="#fff" d="M20.78 33.789c-.316-.33-.61-.642-.906-.948-.721-.744-1.44-1.49-2.171-2.223a.607.607 0 0 0-.39-.165c-1.326-.011-2.65-.006-3.976-.007-1.35-.002-2.276-.952-2.277-2.337-.001-5.113-.002-10.225 0-15.337 0-1.37.929-2.327 2.26-2.327 4.981 0 9.961-.002 14.942 0 1.316.001 2.248.96 2.25 2.313V28.12c-.002 1.37-.93 2.323-2.264 2.325-1.334.002-2.667-.004-4 .007a.57.57 0 0 0-.37.157c-1.027 1.041-2.044 2.094-3.099 3.179Zm6.49-7.796c0-.312-.006-.598.001-.884.014-.512-.138-.976-.49-1.325-.348-.346-.722-.698-1.146-.925-2.262-1.21-4.639-1.638-7.15-.99-1.093.282-2.145.66-3.086 1.323-.977.687-1.253 1.64-1.057 2.8l12.928.001Zm-6.547-11.88c-1.651.076-2.916 1.43-2.854 3.056.065 1.701 1.4 3.015 2.991 2.943a2.966 2.966 0 0 0 2.844-3.07c-.064-1.684-1.405-3.001-2.98-2.929Z"/></svg>