<svg xmlns="http://www.w3.org/2000/svg" width="84" height="84" fill="none"><path fill="#131313" d="M44.648 0c1.538.213 3.087.366 4.609.658 1.687.325 3.358.74 5.018 1.188 1.389.375 2.042 1.522 1.661 2.73-.363 1.148-1.52 1.688-2.876 1.273-4.199-1.285-8.493-1.834-12.872-1.59-10.025.56-18.583 4.417-25.535 11.655-6.08 6.333-9.712 13.942-10.287 22.683-1.039 15.83 5.322 28.066 18.967 36.242 7.531 4.51 15.854 6.01 24.496 4.508 14.11-2.45 24.015-10.42 29.422-23.687 3.266-8.016 3.438-16.288.953-24.577-.563-1.875.7-3.22 2.137-3.058.898.102 1.616.648 1.847 1.718.597 2.77 1.367 5.537 1.62 8.346 1.006 11.189-1.94 21.308-8.97 30.085C67.676 77.117 58.285 82.236 46.91 83.7c-.754.097-1.507.2-2.26.3h-5.253c-.18-.046-.36-.107-.545-.135-1.944-.287-3.908-.467-5.827-.867-16.461-3.443-29.61-17.17-32.38-33.761-.254-1.53-.432-3.075-.645-4.612v-5.25c.05-.238.107-.476.144-.715.339-2.127.542-4.284 1.028-6.377C4.944 16.049 18.427 3.378 34.782.643 36.315.39 37.858.213 39.396 0h5.253Z"/><path fill="#131313" d="M42.164 71.323c-14.282-.179-26.56-10.55-28.885-24.54-2.596-15.634 7.484-30.413 22.938-33.617a28.242 28.242 0 0 1 7.507-.527c.9.056 1.654.365 2.116 1.183.392.694.43 1.411.001 2.1-.468.75-1.182 1.02-2.04.94-3.923-.367-7.677.338-11.295 1.825-10.238 4.206-16.56 14.892-15.312 25.84 1.318 11.536 9.857 20.396 21.392 22.194 13.053 2.034 25.987-7.16 28.205-20.137.351-2.053.34-4.179.358-6.272.011-1.349.676-2.372 1.927-2.496 1.179-.114 2.267.737 2.264 2.061-.007 2.37.108 4.802-.37 7.096C68.38 59.39 60.86 67.244 48.56 70.409c-2.074.533-4.262.62-6.396.914Z"/><path fill="#131313" d="M61.555 29.356c-1.284 0-2.71-.35-3.812.098-1.101.448-1.886 1.685-2.793 2.59-3.62 3.612-7.234 7.228-10.852 10.84-.232.232-.463.471-.724.663-.877.645-2.027.537-2.754-.24-.711-.757-.767-1.86-.117-2.697.2-.257.44-.487.671-.718 4.293-4.292 8.579-8.59 12.89-12.864.46-.458.679-.906.666-1.569-.041-2.049 0-4.1-.023-6.15-.01-.905.285-1.62.935-2.263 3.999-3.967 7.981-7.95 11.953-11.944.742-.746 1.555-1.135 2.574-.731 1.04.411 1.315 1.284 1.3 2.328-.023 1.639.028 3.28-.021 4.92-.021.723.144 1.006.937.976 1.694-.062 3.391-.008 5.087-.023.992-.01 1.79.31 2.185 1.265.402.975.09 1.795-.637 2.522a4426.4 4426.4 0 0 0-12.124 12.12c-.58.583-1.246.847-2.057.836-1.093-.017-2.188-.005-3.28-.005-.004.016-.004.03-.004.046Zm11.073-12.609c-1.096 0-1.996.005-2.895-.001-1.663-.012-2.435-.796-2.441-2.477-.004-.91 0-1.818 0-2.936-2.824 2.826-5.471 5.472-8.114 8.125-.11.11-.24.267-.241.405-.017 1.738-.012 3.473-.012 5.253 1.67 0 3.227.028 4.782-.02.36-.01.8-.188 1.055-.439 2.46-2.413 4.887-4.856 7.323-7.294.15-.151.28-.319.543-.616Z"/><path fill="#131313" d="M42.136 58.585c-8.652-.011-15.853-6.584-16.662-15.207-.808-8.605 5.162-16.436 13.723-17.973a18.68 18.68 0 0 1 2.687-.276c1.35-.046 2.291.78 2.358 1.979.07 1.22-.827 2.164-2.23 2.202-2.064.054-4.002.525-5.815 1.506-4.924 2.668-7.435 8.103-6.32 13.665 1.06 5.287 5.615 9.333 11.104 9.863 7.143.69 13.4-4.745 13.71-11.908.076-1.76.877-2.72 2.212-2.657 1.346.064 2.076 1.097 1.998 2.833-.4 8.943-7.792 15.985-16.765 15.973Z"/></svg>