<svg width="14" height="14" viewBox="0 0 14 14" fill="none" xmlns="http://www.w3.org/2000/svg">
<path d="M11.4112 14H13.6877C13.7702 14 13.8493 13.9672 13.9077 13.9087C13.966 13.8503 13.9988 13.7711 13.9988 13.6884L14 8.87006C14 6.35164 13.4583 4.41586 10.5204 4.41586C9.40357 4.37426 8.35038 4.95098 7.78206 5.91399C7.77928 5.91867 7.77505 5.92231 7.77001 5.92435C7.76498 5.9264 7.75941 5.92673 7.75417 5.92531C7.74892 5.92389 7.74428 5.92079 7.74096 5.91648C7.73764 5.91217 7.73582 5.90689 7.73578 5.90145V4.96001C7.73578 4.87736 7.703 4.79809 7.64466 4.73964C7.58631 4.68119 7.50718 4.64836 7.42467 4.64836H5.26423C5.18172 4.64836 5.10259 4.68119 5.04424 4.73964C4.9859 4.79809 4.95312 4.87736 4.95312 4.96001V13.688C4.95312 13.7706 4.9859 13.8499 5.04424 13.9083C5.10259 13.9668 5.18172 13.9996 5.26423 13.9996H7.54063C7.62315 13.9996 7.70228 13.9668 7.76062 13.9083C7.81897 13.8499 7.85175 13.7706 7.85175 13.688V9.37362C7.85175 8.15371 8.08274 6.9723 9.59249 6.9723C11.0808 6.9723 11.1001 8.36821 11.1001 9.45262V13.6883C11.1001 13.771 11.1328 13.8503 11.1912 13.9087C11.2495 13.9672 11.3287 14 11.4112 14ZM0 1.68505C0 2.6095 0.759656 3.3701 1.68249 3.3701C2.60509 3.37002 3.36428 2.60895 3.36428 1.68474C3.36412 0.76052 2.60486 0 1.68218 0C0.759267 0 0 0.760675 0 1.68505ZM0.541256 14H2.82069C2.9032 14 2.98233 13.9672 3.04068 13.9087C3.09902 13.8503 3.1318 13.771 3.1318 13.6883V4.96001C3.1318 4.87736 3.09902 4.79809 3.04068 4.73964C2.98233 4.68119 2.9032 4.64836 2.82069 4.64836H0.541256C0.458744 4.64836 0.379611 4.68119 0.321267 4.73964C0.262922 4.79809 0.230144 4.87736 0.230144 4.96001V13.6883C0.230144 13.771 0.262922 13.8503 0.321267 13.9087C0.379611 13.9672 0.458744 14 0.541256 14Z" fill="white"/>
</svg>
