<svg xmlns="http://www.w3.org/2000/svg" width="41" height="41" fill="none"><circle cx="20.317" cy="20.6" r="19.957" fill="#1723FF"/><path fill="#fff" d="M26.857 30.978h3.375a.461.461 0 0 0 .461-.462l.002-7.144c0-3.733-.803-6.603-5.159-6.603a4.524 4.524 0 0 0-4.06 2.22.037.037 0 0 1-.06.004.036.036 0 0 1-.008-.022v-1.396a.462.462 0 0 0-.461-.462h-3.203a.46.46 0 0 0-.461.462v12.94a.463.463 0 0 0 .46.462h3.376a.461.461 0 0 0 .461-.462v-6.396c0-1.809.343-3.56 2.58-3.56 2.207 0 2.236 2.07 2.236 3.677v6.28a.462.462 0 0 0 .461.462ZM9.939 12.72a2.508 2.508 0 0 0 2.495 2.498 2.508 2.508 0 0 0 2.493-2.498 2.508 2.508 0 0 0-2.494-2.498A2.508 2.508 0 0 0 9.94 12.72Zm.803 18.258h3.38a.46.46 0 0 0 .46-.463v-12.94a.462.462 0 0 0-.46-.462h-3.38a.46.46 0 0 0-.461.462v12.94a.462.462 0 0 0 .46.463Z"/></svg>