<svg width="86" height="85" viewBox="0 0 86 85" fill="none" xmlns="http://www.w3.org/2000/svg">
<mask id="path-1-outside-1_208_187" maskUnits="userSpaceOnUse" x="0" y="0" width="86" height="85" fill="black">
<rect fill="white" width="86" height="85"/>
<path d="M4.85142 59.5973C5.10661 57.4139 5.33696 55.1131 5.65539 52.8236C5.90381 51.0309 5.69378 49.3532 4.84013 47.7434C3.94356 46.05 3.09217 44.334 2.234 42.618C0.0343685 38.2196 0.795431 33.8325 4.35684 30.4276C5.78412 29.0639 7.2272 27.7114 8.67931 26.3747C9.88075 25.2684 10.6463 23.9362 11.0032 22.3399C11.4774 20.2242 11.9584 18.1063 12.5095 16.0088C13.6409 11.7188 17.3356 8.81739 21.7619 8.63901C23.9051 8.55321 26.046 8.42451 28.1846 8.28453C29.6639 8.18744 30.9556 7.59587 32.13 6.704C33.8824 5.37411 35.6259 4.02841 37.4281 2.76851C40.7885 0.418044 45.181 0.409012 48.5504 2.75044C50.3322 3.99002 52.0576 5.31315 53.7807 6.63627C55.1967 7.72457 56.7572 8.28227 58.5504 8.32968C60.5806 8.38387 62.6086 8.51935 64.6343 8.67062C69.1126 9.00028 72.5905 12.0597 73.6474 16.5552C74.1058 18.5015 74.5688 20.4478 75.0092 22.4008C75.3547 23.9339 76.0887 25.2277 77.2472 26.2957C78.74 27.673 80.2214 29.0661 81.6894 30.4705C85.1785 33.8122 85.9486 38.1993 83.8145 42.5231C83.1279 43.914 82.5069 45.3455 81.7006 46.6618C80.296 48.9604 80.0069 51.3786 80.4676 53.9797C80.7476 55.5602 80.8989 57.1655 81.0661 58.7641C81.5064 62.9502 79.2955 66.9151 75.4608 68.7124C73.4983 69.6336 71.4907 70.4645 69.4853 71.2909C67.918 71.9389 66.6939 72.9482 65.7884 74.3819C64.7495 76.0279 63.67 77.6468 62.5973 79.2703C59.9189 83.3277 55.6981 84.8766 51.0414 83.5061C49.2031 82.9664 47.3648 82.4223 45.5423 81.8375C43.8147 81.2843 42.1231 81.3182 40.391 81.8533C38.0785 82.569 35.7749 83.3932 33.4037 83.8222C29.4696 84.5334 26.2357 83.0884 23.8599 79.898C22.6156 78.2271 21.5067 76.4502 20.4114 74.6755C19.3929 73.0227 18.0198 71.8689 16.2222 71.1532C14.4426 70.4464 12.6743 69.6991 10.9331 68.902C7.01943 67.1115 5.04338 64.0069 4.85142 59.5973ZM42.9 78.5861C43.9163 78.7668 44.7925 78.8503 45.6281 79.0829C47.7442 79.6722 49.8377 80.3473 51.9492 80.9547C55.348 81.9301 58.3155 80.835 60.2644 77.8997C61.371 76.2311 62.4754 74.5603 63.5503 72.8714C64.7585 70.9748 66.4049 69.6359 68.4803 68.7801C70.3818 67.9966 72.2788 67.1996 74.151 66.3484C77.132 64.9936 78.7196 62.1826 78.3696 58.9448C78.1957 57.3462 78.0376 55.7453 77.7689 54.1603C77.2607 51.1596 77.5995 48.3417 79.1713 45.6774C80.0001 44.273 80.6731 42.7738 81.4003 41.3106C83.015 38.0616 82.4685 34.9457 79.8465 32.453C78.3131 30.9944 76.7617 29.5538 75.226 28.0975C73.8168 26.7631 72.8886 25.1487 72.4482 23.2543C71.9559 21.1409 71.4681 19.0276 70.9487 16.9209C70.1628 13.7306 67.6876 11.6081 64.4808 11.3801C62.4821 11.2378 60.4812 11.0979 58.4803 11.0437C56.1407 10.9804 54.0653 10.2692 52.2134 8.83997C50.6732 7.65006 49.1082 6.49176 47.5409 5.33798C44.5464 3.13203 41.396 3.1546 38.4104 5.38991C36.807 6.58885 35.2013 7.79005 33.6002 8.98899C32.2429 10.005 30.7524 10.7434 29.0541 10.8901C26.6941 11.0956 24.3274 11.2446 21.9606 11.3485C18.5189 11.4998 15.888 13.586 15.0682 16.9187C14.5917 18.8605 14.131 20.809 13.7041 22.7621C13.2186 24.9816 12.1775 26.8624 10.495 28.3978C9.07678 29.6916 7.69242 31.0192 6.29224 32.3333C3.53255 34.9231 2.96796 38.0164 4.65268 41.3806C5.54925 43.1689 6.44807 44.9571 7.36496 46.7364C8.29765 48.5449 8.64544 50.4619 8.42864 52.4736C8.21409 54.4651 7.98374 56.4543 7.715 58.4367C7.20687 62.1668 8.78997 65.0275 12.2452 66.5245C14.0813 67.3193 15.9151 68.1163 17.7624 68.884C19.7565 69.7149 21.2989 71.0538 22.4643 72.8646C23.5934 74.619 24.7203 76.3756 25.8969 78.1007C27.7601 80.8327 30.714 81.8962 33.8983 80.9953C35.7682 80.4669 37.6132 79.846 39.4877 79.3312C40.6394 79.0106 41.8341 78.8142 42.9 78.5861Z"/>
<path d="M43.0129 70.2094C27.7736 70.2274 15.3595 57.8316 15.303 42.5435C15.2466 27.3072 27.803 14.7556 43.0355 14.8189C58.3381 14.8821 70.7341 27.2959 70.7048 42.5254C70.6754 57.8 58.2794 70.1936 43.0129 70.2094ZM18.0131 42.5186C18.0266 56.294 29.2461 67.5089 43.0084 67.5022C56.7776 67.4954 68.006 56.2646 67.997 42.5096C67.988 28.7365 56.764 17.5193 43.0016 17.5283C29.228 17.5351 17.9995 28.7658 18.0131 42.5186Z"/>
<path d="M39.5351 42.697C41.9922 40.3104 44.3476 38.0435 46.6828 35.7517C48.0716 34.388 49.4199 32.9813 50.7997 31.6062C52.9203 29.4929 56.0323 29.4116 58.0761 31.4076C60.1222 33.4035 60.1402 36.5488 58.0422 38.6847C53.18 43.6385 48.2952 48.572 43.3923 53.4852C41.2559 55.6257 38.2207 55.6189 36.0572 53.492C33.3404 50.8209 30.6485 48.1272 27.9746 45.411C25.8789 43.2818 25.8811 40.1501 27.9295 38.1383C29.9394 36.1627 33.0559 36.1988 35.1471 38.258C36.6512 39.7414 38.1191 41.2632 39.5351 42.697ZM31.5925 39.2334C30.9556 39.5021 30.4452 39.6217 30.0523 39.904C28.8283 40.7823 28.7944 42.399 29.9665 43.5821C32.5094 46.1493 35.0726 48.6962 37.629 51.2476C39.1354 52.7514 40.3187 52.7491 41.8296 51.225C46.5179 46.4925 51.1994 41.7555 55.8832 37.0184C56.1 36.7994 56.3281 36.5759 56.493 36.3185C57.026 35.4808 57.0531 34.6047 56.5133 33.7693C55.9758 32.9361 55.1515 32.5026 54.194 32.7374C53.6046 32.882 53.0061 33.2681 52.5703 33.7038C48.7107 37.549 44.8874 41.4281 41.0504 45.2958C39.9822 46.3728 39.447 46.3683 38.3607 45.2845C36.7031 43.6295 35.0726 41.9451 33.3743 40.333C32.8707 39.8588 32.1774 39.5879 31.5925 39.2334Z"/>
</mask>
<path d="M4.85142 59.5973C5.10661 57.4139 5.33696 55.1131 5.65539 52.8236C5.90381 51.0309 5.69378 49.3532 4.84013 47.7434C3.94356 46.05 3.09217 44.334 2.234 42.618C0.0343685 38.2196 0.795431 33.8325 4.35684 30.4276C5.78412 29.0639 7.2272 27.7114 8.67931 26.3747C9.88075 25.2684 10.6463 23.9362 11.0032 22.3399C11.4774 20.2242 11.9584 18.1063 12.5095 16.0088C13.6409 11.7188 17.3356 8.81739 21.7619 8.63901C23.9051 8.55321 26.046 8.42451 28.1846 8.28453C29.6639 8.18744 30.9556 7.59587 32.13 6.704C33.8824 5.37411 35.6259 4.02841 37.4281 2.76851C40.7885 0.418044 45.181 0.409012 48.5504 2.75044C50.3322 3.99002 52.0576 5.31315 53.7807 6.63627C55.1967 7.72457 56.7572 8.28227 58.5504 8.32968C60.5806 8.38387 62.6086 8.51935 64.6343 8.67062C69.1126 9.00028 72.5905 12.0597 73.6474 16.5552C74.1058 18.5015 74.5688 20.4478 75.0092 22.4008C75.3547 23.9339 76.0887 25.2277 77.2472 26.2957C78.74 27.673 80.2214 29.0661 81.6894 30.4705C85.1785 33.8122 85.9486 38.1993 83.8145 42.5231C83.1279 43.914 82.5069 45.3455 81.7006 46.6618C80.296 48.9604 80.0069 51.3786 80.4676 53.9797C80.7476 55.5602 80.8989 57.1655 81.0661 58.7641C81.5064 62.9502 79.2955 66.9151 75.4608 68.7124C73.4983 69.6336 71.4907 70.4645 69.4853 71.2909C67.918 71.9389 66.6939 72.9482 65.7884 74.3819C64.7495 76.0279 63.67 77.6468 62.5973 79.2703C59.9189 83.3277 55.6981 84.8766 51.0414 83.5061C49.2031 82.9664 47.3648 82.4223 45.5423 81.8375C43.8147 81.2843 42.1231 81.3182 40.391 81.8533C38.0785 82.569 35.7749 83.3932 33.4037 83.8222C29.4696 84.5334 26.2357 83.0884 23.8599 79.898C22.6156 78.2271 21.5067 76.4502 20.4114 74.6755C19.3929 73.0227 18.0198 71.8689 16.2222 71.1532C14.4426 70.4464 12.6743 69.6991 10.9331 68.902C7.01943 67.1115 5.04338 64.0069 4.85142 59.5973ZM42.9 78.5861C43.9163 78.7668 44.7925 78.8503 45.6281 79.0829C47.7442 79.6722 49.8377 80.3473 51.9492 80.9547C55.348 81.9301 58.3155 80.835 60.2644 77.8997C61.371 76.2311 62.4754 74.5603 63.5503 72.8714C64.7585 70.9748 66.4049 69.6359 68.4803 68.7801C70.3818 67.9966 72.2788 67.1996 74.151 66.3484C77.132 64.9936 78.7196 62.1826 78.3696 58.9448C78.1957 57.3462 78.0376 55.7453 77.7689 54.1603C77.2607 51.1596 77.5995 48.3417 79.1713 45.6774C80.0001 44.273 80.6731 42.7738 81.4003 41.3106C83.015 38.0616 82.4685 34.9457 79.8465 32.453C78.3131 30.9944 76.7617 29.5538 75.226 28.0975C73.8168 26.7631 72.8886 25.1487 72.4482 23.2543C71.9559 21.1409 71.4681 19.0276 70.9487 16.9209C70.1628 13.7306 67.6876 11.6081 64.4808 11.3801C62.4821 11.2378 60.4812 11.0979 58.4803 11.0437C56.1407 10.9804 54.0653 10.2692 52.2134 8.83997C50.6732 7.65006 49.1082 6.49176 47.5409 5.33798C44.5464 3.13203 41.396 3.1546 38.4104 5.38991C36.807 6.58885 35.2013 7.79005 33.6002 8.98899C32.2429 10.005 30.7524 10.7434 29.0541 10.8901C26.6941 11.0956 24.3274 11.2446 21.9606 11.3485C18.5189 11.4998 15.888 13.586 15.0682 16.9187C14.5917 18.8605 14.131 20.809 13.7041 22.7621C13.2186 24.9816 12.1775 26.8624 10.495 28.3978C9.07678 29.6916 7.69242 31.0192 6.29224 32.3333C3.53255 34.9231 2.96796 38.0164 4.65268 41.3806C5.54925 43.1689 6.44807 44.9571 7.36496 46.7364C8.29765 48.5449 8.64544 50.4619 8.42864 52.4736C8.21409 54.4651 7.98374 56.4543 7.715 58.4367C7.20687 62.1668 8.78997 65.0275 12.2452 66.5245C14.0813 67.3193 15.9151 68.1163 17.7624 68.884C19.7565 69.7149 21.2989 71.0538 22.4643 72.8646C23.5934 74.619 24.7203 76.3756 25.8969 78.1007C27.7601 80.8327 30.714 81.8962 33.8983 80.9953C35.7682 80.4669 37.6132 79.846 39.4877 79.3312C40.6394 79.0106 41.8341 78.8142 42.9 78.5861Z" fill="#131313"/>
<path d="M43.0129 70.2094C27.7736 70.2274 15.3595 57.8316 15.303 42.5435C15.2466 27.3072 27.803 14.7556 43.0355 14.8189C58.3381 14.8821 70.7341 27.2959 70.7048 42.5254C70.6754 57.8 58.2794 70.1936 43.0129 70.2094ZM18.0131 42.5186C18.0266 56.294 29.2461 67.5089 43.0084 67.5022C56.7776 67.4954 68.006 56.2646 67.997 42.5096C67.988 28.7365 56.764 17.5193 43.0016 17.5283C29.228 17.5351 17.9995 28.7658 18.0131 42.5186Z" fill="#131313"/>
<path d="M39.5351 42.697C41.9922 40.3104 44.3476 38.0435 46.6828 35.7517C48.0716 34.388 49.4199 32.9813 50.7997 31.6062C52.9203 29.4929 56.0323 29.4116 58.0761 31.4076C60.1222 33.4035 60.1402 36.5488 58.0422 38.6847C53.18 43.6385 48.2952 48.572 43.3923 53.4852C41.2559 55.6257 38.2207 55.6189 36.0572 53.492C33.3404 50.8209 30.6485 48.1272 27.9746 45.411C25.8789 43.2818 25.8811 40.1501 27.9295 38.1383C29.9394 36.1627 33.0559 36.1988 35.1471 38.258C36.6512 39.7414 38.1191 41.2632 39.5351 42.697ZM31.5925 39.2334C30.9556 39.5021 30.4452 39.6217 30.0523 39.904C28.8283 40.7823 28.7944 42.399 29.9665 43.5821C32.5094 46.1493 35.0726 48.6962 37.629 51.2476C39.1354 52.7514 40.3187 52.7491 41.8296 51.225C46.5179 46.4925 51.1994 41.7555 55.8832 37.0184C56.1 36.7994 56.3281 36.5759 56.493 36.3185C57.026 35.4808 57.0531 34.6047 56.5133 33.7693C55.9758 32.9361 55.1515 32.5026 54.194 32.7374C53.6046 32.882 53.0061 33.2681 52.5703 33.7038C48.7107 37.549 44.8874 41.4281 41.0504 45.2958C39.9822 46.3728 39.447 46.3683 38.3607 45.2845C36.7031 43.6295 35.0726 41.9451 33.3743 40.333C32.8707 39.8588 32.1774 39.5879 31.5925 39.2334Z" fill="#131313"/>
<path d="M4.85142 59.5973C5.10661 57.4139 5.33696 55.1131 5.65539 52.8236C5.90381 51.0309 5.69378 49.3532 4.84013 47.7434C3.94356 46.05 3.09217 44.334 2.234 42.618C0.0343685 38.2196 0.795431 33.8325 4.35684 30.4276C5.78412 29.0639 7.2272 27.7114 8.67931 26.3747C9.88075 25.2684 10.6463 23.9362 11.0032 22.3399C11.4774 20.2242 11.9584 18.1063 12.5095 16.0088C13.6409 11.7188 17.3356 8.81739 21.7619 8.63901C23.9051 8.55321 26.046 8.42451 28.1846 8.28453C29.6639 8.18744 30.9556 7.59587 32.13 6.704C33.8824 5.37411 35.6259 4.02841 37.4281 2.76851C40.7885 0.418044 45.181 0.409012 48.5504 2.75044C50.3322 3.99002 52.0576 5.31315 53.7807 6.63627C55.1967 7.72457 56.7572 8.28227 58.5504 8.32968C60.5806 8.38387 62.6086 8.51935 64.6343 8.67062C69.1126 9.00028 72.5905 12.0597 73.6474 16.5552C74.1058 18.5015 74.5688 20.4478 75.0092 22.4008C75.3547 23.9339 76.0887 25.2277 77.2472 26.2957C78.74 27.673 80.2214 29.0661 81.6894 30.4705C85.1785 33.8122 85.9486 38.1993 83.8145 42.5231C83.1279 43.914 82.5069 45.3455 81.7006 46.6618C80.296 48.9604 80.0069 51.3786 80.4676 53.9797C80.7476 55.5602 80.8989 57.1655 81.0661 58.7641C81.5064 62.9502 79.2955 66.9151 75.4608 68.7124C73.4983 69.6336 71.4907 70.4645 69.4853 71.2909C67.918 71.9389 66.6939 72.9482 65.7884 74.3819C64.7495 76.0279 63.67 77.6468 62.5973 79.2703C59.9189 83.3277 55.6981 84.8766 51.0414 83.5061C49.2031 82.9664 47.3648 82.4223 45.5423 81.8375C43.8147 81.2843 42.1231 81.3182 40.391 81.8533C38.0785 82.569 35.7749 83.3932 33.4037 83.8222C29.4696 84.5334 26.2357 83.0884 23.8599 79.898C22.6156 78.2271 21.5067 76.4502 20.4114 74.6755C19.3929 73.0227 18.0198 71.8689 16.2222 71.1532C14.4426 70.4464 12.6743 69.6991 10.9331 68.902C7.01943 67.1115 5.04338 64.0069 4.85142 59.5973ZM42.9 78.5861C43.9163 78.7668 44.7925 78.8503 45.6281 79.0829C47.7442 79.6722 49.8377 80.3473 51.9492 80.9547C55.348 81.9301 58.3155 80.835 60.2644 77.8997C61.371 76.2311 62.4754 74.5603 63.5503 72.8714C64.7585 70.9748 66.4049 69.6359 68.4803 68.7801C70.3818 67.9966 72.2788 67.1996 74.151 66.3484C77.132 64.9936 78.7196 62.1826 78.3696 58.9448C78.1957 57.3462 78.0376 55.7453 77.7689 54.1603C77.2607 51.1596 77.5995 48.3417 79.1713 45.6774C80.0001 44.273 80.6731 42.7738 81.4003 41.3106C83.015 38.0616 82.4685 34.9457 79.8465 32.453C78.3131 30.9944 76.7617 29.5538 75.226 28.0975C73.8168 26.7631 72.8886 25.1487 72.4482 23.2543C71.9559 21.1409 71.4681 19.0276 70.9487 16.9209C70.1628 13.7306 67.6876 11.6081 64.4808 11.3801C62.4821 11.2378 60.4812 11.0979 58.4803 11.0437C56.1407 10.9804 54.0653 10.2692 52.2134 8.83997C50.6732 7.65006 49.1082 6.49176 47.5409 5.33798C44.5464 3.13203 41.396 3.1546 38.4104 5.38991C36.807 6.58885 35.2013 7.79005 33.6002 8.98899C32.2429 10.005 30.7524 10.7434 29.0541 10.8901C26.6941 11.0956 24.3274 11.2446 21.9606 11.3485C18.5189 11.4998 15.888 13.586 15.0682 16.9187C14.5917 18.8605 14.131 20.809 13.7041 22.7621C13.2186 24.9816 12.1775 26.8624 10.495 28.3978C9.07678 29.6916 7.69242 31.0192 6.29224 32.3333C3.53255 34.9231 2.96796 38.0164 4.65268 41.3806C5.54925 43.1689 6.44807 44.9571 7.36496 46.7364C8.29765 48.5449 8.64544 50.4619 8.42864 52.4736C8.21409 54.4651 7.98374 56.4543 7.715 58.4367C7.20687 62.1668 8.78997 65.0275 12.2452 66.5245C14.0813 67.3193 15.9151 68.1163 17.7624 68.884C19.7565 69.7149 21.2989 71.0538 22.4643 72.8646C23.5934 74.619 24.7203 76.3756 25.8969 78.1007C27.7601 80.8327 30.714 81.8962 33.8983 80.9953C35.7682 80.4669 37.6132 79.846 39.4877 79.3312C40.6394 79.0106 41.8341 78.8142 42.9 78.5861Z" stroke="#131313" mask="url(#path-1-outside-1_208_187)"/>
<path d="M43.0129 70.2094C27.7736 70.2274 15.3595 57.8316 15.303 42.5435C15.2466 27.3072 27.803 14.7556 43.0355 14.8189C58.3381 14.8821 70.7341 27.2959 70.7048 42.5254C70.6754 57.8 58.2794 70.1936 43.0129 70.2094ZM18.0131 42.5186C18.0266 56.294 29.2461 67.5089 43.0084 67.5022C56.7776 67.4954 68.006 56.2646 67.997 42.5096C67.988 28.7365 56.764 17.5193 43.0016 17.5283C29.228 17.5351 17.9995 28.7658 18.0131 42.5186Z" stroke="#131313" mask="url(#path-1-outside-1_208_187)"/>
<path d="M39.5351 42.697C41.9922 40.3104 44.3476 38.0435 46.6828 35.7517C48.0716 34.388 49.4199 32.9813 50.7997 31.6062C52.9203 29.4929 56.0323 29.4116 58.0761 31.4076C60.1222 33.4035 60.1402 36.5488 58.0422 38.6847C53.18 43.6385 48.2952 48.572 43.3923 53.4852C41.2559 55.6257 38.2207 55.6189 36.0572 53.492C33.3404 50.8209 30.6485 48.1272 27.9746 45.411C25.8789 43.2818 25.8811 40.1501 27.9295 38.1383C29.9394 36.1627 33.0559 36.1988 35.1471 38.258C36.6512 39.7414 38.1191 41.2632 39.5351 42.697ZM31.5925 39.2334C30.9556 39.5021 30.4452 39.6217 30.0523 39.904C28.8283 40.7823 28.7944 42.399 29.9665 43.5821C32.5094 46.1493 35.0726 48.6962 37.629 51.2476C39.1354 52.7514 40.3187 52.7491 41.8296 51.225C46.5179 46.4925 51.1994 41.7555 55.8832 37.0184C56.1 36.7994 56.3281 36.5759 56.493 36.3185C57.026 35.4808 57.0531 34.6047 56.5133 33.7693C55.9758 32.9361 55.1515 32.5026 54.194 32.7374C53.6046 32.882 53.0061 33.2681 52.5703 33.7038C48.7107 37.549 44.8874 41.4281 41.0504 45.2958C39.9822 46.3728 39.447 46.3683 38.3607 45.2845C36.7031 43.6295 35.0726 41.9451 33.3743 40.333C32.8707 39.8588 32.1774 39.5879 31.5925 39.2334Z" stroke="#131313" mask="url(#path-1-outside-1_208_187)"/>
</svg>
