<svg xmlns="http://www.w3.org/2000/svg" width="86" height="85" fill="none"><mask id="a" width="86" height="85" x="0" y="0" fill="#000" maskUnits="userSpaceOnUse"><path fill="#fff" d="M0 0h86v85H0z"/><path d="M4.851 59.597c.256-2.183.486-4.484.804-6.773.249-1.793.039-3.47-.815-5.08-.896-1.694-1.748-3.41-2.606-5.126-2.2-4.398-1.439-8.785 2.123-12.19a319.073 319.073 0 0 1 4.322-4.053 7.585 7.585 0 0 0 2.324-4.035c.474-2.116.955-4.234 1.506-6.331 1.132-4.29 4.827-7.192 9.253-7.37 2.143-.086 4.284-.214 6.423-.354 1.479-.098 2.77-.69 3.945-1.581 1.752-1.33 3.496-2.676 5.298-3.935A9.668 9.668 0 0 1 48.55 2.75c1.782 1.24 3.508 2.563 5.23 3.886 1.417 1.089 2.977 1.646 4.77 1.694 2.03.054 4.059.19 6.084.34 4.479.33 7.957 3.39 9.013 7.885.459 1.947.922 3.893 1.362 5.846.346 1.533 1.08 2.827 2.238 3.895a337.247 337.247 0 0 1 4.442 4.175c3.49 3.341 4.26 7.728 2.126 12.052-.687 1.391-1.308 2.822-2.114 4.139-1.405 2.298-1.694 4.717-1.233 7.318.28 1.58.43 3.186.598 4.784.44 4.186-1.77 8.151-5.605 9.948-1.963.922-3.97 1.752-5.976 2.579-1.567.648-2.791 1.657-3.697 3.09-1.038 1.647-2.118 3.266-3.19 4.89-2.68 4.057-6.9 5.606-11.557 4.235a230.571 230.571 0 0 1-5.499-1.668c-1.727-.554-3.419-.52-5.151.015-2.313.716-4.616 1.54-6.987 1.97-3.934.71-7.168-.735-9.544-3.925-1.244-1.67-2.353-3.448-3.449-5.222-1.018-1.653-2.391-2.807-4.189-3.523a112.264 112.264 0 0 1-5.289-2.251c-3.914-1.79-5.89-4.895-6.082-9.305ZM42.9 78.587c1.016.18 1.892.263 2.728.496 2.116.59 4.21 1.264 6.321 1.872 3.399.975 6.367-.12 8.315-3.055a319.524 319.524 0 0 0 3.286-5.029c1.209-1.896 2.855-3.235 4.93-4.09a172.04 172.04 0 0 0 5.671-2.433c2.981-1.354 4.569-4.165 4.219-7.403-.174-1.599-.332-3.2-.601-4.785-.508-3-.17-5.818 1.402-8.483.83-1.404 1.502-2.903 2.23-4.366 1.614-3.25 1.068-6.365-1.554-8.858-1.534-1.459-3.085-2.9-4.621-4.356a9.496 9.496 0 0 1-2.778-4.843c-.492-2.113-.98-4.226-1.5-6.333-.785-3.19-3.26-5.313-6.467-5.54-1.999-.143-4-.283-6-.337-2.34-.064-4.416-.775-6.268-2.204a251.656 251.656 0 0 0-4.672-3.502c-2.995-2.206-6.145-2.183-9.13.052-1.604 1.199-3.21 2.4-4.81 3.599-1.358 1.016-2.849 1.754-4.547 1.901-2.36.206-4.727.355-7.093.458-3.442.152-6.073 2.238-6.893 5.57-.476 1.942-.937 3.891-1.364 5.844-.485 2.22-1.527 4.1-3.209 5.636-1.418 1.294-2.803 2.621-4.203 3.935-2.76 2.59-3.324 5.683-1.64 9.048a541.306 541.306 0 0 0 2.713 5.355 9.941 9.941 0 0 1 1.064 5.738c-.215 1.991-.445 3.98-.714 5.963-.508 3.73 1.075 6.59 4.53 8.088 1.836.794 3.67 1.591 5.517 2.359 1.994.83 3.537 2.17 4.702 3.98 1.13 1.755 2.256 3.512 3.433 5.237 1.863 2.732 4.817 3.795 8.001 2.894 1.87-.528 3.715-1.149 5.59-1.664 1.151-.32 2.346-.517 3.412-.745Z"/><path d="M43.013 70.21c-15.24.017-27.653-12.378-27.71-27.666-.056-15.237 12.5-27.788 27.732-27.725 15.303.063 27.7 12.477 27.67 27.706-.03 15.275-12.426 27.669-27.692 27.684Zm-25-27.691c.014 13.775 11.233 24.99 24.995 24.983 13.77-.007 24.998-11.237 24.989-24.992-.009-13.773-11.233-24.99-24.995-24.982-13.774.007-25.003 11.238-24.989 24.99Z"/><path d="M39.535 42.697c2.457-2.387 4.813-4.654 7.148-6.945 1.389-1.364 2.737-2.77 4.117-4.146 2.12-2.113 5.232-2.194 7.276-.198 2.046 1.995 2.064 5.14-.034 7.277a2514.617 2514.617 0 0 1-14.65 14.8c-2.136 2.14-5.171 2.134-7.335.007a699.783 699.783 0 0 1-8.082-8.081c-2.096-2.13-2.094-5.26-.046-7.273 2.01-1.975 5.127-1.94 7.218.12 1.504 1.483 2.972 3.005 4.388 4.439Zm-7.942-3.464c-.637.27-1.148.389-1.54.671-1.225.878-1.259 2.495-.087 3.678 2.543 2.567 5.107 5.114 7.663 7.666 1.506 1.503 2.69 1.501 4.2-.023 4.689-4.733 9.37-9.47 14.054-14.207.217-.219.445-.442.61-.7.533-.837.56-1.713.02-2.549-.537-.833-1.361-1.266-2.319-1.032-.59.145-1.188.531-1.624.967-3.86 3.845-7.683 7.724-11.52 11.592-1.068 1.077-1.603 1.072-2.69-.011-1.657-1.655-3.287-3.34-4.986-4.952-.503-.474-1.197-.745-1.782-1.1Z"/></mask><path fill="#131313" d="M4.851 59.597c.256-2.183.486-4.484.804-6.773.249-1.793.039-3.47-.815-5.08-.896-1.694-1.748-3.41-2.606-5.126-2.2-4.398-1.439-8.785 2.123-12.19a319.073 319.073 0 0 1 4.322-4.053 7.585 7.585 0 0 0 2.324-4.035c.474-2.116.955-4.234 1.506-6.331 1.132-4.29 4.827-7.192 9.253-7.37 2.143-.086 4.284-.214 6.423-.354 1.479-.098 2.77-.69 3.945-1.581 1.752-1.33 3.496-2.676 5.298-3.935A9.668 9.668 0 0 1 48.55 2.75c1.782 1.24 3.508 2.563 5.23 3.886 1.417 1.089 2.977 1.646 4.77 1.694 2.03.054 4.059.19 6.084.34 4.479.33 7.957 3.39 9.013 7.885.459 1.947.922 3.893 1.362 5.846.346 1.533 1.08 2.827 2.238 3.895a337.247 337.247 0 0 1 4.442 4.175c3.49 3.341 4.26 7.728 2.126 12.052-.687 1.391-1.308 2.822-2.114 4.139-1.405 2.298-1.694 4.717-1.233 7.318.28 1.58.43 3.186.598 4.784.44 4.186-1.77 8.151-5.605 9.948-1.963.922-3.97 1.752-5.976 2.579-1.567.648-2.791 1.657-3.697 3.09-1.038 1.647-2.118 3.266-3.19 4.89-2.68 4.057-6.9 5.606-11.557 4.235a230.571 230.571 0 0 1-5.499-1.668c-1.727-.554-3.419-.52-5.151.015-2.313.716-4.616 1.54-6.987 1.97-3.934.71-7.168-.735-9.544-3.925-1.244-1.67-2.353-3.448-3.449-5.222-1.018-1.653-2.391-2.807-4.189-3.523a112.264 112.264 0 0 1-5.289-2.251c-3.914-1.79-5.89-4.895-6.082-9.305ZM42.9 78.587c1.016.18 1.892.263 2.728.496 2.116.59 4.21 1.264 6.321 1.872 3.399.975 6.367-.12 8.315-3.055a319.524 319.524 0 0 0 3.286-5.029c1.209-1.896 2.855-3.235 4.93-4.09a172.04 172.04 0 0 0 5.671-2.433c2.981-1.354 4.569-4.165 4.219-7.403-.174-1.599-.332-3.2-.601-4.785-.508-3-.17-5.818 1.402-8.483.83-1.404 1.502-2.903 2.23-4.366 1.614-3.25 1.068-6.365-1.554-8.858-1.534-1.459-3.085-2.9-4.621-4.356a9.496 9.496 0 0 1-2.778-4.843c-.492-2.113-.98-4.226-1.5-6.333-.785-3.19-3.26-5.313-6.467-5.54-1.999-.143-4-.283-6-.337-2.34-.064-4.416-.775-6.268-2.204a251.656 251.656 0 0 0-4.672-3.502c-2.995-2.206-6.145-2.183-9.13.052-1.604 1.199-3.21 2.4-4.81 3.599-1.358 1.016-2.849 1.754-4.547 1.901-2.36.206-4.727.355-7.093.458-3.442.152-6.073 2.238-6.893 5.57-.476 1.942-.937 3.891-1.364 5.844-.485 2.22-1.527 4.1-3.209 5.636-1.418 1.294-2.803 2.621-4.203 3.935-2.76 2.59-3.324 5.683-1.64 9.048a541.306 541.306 0 0 0 2.713 5.355 9.941 9.941 0 0 1 1.064 5.738c-.215 1.991-.445 3.98-.714 5.963-.508 3.73 1.075 6.59 4.53 8.088 1.836.794 3.67 1.591 5.517 2.359 1.994.83 3.537 2.17 4.702 3.98 1.13 1.755 2.256 3.512 3.433 5.237 1.863 2.732 4.817 3.795 8.001 2.894 1.87-.528 3.715-1.149 5.59-1.664 1.151-.32 2.346-.517 3.412-.745Z"/><path fill="#131313" d="M43.013 70.21c-15.24.017-27.653-12.378-27.71-27.666-.056-15.237 12.5-27.788 27.732-27.725 15.303.063 27.7 12.477 27.67 27.706-.03 15.275-12.426 27.669-27.692 27.684Zm-25-27.691c.014 13.775 11.233 24.99 24.995 24.983 13.77-.007 24.998-11.237 24.989-24.992-.009-13.773-11.233-24.99-24.995-24.982-13.774.007-25.003 11.238-24.989 24.99Z"/><path fill="#131313" d="M39.535 42.697c2.457-2.387 4.813-4.654 7.148-6.945 1.389-1.364 2.737-2.77 4.117-4.146 2.12-2.113 5.232-2.194 7.276-.198 2.046 1.995 2.064 5.14-.034 7.277a2514.617 2514.617 0 0 1-14.65 14.8c-2.136 2.14-5.171 2.134-7.335.007a699.783 699.783 0 0 1-8.082-8.081c-2.096-2.13-2.094-5.26-.046-7.273 2.01-1.975 5.127-1.94 7.218.12 1.504 1.483 2.972 3.005 4.388 4.439Zm-7.942-3.464c-.637.27-1.148.389-1.54.671-1.225.878-1.259 2.495-.087 3.678 2.543 2.567 5.107 5.114 7.663 7.666 1.506 1.503 2.69 1.501 4.2-.023 4.689-4.733 9.37-9.47 14.054-14.207.217-.219.445-.442.61-.7.533-.837.56-1.713.02-2.549-.537-.833-1.361-1.266-2.319-1.032-.59.145-1.188.531-1.624.967-3.86 3.845-7.683 7.724-11.52 11.592-1.068 1.077-1.603 1.072-2.69-.011-1.657-1.655-3.287-3.34-4.986-4.952-.503-.474-1.197-.745-1.782-1.1Z"/><path stroke="#131313" d="M4.851 59.597c.256-2.183.486-4.484.804-6.773.249-1.793.039-3.47-.815-5.08-.896-1.694-1.748-3.41-2.606-5.126-2.2-4.398-1.439-8.785 2.123-12.19a319.073 319.073 0 0 1 4.322-4.053 7.585 7.585 0 0 0 2.324-4.035c.474-2.116.955-4.234 1.506-6.331 1.132-4.29 4.827-7.192 9.253-7.37 2.143-.086 4.284-.214 6.423-.354 1.479-.098 2.77-.69 3.945-1.581 1.752-1.33 3.496-2.676 5.298-3.935A9.668 9.668 0 0 1 48.55 2.75c1.782 1.24 3.508 2.563 5.23 3.886 1.417 1.089 2.977 1.646 4.77 1.694 2.03.054 4.059.19 6.084.34 4.479.33 7.957 3.39 9.013 7.885.459 1.947.922 3.893 1.362 5.846.346 1.533 1.08 2.827 2.238 3.895a337.247 337.247 0 0 1 4.442 4.175c3.49 3.341 4.26 7.728 2.126 12.052-.687 1.391-1.308 2.822-2.114 4.139-1.405 2.298-1.694 4.717-1.233 7.318.28 1.58.43 3.186.598 4.784.44 4.186-1.77 8.151-5.605 9.948-1.963.922-3.97 1.752-5.976 2.579-1.567.648-2.791 1.657-3.697 3.09-1.038 1.647-2.118 3.266-3.19 4.89-2.68 4.057-6.9 5.606-11.557 4.235a230.571 230.571 0 0 1-5.499-1.668c-1.727-.554-3.419-.52-5.151.015-2.313.716-4.616 1.54-6.987 1.97-3.934.71-7.168-.735-9.544-3.925-1.244-1.67-2.353-3.448-3.449-5.222-1.018-1.653-2.391-2.807-4.189-3.523a112.264 112.264 0 0 1-5.289-2.251c-3.914-1.79-5.89-4.895-6.082-9.305ZM42.9 78.587c1.016.18 1.892.263 2.728.496 2.116.59 4.21 1.264 6.321 1.872 3.399.975 6.367-.12 8.315-3.055a319.524 319.524 0 0 0 3.286-5.029c1.209-1.896 2.855-3.235 4.93-4.09a172.04 172.04 0 0 0 5.671-2.433c2.981-1.354 4.569-4.165 4.219-7.403-.174-1.599-.332-3.2-.601-4.785-.508-3-.17-5.818 1.402-8.483.83-1.404 1.502-2.903 2.23-4.366 1.614-3.25 1.068-6.365-1.554-8.858-1.534-1.459-3.085-2.9-4.621-4.356a9.496 9.496 0 0 1-2.778-4.843c-.492-2.113-.98-4.226-1.5-6.333-.785-3.19-3.26-5.313-6.467-5.54-1.999-.143-4-.283-6-.337-2.34-.064-4.416-.775-6.268-2.204a251.656 251.656 0 0 0-4.672-3.502c-2.995-2.206-6.145-2.183-9.13.052-1.604 1.199-3.21 2.4-4.81 3.599-1.358 1.016-2.849 1.754-4.547 1.901-2.36.206-4.727.355-7.093.458-3.442.152-6.073 2.238-6.893 5.57-.476 1.942-.937 3.891-1.364 5.844-.485 2.22-1.527 4.1-3.209 5.636-1.418 1.294-2.803 2.621-4.203 3.935-2.76 2.59-3.324 5.683-1.64 9.048a541.306 541.306 0 0 0 2.713 5.355 9.941 9.941 0 0 1 1.064 5.738c-.215 1.991-.445 3.98-.714 5.963-.508 3.73 1.075 6.59 4.53 8.088 1.836.794 3.67 1.591 5.517 2.359 1.994.83 3.537 2.17 4.702 3.98 1.13 1.755 2.256 3.512 3.433 5.237 1.863 2.732 4.817 3.795 8.001 2.894 1.87-.528 3.715-1.149 5.59-1.664 1.151-.32 2.346-.517 3.412-.745Z" mask="url(#a)"/><path stroke="#131313" d="M43.013 70.21c-15.24.017-27.653-12.378-27.71-27.666-.056-15.237 12.5-27.788 27.732-27.725 15.303.063 27.7 12.477 27.67 27.706-.03 15.275-12.426 27.669-27.692 27.684Zm-25-27.691c.014 13.775 11.233 24.99 24.995 24.983 13.77-.007 24.998-11.237 24.989-24.992-.009-13.773-11.233-24.99-24.995-24.982-13.774.007-25.003 11.238-24.989 24.99Z" mask="url(#a)"/><path stroke="#131313" d="M39.535 42.697c2.457-2.387 4.813-4.654 7.148-6.945 1.389-1.364 2.737-2.77 4.117-4.146 2.12-2.113 5.232-2.194 7.276-.198 2.046 1.995 2.064 5.14-.034 7.277a2514.617 2514.617 0 0 1-14.65 14.8c-2.136 2.14-5.171 2.134-7.335.007a699.783 699.783 0 0 1-8.082-8.081c-2.096-2.13-2.094-5.26-.046-7.273 2.01-1.975 5.127-1.94 7.218.12 1.504 1.483 2.972 3.005 4.388 4.439Zm-7.942-3.464c-.637.27-1.148.389-1.54.671-1.225.878-1.259 2.495-.087 3.678 2.543 2.567 5.107 5.114 7.663 7.666 1.506 1.503 2.69 1.501 4.2-.023 4.689-4.733 9.37-9.47 14.054-14.207.217-.219.445-.442.61-.7.533-.837.56-1.713.02-2.549-.537-.833-1.361-1.266-2.319-1.032-.59.145-1.188.531-1.624.967-3.86 3.845-7.683 7.724-11.52 11.592-1.068 1.077-1.603 1.072-2.69-.011-1.657-1.655-3.287-3.34-4.986-4.952-.503-.474-1.197-.745-1.782-1.1Z" mask="url(#a)"/></svg>