<svg width="27" height="27" fill="none" xmlns="http://www.w3.org/2000/svg"><circle cx="13.5" cy="13.5" r="13.5" fill="#fff"/><path d="M17.924 20.52h2.283a.312.312 0 0 0 .312-.313l.002-4.832c0-2.525-.544-4.466-3.49-4.466a3.06 3.06 0 0 0-2.746 1.502.026.026 0 0 1-.012.01.026.026 0 0 1-.03-.008.026.026 0 0 1-.005-.015v-.944a.313.313 0 0 0-.312-.312H11.76a.311.311 0 0 0-.312.312v8.753a.313.313 0 0 0 .312.313h2.283a.311.311 0 0 0 .312-.313V15.88c0-1.223.231-2.408 1.745-2.408 1.493 0 1.512 1.4 1.512 2.488v4.247a.313.313 0 0 0 .312.313ZM6.48 8.17c0 .927.762 1.69 1.688 1.69.925 0 1.686-.764 1.686-1.69 0-.927-.761-1.69-1.687-1.69-.925 0-1.687.763-1.687 1.69Zm.543 12.35H9.31a.311.311 0 0 0 .312-.313v-8.753a.313.313 0 0 0-.312-.312H7.023a.311.311 0 0 0-.312.312v8.753a.313.313 0 0 0 .312.313Z" fill="#30E35E"/></svg>