<svg width="155" height="160" fill="none" xmlns="http://www.w3.org/2000/svg"><g filter="url(#a)"><path d="m81.378 145.244 43.302-25.033a19.89 19.89 0 0 0 9.932-17.223v-19.44L143 77.953l-8.388-5.593V52.92a19.889 19.889 0 0 0-9.932-17.224L81.378 10.664a19.845 19.845 0 0 0-19.863 0L18.212 35.697a19.89 19.89 0 0 0-9.93 17.223v50.068a19.89 19.89 0 0 0 9.93 17.223l43.303 25.033a19.843 19.843 0 0 0 19.863 0Z" fill="#fff"/></g><path d="M64.687 43h.615c.457.285.906.584 1.372.85 1.317.754 2.771.99 4.258 1.075.986.058 1.562.641 1.568 1.632.006 1.039.024 2.08-.004 3.119a51.42 51.42 0 0 1-.177 3.374c-.067.717-.258 1.422-.374 2.03 1.105 0 2.224-.112 3.309.032 1.095.145 2.157.545 3.237.834v-.405c0-2.11-.007-4.219.006-6.328.002-.362.04-.736.14-1.081.366-1.27 1.5-2.109 2.854-2.133.741-.014 1.482-.003 2.26-.003v-.709c-.002-.79.316-1.422.96-1.872.244-.171.535-.28.804-.415h5.449c.06.032.12.073.184.095 1.027.368 1.572 1.132 1.588 2.229.002.213 0 .428 0 .67h1.991c2.017.004 3.265 1.246 3.266 3.255v9.973c-.001 2.041-1.24 3.28-3.284 3.281H83.528c.8 4.932-.951 8.604-5.268 11.07 1.083 1.117 1.365 2.417.84 3.972.477-.059.886-.07 1.275-.168.524-.131 1.031-.326 1.544-.497 4.064-1.354 8.125-2.711 12.189-4.064 1.454-.484 2.836.005 3.525 1.241.775 1.389.293 2.98-1.18 3.878-4.485 2.733-8.977 5.453-13.452 8.202a7.348 7.348 0 0 1-3.99 1.118c-5.96-.023-11.92-.012-17.88-.003-.215 0-.476.052-.637.178-.484.378-1.01.572-1.62.57-1.172-.006-2.344 0-3.515-.005a2.778 2.778 0 0 1-.566-.054c-.981-.206-1.509-.877-1.794-1.788v-16.61c.461-1.37 1.438-1.88 2.84-1.8 1.007.06 2.02.017 3.03.011.97-.006 1.679.414 2.148 1.262.063.111.235.231.354.23 1.45-.018 2.89 0 4.364.7-1.42-2.42-1.818-4.867-1.216-7.469-.236-.102-.452-.187-.659-.287-3.275-1.574-5.118-4.254-5.937-7.715-.639-2.7-.408-5.448-.409-8.18 0-.766.644-1.308 1.413-1.364.365-.026.731-.045 1.093-.09 1.35-.166 2.642-.498 3.777-1.298.285-.199.593-.362.89-.543Zm-3.41 42.72c.122.01.208.022.295.022l17.879.001c.887 0 1.7-.241 2.454-.707.872-.537 1.75-1.066 2.624-1.598 3.724-2.266 7.45-4.53 11.166-6.81.273-.167.532-.43.68-.71.256-.487.13-.982-.238-1.38-.427-.462-.951-.505-1.531-.31-4.311 1.443-8.628 2.872-12.934 4.327-.898.303-1.797.473-2.75.46-1.873-.029-3.748-.014-5.623-.005-.409 0-.82.02-1.224.076-1.07.149-1.99.644-2.866 1.252-.396.276-.841.179-1.08-.179-.224-.337-.141-.774.226-1.042 1.28-.932 2.688-1.55 4.294-1.589 1.346-.032 2.694-.02 4.041-.023.818-.002.976-.115 1.13-.923.05-.266.055-.56 0-.824-.215-1.072-1.366-1.963-2.593-1.991a63.015 63.015 0 0 0-3.426-.004c-2.088.066-3.942-.512-5.593-1.813-1.442-1.136-3.141-1.313-4.928-1.156-.004 4.967-.004 9.925-.004 14.927Zm4.468-20.972c.001 2.943 1.576 5.693 4.14 7.133.388.218.875.341 1.323.358 1.242.048 2.487 0 3.732.025.478.011.951.13 1.43.177.22.022.468.044.665-.034 3.546-1.381 5.688-5.1 5.125-8.87-.648-4.344-4.461-7.32-8.968-7-4.108.292-7.448 3.975-7.447 8.211Zm22.538-17.255c-2.196 0-4.393-.003-6.588.001-1.105.001-1.705.606-1.706 1.717-.003 2.489.004 4.978-.009 7.468 0 .299.102.483.321.664a9.285 9.285 0 0 1 2.532 3.324c.126.275.277.345.562.345 3.791-.009 7.584-.004 11.376-.007 1.133 0 1.723-.6 1.723-1.741.002-3.339.002-6.677 0-10.016 0-1.17-.584-1.754-1.754-1.754-2.152-.002-4.305-.001-6.457-.001ZM64.948 61.025c.06-.096.104-.153.132-.216 1.005-2.202 2.6-3.827 4.776-4.888a.606.606 0 0 0 .296-.335c.243-.901.582-1.8.66-2.718.145-1.73.137-3.476.188-5.215.012-.391.002-.784.002-1.2-2.191-.158-4.271-.547-6.022-1.948-1.745 1.414-3.817 1.783-5.99 1.94 0 1.207-.043 2.392.012 3.57.061 1.298.107 2.61.348 3.882.567 2.999 2.092 5.368 4.877 6.803.23.118.472.213.721.325Zm-10.451 16.85c0 2.56-.001 5.121.001 7.682.001.668.268.94.925.943 1.14.005 2.282.005 3.423 0 .63-.004.907-.281.907-.921.004-5.136.004-10.272 0-15.409 0-.642-.268-.908-.907-.911-1.112-.006-2.224-.004-3.335-.002-.786.002-1.014.233-1.014 1.022v7.595Zm36.739-31.896c0-.264.008-.482-.002-.699-.02-.475-.291-.772-.767-.776-1.49-.012-2.978-.01-4.468 0-.377.002-.653.213-.721.582-.053.288-.011.595-.011.893h5.969Z" fill="#2383AE"/><path d="M71.012 67.322c-.016-.708.24-1.034.69-1.059.455-.024.745.264.8.795.094.91.746 1.488 1.614 1.43.767-.05 1.38-.715 1.378-1.495-.002-.828-.639-1.454-1.52-1.494-1.529-.07-2.704-1.079-2.94-2.524-.23-1.398.543-2.7 1.929-3.287.13-.055.255-.215.301-.355.12-.37.362-.579.736-.575.373.002.606.217.729.586.048.145.204.3.349.36 1.135.48 1.916 1.57 1.912 2.712-.001.524-.328.855-.808.82-.413-.031-.635-.294-.69-.814-.102-1.008-1.012-1.642-1.936-1.351a1.49 1.49 0 0 0-1.045 1.63c.084.72.7 1.276 1.482 1.298.864.026 1.602.323 2.19.953a2.98 2.98 0 0 1-1.057 4.807c-.23.095-.384.182-.435.465-.06.337-.342.515-.677.52-.353.005-.643-.167-.715-.528-.054-.276-.213-.363-.442-.462-1.137-.492-1.736-1.38-1.845-2.432ZM93.497 54.257c-.001 2.88-2.392 5.261-5.271 5.25-2.866-.012-5.225-2.371-5.238-5.24-.013-2.878 2.367-5.268 5.248-5.273 2.878-.005 5.263 2.381 5.261 5.263Zm-9.004-.014c-.007 2.05 1.675 3.745 3.733 3.76 2.043.014 3.746-1.667 3.771-3.726.026-2.06-1.69-3.784-3.757-3.78a3.769 3.769 0 0 0-3.747 3.746ZM63.39 53.894l2.895-3.86c.35-.468.698-.94 1.055-1.402.312-.402.762-.488 1.107-.225.348.264.394.712.083 1.128a1402.032 1402.032 0 0 1-4.369 5.823c-.378.502-.819.53-1.265.099a53.522 53.522 0 0 1-1.364-1.365c-.346-.36-.361-.78-.063-1.094.311-.328.748-.32 1.122.041.262.253.5.532.8.855Z" fill="#2383AE"/><path d="M89.016 53.47c.61.079 1.438-.148 1.45.761.013.94-.826.732-1.433.784-.097.602.15 1.458-.793 1.456-.921-.002-.695-.827-.774-1.472-.234 0-.461.011-.688-.003-.47-.03-.767-.315-.776-.729-.01-.432.293-.733.785-.765.215-.014.433-.002.68-.002.09-.628-.172-1.512.823-1.47.875.038.668.831.726 1.44Z" fill="#2383AE"/><path d="M43.056 111v-8.727h3.052c.607 0 1.109.105 1.504.315.395.207.689.487.882.84.193.349.29.737.29 1.163 0 .375-.067.685-.2.929-.131.244-.305.437-.52.579a2.363 2.363 0 0 1-.695.316v.085c.267.017.535.111.805.281.27.171.496.415.678.733.182.318.273.708.273 1.168 0 .437-.1.831-.299 1.18-.199.35-.513.627-.941.831-.43.205-.988.307-1.675.307h-3.154Zm1.057-.938h2.097c.69 0 1.18-.133 1.47-.4.292-.27.439-.597.439-.98 0-.296-.075-.568-.226-.818a1.63 1.63 0 0 0-.644-.605c-.278-.154-.607-.231-.988-.231h-2.148v3.034Zm0-3.954h1.96c.319 0 .605-.063.861-.188.259-.125.463-.301.614-.528.153-.227.23-.494.23-.801 0-.384-.134-.709-.4-.976-.268-.27-.691-.405-1.27-.405h-1.995v2.898Zm9.356 5.028c-.63 0-1.175-.139-1.632-.417a2.806 2.806 0 0 1-1.053-1.176c-.244-.506-.366-1.094-.366-1.765 0-.67.122-1.261.366-1.772.248-.515.591-.915 1.032-1.202.443-.29.96-.435 1.55-.435.342 0 .678.057 1.01.171.333.113.636.298.908.554.273.253.49.588.652 1.005.162.418.243.932.243 1.543v.426h-5.045v-.869h4.023a2.15 2.15 0 0 0-.222-.989 1.67 1.67 0 0 0-.622-.686 1.747 1.747 0 0 0-.946-.251c-.4 0-.747.099-1.04.298-.29.196-.513.452-.67.767a2.25 2.25 0 0 0-.233 1.014v.58c0 .494.085.913.255 1.257.173.341.414.601.72.78.307.176.664.264 1.07.264.264 0 .503-.037.716-.111a1.53 1.53 0 0 0 .558-.341c.156-.153.277-.344.362-.571l.972.273a2.156 2.156 0 0 1-.516.869c-.241.247-.54.441-.895.58a3.326 3.326 0 0 1-1.197.204Zm5.246-4.074V111h-1.006v-6.545h.972v1.022h.085c.153-.332.386-.599.699-.801.312-.204.716-.307 1.21-.307.443 0 .83.091 1.163.273.333.179.591.452.776.818.184.364.277.824.277 1.381V111h-1.006v-4.091c0-.514-.133-.915-.4-1.202-.267-.289-.634-.434-1.1-.434-.32 0-.608.069-.86.209-.25.139-.448.342-.593.609-.145.267-.217.591-.217.971Zm8.758 4.074c-.63 0-1.175-.139-1.632-.417a2.806 2.806 0 0 1-1.053-1.176c-.244-.506-.366-1.094-.366-1.765 0-.67.122-1.261.366-1.772.247-.515.591-.915 1.032-1.202.443-.29.96-.435 1.55-.435.341 0 .678.057 1.01.171.333.113.636.298.908.554.273.253.49.588.652 1.005.162.418.243.932.243 1.543v.426h-5.045v-.869h4.022a2.15 2.15 0 0 0-.221-.989 1.67 1.67 0 0 0-.622-.686 1.747 1.747 0 0 0-.946-.251c-.401 0-.748.099-1.04.298-.29.196-.513.452-.67.767a2.25 2.25 0 0 0-.234 1.014v.58c0 .494.086.913.256 1.257.173.341.413.601.72.78.307.176.664.264 1.07.264.264 0 .503-.037.716-.111a1.53 1.53 0 0 0 .558-.341c.156-.153.277-.344.362-.571l.972.273a2.156 2.156 0 0 1-.516.869c-.241.247-.54.441-.895.58a3.326 3.326 0 0 1-1.197.204Zm7.155-6.681v.852h-3.529v-.852h3.529ZM72.156 111v-7.449c0-.375.088-.687.264-.937a1.64 1.64 0 0 1 .686-.563c.282-.125.579-.187.891-.187.247 0 .449.02.605.059.156.04.273.077.35.111l-.29.869a5.726 5.726 0 0 0-.213-.064 1.316 1.316 0 0 0-.35-.038c-.332 0-.572.084-.72.252-.145.167-.217.413-.217.737V111h-1.006Zm3.881 0v-6.545h1.006V111h-1.006Zm.511-7.636a.714.714 0 0 1-.507-.201.642.642 0 0 1-.208-.481c0-.188.07-.348.208-.482a.717.717 0 0 1 .508-.2c.195 0 .363.067.502.2a.639.639 0 0 1 .213.482.636.636 0 0 1-.213.481.7.7 0 0 1-.502.201Zm4.996 7.772c-.614 0-1.142-.145-1.585-.434a2.833 2.833 0 0 1-1.023-1.198c-.239-.508-.358-1.089-.358-1.743 0-.664.122-1.251.367-1.76.247-.511.59-.91 1.03-1.197.444-.29.96-.435 1.552-.435.46 0 .875.086 1.244.256.37.17.672.409.908.716s.382.665.439 1.074h-1.006a1.557 1.557 0 0 0-.511-.793c-.262-.233-.614-.349-1.057-.349-.392 0-.736.102-1.031.307a1.994 1.994 0 0 0-.686.856c-.162.367-.243.797-.243 1.291 0 .506.08.946.238 1.321.162.375.39.666.682.874.296.207.642.311 1.04.311.261 0 .499-.045.712-.136.213-.091.393-.222.54-.392.148-.171.254-.375.316-.614h1.006a2.334 2.334 0 0 1-.422 1.044 2.357 2.357 0 0 1-.882.733c-.364.179-.787.268-1.27.268Zm4.044-.136v-6.545h1.006V111h-1.006Zm.511-7.636a.714.714 0 0 1-.507-.201.642.642 0 0 1-.209-.481c0-.188.07-.348.21-.482a.717.717 0 0 1 .506-.2c.196 0 .364.067.503.2a.638.638 0 0 1 .213.482.636.636 0 0 1-.213.481.699.699 0 0 1-.503.201Zm4.996 7.772c-.591 0-1.11-.14-1.556-.422a2.861 2.861 0 0 1-1.04-1.18c-.247-.506-.37-1.097-.37-1.773 0-.681.123-1.277.37-1.785.25-.509.597-.904 1.04-1.185.446-.281.965-.422 1.556-.422.59 0 1.108.141 1.55.422.447.281.793.676 1.04 1.185.25.508.376 1.104.376 1.785 0 .676-.125 1.267-.375 1.773a2.823 2.823 0 0 1-1.04 1.18c-.443.282-.96.422-1.551.422Zm0-.903c.448 0 .818-.115 1.108-.345.29-.23.504-.533.643-.908.14-.375.209-.781.209-1.219 0-.437-.07-.845-.209-1.223a2.065 2.065 0 0 0-.643-.916c-.29-.233-.66-.349-1.108-.349-.45 0-.819.116-1.108.349-.29.233-.504.539-.644.916-.139.378-.209.786-.209 1.223 0 .438.07.844.21 1.219.139.375.353.678.643.908.29.23.659.345 1.108.345Zm9.137-4.313-.903.256a1.686 1.686 0 0 0-.252-.439 1.222 1.222 0 0 0-.443-.358c-.187-.093-.427-.14-.72-.14-.4 0-.734.092-1.002.277-.264.181-.396.413-.396.694 0 .25.091.448.273.593.182.144.466.265.852.362l.972.238c.585.142 1.021.36 1.308.652.287.29.43.664.43 1.121 0 .375-.108.71-.323 1.006a2.16 2.16 0 0 1-.895.699c-.384.17-.83.255-1.338.255-.668 0-1.22-.145-1.658-.434-.438-.29-.715-.713-.831-1.27l.954-.239c.091.352.263.617.516.793.256.176.59.264 1.002.264.468 0 .84-.099 1.116-.298.278-.202.418-.443.418-.725a.763.763 0 0 0-.239-.571c-.16-.156-.403-.272-.733-.349l-1.09-.256c-.6-.142-1.04-.362-1.322-.66-.278-.302-.418-.678-.418-1.13 0-.369.104-.696.312-.98.21-.284.495-.507.856-.669a3.007 3.007 0 0 1 1.236-.243c.648 0 1.156.142 1.525.426.373.285.637.66.793 1.125Z" fill="#717171"/><defs><filter id="a" x=".281" y="0" width="154.718" height="159.908" filterUnits="userSpaceOnUse" color-interpolation-filters="sRGB"><feFlood flood-opacity="0" result="BackgroundImageFix"/><feColorMatrix in="SourceAlpha" values="0 0 0 0 0 0 0 0 0 0 0 0 0 0 0 0 0 0 127 0" result="hardAlpha"/><feOffset dx="2" dy="2"/><feGaussianBlur stdDeviation="5"/><feComposite in2="hardAlpha" operator="out"/><feColorMatrix values="0 0 0 0 0 0 0 0 0 0 0 0 0 0 0 0 0 0 0.1 0"/><feBlend in2="BackgroundImageFix" result="effect1_dropShadow_3_95"/><feBlend in="SourceGraphic" in2="effect1_dropShadow_3_95" result="shape"/></filter></defs></svg>