<svg width="155" height="160" viewBox="0 0 155 160" fill="none" xmlns="http://www.w3.org/2000/svg">
<g filter="url(#filter0_d_3_95)">
<path d="M81.3777 145.244L124.68 120.211C130.828 116.659 134.612 110.091 134.612 102.988L134.612 83.5472L143 77.954L134.612 72.3608L134.612 52.9205C134.612 45.817 130.828 39.2491 124.68 35.6973L81.3777 10.6638C75.2304 7.11206 67.6625 7.11206 61.5153 10.6638L18.2125 35.6973C12.0652 39.2491 8.28128 45.817 8.28128 52.9205L8.28127 102.988C8.28127 110.091 12.0652 116.659 18.2125 120.211L61.5153 145.244C67.6625 148.796 75.2348 148.796 81.3777 145.244Z" fill="white"/>
</g>
<path d="M64.6872 43C64.8923 43 65.0973 43 65.3024 43C65.7594 43.2848 66.2081 43.5836 66.6745 43.8508C67.9914 44.6043 69.4455 44.8398 70.9324 44.9253C71.9178 44.9828 72.4943 45.5663 72.5002 46.5565C72.506 47.596 72.5236 48.6366 72.4955 49.676C72.465 50.8021 72.4228 51.9295 72.3185 53.0497C72.2518 53.7669 72.0608 54.4724 71.9448 55.0805C73.0497 55.0805 74.1687 54.968 75.2537 55.1122C76.3492 55.2575 77.4108 55.6571 78.4911 55.9465C78.4911 55.8622 78.4911 55.7016 78.4911 55.5411C78.4911 53.4318 78.484 51.3224 78.4969 49.2131C78.4993 48.851 78.5379 48.4772 78.6375 48.1315C79.0031 46.8624 80.1361 46.0234 81.4906 45.9987C82.2323 45.9847 82.9728 45.9964 83.7508 45.9964C83.7508 45.721 83.7508 45.5042 83.7508 45.2874C83.7485 44.4976 84.0672 43.8648 84.7105 43.4148C84.9554 43.2437 85.2459 43.1359 85.5154 43C87.3316 43 89.1477 43 90.9639 43C91.0248 43.0316 91.0834 43.0727 91.1478 43.0949C92.1754 43.4629 92.7202 44.2269 92.7355 45.3238C92.7378 45.537 92.7355 45.7515 92.7355 45.9941C93.442 45.9941 94.0841 45.9929 94.7274 45.9941C96.7439 45.9976 97.9917 47.2397 97.9929 49.2494C97.9941 52.574 97.9941 55.8985 97.9929 59.2218C97.9917 61.2632 96.7532 62.5018 94.7086 62.503C91.1502 62.5042 87.5917 62.503 84.0344 62.503C83.861 62.503 83.6887 62.503 83.5282 62.503C84.3273 67.4353 82.5768 71.1067 78.2602 73.5722C79.3429 74.6902 79.6253 75.9898 79.1004 77.5448C79.5772 77.4862 79.9862 77.4745 80.3752 77.3772C80.8989 77.246 81.4063 77.0514 81.9195 76.8804C85.9829 75.5257 90.0441 74.1687 94.1075 72.8164C95.5616 72.3324 96.9442 72.8211 97.6332 74.0574C98.4077 75.446 97.9261 77.0374 96.4533 77.935C91.968 80.6678 87.4757 83.3876 83.001 86.1367C81.7648 86.8961 80.4631 87.2605 79.0101 87.2547C73.0509 87.2324 67.0904 87.243 61.1311 87.2523C60.9155 87.2523 60.6554 87.3039 60.4937 87.4305C60.0098 87.8078 59.4849 88.0023 58.8733 88C57.7016 87.9941 56.5299 88 55.3593 87.9953C55.1707 87.9941 54.9773 87.9812 54.7934 87.9414C53.8115 87.7351 53.2842 87.0637 52.9995 86.1532C52.9995 80.6162 52.9995 75.0792 52.9995 69.5423C53.46 68.1736 54.4372 67.6626 55.8397 67.7435C56.8462 67.8021 57.8597 67.7599 58.8697 67.754C59.8387 67.7482 60.5476 68.1677 61.0175 69.0161C61.0796 69.1274 61.2518 69.247 61.3713 69.2458C62.8207 69.2282 64.2619 69.2458 65.7347 69.9454C64.3146 67.5267 63.9174 65.0787 64.5185 62.4772C64.283 62.3753 64.0674 62.2897 63.86 62.1901C60.5851 60.6163 58.742 57.9363 57.923 54.4747C57.2844 51.7748 57.5153 49.0268 57.5141 46.2941C57.5141 45.5288 58.1585 44.9874 58.9272 44.9312C59.2916 44.9054 59.6583 44.8855 60.0204 44.841C61.3702 44.6746 62.6625 44.3429 63.7968 43.5426C64.0815 43.3445 64.3896 43.1805 64.6872 43ZM61.2764 85.7207C61.3994 85.7301 61.485 85.7418 61.5717 85.7418C67.531 85.743 73.4902 85.7418 79.4507 85.743C80.3377 85.743 81.1508 85.5016 81.9054 85.0364C82.7772 84.4985 83.6548 83.97 84.5289 83.438C88.2525 81.1716 91.9797 78.9088 95.6952 76.6284C95.9682 76.4608 96.2271 76.1972 96.3748 75.9171C96.6314 75.4308 96.5048 74.9363 96.1369 74.5378C95.7104 74.0761 95.1855 74.0328 94.6055 74.2273C90.2948 75.671 85.9783 77.0995 81.6722 78.5549C80.7736 78.8584 79.8749 79.0283 78.9223 79.0143C77.0487 78.9862 75.174 79.0014 73.2993 79.0096C72.8903 79.0108 72.4791 79.0295 72.0748 79.0858C71.0051 79.2346 70.0841 79.7303 69.2088 80.3385C68.8128 80.6138 68.3676 80.5166 68.1297 80.1592C67.9047 79.8217 67.9879 79.3846 68.3547 79.1174C69.6353 78.1846 71.0426 77.5671 72.649 77.5284C73.9953 77.4956 75.3427 77.5085 76.6902 77.5049C77.508 77.5026 77.6662 77.3901 77.8197 76.5815C77.8701 76.3155 77.8748 76.0226 77.8209 75.7577C77.6053 74.6855 76.4535 73.7949 75.2267 73.7668C74.0855 73.741 72.9419 73.7269 71.8007 73.7632C69.7127 73.8289 67.859 73.2512 66.2081 71.9504C64.7658 70.8137 63.0668 70.6368 61.2799 70.7938C61.2764 75.7612 61.2764 80.7193 61.2764 85.7207ZM65.7453 64.7483C65.7465 67.6908 67.3212 70.4411 69.8849 71.8813C70.2728 72.0992 70.7602 72.2223 71.2078 72.2387C72.4498 72.2867 73.6953 72.2387 74.9396 72.2645C75.4177 72.275 75.8911 72.3945 76.3691 72.4414C76.5894 72.4625 76.8378 72.4848 77.0346 72.4074C80.5814 71.0258 82.7233 67.3076 82.1597 63.5366C81.5117 59.1925 77.699 56.2161 73.1915 56.5371C69.0835 56.8289 65.7441 60.512 65.7453 64.7483ZM88.283 47.4928C86.0872 47.4928 83.8903 47.4905 81.6945 47.494C80.5896 47.4952 79.9897 48.0999 79.9885 49.2108C79.9862 51.6998 79.9932 54.1888 79.9803 56.6789C79.9791 56.9778 80.0822 57.1617 80.3014 57.3434C81.3969 58.2574 82.244 59.3695 82.8334 60.6667C82.9588 60.9421 83.1099 61.0124 83.3947 61.0124C87.1863 61.003 90.9791 61.0077 94.7707 61.0054C95.9037 61.0054 96.4943 60.4054 96.4943 59.264C96.4955 55.9254 96.4955 52.5869 96.4943 49.2483C96.4943 48.0788 95.9096 47.494 94.7402 47.494C92.5878 47.4917 90.4354 47.4928 88.283 47.4928ZM64.9485 61.0253C65.0071 60.9292 65.0516 60.8718 65.0798 60.8085C66.0851 58.6066 67.6809 56.9824 69.8556 55.9208C69.9822 55.8586 70.1169 55.7169 70.1521 55.5856C70.3946 54.6845 70.7344 53.7857 70.8117 52.8681C70.957 51.1373 70.9488 49.3924 71.0004 47.6534C71.0121 47.262 71.0016 46.8694 71.0016 46.4523C68.8105 46.2952 66.7307 45.9062 64.9802 44.5046C63.2355 45.9191 61.1628 46.2882 58.9904 46.4452C58.9904 47.6522 58.9471 48.837 59.0021 50.0158C59.0631 51.3131 59.1088 52.6255 59.3501 53.897C59.9172 56.8957 61.4416 59.2652 64.2268 60.6995C64.4564 60.8179 64.699 60.9128 64.9485 61.0253ZM54.4969 77.8741C54.4969 80.4346 54.4958 82.9962 54.4981 85.5567C54.4993 86.2246 54.7664 86.4977 55.4226 86.5C56.5638 86.5047 57.7051 86.5047 58.8463 86.5C59.4755 86.4965 59.7532 86.2188 59.7532 85.5789C59.7567 80.4428 59.7567 75.3066 59.7532 70.1704C59.7532 69.5282 59.4849 69.2622 58.8463 69.2587C57.7344 69.2528 56.6224 69.2552 55.5105 69.2575C54.7254 69.2587 54.4969 69.4895 54.4969 70.2794C54.4958 72.8117 54.4969 75.3429 54.4969 77.8741ZM91.2357 45.9788C91.2357 45.7152 91.2439 45.4972 91.2345 45.2804C91.2146 44.8046 90.9428 44.5082 90.467 44.5035C88.9778 44.4918 87.4886 44.4941 85.9993 44.5035C85.6221 44.5058 85.3455 44.7168 85.2776 45.0859C85.2249 45.3742 85.267 45.6812 85.267 45.9788C87.2718 45.9788 89.225 45.9788 91.2357 45.9788Z" fill="#2383AE"/>
<path d="M71.0121 67.3216C70.9957 66.6138 71.2511 66.2881 71.7022 66.2634C72.1568 66.2388 72.4474 66.5271 72.5025 67.058C72.5962 67.9685 73.2477 68.5462 74.1159 68.4888C74.8834 68.4384 75.4962 67.7728 75.4939 66.9935C75.4915 66.165 74.8553 65.5392 73.9742 65.4994C72.4451 65.4291 71.2699 64.4201 71.0332 62.9753C70.8047 61.5772 71.5769 60.2753 72.963 59.6882C73.093 59.6332 73.2184 59.4726 73.2641 59.3332C73.3848 58.9629 73.6262 58.7543 73.9999 58.7578C74.3725 58.7601 74.6057 58.9746 74.7287 59.3437C74.7768 59.489 74.9326 59.6437 75.0779 59.7046C76.2133 60.1839 76.9936 61.2749 76.9901 62.4163C76.989 62.9401 76.662 63.2706 76.1816 63.2354C75.7692 63.2049 75.5466 62.9424 75.4927 62.4221C75.3896 61.4144 74.4803 60.7804 73.5559 61.071C72.847 61.2937 72.4228 61.9557 72.5107 62.701C72.5951 63.4217 73.2102 63.9772 73.9929 63.9994C74.8565 64.0252 75.5946 64.3217 76.1828 64.9522C77.617 66.492 77.0757 68.9575 75.1259 69.7591C74.8951 69.854 74.7416 69.9407 74.6912 70.2243C74.6303 70.5606 74.3491 70.7387 74.014 70.7434C73.6613 70.7493 73.3707 70.577 73.2993 70.2161C73.2454 69.9395 73.086 69.8528 72.8575 69.7544C71.7198 69.2622 71.1211 68.3739 71.0121 67.3216Z" fill="#2383AE"/>
<path d="M93.4971 54.2567C93.4959 57.1371 91.1045 59.5183 88.2256 59.5066C85.3596 59.4949 83.001 57.136 82.9881 54.2673C82.9752 51.3892 85.3549 48.9987 88.2361 48.994C91.1138 48.9893 93.4994 51.3752 93.4971 54.2567ZM84.4925 54.2427C84.4855 56.2934 86.1681 57.9879 88.2256 58.0031C90.269 58.0172 91.9715 56.3356 91.9973 54.2767C92.0231 52.2177 90.3077 50.4928 88.2396 50.4963C86.1833 50.4998 84.4996 52.1837 84.4925 54.2427Z" fill="#2383AE"/>
<path d="M63.3902 53.8935C64.3931 52.5564 65.3399 51.2955 66.2854 50.0334C66.6358 49.5658 66.9826 49.0936 67.34 48.6319C67.6517 48.2299 68.1016 48.1444 68.4472 48.4069C68.7952 48.6706 68.8409 49.1194 68.5304 49.5354C67.0787 51.4795 65.6234 53.4212 64.1612 55.3583C63.7827 55.8598 63.3421 55.8879 62.8957 55.4567C62.4329 55.0102 61.9783 54.5544 61.5319 54.0915C61.1862 53.7329 61.171 53.3111 61.4686 52.9982C61.7803 52.6701 62.2173 52.6771 62.5911 53.0392C62.8535 53.2923 63.0902 53.5712 63.3902 53.8935Z" fill="#2383AE"/>
<path d="M89.0165 53.4693C89.6258 53.5489 90.4542 53.3216 90.4659 54.231C90.4788 55.1719 89.6398 54.9634 89.0329 55.0149C88.9356 55.6172 89.1829 56.4727 88.2396 56.4715C87.3187 56.4692 87.5448 55.6442 87.4663 54.9985C87.232 54.9985 87.0047 55.0102 86.7785 54.9962C86.3075 54.9657 86.0111 54.6809 86.0017 54.2673C85.9911 53.8349 86.2946 53.5337 86.7867 53.5021C87.0023 53.488 87.2203 53.4997 87.4663 53.4997C87.5577 52.8716 87.2952 51.988 88.29 52.0302C89.1653 52.0677 88.9579 52.8611 89.0165 53.4693Z" fill="#2383AE"/>
<path d="M43.0563 111V102.273H46.1075C46.7154 102.273 47.2168 102.378 47.6117 102.588C48.0066 102.795 48.3006 103.075 48.4938 103.428C48.687 103.777 48.7836 104.165 48.7836 104.591C48.7836 104.966 48.7168 105.276 48.5833 105.52C48.4526 105.764 48.2793 105.957 48.0634 106.099C47.8504 106.241 47.6188 106.347 47.3688 106.415V106.5C47.6359 106.517 47.9043 106.611 48.1742 106.781C48.4441 106.952 48.67 107.196 48.8518 107.514C49.0336 107.832 49.1245 108.222 49.1245 108.682C49.1245 109.119 49.0251 109.513 48.8262 109.862C48.6274 110.212 48.3134 110.489 47.8845 110.693C47.4555 110.898 46.8972 111 46.2097 111H43.0563ZM44.1131 110.062H46.2097C46.9001 110.062 47.3901 109.929 47.6799 109.662C47.9725 109.392 48.1188 109.065 48.1188 108.682C48.1188 108.386 48.0435 108.114 47.893 107.864C47.7424 107.611 47.5279 107.409 47.2495 107.259C46.9711 107.105 46.6416 107.028 46.2609 107.028H44.1131V110.062ZM44.1131 106.108H46.0734C46.3916 106.108 46.6785 106.045 46.9342 105.92C47.1927 105.795 47.3972 105.619 47.5478 105.392C47.7012 105.165 47.7779 104.898 47.7779 104.591C47.7779 104.207 47.6444 103.882 47.3774 103.615C47.1103 103.345 46.687 103.21 46.1075 103.21H44.1131V106.108ZM53.469 111.136C52.8383 111.136 52.2943 110.997 51.8369 110.719C51.3823 110.438 51.0315 110.045 50.7843 109.543C50.54 109.037 50.4178 108.449 50.4178 107.778C50.4178 107.108 50.54 106.517 50.7843 106.006C51.0315 105.491 51.3752 105.091 51.8156 104.804C52.2587 104.514 52.7758 104.369 53.3667 104.369C53.7076 104.369 54.0443 104.426 54.3766 104.54C54.709 104.653 55.0116 104.838 55.2843 105.094C55.557 105.347 55.7744 105.682 55.9363 106.099C56.0982 106.517 56.1792 107.031 56.1792 107.642V108.068H51.1337V107.199H55.1565C55.1565 106.83 55.0826 106.5 54.9349 106.21C54.79 105.92 54.5826 105.692 54.3127 105.524C54.0457 105.357 53.7303 105.273 53.3667 105.273C52.9661 105.273 52.6195 105.372 52.3269 105.571C52.0372 105.767 51.8141 106.023 51.6579 106.338C51.5016 106.653 51.4235 106.991 51.4235 107.352V107.932C51.4235 108.426 51.5087 108.845 51.6792 109.189C51.8525 109.53 52.0926 109.79 52.3994 109.969C52.7062 110.145 53.0627 110.233 53.469 110.233C53.7332 110.233 53.9718 110.196 54.1849 110.122C54.4008 110.045 54.5869 109.932 54.7431 109.781C54.8994 109.628 55.0201 109.437 55.1053 109.21L56.0769 109.483C55.9747 109.812 55.8028 110.102 55.5613 110.352C55.3198 110.599 55.0215 110.793 54.6664 110.932C54.3113 111.068 53.9122 111.136 53.469 111.136ZM58.7147 107.062V111H57.709V104.455H58.6806V105.477H58.7658C58.9193 105.145 59.1522 104.878 59.4647 104.676C59.7772 104.472 60.1806 104.369 60.6749 104.369C61.1181 104.369 61.5059 104.46 61.8383 104.642C62.1707 104.821 62.4292 105.094 62.6139 105.46C62.7985 105.824 62.8908 106.284 62.8908 106.841V111H61.8852V106.909C61.8852 106.395 61.7516 105.994 61.4846 105.707C61.2176 105.418 60.8511 105.273 60.3852 105.273C60.0641 105.273 59.7772 105.342 59.5244 105.482C59.2744 105.621 59.0769 105.824 58.932 106.091C58.7872 106.358 58.7147 106.682 58.7147 107.062ZM67.4729 111.136C66.8422 111.136 66.2982 110.997 65.8408 110.719C65.3862 110.438 65.0354 110.045 64.7882 109.543C64.5439 109.037 64.4217 108.449 64.4217 107.778C64.4217 107.108 64.5439 106.517 64.7882 106.006C65.0354 105.491 65.3791 105.091 65.8195 104.804C66.2627 104.514 66.7797 104.369 67.3706 104.369C67.7115 104.369 68.0482 104.426 68.3805 104.54C68.7129 104.653 69.0155 104.838 69.2882 105.094C69.5609 105.347 69.7783 105.682 69.9402 106.099C70.1021 106.517 70.1831 107.031 70.1831 107.642V108.068H65.1377V107.199H69.1604C69.1604 106.83 69.0865 106.5 68.9388 106.21C68.7939 105.92 68.5865 105.692 68.3166 105.524C68.0496 105.357 67.7342 105.273 67.3706 105.273C66.97 105.273 66.6234 105.372 66.3308 105.571C66.0411 105.767 65.818 106.023 65.6618 106.338C65.5055 106.653 65.4274 106.991 65.4274 107.352V107.932C65.4274 108.426 65.5127 108.845 65.6831 109.189C65.8564 109.53 66.0965 109.79 66.4033 109.969C66.7101 110.145 67.0666 110.233 67.4729 110.233C67.7371 110.233 67.9757 110.196 68.1888 110.122C68.4047 110.045 68.5908 109.932 68.747 109.781C68.9033 109.628 69.024 109.437 69.1092 109.21L70.0808 109.483C69.9786 109.812 69.8067 110.102 69.5652 110.352C69.3237 110.599 69.0254 110.793 68.6703 110.932C68.3152 111.068 67.9161 111.136 67.4729 111.136ZM74.6277 104.455V105.307H71.0993V104.455H74.6277ZM72.1561 111V103.551C72.1561 103.176 72.2442 102.864 72.4203 102.614C72.5965 102.364 72.8252 102.176 73.1064 102.051C73.3877 101.926 73.6845 101.864 73.997 101.864C74.2442 101.864 74.4459 101.884 74.6021 101.923C74.7584 101.963 74.8749 102 74.9516 102.034L74.6618 102.903C74.6107 102.886 74.5396 102.865 74.4487 102.839C74.3607 102.814 74.2442 102.801 74.0993 102.801C73.7669 102.801 73.5269 102.885 73.3791 103.053C73.2342 103.22 73.1618 103.466 73.1618 103.79V111H72.1561ZM76.0372 111V104.455H77.0428V111H76.0372ZM76.5485 103.364C76.3525 103.364 76.1835 103.297 76.0414 103.163C75.9022 103.03 75.8326 102.869 75.8326 102.682C75.8326 102.494 75.9022 102.334 76.0414 102.2C76.1835 102.067 76.3525 102 76.5485 102C76.7445 102 76.9122 102.067 77.0514 102.2C77.1934 102.334 77.2644 102.494 77.2644 102.682C77.2644 102.869 77.1934 103.03 77.0514 103.163C76.9122 103.297 76.7445 103.364 76.5485 103.364ZM81.5439 111.136C80.9303 111.136 80.4019 110.991 79.9587 110.702C79.5155 110.412 79.1746 110.013 78.9359 109.504C78.6973 108.996 78.578 108.415 78.578 107.761C78.578 107.097 78.7002 106.51 78.9445 106.001C79.1916 105.49 79.5354 105.091 79.9757 104.804C80.4189 104.514 80.9359 104.369 81.5269 104.369C81.9871 104.369 82.4019 104.455 82.7712 104.625C83.1405 104.795 83.443 105.034 83.6788 105.341C83.9146 105.648 84.0609 106.006 84.1178 106.415H83.1121C83.0354 106.116 82.8649 105.852 82.6007 105.622C82.3394 105.389 81.9871 105.273 81.5439 105.273C81.1519 105.273 80.8081 105.375 80.5127 105.58C80.22 105.781 79.9913 106.067 79.8266 106.436C79.6646 106.803 79.5837 107.233 79.5837 107.727C79.5837 108.233 79.6632 108.673 79.8223 109.048C79.9842 109.423 80.2115 109.714 80.5041 109.922C80.7996 110.129 81.1462 110.233 81.5439 110.233C81.8053 110.233 82.0425 110.188 82.2555 110.097C82.4686 110.006 82.649 109.875 82.7967 109.705C82.9445 109.534 83.0496 109.33 83.1121 109.091H84.1178C84.0609 109.477 83.9203 109.825 83.6959 110.135C83.4743 110.442 83.1803 110.686 82.8138 110.868C82.4502 111.047 82.0269 111.136 81.5439 111.136ZM85.5879 111V104.455H86.5936V111H85.5879ZM86.0993 103.364C85.9033 103.364 85.7342 103.297 85.5922 103.163C85.453 103.03 85.3834 102.869 85.3834 102.682C85.3834 102.494 85.453 102.334 85.5922 102.2C85.7342 102.067 85.9033 102 86.0993 102C86.2953 102 86.4629 102.067 86.6021 102.2C86.7442 102.334 86.8152 102.494 86.8152 102.682C86.8152 102.869 86.7442 103.03 86.6021 103.163C86.4629 103.297 86.2953 103.364 86.0993 103.364ZM91.0947 111.136C90.5038 111.136 89.9853 110.996 89.5393 110.714C89.0961 110.433 88.7495 110.04 88.4995 109.534C88.2524 109.028 88.1288 108.437 88.1288 107.761C88.1288 107.08 88.2524 106.484 88.4995 105.976C88.7495 105.467 89.0961 105.072 89.5393 104.791C89.9853 104.51 90.5038 104.369 91.0947 104.369C91.6856 104.369 92.2026 104.51 92.6458 104.791C93.0918 105.072 93.4384 105.467 93.6856 105.976C93.9356 106.484 94.0606 107.08 94.0606 107.761C94.0606 108.437 93.9356 109.028 93.6856 109.534C93.4384 110.04 93.0918 110.433 92.6458 110.714C92.2026 110.996 91.6856 111.136 91.0947 111.136ZM91.0947 110.233C91.5435 110.233 91.9129 110.118 92.2026 109.888C92.4924 109.658 92.7069 109.355 92.8461 108.98C92.9853 108.605 93.0549 108.199 93.0549 107.761C93.0549 107.324 92.9853 106.916 92.8461 106.538C92.7069 106.161 92.4924 105.855 92.2026 105.622C91.9129 105.389 91.5435 105.273 91.0947 105.273C90.6458 105.273 90.2765 105.389 89.9867 105.622C89.697 105.855 89.4825 106.161 89.3433 106.538C89.2041 106.916 89.1345 107.324 89.1345 107.761C89.1345 108.199 89.2041 108.605 89.3433 108.98C89.4825 109.355 89.697 109.658 89.9867 109.888C90.2765 110.118 90.6458 110.233 91.0947 110.233ZM100.232 105.92L99.3287 106.176C99.2719 106.026 99.1881 105.879 99.0773 105.737C98.9693 105.592 98.8216 105.473 98.6341 105.379C98.4466 105.286 98.2065 105.239 97.9139 105.239C97.5134 105.239 97.1796 105.331 96.9125 105.516C96.6483 105.697 96.5162 105.929 96.5162 106.21C96.5162 106.46 96.6071 106.658 96.7889 106.803C96.9707 106.947 97.2548 107.068 97.6412 107.165L98.6128 107.403C99.198 107.545 99.6341 107.763 99.921 108.055C100.208 108.345 100.351 108.719 100.351 109.176C100.351 109.551 100.243 109.886 100.028 110.182C99.8145 110.477 99.5162 110.71 99.1327 110.881C98.7492 111.051 98.3031 111.136 97.7946 111.136C97.127 111.136 96.5744 110.991 96.1369 110.702C95.6994 110.412 95.4225 109.989 95.306 109.432L96.2605 109.193C96.3514 109.545 96.5233 109.81 96.7761 109.986C97.0318 110.162 97.3656 110.25 97.7776 110.25C98.2463 110.25 98.6185 110.151 98.894 109.952C99.1725 109.75 99.3117 109.509 99.3117 109.227C99.3117 109 99.2321 108.81 99.073 108.656C98.9139 108.5 98.6696 108.384 98.3401 108.307L97.2492 108.051C96.6497 107.909 96.2094 107.689 95.9281 107.391C95.6497 107.089 95.5105 106.713 95.5105 106.261C95.5105 105.892 95.6142 105.565 95.8216 105.281C96.0318 104.997 96.3173 104.774 96.6781 104.612C97.0418 104.45 97.4537 104.369 97.9139 104.369C98.5617 104.369 99.0702 104.511 99.4395 104.795C99.8117 105.08 100.076 105.455 100.232 105.92Z" fill="#717171"/>
<defs>
<filter id="filter0_d_3_95" x="0.28125" y="0" width="154.718" height="159.908" filterUnits="userSpaceOnUse" color-interpolation-filters="sRGB">
<feFlood flood-opacity="0" result="BackgroundImageFix"/>
<feColorMatrix in="SourceAlpha" type="matrix" values="0 0 0 0 0 0 0 0 0 0 0 0 0 0 0 0 0 0 127 0" result="hardAlpha"/>
<feOffset dx="2" dy="2"/>
<feGaussianBlur stdDeviation="5"/>
<feComposite in2="hardAlpha" operator="out"/>
<feColorMatrix type="matrix" values="0 0 0 0 0 0 0 0 0 0 0 0 0 0 0 0 0 0 0.1 0"/>
<feBlend mode="normal" in2="BackgroundImageFix" result="effect1_dropShadow_3_95"/>
<feBlend mode="normal" in="SourceGraphic" in2="effect1_dropShadow_3_95" result="shape"/>
</filter>
</defs>
</svg>
