<svg width="161" height="182" viewBox="0 0 161 182" fill="none" xmlns="http://www.w3.org/2000/svg">
<g filter="url(#filter0_d_23_39)">
<path d="M145.743 70.5625L121.007 27.0889C117.498 20.9174 110.956 17.0885 103.853 17.0397L84.4127 16.9063L78.8772 8.48023L73.2265 16.8295L53.7867 16.696C46.6833 16.6472 40.0896 20.386 36.4958 26.5088L11.1656 69.6386C7.57169 75.7614 7.51974 83.3291 11.0292 89.5006L35.7649 132.974C39.2743 139.146 45.8161 142.975 52.9194 143.023L102.985 143.367C110.089 143.416 116.682 139.677 120.276 133.554L145.606 90.4245C149.2 84.3017 149.252 76.7297 145.743 70.5625Z" fill="white"/>
</g>
<path d="M67.6877 54C67.8928 54 68.0978 54 68.3029 54C68.7598 54.2848 69.2086 54.5836 69.6749 54.8508C70.9919 55.6043 72.446 55.8398 73.9329 55.9253C74.9183 55.9828 75.4948 56.5663 75.5006 57.5565C75.5065 58.596 75.5241 59.6366 75.496 60.676C75.4655 61.8021 75.4233 62.9295 75.319 64.0497C75.2522 64.7669 75.0613 65.4724 74.9453 66.0805C76.0502 66.0805 77.1692 65.968 78.2541 66.1122C79.3497 66.2575 80.4113 66.6571 81.4916 66.9465C81.4916 66.8622 81.4916 66.7016 81.4916 66.5411C81.4916 64.4318 81.4845 62.3224 81.4974 60.2131C81.4998 59.851 81.5384 59.4772 81.638 59.1315C82.0036 57.8624 83.1366 57.0234 84.4911 56.9987C85.2328 56.9847 85.9733 56.9964 86.7513 56.9964C86.7513 56.721 86.7513 56.5042 86.7513 56.2874C86.749 55.4976 87.0677 54.8648 87.711 54.4148C87.9558 54.2437 88.2464 54.1359 88.5159 54C90.3321 54 92.1482 54 93.9643 54C94.0253 54.0316 94.0839 54.0727 94.1483 54.0949C95.1759 54.4629 95.7207 55.2269 95.736 56.3238C95.7383 56.537 95.736 56.7515 95.736 56.9941C96.4425 56.9941 97.0846 56.9929 97.7278 56.9941C99.7443 56.9976 100.992 58.2397 100.993 60.2494C100.995 63.574 100.995 66.8985 100.993 70.2218C100.992 72.2632 99.7537 73.5018 97.7091 73.503C94.1506 73.5042 90.5922 73.503 87.0349 73.503C86.8615 73.503 86.6892 73.503 86.5287 73.503C87.3278 78.4353 85.5773 82.1067 81.2607 84.5722C82.3434 85.6902 82.6258 86.9897 82.1008 88.5448C82.5777 88.4862 82.9867 88.4745 83.3757 88.3772C83.8994 88.246 84.4068 88.0514 84.92 87.8804C88.9834 86.5257 93.0446 85.1687 97.108 83.8164C98.5621 83.3324 99.9447 83.8211 100.634 85.0574C101.408 86.446 100.927 88.0374 99.4538 88.935C94.9685 91.6678 90.4762 94.3876 86.0014 97.1367C84.7653 97.8961 83.4635 98.2605 82.0106 98.2547C76.0513 98.2324 70.0909 98.243 64.1316 98.2523C63.916 98.2523 63.6559 98.3039 63.4942 98.4305C63.0103 98.8078 62.4854 99.0023 61.8737 99C60.702 98.9941 59.5303 99 58.3598 98.9953C58.1712 98.9941 57.9778 98.9812 57.7939 98.9414C56.812 98.7351 56.2847 98.0637 56 97.1532C56 91.6162 56 86.0792 56 80.5423C56.4605 79.1736 57.4377 78.6626 58.8402 78.7435C59.8467 78.8021 60.8602 78.7599 61.8702 78.754C62.8392 78.7482 63.5481 79.1677 64.018 80.0161C64.0801 80.1274 64.2523 80.247 64.3718 80.2458C65.8212 80.2282 67.2624 80.2458 68.7352 80.9454C67.3151 78.5267 66.9179 76.0787 67.519 73.4772C67.2835 73.3753 67.0679 73.2897 66.8605 73.1901C63.5856 71.6163 61.7425 68.9363 60.9235 65.4747C60.2849 62.7748 60.5157 60.0268 60.5146 57.2941C60.5146 56.5288 61.159 55.9874 61.9276 55.9312C62.292 55.9054 62.6588 55.8855 63.0208 55.841C64.3706 55.6746 65.663 55.3429 66.7972 54.5426C67.082 54.3445 67.3901 54.1805 67.6877 54ZM64.2769 96.7207C64.3999 96.7301 64.4855 96.7418 64.5722 96.7418C70.5315 96.743 76.4907 96.7418 82.4512 96.743C83.3382 96.743 84.1513 96.5016 84.9059 96.0364C85.7777 95.4985 86.6553 94.97 87.5293 94.438C91.253 92.1716 94.9802 89.9088 98.6957 87.6284C98.9687 87.4608 99.2276 87.1972 99.3753 86.9171C99.6319 86.4308 99.5053 85.9363 99.1374 85.5378C98.7109 85.0761 98.186 85.0328 97.606 85.2273C93.2953 86.671 88.9787 88.0995 84.6727 89.5549C83.774 89.8584 82.8753 90.0283 81.9228 90.0143C80.0492 89.9862 78.1745 90.0014 76.2997 90.0096C75.8908 90.0108 75.4796 90.0295 75.0753 90.0858C74.0056 90.2346 73.0846 90.7303 72.2093 91.3385C71.8133 91.6138 71.3681 91.5166 71.1302 91.1592C70.9052 90.8217 70.9884 90.3846 71.3552 90.1174C72.6358 89.1846 74.043 88.5671 75.6495 88.5284C76.9957 88.4956 78.3432 88.5085 79.6907 88.5049C80.5085 88.5026 80.6667 88.3901 80.8202 87.5815C80.8706 87.3155 80.8752 87.0226 80.8213 86.7577C80.6058 85.6855 79.454 84.7949 78.2272 84.7668C77.086 84.741 75.9424 84.7269 74.8011 84.7632C72.7132 84.8289 70.8595 84.2512 69.2086 82.9504C67.7662 81.8137 66.0673 81.6368 64.2804 81.7938C64.2769 86.7612 64.2769 91.7193 64.2769 96.7207ZM68.7458 75.7483C68.747 78.6908 70.3217 81.4411 72.8854 82.8813C73.2732 83.0992 73.7607 83.2223 74.2083 83.2387C75.4503 83.2867 76.6958 83.2387 77.9401 83.2645C78.4182 83.275 78.8916 83.3945 79.3696 83.4414C79.5899 83.4625 79.8383 83.4848 80.0351 83.4074C83.5819 82.0258 85.7238 78.3076 85.1602 74.5366C84.5122 70.1925 80.6995 67.2161 76.192 67.5371C72.084 67.8289 68.7446 71.512 68.7458 75.7483ZM91.2835 58.4928C89.0877 58.4928 86.8908 58.4905 84.695 58.494C83.5901 58.4952 82.9902 59.0999 82.989 60.2108C82.9867 62.6998 82.9937 65.1888 82.9808 67.6789C82.9796 67.9778 83.0827 68.1617 83.3018 68.3434C84.3974 69.2574 85.2445 70.3695 85.8339 71.6667C85.9593 71.9421 86.1104 72.0124 86.3951 72.0124C90.1868 72.003 93.9796 72.0077 97.7712 72.0054C98.9042 72.0054 99.4948 71.4054 99.4948 70.264C99.4959 66.9254 99.4959 63.5869 99.4948 60.2483C99.4948 59.0788 98.9101 58.494 97.7407 58.494C95.5883 58.4917 93.4359 58.4928 91.2835 58.4928ZM67.949 72.0253C68.0076 71.9292 68.0521 71.8718 68.0803 71.8085C69.0856 69.6066 70.6814 67.9824 72.8561 66.9208C72.9827 66.8586 73.1174 66.7169 73.1526 66.5856C73.3951 65.6845 73.7349 64.7857 73.8122 63.8681C73.9575 62.1373 73.9493 60.3924 74.0009 58.6534C74.0126 58.262 74.002 57.8694 74.002 57.4523C71.811 57.2952 69.7312 56.9062 67.9807 55.5046C66.236 56.9191 64.1633 57.2882 61.9909 57.4452C61.9909 58.6522 61.9476 59.837 62.0026 61.0158C62.0636 62.3131 62.1093 63.6255 62.3506 64.897C62.9177 67.8957 64.4421 70.2652 67.2273 71.6995C67.4569 71.8179 67.6995 71.9128 67.949 72.0253ZM57.4974 88.8741C57.4974 91.4346 57.4963 93.9962 57.4986 96.5567C57.4998 97.2246 57.7669 97.4977 58.4231 97.5C59.5643 97.5047 60.7056 97.5047 61.8468 97.5C62.476 97.4965 62.7537 97.2188 62.7537 96.5789C62.7572 91.4428 62.7572 86.3066 62.7537 81.1704C62.7537 80.5282 62.4854 80.2622 61.8468 80.2587C60.7349 80.2528 59.6229 80.2552 58.511 80.2575C57.7259 80.2587 57.4974 80.4895 57.4974 81.2794C57.4963 83.8117 57.4974 86.3429 57.4974 88.8741ZM94.2362 56.9788C94.2362 56.7152 94.2444 56.4972 94.235 56.2804C94.2151 55.8046 93.9432 55.5082 93.4675 55.5035C91.9783 55.4918 90.4891 55.4941 88.9998 55.5035C88.6225 55.5058 88.346 55.7168 88.2781 56.0859C88.2253 56.3742 88.2675 56.6812 88.2675 56.9788C90.2723 56.9788 92.2255 56.9788 94.2362 56.9788Z" fill="#2383AE"/>
<path d="M74.0126 78.3216C73.9962 77.6138 74.2516 77.2881 74.7027 77.2634C75.1573 77.2388 75.4479 77.5271 75.503 78.058C75.5967 78.9685 76.2482 79.5462 77.1164 79.4888C77.8839 79.4384 78.4967 78.7728 78.4943 77.9935C78.492 77.165 77.8558 76.5392 76.9746 76.4994C75.4456 76.4291 74.2704 75.4201 74.0337 73.9753C73.8052 72.5772 74.5773 71.2753 75.9635 70.6882C76.0935 70.6332 76.2189 70.4726 76.2646 70.3332C76.3853 69.9629 76.6267 69.7543 77.0004 69.7578C77.373 69.7601 77.6062 69.9746 77.7292 70.3437C77.7773 70.489 77.9331 70.6437 78.0784 70.7046C79.2138 71.1839 79.9941 72.2749 79.9906 73.4163C79.9894 73.9401 79.6625 74.2706 79.1821 74.2354C78.7697 74.2049 78.5471 73.9424 78.4932 73.4221C78.3901 72.4144 77.4808 71.7804 76.5564 72.071C75.8475 72.2937 75.4233 72.9557 75.5112 73.701C75.5956 74.4217 76.2107 74.9772 76.9934 74.9994C77.8569 75.0252 78.5951 75.3217 79.1833 75.9522C80.6175 77.492 80.0761 79.9575 78.1264 80.7591C77.8956 80.854 77.7421 80.9407 77.6917 81.2243C77.6308 81.5606 77.3496 81.7387 77.0145 81.7434C76.6618 81.7493 76.3712 81.577 76.2997 81.2161C76.2458 80.9395 76.0865 80.8528 75.858 80.7544C74.7203 80.2622 74.1216 79.3739 74.0126 78.3216Z" fill="#2383AE"/>
<path d="M96.4976 65.2567C96.4964 68.1371 94.1049 70.5183 91.2261 70.5066C88.3601 70.4949 86.0014 68.136 85.9886 65.2673C85.9757 62.3892 88.3554 59.9987 91.2366 59.994C94.1143 59.9893 96.4999 62.3752 96.4976 65.2567ZM87.493 65.2427C87.486 67.2934 89.1686 68.9879 91.2261 69.0031C93.2695 69.0172 94.972 67.3356 94.9978 65.2767C95.0236 63.2177 93.3082 61.4928 91.2401 61.4963C89.1838 61.4998 87.5001 63.1837 87.493 65.2427Z" fill="#2383AE"/>
<path d="M66.3907 64.8935C67.3936 63.5564 68.3404 62.2955 69.2859 61.0334C69.6363 60.5658 69.9831 60.0936 70.3405 59.6319C70.6521 59.2299 71.1021 59.1444 71.4477 59.4069C71.7957 59.6706 71.8414 60.1194 71.5309 60.5354C70.0792 62.4795 68.6239 64.4212 67.1616 66.3583C66.7832 66.8598 66.3426 66.8879 65.8962 66.4567C65.4334 66.0102 64.9788 65.5544 64.5323 65.0915C64.1867 64.7329 64.1715 64.3111 64.4691 63.9982C64.7807 63.6701 65.2178 63.6771 65.5916 64.0392C65.854 64.2923 66.0907 64.5712 66.3907 64.8935Z" fill="#2383AE"/>
<path d="M92.017 64.4693C92.6263 64.5489 93.4546 64.3216 93.4664 65.231C93.4793 66.1719 92.6403 65.9634 92.0334 66.0149C91.9361 66.6172 92.1833 67.4727 91.2401 67.4715C90.3192 67.4692 90.5453 66.6442 90.4668 65.9985C90.2325 65.9985 90.0052 66.0102 89.779 65.9962C89.308 65.9657 89.0116 65.6809 89.0022 65.2673C88.9916 64.8349 89.2951 64.5337 89.7872 64.5021C90.0028 64.488 90.2207 64.4997 90.4668 64.4997C90.5582 63.8716 90.2957 62.988 91.2905 63.0302C92.1658 63.0677 91.9584 63.8611 92.017 64.4693Z" fill="#2383AE"/>
<path d="M45.233 173V162.818H48.7926C49.5019 162.818 50.0869 162.941 50.5476 163.186C51.0083 163.428 51.3513 163.754 51.5767 164.165C51.8021 164.573 51.9148 165.026 51.9148 165.523C51.9148 165.96 51.8369 166.321 51.6811 166.607C51.5286 166.892 51.3265 167.117 51.0746 167.283C50.826 167.448 50.5559 167.571 50.2642 167.651V167.75C50.5758 167.77 50.889 167.879 51.2038 168.078C51.5187 168.277 51.7822 168.562 51.9943 168.933C52.2064 169.304 52.3125 169.759 52.3125 170.295C52.3125 170.806 52.1965 171.265 51.9645 171.673C51.7325 172.08 51.3662 172.403 50.8658 172.642C50.3653 172.881 49.714 173 48.9119 173H45.233ZM46.4659 171.906H48.9119C49.7173 171.906 50.2891 171.75 50.6271 171.439C50.9685 171.124 51.1392 170.743 51.1392 170.295C51.1392 169.951 51.0514 169.633 50.8757 169.341C50.7 169.046 50.4498 168.811 50.125 168.635C49.8002 168.456 49.4157 168.366 48.9716 168.366H46.4659V171.906ZM46.4659 167.293H48.7528C49.1241 167.293 49.4588 167.22 49.7571 167.074C50.0587 166.928 50.2973 166.723 50.473 166.457C50.652 166.192 50.7415 165.881 50.7415 165.523C50.7415 165.075 50.5857 164.696 50.2741 164.384C49.9626 164.069 49.4688 163.912 48.7926 163.912H46.4659V167.293ZM57.381 173.159C56.6452 173.159 56.0105 172.997 55.4769 172.672C54.9466 172.344 54.5373 171.886 54.2489 171.3C53.9639 170.71 53.8214 170.024 53.8214 169.241C53.8214 168.459 53.9639 167.77 54.2489 167.173C54.5373 166.573 54.9383 166.106 55.4521 165.771C55.9691 165.433 56.5723 165.264 57.2617 165.264C57.6594 165.264 58.0522 165.33 58.44 165.463C58.8278 165.596 59.1808 165.811 59.4989 166.109C59.8171 166.404 60.0707 166.795 60.2596 167.283C60.4485 167.77 60.543 168.37 60.543 169.082V169.58H54.6566V168.565H59.3498C59.3498 168.134 59.2636 167.75 59.0913 167.412C58.9222 167.074 58.6803 166.807 58.3654 166.612C58.0539 166.416 57.686 166.318 57.2617 166.318C56.7944 166.318 56.39 166.434 56.0487 166.666C55.7106 166.895 55.4504 167.193 55.2681 167.561C55.0858 167.929 54.9947 168.323 54.9947 168.744V169.42C54.9947 169.997 55.0941 170.486 55.293 170.887C55.4951 171.285 55.7752 171.588 56.1332 171.797C56.4911 172.002 56.9071 172.105 57.381 172.105C57.6893 172.105 57.9677 172.062 58.2163 171.976C58.4682 171.886 58.6853 171.754 58.8675 171.578C59.0498 171.399 59.1907 171.177 59.2901 170.912L60.4237 171.23C60.3043 171.615 60.1038 171.953 59.8221 172.244C59.5404 172.533 59.1924 172.758 58.7781 172.92C58.3638 173.08 57.8981 173.159 57.381 173.159ZM63.5011 168.406V173H62.3278V165.364H63.4613V166.557H63.5607C63.7397 166.169 64.0115 165.857 64.3761 165.622C64.7406 165.384 65.2113 165.264 65.788 165.264C66.305 165.264 66.7575 165.37 67.1452 165.582C67.533 165.791 67.8346 166.109 68.0501 166.537C68.2655 166.961 68.3732 167.498 68.3732 168.148V173H67.1999V168.227C67.1999 167.627 67.0442 167.16 66.7326 166.825C66.421 166.487 65.9935 166.318 65.4499 166.318C65.0754 166.318 64.7406 166.399 64.4457 166.562C64.154 166.724 63.9237 166.961 63.7546 167.273C63.5856 167.584 63.5011 167.962 63.5011 168.406ZM73.7189 173.159C72.9831 173.159 72.3484 172.997 71.8148 172.672C71.2845 172.344 70.8752 171.886 70.5868 171.3C70.3018 170.71 70.1593 170.024 70.1593 169.241C70.1593 168.459 70.3018 167.77 70.5868 167.173C70.8752 166.573 71.2762 166.106 71.79 165.771C72.307 165.433 72.9102 165.264 73.5996 165.264C73.9973 165.264 74.3901 165.33 74.7779 165.463C75.1657 165.596 75.5186 165.811 75.8368 166.109C76.155 166.404 76.4086 166.795 76.5975 167.283C76.7864 167.77 76.8809 168.37 76.8809 169.082V169.58H70.9945V168.565H75.6877C75.6877 168.134 75.6015 167.75 75.4292 167.412C75.2601 167.074 75.0182 166.807 74.7033 166.612C74.3917 166.416 74.0239 166.318 73.5996 166.318C73.1323 166.318 72.7279 166.434 72.3865 166.666C72.0485 166.895 71.7883 167.193 71.606 167.561C71.4237 167.929 71.3326 168.323 71.3326 168.744V169.42C71.3326 169.997 71.432 170.486 71.6309 170.887C71.833 171.285 72.1131 171.588 72.4711 171.797C72.829 172.002 73.245 172.105 73.7189 172.105C74.0272 172.105 74.3056 172.062 74.5542 171.976C74.806 171.886 75.0231 171.754 75.2054 171.578C75.3877 171.399 75.5286 171.177 75.628 170.912L76.7615 171.23C76.6422 171.615 76.4417 171.953 76.16 172.244C75.8783 172.533 75.5302 172.758 75.1159 172.92C74.7016 173.08 74.236 173.159 73.7189 173.159ZM82.0662 165.364V166.358H77.9498V165.364H82.0662ZM79.1827 173V164.31C79.1827 163.872 79.2855 163.508 79.4909 163.216C79.6964 162.924 79.9632 162.705 80.2914 162.56C80.6195 162.414 80.9659 162.341 81.3304 162.341C81.6188 162.341 81.8541 162.364 82.0364 162.411C82.2187 162.457 82.3546 162.5 82.4441 162.54L82.106 163.554C82.0463 163.534 81.9635 163.509 81.8574 163.479C81.7547 163.45 81.6188 163.435 81.4498 163.435C81.062 163.435 80.7819 163.532 80.6096 163.728C80.4405 163.924 80.356 164.21 80.356 164.588V173H79.1827ZM83.7106 173V165.364H84.8839V173H83.7106ZM84.3072 164.091C84.0785 164.091 83.8813 164.013 83.7156 163.857C83.5531 163.701 83.4719 163.514 83.4719 163.295C83.4719 163.077 83.5531 162.889 83.7156 162.734C83.8813 162.578 84.0785 162.5 84.3072 162.5C84.5359 162.5 84.7314 162.578 84.8938 162.734C85.0595 162.889 85.1424 163.077 85.1424 163.295C85.1424 163.514 85.0595 163.701 84.8938 163.857C84.7314 164.013 84.5359 164.091 84.3072 164.091ZM90.1351 173.159C89.4192 173.159 88.8027 172.99 88.2857 172.652C87.7686 172.314 87.3709 171.848 87.0925 171.255C86.8141 170.662 86.6749 169.984 86.6749 169.222C86.6749 168.446 86.8174 167.762 87.1025 167.168C87.3908 166.572 87.7918 166.106 88.3056 165.771C88.8226 165.433 89.4258 165.264 90.1152 165.264C90.6522 165.264 91.1361 165.364 91.5669 165.562C91.9978 165.761 92.3508 166.04 92.6259 166.398C92.901 166.756 93.0717 167.173 93.138 167.651H91.9647C91.8752 167.303 91.6763 166.994 91.3681 166.726C91.0632 166.454 90.6522 166.318 90.1351 166.318C89.6777 166.318 89.2767 166.437 88.932 166.676C88.5906 166.911 88.3238 167.245 88.1316 167.675C87.9426 168.103 87.8482 168.605 87.8482 169.182C87.8482 169.772 87.941 170.286 88.1266 170.723C88.3155 171.161 88.5807 171.5 88.9221 171.742C89.2667 171.984 89.6711 172.105 90.1351 172.105C90.44 172.105 90.7168 172.052 90.9654 171.946C91.214 171.84 91.4244 171.688 91.5968 171.489C91.7691 171.29 91.8917 171.051 91.9647 170.773H93.138C93.0717 171.223 92.9076 171.629 92.6458 171.991C92.3873 172.349 92.0442 172.634 91.6167 172.846C91.1924 173.055 90.6986 173.159 90.1351 173.159ZM94.8532 173V165.364H96.0265V173H94.8532ZM95.4498 164.091C95.2211 164.091 95.0239 164.013 94.8581 163.857C94.6957 163.701 94.6145 163.514 94.6145 163.295C94.6145 163.077 94.6957 162.889 94.8581 162.734C95.0239 162.578 95.2211 162.5 95.4498 162.5C95.6784 162.5 95.874 162.578 96.0364 162.734C96.2021 162.889 96.285 163.077 96.285 163.295C96.285 163.514 96.2021 163.701 96.0364 163.857C95.874 164.013 95.6784 164.091 95.4498 164.091ZM101.278 173.159C100.588 173.159 99.9834 172.995 99.4631 172.667C98.946 172.339 98.5417 171.88 98.25 171.29C97.9616 170.7 97.8175 170.01 97.8175 169.222C97.8175 168.426 97.9616 167.732 98.25 167.138C98.5417 166.545 98.946 166.085 99.4631 165.756C99.9834 165.428 100.588 165.264 101.278 165.264C101.967 165.264 102.57 165.428 103.087 165.756C103.608 166.085 104.012 166.545 104.3 167.138C104.592 167.732 104.738 168.426 104.738 169.222C104.738 170.01 104.592 170.7 104.3 171.29C104.012 171.88 103.608 172.339 103.087 172.667C102.57 172.995 101.967 173.159 101.278 173.159ZM101.278 172.105C101.801 172.105 102.232 171.971 102.57 171.702C102.908 171.434 103.159 171.081 103.321 170.643C103.483 170.206 103.565 169.732 103.565 169.222C103.565 168.711 103.483 168.236 103.321 167.795C103.159 167.354 102.908 166.998 102.57 166.726C102.232 166.454 101.801 166.318 101.278 166.318C100.754 166.318 100.323 166.454 99.9851 166.726C99.647 166.998 99.3968 167.354 99.2344 167.795C99.072 168.236 98.9908 168.711 98.9908 169.222C98.9908 169.732 99.072 170.206 99.2344 170.643C99.3968 171.081 99.647 171.434 99.9851 171.702C100.323 171.971 100.754 172.105 101.278 172.105ZM111.938 167.074L110.884 167.372C110.818 167.196 110.72 167.026 110.591 166.86C110.465 166.691 110.292 166.552 110.074 166.442C109.855 166.333 109.575 166.278 109.233 166.278C108.766 166.278 108.377 166.386 108.065 166.602C107.757 166.814 107.603 167.084 107.603 167.412C107.603 167.704 107.709 167.934 107.921 168.103C108.133 168.272 108.465 168.413 108.915 168.526L110.049 168.804C110.732 168.97 111.24 169.223 111.575 169.565C111.91 169.903 112.077 170.339 112.077 170.872C112.077 171.31 111.951 171.701 111.699 172.045C111.451 172.39 111.103 172.662 110.655 172.861C110.208 173.06 109.688 173.159 109.094 173.159C108.315 173.159 107.671 172.99 107.16 172.652C106.65 172.314 106.327 171.82 106.191 171.17L107.305 170.892C107.411 171.303 107.611 171.611 107.906 171.817C108.204 172.022 108.594 172.125 109.074 172.125C109.621 172.125 110.055 172.009 110.377 171.777C110.702 171.542 110.864 171.26 110.864 170.932C110.864 170.667 110.771 170.445 110.586 170.266C110.4 170.083 110.115 169.947 109.731 169.858L108.458 169.56C107.759 169.394 107.245 169.137 106.917 168.789C106.592 168.438 106.43 167.999 106.43 167.472C106.43 167.041 106.55 166.66 106.792 166.328C107.038 165.997 107.371 165.737 107.792 165.548C108.216 165.359 108.697 165.264 109.233 165.264C109.989 165.264 110.582 165.43 111.013 165.761C111.448 166.093 111.756 166.53 111.938 167.074Z" fill="#717171"/>
<defs>
<filter id="filter0_d_23_39" x="0.433167" y="0.480225" width="159.906" height="154.887" filterUnits="userSpaceOnUse" color-interpolation-filters="sRGB">
<feFlood flood-opacity="0" result="BackgroundImageFix"/>
<feColorMatrix in="SourceAlpha" type="matrix" values="0 0 0 0 0 0 0 0 0 0 0 0 0 0 0 0 0 0 127 0" result="hardAlpha"/>
<feOffset dx="2" dy="2"/>
<feGaussianBlur stdDeviation="5"/>
<feComposite in2="hardAlpha" operator="out"/>
<feColorMatrix type="matrix" values="0 0 0 0 0 0 0 0 0 0 0 0 0 0 0 0 0 0 0.1 0"/>
<feBlend mode="normal" in2="BackgroundImageFix" result="effect1_dropShadow_23_39"/>
<feBlend mode="normal" in="SourceGraphic" in2="effect1_dropShadow_23_39" result="shape"/>
</filter>
</defs>
</svg>
