<svg width="161" height="182" fill="none" xmlns="http://www.w3.org/2000/svg"><g filter="url(#a)"><path d="m145.743 70.563-24.736-43.474a19.888 19.888 0 0 0-17.154-10.05l-19.44-.133-5.536-8.426-5.65 8.35-19.44-.134a19.89 19.89 0 0 0-17.291 9.813l-25.33 43.13a19.845 19.845 0 0 0-.137 19.862l24.736 43.473a19.886 19.886 0 0 0 17.154 10.049l50.066.344a19.888 19.888 0 0 0 17.291-9.813l25.33-43.13a19.846 19.846 0 0 0 .137-19.862Z" fill="#fff"/></g><path d="M67.688 54h.615c.457.285.906.584 1.372.85 1.317.754 2.771.99 4.258 1.075.985.058 1.562.641 1.568 1.632.005 1.039.023 2.08-.005 3.119a51.42 51.42 0 0 1-.177 3.374c-.067.717-.258 1.422-.374 2.03 1.105 0 2.224-.112 3.31.032 1.095.145 2.156.545 3.237.835v-.406c0-2.11-.008-4.219.005-6.328.003-.362.041-.736.141-1.081.366-1.27 1.499-2.109 2.853-2.133.742-.014 1.482-.003 2.26-.003v-.709c-.002-.79.317-1.422.96-1.872.245-.171.535-.28.805-.415h5.448c.061.032.12.073.184.095 1.028.368 1.573 1.132 1.588 2.229.002.213 0 .428 0 .67h1.992c2.016.004 3.264 1.246 3.265 3.255.002 3.325.002 6.65 0 9.973-.001 2.041-1.24 3.28-3.284 3.281H86.53c.799 4.932-.952 8.604-5.268 11.07 1.082 1.117 1.365 2.417.84 3.972.477-.059.886-.07 1.275-.168.523-.131 1.03-.326 1.544-.497 4.063-1.354 8.125-2.711 12.188-4.064 1.454-.484 2.837.005 3.526 1.241.774 1.389.293 2.98-1.18 3.878-4.485 2.733-8.978 5.453-13.453 8.202a7.348 7.348 0 0 1-3.99 1.118c-5.96-.023-11.92-.012-17.88-.003-.215 0-.475.052-.637.178-.484.378-1.009.572-1.62.57-1.172-.006-2.344 0-3.514-.005a2.778 2.778 0 0 1-.566-.054c-.982-.206-1.51-.877-1.794-1.788v-16.61c.46-1.37 1.438-1.88 2.84-1.8 1.007.06 2.02.017 3.03.011.97-.006 1.678.414 2.148 1.262.062.111.234.231.354.23 1.45-.018 2.89 0 4.363.7-1.42-2.42-1.817-4.867-1.216-7.469-.236-.102-.451-.187-.659-.287-3.274-1.574-5.117-4.254-5.937-7.715-.638-2.7-.407-5.448-.408-8.18 0-.766.644-1.308 1.413-1.364.364-.026.73-.045 1.093-.09 1.35-.166 2.642-.498 3.776-1.298.285-.199.593-.362.89-.543Zm-3.411 42.72c.123.01.209.022.295.022l17.88.001c.886 0 1.7-.241 2.454-.707.872-.537 1.75-1.066 2.623-1.598 3.724-2.266 7.451-4.53 11.167-6.81.273-.167.532-.43.68-.71.256-.487.13-.982-.239-1.38-.426-.462-.951-.505-1.531-.31-4.31 1.443-8.627 2.872-12.933 4.327-.899.303-1.798.473-2.75.46-1.874-.029-3.749-.014-5.623-.005-.41 0-.82.02-1.225.076-1.07.149-1.99.644-2.866 1.252-.396.276-.84.179-1.079-.179-.225-.337-.142-.774.225-1.042 1.28-.932 2.688-1.55 4.294-1.589 1.347-.032 2.694-.02 4.042-.023.817-.002.976-.115 1.13-.923.05-.266.054-.56 0-.824-.215-1.072-1.367-1.963-2.594-1.991a63.018 63.018 0 0 0-3.426-.004c-2.088.066-3.942-.512-5.592-1.813-1.443-1.136-3.142-1.313-4.929-1.156-.003 4.967-.003 9.925-.003 14.927Zm4.469-20.972c.001 2.943 1.576 5.693 4.14 7.133.387.218.875.341 1.322.358 1.242.048 2.488 0 3.732.025.478.011.952.13 1.43.177.22.022.468.044.665-.034 3.547-1.381 5.689-5.1 5.125-8.87-.648-4.345-4.46-7.32-8.968-7-4.108.292-7.447 3.975-7.446 8.211Zm22.538-17.255c-2.196 0-4.393-.003-6.589.001-1.105.001-1.705.606-1.706 1.717-.002 2.489.005 4.978-.008 7.468-.001.299.102.483.32.664a9.284 9.284 0 0 1 2.533 3.324c.125.275.276.345.561.345 3.792-.009 7.585-.004 11.376-.007 1.133 0 1.724-.6 1.724-1.741V60.248c0-1.17-.585-1.754-1.754-1.754-2.153-.002-4.305-.001-6.457-.001ZM67.948 72.025c.059-.096.103-.153.131-.217 1.006-2.201 2.601-3.826 4.776-4.887a.606.606 0 0 0 .297-.335c.242-.901.582-1.8.66-2.718.144-1.73.136-3.476.188-5.215.012-.391.001-.784.001-1.2-2.191-.158-4.27-.547-6.021-1.948-1.745 1.414-3.818 1.783-5.99 1.94 0 1.207-.043 2.392.012 3.57.06 1.298.106 2.61.348 3.882.567 2.999 2.091 5.368 4.876 6.802.23.119.472.214.722.326Zm-10.452 16.85c0 2.56 0 5.121.002 7.682 0 .668.268.94.924.943 1.141.005 2.283.005 3.424 0 .629-.004.907-.281.907-.921.003-5.136.003-10.272 0-15.409 0-.642-.269-.908-.907-.911-1.112-.006-2.224-.004-3.336-.002-.785.002-1.014.233-1.014 1.022v7.595Zm36.74-31.896c0-.264.007-.482-.002-.699-.02-.475-.292-.772-.767-.776-1.49-.012-2.979-.01-4.468 0-.377.002-.654.213-.722.582-.053.288-.01.595-.01.893h5.968Z" fill="#2383AE"/><path d="M74.013 78.322c-.017-.708.239-1.034.69-1.059.454-.024.745.264.8.795.094.91.745 1.488 1.613 1.43.768-.05 1.38-.715 1.378-1.495-.002-.828-.638-1.454-1.52-1.494-1.528-.07-2.704-1.079-2.94-2.524-.229-1.398.543-2.7 1.93-3.287.13-.055.255-.215.3-.355.121-.37.363-.579.736-.575.373.002.606.217.73.586.047.145.203.3.348.36 1.136.48 1.916 1.57 1.913 2.712-.002.524-.329.855-.809.82-.412-.031-.635-.294-.689-.814-.103-1.008-1.012-1.642-1.937-1.351a1.49 1.49 0 0 0-1.045 1.63c.085.72.7 1.276 1.482 1.298.864.026 1.602.323 2.19.953a2.98 2.98 0 0 1-1.057 4.807c-.23.095-.384.182-.434.465-.061.337-.342.515-.677.52-.353.005-.644-.167-.715-.528-.054-.276-.213-.363-.442-.462-1.138-.492-1.736-1.38-1.845-2.432ZM96.498 65.257c-.002 2.88-2.393 5.261-5.272 5.25-2.866-.012-5.225-2.371-5.237-5.24-.013-2.878 2.366-5.268 5.248-5.273 2.877-.005 5.263 2.381 5.26 5.263Zm-9.005-.014c-.007 2.05 1.676 3.745 3.733 3.76 2.043.014 3.746-1.667 3.772-3.726.026-2.06-1.69-3.784-3.758-3.78a3.769 3.769 0 0 0-3.747 3.746ZM66.39 64.894l2.896-3.86c.35-.468.697-.94 1.055-1.402.311-.402.761-.488 1.107-.225.348.264.393.712.083 1.128a1393.212 1393.212 0 0 1-4.37 5.823c-.378.502-.818.53-1.265.099a53.69 53.69 0 0 1-1.364-1.365c-.345-.36-.36-.78-.063-1.094.312-.328.749-.32 1.123.041.262.253.499.532.799.855Z" fill="#2383AE"/><path d="M92.017 64.47c.61.079 1.438-.148 1.45.761.012.94-.827.732-1.434.784-.097.602.15 1.458-.793 1.457-.92-.003-.695-.828-.773-1.473-.234 0-.462.011-.688-.003-.471-.03-.767-.315-.777-.729-.01-.432.293-.733.785-.765.216-.014.434-.002.68-.002.091-.628-.171-1.512.823-1.47.876.038.668.831.727 1.44Z" fill="#2383AE"/><path d="M45.233 173v-10.182h3.56c.709 0 1.294.123 1.755.368.46.242.803.568 1.029.979.225.408.338.861.338 1.358 0 .437-.078.798-.234 1.084a1.82 1.82 0 0 1-.606.676 2.791 2.791 0 0 1-.81.368v.099c.31.02.624.129.939.328.315.199.578.484.79.855.212.371.319.826.319 1.362 0 .511-.117.97-.349 1.378-.231.407-.598.73-1.098.969-.5.239-1.152.358-1.954.358h-3.679Zm1.233-1.094h2.446c.805 0 1.377-.156 1.715-.467a1.5 1.5 0 0 0 .512-1.144c0-.344-.088-.662-.263-.954a1.91 1.91 0 0 0-.751-.706c-.325-.179-.71-.269-1.153-.269h-2.506v3.54Zm0-4.613h2.287c.371 0 .706-.073 1.004-.219.302-.146.54-.351.716-.617.179-.265.269-.576.269-.934a1.55 1.55 0 0 0-.468-1.139c-.311-.315-.805-.472-1.481-.472h-2.327v3.381Zm10.915 5.866c-.736 0-1.37-.162-1.904-.487a3.273 3.273 0 0 1-1.228-1.372c-.285-.59-.428-1.276-.428-2.059 0-.782.143-1.471.428-2.068.288-.6.69-1.067 1.203-1.402.517-.338 1.12-.507 1.81-.507.397 0 .79.066 1.178.199.388.133.74.348 1.059.646.318.295.572.686.76 1.174.19.487.284 1.087.284 1.799v.498h-5.886v-1.015h4.693c0-.431-.086-.815-.259-1.153a1.944 1.944 0 0 0-.726-.8c-.311-.196-.679-.294-1.103-.294-.468 0-.872.116-1.213.348a2.29 2.29 0 0 0-.78.895 2.628 2.628 0 0 0-.274 1.183v.676c0 .577.1 1.066.298 1.467.202.398.482.701.84.91.358.205.774.308 1.248.308.308 0 .587-.043.835-.129a1.79 1.79 0 0 0 .651-.398c.183-.179.324-.401.423-.666l1.134.318c-.12.385-.32.723-.602 1.014-.282.289-.63.514-1.044.676-.414.16-.88.239-1.397.239Zm6.12-4.753V173h-1.173v-7.636h1.133v1.193h.1c.179-.388.45-.7.815-.935.365-.238.835-.358 1.412-.358.517 0 .97.106 1.357.318.388.209.69.527.905.955.216.424.323.961.323 1.611V173H67.2v-4.773c0-.6-.156-1.067-.467-1.402-.312-.338-.74-.507-1.283-.507-.375 0-.71.081-1.004.244a1.738 1.738 0 0 0-.691.711c-.17.311-.254.689-.254 1.133Zm10.218 4.753c-.736 0-1.37-.162-1.904-.487a3.273 3.273 0 0 1-1.228-1.372c-.285-.59-.428-1.276-.428-2.059 0-.782.143-1.471.428-2.068.288-.6.69-1.067 1.203-1.402.517-.338 1.12-.507 1.81-.507.397 0 .79.066 1.178.199.388.133.74.348 1.059.646.318.295.572.686.76 1.174.19.487.284 1.087.284 1.799v.498h-5.886v-1.015h4.693c0-.431-.087-.815-.259-1.153a1.944 1.944 0 0 0-.726-.8c-.311-.196-.68-.294-1.103-.294-.468 0-.872.116-1.213.348a2.291 2.291 0 0 0-.781.895 2.628 2.628 0 0 0-.273 1.183v.676c0 .577.099 1.066.298 1.467.202.398.482.701.84.91.358.205.774.308 1.248.308.308 0 .587-.043.835-.129.252-.09.47-.222.651-.398.183-.179.324-.401.423-.666l1.133.318c-.119.385-.32.723-.601 1.014-.282.289-.63.514-1.044.676-.414.16-.88.239-1.397.239Zm8.347-7.795v.994H77.95v-.994h4.116ZM79.183 173v-8.69c0-.438.102-.802.308-1.094a1.9 1.9 0 0 1 .8-.656 2.528 2.528 0 0 1 1.04-.219c.288 0 .523.023.705.07.183.046.319.089.408.129l-.338 1.014a5.763 5.763 0 0 0-.249-.075 1.545 1.545 0 0 0-.407-.044c-.388 0-.668.097-.84.293-.17.196-.254.482-.254.86V173h-1.173Zm4.528 0v-7.636h1.173V173H83.71Zm.596-8.909a.833.833 0 0 1-.591-.234.75.75 0 0 1-.244-.562c0-.218.081-.406.244-.561a.833.833 0 0 1 .591-.234c.229 0 .424.078.587.234a.742.742 0 0 1 .248.561.744.744 0 0 1-.248.562.816.816 0 0 1-.587.234Zm5.828 9.068c-.716 0-1.332-.169-1.85-.507a3.306 3.306 0 0 1-1.192-1.397c-.279-.593-.418-1.271-.418-2.033 0-.776.142-1.46.428-2.054a3.383 3.383 0 0 1 1.203-1.397c.517-.338 1.12-.507 1.81-.507.536 0 1.02.1 1.45.298.432.199.785.478 1.06.836s.446.775.512 1.253h-1.173c-.09-.348-.289-.657-.597-.925-.305-.272-.716-.408-1.233-.408-.457 0-.858.119-1.203.358-.341.235-.608.569-.8.999-.19.428-.284.93-.284 1.507 0 .59.093 1.104.279 1.541.189.438.454.777.795 1.019.345.242.75.363 1.213.363.305 0 .582-.053.83-.159a1.71 1.71 0 0 0 .632-.457c.172-.199.295-.438.368-.716h1.173c-.066.45-.23.856-.492 1.218a2.749 2.749 0 0 1-1.03.855c-.424.209-.917.313-1.48.313Zm4.718-.159v-7.636h1.174V173h-1.174Zm.597-8.909a.834.834 0 0 1-.592-.234.751.751 0 0 1-.243-.562c0-.218.08-.406.243-.561a.834.834 0 0 1 .592-.234c.228 0 .424.078.586.234a.742.742 0 0 1 .249.561.744.744 0 0 1-.249.562.816.816 0 0 1-.586.234Zm5.828 9.068c-.69 0-1.295-.164-1.815-.492a3.342 3.342 0 0 1-1.213-1.377c-.288-.59-.433-1.28-.433-2.068 0-.796.145-1.49.433-2.084a3.344 3.344 0 0 1 1.213-1.382c.52-.328 1.125-.492 1.815-.492.689 0 1.292.164 1.809.492.521.329.925.789 1.213 1.382.292.594.438 1.288.438 2.084 0 .788-.146 1.478-.438 2.068a3.29 3.29 0 0 1-1.213 1.377c-.517.328-1.12.492-1.809.492Zm0-1.054c.523 0 .954-.134 1.292-.403.338-.268.589-.621.751-1.059.162-.437.244-.911.244-1.421 0-.511-.082-.986-.244-1.427a2.403 2.403 0 0 0-.751-1.069c-.338-.272-.769-.408-1.292-.408-.524 0-.955.136-1.293.408a2.405 2.405 0 0 0-.75 1.069 4.095 4.095 0 0 0-.244 1.427c0 .51.081.984.243 1.421.163.438.413.791.751 1.059.338.269.769.403 1.293.403Zm10.66-5.031-1.054.298a1.954 1.954 0 0 0-.293-.512 1.438 1.438 0 0 0-.517-.418c-.219-.109-.499-.164-.841-.164-.467 0-.856.108-1.168.324-.308.212-.462.482-.462.81 0 .292.106.522.318.691.212.169.544.31.994.423l1.134.278c.683.166 1.191.419 1.526.761.335.338.502.774.502 1.307 0 .438-.126.829-.378 1.173-.248.345-.596.617-1.044.816-.447.199-.967.298-1.561.298-.779 0-1.423-.169-1.934-.507-.51-.338-.833-.832-.969-1.482l1.114-.278c.106.411.306.719.601.925.298.205.688.308 1.168.308.547 0 .981-.116 1.303-.348.325-.235.487-.517.487-.845a.89.89 0 0 0-.278-.666c-.186-.183-.471-.319-.855-.408l-1.273-.298c-.699-.166-1.213-.423-1.541-.771-.325-.351-.487-.79-.487-1.317 0-.431.12-.812.362-1.144a2.48 2.48 0 0 1 1-.78 3.506 3.506 0 0 1 1.441-.284c.756 0 1.349.166 1.78.497.435.332.743.769.925 1.313Z" fill="#717171"/><defs><filter id="a" x=".433" y=".48" width="159.906" height="154.887" filterUnits="userSpaceOnUse" color-interpolation-filters="sRGB"><feFlood flood-opacity="0" result="BackgroundImageFix"/><feColorMatrix in="SourceAlpha" values="0 0 0 0 0 0 0 0 0 0 0 0 0 0 0 0 0 0 127 0" result="hardAlpha"/><feOffset dx="2" dy="2"/><feGaussianBlur stdDeviation="5"/><feComposite in2="hardAlpha" operator="out"/><feColorMatrix values="0 0 0 0 0 0 0 0 0 0 0 0 0 0 0 0 0 0 0.1 0"/><feBlend in2="BackgroundImageFix" result="effect1_dropShadow_23_39"/><feBlend in="SourceGraphic" in2="effect1_dropShadow_23_39" result="shape"/></filter></defs></svg>