<svg width="160" height="181" viewBox="0 0 160 181" fill="none" xmlns="http://www.w3.org/2000/svg">
<g filter="url(#filter0_d_23_43)">
<path d="M145.27 87.2353L120.215 43.9445C116.661 37.799 110.095 34.0182 102.987 34.0216L52.9205 34.0456C45.817 34.049 39.2509 37.8361 35.7021 43.9851L10.6894 87.2999C7.14057 93.4488 7.1442 101.017 10.6989 107.162L35.7532 150.453C39.3079 156.599 45.8776 160.379 52.9811 160.376L72.4214 160.367L78.0187 168.752L83.6079 160.361L103.048 160.352C110.156 160.349 116.718 156.561 120.267 150.412L145.279 107.098C148.828 100.949 148.824 93.3808 145.27 87.2353Z" fill="white"/>
</g>
<path d="M44.4261 12H43.1932C43.1203 11.6454 42.9927 11.3338 42.8104 11.0653C42.6314 10.7969 42.4126 10.5715 42.1541 10.3892C41.8989 10.2036 41.6155 10.0644 41.304 9.97159C40.9924 9.87879 40.6676 9.83239 40.3295 9.83239C39.7131 9.83239 39.1546 9.98816 38.6541 10.2997C38.157 10.6113 37.7609 11.0703 37.4659 11.6768C37.1742 12.2834 37.0284 13.0275 37.0284 13.9091C37.0284 14.7907 37.1742 15.5348 37.4659 16.1413C37.7609 16.7479 38.157 17.2069 38.6541 17.5185C39.1546 17.83 39.7131 17.9858 40.3295 17.9858C40.6676 17.9858 40.9924 17.9394 41.304 17.8466C41.6155 17.7538 41.8989 17.6162 42.1541 17.4339C42.4126 17.2483 42.6314 17.0213 42.8104 16.7528C42.9927 16.4811 43.1203 16.1695 43.1932 15.8182H44.4261C44.3333 16.3385 44.1643 16.8042 43.919 17.2152C43.6738 17.6262 43.3688 17.9759 43.0043 18.2642C42.6397 18.5492 42.2304 18.7663 41.7763 18.9155C41.3255 19.0646 40.8433 19.1392 40.3295 19.1392C39.4612 19.1392 38.6889 18.9271 38.0128 18.5028C37.3366 18.0786 36.8047 17.4754 36.4169 16.6932C36.0291 15.911 35.8352 14.983 35.8352 13.9091C35.8352 12.8352 36.0291 11.9072 36.4169 11.125C36.8047 10.3428 37.3366 9.73958 38.0128 9.31534C38.6889 8.8911 39.4612 8.67898 40.3295 8.67898C40.8433 8.67898 41.3255 8.75355 41.7763 8.9027C42.2304 9.05185 42.6397 9.2706 43.0043 9.55895C43.3688 9.84399 43.6738 10.192 43.919 10.603C44.1643 11.0107 44.3333 11.4763 44.4261 12ZM48.5066 19.179C48.0227 19.179 47.5835 19.0878 47.1891 18.9055C46.7947 18.7199 46.4815 18.4531 46.2495 18.1051C46.0175 17.7538 45.9015 17.3295 45.9015 16.8324C45.9015 16.3949 45.9876 16.0402 46.16 15.7685C46.3323 15.4934 46.5627 15.2779 46.851 15.1222C47.1394 14.9664 47.4576 14.8504 47.8056 14.7741C48.1569 14.6946 48.5099 14.6316 48.8645 14.5852C49.3285 14.5256 49.7047 14.4808 49.9931 14.451C50.2847 14.4179 50.4969 14.3632 50.6294 14.2869C50.7653 14.2107 50.8333 14.0781 50.8333 13.8892V13.8494C50.8333 13.3589 50.699 12.9777 50.4306 12.706C50.1654 12.4342 49.7627 12.2983 49.2225 12.2983C48.6623 12.2983 48.2232 12.4209 47.905 12.6662C47.5868 12.9115 47.3631 13.1733 47.2338 13.4517L46.1202 13.054C46.3191 12.59 46.5842 12.2287 46.9157 11.9702C47.2504 11.7083 47.615 11.526 48.0094 11.4233C48.4071 11.3172 48.7982 11.2642 49.1827 11.2642C49.428 11.2642 49.7097 11.294 50.0279 11.3537C50.3494 11.41 50.6593 11.5277 50.9576 11.7067C51.2592 11.8857 51.5094 12.1558 51.7083 12.517C51.9071 12.8783 52.0066 13.3622 52.0066 13.9687V19H50.8333V17.9659H50.7736C50.6941 18.1316 50.5615 18.3089 50.3759 18.4979C50.1903 18.6868 49.9434 18.8475 49.6351 18.9801C49.3269 19.1127 48.9507 19.179 48.5066 19.179ZM48.6855 18.125C49.1496 18.125 49.5407 18.0339 49.8588 17.8516C50.1803 17.6693 50.4223 17.4339 50.5847 17.1456C50.7504 16.8572 50.8333 16.554 50.8333 16.2358V15.1619C50.7836 15.2216 50.6742 15.2763 50.5051 15.326C50.3394 15.3724 50.1472 15.4138 49.9284 15.4503C49.713 15.4834 49.5025 15.5133 49.2971 15.5398C49.0949 15.563 48.9308 15.5829 48.8049 15.5994C48.4999 15.6392 48.2149 15.7038 47.9498 15.7933C47.6879 15.8795 47.4758 16.0104 47.3134 16.1861C47.1543 16.3584 47.0748 16.5937 47.0748 16.892C47.0748 17.2997 47.2256 17.608 47.5272 17.8168C47.8321 18.0223 48.2182 18.125 48.6855 18.125ZM54.1481 21.8636V11.3636H55.2816V12.5767H55.4208C55.507 12.4441 55.6263 12.2751 55.7788 12.0696C55.9345 11.8608 56.1566 11.6752 56.445 11.5128C56.7366 11.3471 57.131 11.2642 57.6282 11.2642C58.2712 11.2642 58.838 11.425 59.3285 11.7464C59.819 12.0679 60.2018 12.5237 60.4769 13.1136C60.752 13.7036 60.8896 14.3996 60.8896 15.2017C60.8896 16.0104 60.752 16.7114 60.4769 17.3047C60.2018 17.8946 59.8207 18.352 59.3335 18.6768C58.8462 18.9983 58.2844 19.1591 57.6481 19.1591C57.1576 19.1591 56.7648 19.0779 56.4698 18.9155C56.1748 18.7498 55.9478 18.5625 55.7887 18.3537C55.6296 18.1416 55.507 17.9659 55.4208 17.8267H55.3214V21.8636H54.1481ZM55.3015 15.1818C55.3015 15.7585 55.386 16.2673 55.555 16.7081C55.7241 17.1456 55.971 17.4886 56.2958 17.7372C56.6206 17.9825 57.0183 18.1051 57.489 18.1051C57.9795 18.1051 58.3888 17.9759 58.717 17.7173C59.0484 17.4555 59.297 17.1042 59.4627 16.6634C59.6317 16.2192 59.7163 15.7254 59.7163 15.1818C59.7163 14.6449 59.6334 14.161 59.4677 13.7301C59.3053 13.2959 59.0584 12.9529 58.7269 12.701C58.3988 12.4458 57.9862 12.3182 57.489 12.3182C57.0117 12.3182 56.6107 12.4392 56.2859 12.6811C55.9611 12.9197 55.7158 13.2545 55.5501 13.6854C55.3844 14.1129 55.3015 14.6117 55.3015 15.1818ZM64.9265 19.179C64.4426 19.179 64.0034 19.0878 63.609 18.9055C63.2146 18.7199 62.9014 18.4531 62.6694 18.1051C62.4374 17.7538 62.3214 17.3295 62.3214 16.8324C62.3214 16.3949 62.4076 16.0402 62.5799 15.7685C62.7522 15.4934 62.9826 15.2779 63.271 15.1222C63.5593 14.9664 63.8775 14.8504 64.2255 14.7741C64.5768 14.6946 64.9298 14.6316 65.2844 14.5852C65.7485 14.5256 66.1246 14.4808 66.413 14.451C66.7047 14.4179 66.9168 14.3632 67.0494 14.2869C67.1853 14.2107 67.2532 14.0781 67.2532 13.8892V13.8494C67.2532 13.3589 67.119 12.9777 66.8505 12.706C66.5853 12.4342 66.1826 12.2983 65.6424 12.2983C65.0823 12.2983 64.6431 12.4209 64.3249 12.6662C64.0067 12.9115 63.783 13.1733 63.6538 13.4517L62.5401 13.054C62.739 12.59 63.0041 12.2287 63.3356 11.9702C63.6703 11.7083 64.0349 11.526 64.4293 11.4233C64.8271 11.3172 65.2182 11.2642 65.6026 11.2642C65.8479 11.2642 66.1296 11.294 66.4478 11.3537C66.7693 11.41 67.0792 11.5277 67.3775 11.7067C67.6791 11.8857 67.9293 12.1558 68.1282 12.517C68.3271 12.8783 68.4265 13.3622 68.4265 13.9687V19L67.2532 19V17.9659H67.1935C67.114 18.1316 66.9814 18.3089 66.7958 18.4979C66.6102 18.6868 66.3633 18.8475 66.055 18.9801C65.7468 19.1127 65.3706 19.179 64.9265 19.179ZM65.1055 18.125C65.5695 18.125 65.9606 18.0339 66.2788 17.8516C66.6003 17.6693 66.8422 17.4339 67.0046 17.1456C67.1703 16.8572 67.2532 16.554 67.2532 16.2358V15.1619C67.2035 15.2216 67.0941 15.2763 66.9251 15.326C66.7594 15.3724 66.5671 15.4138 66.3484 15.4503C66.1329 15.4834 65.9225 15.5133 65.717 15.5398C65.5148 15.563 65.3507 15.5829 65.2248 15.5994C64.9199 15.6392 64.6348 15.7038 64.3697 15.7933C64.1078 15.8795 63.8957 16.0104 63.7333 16.1861C63.5742 16.3584 63.4947 16.5937 63.4947 16.892C63.4947 17.2997 63.6455 17.608 63.9471 17.8168C64.252 18.0223 64.6381 18.125 65.1055 18.125ZM73.6703 19.1591C72.9544 19.1591 72.3379 18.9901 71.8208 18.652C71.3038 18.3139 70.9061 17.8482 70.6277 17.255C70.3493 16.6617 70.21 15.9839 70.21 15.2216C70.21 14.446 70.3526 13.7616 70.6376 13.1683C70.926 12.5717 71.327 12.1061 71.8407 11.7713C72.3578 11.4332 72.961 11.2642 73.6504 11.2642C74.1873 11.2642 74.6712 11.3636 75.1021 11.5625C75.533 11.7614 75.8859 12.0398 76.161 12.3977C76.4361 12.7557 76.6068 13.1733 76.6731 13.6506H75.4998C75.4103 13.3026 75.2115 12.9943 74.9032 12.7259C74.5983 12.4541 74.1873 12.3182 73.6703 12.3182C73.2129 12.3182 72.8118 12.4375 72.4672 12.6761C72.1258 12.9115 71.859 13.2446 71.6667 13.6754C71.4778 14.103 71.3833 14.6051 71.3833 15.1818C71.3833 15.7718 71.4761 16.2855 71.6618 16.723C71.8507 17.1605 72.1158 17.5002 72.4572 17.7422C72.8019 17.9841 73.2063 18.1051 73.6703 18.1051C73.9752 18.1051 74.252 18.0521 74.5005 17.946C74.7491 17.84 74.9596 17.6875 75.1319 17.4886C75.3043 17.2898 75.4269 17.0511 75.4998 16.7727H76.6731C76.6068 17.2235 76.4428 17.6295 76.1809 17.9908C75.9224 18.3487 75.5794 18.6338 75.1518 18.8459C74.7276 19.0547 74.2337 19.1591 73.6703 19.1591ZM78.3883 19V11.3636H79.5616V19H78.3883ZM78.9849 10.0909C78.7562 10.0909 78.559 10.013 78.3933 9.85724C78.2309 9.70147 78.1497 9.5142 78.1497 9.29545C78.1497 9.0767 78.2309 8.88944 78.3933 8.73366C78.559 8.57789 78.7562 8.5 78.9849 8.5C79.2136 8.5 79.4092 8.57789 79.5716 8.73366C79.7373 8.88944 79.8201 9.0767 79.8201 9.29545C79.8201 9.5142 79.7373 9.70147 79.5716 9.85724C79.4092 10.013 79.2136 10.0909 78.9849 10.0909ZM85.0316 11.3636V12.358L81.0742 12.358V11.3636L85.0316 11.3636ZM82.2276 9.53409H83.4009V16.8125C83.4009 17.1439 83.449 17.3925 83.5451 17.5582C83.6445 17.7206 83.7705 17.83 83.9229 17.8864C84.0787 17.9394 84.2428 17.9659 84.4151 17.9659C84.5444 17.9659 84.6505 17.9593 84.7333 17.946C84.8162 17.9295 84.8825 17.9162 84.9322 17.9062L85.1708 18.9602C85.0913 18.9901 84.9802 19.0199 84.8377 19.0497C84.6952 19.0829 84.5146 19.0994 84.2958 19.0994C83.9644 19.0994 83.6396 19.0282 83.3214 18.8857C83.0065 18.7431 82.7447 18.526 82.5359 18.2344C82.3304 17.9427 82.2276 17.5748 82.2276 17.1307V9.53409ZM89.0437 19.179C88.5598 19.179 88.1206 19.0878 87.7262 18.9055C87.3318 18.7199 87.0186 18.4531 86.7866 18.1051C86.5546 17.7538 86.4386 17.3295 86.4386 16.8324C86.4386 16.3949 86.5247 16.0402 86.6971 15.7685C86.8694 15.4934 87.0998 15.2779 87.3881 15.1222C87.6765 14.9664 87.9947 14.8504 88.3427 14.7741C88.694 14.6946 89.047 14.6316 89.4016 14.5852C89.8656 14.5256 90.2418 14.4808 90.5302 14.451C90.8219 14.4179 91.034 14.3632 91.1665 14.2869C91.3024 14.2107 91.3704 14.0781 91.3704 13.8892V13.8494C91.3704 13.3589 91.2362 12.9777 90.9677 12.706C90.7025 12.4342 90.2998 12.2983 89.7596 12.2983C89.1995 12.2983 88.7603 12.4209 88.4421 12.6662C88.1239 12.9115 87.9002 13.1733 87.771 13.4517L86.6573 13.054C86.8562 12.59 87.1213 12.2287 87.4528 11.9702C87.7875 11.7083 88.1521 11.526 88.5465 11.4233C88.9442 11.3172 89.3353 11.2642 89.7198 11.2642C89.9651 11.2642 90.2468 11.294 90.565 11.3537C90.8865 11.41 91.1964 11.5277 91.4947 11.7067C91.7963 11.8857 92.0465 12.1558 92.2454 12.517C92.4442 12.8783 92.5437 13.3622 92.5437 13.9687V19H91.3704V17.9659H91.3107C91.2312 18.1316 91.0986 18.3089 90.913 18.4979C90.7274 18.6868 90.4805 18.8475 90.1722 18.9801C89.864 19.1127 89.4878 19.179 89.0437 19.179ZM89.2227 18.125C89.6867 18.125 90.0778 18.0339 90.396 17.8516C90.7174 17.6693 90.9594 17.4339 91.1218 17.1456C91.2875 16.8572 91.3704 16.554 91.3704 16.2358V15.1619C91.3207 15.2216 91.2113 15.2763 91.0423 15.326C90.8765 15.3724 90.6843 15.4138 90.4656 15.4503C90.2501 15.4834 90.0397 15.5133 89.8342 15.5398C89.632 15.563 89.4679 15.5829 89.342 15.5994C89.0371 15.6392 88.752 15.7038 88.4869 15.7933C88.225 15.8795 88.0129 16.0104 87.8505 16.1861C87.6914 16.3584 87.6119 16.5937 87.6119 16.892C87.6119 17.2997 87.7627 17.608 88.0643 17.8168C88.3692 18.0223 88.7553 18.125 89.2227 18.125ZM97.7875 19.1591C97.0716 19.1591 96.4551 18.9901 95.938 18.652C95.421 18.3139 95.0233 17.8482 94.7449 17.255C94.4664 16.6617 94.3272 15.9839 94.3272 15.2216C94.3272 14.446 94.4698 13.7616 94.7548 13.1683C95.0431 12.5717 95.4442 12.1061 95.9579 11.7713C96.475 11.4332 97.0782 11.2642 97.7676 11.2642C98.3045 11.2642 98.7884 11.3636 99.2193 11.5625C99.6502 11.7614 100.003 12.0398 100.278 12.3977C100.553 12.7557 100.724 13.1733 100.79 13.6506H99.617C99.5275 13.3026 99.3287 12.9943 99.0204 12.7259C98.7155 12.4541 98.3045 12.3182 97.7875 12.3182C97.3301 12.3182 96.929 12.4375 96.5843 12.6761C96.243 12.9115 95.9761 13.2446 95.7839 13.6754C95.595 14.103 95.5005 14.6051 95.5005 15.1818C95.5005 15.7718 95.5933 16.2855 95.7789 16.723C95.9679 17.1605 96.233 17.5002 96.5744 17.7422C96.9191 17.9841 97.3234 18.1051 97.7875 18.1051C98.0924 18.1051 98.3691 18.0521 98.6177 17.946C98.8663 17.84 99.0768 17.6875 99.2491 17.4886C99.4215 17.2898 99.5441 17.0511 99.617 16.7727H100.79C100.724 17.2235 100.56 17.6295 100.298 17.9908C100.04 18.3487 99.6966 18.6338 99.269 18.8459C98.8448 19.0547 98.3509 19.1591 97.7875 19.1591ZM102.506 19V11.3636H103.679V19H102.506ZM103.102 10.0909C102.873 10.0909 102.676 10.013 102.51 9.85724C102.348 9.70147 102.267 9.5142 102.267 9.29545C102.267 9.0767 102.348 8.88944 102.51 8.73366C102.676 8.57789 102.873 8.5 103.102 8.5C103.331 8.5 103.526 8.57789 103.689 8.73366C103.854 8.88944 103.937 9.0767 103.937 9.29545C103.937 9.5142 103.854 9.70147 103.689 9.85724C103.526 10.013 103.331 10.0909 103.102 10.0909ZM108.93 19.1591C108.241 19.1591 107.636 18.995 107.115 18.6669C106.598 18.3388 106.194 17.8797 105.902 17.2898C105.614 16.6998 105.47 16.0104 105.47 15.2216C105.47 14.4261 105.614 13.7318 105.902 13.1385C106.194 12.5452 106.598 12.0845 107.115 11.7564C107.636 11.4283 108.241 11.2642 108.93 11.2642C109.619 11.2642 110.223 11.4283 110.74 11.7564C111.26 12.0845 111.664 12.5452 111.953 13.1385C112.244 13.7318 112.39 14.4261 112.39 15.2216C112.39 16.0104 112.244 16.6998 111.953 17.2898C111.664 17.8797 111.26 18.3388 110.74 18.6669C110.223 18.995 109.619 19.1591 108.93 19.1591ZM108.93 18.1051C109.454 18.1051 109.885 17.9709 110.223 17.7024C110.561 17.4339 110.811 17.081 110.973 16.6435C111.136 16.206 111.217 15.732 111.217 15.2216C111.217 14.7112 111.136 14.2356 110.973 13.7947C110.811 13.3539 110.561 12.9976 110.223 12.7259C109.885 12.4541 109.454 12.3182 108.93 12.3182C108.406 12.3182 107.975 12.4541 107.637 12.7259C107.299 12.9976 107.049 13.3539 106.887 13.7947C106.724 14.2356 106.643 14.7112 106.643 15.2216C106.643 15.732 106.724 16.206 106.887 16.6435C107.049 17.081 107.299 17.4339 107.637 17.7024C107.975 17.9709 108.406 18.1051 108.93 18.1051ZM108.393 10.3295L109.606 8.02273H110.978L109.427 10.3295H108.393ZM115.355 14.4062V19H114.181V11.3636H115.315V12.5568H115.414C115.593 12.169 115.865 11.8575 116.23 11.6222C116.594 11.3835 117.065 11.2642 117.642 11.2642C118.159 11.2642 118.611 11.3703 118.999 11.5824C119.387 11.7912 119.688 12.1094 119.904 12.5369C120.119 12.9612 120.227 13.4981 120.227 14.1477V19H119.053V14.2273C119.053 13.6274 118.898 13.16 118.586 12.8253C118.275 12.4872 117.847 12.3182 117.303 12.3182C116.929 12.3182 116.594 12.3994 116.299 12.5618C116.008 12.7242 115.777 12.9612 115.608 13.2727C115.439 13.5843 115.355 13.9621 115.355 14.4062Z" fill="#717171"/>
<path d="M49 84.4529C49.3508 83.3721 50.1283 82.7143 51.1236 82.2405C59.0347 78.4651 66.931 74.6579 74.8568 70.9142C77.4833 69.6727 80.1985 69.7002 82.8165 70.9692C90.4973 74.6918 98.159 78.4566 105.823 82.2173C106.298 82.4521 106.776 82.7397 107.158 83.1014C108.348 84.2308 108.266 85.8447 106.981 86.8578C106.577 87.175 106.114 87.4267 105.652 87.6552C103.317 88.8164 100.98 89.9775 98.6239 91.0985C98.1823 91.31 98.0703 91.5596 98.0724 92.0165C98.0893 96.2847 98.0703 100.553 98.0935 104.821C98.0978 105.507 97.8843 106.033 97.4427 106.539C93.8379 110.65 89.3668 113.322 84.0209 114.394C76.4648 115.911 69.4285 114.631 63.1719 109.98C61.752 108.925 60.5349 107.581 59.2882 106.308C58.9924 106.008 58.8212 105.456 58.817 105.018C58.7832 100.923 58.7494 96.8262 58.8276 92.7335C58.8487 91.6294 58.5635 91.0161 57.5091 90.6649C56.742 90.409 56.0342 89.9691 55.2207 89.5693C55.2207 90.1489 55.2207 90.6248 55.2207 91.1007C55.2207 93.6578 55.2228 96.2149 55.2165 98.7721C55.2165 99.0619 55.2608 99.2522 55.5588 99.4108C56.704 100.024 57.3104 101.006 57.2957 102.313C57.2809 103.611 56.6808 104.584 55.5355 105.208C55.47 105.244 55.4087 105.289 55.2989 105.358C56.3025 108.556 57.3041 111.752 58.3183 114.988C55.4637 114.988 52.683 114.988 49.841 114.988C49.8959 114.785 49.9361 114.606 49.991 114.43C50.8869 111.575 51.7807 108.717 52.6893 105.864C52.8013 105.513 52.8097 105.32 52.4315 105.088C50.2509 103.751 50.3101 100.714 52.5308 99.4426C52.8245 99.2734 52.926 99.1042 52.9238 98.7742C52.9133 95.4662 52.9112 92.1603 52.926 88.8523C52.9281 88.5118 52.8224 88.3278 52.5118 88.2072C52.2075 88.0909 51.9244 87.9217 51.6286 87.7905C50.4833 87.2787 49.4627 86.6315 49 85.3751C49 85.0684 49 84.7596 49 84.4529ZM50.9989 84.9394C51.4257 85.227 51.6877 85.4449 51.9857 85.5951C52.6344 85.925 53.2936 86.2402 53.9634 86.5257C54.1959 86.6251 54.4811 86.6801 54.7305 86.6526C57.4203 86.3544 60.1059 86.035 62.7937 85.7199C66.5485 85.2778 70.3012 84.8315 74.056 84.3874C75.4464 84.2224 76.8388 84.0574 78.2292 83.8903C78.7046 83.8332 79.1124 83.9559 79.3808 84.3726C79.816 85.0515 79.4146 85.8468 78.5313 85.9652C76.8769 86.1894 75.216 86.365 73.5594 86.5596C69.3482 87.0545 65.1349 87.5494 60.9237 88.0465C59.9728 88.1586 59.0241 88.2812 58.0754 88.3997C58.2465 88.59 58.4155 88.6746 58.5867 88.7571C64.239 91.4729 69.887 94.1971 75.5499 96.896C77.684 97.9134 79.8477 97.907 81.9882 96.8791C83.6638 96.0732 85.3373 95.2589 87.0087 94.4446C90.5163 92.7314 94.0239 91.0182 97.5294 89.3007C100.044 88.0676 102.558 86.8345 105.06 85.5803C105.35 85.4343 105.565 85.1424 105.814 84.9182C105.563 84.7004 105.318 84.4741 105.058 84.2668C104.954 84.1864 104.819 84.1484 104.697 84.0891C97.1849 80.4152 89.6732 76.7434 82.1636 73.0611C79.9069 71.9549 77.6629 71.9612 75.4083 73.0505C74.13 73.6681 72.8495 74.2793 71.5711 74.8948C65.1074 78.004 58.6416 81.1111 52.1801 84.2266C51.8145 84.4001 51.4828 84.6433 50.9989 84.9394ZM95.9108 92.3401C95.5875 92.4966 95.3678 92.6024 95.148 92.7102C91.0488 94.7196 86.9538 96.7331 82.8524 98.7361C80.1224 100.069 77.3671 100.052 74.6392 98.7679C70.3202 96.7331 66.0224 94.6519 61.7139 92.5918C61.5153 92.4966 61.3082 92.4141 61.0631 92.3063C61.0462 92.4607 61.0293 92.5516 61.0293 92.6426C61.0272 96.6591 61.023 100.678 61.0399 104.694C61.0399 104.916 61.1519 105.198 61.3082 105.348C62.3753 106.367 63.3874 107.474 64.5707 108.339C70.5886 112.74 77.2804 113.859 84.4604 112.127C88.847 111.067 92.5575 108.789 95.5748 105.42C95.7671 105.204 95.8939 104.851 95.8981 104.559C95.9256 102.368 95.9129 100.177 95.9129 97.9853C95.9108 96.143 95.9108 94.2987 95.9108 92.3401Z" fill="#279D98"/>
<defs>
<filter id="filter0_d_23_43" x="0.0303192" y="26.0216" width="159.908" height="154.73" filterUnits="userSpaceOnUse" color-interpolation-filters="sRGB">
<feFlood flood-opacity="0" result="BackgroundImageFix"/>
<feColorMatrix in="SourceAlpha" type="matrix" values="0 0 0 0 0 0 0 0 0 0 0 0 0 0 0 0 0 0 127 0" result="hardAlpha"/>
<feOffset dx="2" dy="2"/>
<feGaussianBlur stdDeviation="5"/>
<feComposite in2="hardAlpha" operator="out"/>
<feColorMatrix type="matrix" values="0 0 0 0 0 0 0 0 0 0 0 0 0 0 0 0 0 0 0.1 0"/>
<feBlend mode="normal" in2="BackgroundImageFix" result="effect1_dropShadow_23_43"/>
<feBlend mode="normal" in="SourceGraphic" in2="effect1_dropShadow_23_43" result="shape"/>
</filter>
</defs>
</svg>
