<svg width="155" height="160" viewBox="0 0 155 160" fill="none" xmlns="http://www.w3.org/2000/svg">
<g filter="url(#filter0_d_3_96)">
<path d="M89.7655 145.244L133.068 120.211C139.216 116.659 143 110.095 143 102.988L143 52.9205C143 45.817 139.216 39.2491 133.068 35.6973L89.7655 10.6638C83.6183 7.11206 76.0504 7.11206 69.9031 10.6638L26.6003 35.6973C20.4531 39.2491 16.6691 45.817 16.6691 52.9205L16.6691 72.3607L8.28128 77.954L16.6691 83.5472L16.6691 102.988C16.6691 110.095 20.453 116.659 26.6003 120.211L69.9031 145.244C76.0504 148.796 83.6182 148.796 89.7655 145.244Z" fill="white"/>
</g>
<path d="M51.0791 105H50.0222C49.9597 104.696 49.8504 104.429 49.6941 104.199C49.5407 103.969 49.3532 103.776 49.1316 103.619C48.9129 103.46 48.67 103.341 48.4029 103.261C48.1359 103.182 47.8575 103.142 47.5677 103.142C47.0393 103.142 46.5606 103.276 46.1316 103.543C45.7055 103.81 45.366 104.203 45.1131 104.723C44.8631 105.243 44.7381 105.881 44.7381 106.636C44.7381 107.392 44.8631 108.03 45.1131 108.55C45.366 109.07 45.7055 109.463 46.1316 109.73C46.5606 109.997 47.0393 110.131 47.5677 110.131C47.8575 110.131 48.1359 110.091 48.4029 110.011C48.67 109.932 48.9129 109.814 49.1316 109.658C49.3532 109.499 49.5407 109.304 49.6941 109.074C49.8504 108.841 49.9597 108.574 50.0222 108.273H51.0791C50.9995 108.719 50.8546 109.118 50.6444 109.47C50.4342 109.822 50.1728 110.122 49.8603 110.369C49.5478 110.614 49.197 110.8 48.8078 110.928C48.4214 111.055 48.008 111.119 47.5677 111.119C46.8234 111.119 46.1614 110.938 45.5819 110.574C45.0024 110.21 44.5464 109.693 44.214 109.023C43.8816 108.352 43.7154 107.557 43.7154 106.636C43.7154 105.716 43.8816 104.92 44.214 104.25C44.5464 103.58 45.0024 103.062 45.5819 102.699C46.1614 102.335 46.8234 102.153 47.5677 102.153C48.008 102.153 48.4214 102.217 48.8078 102.345C49.197 102.473 49.5478 102.661 49.8603 102.908C50.1728 103.152 50.4342 103.45 50.6444 103.803C50.8546 104.152 50.9995 104.551 51.0791 105ZM54.5766 111.153C54.1618 111.153 53.7854 111.075 53.4473 110.919C53.1092 110.76 52.8408 110.531 52.6419 110.233C52.443 109.932 52.3436 109.568 52.3436 109.142C52.3436 108.767 52.4175 108.463 52.5652 108.23C52.7129 107.994 52.9104 107.81 53.1575 107.676C53.4047 107.543 53.6774 107.443 53.9757 107.378C54.2769 107.31 54.5794 107.256 54.8834 107.216C55.2811 107.165 55.6036 107.126 55.8507 107.101C56.1007 107.072 56.2825 107.026 56.3962 106.96C56.5127 106.895 56.5709 106.781 56.5709 106.619V106.585C56.5709 106.165 56.4558 105.838 56.2257 105.605C55.9984 105.372 55.6533 105.256 55.1902 105.256C54.7101 105.256 54.3337 105.361 54.0609 105.571C53.7882 105.781 53.5965 106.006 53.4857 106.244L52.5311 105.903C52.7016 105.506 52.9288 105.196 53.2129 104.974C53.4999 104.75 53.8124 104.594 54.1504 104.506C54.4913 104.415 54.8266 104.369 55.1561 104.369C55.3663 104.369 55.6078 104.395 55.8805 104.446C56.1561 104.494 56.4217 104.595 56.6774 104.749C56.9359 104.902 57.1504 105.134 57.3209 105.443C57.4913 105.753 57.5766 106.168 57.5766 106.688V111H56.5709V110.114H56.5198C56.4516 110.256 56.3379 110.408 56.1788 110.57C56.0198 110.732 55.8081 110.869 55.5439 110.983C55.2797 111.097 54.9573 111.153 54.5766 111.153ZM54.73 110.25C55.1277 110.25 55.4629 110.172 55.7357 110.016C56.0112 109.859 56.2186 109.658 56.3578 109.411C56.4999 109.163 56.5709 108.903 56.5709 108.631V107.71C56.5283 107.761 56.4345 107.808 56.2896 107.851C56.1476 107.891 55.9828 107.926 55.7953 107.957C55.6107 107.986 55.4303 108.011 55.2541 108.034C55.0808 108.054 54.9402 108.071 54.8323 108.085C54.5709 108.119 54.3266 108.175 54.0993 108.251C53.8749 108.325 53.693 108.437 53.5538 108.588C53.4175 108.736 53.3493 108.937 53.3493 109.193C53.3493 109.543 53.4786 109.807 53.7371 109.986C53.9984 110.162 54.3294 110.25 54.73 110.25ZM59.4122 113.455V104.455H60.3837V105.494H60.5031C60.5769 105.381 60.6792 105.236 60.8099 105.06C60.9434 104.881 61.1337 104.722 61.3809 104.582C61.6309 104.44 61.969 104.369 62.3951 104.369C62.9462 104.369 63.432 104.507 63.8525 104.783C64.2729 105.058 64.6011 105.449 64.8369 105.955C65.0727 106.46 65.1906 107.057 65.1906 107.744C65.1906 108.438 65.0727 109.038 64.8369 109.547C64.6011 110.053 64.2744 110.445 63.8568 110.723C63.4391 110.999 62.9576 111.136 62.4122 111.136C61.9917 111.136 61.6551 111.067 61.4022 110.928C61.1494 110.786 60.9548 110.625 60.8184 110.446C60.682 110.264 60.5769 110.114 60.5031 109.994H60.4178V113.455H59.4122ZM60.4008 107.727C60.4008 108.222 60.4732 108.658 60.6181 109.036C60.763 109.411 60.9747 109.705 61.2531 109.918C61.5315 110.128 61.8724 110.233 62.2758 110.233C62.6962 110.233 63.0471 110.122 63.3283 109.901C63.6124 109.676 63.8255 109.375 63.9676 108.997C64.1124 108.616 64.1849 108.193 64.1849 107.727C64.1849 107.267 64.1139 106.852 63.9718 106.483C63.8326 106.111 63.621 105.817 63.3369 105.601C63.0556 105.382 62.7019 105.273 62.2758 105.273C61.8667 105.273 61.5229 105.376 61.2445 105.584C60.9661 105.788 60.7559 106.075 60.6139 106.445C60.4718 106.811 60.4008 107.239 60.4008 107.727ZM68.6508 111.153C68.236 111.153 67.8596 111.075 67.5215 110.919C67.1835 110.76 66.915 110.531 66.7161 110.233C66.5173 109.932 66.4178 109.568 66.4178 109.142C66.4178 108.767 66.4917 108.463 66.6394 108.23C66.7872 107.994 66.9846 107.81 67.2318 107.676C67.4789 107.543 67.7516 107.443 68.0499 107.378C68.3511 107.31 68.6536 107.256 68.9576 107.216C69.3553 107.165 69.6778 107.126 69.9249 107.101C70.1749 107.072 70.3568 107.026 70.4704 106.96C70.5869 106.895 70.6451 106.781 70.6451 106.619V106.585C70.6451 106.165 70.5301 105.838 70.2999 105.605C70.0727 105.372 69.7275 105.256 69.2644 105.256C68.7843 105.256 68.4079 105.361 68.1352 105.571C67.8624 105.781 67.6707 106.006 67.5599 106.244L66.6053 105.903C66.7758 105.506 67.0031 105.196 67.2872 104.974C67.5741 104.75 67.8866 104.594 68.2247 104.506C68.5656 104.415 68.9008 104.369 69.2303 104.369C69.4406 104.369 69.682 104.395 69.9548 104.446C70.2303 104.494 70.496 104.595 70.7516 104.749C71.0102 104.902 71.2247 105.134 71.3951 105.443C71.5656 105.753 71.6508 106.168 71.6508 106.688V111H70.6451V110.114H70.594C70.5258 110.256 70.4122 110.408 70.2531 110.57C70.094 110.732 69.8823 110.869 69.6181 110.983C69.3539 111.097 69.0315 111.153 68.6508 111.153ZM68.8042 110.25C69.2019 110.25 69.5372 110.172 69.8099 110.016C70.0854 109.859 70.2928 109.658 70.432 109.411C70.5741 109.163 70.6451 108.903 70.6451 108.631V107.71C70.6025 107.761 70.5087 107.808 70.3639 107.851C70.2218 107.891 70.057 107.926 69.8695 107.957C69.6849 107.986 69.5045 108.011 69.3283 108.034C69.1551 108.054 69.0144 108.071 68.9065 108.085C68.6451 108.119 68.4008 108.175 68.1735 108.251C67.9491 108.325 67.7673 108.437 67.6281 108.588C67.4917 108.736 67.4235 108.937 67.4235 109.193C67.4235 109.543 67.5528 109.807 67.8113 109.986C68.0727 110.162 68.4036 110.25 68.8042 110.25ZM76.1455 111.136C75.5318 111.136 75.0034 110.991 74.5602 110.702C74.1171 110.412 73.7761 110.013 73.5375 109.504C73.2989 108.996 73.1796 108.415 73.1796 107.761C73.1796 107.097 73.3017 106.51 73.546 106.001C73.7932 105.49 74.1369 105.091 74.5773 104.804C75.0205 104.514 75.5375 104.369 76.1284 104.369C76.5886 104.369 77.0034 104.455 77.3727 104.625C77.7421 104.795 78.0446 105.034 78.2804 105.341C78.5162 105.648 78.6625 106.006 78.7193 106.415H77.7136C77.6369 106.116 77.4665 105.852 77.2023 105.622C76.9409 105.389 76.5886 105.273 76.1455 105.273C75.7534 105.273 75.4097 105.375 75.1142 105.58C74.8216 105.781 74.5929 106.067 74.4281 106.436C74.2662 106.803 74.1852 107.233 74.1852 107.727C74.1852 108.233 74.2648 108.673 74.4239 109.048C74.5858 109.423 74.8131 109.714 75.1057 109.922C75.4011 110.129 75.7477 110.233 76.1455 110.233C76.4068 110.233 76.644 110.188 76.8571 110.097C77.0702 110.006 77.2506 109.875 77.3983 109.705C77.546 109.534 77.6511 109.33 77.7136 109.091H78.7193C78.6625 109.477 78.5219 109.825 78.2975 110.135C78.0759 110.442 77.7818 110.686 77.4154 110.868C77.0517 111.047 76.6284 111.136 76.1455 111.136ZM80.1895 111V104.455H81.1952V111H80.1895ZM80.7009 103.364C80.5048 103.364 80.3358 103.297 80.1938 103.163C80.0546 103.03 79.985 102.869 79.985 102.682C79.985 102.494 80.0546 102.334 80.1938 102.2C80.3358 102.067 80.5048 102 80.7009 102C80.8969 102 81.0645 102.067 81.2037 102.2C81.3457 102.334 81.4168 102.494 81.4168 102.682C81.4168 102.869 81.3457 103.03 81.2037 103.163C81.0645 103.297 80.8969 103.364 80.7009 103.364ZM85.8837 104.455V105.307H82.4917V104.455H85.8837ZM83.4803 102.886H84.486V109.125C84.486 109.409 84.5272 109.622 84.6096 109.764C84.6948 109.903 84.8028 109.997 84.9335 110.045C85.067 110.091 85.2076 110.114 85.3553 110.114C85.4661 110.114 85.557 110.108 85.6281 110.097C85.6991 110.082 85.7559 110.071 85.7985 110.062L86.0031 110.966C85.9349 110.991 85.8397 111.017 85.7176 111.043C85.5954 111.071 85.4406 111.085 85.2531 111.085C84.969 111.085 84.6906 111.024 84.4178 110.902C84.1479 110.78 83.9235 110.594 83.7445 110.344C83.5684 110.094 83.4803 109.778 83.4803 109.398V102.886ZM89.3227 111.153C88.9079 111.153 88.5315 111.075 88.1934 110.919C87.8553 110.76 87.5869 110.531 87.388 110.233C87.1891 109.932 87.0897 109.568 87.0897 109.142C87.0897 108.767 87.1636 108.463 87.3113 108.23C87.459 107.994 87.6565 107.81 87.9036 107.676C88.1508 107.543 88.4235 107.443 88.7218 107.378C89.0229 107.31 89.3255 107.256 89.6295 107.216C90.0272 107.165 90.3497 107.126 90.5968 107.101C90.8468 107.072 91.0286 107.026 91.1423 106.96C91.2587 106.895 91.317 106.781 91.317 106.619V106.585C91.317 106.165 91.2019 105.838 90.9718 105.605C90.7445 105.372 90.3994 105.256 89.9363 105.256C89.4562 105.256 89.0798 105.361 88.807 105.571C88.5343 105.781 88.3426 106.006 88.2318 106.244L87.2772 105.903C87.4477 105.506 87.6749 105.196 87.959 104.974C88.246 104.75 88.5585 104.594 88.8965 104.506C89.2374 104.415 89.5727 104.369 89.9022 104.369C90.1124 104.369 90.3539 104.395 90.6266 104.446C90.9022 104.494 91.1678 104.595 91.4235 104.749C91.682 104.902 91.8965 105.134 92.067 105.443C92.2374 105.753 92.3227 106.168 92.3227 106.688V111H91.317V110.114H91.2658C91.1977 110.256 91.084 110.408 90.9249 110.57C90.7658 110.732 90.5542 110.869 90.29 110.983C90.0258 111.097 89.7033 111.153 89.3227 111.153ZM89.4761 110.25C89.8738 110.25 90.209 110.172 90.4818 110.016C90.7573 109.859 90.9647 109.658 91.1039 109.411C91.246 109.163 91.317 108.903 91.317 108.631V107.71C91.2744 107.761 91.1806 107.808 91.0357 107.851C90.8937 107.891 90.7289 107.926 90.5414 107.957C90.3568 107.986 90.1764 108.011 90.0002 108.034C89.8269 108.054 89.6863 108.071 89.5783 108.085C89.317 108.119 89.0727 108.175 88.8454 108.251C88.621 108.325 88.4391 108.437 88.2999 108.588C88.1636 108.736 88.0954 108.937 88.0954 109.193C88.0954 109.543 88.2247 109.807 88.4832 109.986C88.7445 110.162 89.0755 110.25 89.4761 110.25ZM96.8173 111.136C96.2037 111.136 95.6753 110.991 95.2321 110.702C94.7889 110.412 94.448 110.013 94.2094 109.504C93.9707 108.996 93.8514 108.415 93.8514 107.761C93.8514 107.097 93.9736 106.51 94.2179 106.001C94.4651 105.49 94.8088 105.091 95.2492 104.804C95.6923 104.514 96.2094 104.369 96.8003 104.369C97.2605 104.369 97.6753 104.455 98.0446 104.625C98.4139 104.795 98.7165 105.034 98.9523 105.341C99.1881 105.648 99.3344 106.006 99.3912 106.415H98.3855C98.3088 106.116 98.1384 105.852 97.8742 105.622C97.6128 105.389 97.2605 105.273 96.8173 105.273C96.4253 105.273 96.0815 105.375 95.7861 105.58C95.4935 105.781 95.2648 106.067 95.1 106.436C94.9381 106.803 94.8571 107.233 94.8571 107.727C94.8571 108.233 94.9367 108.673 95.0957 109.048C95.2577 109.423 95.485 109.714 95.7776 109.922C96.073 110.129 96.4196 110.233 96.8173 110.233C97.0787 110.233 97.3159 110.188 97.529 110.097C97.7421 110.006 97.9225 109.875 98.0702 109.705C98.2179 109.534 98.323 109.33 98.3855 109.091H99.3912C99.3344 109.477 99.1938 109.825 98.9693 110.135C98.7477 110.442 98.4537 110.686 98.0872 110.868C97.7236 111.047 97.3003 111.136 96.8173 111.136ZM100.861 111V104.455H101.867V111H100.861ZM101.373 103.364C101.177 103.364 101.008 103.297 100.866 103.163C100.726 103.03 100.657 102.869 100.657 102.682C100.657 102.494 100.726 102.334 100.866 102.2C101.008 102.067 101.177 102 101.373 102C101.569 102 101.736 102.067 101.876 102.2C102.018 102.334 102.089 102.494 102.089 102.682C102.089 102.869 102.018 103.03 101.876 103.163C101.736 103.297 101.569 103.364 101.373 103.364ZM106.368 111.136C105.777 111.136 105.259 110.996 104.813 110.714C104.37 110.433 104.023 110.04 103.773 109.534C103.526 109.028 103.402 108.437 103.402 107.761C103.402 107.08 103.526 106.484 103.773 105.976C104.023 105.467 104.37 105.072 104.813 104.791C105.259 104.51 105.777 104.369 106.368 104.369C106.959 104.369 107.476 104.51 107.919 104.791C108.365 105.072 108.712 105.467 108.959 105.976C109.209 106.484 109.334 107.08 109.334 107.761C109.334 108.437 109.209 109.028 108.959 109.534C108.712 110.04 108.365 110.433 107.919 110.714C107.476 110.996 106.959 111.136 106.368 111.136ZM106.368 110.233C106.817 110.233 107.186 110.118 107.476 109.888C107.766 109.658 107.98 109.355 108.12 108.98C108.259 108.605 108.328 108.199 108.328 107.761C108.328 107.324 108.259 106.916 108.12 106.538C107.98 106.161 107.766 105.855 107.476 105.622C107.186 105.389 106.817 105.273 106.368 105.273C105.919 105.273 105.55 105.389 105.26 105.622C104.97 105.855 104.756 106.161 104.617 106.538C104.477 106.916 104.408 107.324 104.408 107.761C104.408 108.199 104.477 108.605 104.617 108.98C104.756 109.355 104.97 109.658 105.26 109.888C105.55 110.118 105.919 110.233 106.368 110.233ZM105.908 103.568L106.948 101.591H108.124L106.794 103.568H105.908ZM111.875 107.062V111H110.869V104.455H111.841V105.477H111.926C112.079 105.145 112.312 104.878 112.625 104.676C112.937 104.472 113.341 104.369 113.835 104.369C114.278 104.369 114.666 104.46 114.998 104.642C115.331 104.821 115.589 105.094 115.774 105.46C115.959 105.824 116.051 106.284 116.051 106.841V111H115.045V106.909C115.045 106.395 114.912 105.994 114.645 105.707C114.378 105.418 114.011 105.273 113.545 105.273C113.224 105.273 112.937 105.342 112.685 105.482C112.435 105.621 112.237 105.824 112.092 106.091C111.947 106.358 111.875 106.682 111.875 107.062Z" fill="#717171"/>
<path d="M50.9995 53.4529C51.3503 52.3721 52.1279 51.7143 53.1231 51.2405C61.0342 47.4651 68.9305 43.6579 76.8563 39.9142C79.4828 38.6727 82.198 38.7002 84.816 39.9692C92.4968 43.6918 100.159 47.4566 107.822 51.2173C108.298 51.4521 108.775 51.7397 109.158 52.1014C110.347 53.2308 110.265 54.8447 108.98 55.8578C108.577 56.175 108.114 56.4267 107.651 56.6552C105.316 57.8164 102.979 58.9775 100.623 60.0985C100.182 60.31 100.07 60.5596 100.072 61.0165C100.089 65.2847 100.07 69.553 100.093 73.8212C100.097 74.5065 99.8839 75.0332 99.4422 75.5387C95.8374 79.6504 91.3663 82.3218 86.0204 83.3941C78.4643 84.9107 71.428 83.631 65.1714 78.9799C63.7515 77.9245 62.5344 76.5814 61.2877 75.3082C60.9919 75.0078 60.8208 74.4558 60.8165 74.0179C60.7827 69.9231 60.7489 65.8262 60.8271 61.7335C60.8482 60.6294 60.563 60.0161 59.5086 59.6649C58.7416 59.409 58.0337 58.9691 57.2202 58.5693C57.2202 59.1489 57.2202 59.6248 57.2202 60.1007C57.2202 62.6578 57.2223 65.2149 57.216 67.7721C57.216 68.0619 57.2603 68.2522 57.5583 68.4108C58.7035 69.0242 59.31 70.0056 59.2952 71.3127C59.2804 72.6114 58.6803 73.5844 57.535 74.2083C57.4695 74.2443 57.4083 74.2887 57.2984 74.3585C58.3021 77.5565 59.3036 80.7524 60.3179 83.9885C57.4632 83.9885 54.6825 83.9885 51.8405 83.9885C51.8954 83.7854 51.9356 83.6056 51.9905 83.4301C52.8864 80.5747 53.7802 77.7172 54.6888 74.864C54.8008 74.5129 54.8093 74.3204 54.431 74.0877C52.2504 72.751 52.3096 69.7137 54.5303 68.4426C54.824 68.2734 54.9255 68.1042 54.9234 67.7742C54.9128 64.4662 54.9107 61.1603 54.9255 57.8523C54.9276 57.5118 54.8219 57.3278 54.5113 57.2072C54.2071 57.0909 53.9239 56.9217 53.6281 56.7905C52.4828 56.2787 51.4623 55.6315 50.9995 54.3751C50.9995 54.0684 50.9995 53.7596 50.9995 53.4529ZM52.9984 53.9394C53.4252 54.227 53.6873 54.4449 53.9852 54.5951C54.6339 54.925 55.2931 55.2402 55.963 55.5257C56.1954 55.6251 56.4806 55.6801 56.73 55.6526C59.4198 55.3544 62.1055 55.035 64.7932 54.7199C68.548 54.2778 72.3007 53.8315 76.0555 53.3874C77.4459 53.2224 78.8383 53.0574 80.2287 52.8903C80.7041 52.8332 81.1119 52.9559 81.3803 53.3726C81.8156 54.0515 81.4141 54.8468 80.5309 54.9652C78.8764 55.1894 77.2155 55.365 75.559 55.5596C71.3477 56.0545 67.1344 56.5494 62.9232 57.0465C61.9723 57.1586 61.0236 57.2812 60.0749 57.3997C60.246 57.59 60.4151 57.6746 60.5862 57.7571C66.2385 60.4729 71.8866 63.1971 77.5494 65.896C79.6835 66.9134 81.8473 66.907 83.9877 65.8791C85.6633 65.0732 87.3368 64.2589 89.0082 63.4446C92.5158 61.7314 96.0234 60.0182 99.5289 58.3007C102.043 57.0676 104.558 55.8345 107.06 54.5803C107.349 54.4343 107.565 54.1424 107.814 53.9182C107.563 53.7004 107.317 53.4741 107.057 53.2668C106.954 53.1864 106.819 53.1484 106.696 53.0891C99.1844 49.4152 91.6727 45.7434 84.1631 42.0611C81.9064 40.9549 79.6624 40.9612 77.4078 42.0505C76.1295 42.6681 74.849 43.2793 73.5706 43.8948C67.1069 47.004 60.6411 50.1111 54.1796 53.2266C53.814 53.4001 53.4823 53.6433 52.9984 53.9394ZM97.9103 61.3401C97.587 61.4966 97.3673 61.6024 97.1475 61.7102C93.0483 63.7196 88.9533 65.7331 84.8519 67.7361C82.1219 69.0686 79.3666 69.0517 76.6387 67.7679C72.3197 65.7331 68.0219 63.6519 63.7135 61.5918C63.5148 61.4966 63.3078 61.4141 63.0627 61.3063C63.0457 61.4607 63.0288 61.5516 63.0288 61.6426C63.0267 65.6591 63.0225 69.6778 63.0394 73.6943C63.0394 73.9164 63.1514 74.1977 63.3078 74.3479C64.3748 75.3674 65.387 76.4736 66.5702 77.3386C72.5881 81.7401 79.28 82.859 86.4599 81.1268C90.8465 80.0671 94.557 77.7892 97.5743 74.4198C97.7666 74.2041 97.8934 73.8509 97.8976 73.559C97.9251 71.3677 97.9124 69.1765 97.9124 66.9853C97.9103 65.143 97.9103 63.2987 97.9103 61.3401Z" fill="#279D98"/>
<defs>
<filter id="filter0_d_3_96" x="0.28125" y="0" width="154.718" height="159.908" filterUnits="userSpaceOnUse" color-interpolation-filters="sRGB">
<feFlood flood-opacity="0" result="BackgroundImageFix"/>
<feColorMatrix in="SourceAlpha" type="matrix" values="0 0 0 0 0 0 0 0 0 0 0 0 0 0 0 0 0 0 127 0" result="hardAlpha"/>
<feOffset dx="2" dy="2"/>
<feGaussianBlur stdDeviation="5"/>
<feComposite in2="hardAlpha" operator="out"/>
<feColorMatrix type="matrix" values="0 0 0 0 0 0 0 0 0 0 0 0 0 0 0 0 0 0 0.1 0"/>
<feBlend mode="normal" in2="BackgroundImageFix" result="effect1_dropShadow_3_96"/>
<feBlend mode="normal" in="SourceGraphic" in2="effect1_dropShadow_3_96" result="shape"/>
</filter>
</defs>
</svg>
