<svg width="160" height="181" fill="none" xmlns="http://www.w3.org/2000/svg"><g filter="url(#a)"><path d="m145.27 87.235-25.055-43.29a19.883 19.883 0 0 0-17.228-9.923l-50.066.024a19.89 19.89 0 0 0-17.219 9.94L10.69 87.3a19.844 19.844 0 0 0 .01 19.862l25.054 43.291a19.89 19.89 0 0 0 17.228 9.923l19.44-.009 5.598 8.385 5.589-8.391 19.44-.009a19.885 19.885 0 0 0 17.219-9.94l25.012-43.314a19.846 19.846 0 0 0-.009-19.863Z" fill="#fff"/></g><path d="M44.426 12h-1.233a2.563 2.563 0 0 0-1.039-1.61 2.786 2.786 0 0 0-.85-.418 3.396 3.396 0 0 0-.974-.14c-.617 0-1.175.156-1.676.468-.497.311-.893.77-1.188 1.377-.292.606-.438 1.35-.438 2.232 0 .882.146 1.626.438 2.232.295.607.691 1.066 1.188 1.378.5.311 1.06.467 1.675.467.339 0 .663-.047.975-.14.311-.092.595-.23.85-.412a2.61 2.61 0 0 0 1.04-1.616h1.232c-.093.52-.262.986-.507 1.397-.245.411-.55.76-.915 1.05a4.008 4.008 0 0 1-1.228.65c-.45.15-.933.224-1.447.224-.868 0-1.64-.212-2.316-.636-.676-.424-1.208-1.028-1.596-1.81-.388-.782-.582-1.71-.582-2.784 0-1.074.194-2.002.582-2.784.388-.782.92-1.385 1.596-1.81.676-.424 1.448-.636 2.317-.636.513 0 .995.075 1.446.224.454.149.864.368 1.228.656.365.285.67.633.915 1.044.245.408.414.873.507 1.397Zm4.08 7.179c-.483 0-.922-.091-1.317-.273a2.26 2.26 0 0 1-.94-.8c-.232-.352-.348-.777-.348-1.274 0-.437.087-.792.259-1.064.172-.275.403-.49.691-.646.288-.156.607-.272.955-.348.35-.08.704-.142 1.059-.189.463-.06.84-.104 1.128-.134.292-.033.504-.088.636-.164.136-.076.204-.209.204-.398v-.04c0-.49-.134-.871-.402-1.143-.266-.272-.668-.408-1.209-.408-.56 0-.999.123-1.317.368-.318.245-.542.507-.671.786l-1.114-.398c.2-.464.464-.825.796-1.084.334-.262.699-.444 1.093-.547a4.54 4.54 0 0 1 1.174-.159c.245 0 .527.03.845.09.321.056.631.174.93.353.301.179.551.449.75.81.2.361.299.845.299 1.452V19h-1.174v-1.034h-.06c-.079.166-.212.343-.397.532-.186.189-.433.35-.74.482-.31.133-.685.199-1.13.199Zm.18-1.054c.464 0 .855-.091 1.173-.273a1.862 1.862 0 0 0 .974-1.616v-1.074c-.05.06-.159.114-.328.164a5.542 5.542 0 0 1-.577.124 26.408 26.408 0 0 1-1.123.15c-.305.04-.59.104-.855.193a1.474 1.474 0 0 0-.637.393c-.159.172-.238.408-.238.706 0 .408.15.716.452.925.305.205.691.308 1.158.308Zm5.462 3.739v-10.5h1.134v1.213h.139c.086-.133.205-.302.358-.507.155-.21.378-.395.666-.557.292-.166.686-.249 1.183-.249.643 0 1.21.161 1.7.482.491.322.874.778 1.149 1.368.275.59.413 1.286.413 2.088 0 .808-.138 1.51-.413 2.103-.275.59-.656 1.047-1.143 1.372-.488.321-1.05.482-1.686.482-.49 0-.883-.081-1.178-.243a2.184 2.184 0 0 1-.681-.562 7.527 7.527 0 0 1-.368-.527h-.1v4.037h-1.173Zm1.153-6.682c0 .576.085 1.085.254 1.526.17.438.416.78.74 1.03.326.245.723.367 1.194.367.49 0 .9-.13 1.228-.388a2.37 2.37 0 0 0 .746-1.054c.169-.444.253-.938.253-1.481 0-.537-.083-1.021-.248-1.452a2.243 2.243 0 0 0-.741-1.029c-.328-.255-.74-.383-1.238-.383-.477 0-.878.121-1.203.363-.325.239-.57.574-.736 1.004-.166.428-.248.927-.248 1.497Zm9.626 3.997c-.484 0-.924-.091-1.318-.273a2.26 2.26 0 0 1-.94-.8c-.232-.352-.348-.777-.348-1.274 0-.437.087-.792.259-1.064.172-.275.403-.49.691-.646.288-.156.606-.272.954-.348.352-.08.705-.142 1.06-.189.464-.06.84-.104 1.128-.134.292-.033.504-.088.636-.164.136-.076.204-.209.204-.398v-.04c0-.49-.134-.871-.403-1.143-.265-.272-.667-.408-1.208-.408-.56 0-.999.123-1.317.368-.318.245-.542.507-.671.786l-1.114-.398c.199-.464.464-.825.796-1.084.334-.262.699-.444 1.093-.547a4.54 4.54 0 0 1 1.174-.159c.245 0 .527.03.845.09.321.056.631.174.93.353.301.179.551.449.75.81.2.361.299.845.299 1.452V19h-1.174v-1.034h-.06c-.079.166-.212.343-.397.532-.186.189-.433.35-.741.482-.308.133-.684.199-1.129.199Zm.178-1.054c.465 0 .856-.091 1.174-.273a1.862 1.862 0 0 0 .974-1.616v-1.074c-.05.06-.159.114-.328.164a5.547 5.547 0 0 1-.577.124 26.415 26.415 0 0 1-1.123.15c-.305.04-.59.104-.855.193a1.474 1.474 0 0 0-.637.393c-.159.172-.238.408-.238.706 0 .408.15.716.452.925.305.205.691.308 1.159.308Zm8.565 1.034c-.716 0-1.332-.169-1.85-.507a3.305 3.305 0 0 1-1.192-1.397c-.279-.593-.418-1.271-.418-2.033 0-.776.143-1.46.428-2.054a3.38 3.38 0 0 1 1.203-1.397c.517-.338 1.12-.507 1.81-.507.536 0 1.02.1 1.451.299.431.198.784.477 1.059.835.275.358.446.775.512 1.253H75.5c-.09-.348-.288-.657-.597-.925-.305-.272-.716-.408-1.233-.408-.457 0-.858.12-1.203.358-.341.236-.608.569-.8 1-.19.427-.284.93-.284 1.506 0 .59.093 1.103.279 1.541.189.438.454.777.795 1.02.345.241.75.362 1.213.362.305 0 .582-.053.83-.159.25-.106.46-.259.632-.457.172-.2.295-.438.368-.716h1.173c-.066.45-.23.857-.492 1.218a2.75 2.75 0 0 1-1.03.855c-.423.209-.917.313-1.48.313ZM78.388 19v-7.636h1.174V19h-1.174Zm.597-8.91a.834.834 0 0 1-.592-.233.75.75 0 0 1-.243-.562.75.75 0 0 1 .243-.561.834.834 0 0 1 .592-.234c.229 0 .424.078.587.234a.744.744 0 0 1 .248.561.744.744 0 0 1-.248.562.817.817 0 0 1-.587.234Zm6.047 1.274v.994h-3.958v-.994h3.958Zm-2.804-1.83H83.4v7.278c0 .332.048.58.144.746.1.163.225.272.378.328.156.053.32.08.492.08.13 0 .235-.007.318-.02l.2-.04.238 1.054c-.08.03-.19.06-.333.09-.143.033-.323.05-.542.05-.332 0-.656-.072-.975-.214a1.937 1.937 0 0 1-.785-.652c-.206-.291-.308-.66-.308-1.103V9.534Zm6.816 9.645c-.484 0-.923-.091-1.318-.273a2.26 2.26 0 0 1-.94-.8c-.231-.352-.347-.777-.347-1.274 0-.437.086-.792.258-1.064.172-.275.403-.49.691-.646.288-.156.607-.272.955-.348.351-.08.704-.142 1.059-.189.464-.06.84-.104 1.128-.134.292-.033.504-.088.636-.164.136-.076.204-.209.204-.398v-.04c0-.49-.134-.871-.402-1.143-.266-.272-.668-.408-1.208-.408-.56 0-1 .123-1.318.368-.318.245-.542.507-.671.786l-1.114-.398c.2-.464.464-.825.796-1.084.334-.262.7-.444 1.093-.547a4.54 4.54 0 0 1 1.174-.159c.245 0 .527.03.845.09.322.056.631.174.93.353.301.179.551.449.75.81.2.361.299.845.299 1.452V19H91.37v-1.034h-.06c-.079.166-.211.343-.397.532-.186.189-.432.35-.74.482-.309.133-.685.199-1.13.199Zm.179-1.054c.464 0 .855-.091 1.173-.273a1.862 1.862 0 0 0 .974-1.616v-1.074c-.05.06-.159.114-.328.164a5.553 5.553 0 0 1-.576.124 26.415 26.415 0 0 1-1.124.15c-.305.04-.59.104-.855.193a1.474 1.474 0 0 0-.636.393c-.16.172-.24.408-.24.706 0 .408.152.716.453.925.305.205.691.308 1.159.308Zm8.564 1.034c-.715 0-1.332-.169-1.849-.507a3.305 3.305 0 0 1-1.193-1.397c-.279-.593-.418-1.271-.418-2.033 0-.776.143-1.46.428-2.054a3.38 3.38 0 0 1 1.203-1.397c.517-.338 1.12-.507 1.81-.507.537 0 1.02.1 1.451.299.431.198.784.477 1.059.835.275.358.446.775.512 1.253h-1.173c-.09-.348-.288-.657-.597-.925-.304-.272-.715-.408-1.233-.408-.457 0-.858.12-1.203.358-.341.236-.608.569-.8 1-.189.427-.284.93-.284 1.506 0 .59.093 1.103.279 1.541.189.438.454.777.795 1.02.345.241.75.362 1.213.362.305 0 .582-.053.83-.159.25-.106.46-.259.632-.457.172-.2.295-.438.368-.716h1.173a2.713 2.713 0 0 1-1.521 2.073c-.424.209-.918.313-1.482.313Zm4.719-.159v-7.636h1.173V19h-1.173Zm.596-8.91a.835.835 0 0 1-.592-.233.752.752 0 0 1-.243-.562c0-.218.081-.406.243-.561a.835.835 0 0 1 .592-.234c.229 0 .424.078.587.234a.746.746 0 0 1 .248.561.746.746 0 0 1-.248.562.818.818 0 0 1-.587.234Zm5.828 9.07c-.689 0-1.294-.165-1.815-.493a3.346 3.346 0 0 1-1.213-1.377c-.288-.59-.432-1.28-.432-2.068 0-.796.144-1.49.432-2.083a3.34 3.34 0 0 1 1.213-1.383c.521-.328 1.126-.492 1.815-.492.689 0 1.293.164 1.81.492.52.329.924.79 1.213 1.383.291.593.437 1.287.437 2.083 0 .788-.146 1.478-.437 2.068a3.305 3.305 0 0 1-1.213 1.377c-.517.328-1.121.492-1.81.492Zm0-1.055c.524 0 .955-.134 1.293-.403a2.37 2.37 0 0 0 .75-1.059c.163-.437.244-.911.244-1.421s-.081-.986-.244-1.427a2.4 2.4 0 0 0-.75-1.07c-.338-.27-.769-.407-1.293-.407-.524 0-.955.136-1.293.408a2.4 2.4 0 0 0-.75 1.069c-.163.44-.244.916-.244 1.427 0 .51.081.984.244 1.421.162.438.412.79.75 1.06.338.268.769.402 1.293.402Zm-.537-7.776 1.213-2.306h1.372l-1.551 2.306h-1.034Zm6.962 4.077V19h-1.174v-7.636h1.134v1.193h.099c.179-.388.451-.7.816-.935.364-.239.835-.358 1.412-.358.517 0 .969.106 1.357.318.388.21.689.527.905.955.215.424.323.961.323 1.61V19h-1.174v-4.773c0-.6-.155-1.067-.467-1.402-.311-.338-.739-.507-1.283-.507-.374 0-.709.081-1.004.244-.291.162-.522.4-.691.71-.169.312-.253.69-.253 1.134Z" fill="#717171"/><path d="M49 84.453c.35-1.08 1.128-1.739 2.124-2.213 7.91-3.775 15.807-7.582 23.733-11.326 2.626-1.241 5.341-1.214 7.96.055 7.68 3.723 15.342 7.488 23.006 11.248.475.235.953.523 1.335.884 1.19 1.13 1.108 2.744-.177 3.757-.404.317-.867.569-1.329.797a449.882 449.882 0 0 1-7.028 3.444c-.442.211-.554.46-.552.917.017 4.269-.002 8.537.022 12.805.004.686-.21 1.212-.651 1.718-3.605 4.111-8.076 6.783-13.422 7.855-7.556 1.517-14.593.237-20.85-4.414-1.419-1.055-2.636-2.399-3.883-3.672-.296-.3-.467-.852-.471-1.29-.034-4.095-.068-8.192.01-12.284.022-1.105-.264-1.718-1.318-2.07-.767-.255-1.475-.695-2.288-1.095v1.532c0 2.557.002 5.114-.004 7.671 0 .29.044.48.342.639 1.145.613 1.751 1.595 1.737 2.902-.015 1.298-.615 2.271-1.76 2.895-.066.036-.127.081-.237.15 1.004 3.198 2.005 6.394 3.02 9.63H49.84c.055-.203.095-.382.15-.558.896-2.855 1.79-5.713 2.698-8.566.112-.351.12-.544-.258-.776-2.18-1.337-2.12-4.374.1-5.645.294-.17.395-.339.393-.669-.01-3.308-.013-6.614.002-9.922.002-.34-.104-.524-.414-.645-.304-.116-.588-.285-.883-.416-1.146-.512-2.166-1.16-2.629-2.416v-.922Zm1.999.486c.427.288.689.506.987.656.648.33 1.308.645 1.977.93.233.1.518.155.767.128 2.69-.299 5.376-.618 8.064-.933 3.755-.442 7.507-.888 11.262-1.333 1.39-.165 2.783-.33 4.173-.497.476-.057.883.066 1.152.483.435.678.034 1.474-.85 1.592-1.654.224-3.315.4-4.972.595l-12.635 1.486c-.951.113-1.9.235-2.849.354.171.19.34.275.512.357 5.652 2.716 11.3 5.44 16.963 8.139 2.134 1.017 4.298 1.011 6.438-.017 1.676-.806 3.35-1.62 5.02-2.434 3.508-1.714 7.016-3.427 10.521-5.144a959.955 959.955 0 0 0 7.531-3.72c.29-.147.505-.439.754-.663-.251-.218-.496-.444-.756-.651-.104-.08-.239-.119-.361-.178-7.512-3.674-15.024-7.346-22.533-11.028-2.257-1.106-4.501-1.1-6.756-.01-1.278.617-2.558 1.228-3.837 1.844-6.464 3.109-12.93 6.216-19.39 9.332-.366.173-.698.416-1.182.712ZM95.91 92.34c-.323.157-.543.262-.763.37-4.1 2.01-8.194 4.023-12.296 6.026-2.73 1.333-5.485 1.316-8.213.032-4.319-2.035-8.617-4.116-12.925-6.176-.199-.095-.406-.178-.65-.286-.018.155-.035.246-.035.337-.002 4.016-.006 8.035.01 12.051 0 .222.113.504.27.654 1.066 1.019 2.078 2.126 3.262 2.991 6.018 4.401 12.71 5.52 19.89 3.788 4.386-1.06 8.097-3.338 11.114-6.707.192-.216.319-.569.323-.861.028-2.191.015-4.382.015-6.574-.002-1.842-.002-3.686-.002-5.645Z" fill="#279D98"/><defs><filter id="a" x=".03" y="26.022" width="159.908" height="154.73" filterUnits="userSpaceOnUse" color-interpolation-filters="sRGB"><feFlood flood-opacity="0" result="BackgroundImageFix"/><feColorMatrix in="SourceAlpha" values="0 0 0 0 0 0 0 0 0 0 0 0 0 0 0 0 0 0 127 0" result="hardAlpha"/><feOffset dx="2" dy="2"/><feGaussianBlur stdDeviation="5"/><feComposite in2="hardAlpha" operator="out"/><feColorMatrix values="0 0 0 0 0 0 0 0 0 0 0 0 0 0 0 0 0 0 0.1 0"/><feBlend in2="BackgroundImageFix" result="effect1_dropShadow_23_43"/><feBlend in="SourceGraphic" in2="effect1_dropShadow_23_43" result="shape"/></filter></defs></svg>