<svg width="155" height="160" fill="none" xmlns="http://www.w3.org/2000/svg"><g filter="url(#a)"><path d="m89.766 145.244 43.302-25.033A19.884 19.884 0 0 0 143 102.988V52.92a19.889 19.889 0 0 0-9.932-17.223L89.765 10.664a19.845 19.845 0 0 0-19.862 0L26.6 35.697a19.89 19.89 0 0 0-9.93 17.223v19.44L8.28 77.955l8.388 5.593v19.441a19.885 19.885 0 0 0 9.931 17.223l43.303 25.033a19.843 19.843 0 0 0 19.862 0Z" fill="#fff"/></g><path d="M51.08 105h-1.058a2.194 2.194 0 0 0-.89-1.381 2.399 2.399 0 0 0-.73-.358 2.929 2.929 0 0 0-.834-.119c-.529 0-1.007.134-1.436.401-.426.267-.766.66-1.019 1.18-.25.52-.375 1.158-.375 1.913 0 .756.125 1.394.375 1.914.253.52.593.913 1.019 1.18.429.267.907.401 1.436.401.29 0 .568-.04.835-.12.267-.079.51-.197.729-.353a2.246 2.246 0 0 0 .89-1.385h1.057c-.08.446-.224.845-.435 1.197a3.274 3.274 0 0 1-1.836 1.458c-.387.127-.8.191-1.24.191-.745 0-1.407-.181-1.986-.545-.58-.364-1.036-.881-1.368-1.551-.332-.671-.499-1.466-.499-2.387 0-.92.167-1.716.499-2.386.332-.67.788-1.188 1.368-1.551.58-.364 1.241-.546 1.986-.546.44 0 .853.064 1.24.192.389.128.74.316 1.052.563a3.2 3.2 0 0 1 .784.895c.21.349.355.748.435 1.197Zm3.497 6.153c-.415 0-.792-.078-1.13-.234a1.94 1.94 0 0 1-.805-.686c-.199-.301-.298-.665-.298-1.091 0-.375.073-.679.221-.912.148-.236.345-.42.593-.554a3.12 3.12 0 0 1 .818-.298c.3-.068.603-.122.907-.162.398-.051.72-.09.968-.115.25-.029.431-.075.545-.141.117-.065.175-.179.175-.341v-.034c0-.42-.115-.747-.345-.98-.228-.233-.573-.349-1.036-.349-.48 0-.856.105-1.13.315-.272.21-.464.435-.574.673l-.955-.341c.17-.397.398-.707.682-.929.287-.224.6-.38.937-.468a3.89 3.89 0 0 1 1.006-.137 4 4 0 0 1 .724.077c.276.048.542.149.797.303.259.153.473.385.644.694.17.31.256.725.256 1.245V111H56.57v-.886h-.051a1.773 1.773 0 0 1-.341.456 1.97 1.97 0 0 1-.635.413c-.264.114-.587.17-.967.17Zm.153-.903c.398 0 .733-.078 1.006-.234a1.602 1.602 0 0 0 .835-1.385v-.921c-.043.051-.136.098-.281.141a4.63 4.63 0 0 1-.495.106 20.937 20.937 0 0 1-.963.128 3.89 3.89 0 0 0-.733.166 1.262 1.262 0 0 0-.545.337c-.137.148-.205.349-.205.605 0 .35.13.614.388.793.261.176.592.264.993.264Zm4.682 3.205v-9h.972v1.039h.12c.073-.113.175-.258.306-.434.133-.179.324-.338.57-.478.25-.142.589-.213 1.015-.213.551 0 1.037.138 1.457.414.42.275.75.666.985 1.172.236.505.354 1.102.354 1.789 0 .694-.118 1.294-.354 1.803-.236.506-.563.898-.98 1.176-.418.276-.9.413-1.445.413-.42 0-.757-.069-1.01-.208a1.873 1.873 0 0 1-.584-.482 6.293 6.293 0 0 1-.315-.452h-.085v3.461h-1.006Zm.989-5.728c0 .495.072.931.217 1.309.145.375.357.669.635.882.279.21.62.315 1.023.315.42 0 .771-.111 1.052-.332.284-.225.497-.526.64-.904.144-.381.217-.804.217-1.27 0-.46-.071-.875-.213-1.244a1.924 1.924 0 0 0-.635-.882c-.281-.219-.635-.328-1.061-.328-.41 0-.753.103-1.032.311a1.86 1.86 0 0 0-.63.861c-.142.366-.213.794-.213 1.282Zm8.25 3.426c-.415 0-.791-.078-1.13-.234a1.94 1.94 0 0 1-.805-.686c-.199-.301-.298-.665-.298-1.091 0-.375.074-.679.221-.912.148-.236.346-.42.593-.554.247-.133.52-.233.818-.298.301-.068.604-.122.908-.162.397-.051.72-.09.967-.115.25-.029.432-.075.545-.141.117-.065.175-.179.175-.341v-.034c0-.42-.115-.747-.345-.98-.227-.233-.572-.349-1.036-.349-.48 0-.856.105-1.129.315-.273.21-.464.435-.575.673l-.955-.341c.17-.397.398-.707.682-.929.287-.224.6-.38.938-.468a3.89 3.89 0 0 1 1.005-.137 4 4 0 0 1 .725.077c.275.048.541.149.797.303.258.153.473.385.643.694.17.31.256.725.256 1.245V111h-1.006v-.886h-.051a1.773 1.773 0 0 1-.34.456c-.16.162-.372.299-.636.413-.264.114-.587.17-.967.17Zm.153-.903c.398 0 .733-.078 1.006-.234a1.602 1.602 0 0 0 .835-1.385v-.921c-.042.051-.136.098-.281.141-.142.04-.307.075-.495.106a20.937 20.937 0 0 1-.963.128 3.89 3.89 0 0 0-.733.166 1.261 1.261 0 0 0-.545.337c-.136.148-.204.349-.204.605 0 .35.129.614.387.793.262.176.593.264.993.264Zm7.341.886c-.613 0-1.142-.145-1.585-.434a2.833 2.833 0 0 1-1.023-1.198c-.238-.508-.357-1.089-.357-1.743 0-.664.122-1.251.366-1.76.247-.511.59-.91 1.031-1.197.444-.29.96-.435 1.551-.435.46 0 .875.086 1.245.256.37.17.672.409.907.716.236.307.382.665.44 1.074h-1.006a1.557 1.557 0 0 0-.512-.793c-.261-.233-.613-.349-1.056-.349-.393 0-.736.102-1.032.307a1.995 1.995 0 0 0-.686.856c-.162.367-.243.797-.243 1.291 0 .506.08.946.239 1.321.162.375.39.666.682.874.295.207.642.311 1.04.311.26 0 .498-.045.711-.136.213-.091.394-.222.541-.392.148-.171.253-.375.316-.614h1.005a2.333 2.333 0 0 1-.421 1.044 2.358 2.358 0 0 1-.883.733c-.363.179-.787.268-1.27.268ZM80.19 111v-6.545h1.006V111H80.19Zm.512-7.636a.713.713 0 0 1-.507-.201.642.642 0 0 1-.209-.481c0-.188.07-.348.209-.482a.717.717 0 0 1 .507-.2c.196 0 .364.067.503.2a.639.639 0 0 1 .213.482.637.637 0 0 1-.213.481.699.699 0 0 1-.503.201Zm5.183 1.091v.852h-3.392v-.852h3.392Zm-2.404-1.569h1.006v6.239c0 .284.041.497.124.639a.64.64 0 0 0 .323.281c.134.046.275.069.422.069.111 0 .202-.006.273-.017l.17-.035.205.904a2.193 2.193 0 0 1-.75.119c-.284 0-.562-.061-.835-.183a1.657 1.657 0 0 1-.674-.558c-.176-.25-.264-.566-.264-.946v-6.512Zm5.843 8.267c-.415 0-.791-.078-1.13-.234a1.94 1.94 0 0 1-.805-.686c-.199-.301-.298-.665-.298-1.091 0-.375.074-.679.221-.912.148-.236.345-.42.593-.554a3.12 3.12 0 0 1 .818-.298 10.1 10.1 0 0 1 .907-.162c.398-.051.72-.09.968-.115.25-.029.432-.075.545-.141.117-.065.175-.179.175-.341v-.034c0-.42-.115-.747-.345-.98-.227-.233-.573-.349-1.036-.349-.48 0-.856.105-1.129.315-.273.21-.464.435-.575.673l-.955-.341c.17-.397.398-.707.682-.929.287-.224.6-.38.938-.468a3.89 3.89 0 0 1 1.005-.137 4 4 0 0 1 .725.077c.275.048.54.149.797.303.258.153.472.385.643.694.17.31.256.725.256 1.245V111h-1.006v-.886h-.051a1.77 1.77 0 0 1-.341.456c-.16.162-.37.299-.635.413-.264.114-.587.17-.967.17Zm.153-.903c.398 0 .733-.078 1.006-.234a1.602 1.602 0 0 0 .835-1.385v-.921c-.043.051-.136.098-.281.141a4.63 4.63 0 0 1-.495.106 20.937 20.937 0 0 1-.963.128 3.89 3.89 0 0 0-.733.166 1.262 1.262 0 0 0-.545.337c-.136.148-.205.349-.205.605 0 .35.13.614.388.793.261.176.593.264.993.264Zm7.341.886c-.613 0-1.142-.145-1.585-.434a2.832 2.832 0 0 1-1.023-1.198c-.238-.508-.358-1.089-.358-1.743 0-.664.123-1.251.367-1.76.247-.511.59-.91 1.031-1.197.443-.29.96-.435 1.551-.435.46 0 .875.086 1.245.256.369.17.671.409.907.716s.382.665.44 1.074h-1.007a1.557 1.557 0 0 0-.51-.793c-.262-.233-.615-.349-1.058-.349-.392 0-.735.102-1.03.307a1.995 1.995 0 0 0-.687.856c-.162.367-.243.797-.243 1.291 0 .506.08.946.239 1.321.162.375.389.666.682.874.295.207.642.311 1.04.311.26 0 .498-.045.711-.136.213-.091.394-.222.541-.392.148-.171.253-.375.316-.614h1.005a2.332 2.332 0 0 1-.422 1.044 2.357 2.357 0 0 1-.882.733c-.363.179-.787.268-1.27.268Zm4.044-.136v-6.545h1.006V111h-1.006Zm.512-7.636a.713.713 0 0 1-.507-.201.64.64 0 0 1-.209-.481c0-.188.069-.348.209-.482a.717.717 0 0 1 .507-.2c.196 0 .363.067.503.2a.639.639 0 0 1 .213.482.636.636 0 0 1-.213.481.7.7 0 0 1-.503.201Zm4.995 7.772c-.591 0-1.109-.14-1.555-.422a2.863 2.863 0 0 1-1.04-1.18c-.247-.506-.371-1.097-.371-1.773 0-.681.124-1.277.371-1.785.25-.509.597-.904 1.04-1.185.446-.281.964-.422 1.555-.422s1.108.141 1.551.422c.446.281.793.676 1.04 1.185.25.508.375 1.104.375 1.785 0 .676-.125 1.267-.375 1.773a2.822 2.822 0 0 1-1.04 1.18c-.443.282-.96.422-1.551.422Zm0-.903c.449 0 .818-.115 1.108-.345.29-.23.504-.533.644-.908.139-.375.208-.781.208-1.219 0-.437-.069-.845-.208-1.223a2.071 2.071 0 0 0-.644-.916c-.29-.233-.659-.349-1.108-.349-.449 0-.818.116-1.108.349-.29.233-.504.539-.643.916-.14.378-.209.786-.209 1.223 0 .438.069.844.209 1.219.139.375.353.678.643.908.29.23.659.345 1.108.345Zm-.46-6.665 1.04-1.977h1.176l-1.33 1.977h-.886Zm5.967 3.494V111h-1.006v-6.545h.972v1.022h.085c.153-.332.386-.599.699-.801.312-.204.716-.307 1.21-.307.443 0 .831.091 1.163.273.333.179.591.452.776.818.185.364.277.824.277 1.381V111h-1.006v-4.091c0-.514-.133-.915-.4-1.202-.267-.289-.634-.434-1.1-.434-.321 0-.608.069-.86.209-.25.139-.448.342-.593.609-.145.267-.217.591-.217.971Z" fill="#717171"/><path d="M51 53.453c.35-1.08 1.128-1.739 2.123-2.213 7.911-3.775 15.807-7.582 23.733-11.326 2.627-1.241 5.342-1.214 7.96.055 7.68 3.723 15.343 7.488 23.006 11.248.476.235.953.523 1.336.884 1.189 1.13 1.107 2.744-.178 3.757-.403.317-.866.569-1.329.797a450.309 450.309 0 0 1-7.028 3.444c-.441.211-.553.46-.551.918.017 4.268-.002 8.536.021 12.804.004.686-.21 1.212-.65 1.718-3.606 4.111-8.077 6.783-13.423 7.855-7.556 1.517-14.592.237-20.849-4.414-1.42-1.056-2.637-2.399-3.883-3.672-.296-.3-.467-.852-.471-1.29-.034-4.095-.068-8.192.01-12.285.021-1.104-.264-1.717-1.318-2.068-.767-.256-1.475-.696-2.289-1.096v1.532c0 2.557.002 5.114-.004 7.671 0 .29.044.48.342.639 1.145.613 1.752 1.595 1.737 2.902-.015 1.298-.615 2.271-1.76 2.895-.066.036-.127.08-.237.15 1.004 3.198 2.006 6.394 3.02 9.63H51.84c.054-.203.095-.382.15-.558.895-2.855 1.79-5.713 2.698-8.566.112-.351.12-.544-.258-.776-2.18-1.337-2.121-4.374.1-5.645.293-.17.395-.339.392-.669-.01-3.308-.012-6.614.002-9.922.003-.34-.103-.524-.414-.645-.304-.116-.587-.285-.883-.416-1.145-.512-2.166-1.16-2.629-2.416v-.922Zm1.998.486c.427.288.69.506.987.656.649.33 1.308.645 1.978.93.232.1.518.155.767.128 2.69-.299 5.376-.618 8.063-.933 3.755-.442 7.508-.889 11.262-1.333 1.39-.165 2.783-.33 4.174-.497.475-.057.883.066 1.151.483.436.678.034 1.474-.85 1.592-1.654.224-3.314.4-4.971.595-4.211.494-8.425.99-12.636 1.486-.95.113-1.9.235-2.848.354.171.19.34.275.511.357 5.653 2.716 11.3 5.44 16.963 8.139 2.134 1.017 4.298 1.011 6.439-.017 1.675-.806 3.349-1.62 5.02-2.434 3.508-1.714 7.015-3.427 10.52-5.144 2.515-1.233 5.03-2.467 7.532-3.72.289-.147.505-.439.754-.663-.251-.218-.497-.444-.757-.651-.103-.08-.238-.119-.361-.178-7.512-3.674-15.023-7.346-22.533-11.028-2.257-1.106-4.5-1.1-6.755-.01-1.279.617-2.559 1.228-3.837 1.844-6.464 3.109-12.93 6.216-19.391 9.332-.366.173-.698.416-1.182.712ZM97.91 61.34c-.323.157-.543.262-.763.37-4.099 2.01-8.194 4.023-12.295 6.026-2.73 1.333-5.485 1.316-8.213.032-4.32-2.035-8.617-4.116-12.925-6.176-.2-.095-.406-.178-.651-.286-.017.155-.034.246-.034.337-.002 4.016-.007 8.035.01 12.051a1 1 0 0 0 .269.654c1.067 1.02 2.079 2.126 3.262 2.99 6.018 4.402 12.71 5.521 19.89 3.789 4.387-1.06 8.097-3.338 11.114-6.707.193-.216.32-.57.324-.861.027-2.191.014-4.382.014-6.574-.002-1.842-.002-3.686-.002-5.645Z" fill="#279D98"/><defs><filter id="a" x=".281" y="0" width="154.718" height="159.908" filterUnits="userSpaceOnUse" color-interpolation-filters="sRGB"><feFlood flood-opacity="0" result="BackgroundImageFix"/><feColorMatrix in="SourceAlpha" values="0 0 0 0 0 0 0 0 0 0 0 0 0 0 0 0 0 0 127 0" result="hardAlpha"/><feOffset dx="2" dy="2"/><feGaussianBlur stdDeviation="5"/><feComposite in2="hardAlpha" operator="out"/><feColorMatrix values="0 0 0 0 0 0 0 0 0 0 0 0 0 0 0 0 0 0 0.1 0"/><feBlend in2="BackgroundImageFix" result="effect1_dropShadow_3_96"/><feBlend in="SourceGraphic" in2="effect1_dropShadow_3_96" result="shape"/></filter></defs></svg>