<svg width="155" height="160" viewBox="0 0 155 160" fill="none" xmlns="http://www.w3.org/2000/svg">
<g filter="url(#filter0_d_3_94)">
<path d="M89.7655 145.24L133.068 120.206C139.216 116.655 143 110.091 143 102.983L143 52.9205C143 45.817 139.216 39.2491 133.068 35.6973L89.7655 10.6638C83.6183 7.11207 76.0504 7.11207 69.9031 10.6638L26.6003 35.6973C20.4531 39.2491 16.6691 45.817 16.6691 52.9205L16.6691 72.3608L8.28128 77.954L16.6691 83.5472L16.6691 102.988C16.6691 110.091 20.453 116.659 26.6003 120.211L69.9031 145.244C76.0504 148.792 83.6182 148.792 89.7655 145.24Z" fill="white"/>
</g>
<path d="M77.4434 85.9987C77.1289 85.9701 76.8132 85.9362 76.4987 85.9154C74.8321 85.8047 73.1503 85.8073 71.5028 85.5625C68.9539 85.1849 66.8532 82.8648 66.3617 80.124C66.1606 79.0004 66.2089 77.8911 66.4827 76.787C66.745 75.7323 66.983 74.6699 67.2695 73.6218C67.3663 73.2676 67.2835 73.0541 67.0403 72.8132C66.2064 71.9865 65.3903 71.1415 64.5716 70.2991C63.5951 69.2939 63.4793 68.139 64.3005 67.0076C64.685 66.479 64.6926 66.0285 64.415 65.4413C63.9605 64.4791 63.5773 63.4778 63.2195 62.4727C63.0273 61.9323 62.7243 61.655 62.1666 61.5756C60.7572 61.3764 60.0124 60.4767 60.0048 59.0158C59.9984 57.6331 59.9971 56.2491 60.0048 54.8663C60.0137 53.4536 60.7318 52.5553 62.0991 52.3469C62.7446 52.2493 63.0451 51.929 63.2565 51.3171C63.6091 50.2937 64.0433 49.2963 64.4851 48.3094C64.6951 47.842 64.6837 47.4618 64.3909 47.0412C63.4538 45.6885 63.5506 44.656 64.6913 43.4881C65.6156 42.5441 66.5362 41.5988 67.4617 40.6588C68.4434 39.6628 69.565 39.5495 70.6778 40.3984C71.1998 40.7968 71.6416 40.7838 72.2107 40.5039C73.1235 40.0534 74.0695 39.6667 75.0244 39.3164C75.5795 39.1133 75.8901 38.8112 75.9907 38.1993C76.239 36.6799 77.0526 36.0028 78.5409 36.0015C79.8777 36.0002 81.2146 35.9989 82.5501 36.0015C83.906 36.0041 84.7934 36.7423 84.9908 38.1003C85.0863 38.7644 85.3931 39.1094 86.017 39.3307C87.0049 39.6797 87.9662 40.1133 88.9147 40.565C89.4074 40.7994 89.7983 40.7799 90.2388 40.4544C91.4725 39.5417 92.5343 39.638 93.6038 40.7265C94.551 41.6913 95.4983 42.6548 96.4392 43.6261C97.4106 44.6299 97.5137 45.7757 96.6887 46.9189C96.3182 47.4305 96.3017 47.8693 96.5703 48.4435C97.0286 49.4226 97.4144 50.4382 97.7862 51.4564C97.9746 51.972 98.2598 52.2467 98.8034 52.3287C100.274 52.5488 100.992 53.4315 100.996 54.9627C101 56.3129 101.002 57.6643 100.995 59.0145C100.987 60.4767 100.24 61.3777 98.8353 61.5782C98.2776 61.6576 97.9759 61.9323 97.7798 62.4727C97.4004 63.5221 96.979 64.5572 96.5245 65.5754C96.308 66.0597 96.3093 66.4477 96.6161 66.8865C97.5379 68.2054 97.4411 69.2653 96.3284 70.4058C95.5301 71.2235 94.7407 72.0503 93.9259 72.851C93.684 73.0893 93.6458 73.3015 93.7298 73.6231C94.0329 74.7845 94.3181 75.9511 94.5854 77.1216C95.3035 80.2738 93.7897 83.6785 91.0778 85.0573C90.2184 85.4935 89.3017 85.6524 88.3583 85.7018C86.8496 85.78 85.3396 85.8555 83.8309 85.9362C83.7062 85.9427 83.5827 85.9779 83.4592 86C81.4539 85.9987 79.4487 85.9987 77.4434 85.9987ZM93.255 71.4761C93.9145 70.8003 94.6096 70.0894 95.3022 69.3785C95.9299 68.734 95.9681 68.4528 95.4537 67.7354C94.8019 66.8266 94.77 65.9113 95.2526 64.8996C95.6982 63.9687 96.0979 63.0065 96.4201 62.0248C96.7855 60.9116 97.4832 60.297 98.6035 60.1291C99.3394 60.0184 99.5584 59.7502 99.5622 58.9924C99.5673 57.6422 99.5673 56.2907 99.5622 54.9405C99.5597 54.158 99.3318 53.8833 98.5781 53.7739C97.473 53.6138 96.7893 52.9979 96.4264 51.9082C96.1056 50.9421 95.7275 49.9877 95.2818 49.0763C94.7624 48.0152 94.7955 47.0621 95.4945 46.1129C95.9464 45.4984 95.907 45.1559 95.385 44.6195C94.453 43.6625 93.5185 42.7069 92.584 41.7538C92.0391 41.1978 91.7055 41.1575 91.0867 41.6327C90.1739 42.3345 89.2483 42.3761 88.231 41.854C87.4111 41.4322 86.5632 41.0364 85.6885 40.763C84.4777 40.3841 83.7494 39.6693 83.5852 38.3555C83.5024 37.6915 83.1982 37.4702 82.5488 37.4689C81.2286 37.465 79.907 37.4676 78.5867 37.4676C77.7553 37.4676 77.4982 37.6642 77.3798 38.5066C77.2193 39.6536 76.5802 40.3151 75.5298 40.6848C74.6157 41.0064 73.7054 41.3658 72.8473 41.815C71.7803 42.3735 70.8242 42.3501 69.868 41.5975C69.3117 41.1601 68.9514 41.2135 68.4459 41.7277C67.5318 42.6574 66.6227 43.5909 65.7111 44.5232C65.0644 45.1859 65.0325 45.445 65.5673 46.2028C66.1886 47.0816 66.2293 47.9748 65.7799 48.9539C65.3292 49.9369 64.9192 50.9434 64.5602 51.9655C64.1948 53.0058 63.5264 53.606 62.462 53.7687C61.6433 53.8937 61.4422 54.1437 61.4396 55.0004C61.4371 56.3024 61.4371 57.6045 61.4396 58.9065C61.4409 59.7697 61.6255 60.0015 62.4556 60.1395C63.4271 60.3009 64.1158 60.7957 64.4851 61.7605C64.9243 62.9088 65.4018 64.0403 65.8728 65.1756C66.2013 65.966 66.172 66.725 65.7251 67.4581C65.6067 67.6508 65.4654 67.8291 65.3508 68.0231C65.1522 68.3604 65.1166 68.7392 65.3877 69.0218C66.1848 69.8564 67.0149 70.6571 67.8552 71.4943C67.9048 71.3537 67.943 71.2183 67.999 71.0907C68.5758 69.7535 69.1334 68.4085 69.7458 67.0896C69.9088 66.7394 69.9062 66.5454 69.6554 66.2472C65.3916 61.1681 65.2401 53.3872 69.2875 48.118C69.6707 47.6193 70.0463 47.5113 70.4168 47.7938C70.7809 48.0711 70.7898 48.5164 70.4346 48.9943C68.1302 52.0957 67.3433 55.5759 68.0041 59.3934C68.3848 61.5964 69.3129 63.5507 70.7287 65.2889C71.4595 64.2929 72.1712 63.3229 72.9046 62.3229C72.217 61.7891 71.8415 61.0951 71.8949 60.1902C71.9484 59.2801 72.4513 58.6708 73.1821 58.2034C72.1241 56.5225 71.3271 54.7622 70.6345 52.9381C69.8502 50.8718 70.6243 50.3392 72.1699 49.8484C72.86 49.6296 73.5844 49.5255 74.2643 49.3758C74.2949 49.0086 74.2579 48.6024 74.3738 48.2482C74.5902 47.5855 75.1835 47.3837 75.7908 47.2405C78.9114 46.5061 82.0281 46.5087 85.155 47.2196C86.2461 47.4683 86.9655 48.0711 86.6968 49.3289C86.6917 49.3536 86.7185 49.3849 86.7427 49.4396C86.8382 49.45 86.9489 49.4487 87.0533 49.476C87.9547 49.7182 88.8791 49.8979 89.7461 50.2325C90.6233 50.571 90.8907 51.304 90.5978 52.2219C90.3916 52.8703 90.1866 53.5253 89.904 54.1398C89.2699 55.5186 88.5888 56.874 87.9229 58.2463C89.4915 59.2541 89.5156 61.2006 88.1177 62.3412C88.8358 63.3177 89.5526 64.2929 90.2757 65.2759C92.6604 62.4779 93.6815 58.5107 93.0271 54.6541C91.6177 46.3681 82.7258 41.5741 75.2637 45.1C74.4324 45.4932 73.6723 46.0426 72.8829 46.527C72.478 46.7756 72.0579 46.7236 71.8275 46.3785C71.6021 46.04 71.681 45.6455 72.035 45.3486C72.1088 45.2874 72.1878 45.2315 72.2654 45.1755C75.7437 42.6925 79.5645 41.9178 83.6972 42.8514C89.9052 44.2536 94.5052 50.032 94.6465 56.5329C94.7267 60.2345 93.6063 63.5 91.2828 66.3344C91.1275 66.5232 91.0511 66.6599 91.1771 66.9282C91.8774 68.4177 92.5496 69.9241 93.255 71.4761ZM80.4468 84.6055C80.4481 84.547 80.4494 84.4884 80.4494 84.4298C81.9925 84.4298 83.5356 84.4402 85.0774 84.4246C85.7611 84.4181 86.4473 84.3868 87.1259 84.3139C88.1024 84.2084 89.1235 84.2058 90.0376 83.8907C92.3103 83.1069 93.7426 80.2542 93.2435 77.7322C93.0665 76.8417 92.8093 75.968 92.6209 75.0787C91.6597 70.5582 89.7665 66.5141 86.7554 63.0403C86.6166 62.8802 86.3747 62.7161 86.1799 62.7148C82.3935 62.6953 78.6071 62.6979 74.8207 62.7096C74.6564 62.7096 74.4426 62.8021 74.3356 62.9258C72.5379 65.0155 71.0699 67.3201 69.9826 69.8785C68.9374 72.3393 68.3861 74.9472 67.8182 77.5434C67.6464 78.326 67.6756 79.2061 67.8233 80.0016C68.2626 82.3765 70.124 84.0756 72.3927 84.2136C75.0753 84.379 77.7617 84.4793 80.4468 84.6055ZM89.275 51.61C88.4716 51.1855 87.6543 50.9733 86.786 50.9212C86.4142 50.8991 86.2359 50.9889 86.1175 51.3913C85.6414 53.0188 84.9144 54.5343 84.027 55.9678C83.9353 56.115 83.8093 56.3285 83.6807 56.3441C83.4082 56.3767 83.0696 56.3845 82.8557 56.2452C82.5425 56.0407 82.5501 55.6736 82.7309 55.3298C83.2198 54.4015 83.7762 53.4992 84.167 52.5292C84.647 51.3379 84.9857 50.088 85.4046 48.8029C82.0816 47.937 78.9101 47.9357 75.6291 48.7951C75.9423 49.8484 76.1626 50.8692 76.5509 51.817C77.0271 52.981 77.6357 54.089 78.2035 55.2127C78.4454 55.6905 78.4339 56.042 78.108 56.3051C77.7413 56.6006 77.2881 56.4834 76.9876 55.9991C76.0824 54.5369 75.3631 52.9862 74.8423 51.3379C74.7914 51.1777 74.6132 50.9486 74.4858 50.9421C73.5182 50.8991 72.6066 51.1374 71.7269 51.6165C72.4017 53.8482 73.3591 55.904 74.6552 57.7906C74.7341 57.9065 74.9416 57.9872 75.0906 57.9886C78.7013 57.999 82.312 58.0003 85.9215 57.9859C86.0781 57.9859 86.2932 57.8727 86.3824 57.7425C87.6466 55.8728 88.5964 53.8443 89.275 51.61ZM80.4876 61.2384C82.4584 61.2384 84.4293 61.2397 86.4002 61.2371C86.6064 61.2371 86.8178 61.2423 87.0164 61.198C87.42 61.1095 87.6466 60.836 87.6734 60.4129C87.7001 59.991 87.5129 59.6864 87.1284 59.5392C86.9693 59.4794 86.786 59.465 86.6141 59.465C82.5285 59.4611 78.4441 59.4611 74.3585 59.465C74.2019 59.465 74.0364 59.478 73.89 59.5301C73.48 59.6786 73.2865 59.9936 73.3247 60.4363C73.3604 60.8595 73.5972 61.1225 74.0033 61.2019C74.1892 61.2384 74.3827 61.2358 74.5724 61.2358C76.5458 61.2384 78.5167 61.2384 80.4876 61.2384Z" fill="#2069C4"/>
<path d="M80.3704 64.4843C84.8915 64.4452 88.7466 68.0088 89.0879 72.4396C89.4545 77.2075 86.2894 81.3883 81.7607 82.0002C78.1615 82.4872 75.2459 81.163 73.2776 78.0577C71.3296 74.9837 71.392 71.7703 73.2076 68.6143C73.3362 68.3916 73.6112 68.1781 73.8505 68.1286C74.0415 68.0895 74.4018 68.2575 74.4731 68.4268C74.5737 68.6689 74.5775 69.0543 74.4515 69.277C73.9435 70.1741 73.573 71.1076 73.3986 72.1323C72.6677 76.4328 75.9869 80.5485 80.2686 80.6396C83.8271 80.7151 86.9069 78.2205 87.555 74.7363C88.2208 71.1584 86.3365 67.669 82.9995 66.4047C80.9523 65.63 78.9407 65.8084 77.0105 66.8644C76.9125 66.9177 76.8196 66.9828 76.7215 67.0336C76.2861 67.2602 75.894 67.1625 75.6903 66.781C75.4993 66.4243 75.6101 66.0207 75.9945 65.7785C77.1213 65.0676 78.3474 64.6483 79.6664 64.5194C79.9363 64.4934 80.2075 64.4921 80.3704 64.4843Z" fill="#2069C4"/>
<path d="M81.1942 68.7692C81.4514 68.8734 81.6945 68.9541 81.9212 69.0674C82.3477 69.2822 82.5119 69.6441 82.3757 70.0152C82.2395 70.3837 81.883 70.5451 81.4259 70.441C81.3521 70.424 81.2795 70.4032 81.1687 70.3733C81.1687 71.0047 81.1547 71.605 81.1815 72.2052C81.1865 72.3185 81.3279 72.4812 81.4425 72.5268C82.5208 72.9617 83.1994 73.7142 83.1943 74.9394C83.1892 76.205 82.559 77.0786 81.4361 77.5994C81.3228 77.6528 81.1955 77.8051 81.1789 77.9262C81.0898 78.5968 80.8924 78.8728 80.4494 78.8715C80.0025 78.8702 79.7759 78.5681 79.7326 77.9197C79.73 77.8728 79.7109 77.8273 79.7199 77.8611C79.18 77.6177 78.6771 77.4263 78.2073 77.1698C77.7923 76.9432 77.6853 76.4914 77.8954 76.1334C78.1067 75.7727 78.5065 75.6946 78.9356 75.9224C79.1686 76.0461 79.4079 76.1607 79.7339 76.3248C79.7339 75.3326 79.7555 74.446 79.7122 73.5619C79.7058 73.42 79.4207 73.2702 79.2411 73.1635C77.8903 72.3601 77.5784 70.799 78.574 69.6129C78.8134 69.3278 79.1826 69.1611 79.4792 68.9228C79.5849 68.8369 79.7084 68.7093 79.7262 68.5856C79.8115 67.9763 80.0318 67.7068 80.4825 67.7224C80.9243 67.7393 81.1369 68.0244 81.1713 68.6468C81.1725 68.6807 81.1827 68.7119 81.1942 68.7692ZM81.2069 74.0632C81.2069 74.7363 81.2069 75.3704 81.2069 76.0357C81.9619 75.3912 81.9606 74.5332 81.2069 74.0632ZM79.6982 71.7508C79.6982 71.2977 79.6982 70.9475 79.6982 70.5061C79.4054 70.9488 79.3277 71.2977 79.6982 71.7508Z" fill="#2069C4"/>
<path d="M46.0791 105H45.0222C44.9597 104.696 44.8504 104.429 44.6941 104.199C44.5407 103.969 44.3532 103.776 44.1316 103.619C43.9129 103.46 43.67 103.341 43.4029 103.261C43.1359 103.182 42.8575 103.142 42.5677 103.142C42.0393 103.142 41.5606 103.276 41.1316 103.543C40.7055 103.81 40.366 104.203 40.1131 104.723C39.8631 105.243 39.7381 105.881 39.7381 106.636C39.7381 107.392 39.8631 108.03 40.1131 108.55C40.366 109.07 40.7055 109.463 41.1316 109.73C41.5606 109.997 42.0393 110.131 42.5677 110.131C42.8575 110.131 43.1359 110.091 43.4029 110.011C43.67 109.932 43.9129 109.814 44.1316 109.658C44.3532 109.499 44.5407 109.304 44.6941 109.074C44.8504 108.841 44.9597 108.574 45.0222 108.273H46.0791C45.9995 108.719 45.8546 109.118 45.6444 109.47C45.4342 109.822 45.1728 110.122 44.8603 110.369C44.5478 110.614 44.197 110.8 43.8078 110.928C43.4214 111.055 43.008 111.119 42.5677 111.119C41.8234 111.119 41.1614 110.938 40.5819 110.574C40.0024 110.21 39.5464 109.693 39.214 109.023C38.8816 108.352 38.7154 107.557 38.7154 106.636C38.7154 105.716 38.8816 104.92 39.214 104.25C39.5464 103.58 40.0024 103.062 40.5819 102.699C41.1614 102.335 41.8234 102.153 42.5677 102.153C43.008 102.153 43.4214 102.217 43.8078 102.345C44.197 102.473 44.5478 102.661 44.8603 102.908C45.1728 103.152 45.4342 103.45 45.6444 103.803C45.8546 104.152 45.9995 104.551 46.0791 105ZM50.3095 111.136C49.7186 111.136 49.2002 110.996 48.7541 110.714C48.3109 110.433 47.9644 110.04 47.7144 109.534C47.4672 109.028 47.3436 108.437 47.3436 107.761C47.3436 107.08 47.4672 106.484 47.7144 105.976C47.9644 105.467 48.3109 105.072 48.7541 104.791C49.2002 104.51 49.7186 104.369 50.3095 104.369C50.9004 104.369 51.4175 104.51 51.8607 104.791C52.3067 105.072 52.6533 105.467 52.9004 105.976C53.1504 106.484 53.2754 107.08 53.2754 107.761C53.2754 108.437 53.1504 109.028 52.9004 109.534C52.6533 110.04 52.3067 110.433 51.8607 110.714C51.4175 110.996 50.9004 111.136 50.3095 111.136ZM50.3095 110.233C50.7584 110.233 51.1277 110.118 51.4175 109.888C51.7073 109.658 51.9217 109.355 52.0609 108.98C52.2002 108.605 52.2698 108.199 52.2698 107.761C52.2698 107.324 52.2002 106.916 52.0609 106.538C51.9217 106.161 51.7073 105.855 51.4175 105.622C51.1277 105.389 50.7584 105.273 50.3095 105.273C49.8607 105.273 49.4913 105.389 49.2016 105.622C48.9118 105.855 48.6973 106.161 48.5581 106.538C48.4189 106.916 48.3493 107.324 48.3493 107.761C48.3493 108.199 48.4189 108.605 48.5581 108.98C48.6973 109.355 48.9118 109.658 49.2016 109.888C49.4913 110.118 49.8607 110.233 50.3095 110.233ZM54.8106 111V104.455H55.7822V105.477H55.8674C56.0038 105.128 56.2239 104.857 56.5279 104.663C56.8319 104.467 57.197 104.369 57.6231 104.369C58.0549 104.369 58.4143 104.467 58.7012 104.663C58.991 104.857 59.2168 105.128 59.3788 105.477H59.447C59.6146 105.139 59.866 104.871 60.2012 104.672C60.5364 104.47 60.9384 104.369 61.4072 104.369C61.9924 104.369 62.4711 104.553 62.8433 104.919C63.2154 105.283 63.4015 105.849 63.4015 106.619V111H62.3958V106.619C62.3958 106.136 62.2637 105.791 61.9995 105.584C61.7353 105.376 61.4242 105.273 61.0663 105.273C60.606 105.273 60.2495 105.412 59.9967 105.69C59.7438 105.966 59.6174 106.315 59.6174 106.739V111H58.5947V106.517C58.5947 106.145 58.4739 105.845 58.2325 105.618C57.991 105.388 57.6799 105.273 57.2992 105.273C57.0379 105.273 56.7935 105.342 56.5663 105.482C56.3418 105.621 56.16 105.814 56.0208 106.061C55.8845 106.305 55.8163 106.588 55.8163 106.909V111H54.8106ZM65.2403 113.455V104.455H66.2119V105.494H66.3312C66.4051 105.381 66.5073 105.236 66.638 105.06C66.7715 104.881 66.9619 104.722 67.209 104.582C67.459 104.44 67.7971 104.369 68.2232 104.369C68.7744 104.369 69.2602 104.507 69.6806 104.783C70.1011 105.058 70.4292 105.449 70.665 105.955C70.9008 106.46 71.0187 107.057 71.0187 107.744C71.0187 108.438 70.9008 109.038 70.665 109.547C70.4292 110.053 70.1025 110.445 69.6849 110.723C69.2673 110.999 68.7857 111.136 68.2403 111.136C67.8198 111.136 67.4832 111.067 67.2303 110.928C66.9775 110.786 66.7829 110.625 66.6465 110.446C66.5102 110.264 66.4051 110.114 66.3312 109.994H66.246V113.455H65.2403ZM66.2289 107.727C66.2289 108.222 66.3014 108.658 66.4462 109.036C66.5911 109.411 66.8028 109.705 67.0812 109.918C67.3596 110.128 67.7005 110.233 68.1039 110.233C68.5244 110.233 68.8752 110.122 69.1565 109.901C69.4406 109.676 69.6536 109.375 69.7957 108.997C69.9406 108.616 70.013 108.193 70.013 107.727C70.013 107.267 69.942 106.852 69.7999 106.483C69.6607 106.111 69.4491 105.817 69.165 105.601C68.8837 105.382 68.5301 105.273 68.1039 105.273C67.6948 105.273 67.3511 105.376 67.0727 105.584C66.7943 105.788 66.584 106.075 66.442 106.445C66.2999 106.811 66.2289 107.239 66.2289 107.727ZM75.2971 111.136C74.6664 111.136 74.1224 110.997 73.665 110.719C73.2104 110.438 72.8596 110.045 72.6124 109.543C72.3681 109.037 72.246 108.449 72.246 107.778C72.246 107.108 72.3681 106.517 72.6124 106.006C72.8596 105.491 73.2033 105.091 73.6437 104.804C74.0869 104.514 74.6039 104.369 75.1948 104.369C75.5357 104.369 75.8724 104.426 76.2048 104.54C76.5372 104.653 76.8397 104.838 77.1124 105.094C77.3852 105.347 77.6025 105.682 77.7644 106.099C77.9264 106.517 78.0073 107.031 78.0073 107.642V108.068H72.9619V107.199H76.9846C76.9846 106.83 76.9107 106.5 76.763 106.21C76.6181 105.92 76.4107 105.692 76.1408 105.524C75.8738 105.357 75.5585 105.273 75.1948 105.273C74.7943 105.273 74.4477 105.372 74.1551 105.571C73.8653 105.767 73.6423 106.023 73.486 106.338C73.3298 106.653 73.2516 106.991 73.2516 107.352V107.932C73.2516 108.426 73.3369 108.845 73.5073 109.189C73.6806 109.53 73.9207 109.79 74.2275 109.969C74.5343 110.145 74.8908 110.233 75.2971 110.233C75.5613 110.233 75.7999 110.196 76.013 110.122C76.2289 110.045 76.415 109.932 76.5712 109.781C76.7275 109.628 76.8482 109.437 76.9335 109.21L77.9051 109.483C77.8028 109.812 77.6309 110.102 77.3894 110.352C77.1479 110.599 76.8497 110.793 76.4945 110.932C76.1394 111.068 75.7403 111.136 75.2971 111.136ZM80.5428 107.062V111H79.5372V104.455H80.5087V105.477H80.594C80.7474 105.145 80.9803 104.878 81.2928 104.676C81.6053 104.472 82.0087 104.369 82.5031 104.369C82.9462 104.369 83.334 104.46 83.6664 104.642C83.9988 104.821 84.2573 105.094 84.442 105.46C84.6266 105.824 84.719 106.284 84.719 106.841V111H83.7133V106.909C83.7133 106.395 83.5798 105.994 83.3127 105.707C83.0457 105.418 82.6792 105.273 82.2133 105.273C81.8923 105.273 81.6053 105.342 81.3525 105.482C81.1025 105.621 80.9051 105.824 80.7602 106.091C80.6153 106.358 80.5428 106.682 80.5428 107.062ZM91.193 105.92L90.2896 106.176C90.2328 106.026 90.149 105.879 90.0382 105.737C89.9303 105.592 89.7825 105.473 89.595 105.379C89.4075 105.286 89.1675 105.239 88.8749 105.239C88.4743 105.239 88.1405 105.331 87.8734 105.516C87.6092 105.697 87.4771 105.929 87.4771 106.21C87.4771 106.46 87.568 106.658 87.7499 106.803C87.9317 106.947 88.2158 107.068 88.6021 107.165L89.5737 107.403C90.159 107.545 90.595 107.763 90.882 108.055C91.1689 108.345 91.3124 108.719 91.3124 109.176C91.3124 109.551 91.2044 109.886 90.9885 110.182C90.7754 110.477 90.4771 110.71 90.0936 110.881C89.7101 111.051 89.2641 111.136 88.7555 111.136C88.0879 111.136 87.5354 110.991 87.0979 110.702C86.6604 110.412 86.3834 109.989 86.2669 109.432L87.2215 109.193C87.3124 109.545 87.4842 109.81 87.7371 109.986C87.9928 110.162 88.3266 110.25 88.7385 110.25C89.2073 110.25 89.5794 110.151 89.855 109.952C90.1334 109.75 90.2726 109.509 90.2726 109.227C90.2726 109 90.193 108.81 90.034 108.656C89.8749 108.5 89.6305 108.384 89.301 108.307L88.2101 108.051C87.6107 107.909 87.1703 107.689 86.8891 107.391C86.6107 107.089 86.4715 106.713 86.4715 106.261C86.4715 105.892 86.5752 105.565 86.7825 105.281C86.9928 104.997 87.2783 104.774 87.6391 104.612C88.0027 104.45 88.4146 104.369 88.8749 104.369C89.5226 104.369 90.0311 104.511 90.4004 104.795C90.7726 105.08 91.0368 105.455 91.193 105.92ZM94.7524 111.153C94.3376 111.153 93.9612 111.075 93.6231 110.919C93.285 110.76 93.0166 110.531 92.8177 110.233C92.6188 109.932 92.5194 109.568 92.5194 109.142C92.5194 108.767 92.5933 108.463 92.741 108.23C92.8887 107.994 93.0862 107.81 93.3333 107.676C93.5805 107.543 93.8532 107.443 94.1515 107.378C94.4526 107.31 94.7552 107.256 95.0592 107.216C95.4569 107.165 95.7793 107.126 96.0265 107.101C96.2765 107.072 96.4583 107.026 96.572 106.96C96.6884 106.895 96.7467 106.781 96.7467 106.619V106.585C96.7467 106.165 96.6316 105.838 96.4015 105.605C96.1742 105.372 95.8291 105.256 95.366 105.256C94.8859 105.256 94.5095 105.361 94.2367 105.571C93.964 105.781 93.7722 106.006 93.6614 106.244L92.7069 105.903C92.8774 105.506 93.1046 105.196 93.3887 104.974C93.6756 104.75 93.9881 104.594 94.3262 104.506C94.6671 104.415 95.0024 104.369 95.3319 104.369C95.5421 104.369 95.7836 104.395 96.0563 104.446C96.3319 104.494 96.5975 104.595 96.8532 104.749C97.1117 104.902 97.3262 105.134 97.4967 105.443C97.6671 105.753 97.7524 106.168 97.7524 106.687V111H96.7467V110.114H96.6955C96.6274 110.256 96.5137 110.408 96.3546 110.57C96.1955 110.732 95.9839 110.869 95.7197 110.983C95.4555 111.097 95.133 111.153 94.7524 111.153ZM94.9058 110.25C95.3035 110.25 95.6387 110.172 95.9114 110.016C96.187 109.859 96.3944 109.658 96.5336 109.411C96.6756 109.163 96.7467 108.903 96.7467 108.631V107.71C96.7041 107.761 96.6103 107.808 96.4654 107.851C96.3234 107.891 96.1586 107.926 95.9711 107.957C95.7864 107.986 95.606 108.011 95.4299 108.034C95.2566 108.054 95.116 108.071 95.008 108.085C94.7467 108.119 94.5024 108.175 94.2751 108.251C94.0506 108.325 93.8688 108.437 93.7296 108.588C93.5933 108.736 93.5251 108.937 93.5251 109.193C93.5251 109.543 93.6543 109.807 93.9129 109.986C94.1742 110.162 94.5052 110.25 94.9058 110.25ZM102.247 111.136C101.633 111.136 101.105 110.991 100.662 110.702C100.219 110.412 99.8777 110.013 99.6391 109.504C99.4004 108.996 99.2811 108.415 99.2811 107.761C99.2811 107.097 99.4033 106.51 99.6476 106.001C99.8948 105.49 100.239 105.091 100.679 104.804C101.122 104.514 101.639 104.369 102.23 104.369C102.69 104.369 103.105 104.455 103.474 104.625C103.844 104.795 104.146 105.034 104.382 105.341C104.618 105.648 104.764 106.006 104.821 106.415H103.815C103.739 106.116 103.568 105.852 103.304 105.622C103.042 105.389 102.69 105.273 102.247 105.273C101.855 105.273 101.511 105.375 101.216 105.58C100.923 105.781 100.694 106.067 100.53 106.436C100.368 106.803 100.287 107.233 100.287 107.727C100.287 108.233 100.366 108.673 100.525 109.048C100.687 109.423 100.915 109.714 101.207 109.922C101.503 110.129 101.849 110.233 102.247 110.233C102.508 110.233 102.746 110.187 102.959 110.097C103.172 110.006 103.352 109.875 103.5 109.705C103.648 109.534 103.753 109.33 103.815 109.091H104.821C104.764 109.477 104.623 109.825 104.399 110.135C104.177 110.442 103.883 110.686 103.517 110.868C103.153 111.047 102.73 111.136 102.247 111.136ZM106.291 111V104.455H107.297V111H106.291ZM106.802 103.364C106.606 103.364 106.437 103.297 106.295 103.163C106.156 103.03 106.087 102.869 106.087 102.682C106.087 102.494 106.156 102.334 106.295 102.2C106.437 102.067 106.606 102 106.802 102C106.998 102 107.166 102.067 107.305 102.2C107.447 102.334 107.518 102.494 107.518 102.682C107.518 102.869 107.447 103.03 107.305 103.163C107.166 103.297 106.998 103.364 106.802 103.364ZM111.798 111.136C111.207 111.136 110.688 110.996 110.242 110.714C109.799 110.433 109.453 110.04 109.203 109.534C108.955 109.028 108.832 108.437 108.832 107.761C108.832 107.08 108.955 106.484 109.203 105.976C109.453 105.467 109.799 105.072 110.242 104.791C110.688 104.51 111.207 104.369 111.798 104.369C112.389 104.369 112.906 104.51 113.349 104.791C113.795 105.072 114.142 105.467 114.389 105.976C114.639 106.484 114.764 107.08 114.764 107.761C114.764 108.437 114.639 109.028 114.389 109.534C114.142 110.04 113.795 110.433 113.349 110.714C112.906 110.996 112.389 111.136 111.798 111.136ZM111.798 110.233C112.247 110.233 112.616 110.118 112.906 109.888C113.196 109.658 113.41 109.355 113.549 108.98C113.688 108.605 113.758 108.199 113.758 107.761C113.758 107.324 113.688 106.916 113.549 106.538C113.41 106.161 113.196 105.855 112.906 105.622C112.616 105.389 112.247 105.273 111.798 105.273C111.349 105.273 110.98 105.389 110.69 105.622C110.4 105.855 110.186 106.161 110.046 106.538C109.907 106.916 109.838 107.324 109.838 107.761C109.838 108.199 109.907 108.605 110.046 108.98C110.186 109.355 110.4 109.658 110.69 109.888C110.98 110.118 111.349 110.233 111.798 110.233ZM111.338 103.568L112.377 101.591H113.553L112.224 103.568H111.338ZM117.305 107.062V111H116.299V104.455H117.27V105.477H117.356C117.509 105.145 117.742 104.878 118.055 104.676C118.367 104.472 118.77 104.369 119.265 104.369C119.708 104.369 120.096 104.46 120.428 104.642C120.761 104.821 121.019 105.094 121.204 105.46C121.388 105.824 121.481 106.284 121.481 106.841V111H120.475V106.909C120.475 106.395 120.341 105.994 120.074 105.707C119.807 105.418 119.441 105.273 118.975 105.273C118.654 105.273 118.367 105.342 118.114 105.482C117.864 105.621 117.667 105.824 117.522 106.091C117.377 106.358 117.305 106.682 117.305 107.062Z" fill="#717171"/>
<defs>
<filter id="filter0_d_3_94" x="0.28125" y="3.8147e-06" width="154.718" height="159.904" filterUnits="userSpaceOnUse" color-interpolation-filters="sRGB">
<feFlood flood-opacity="0" result="BackgroundImageFix"/>
<feColorMatrix in="SourceAlpha" type="matrix" values="0 0 0 0 0 0 0 0 0 0 0 0 0 0 0 0 0 0 127 0" result="hardAlpha"/>
<feOffset dx="2" dy="2"/>
<feGaussianBlur stdDeviation="5"/>
<feComposite in2="hardAlpha" operator="out"/>
<feColorMatrix type="matrix" values="0 0 0 0 0 0 0 0 0 0 0 0 0 0 0 0 0 0 0.1 0"/>
<feBlend mode="normal" in2="BackgroundImageFix" result="effect1_dropShadow_3_94"/>
<feBlend mode="normal" in="SourceGraphic" in2="effect1_dropShadow_3_94" result="shape"/>
</filter>
</defs>
</svg>
