<svg width="161" height="181" fill="none" xmlns="http://www.w3.org/2000/svg"><g filter="url(#a)"><path d="m145.555 86.249-25.291-43.153a19.886 19.886 0 0 0-17.283-9.828l-50.061.299a19.89 19.89 0 0 0-17.164 10.034L10.982 87.052a19.844 19.844 0 0 0 .118 19.862l25.292 43.153a19.888 19.888 0 0 0 17.282 9.828l19.44-.116 5.643 8.354 5.543-8.421 19.44-.116a19.889 19.889 0 0 0 17.164-10.034l24.774-43.451a19.853 19.853 0 0 0-.123-19.862Z" fill="#fff"/></g><path d="M75.444 119.999c-.315-.029-.63-.063-.945-.084-1.666-.11-3.348-.108-4.996-.352-2.549-.378-4.65-2.698-5.14-5.439a7.909 7.909 0 0 1 .12-3.337c.262-1.055.5-2.117.787-3.165.097-.354.014-.568-.23-.809-.833-.827-1.65-1.672-2.468-2.514-.976-1.005-1.092-2.16-.271-3.291.384-.529.392-.98.114-1.567-.454-.962-.837-1.963-1.195-2.968-.192-.54-.495-.818-1.053-.897-1.41-.2-2.154-1.1-2.162-2.56a407.056 407.056 0 0 1 0-4.15c.01-1.412.727-2.31 2.095-2.52.645-.097.946-.417 1.157-1.029.353-1.023.787-2.02 1.229-3.008.21-.467.198-.847-.095-1.268-.937-1.352-.84-2.385.3-3.553.925-.944 1.846-1.89 2.771-2.83.982-.995 2.103-1.109 3.216-.26.522.399.964.386 1.533.106.913-.45 1.859-.837 2.814-1.188.555-.203.866-.505.966-1.117.249-1.52 1.062-2.196 2.55-2.198 1.337 0 2.674-.002 4.01 0 1.355.003 2.243.741 2.44 2.1.096.663.403 1.008 1.026 1.23.988.349 1.95.782 2.898 1.234.493.234.884.215 1.324-.11 1.234-.913 2.296-.817 3.365.272.948.964 1.895 1.928 2.836 2.9.971 1.003 1.074 2.149.25 3.292-.371.511-.388.95-.12 1.525.46.979.845 1.994 1.217 3.012.188.516.473.79 1.017.873 1.47.22 2.189 1.103 2.192 2.634.004 1.35.007 2.701 0 4.052-.009 1.462-.756 2.363-2.16 2.563-.558.08-.86.354-1.056.895-.38 1.05-.8 2.084-1.255 3.102-.217.485-.215.873.092 1.311.921 1.319.825 2.379-.288 3.52-.798.817-1.588 1.644-2.403 2.445-.242.238-.28.45-.196.772.303 1.161.588 2.328.856 3.499.718 3.152-.796 6.557-3.508 7.935-.86.437-1.776.595-2.72.645-1.508.078-3.018.153-4.527.234-.124.007-.248.042-.371.064l-6.016-.001Zm15.811-14.523 2.048-2.097c.627-.645.666-.926.151-1.644-.652-.908-.683-1.824-.2-2.835.445-.931.844-1.894 1.166-2.875.366-1.113 1.064-1.728 2.184-1.896.736-.11.955-.379.959-1.137.005-1.35.005-2.701 0-4.052-.003-.782-.23-1.057-.984-1.166-1.105-.16-1.79-.776-2.152-1.866-.32-.966-.7-1.92-1.145-2.832-.52-1.06-.486-2.014.213-2.963.452-.615.412-.957-.11-1.493-.931-.958-1.866-1.913-2.8-2.866-.545-.556-.879-.597-1.498-.121-.913.702-1.838.743-2.856.221-.82-.422-1.667-.818-2.542-1.091-1.21-.379-1.94-1.094-2.103-2.407-.083-.664-.387-.886-1.037-.887-1.32-.004-2.642-.001-3.962-.001-.831 0-1.088.196-1.207 1.039-.16 1.147-.8 1.808-1.85 2.178-.914.321-1.824.68-2.682 1.13-1.067.559-2.023.535-2.98-.218-.556-.437-.916-.383-1.422.13-.914.93-1.823 1.864-2.734 2.796-.647.663-.679.922-.144 1.68.621.879.662 1.772.212 2.75-.45.984-.86 1.99-1.22 3.013-.365 1.04-1.033 1.64-2.098 1.803-.818.125-1.02.375-1.022 1.231-.002 1.302-.002 2.605 0 3.906.001.864.186 1.095 1.016 1.233.972.162 1.66.657 2.03 1.621.439 1.149.916 2.28 1.387 3.416.329.79.3 1.549-.147 2.282-.119.193-.26.371-.375.565-.198.337-.234.716.037.999.797.834 1.627 1.635 2.468 2.472.05-.14.088-.276.144-.403.576-1.337 1.134-2.682 1.746-4.001.163-.351.16-.545-.09-.843-4.264-5.079-4.416-12.86-.368-18.129.383-.499.759-.607 1.13-.324.363.277.372.722.017 1.2-2.304 3.102-3.091 6.582-2.43 10.4.38 2.202 1.308 4.157 2.724 5.895l2.176-2.966c-.688-.534-1.063-1.228-1.01-2.133.054-.91.557-1.52 1.288-1.987-1.058-1.68-1.855-3.44-2.548-5.265-.784-2.066-.01-2.599 1.535-3.09.69-.218 1.415-.323 2.095-.472.03-.367-.007-.774.11-1.128.216-.663.809-.864 1.416-1.008 3.12-.734 6.238-.731 9.365-.02 1.09.248 1.81.851 1.541 2.109-.005.025.022.056.046.11.096.011.206.01.31.037.902.242 1.826.422 2.694.757.877.338 1.144 1.071.851 1.989-.206.648-.41 1.303-.694 1.918-.634 1.379-1.315 2.734-1.98 4.106 1.568 1.008 1.592 2.955.194 4.095l2.158 2.935c2.385-2.798 3.406-6.765 2.752-10.622-1.41-8.286-10.302-13.08-17.764-9.554-.831.393-1.591.943-2.38 1.427-.406.249-.826.197-1.056-.148-.225-.339-.147-.734.207-1.03.074-.062.153-.118.23-.174 3.48-2.483 7.3-3.257 11.433-2.324 6.208 1.403 10.808 7.181 10.949 13.682.08 3.701-1.04 6.967-3.364 9.801-.155.189-.231.326-.105.594.7 1.49 1.372 2.996 2.077 4.548Zm-12.808 13.13.003-.176c1.543 0 3.086.01 4.628-.005.683-.007 1.37-.038 2.048-.111.977-.106 1.998-.108 2.912-.423 2.273-.784 3.705-3.637 3.206-6.159-.177-.89-.434-1.764-.623-2.653-.96-4.521-2.854-8.565-5.865-12.039-.139-.16-.38-.324-.576-.325-3.786-.02-7.572-.017-11.359-.005a.715.715 0 0 0-.485.216c-1.798 2.09-3.266 4.394-4.353 6.953-1.045 2.46-1.596 5.068-2.164 7.664-.172.783-.143 1.663.005 2.459.44 2.375 2.3 4.074 4.57 4.212 2.682.165 5.368.265 8.053.392Zm8.828-32.996a5.98 5.98 0 0 0-2.489-.689c-.371-.022-.55.068-.668.47-.476 1.628-1.203 3.143-2.09 4.577-.092.147-.218.36-.347.376-.272.033-.61.04-.825-.099-.313-.204-.305-.571-.125-.915.49-.928 1.046-1.83 1.437-2.8.48-1.192.818-2.442 1.237-3.727-3.323-.866-6.494-.867-9.775-.008.313 1.053.533 2.074.921 3.022.477 1.164 1.085 2.272 1.653 3.396.242.478.23.829-.095 1.092-.367.296-.82.178-1.12-.306a20.63 20.63 0 0 1-2.146-4.661c-.051-.16-.23-.39-.357-.396-.967-.043-1.879.195-2.759.675.675 2.231 1.633 4.287 2.929 6.174.079.115.286.196.435.198 3.61.01 7.222.011 10.831-.003a.645.645 0 0 0 .46-.243c1.265-1.87 2.215-3.899 2.893-6.133Zm-8.787 9.628c1.97 0 3.942.002 5.913 0 .206 0 .417.004.616-.04.404-.088.63-.362.657-.785.027-.422-.16-.727-.545-.874a1.487 1.487 0 0 0-.514-.074c-4.086-.004-8.17-.004-12.256 0a1.42 1.42 0 0 0-.468.065c-.41.149-.604.464-.566.906.036.423.273.686.679.766.186.036.38.034.569.034 1.973.002 3.944.002 5.915.002Z" fill="#2069C4"/><path d="M78.37 98.484c4.522-.039 8.377 3.525 8.718 7.956.367 4.768-2.798 8.948-7.327 9.56-3.599.487-6.515-.837-8.483-3.942-1.948-3.074-1.886-6.288-.07-9.444.129-.222.404-.436.643-.485.191-.039.551.129.623.298.1.242.104.627-.022.85-.508.897-.879 1.831-1.053 2.855-.73 4.301 2.588 8.416 6.87 8.508 3.559.075 6.638-2.42 7.286-5.904.666-3.578-1.218-7.067-4.555-8.331-2.047-.775-4.059-.597-5.989.459-.098.054-.19.119-.289.17-.435.226-.828.129-1.031-.253-.191-.357-.08-.76.304-1.003a8.31 8.31 0 0 1 3.672-1.259c.27-.026.541-.027.704-.035Z" fill="#2069C4"/><path d="M79.195 102.769c.257.104.5.185.727.298.426.215.59.577.454.948-.136.369-.493.53-.95.426-.073-.017-.146-.038-.257-.068 0 .632-.014 1.232.013 1.832.005.113.146.276.26.322 1.08.435 1.758 1.187 1.753 2.412-.005 1.266-.635 2.14-1.758 2.66-.114.054-.241.206-.258.327-.089.671-.286.947-.73.945-.446-.001-.673-.303-.716-.951-.002-.047-.022-.093-.013-.059-.54-.243-1.042-.435-1.512-.691-.415-.227-.522-.679-.312-1.037.211-.36.611-.438 1.04-.211.233.124.472.239.798.403 0-.992.022-1.879-.021-2.763-.007-.142-.292-.292-.471-.399-1.351-.803-1.663-2.364-.668-3.55.24-.285.61-.452.906-.69.105-.086.229-.214.247-.337.085-.61.305-.879.756-.864.442.017.654.302.689.925.001.034.011.065.023.122Zm.012 5.294v1.973c.755-.645.754-1.503 0-1.973Zm-1.508-2.312v-1.245c-.293.443-.37.792 0 1.245Z" fill="#2069C4"/><path d="M38.426 12h-1.233a2.563 2.563 0 0 0-1.039-1.61 2.786 2.786 0 0 0-.85-.418 3.396 3.396 0 0 0-.974-.14c-.617 0-1.175.156-1.676.468-.497.311-.893.77-1.188 1.377-.292.606-.438 1.35-.438 2.232 0 .882.146 1.626.438 2.232.295.607.691 1.066 1.188 1.378.5.311 1.06.467 1.675.467.339 0 .663-.047.975-.14.311-.092.595-.23.85-.412a2.61 2.61 0 0 0 1.04-1.616h1.232c-.093.52-.262.986-.507 1.397-.245.411-.55.76-.915 1.05a4.008 4.008 0 0 1-1.228.65c-.45.15-.933.224-1.447.224-.868 0-1.64-.212-2.316-.636-.676-.424-1.208-1.028-1.596-1.81-.388-.782-.582-1.71-.582-2.784 0-1.074.194-2.002.582-2.784.388-.782.92-1.385 1.596-1.81.676-.424 1.448-.636 2.317-.636.513 0 .995.075 1.446.224.454.149.864.368 1.228.656.365.285.67.633.915 1.044.245.408.414.873.507 1.397Zm4.936 7.16c-.69 0-1.295-.165-1.815-.493a3.344 3.344 0 0 1-1.213-1.377c-.288-.59-.433-1.28-.433-2.068 0-.796.145-1.49.433-2.083a3.337 3.337 0 0 1 1.213-1.383c.52-.328 1.125-.492 1.815-.492s1.292.164 1.81.492c.52.329.924.79 1.212 1.383.292.593.438 1.287.438 2.083 0 .788-.146 1.478-.438 2.068a3.298 3.298 0 0 1-1.213 1.377c-.517.328-1.12.492-1.81.492Zm0-1.055c.523 0 .954-.134 1.292-.403.338-.268.589-.621.751-1.059.162-.437.244-.911.244-1.421s-.082-.986-.244-1.427a2.404 2.404 0 0 0-.75-1.07c-.339-.27-.77-.407-1.293-.407-.524 0-.955.136-1.293.408a2.404 2.404 0 0 0-.75 1.069c-.163.44-.244.916-.244 1.427 0 .51.081.984.243 1.421.163.438.413.79.751 1.06.338.268.769.402 1.293.402Zm5.25.895v-7.636h1.134v1.193h.1c.159-.408.416-.724.77-.95.355-.228.781-.343 1.278-.343.504 0 .923.115 1.258.343.338.226.602.542.79.95h.08c.196-.395.489-.708.88-.94.391-.235.86-.353 1.407-.353.683 0 1.241.214 1.675.642.435.424.652 1.085.652 1.983V19h-1.174v-5.11c0-.564-.154-.967-.462-1.209a1.712 1.712 0 0 0-1.089-.363c-.537 0-.953.163-1.248.487-.295.322-.442.73-.442 1.223V19h-1.193v-5.23c0-.434-.141-.784-.423-1.05-.282-.268-.644-.402-1.089-.402-.305 0-.59.081-.855.244a1.84 1.84 0 0 0-.636.676c-.16.285-.239.615-.239.99V19h-1.173Zm12.169 2.864v-10.5h1.133v1.213h.14c.086-.133.205-.302.358-.507.155-.21.377-.395.666-.557.291-.166.686-.249 1.183-.249.643 0 1.21.161 1.7.482.49.322.874.778 1.149 1.368.275.59.412 1.286.412 2.088 0 .808-.137 1.51-.412 2.103-.275.59-.656 1.047-1.144 1.372-.487.321-1.049.482-1.685.482-.49 0-.883-.081-1.178-.243a2.184 2.184 0 0 1-.681-.562 7.527 7.527 0 0 1-.368-.527h-.1v4.037h-1.173Zm1.153-6.682c0 .576.085 1.085.254 1.526.169.438.416.78.74 1.03.325.245.723.367 1.194.367.49 0 .9-.13 1.228-.388a2.37 2.37 0 0 0 .746-1.054c.169-.444.253-.938.253-1.481 0-.537-.083-1.021-.249-1.452a2.243 2.243 0 0 0-.74-1.029c-.328-.255-.741-.383-1.238-.383-.477 0-.879.121-1.203.363-.325.239-.57.574-.736 1.004-.166.428-.249.927-.249 1.497Zm10.58 3.977c-.736 0-1.37-.162-1.904-.487a3.27 3.27 0 0 1-1.228-1.372c-.285-.59-.428-1.276-.428-2.059 0-.782.143-1.471.428-2.068.288-.6.69-1.067 1.203-1.402.517-.338 1.12-.507 1.81-.507.397 0 .79.067 1.178.2.388.132.74.347 1.059.645.318.295.572.687.76 1.174.19.487.284 1.087.284 1.8v.496h-5.887v-1.014h4.694c0-.43-.087-.815-.259-1.153a1.95 1.95 0 0 0-.726-.8c-.311-.196-.68-.294-1.104-.294-.467 0-.871.116-1.213.348a2.29 2.29 0 0 0-.78.895 2.629 2.629 0 0 0-.273 1.183v.677c0 .576.099 1.065.298 1.466.202.398.482.701.84.91.358.205.774.308 1.248.308.308 0 .587-.043.835-.13.252-.089.47-.221.651-.397.183-.179.323-.4.423-.666l1.133.318c-.119.385-.32.723-.601 1.014-.282.289-.63.514-1.044.677-.414.159-.88.238-1.397.238Zm6.12-4.753V19H77.46v-7.636h1.133v1.193h.1c.178-.388.45-.7.815-.935.365-.239.835-.358 1.412-.358.517 0 .97.106 1.357.318.388.21.69.527.905.955.215.424.323.961.323 1.61V19h-1.173v-4.773c0-.6-.156-1.067-.468-1.402-.311-.338-.739-.507-1.282-.507-.375 0-.71.081-1.004.244-.292.162-.522.4-.692.71-.169.312-.253.69-.253 1.134Zm12.425-1.332-1.054.298a1.953 1.953 0 0 0-.293-.512 1.423 1.423 0 0 0-.517-.417c-.219-.11-.499-.165-.84-.165-.468 0-.857.108-1.169.324-.308.212-.462.482-.462.81 0 .292.106.522.318.691.212.169.544.31.994.423l1.134.278c.683.166 1.191.42 1.526.76.335.339.502.774.502 1.308 0 .438-.126.829-.377 1.174-.25.344-.597.616-1.044.815-.448.199-.968.298-1.562.298-.779 0-1.423-.169-1.934-.507-.51-.338-.833-.832-.969-1.482l1.114-.278c.106.411.306.72.601.925.299.205.688.308 1.168.308.547 0 .982-.116 1.303-.348.325-.235.487-.517.487-.845a.888.888 0 0 0-.278-.666c-.186-.183-.47-.319-.855-.408l-1.273-.298c-.7-.166-1.213-.423-1.541-.77-.325-.352-.487-.791-.487-1.318 0-.431.12-.812.362-1.144a2.47 2.47 0 0 1 1-.78 3.51 3.51 0 0 1 1.442-.284c.755 0 1.349.166 1.78.497.434.332.742.77.924 1.313Zm4.153 6.105c-.484 0-.923-.091-1.318-.273a2.262 2.262 0 0 1-.94-.8c-.231-.352-.347-.777-.347-1.274 0-.437.086-.792.258-1.064.172-.275.403-.49.691-.646.288-.156.607-.272.955-.348.351-.08.704-.142 1.059-.189.464-.06.84-.104 1.128-.134.292-.033.504-.088.637-.164.135-.076.203-.209.203-.398v-.04c0-.49-.134-.871-.402-1.143-.265-.272-.668-.408-1.208-.408-.56 0-1 .123-1.318.368-.318.245-.542.507-.671.786l-1.114-.398c.2-.464.464-.825.796-1.084a2.98 2.98 0 0 1 1.094-.547 4.54 4.54 0 0 1 1.173-.159c.245 0 .527.03.845.09.322.056.631.174.93.353.301.179.552.449.75.81.2.361.299.845.299 1.452V19h-1.174v-1.034h-.06c-.079.166-.211.343-.397.532-.186.189-.433.35-.74.482-.309.133-.685.199-1.13.199Zm.179-1.054c.464 0 .855-.091 1.173-.273a1.862 1.862 0 0 0 .974-1.616v-1.074c-.05.06-.159.114-.328.164a5.542 5.542 0 0 1-.576.124 26.343 26.343 0 0 1-1.124.15c-.305.04-.59.104-.855.193a1.474 1.474 0 0 0-.636.393c-.16.172-.24.408-.24.706 0 .408.152.716.453.925.305.205.691.308 1.159.308Zm8.564 1.034c-.715 0-1.332-.169-1.849-.507a3.302 3.302 0 0 1-1.193-1.397c-.279-.593-.418-1.271-.418-2.033 0-.776.143-1.46.428-2.054a3.375 3.375 0 0 1 1.203-1.397c.517-.338 1.12-.507 1.81-.507.536 0 1.02.1 1.451.299a2.78 2.78 0 0 1 1.059.835c.275.358.446.775.512 1.253h-1.173a1.818 1.818 0 0 0-.597-.925c-.305-.272-.716-.408-1.233-.408-.457 0-.858.12-1.203.358-.341.236-.608.569-.8 1-.189.427-.283.93-.283 1.506 0 .59.092 1.103.278 1.541.189.438.454.777.795 1.02.345.241.749.362 1.213.362a2.1 2.1 0 0 0 .831-.159c.248-.106.459-.259.631-.457.172-.2.295-.438.368-.716h1.173a2.713 2.713 0 0 1-1.521 2.073c-.424.209-.918.313-1.482.313Zm4.718-.159v-7.636h1.174V19h-1.174Zm.597-8.91a.835.835 0 0 1-.592-.233.752.752 0 0 1-.243-.562c0-.218.081-.406.243-.561a.835.835 0 0 1 .592-.234c.229 0 .424.078.587.234a.746.746 0 0 1 .248.561.746.746 0 0 1-.248.562.818.818 0 0 1-.587.234Zm5.828 9.07c-.689 0-1.294-.165-1.815-.493a3.346 3.346 0 0 1-1.213-1.377c-.288-.59-.432-1.28-.432-2.068 0-.796.144-1.49.432-2.083a3.34 3.34 0 0 1 1.213-1.383c.521-.328 1.126-.492 1.815-.492.689 0 1.293.164 1.81.492.52.329.924.79 1.213 1.383.291.593.437 1.287.437 2.083 0 .788-.146 1.478-.437 2.068a3.305 3.305 0 0 1-1.213 1.377c-.517.328-1.121.492-1.81.492Zm0-1.055c.524 0 .955-.134 1.293-.403a2.37 2.37 0 0 0 .75-1.059c.163-.437.244-.911.244-1.421s-.081-.986-.244-1.427a2.4 2.4 0 0 0-.75-1.07c-.338-.27-.769-.407-1.293-.407-.524 0-.955.136-1.293.408a2.4 2.4 0 0 0-.75 1.069c-.163.44-.244.916-.244 1.427 0 .51.081.984.244 1.421.162.438.412.79.75 1.06.338.268.769.402 1.293.402Zm6.425-3.699V19h-1.174v-7.636h1.134v1.193h.099c.179-.388.451-.7.816-.935.364-.239.835-.358 1.411-.358.518 0 .97.106 1.358.318.388.21.689.527.905.955.215.424.323.961.323 1.61V19h-1.174v-4.773c0-.6-.155-1.067-.467-1.402-.311-.338-.739-.507-1.283-.507-.374 0-.709.081-1.004.244a1.74 1.74 0 0 0-.691.71c-.169.312-.253.69-.253 1.134Zm10.217 4.753c-.735 0-1.37-.162-1.904-.487a3.277 3.277 0 0 1-1.228-1.372c-.285-.59-.427-1.276-.427-2.059 0-.782.142-1.471.427-2.068.289-.6.69-1.067 1.203-1.402.517-.338 1.121-.507 1.81-.507.398 0 .791.067 1.178.2.388.132.741.347 1.059.645.318.295.572.687.761 1.174.189.487.283 1.087.283 1.8v.496h-5.886v-1.014h4.693c0-.43-.086-.815-.258-1.153a1.948 1.948 0 0 0-.726-.8c-.312-.196-.68-.294-1.104-.294-.467 0-.872.116-1.213.348a2.297 2.297 0 0 0-.781.895 2.632 2.632 0 0 0-.273 1.183v.677c0 .576.099 1.065.298 1.466.203.398.483.701.841.91.357.205.773.308 1.247.308.309 0 .587-.043.836-.13.252-.089.469-.221.651-.397.182-.179.323-.4.423-.666l1.133.318c-.119.385-.32.723-.602 1.014a2.92 2.92 0 0 1-1.044.677c-.414.159-.88.238-1.397.238Zm10.356-6.085-1.054.298a1.955 1.955 0 0 0-.293-.512 1.421 1.421 0 0 0-.517-.417c-.219-.11-.499-.165-.84-.165-.468 0-.857.108-1.169.324-.308.212-.462.482-.462.81 0 .292.106.522.318.691.212.169.544.31.995.423l1.133.278c.683.166 1.192.42 1.526.76.335.339.502.774.502 1.308 0 .438-.126.829-.377 1.174-.249.344-.597.616-1.044.815-.448.199-.968.298-1.562.298-.778 0-1.423-.169-1.933-.507-.511-.338-.834-.832-.97-1.482l1.114-.278c.106.411.306.72.601.925.299.205.688.308 1.169.308.546 0 .981-.116 1.302-.348.325-.235.487-.517.487-.845a.886.886 0 0 0-.278-.666c-.186-.183-.471-.319-.855-.408l-1.273-.298c-.699-.166-1.213-.423-1.541-.77-.325-.352-.487-.791-.487-1.318 0-.431.121-.812.363-1.144.245-.331.578-.591.999-.78a3.51 3.51 0 0 1 1.442-.284c.755 0 1.349.166 1.78.497.434.332.742.77.924 1.313Z" fill="#717171"/><defs><filter id="a" x=".377" y="25.268" width="159.902" height="154.866" filterUnits="userSpaceOnUse" color-interpolation-filters="sRGB"><feFlood flood-opacity="0" result="BackgroundImageFix"/><feColorMatrix in="SourceAlpha" values="0 0 0 0 0 0 0 0 0 0 0 0 0 0 0 0 0 0 127 0" result="hardAlpha"/><feOffset dx="2" dy="2"/><feGaussianBlur stdDeviation="5"/><feComposite in2="hardAlpha" operator="out"/><feColorMatrix values="0 0 0 0 0 0 0 0 0 0 0 0 0 0 0 0 0 0 0.1 0"/><feBlend in2="BackgroundImageFix" result="effect1_dropShadow_23_35"/><feBlend in="SourceGraphic" in2="effect1_dropShadow_23_35" result="shape"/></filter></defs></svg>