<svg width="161" height="181" viewBox="0 0 161 181" fill="none" xmlns="http://www.w3.org/2000/svg">
<g filter="url(#filter0_d_23_35)">
<path d="M145.555 86.2489L120.264 43.0964C116.675 36.9704 110.089 33.2257 102.981 33.2681L52.9197 33.567C45.8163 33.6094 39.2711 37.4325 35.7561 43.6009L10.9815 87.0523C7.46655 93.2206 7.51173 100.788 11.1001 106.914L36.3917 150.067C39.9801 156.193 46.5704 159.938 53.6738 159.895L73.1137 159.779L78.7569 168.133L84.3 159.712L103.74 159.596C110.843 159.554 117.389 155.731 120.904 149.562L145.678 106.111C149.189 99.9427 149.144 92.3749 145.555 86.2489Z" fill="white"/>
</g>
<path d="M75.4439 119.999C75.1294 119.97 74.8137 119.936 74.4992 119.915C72.8326 119.805 71.1508 119.807 69.5033 119.563C66.9544 119.185 64.8537 116.865 64.3622 114.124C64.1611 113 64.2094 111.891 64.4832 110.787C64.7454 109.732 64.9835 108.67 65.27 107.622C65.3667 107.268 65.284 107.054 65.0408 106.813C64.2069 105.986 63.3908 105.141 62.5721 104.299C61.5956 103.294 61.4798 102.139 62.3009 101.008C62.6854 100.479 62.6931 100.028 62.4155 99.4413C61.961 98.4791 61.5778 97.4778 61.22 96.4727C61.0278 95.9323 60.7248 95.655 60.1671 95.5756C58.7577 95.3764 58.0129 94.4767 58.0053 93.0158C57.9989 91.6331 57.9976 90.2491 58.0053 88.8663C58.0142 87.4536 58.7322 86.5553 60.0996 86.3469C60.7451 86.2493 61.0456 85.929 61.2569 85.317C61.6096 84.2937 62.0438 83.2963 62.4856 82.3094C62.6956 81.842 62.6842 81.4618 62.3913 81.0412C61.4543 79.6885 61.551 78.656 62.6918 77.4881C63.6161 76.5441 64.5366 75.5988 65.4622 74.6588C66.4439 73.6628 67.5655 73.5495 68.6783 74.3984C69.2003 74.7968 69.6421 74.7838 70.2112 74.5039C71.124 74.0534 72.07 73.6667 73.0249 73.3164C73.58 73.1133 73.8906 72.8112 73.9912 72.1993C74.2395 70.6799 75.053 70.0028 76.5414 70.0015C77.8782 70.0002 79.215 69.9989 80.5506 70.0015C81.9065 70.0041 82.7939 70.7423 82.9913 72.1003C83.0868 72.7644 83.3936 73.1094 84.0175 73.3307C85.0054 73.6797 85.9667 74.1133 86.9152 74.565C87.4079 74.7994 87.7988 74.7799 88.2393 74.4544C89.473 73.5417 90.5348 73.638 91.6043 74.7265C92.5515 75.6913 93.4988 76.6548 94.4396 77.6261C95.4111 78.6299 95.5142 79.7757 94.6892 80.9189C94.3187 81.4305 94.3021 81.8693 94.5708 82.4435C95.0291 83.4226 95.4149 84.4382 95.7867 85.4564C95.9751 85.972 96.2603 86.2467 96.8039 86.3287C98.2744 86.5488 98.9925 87.4315 98.9963 88.9627C99.0001 90.3129 99.0027 91.6643 98.9951 93.0145C98.9874 94.4767 98.2401 95.3777 96.8358 95.5782C96.2781 95.6576 95.9764 95.9323 95.7803 96.4727C95.4009 97.5221 94.9795 98.5572 94.5249 99.5754C94.3085 100.06 94.3098 100.448 94.6166 100.886C95.5384 102.205 95.4416 103.265 94.3289 104.406C93.5306 105.223 92.7412 106.05 91.9264 106.851C91.6845 107.089 91.6463 107.301 91.7303 107.623C92.0333 108.784 92.3185 109.951 92.5859 111.122C93.304 114.274 91.7902 117.679 89.0783 119.057C88.2189 119.494 87.3022 119.652 86.3588 119.702C84.8501 119.78 83.3401 119.855 81.8314 119.936C81.7066 119.943 81.5831 119.978 81.4596 120C79.4544 119.999 77.4492 119.999 75.4439 119.999ZM91.2554 105.476C91.9149 104.8 92.6101 104.089 93.3027 103.379C93.9304 102.734 93.9686 102.453 93.4542 101.735C92.8023 100.827 92.7705 99.9113 93.2531 98.8996C93.6987 97.9687 94.0984 97.0065 94.4205 96.0248C94.7859 94.9116 95.4836 94.297 96.604 94.1291C97.3399 94.0184 97.5589 93.7502 97.5627 92.9924C97.5678 91.6422 97.5678 90.2907 97.5627 88.9405C97.5602 88.158 97.3323 87.8833 96.5786 87.7739C95.4735 87.6138 94.7898 86.9979 94.4269 85.9082C94.1061 84.9421 93.7279 83.9877 93.2823 83.0763C92.7629 82.0152 92.796 81.0621 93.495 80.1129C93.9469 79.4984 93.9075 79.1559 93.3855 78.6195C92.4535 77.6625 91.519 76.7069 90.5845 75.7538C90.0396 75.1978 89.706 75.1575 89.0872 75.6327C88.1744 76.3345 87.2488 76.3761 86.2315 75.854C85.4116 75.4322 84.5636 75.0364 83.689 74.763C82.4782 74.3841 81.7499 73.6693 81.5857 72.3555C81.5029 71.6915 81.1986 71.4702 80.5493 71.4689C79.229 71.465 77.9075 71.4676 76.5872 71.4676C75.7558 71.4676 75.4987 71.6642 75.3802 72.5066C75.2198 73.6536 74.5807 74.3151 73.5303 74.6848C72.6162 75.0064 71.7059 75.3658 70.8478 75.815C69.7808 76.3735 68.8247 76.3501 67.8685 75.5975C67.3122 75.1601 66.9518 75.2135 66.4464 75.7277C65.5323 76.6574 64.6232 77.5909 63.7116 78.5232C63.0649 79.1859 63.033 79.445 63.5678 80.2028C64.1891 81.0816 64.2298 81.9748 63.7804 82.9539C63.3297 83.9369 62.9197 84.9434 62.5607 85.9655C62.1953 87.0058 61.5269 87.606 60.4625 87.7687C59.6438 87.8937 59.4427 88.1437 59.4401 89.0004C59.4376 90.3024 59.4376 91.6045 59.4401 92.9065C59.4414 93.7697 59.626 94.0015 60.4561 94.1395C61.4276 94.3009 62.1163 94.7957 62.4856 95.7605C62.9248 96.9088 63.4022 98.0403 63.8733 99.1756C64.2018 99.966 64.1725 100.725 63.7256 101.458C63.6072 101.651 63.4659 101.829 63.3513 102.023C63.1527 102.36 63.1171 102.739 63.3882 103.022C64.1852 103.856 65.0154 104.657 65.8556 105.494C65.9053 105.354 65.9435 105.218 65.9995 105.091C66.5763 103.754 67.1339 102.409 67.7463 101.09C67.9093 100.739 67.9067 100.545 67.6559 100.247C63.3921 95.1681 63.2405 87.3872 67.288 82.118C67.6712 81.6193 68.0468 81.5113 68.4173 81.7938C68.7814 82.0711 68.7903 82.5164 68.4351 82.9943C66.1307 86.0957 65.3438 89.5759 66.0046 93.3934C66.3853 95.5964 67.3134 97.5507 68.7292 99.2889C69.46 98.2929 70.1717 97.3229 70.905 96.3229C70.2175 95.7891 69.8419 95.0951 69.8954 94.1902C69.9489 93.2801 70.4518 92.6708 71.1826 92.2034C70.1246 90.5225 69.3276 88.7622 68.635 86.9381C67.8507 84.8718 68.6248 84.3392 70.1704 83.8484C70.8605 83.6296 71.5849 83.5255 72.2648 83.3758C72.2954 83.0086 72.2584 82.6024 72.3743 82.2482C72.5907 81.5855 73.184 81.3837 73.7913 81.2405C76.9119 80.5061 80.0286 80.5087 83.1555 81.2196C84.2466 81.4683 84.966 82.0711 84.6973 83.3289C84.6922 83.3536 84.719 83.3849 84.7432 83.4396C84.8386 83.45 84.9494 83.4487 85.0538 83.476C85.9552 83.7182 86.8795 83.8979 87.7466 84.2325C88.6238 84.571 88.8912 85.304 88.5983 86.2219C88.3921 86.8703 88.1871 87.5253 87.9044 88.1398C87.2704 89.5186 86.5893 90.874 85.9234 92.2463C87.4919 93.2541 87.5161 95.2006 86.1182 96.3412C86.8363 97.3177 87.5531 98.2929 88.2762 99.2759C90.6609 96.4779 91.682 92.5107 91.0275 88.6541C89.6181 80.3681 80.7263 75.5741 73.2642 79.1C72.4329 79.4932 71.6728 80.0426 70.8834 80.527C70.4785 80.7756 70.0584 80.7236 69.8279 80.3785C69.6026 80.04 69.6815 79.6455 70.0355 79.3486C70.1093 79.2874 70.1883 79.2315 70.2659 79.1755C73.7442 76.6925 77.565 75.9178 81.6977 76.8514C87.9057 78.2536 92.5057 84.032 92.647 90.5329C92.7272 94.2345 91.6068 97.5 89.2833 100.334C89.128 100.523 89.0516 100.66 89.1776 100.928C89.8779 102.418 90.5501 103.924 91.2554 105.476ZM78.4473 118.606C78.4486 118.547 78.4499 118.488 78.4499 118.43C79.993 118.43 81.536 118.44 83.0779 118.425C83.7615 118.418 84.4478 118.387 85.1264 118.314C86.1029 118.208 87.124 118.206 88.0381 117.891C90.3107 117.107 91.7431 114.254 91.244 111.732C91.067 110.842 90.8098 109.968 90.6214 109.079C89.6602 104.558 87.7669 100.514 84.7559 97.0403C84.6171 96.8802 84.3752 96.7161 84.1804 96.7148C80.394 96.6953 76.6076 96.6979 72.8212 96.7096C72.6569 96.7096 72.443 96.8021 72.3361 96.9258C70.5384 99.0155 69.0704 101.32 67.9831 103.879C66.9378 106.339 66.3866 108.947 65.8187 111.543C65.6468 112.326 65.6761 113.206 65.8238 114.002C66.2631 116.377 68.1244 118.076 70.3932 118.214C73.0758 118.379 75.7622 118.479 78.4473 118.606ZM87.2755 85.61C86.4721 85.1855 85.6548 84.9733 84.7864 84.9212C84.4147 84.8991 84.2364 84.9889 84.118 85.3913C83.6419 87.0188 82.9149 88.5343 82.0275 89.9678C81.9358 90.115 81.8098 90.3285 81.6812 90.3441C81.4087 90.3767 81.0701 90.3845 80.8562 90.2452C80.543 90.0407 80.5506 89.6736 80.7314 89.3298C81.2203 88.4015 81.7767 87.4992 82.1675 86.5292C82.6475 85.3379 82.9862 84.088 83.4051 82.8029C80.0821 81.937 76.9106 81.9357 73.6296 82.7951C73.9428 83.8484 74.1631 84.8692 74.5514 85.817C75.0276 86.981 75.6362 88.089 76.204 89.2127C76.4459 89.6905 76.4344 90.042 76.1085 90.305C75.7418 90.6006 75.2886 90.4834 74.9881 89.9991C74.0829 88.5369 73.3635 86.9862 72.8428 85.3379C72.7919 85.1777 72.6136 84.9486 72.4863 84.9421C71.5187 84.8991 70.6071 85.1374 69.7274 85.6165C70.4021 87.8482 71.3596 89.904 72.6557 91.7906C72.7346 91.9065 72.9421 91.9872 73.0911 91.9886C76.7018 91.999 80.3125 92.0003 83.922 91.9859C84.0786 91.9859 84.2937 91.8727 84.3829 91.7425C85.6471 89.8728 86.5969 87.8443 87.2755 85.61ZM78.4881 95.2384C80.4589 95.2384 82.4298 95.2397 84.4007 95.2371C84.6069 95.2371 84.8183 95.2423 85.0169 95.198C85.4205 95.1095 85.6471 94.836 85.6738 94.4129C85.7006 93.991 85.5134 93.6864 85.1289 93.5392C84.9698 93.4794 84.7864 93.465 84.6146 93.465C80.529 93.4611 76.4446 93.4611 72.359 93.465C72.2024 93.465 72.0369 93.4781 71.8905 93.5301C71.4805 93.6786 71.287 93.9936 71.3252 94.4363C71.3608 94.8595 71.5977 95.1225 72.0038 95.2019C72.1897 95.2384 72.3832 95.2358 72.5729 95.2358C74.5463 95.2384 76.5172 95.2384 78.4881 95.2384Z" fill="#2069C4"/>
<path d="M78.3709 98.4843C82.892 98.4452 86.7471 102.009 87.0883 106.44C87.455 111.208 84.2899 115.388 79.7612 116C76.162 116.487 73.2464 115.163 71.2781 112.058C69.3301 108.984 69.3925 105.77 71.2081 102.614C71.3367 102.392 71.6117 102.178 71.851 102.129C72.042 102.09 72.4023 102.258 72.4736 102.427C72.5742 102.669 72.578 103.054 72.452 103.277C71.944 104.174 71.5735 105.108 71.399 106.132C70.6682 110.433 73.9874 114.548 78.2691 114.64C81.8276 114.715 84.9074 112.22 85.5554 108.736C86.2213 105.158 84.337 101.669 81 100.405C78.9528 99.63 76.9412 99.8084 75.011 100.864C74.913 100.918 74.8201 100.983 74.722 101.034C74.2866 101.26 73.8945 101.163 73.6907 100.781C73.4998 100.424 73.6105 100.021 73.995 99.7785C75.1218 99.0676 76.3479 98.6483 77.6669 98.5194C77.9368 98.4934 78.208 98.4921 78.3709 98.4843Z" fill="#2069C4"/>
<path d="M79.1947 102.769C79.4519 102.873 79.695 102.954 79.9217 103.067C80.3482 103.282 80.5124 103.644 80.3762 104.015C80.2399 104.384 79.8835 104.545 79.4264 104.441C79.3525 104.424 79.28 104.403 79.1692 104.373C79.1692 105.005 79.1552 105.605 79.1819 106.205C79.187 106.318 79.3284 106.481 79.4429 106.527C80.5213 106.962 81.1999 107.714 81.1948 108.939C81.1897 110.205 80.5595 111.079 79.4366 111.599C79.3233 111.653 79.1959 111.805 79.1794 111.926C79.0903 112.597 78.8929 112.873 78.4499 112.871C78.003 112.87 77.7764 112.568 77.7331 111.92C77.7305 111.873 77.7114 111.827 77.7203 111.861C77.1805 111.618 76.6776 111.426 76.2078 111.17C75.7928 110.943 75.6858 110.491 75.8959 110.133C76.1072 109.773 76.507 109.695 76.9361 109.922C77.1691 110.046 77.4084 110.161 77.7343 110.325C77.7343 109.333 77.756 108.446 77.7127 107.562C77.7063 107.42 77.4211 107.27 77.2416 107.163C75.8908 106.36 75.5789 104.799 76.5745 103.613C76.8138 103.328 77.1831 103.161 77.4797 102.923C77.5854 102.837 77.7089 102.709 77.7267 102.586C77.812 101.976 78.0323 101.707 78.483 101.722C78.9248 101.739 79.1374 102.024 79.1718 102.647C79.173 102.681 79.1832 102.712 79.1947 102.769ZM79.2074 108.063C79.2074 108.736 79.2074 109.37 79.2074 110.036C79.9624 109.391 79.9611 108.533 79.2074 108.063ZM77.6987 105.751C77.6987 105.298 77.6987 104.947 77.6987 104.506C77.4059 104.949 77.3282 105.298 77.6987 105.751Z" fill="#2069C4"/>
<path d="M38.4261 12H37.1932C37.1203 11.6454 36.9927 11.3338 36.8104 11.0653C36.6314 10.7969 36.4126 10.5715 36.1541 10.3892C35.8989 10.2036 35.6155 10.0644 35.304 9.97159C34.9924 9.87879 34.6676 9.83239 34.3295 9.83239C33.7131 9.83239 33.1546 9.98816 32.6541 10.2997C32.157 10.6113 31.7609 11.0703 31.4659 11.6768C31.1742 12.2834 31.0284 13.0275 31.0284 13.9091C31.0284 14.7907 31.1742 15.5348 31.4659 16.1413C31.7609 16.7479 32.157 17.2069 32.6541 17.5185C33.1546 17.83 33.7131 17.9858 34.3295 17.9858C34.6676 17.9858 34.9924 17.9394 35.304 17.8466C35.6155 17.7538 35.8989 17.6162 36.1541 17.4339C36.4126 17.2483 36.6314 17.0213 36.8104 16.7528C36.9927 16.4811 37.1203 16.1695 37.1932 15.8182H38.4261C38.3333 16.3385 38.1643 16.8042 37.919 17.2152C37.6738 17.6262 37.3688 17.9759 37.0043 18.2642C36.6397 18.5492 36.2304 18.7663 35.7763 18.9155C35.3255 19.0646 34.8433 19.1392 34.3295 19.1392C33.4612 19.1392 32.6889 18.9271 32.0128 18.5028C31.3366 18.0786 30.8047 17.4754 30.4169 16.6932C30.0291 15.911 29.8352 14.983 29.8352 13.9091C29.8352 12.8352 30.0291 11.9072 30.4169 11.125C30.8047 10.3428 31.3366 9.73958 32.0128 9.31534C32.6889 8.8911 33.4612 8.67898 34.3295 8.67898C34.8433 8.67898 35.3255 8.75355 35.7763 8.9027C36.2304 9.05185 36.6397 9.2706 37.0043 9.55895C37.3688 9.84399 37.6738 10.192 37.919 10.603C38.1643 11.0107 38.3333 11.4763 38.4261 12ZM43.3617 19.1591C42.6723 19.1591 42.0674 18.995 41.5471 18.6669C41.03 18.3388 40.6257 17.8797 40.334 17.2898C40.0456 16.6998 39.9015 16.0104 39.9015 15.2216C39.9015 14.4261 40.0456 13.7318 40.334 13.1385C40.6257 12.5452 41.03 12.0845 41.5471 11.7564C42.0674 11.4283 42.6723 11.2642 43.3617 11.2642C44.0511 11.2642 44.6543 11.4283 45.1713 11.7564C45.6917 12.0845 46.0961 12.5452 46.3844 13.1385C46.6761 13.7318 46.8219 14.4261 46.8219 15.2216C46.8219 16.0104 46.6761 16.6998 46.3844 17.2898C46.0961 17.8797 45.6917 18.3388 45.1713 18.6669C44.6543 18.995 44.0511 19.1591 43.3617 19.1591ZM43.3617 18.1051C43.8854 18.1051 44.3162 17.9709 44.6543 17.7024C44.9924 17.4339 45.2426 17.081 45.405 16.6435C45.5674 16.206 45.6486 15.732 45.6486 15.2216C45.6486 14.7112 45.5674 14.2356 45.405 13.7947C45.2426 13.3539 44.9924 12.9976 44.6543 12.7259C44.3162 12.4541 43.8854 12.3182 43.3617 12.3182C42.838 12.3182 42.4071 12.4541 42.0691 12.7259C41.731 12.9976 41.4808 13.3539 41.3184 13.7947C41.156 14.2356 41.0748 14.7112 41.0748 15.2216C41.0748 15.732 41.156 16.206 41.3184 16.6435C41.4808 17.081 41.731 17.4339 42.0691 17.7024C42.4071 17.9709 42.838 18.1051 43.3617 18.1051ZM48.6129 19V11.3636H49.7464V12.5568H49.8459C50.005 12.1491 50.2618 11.8326 50.6165 11.6072C50.9711 11.3786 51.397 11.2642 51.8942 11.2642C52.398 11.2642 52.8172 11.3786 53.152 11.6072C53.4901 11.8326 53.7536 12.1491 53.9425 12.5568H54.022C54.2176 12.1624 54.5109 11.8492 54.902 11.6172C55.2931 11.3819 55.7621 11.2642 56.3089 11.2642C56.9917 11.2642 57.5502 11.478 57.9844 11.9055C58.4186 12.3298 58.6357 12.991 58.6357 13.8892V19H57.4624V13.8892C57.4624 13.3258 57.3082 12.9231 57 12.6811C56.6918 12.4392 56.3288 12.3182 55.9112 12.3182C55.3743 12.3182 54.9583 12.4806 54.6634 12.8054C54.3684 13.1269 54.2209 13.5346 54.2209 14.0284V19H53.0277V13.7699C53.0277 13.3357 52.8868 12.986 52.6051 12.7209C52.3234 12.4524 51.9605 12.3182 51.5163 12.3182C51.2114 12.3182 50.9264 12.3994 50.6612 12.5618C50.3994 12.7242 50.1873 12.9496 50.0249 13.2379C49.8658 13.523 49.7862 13.8527 49.7862 14.2273V19H48.6129ZM60.7809 21.8636V11.3636H61.9144V12.5767H62.0536C62.1398 12.4441 62.2591 12.2751 62.4116 12.0696C62.5674 11.8608 62.7894 11.6752 63.0778 11.5128C63.3694 11.3471 63.7638 11.2642 64.261 11.2642C64.904 11.2642 65.4708 11.425 65.9613 11.7464C66.4518 12.0679 66.8346 12.5237 67.1097 13.1136C67.3848 13.7036 67.5224 14.3996 67.5224 15.2017C67.5224 16.0104 67.3848 16.7114 67.1097 17.3047C66.8346 17.8946 66.4535 18.352 65.9663 18.6768C65.479 18.9983 64.9173 19.1591 64.2809 19.1591C63.7904 19.1591 63.3976 19.0779 63.1026 18.9155C62.8076 18.7498 62.5806 18.5625 62.4215 18.3537C62.2624 18.1416 62.1398 17.9659 62.0536 17.8267H61.9542V21.8636H60.7809ZM61.9343 15.1818C61.9343 15.7585 62.0188 16.2673 62.1879 16.7081C62.3569 17.1456 62.6038 17.4886 62.9286 17.7372C63.2534 17.9825 63.6512 18.1051 64.1218 18.1051C64.6123 18.1051 65.0217 17.9759 65.3498 17.7173C65.6812 17.4555 65.9298 17.1042 66.0955 16.6634C66.2646 16.2192 66.3491 15.7254 66.3491 15.1818C66.3491 14.6449 66.2662 14.161 66.1005 13.7301C65.9381 13.2959 65.6912 12.9529 65.3597 12.701C65.0316 12.4458 64.619 12.3182 64.1218 12.3182C63.6445 12.3182 63.2435 12.4392 62.9187 12.6811C62.5939 12.9197 62.3486 13.2545 62.1829 13.6854C62.0172 14.1129 61.9343 14.6117 61.9343 15.1818ZM72.5138 19.1591C71.7781 19.1591 71.1433 18.9967 70.6097 18.6719C70.0794 18.3437 69.6701 17.8864 69.3817 17.2997C69.0967 16.7098 68.9542 16.0237 68.9542 15.2415C68.9542 14.4593 69.0967 13.7699 69.3817 13.1733C69.6701 12.5734 70.0711 12.1061 70.5849 11.7713C71.1019 11.4332 71.7051 11.2642 72.3945 11.2642C72.7923 11.2642 73.185 11.3305 73.5728 11.4631C73.9606 11.5956 74.3136 11.8111 74.6317 12.1094C74.9499 12.4044 75.2035 12.7955 75.3924 13.2827C75.5813 13.7699 75.6758 14.3698 75.6758 15.0824V15.5795H69.7894V14.5653H74.4826C74.4826 14.1345 74.3964 13.75 74.2241 13.4119C74.055 13.0739 73.8131 12.8071 73.4982 12.6115C73.1867 12.416 72.8188 12.3182 72.3945 12.3182C71.9272 12.3182 71.5228 12.4342 71.1815 12.6662C70.8434 12.8949 70.5832 13.1932 70.4009 13.5611C70.2186 13.929 70.1275 14.3234 70.1275 14.7443V15.4205C70.1275 15.9972 70.2269 16.486 70.4258 16.8871C70.628 17.2848 70.908 17.5881 71.266 17.7969C71.6239 18.0024 72.0399 18.1051 72.5138 18.1051C72.8221 18.1051 73.1005 18.062 73.3491 17.9759C73.601 17.8864 73.8181 17.7538 74.0004 17.5781C74.1826 17.3991 74.3235 17.1771 74.4229 16.9119L75.5565 17.2301C75.4371 17.6146 75.2366 17.9527 74.9549 18.2443C74.6732 18.5327 74.3252 18.758 73.9109 18.9205C73.4966 19.0795 73.0309 19.1591 72.5138 19.1591ZM78.6339 14.4062V19H77.4606V11.3636H78.5941V12.5568H78.6935C78.8725 12.169 79.1443 11.8575 79.5089 11.6222C79.8735 11.3835 80.3441 11.2642 80.9208 11.2642C81.4379 11.2642 81.8903 11.3703 82.2781 11.5824C82.6658 11.7912 82.9674 12.1094 83.1829 12.5369C83.3983 12.9612 83.506 13.4981 83.506 14.1477V19H82.3327V14.2273C82.3327 13.6274 82.177 13.16 81.8654 12.8253C81.5539 12.4872 81.1263 12.3182 80.5827 12.3182C80.2082 12.3182 79.8735 12.3994 79.5785 12.5618C79.2868 12.7242 79.0565 12.9612 78.8874 13.2727C78.7184 13.5843 78.6339 13.9621 78.6339 14.4062ZM91.0591 13.0739L90.0051 13.3722C89.9389 13.1965 89.8411 13.0258 89.7118 12.8601C89.5859 12.6911 89.4135 12.5518 89.1948 12.4425C88.976 12.3331 88.696 12.2784 88.3546 12.2784C87.8873 12.2784 87.4978 12.3861 87.1863 12.6016C86.878 12.8137 86.7239 13.0838 86.7239 13.4119C86.7239 13.7036 86.83 13.9339 87.0421 14.103C87.2542 14.272 87.5856 14.4129 88.0364 14.5256L89.1699 14.804C89.8527 14.9697 90.3614 15.2232 90.6962 15.5646C91.031 15.9027 91.1983 16.3385 91.1983 16.8722C91.1983 17.3097 91.0724 17.7008 90.8205 18.0455C90.5719 18.3902 90.2239 18.6619 89.7765 18.8608C89.329 19.0597 88.8087 19.1591 88.2154 19.1591C87.4365 19.1591 86.7918 18.9901 86.2814 18.652C85.771 18.3139 85.4479 17.8201 85.312 17.1705L86.4256 16.892C86.5317 17.303 86.7322 17.6113 87.0272 17.8168C87.3255 18.0223 87.7149 18.125 88.1955 18.125C88.7424 18.125 89.1766 18.009 89.498 17.777C89.8229 17.5417 89.9853 17.2599 89.9853 16.9318C89.9853 16.6667 89.8925 16.4446 89.7069 16.2656C89.5212 16.0833 89.2362 15.9474 88.8517 15.858L87.579 15.5597C86.8797 15.3939 86.3659 15.1371 86.0378 14.7891C85.713 14.4377 85.5506 13.9986 85.5506 13.4716C85.5506 13.0407 85.6716 12.6596 85.9135 12.3281C86.1588 11.9967 86.4919 11.7365 86.9128 11.5476C87.3371 11.3587 87.8176 11.2642 88.3546 11.2642C89.1103 11.2642 89.7035 11.4299 90.1344 11.7614C90.5686 12.0928 90.8768 12.5303 91.0591 13.0739ZM95.2116 19.179C94.7277 19.179 94.2886 19.0878 93.8942 18.9055C93.4998 18.7199 93.1866 18.4531 92.9545 18.1051C92.7225 17.7538 92.6065 17.3295 92.6065 16.8324C92.6065 16.3949 92.6927 16.0402 92.8651 15.7685C93.0374 15.4934 93.2678 15.2779 93.5561 15.1222C93.8445 14.9664 94.1626 14.8504 94.5107 14.7741C94.862 14.6946 95.215 14.6316 95.5696 14.5852C96.0336 14.5256 96.4098 14.4808 96.6982 14.451C96.9898 14.4179 97.2019 14.3632 97.3345 14.2869C97.4704 14.2107 97.5384 14.0781 97.5384 13.8892V13.8494C97.5384 13.3589 97.4041 12.9777 97.1357 12.706C96.8705 12.4342 96.4678 12.2983 95.9276 12.2983C95.3674 12.2983 94.9283 12.4209 94.6101 12.6662C94.2919 12.9115 94.0682 13.1733 93.9389 13.4517L92.8253 13.054C93.0241 12.59 93.2893 12.2287 93.6207 11.9702C93.9555 11.7083 94.3201 11.526 94.7145 11.4233C95.1122 11.3172 95.5033 11.2642 95.8878 11.2642C96.133 11.2642 96.4148 11.294 96.733 11.3537C97.0545 11.41 97.3643 11.5277 97.6626 11.7067C97.9643 11.8857 98.2145 12.1558 98.4134 12.517C98.6122 12.8783 98.7116 13.3622 98.7116 13.9687V19H97.5384V17.9659H97.4787C97.3991 18.1316 97.2666 18.3089 97.081 18.4979C96.8954 18.6868 96.6484 18.8475 96.3402 18.9801C96.032 19.1127 95.6558 19.179 95.2116 19.179ZM95.3906 18.125C95.8546 18.125 96.2457 18.0339 96.5639 17.8516C96.8854 17.6693 97.1274 17.4339 97.2898 17.1456C97.4555 16.8572 97.5384 16.554 97.5384 16.2358V15.1619C97.4886 15.2216 97.3793 15.2763 97.2102 15.326C97.0445 15.3724 96.8523 15.4138 96.6335 15.4503C96.4181 15.4834 96.2076 15.5133 96.0021 15.5398C95.8 15.563 95.6359 15.5829 95.5099 15.5994C95.205 15.6392 94.92 15.7038 94.6548 15.7933C94.393 15.8795 94.1809 16.0104 94.0185 16.1861C93.8594 16.3584 93.7798 16.5937 93.7798 16.892C93.7798 17.2997 93.9306 17.608 94.2322 17.8168C94.5372 18.0223 94.9233 18.125 95.3906 18.125ZM103.955 19.1591C103.24 19.1591 102.623 18.9901 102.106 18.652C101.589 18.3139 101.191 17.8482 100.913 17.255C100.634 16.6617 100.495 15.9839 100.495 15.2216C100.495 14.446 100.638 13.7616 100.923 13.1683C101.211 12.5717 101.612 12.1061 102.126 11.7713C102.643 11.4332 103.246 11.2642 103.936 11.2642C104.472 11.2642 104.956 11.3636 105.387 11.5625C105.818 11.7614 106.171 12.0398 106.446 12.3977C106.721 12.7557 106.892 13.1733 106.958 13.6506H105.785C105.695 13.3026 105.497 12.9943 105.188 12.7259C104.883 12.4541 104.472 12.3182 103.955 12.3182C103.498 12.3182 103.097 12.4375 102.752 12.6761C102.411 12.9115 102.144 13.2446 101.952 13.6754C101.763 14.103 101.669 14.6051 101.669 15.1818C101.669 15.7718 101.761 16.2855 101.947 16.723C102.136 17.1605 102.401 17.5002 102.742 17.7422C103.087 17.9841 103.491 18.1051 103.955 18.1051C104.26 18.1051 104.537 18.0521 104.786 17.946C105.034 17.84 105.245 17.6875 105.417 17.4886C105.589 17.2898 105.712 17.0511 105.785 16.7727L106.958 16.7727C106.892 17.2235 106.728 17.6295 106.466 17.9908C106.208 18.3487 105.865 18.6338 105.437 18.8459C105.013 19.0547 104.519 19.1591 103.955 19.1591ZM108.673 19V11.3636H109.847V19H108.673ZM109.27 10.0909C109.041 10.0909 108.844 10.013 108.678 9.85724C108.516 9.70147 108.435 9.5142 108.435 9.29545C108.435 9.0767 108.516 8.88944 108.678 8.73366C108.844 8.57789 109.041 8.5 109.27 8.5C109.499 8.5 109.694 8.57789 109.857 8.73366C110.022 8.88944 110.105 9.0767 110.105 9.29545C110.105 9.5142 110.022 9.70147 109.857 9.85724C109.694 10.013 109.499 10.0909 109.27 10.0909ZM115.098 19.1591C114.409 19.1591 113.804 18.995 113.283 18.6669C112.766 18.3388 112.362 17.8797 112.07 17.2898C111.782 16.6998 111.638 16.0104 111.638 15.2216C111.638 14.4261 111.782 13.7318 112.07 13.1385C112.362 12.5452 112.766 12.0845 113.283 11.7564C113.804 11.4283 114.409 11.2642 115.098 11.2642C115.787 11.2642 116.391 11.4283 116.908 11.7564C117.428 12.0845 117.832 12.5452 118.121 13.1385C118.412 13.7318 118.558 14.4261 118.558 15.2216C118.558 16.0104 118.412 16.6998 118.121 17.2898C117.832 17.8797 117.428 18.3388 116.908 18.6669C116.391 18.995 115.787 19.1591 115.098 19.1591ZM115.098 18.1051C115.622 18.1051 116.053 17.9709 116.391 17.7024C116.729 17.4339 116.979 17.081 117.141 16.6435C117.304 16.206 117.385 15.732 117.385 15.2216C117.385 14.7112 117.304 14.2356 117.141 13.7947C116.979 13.3539 116.729 12.9976 116.391 12.7259C116.053 12.4541 115.622 12.3182 115.098 12.3182C114.574 12.3182 114.143 12.4541 113.805 12.7259C113.467 12.9976 113.217 13.3539 113.055 13.7947C112.892 14.2356 112.811 14.7112 112.811 15.2216C112.811 15.732 112.892 16.206 113.055 16.6435C113.217 17.081 113.467 17.4339 113.805 17.7024C114.143 17.9709 114.574 18.1051 115.098 18.1051ZM121.523 14.4062V19H120.349V11.3636H121.483V12.5568H121.582C121.761 12.169 122.033 11.8575 122.398 11.6222C122.762 11.3835 123.233 11.2642 123.809 11.2642C124.327 11.2642 124.779 11.3703 125.167 11.5824C125.555 11.7912 125.856 12.1094 126.072 12.5369C126.287 12.9612 126.395 13.4981 126.395 14.1477V19H125.221V14.2273C125.221 13.6274 125.066 13.16 124.754 12.8253C124.443 12.4872 124.015 12.3182 123.471 12.3182C123.097 12.3182 122.762 12.3994 122.467 12.5618C122.175 12.7242 121.945 12.9612 121.776 13.2727C121.607 13.5843 121.523 13.9621 121.523 14.4062ZM131.74 19.1591C131.005 19.1591 130.37 18.9967 129.836 18.6719C129.306 18.3437 128.897 17.8864 128.608 17.2997C128.323 16.7098 128.181 16.0237 128.181 15.2415C128.181 14.4593 128.323 13.7699 128.608 13.1733C128.897 12.5734 129.298 12.1061 129.811 11.7713C130.328 11.4332 130.932 11.2642 131.621 11.2642C132.019 11.2642 132.412 11.3305 132.799 11.4631C133.187 11.5956 133.54 11.8111 133.858 12.1094C134.176 12.4044 134.43 12.7955 134.619 13.2827C134.808 13.7699 134.902 14.3698 134.902 15.0824V15.5795L129.016 15.5795V14.5653H133.709C133.709 14.1345 133.623 13.75 133.451 13.4119C133.282 13.0739 133.04 12.8071 132.725 12.6115C132.413 12.416 132.045 12.3182 131.621 12.3182C131.154 12.3182 130.749 12.4342 130.408 12.6662C130.07 12.8949 129.81 13.1932 129.627 13.5611C129.445 13.929 129.354 14.3234 129.354 14.7443V15.4205C129.354 15.9972 129.453 16.486 129.652 16.8871C129.855 17.2848 130.135 17.5881 130.493 17.7969C130.85 18.0024 131.266 18.1051 131.74 18.1051C132.049 18.1051 132.327 18.062 132.576 17.9759C132.828 17.8864 133.045 17.7538 133.227 17.5781C133.409 17.3991 133.55 17.1771 133.65 16.9119L134.783 17.2301C134.664 17.6146 134.463 17.9527 134.181 18.2443C133.9 18.5327 133.552 18.758 133.137 18.9205C132.723 19.0795 132.257 19.1591 131.74 19.1591ZM142.096 13.0739L141.042 13.3722C140.976 13.1965 140.878 13.0258 140.749 12.8601C140.623 12.6911 140.451 12.5518 140.232 12.4425C140.013 12.3331 139.733 12.2784 139.392 12.2784C138.924 12.2784 138.535 12.3861 138.223 12.6016C137.915 12.8137 137.761 13.0838 137.761 13.4119C137.761 13.7036 137.867 13.9339 138.079 14.103C138.291 14.272 138.623 14.4129 139.074 14.5256L140.207 14.804C140.89 14.9697 141.399 15.2232 141.733 15.5646C142.068 15.9027 142.235 16.3385 142.235 16.8722C142.235 17.3097 142.109 17.7008 141.858 18.0455C141.609 18.3902 141.261 18.6619 140.814 18.8608C140.366 19.0597 139.846 19.1591 139.252 19.1591C138.474 19.1591 137.829 18.9901 137.319 18.652C136.808 18.3139 136.485 17.8201 136.349 17.1705L137.463 16.892C137.569 17.303 137.769 17.6113 138.064 17.8168C138.363 18.0223 138.752 18.125 139.233 18.125C139.779 18.125 140.214 18.009 140.535 17.777C140.86 17.5417 141.022 17.2599 141.022 16.9318C141.022 16.6667 140.93 16.4446 140.744 16.2656C140.558 16.0833 140.273 15.9474 139.889 15.858L138.616 15.5597C137.917 15.3939 137.403 15.1371 137.075 14.7891C136.75 14.4377 136.588 13.9986 136.588 13.4716C136.588 13.0407 136.709 12.6596 136.951 12.3281C137.196 11.9967 137.529 11.7365 137.95 11.5476C138.374 11.3587 138.855 11.2642 139.392 11.2642C140.147 11.2642 140.741 11.4299 141.172 11.7614C141.606 12.0928 141.914 12.5303 142.096 13.0739Z" fill="#717171"/>
<defs>
<filter id="filter0_d_23_35" x="0.376709" y="25.2678" width="159.902" height="154.866" filterUnits="userSpaceOnUse" color-interpolation-filters="sRGB">
<feFlood flood-opacity="0" result="BackgroundImageFix"/>
<feColorMatrix in="SourceAlpha" type="matrix" values="0 0 0 0 0 0 0 0 0 0 0 0 0 0 0 0 0 0 127 0" result="hardAlpha"/>
<feOffset dx="2" dy="2"/>
<feGaussianBlur stdDeviation="5"/>
<feComposite in2="hardAlpha" operator="out"/>
<feColorMatrix type="matrix" values="0 0 0 0 0 0 0 0 0 0 0 0 0 0 0 0 0 0 0.1 0"/>
<feBlend mode="normal" in2="BackgroundImageFix" result="effect1_dropShadow_23_35"/>
<feBlend mode="normal" in="SourceGraphic" in2="effect1_dropShadow_23_35" result="shape"/>
</filter>
</defs>
</svg>
