<svg width="155" height="160" fill="none" xmlns="http://www.w3.org/2000/svg"><g filter="url(#a)"><path d="m89.766 145.24 43.302-25.034A19.882 19.882 0 0 0 143 102.983V52.92a19.889 19.889 0 0 0-9.932-17.223L89.765 10.664a19.845 19.845 0 0 0-19.862 0L26.6 35.697a19.89 19.89 0 0 0-9.93 17.223v19.44L8.28 77.955l8.388 5.593v19.441a19.89 19.89 0 0 0 9.931 17.223l43.303 25.033a19.853 19.853 0 0 0 19.862-.004Z" fill="#fff"/></g><path d="M77.443 85.999c-.314-.029-.63-.063-.944-.084-1.667-.11-3.349-.108-4.996-.353-2.55-.377-4.65-2.697-5.141-5.438a7.909 7.909 0 0 1 .12-3.337c.263-1.055.501-2.117.787-3.165.097-.354.014-.568-.229-.809-.834-.826-1.65-1.672-2.468-2.514-.977-1.005-1.093-2.16-.272-3.291.385-.529.393-.98.115-1.567-.455-.962-.838-1.963-1.196-2.968-.192-.54-.495-.818-1.052-.897-1.41-.2-2.155-1.1-2.162-2.56a407.056 407.056 0 0 1 0-4.15c.009-1.412.727-2.31 2.094-2.52.646-.097.946-.417 1.158-1.029.352-1.023.786-2.02 1.228-3.008.21-.467.199-.847-.094-1.268-.937-1.352-.84-2.385.3-3.553.925-.944 1.845-1.89 2.77-2.83.982-.995 2.104-1.108 3.217-.26.522.399.964.386 1.533.106.913-.45 1.859-.837 2.813-1.188.555-.203.866-.505.967-1.117.248-1.52 1.062-2.196 2.55-2.197 1.337-.002 2.674-.003 4.01 0 1.355.002 2.242.74 2.44 2.098.095.664.402 1.01 1.026 1.23.988.35 1.95.783 2.898 1.235.492.234.883.215 1.324-.11 1.233-.913 2.295-.817 3.365.272.947.964 1.894 1.928 2.835 2.9.972 1.003 1.075 2.149.25 3.292-.37.512-.387.95-.119 1.525.459.979.844 1.994 1.216 3.012.189.516.474.79 1.017.873 1.471.22 2.189 1.102 2.193 2.634.004 1.35.006 2.701-.001 4.051-.008 1.463-.755 2.364-2.16 2.564-.557.08-.86.354-1.055.895-.38 1.05-.801 2.084-1.255 3.102-.217.485-.216.873.091 1.311.922 1.32.825 2.38-.288 3.52-.798.817-1.587 1.644-2.402 2.445-.242.238-.28.45-.196.772.303 1.161.588 2.328.855 3.499.719 3.152-.795 6.556-3.507 7.935-.86.436-1.776.595-2.72.645-1.508.078-3.018.154-4.527.234-.125.007-.248.042-.372.064l-6.016-.001Zm15.812-14.523 2.047-2.097c.628-.645.666-.926.152-1.644-.652-.908-.684-1.824-.201-2.835.445-.931.845-1.894 1.167-2.875.365-1.113 1.063-1.728 2.183-1.896.736-.11.955-.379.96-1.137.004-1.35.004-2.701 0-4.051-.003-.783-.231-1.058-.985-1.167-1.105-.16-1.789-.776-2.152-1.866-.32-.966-.698-1.92-1.144-2.832-.52-1.06-.486-2.014.213-2.963.451-.615.412-.957-.11-1.493-.932-.957-1.867-1.913-2.801-2.866-.545-.556-.879-.596-1.497-.121-.913.701-1.839.743-2.856.221-.82-.422-1.668-.818-2.542-1.091-1.211-.379-1.94-1.094-2.104-2.407-.083-.665-.387-.886-1.036-.887-1.32-.004-2.642-.001-3.962-.001-.832 0-1.089.196-1.207 1.039-.16 1.147-.8 1.808-1.85 2.178-.914.321-1.825.68-2.683 1.13-1.067.559-2.023.535-2.979-.218-.556-.437-.917-.383-1.422.13-.914.93-1.823 1.864-2.735 2.796-.647.663-.678.922-.144 1.68.622.879.662 1.772.213 2.75-.45.984-.86 1.99-1.22 3.012-.365 1.04-1.034 1.641-2.098 1.804-.819.125-1.02.375-1.022 1.231-.003 1.302-.003 2.605 0 3.907 0 .863.186 1.095 1.016 1.233.971.16 1.66.656 2.03 1.62.438 1.149.916 2.28 1.387 3.416.328.79.299 1.549-.148 2.282-.118.193-.26.371-.374.565-.199.337-.234.716.037.999.797.834 1.627 1.635 2.467 2.472.05-.14.088-.276.144-.403.577-1.337 1.134-2.682 1.747-4.001.163-.35.16-.545-.09-.843-4.264-5.079-4.416-12.86-.369-18.129.384-.499.76-.607 1.13-.324.364.277.373.722.018 1.2-2.305 3.102-3.092 6.582-2.43 10.4.38 2.202 1.308 4.157 2.724 5.895l2.176-2.966c-.688-.534-1.064-1.228-1.01-2.133.053-.91.556-1.52 1.287-1.987-1.058-1.68-1.855-3.44-2.547-5.265-.785-2.066-.01-2.599 1.535-3.09.69-.218 1.414-.322 2.094-.472.03-.367-.006-.774.11-1.128.216-.662.81-.864 1.417-1.008 3.12-.734 6.237-.731 9.364-.02 1.091.248 1.81.851 1.542 2.109-.005.025.022.056.046.11.095.011.206.01.31.037.902.242 1.826.422 2.693.757.877.338 1.145 1.071.852 1.989-.206.648-.411 1.303-.694 1.918-.634 1.379-1.315 2.734-1.981 4.106 1.569 1.008 1.593 2.955.195 4.095l2.158 2.935c2.384-2.798 3.406-6.765 2.751-10.622-1.41-8.286-10.301-13.08-17.763-9.554-.832.393-1.592.943-2.381 1.427-.405.249-.825.197-1.055-.148-.226-.339-.147-.733.207-1.03.074-.062.153-.117.23-.173 3.479-2.483 7.3-3.258 11.432-2.325 6.208 1.403 10.808 7.181 10.95 13.682.08 3.701-1.04 6.967-3.364 9.801-.156.19-.232.326-.106.594.7 1.49 1.373 2.996 2.078 4.548Zm-12.808 13.13a7.91 7.91 0 0 0 .002-.176c1.544 0 3.087.01 4.628-.005.684-.007 1.37-.038 2.049-.111.976-.106 1.998-.108 2.912-.423 2.272-.784 3.705-3.637 3.206-6.159-.177-.89-.435-1.764-.623-2.653-.961-4.52-2.855-8.565-5.866-12.039-.138-.16-.38-.324-.575-.325-3.787-.02-7.573-.017-11.36-.005a.715.715 0 0 0-.484.216c-1.798 2.09-3.266 4.394-4.353 6.953-1.046 2.46-1.597 5.068-2.165 7.664-.172.783-.142 1.663.005 2.459.44 2.374 2.301 4.074 4.57 4.212 2.682.165 5.369.265 8.054.392Zm8.828-32.996a5.98 5.98 0 0 0-2.489-.689c-.372-.022-.55.068-.668.47-.477 1.628-1.204 3.143-2.091 4.577-.092.147-.218.36-.346.376-.273.033-.611.04-.825-.099-.313-.204-.306-.571-.125-.915.489-.928 1.045-1.83 1.436-2.8.48-1.192.819-2.442 1.238-3.727-3.323-.866-6.495-.867-9.776-.008.313 1.053.534 2.074.922 3.022.476 1.164 1.085 2.272 1.653 3.396.241.477.23.829-.096 1.092-.367.296-.82.178-1.12-.306a20.634 20.634 0 0 1-2.146-4.661c-.05-.16-.229-.39-.356-.396-.968-.043-1.88.195-2.76.675.676 2.231 1.633 4.287 2.93 6.174.078.116.286.196.435.198 3.61.01 7.221.011 10.83-.003a.645.645 0 0 0 .461-.243c1.265-1.87 2.214-3.899 2.893-6.133Zm-8.787 9.628c1.97 0 3.941.002 5.912 0 .206 0 .418.004.616-.04.404-.089.63-.362.657-.785.027-.422-.16-.727-.545-.874a1.486 1.486 0 0 0-.514-.074c-4.086-.004-8.17-.004-12.255 0-.157 0-.323.013-.469.065-.41.149-.603.464-.565.906.035.423.272.687.678.766.186.036.38.034.57.034 1.973.002 3.944.002 5.915.002Z" fill="#2069C4"/><path d="M80.37 64.484c4.521-.039 8.377 3.525 8.718 7.956.367 4.767-2.799 8.948-7.327 9.56-3.6.487-6.515-.837-8.483-3.942-1.948-3.074-1.886-6.288-.07-9.444.128-.222.403-.436.642-.485.192-.04.552.128.623.298.1.242.105.627-.022.85-.507.897-.878 1.83-1.052 2.855-.731 4.3 2.588 8.416 6.87 8.508 3.558.075 6.638-2.42 7.286-5.904.666-3.578-1.219-7.067-4.556-8.331-2.047-.775-4.058-.597-5.989.46-.098.053-.19.118-.288.169-.436.226-.828.128-1.032-.253-.19-.357-.08-.76.305-1.003a8.31 8.31 0 0 1 3.671-1.259c.27-.026.541-.027.704-.035Z" fill="#2069C4"/><path d="M81.194 68.77c.257.103.5.184.727.297.427.215.59.577.455.948-.136.369-.493.53-.95.426-.074-.017-.147-.038-.257-.068 0 .632-.014 1.232.013 1.832.004.114.146.276.26.322 1.079.435 1.757 1.187 1.752 2.412-.005 1.266-.635 2.14-1.758 2.66-.113.054-.24.206-.257.327-.09.67-.287.947-.73.945-.447 0-.673-.303-.716-.951-.003-.047-.022-.093-.013-.059-.54-.243-1.043-.435-1.513-.691-.415-.227-.522-.679-.312-1.037.212-.36.612-.438 1.04-.21.234.123.473.238.799.402 0-.992.022-1.879-.022-2.763-.006-.142-.291-.292-.47-.398-1.352-.804-1.664-2.365-.668-3.551.24-.285.609-.452.905-.69.106-.086.23-.214.247-.337.085-.61.306-.88.757-.864.441.017.654.302.688.925.001.034.012.065.023.122Zm.013 5.293v1.973c.755-.645.754-1.503 0-1.973Zm-1.509-2.312v-1.245c-.293.443-.37.792 0 1.245Z" fill="#2069C4"/><path d="M46.08 105h-1.058a2.194 2.194 0 0 0-.89-1.381 2.399 2.399 0 0 0-.73-.358 2.929 2.929 0 0 0-.834-.119c-.529 0-1.007.134-1.436.401-.426.267-.766.66-1.019 1.18-.25.52-.375 1.158-.375 1.913 0 .756.125 1.394.375 1.914.253.52.593.913 1.019 1.18.429.267.907.401 1.436.401.29 0 .568-.04.835-.12.267-.079.51-.197.729-.353a2.246 2.246 0 0 0 .89-1.385h1.057c-.08.446-.224.845-.435 1.197a3.274 3.274 0 0 1-1.836 1.458c-.387.127-.8.191-1.24.191-.745 0-1.407-.181-1.986-.545-.58-.364-1.036-.881-1.368-1.551-.332-.671-.499-1.466-.499-2.387 0-.92.167-1.716.499-2.386.332-.67.788-1.188 1.368-1.551.58-.364 1.241-.546 1.986-.546.44 0 .853.064 1.24.192.389.128.74.316 1.052.563a3.2 3.2 0 0 1 .784.895c.21.349.355.748.435 1.197Zm4.23 6.136c-.591 0-1.11-.14-1.556-.422a2.861 2.861 0 0 1-1.04-1.18c-.247-.506-.37-1.097-.37-1.773 0-.681.123-1.277.37-1.785.25-.509.597-.904 1.04-1.185.446-.281.965-.422 1.556-.422.59 0 1.107.141 1.55.422.447.281.793.676 1.04 1.185.25.508.375 1.104.375 1.785 0 .676-.125 1.267-.375 1.773a2.822 2.822 0 0 1-1.04 1.18c-.443.282-.96.422-1.55.422Zm0-.903c.448 0 .818-.115 1.107-.345.29-.23.505-.533.644-.908.14-.375.209-.781.209-1.219 0-.437-.07-.845-.21-1.223a2.065 2.065 0 0 0-.643-.916c-.29-.233-.659-.349-1.108-.349-.448 0-.818.116-1.107.349-.29.233-.505.539-.644.916-.14.378-.209.786-.209 1.223 0 .438.07.844.21 1.219.138.375.353.678.643.908.29.23.659.345 1.108.345Zm4.5.767v-6.545h.972v1.022h.085a1.65 1.65 0 0 1 .66-.814c.305-.196.67-.294 1.096-.294.432 0 .791.098 1.078.294.29.194.516.465.678.814h.068c.168-.338.419-.606.754-.805.335-.202.737-.303 1.206-.303.585 0 1.064.184 1.436.55.372.364.558.93.558 1.7V111h-1.005v-4.381c0-.483-.132-.828-.397-1.035a1.463 1.463 0 0 0-.933-.311c-.46 0-.817.139-1.07.417-.252.276-.379.625-.379 1.049V111h-1.022v-4.483c0-.372-.121-.672-.362-.899-.242-.23-.553-.345-.934-.345-.261 0-.505.069-.733.209a1.574 1.574 0 0 0-.545.579 1.71 1.71 0 0 0-.205.848V111h-1.005Zm10.43 2.455v-9h.972v1.039h.12c.073-.113.175-.258.306-.434a1.81 1.81 0 0 1 .571-.478c.25-.142.588-.213 1.014-.213.551 0 1.037.138 1.458.414.42.275.748.666.984 1.172.236.505.354 1.102.354 1.789 0 .694-.118 1.294-.354 1.803-.236.506-.563.898-.98 1.176-.418.276-.9.413-1.445.413-.42 0-.757-.069-1.01-.208a1.873 1.873 0 0 1-.584-.482 6.36 6.36 0 0 1-.315-.452h-.085v3.461H65.24Zm.989-5.728c0 .495.072.931.217 1.309.145.375.357.669.635.882.279.21.62.315 1.023.315.42 0 .771-.111 1.052-.332.285-.225.498-.526.64-.904.145-.381.217-.804.217-1.27 0-.46-.071-.875-.213-1.244a1.924 1.924 0 0 0-.635-.882c-.281-.219-.635-.328-1.061-.328-.41 0-.753.103-1.031.311a1.86 1.86 0 0 0-.631.861c-.142.366-.213.794-.213 1.282Zm9.068 3.409c-.63 0-1.175-.139-1.632-.417a2.806 2.806 0 0 1-1.053-1.176c-.244-.506-.366-1.094-.366-1.765 0-.67.122-1.261.366-1.772.248-.515.591-.915 1.032-1.202.443-.29.96-.435 1.55-.435.342 0 .678.057 1.01.171.333.113.636.298.908.554.273.253.49.588.652 1.005.162.418.243.932.243 1.543v.426h-5.045v-.869h4.023a2.15 2.15 0 0 0-.222-.989 1.67 1.67 0 0 0-.622-.686 1.747 1.747 0 0 0-.946-.251c-.4 0-.747.099-1.04.298-.29.196-.513.452-.669.767a2.252 2.252 0 0 0-.234 1.014v.58c0 .494.085.913.255 1.257.174.341.414.601.72.78.307.176.664.264 1.07.264.264 0 .503-.037.716-.111a1.53 1.53 0 0 0 .558-.341c.157-.153.277-.344.362-.571l.972.273a2.157 2.157 0 0 1-.516.869c-.241.247-.54.441-.894.58a3.326 3.326 0 0 1-1.198.204Zm5.246-4.074V111h-1.006v-6.545h.972v1.022h.085c.153-.332.386-.599.699-.801.312-.204.716-.307 1.21-.307.443 0 .831.091 1.163.273.333.179.591.452.776.818.185.364.277.824.277 1.381V111h-1.006v-4.091c0-.514-.133-.915-.4-1.202-.267-.289-.634-.434-1.1-.434-.32 0-.608.069-.86.209-.25.139-.448.342-.593.609-.145.267-.217.591-.217.971Zm10.65-1.142-.903.256a1.686 1.686 0 0 0-.252-.439 1.221 1.221 0 0 0-.443-.358c-.188-.093-.427-.14-.72-.14-.4 0-.734.092-1.002.277-.264.181-.396.413-.396.694 0 .25.091.448.273.593.182.144.466.265.852.362l.972.238c.585.142 1.021.36 1.308.652.287.29.43.664.43 1.121 0 .375-.108.71-.323 1.006a2.156 2.156 0 0 1-.895.699c-.384.17-.83.255-1.338.255-.668 0-1.22-.145-1.658-.434-.438-.29-.715-.713-.831-1.27l.955-.239c.09.352.262.617.515.793.256.176.59.264 1.002.264.468 0 .84-.099 1.116-.298.278-.202.418-.443.418-.725a.763.763 0 0 0-.239-.571c-.16-.156-.404-.272-.733-.349l-1.09-.256c-.6-.142-1.04-.362-1.322-.66-.278-.302-.417-.678-.417-1.13 0-.369.103-.696.31-.98a2.12 2.12 0 0 1 .857-.669 3.006 3.006 0 0 1 1.236-.243c.648 0 1.156.142 1.525.426.373.285.637.66.793 1.125Zm3.56 5.233c-.415 0-.792-.078-1.13-.234a1.94 1.94 0 0 1-.805-.686c-.2-.301-.299-.665-.299-1.091 0-.375.074-.679.222-.912.148-.236.345-.42.592-.554a3.12 3.12 0 0 1 .819-.298 10.1 10.1 0 0 1 .907-.162c.398-.051.72-.09.968-.115.25-.029.431-.075.545-.141.116-.065.175-.179.175-.341v-.034c0-.42-.115-.747-.346-.98-.227-.233-.572-.349-1.035-.349-.48 0-.856.105-1.13.315-.272.21-.464.435-.575.673l-.954-.341c.17-.397.398-.707.682-.929.287-.224.6-.38.937-.468a3.89 3.89 0 0 1 1.006-.137 4 4 0 0 1 .724.077c.276.048.541.149.797.303.259.153.473.385.644.694.17.31.255.725.255 1.244V111h-1.005v-.886h-.052a1.77 1.77 0 0 1-.34.456c-.16.162-.371.299-.635.413-.264.114-.587.17-.968.17Zm.153-.903c.397 0 .733-.078 1.005-.234a1.601 1.601 0 0 0 .836-1.385v-.921c-.043.051-.137.098-.282.141a4.63 4.63 0 0 1-.494.106 21.062 21.062 0 0 1-.963.128 3.89 3.89 0 0 0-.733.166 1.261 1.261 0 0 0-.545.337c-.137.148-.205.349-.205.605 0 .35.13.614.388.793.261.176.592.264.993.264Zm7.341.886c-.614 0-1.142-.145-1.585-.434a2.834 2.834 0 0 1-1.023-1.198c-.239-.508-.358-1.089-.358-1.743 0-.664.122-1.251.367-1.76a2.9 2.9 0 0 1 1.031-1.197c.443-.29.96-.435 1.551-.435.46 0 .875.086 1.244.256.37.17.672.409.908.716s.382.665.439 1.074h-1.006a1.553 1.553 0 0 0-.511-.793c-.262-.233-.614-.349-1.057-.349-.392 0-.736.102-1.031.307a1.986 1.986 0 0 0-.686.856c-.162.367-.243.797-.243 1.291 0 .506.079.946.238 1.321.162.375.39.666.682.874.296.207.642.311 1.04.311.261 0 .499-.046.712-.136.213-.091.393-.222.541-.392.148-.171.253-.375.315-.614h1.006a2.34 2.34 0 0 1-.422 1.044 2.364 2.364 0 0 1-.882.733c-.364.179-.787.268-1.27.268Zm4.044-.136v-6.545h1.006V111h-1.006Zm.511-7.636a.713.713 0 0 1-.507-.201.642.642 0 0 1-.208-.481c0-.188.069-.348.208-.482a.717.717 0 0 1 .507-.2c.196 0 .364.067.503.2a.639.639 0 0 1 .213.482.636.636 0 0 1-.213.481.7.7 0 0 1-.503.201Zm4.996 7.772c-.591 0-1.11-.14-1.556-.422a2.861 2.861 0 0 1-1.039-1.18c-.248-.506-.371-1.097-.371-1.773 0-.681.123-1.277.371-1.785.25-.509.596-.904 1.039-1.185.446-.281.965-.422 1.556-.422.591 0 1.108.141 1.551.422.446.281.793.676 1.04 1.185.25.508.375 1.104.375 1.785 0 .676-.125 1.267-.375 1.773a2.822 2.822 0 0 1-1.04 1.18c-.443.282-.96.422-1.551.422Zm0-.903c.449 0 .818-.115 1.108-.345.29-.23.504-.533.643-.908a3.48 3.48 0 0 0 .209-1.219c0-.437-.07-.845-.209-1.223a2.061 2.061 0 0 0-.643-.916c-.29-.233-.659-.349-1.108-.349-.449 0-.818.116-1.108.349-.29.233-.504.539-.644.916a3.518 3.518 0 0 0-.208 1.223c0 .438.069.844.208 1.219.14.375.354.678.644.908.29.23.659.345 1.108.345Zm-.46-6.665 1.039-1.977h1.176l-1.329 1.977h-.886Zm5.967 3.494V111h-1.006v-6.545h.971v1.022h.086c.153-.332.386-.599.699-.801.312-.204.715-.307 1.21-.307.443 0 .831.091 1.163.273.333.179.591.452.776.818.184.364.277.824.277 1.381V111h-1.006v-4.091c0-.514-.134-.915-.401-1.202-.267-.289-.633-.434-1.099-.434-.321 0-.608.069-.861.209-.25.139-.447.342-.592.609-.145.267-.217.591-.217.971Z" fill="#717171"/><defs><filter id="a" x=".281" y="0" width="154.718" height="159.904" filterUnits="userSpaceOnUse" color-interpolation-filters="sRGB"><feFlood flood-opacity="0" result="BackgroundImageFix"/><feColorMatrix in="SourceAlpha" values="0 0 0 0 0 0 0 0 0 0 0 0 0 0 0 0 0 0 127 0" result="hardAlpha"/><feOffset dx="2" dy="2"/><feGaussianBlur stdDeviation="5"/><feComposite in2="hardAlpha" operator="out"/><feColorMatrix values="0 0 0 0 0 0 0 0 0 0 0 0 0 0 0 0 0 0 0.1 0"/><feBlend in2="BackgroundImageFix" result="effect1_dropShadow_3_94"/><feBlend in="SourceGraphic" in2="effect1_dropShadow_3_94" result="shape"/></filter></defs></svg>