<svg width="161" height="180" viewBox="0 0 161 180" fill="none" xmlns="http://www.w3.org/2000/svg">
<g filter="url(#filter0_d_23_51)">
<path d="M145.656 85.9295L120.842 42.5003C117.322 36.3351 110.777 32.5179 103.67 32.4818L53.6033 32.2279C46.4998 32.1918 39.9128 35.9424 36.3299 42.0716L11.0771 85.2468C7.49421 91.376 7.45583 98.9438 10.9764 105.109L35.7899 148.538C39.3104 154.703 45.859 158.521 52.9624 158.557L72.4025 158.655L77.9531 167.071L83.5888 158.712L103.029 158.811C110.132 158.847 116.719 155.096 120.302 148.967L145.555 105.792C149.138 99.6625 149.176 92.0947 145.656 85.9295Z" fill="white"/>
</g>
<path d="M89.3523 78.5304C89.0064 78.8983 88.6637 79.26 88.2518 79.697C82.8243 75.9394 76.9659 74.6847 70.6045 76.4394C65.765 77.7726 61.9538 80.5901 59.1803 84.7659C53.5076 93.3127 55.0358 104.406 62.7966 111.239C70.2429 117.796 81.5601 117.849 89.17 111.349C96.6005 105.001 99.1539 93.5422 92.2233 83.6811C92.6101 83.3887 93.0472 83.0585 93.4874 82.7283C99.1539 89.0928 100.657 102.234 91.8994 111.255C83.3085 120.104 69.4033 120.261 60.5577 111.639C51.9196 103.218 51.8064 89.1839 60.2715 80.5209C68.8656 71.7289 82.167 72.3578 89.3523 78.5304Z" fill="#2DCF6E"/>
<path d="M94.4528 74.908C94.3428 73.6062 94.3648 72.2729 94.0849 71.0057C93.7327 69.4051 94.3333 68.3549 95.4496 67.3078C97.437 65.4494 99.3017 63.4621 101.261 61.5754C101.594 61.2546 102.22 60.9087 102.563 61.0219C102.883 61.1289 103.135 61.8081 103.198 62.2672C103.421 63.8708 103.6 65.4871 103.695 67.1034C103.748 68.0436 104.147 68.3643 105.044 68.4052C106.559 68.4712 108.075 68.5813 109.575 68.7762C110.081 68.8423 110.71 69.1096 110.965 69.4932C111.116 69.7227 110.751 70.468 110.43 70.7981C108.279 73.015 106.11 75.213 103.871 77.3355C103.443 77.7412 102.676 77.9801 102.072 77.9676C100.456 77.9393 98.8395 77.6248 97.2263 77.6405C96.4465 77.6468 95.4591 77.9235 94.9245 78.4487C89.2423 84.0144 83.6324 89.6556 78.0036 95.2748C77.6326 95.6459 77.3118 96.105 76.8685 96.3471C76.4848 96.5578 75.966 96.5137 75.5037 96.5829C75.5478 96.0767 75.4062 95.4195 75.6735 95.0956C76.4628 94.1271 77.4093 93.2844 78.2992 92.3976C83.3777 87.3381 88.475 82.2944 93.5189 77.2003C94.0755 76.6375 94.3522 75.7947 94.7578 75.0809C94.6572 75.0243 94.5534 74.9646 94.4528 74.908ZM97.9055 75.5275C97.9684 75.7067 98.0282 75.8891 98.0911 76.0683C99.5816 76.0683 101.449 76.6343 102.484 75.9488C104.537 74.5841 106.135 72.5308 107.918 70.7604C107.855 70.5938 107.789 70.4271 107.726 70.2636C106.195 70.2636 104.283 69.685 103.21 70.3894C101.185 71.7132 99.6445 73.7728 97.9055 75.5275ZM96.1823 73.9929C96.3333 74.0684 96.4842 74.147 96.6383 74.2225C98.3332 72.4804 100.038 70.7415 101.717 68.9838C101.877 68.8171 101.987 68.5121 101.968 68.2826C101.868 66.9587 101.72 65.6349 101.544 63.8363C99.503 65.8865 97.7514 67.6222 96.0408 69.3957C95.8647 69.5781 95.8584 69.9869 95.8773 70.2825C95.9591 71.5214 96.0785 72.7572 96.1823 73.9929Z" fill="#2DCF6E"/>
<path d="M84.2865 83.4736C83.6984 84.5521 83.0978 84.7282 81.9847 84.1559C77.0697 81.6278 71.2271 82.4485 67.2147 86.0929C63.1425 89.794 61.7526 95.4729 63.6676 100.592C65.5512 105.62 70.4976 109.104 75.8937 109.205C85.3839 109.384 92.0535 99.2809 88.148 90.6398C87.8901 90.0707 87.5977 89.5204 87.1952 88.7028C87.6008 88.4104 88.0568 88.0771 88.5127 87.7469C92.7988 93.3032 91.6353 102.199 85.9751 107.205C80.164 112.346 71.2271 112.167 65.677 106.799C59.913 101.227 59.4476 92.2247 64.6047 86.1684C69.4945 80.436 78.3621 79.1845 84.2865 83.4736Z" fill="#2DCF6E"/>
<path d="M83.1261 93.1774C84.5317 96.4886 83.3557 100.309 80.3621 102.325C77.3213 104.369 73.1579 103.963 70.5636 101.366C68.0323 98.8312 67.614 94.6837 69.592 91.6964C71.6233 88.6242 75.4377 87.4388 78.8653 88.8664C78.3496 89.8349 77.7018 90.1776 76.5163 90.0518C73.2491 89.7059 70.2995 92.3504 70.136 95.5798C69.9662 98.9035 72.5353 101.708 75.8308 101.8C79.2835 101.897 81.9815 99.3092 81.9218 95.8597C81.8998 94.7717 81.7928 93.7529 83.1261 93.1774Z" fill="#2DCF6E"/>
<path d="M11.523 13L11.523 2.81818L14.9633 2.81818C15.7621 2.81818 16.415 2.96236 16.9221 3.25071C17.4326 3.53575 17.8104 3.92187 18.0557 4.40909C18.3009 4.89631 18.4236 5.43987 18.4236 6.03977C18.4236 6.63968 18.3009 7.1849 18.0557 7.67543C17.8137 8.16596 17.4392 8.55705 16.9321 8.84872C16.425 9.13707 15.7754 9.28125 14.9832 9.28125H12.5173V8.1875H14.9434C15.4903 8.1875 15.9295 8.09304 16.2609 7.90412C16.5924 7.7152 16.8327 7.45999 16.9818 7.13849C17.1343 6.81368 17.2105 6.44744 17.2105 6.03977C17.2105 5.6321 17.1343 5.26752 16.9818 4.94602C16.8327 4.62453 16.5907 4.37263 16.2559 4.19034C15.9212 4.00473 15.4771 3.91193 14.9236 3.91193H12.7559L12.7559 13H11.523ZM21.4239 2.81818L21.4239 13H20.2506L20.2506 2.81818L21.4239 2.81818ZM25.82 13.179C25.3361 13.179 24.897 13.0878 24.5026 12.9055C24.1082 12.7199 23.795 12.4531 23.5629 12.1051C23.3309 11.7538 23.2149 11.3295 23.2149 10.8324C23.2149 10.3949 23.3011 10.0402 23.4735 9.76847C23.6458 9.49337 23.8762 9.27794 24.1645 9.12216C24.4529 8.96638 24.771 8.85038 25.1191 8.77415C25.4704 8.6946 25.8234 8.63163 26.178 8.58523C26.642 8.52557 27.0182 8.48082 27.3066 8.45099C27.5982 8.41785 27.8103 8.36316 27.9429 8.28693C28.0788 8.2107 28.1468 8.07812 28.1468 7.8892V7.84943C28.1468 7.3589 28.0125 6.97775 27.7441 6.70597C27.4789 6.43419 27.0762 6.2983 26.536 6.2983C25.9758 6.2983 25.5367 6.42093 25.2185 6.66619C24.9003 6.91146 24.6766 7.1733 24.5473 7.4517L23.4337 7.05398C23.6325 6.58996 23.8977 6.22869 24.2291 5.97017C24.5639 5.70833 24.9285 5.52604 25.3229 5.4233C25.7206 5.31723 26.1117 5.2642 26.4962 5.2642C26.7414 5.2642 27.0232 5.29403 27.3414 5.35369C27.6628 5.41004 27.9727 5.5277 28.271 5.70668C28.5727 5.88565 28.8229 6.15578 29.0218 6.51705C29.2206 6.87831 29.32 7.36222 29.32 7.96875L29.32 13H28.1468V11.9659H28.0871C28.0075 12.1316 27.875 12.3089 27.6894 12.4979C27.5038 12.6868 27.2568 12.8475 26.9486 12.9801C26.6404 13.1127 26.2642 13.179 25.82 13.179ZM25.999 12.125C26.463 12.125 26.8541 12.0339 27.1723 11.8516C27.4938 11.6693 27.7358 11.4339 27.8982 11.1456C28.0639 10.8572 28.1468 10.554 28.1468 10.2358V9.16193C28.097 9.22159 27.9877 9.27628 27.8186 9.32599C27.6529 9.3724 27.4607 9.41383 27.2419 9.45028C27.0265 9.48343 26.816 9.51326 26.6105 9.53977C26.4084 9.56297 26.2443 9.58286 26.1183 9.59943C25.8134 9.6392 25.5284 9.70384 25.2632 9.79332C25.0014 9.8795 24.7893 10.0104 24.6269 10.1861C24.4678 10.3584 24.3882 10.5937 24.3882 10.892C24.3882 11.2997 24.539 11.608 24.8406 11.8168C25.1456 12.0223 25.5317 12.125 25.999 12.125ZM32.6349 8.40625V13H31.4616L31.4616 5.36364H32.5951V6.55682H32.6945C32.8735 6.16903 33.1453 5.85748 33.5099 5.62216C33.8744 5.38352 34.3451 5.2642 34.9218 5.2642C35.4388 5.2642 35.8912 5.37027 36.279 5.58239C36.6668 5.79119 36.9684 6.10937 37.1839 6.53693C37.3993 6.96117 37.507 7.49811 37.507 8.14773V13H36.3337V8.22727C36.3337 7.62737 36.1779 7.16004 35.8664 6.82528C35.5548 6.48722 35.1273 6.31818 34.5837 6.31818C34.2092 6.31818 33.8744 6.39938 33.5795 6.56179C33.2878 6.72419 33.0574 6.96117 32.8884 7.27273C32.7194 7.58428 32.6349 7.96212 32.6349 8.40625ZM42.8527 13.1591C42.1169 13.1591 41.4822 12.9967 40.9486 12.6719C40.4183 12.3437 40.009 11.8864 39.7206 11.2997C39.4356 10.7098 39.2931 10.0237 39.2931 9.24148C39.2931 8.45928 39.4356 7.76989 39.7206 7.1733C40.009 6.57339 40.41 6.10606 40.9237 5.77131C41.4408 5.43324 42.044 5.2642 42.7334 5.2642C43.1311 5.2642 43.5239 5.33049 43.9117 5.46307C44.2994 5.59564 44.6524 5.81108 44.9706 6.10937C45.2888 6.40436 45.5423 6.79545 45.7313 7.28267C45.9202 7.76989 46.0146 8.36979 46.0146 9.08239V9.57955L40.1283 9.57955V8.56534L44.8215 8.56534C44.8215 8.13447 44.7353 7.75 44.5629 7.41193C44.3939 7.07386 44.152 6.80705 43.8371 6.61151C43.5255 6.41596 43.1576 6.31818 42.7334 6.31818C42.2661 6.31818 41.8617 6.43419 41.5203 6.66619C41.1823 6.89489 40.9221 7.19318 40.7398 7.56108C40.5575 7.92898 40.4664 8.32339 40.4664 8.74432V9.42045C40.4664 9.99716 40.5658 10.486 40.7646 10.8871C40.9668 11.2848 41.2469 11.5881 41.6048 11.7969C41.9628 12.0024 42.3788 12.1051 42.8527 12.1051C43.161 12.1051 43.4394 12.062 43.6879 11.9759C43.9398 11.8864 44.1569 11.7538 44.3392 11.5781C44.5215 11.3991 44.6624 11.1771 44.7618 10.9119L45.8953 11.2301C45.776 11.6146 45.5755 11.9527 45.2938 12.2443C45.012 12.5327 44.664 12.758 44.2497 12.9205C43.8354 13.0795 43.3698 13.1591 42.8527 13.1591ZM53.2085 7.07386L52.1546 7.37216C52.0883 7.1965 51.9905 7.0258 51.8612 6.86009C51.7353 6.69105 51.5629 6.55185 51.3442 6.44247C51.1254 6.3331 50.8454 6.27841 50.504 6.27841C50.0367 6.27841 49.6472 6.38613 49.3357 6.60156C49.0274 6.81368 48.8733 7.08381 48.8733 7.41193C48.8733 7.7036 48.9794 7.93395 49.1915 8.10298C49.4036 8.27202 49.7351 8.41288 50.1858 8.52557L51.3193 8.80398C52.0021 8.9697 52.5109 9.22325 52.8456 9.56463C53.1804 9.9027 53.3477 10.3385 53.3477 10.8722C53.3477 11.3097 53.2218 11.7008 52.9699 12.0455C52.7213 12.3902 52.3733 12.6619 51.9259 12.8608C51.4784 13.0597 50.9581 13.1591 50.3648 13.1591C49.5859 13.1591 48.9413 12.9901 48.4308 12.652C47.9204 12.3139 47.5973 11.8201 47.4614 11.1705L48.575 10.892C48.6811 11.303 48.8816 11.6113 49.1766 11.8168C49.4749 12.0223 49.8643 12.125 50.3449 12.125C50.8918 12.125 51.326 12.009 51.6475 11.777C51.9723 11.5417 52.1347 11.2599 52.1347 10.9318C52.1347 10.6667 52.0419 10.4446 51.8563 10.2656C51.6707 10.0833 51.3856 9.94744 51.0012 9.85795L49.7284 9.55966C49.0291 9.39394 48.5154 9.13707 48.1872 8.78906C47.8624 8.43774 47.7 7.99858 47.7 7.47159C47.7 7.04072 47.821 6.65956 48.0629 6.32812C48.3082 5.99669 48.6413 5.73651 49.0622 5.54758C49.4865 5.35866 49.9671 5.2642 50.504 5.2642C51.2597 5.2642 51.853 5.42992 52.2838 5.76136C52.718 6.0928 53.0262 6.5303 53.2085 7.07386ZM61.9349 13.1591C61.2986 13.1591 60.7368 12.9983 60.2496 12.6768C59.7623 12.352 59.3812 11.8946 59.1061 11.3047C58.831 10.7114 58.6934 10.0104 58.6934 9.2017C58.6934 8.39962 58.831 7.7036 59.1061 7.11364C59.3812 6.52367 59.764 6.06794 60.2545 5.74645C60.7451 5.42495 61.3118 5.2642 61.9548 5.2642C62.452 5.2642 62.8447 5.34706 63.1331 5.51278C63.4247 5.67519 63.6468 5.8608 63.7993 6.0696C63.955 6.27509 64.076 6.44413 64.1622 6.5767H64.2616V2.81818L65.4349 2.81818V13H64.3014V11.8267H64.1622C64.076 11.9659 63.9534 12.1416 63.7943 12.3537C63.6352 12.5625 63.4082 12.7498 63.1132 12.9155C62.8182 13.0779 62.4255 13.1591 61.9349 13.1591ZM62.094 12.1051C62.5647 12.1051 62.9624 11.9825 63.2872 11.7372C63.612 11.4886 63.8589 11.1456 64.028 10.7081C64.197 10.2673 64.2815 9.75852 64.2815 9.18182C64.2815 8.61174 64.1987 8.11293 64.0329 7.68537C63.8672 7.2545 63.622 6.91974 63.2971 6.68111C62.9723 6.43916 62.5713 6.31818 62.094 6.31818C61.5969 6.31818 61.1826 6.44579 60.8511 6.70099C60.523 6.95289 60.2761 7.29593 60.1104 7.73011C59.9479 8.16098 59.8667 8.64489 59.8667 9.18182C59.8667 9.72538 59.9496 10.2192 60.1153 10.6634C60.2844 11.1042 60.5329 11.4555 60.8611 11.7173C61.1925 11.9759 61.6035 12.1051 62.094 12.1051ZM70.9484 13.1591C70.2126 13.1591 69.5779 12.9967 69.0443 12.6719C68.514 12.3437 68.1047 11.8864 67.8163 11.2997C67.5313 10.7098 67.3888 10.0237 67.3888 9.24148C67.3888 8.45928 67.5313 7.76989 67.8163 7.1733C68.1047 6.57339 68.5057 6.10606 69.0194 5.77131C69.5365 5.43324 70.1397 5.2642 70.8291 5.2642C71.2268 5.2642 71.6196 5.33049 72.0074 5.46307C72.3952 5.59564 72.7481 5.81108 73.0663 6.10937C73.3845 6.40436 73.6381 6.79545 73.827 7.28267C74.0159 7.76989 74.1104 8.36979 74.1104 9.08239V9.57955H68.224V8.56534H72.9172C72.9172 8.13447 72.831 7.75 72.6586 7.41193C72.4896 7.07386 72.2477 6.80705 71.9328 6.61151C71.6212 6.41596 71.2533 6.31818 70.8291 6.31818C70.3618 6.31818 69.9574 6.43419 69.616 6.66619C69.278 6.89489 69.0178 7.19318 68.8355 7.56108C68.6532 7.92898 68.5621 8.32339 68.5621 8.74432V9.42045C68.5621 9.99716 68.6615 10.486 68.8604 10.8871C69.0625 11.2848 69.3426 11.5881 69.7006 11.7969C70.0585 12.0024 70.4745 12.1051 70.9484 12.1051C71.2567 12.1051 71.5351 12.062 71.7836 11.9759C72.0355 11.8864 72.2526 11.7538 72.4349 11.5781C72.6172 11.3991 72.7581 11.1771 72.8575 10.9119L73.991 11.2301C73.8717 11.6146 73.6712 11.9527 73.3895 12.2443C73.1077 12.5327 72.7597 12.758 72.3454 12.9205C71.9311 13.0795 71.4655 13.1591 70.9484 13.1591ZM83.1338 13H79.9917V2.81818L83.273 2.81818C84.2607 2.81818 85.1059 3.02202 85.8085 3.42969C86.5112 3.83404 87.0497 4.41572 87.4243 5.17472C87.7988 5.9304 87.9861 6.83523 87.9861 7.8892C87.9861 8.94981 87.7971 9.86293 87.4193 10.6286C87.0415 11.3909 86.4913 11.9775 85.7687 12.3885C85.0462 12.7962 84.1679 13 83.1338 13ZM81.2247 11.9062H83.0542C83.8961 11.9062 84.5938 11.7438 85.1473 11.419C85.7008 11.0942 86.1134 10.6319 86.3852 10.032C86.657 9.43205 86.7929 8.7178 86.7929 7.8892C86.7929 7.06723 86.6586 6.35961 86.3902 5.76633C86.1217 5.16974 85.7207 4.71236 85.1871 4.39418C84.6534 4.07268 83.9889 3.91193 83.1934 3.91193L81.2247 3.91193V11.9062ZM93.0969 13.1591C92.3611 13.1591 91.7264 12.9967 91.1927 12.6719C90.6624 12.3437 90.2531 11.8864 89.9648 11.2997C89.6797 10.7098 89.5372 10.0237 89.5372 9.24148C89.5372 8.45928 89.6797 7.76989 89.9648 7.1733C90.2531 6.57339 90.6541 6.10606 91.1679 5.77131C91.6849 5.43324 92.2881 5.2642 92.9775 5.2642C93.3753 5.2642 93.768 5.33049 94.1558 5.46307C94.5436 5.59564 94.8966 5.81108 95.2148 6.10937C95.5329 6.40436 95.7865 6.79545 95.9754 7.28267C96.1643 7.76989 96.2588 8.36979 96.2588 9.08239V9.57955H90.3724V8.56534H95.0656C95.0656 8.13447 94.9794 7.75 94.8071 7.41193C94.6381 7.07386 94.3961 6.80705 94.0812 6.61151C93.7697 6.41596 93.4018 6.31818 92.9775 6.31818C92.5102 6.31818 92.1059 6.43419 91.7645 6.66619C91.4264 6.89489 91.1662 7.19318 90.9839 7.56108C90.8016 7.92898 90.7105 8.32339 90.7105 8.74432V9.42045C90.7105 9.99716 90.8099 10.486 91.0088 10.8871C91.211 11.2848 91.491 11.5881 91.849 11.7969C92.2069 12.0024 92.6229 12.1051 93.0969 12.1051C93.4051 12.1051 93.6835 12.062 93.9321 11.9759C94.184 11.8864 94.4011 11.7538 94.5834 11.5781C94.7657 11.3991 94.9065 11.1771 95.0059 10.9119L96.1395 11.2301C96.0202 11.6146 95.8196 11.9527 95.5379 12.2443C95.2562 12.5327 94.9082 12.758 94.4939 12.9205C94.0796 13.0795 93.6139 13.1591 93.0969 13.1591ZM103.453 7.07386L102.399 7.37216C102.332 7.1965 102.235 7.0258 102.105 6.86009C101.979 6.69105 101.807 6.55185 101.588 6.44247C101.37 6.3331 101.09 6.27841 100.748 6.27841C100.281 6.27841 99.8914 6.38613 99.5798 6.60156C99.2716 6.81368 99.1175 7.08381 99.1175 7.41193C99.1175 7.7036 99.2235 7.93395 99.4356 8.10298C99.6478 8.27202 99.9792 8.41288 100.43 8.52557L101.563 8.80398C102.246 8.9697 102.755 9.22325 103.09 9.56463C103.425 9.9027 103.592 10.3385 103.592 10.8722C103.592 11.3097 103.466 11.7008 103.214 12.0455C102.965 12.3902 102.617 12.6619 102.17 12.8608C101.723 13.0597 101.202 13.1591 100.609 13.1591C99.83 13.1591 99.1854 12.9901 98.675 12.652C98.1646 12.3139 97.8414 11.8201 97.7055 11.1705L98.8192 10.892C98.9252 11.303 99.1257 11.6113 99.4207 11.8168C99.719 12.0223 100.108 12.125 100.589 12.125C101.136 12.125 101.57 12.009 101.892 11.777C102.216 11.5417 102.379 11.2599 102.379 10.9318C102.379 10.6667 102.286 10.4446 102.1 10.2656C101.915 10.0833 101.63 9.94744 101.245 9.85795L99.9726 9.55966C99.2732 9.39394 98.7595 9.13707 98.4314 8.78906C98.1066 8.43774 97.9442 7.99858 97.9442 7.47159C97.9442 7.04072 98.0651 6.65956 98.3071 6.32812C98.5523 5.99669 98.8854 5.73651 99.3064 5.54758C99.7306 5.35866 100.211 5.2642 100.748 5.2642C101.504 5.2642 102.097 5.42992 102.528 5.76136C102.962 6.0928 103.27 6.5303 103.453 7.07386ZM107.605 13.179C107.121 13.179 106.682 13.0878 106.288 12.9055C105.893 12.7199 105.58 12.4531 105.348 12.1051C105.116 11.7538 105 11.3295 105 10.8324C105 10.3949 105.086 10.0402 105.259 9.76847C105.431 9.49337 105.661 9.27794 105.95 9.12216C106.238 8.96638 106.556 8.85038 106.904 8.77415C107.256 8.6946 107.609 8.63163 107.963 8.58523C108.427 8.52557 108.803 8.48082 109.092 8.45099C109.383 8.41785 109.595 8.36316 109.728 8.28693C109.864 8.2107 109.932 8.07812 109.932 7.8892V7.84943C109.932 7.3589 109.798 6.97775 109.529 6.70597C109.264 6.43419 108.861 6.2983 108.321 6.2983C107.761 6.2983 107.322 6.42093 107.004 6.66619C106.685 6.91146 106.462 7.1733 106.332 7.4517L105.219 7.05398C105.418 6.58996 105.683 6.22869 106.014 5.97017C106.349 5.70833 106.714 5.52604 107.108 5.4233C107.506 5.31723 107.897 5.2642 108.281 5.2642C108.527 5.2642 108.808 5.29403 109.127 5.35369C109.448 5.41004 109.758 5.5277 110.056 5.70668C110.358 5.88565 110.608 6.15578 110.807 6.51705C111.006 6.87831 111.105 7.36222 111.105 7.96875V13H109.932V11.9659H109.872C109.793 12.1316 109.66 12.3089 109.475 12.4979C109.289 12.6868 109.042 12.8475 108.734 12.9801C108.426 13.1127 108.049 13.179 107.605 13.179ZM107.784 12.125C108.248 12.125 108.639 12.0339 108.957 11.8516C109.279 11.6693 109.521 11.4339 109.683 11.1456C109.849 10.8572 109.932 10.554 109.932 10.2358V9.16193C109.882 9.22159 109.773 9.27628 109.604 9.32599C109.438 9.3724 109.246 9.41383 109.027 9.45028C108.812 9.48343 108.601 9.51326 108.396 9.53977C108.194 9.56297 108.029 9.58286 107.903 9.59943C107.599 9.6392 107.314 9.70384 107.048 9.79332C106.787 9.8795 106.574 10.0104 106.412 10.1861C106.253 10.3584 106.173 10.5937 106.173 10.892C106.173 11.2997 106.324 11.608 106.626 11.8168C106.931 12.0223 107.317 12.125 107.784 12.125ZM113.247 13V5.36364H114.38V6.51705H114.46C114.599 6.1392 114.851 5.83262 115.215 5.5973C115.58 5.36198 115.991 5.24432 116.448 5.24432C116.535 5.24432 116.642 5.24597 116.772 5.24929C116.901 5.2526 116.999 5.25758 117.065 5.2642V6.45739C117.025 6.44744 116.934 6.43253 116.791 6.41264C116.652 6.38944 116.505 6.37784 116.349 6.37784C115.978 6.37784 115.646 6.45573 115.355 6.61151C115.066 6.76397 114.838 6.97609 114.669 7.24787C114.503 7.51634 114.42 7.82292 114.42 8.16761V13H113.247ZM118.456 13V5.36364H119.589V6.51705H119.669C119.808 6.1392 120.06 5.83262 120.424 5.5973C120.789 5.36198 121.2 5.24432 121.657 5.24432C121.744 5.24432 121.851 5.24597 121.981 5.24929C122.11 5.2526 122.208 5.25758 122.274 5.2642V6.45739C122.234 6.44744 122.143 6.43253 122 6.41264C121.861 6.38944 121.714 6.37784 121.558 6.37784C121.187 6.37784 120.855 6.45573 120.564 6.61151C120.275 6.76397 120.047 6.97609 119.878 7.24787C119.712 7.51634 119.629 7.82292 119.629 8.16761V13L118.456 13ZM126.535 13.1591C125.845 13.1591 125.24 12.995 124.72 12.6669C124.203 12.3388 123.799 11.8797 123.507 11.2898C123.218 10.6998 123.074 10.0104 123.074 9.22159C123.074 8.42614 123.218 7.73177 123.507 7.13849C123.799 6.54522 124.203 6.08452 124.72 5.75639C125.24 5.42827 125.845 5.2642 126.535 5.2642C127.224 5.2642 127.827 5.42827 128.344 5.75639C128.865 6.08452 129.269 6.54522 129.557 7.13849C129.849 7.73177 129.995 8.42614 129.995 9.22159C129.995 10.0104 129.849 10.6998 129.557 11.2898C129.269 11.8797 128.865 12.3388 128.344 12.6669C127.827 12.995 127.224 13.1591 126.535 13.1591ZM126.535 12.1051C127.058 12.1051 127.489 11.9709 127.827 11.7024C128.165 11.4339 128.415 11.081 128.578 10.6435C128.74 10.206 128.821 9.73201 128.821 9.22159C128.821 8.71117 128.74 8.23556 128.578 7.79474C128.415 7.35393 128.165 6.99763 127.827 6.72585C127.489 6.45407 127.058 6.31818 126.535 6.31818C126.011 6.31818 125.58 6.45407 125.242 6.72585C124.904 6.99763 124.654 7.35393 124.491 7.79474C124.329 8.23556 124.248 8.71117 124.248 9.22159C124.248 9.73201 124.329 10.206 124.491 10.6435C124.654 11.081 124.904 11.4339 125.242 11.7024C125.58 11.9709 126.011 12.1051 126.535 12.1051ZM132.959 2.81818V13H131.786V2.81818H132.959ZM136.281 2.81818V13H135.108V2.81818H136.281ZM141.533 13.1591C140.843 13.1591 140.238 12.995 139.718 12.6669C139.201 12.3388 138.797 11.8797 138.505 11.2898C138.217 10.6998 138.072 10.0104 138.072 9.22159C138.072 8.42614 138.217 7.73177 138.505 7.13849C138.797 6.54522 139.201 6.08452 139.718 5.75639C140.238 5.42827 140.843 5.2642 141.533 5.2642C142.222 5.2642 142.825 5.42827 143.342 5.75639C143.863 6.08452 144.267 6.54522 144.555 7.13849C144.847 7.73177 144.993 8.42614 144.993 9.22159C144.993 10.0104 144.847 10.6998 144.555 11.2898C144.267 11.8797 143.863 12.3388 143.342 12.6669C142.825 12.995 142.222 13.1591 141.533 13.1591ZM141.533 12.1051C142.056 12.1051 142.487 11.9709 142.825 11.7024C143.163 11.4339 143.414 11.081 143.576 10.6435C143.738 10.206 143.82 9.73201 143.82 9.22159C143.82 8.71117 143.738 8.23556 143.576 7.79474C143.414 7.35393 143.163 6.99763 142.825 6.72585C142.487 6.45407 142.056 6.31818 141.533 6.31818C141.009 6.31818 140.578 6.45407 140.24 6.72585C139.902 6.99763 139.652 7.35393 139.489 7.79474C139.327 8.23556 139.246 8.71117 139.246 9.22159C139.246 9.73201 139.327 10.206 139.489 10.6435C139.652 11.081 139.902 11.4339 140.24 11.7024C140.578 11.9709 141.009 12.1051 141.533 12.1051Z" fill="#717171"/>
<defs>
<filter id="filter0_d_23_51" x="0.362694" y="24.2276" width="159.907" height="154.844" filterUnits="userSpaceOnUse" color-interpolation-filters="sRGB">
<feFlood flood-opacity="0" result="BackgroundImageFix"/>
<feColorMatrix in="SourceAlpha" type="matrix" values="0 0 0 0 0 0 0 0 0 0 0 0 0 0 0 0 0 0 127 0" result="hardAlpha"/>
<feOffset dx="2" dy="2"/>
<feGaussianBlur stdDeviation="5"/>
<feComposite in2="hardAlpha" operator="out"/>
<feColorMatrix type="matrix" values="0 0 0 0 0 0 0 0 0 0 0 0 0 0 0 0 0 0 0.1 0"/>
<feBlend mode="normal" in2="BackgroundImageFix" result="effect1_dropShadow_23_51"/>
<feBlend mode="normal" in="SourceGraphic" in2="effect1_dropShadow_23_51" result="shape"/>
</filter>
</defs>
</svg>
