<svg width="155" height="160" viewBox="0 0 155 160" fill="none" xmlns="http://www.w3.org/2000/svg">
<g filter="url(#filter0_d_3_98)">
<path d="M89.7655 145.244L133.068 120.211C139.216 116.659 143 110.095 143 102.988L143 52.9205C143 45.817 139.216 39.2491 133.068 35.6973L89.7655 10.6638C83.6183 7.11206 76.0504 7.11206 69.9031 10.6638L26.6003 35.6973C20.4531 39.2491 16.6691 45.817 16.6691 52.9205L16.6691 72.3607L8.28128 77.954L16.6691 83.5472L16.6691 102.988C16.6691 110.091 20.453 116.659 26.6003 120.211L69.9031 145.244C76.0504 148.796 83.6182 148.796 89.7655 145.244Z" fill="white"/>
</g>
<path d="M86.3901 44.07C86.0928 44.3863 85.7981 44.6972 85.444 45.0729C80.7783 41.8426 75.7422 40.7641 70.2736 42.2724C66.1133 43.4186 62.837 45.8406 60.4528 49.4304C55.5762 56.7775 56.89 66.3143 63.5615 72.1882C69.9627 77.8243 79.6916 77.8703 86.2333 72.2828C92.621 66.8252 94.816 56.9749 88.8582 48.4978C89.1907 48.2464 89.5664 47.9626 89.9448 47.6787C94.816 53.1499 96.1082 64.4464 88.5797 72.2017C81.1945 79.8084 69.2409 79.9436 61.6368 72.5315C54.2111 65.2925 54.1138 53.2283 61.3908 45.7811C68.7787 38.2231 80.2133 38.7637 86.3901 44.07Z" fill="#2DCF6E"/>
<path d="M90.7747 40.956C90.6801 39.8369 90.699 38.6907 90.4585 37.6014C90.1557 36.2255 90.672 35.3226 91.6317 34.4225C93.3401 32.8249 94.9431 31.1165 96.6272 29.4946C96.9137 29.2189 97.4517 28.9216 97.7463 29.0189C98.022 29.1108 98.2383 29.6947 98.2924 30.0893C98.4843 31.4679 98.6384 32.8573 98.7195 34.2468C98.7654 35.055 99.1087 35.3307 99.8792 35.3659C101.182 35.4226 102.485 35.5172 103.774 35.6848C104.21 35.7416 104.75 35.9714 104.969 36.3012C105.099 36.4985 104.785 37.1391 104.51 37.423C102.661 39.3287 100.796 41.2182 98.8709 43.0428C98.5032 43.3915 97.8436 43.597 97.3246 43.5862C95.9352 43.5618 94.5457 43.2915 93.159 43.305C92.4886 43.3104 91.6398 43.5483 91.1802 43.9997C86.2955 48.7843 81.473 53.6338 76.6342 58.4643C76.3152 58.7833 76.0395 59.1779 75.6584 59.3861C75.3286 59.5672 74.8825 59.5294 74.4852 59.5888C74.523 59.1536 74.4014 58.5887 74.6311 58.3102C75.3097 57.4777 76.1233 56.7532 76.8883 55.9909C81.254 51.6416 85.6359 47.3057 89.9719 42.9266C90.4503 42.4427 90.6882 41.7183 91.0369 41.1047C90.9504 41.056 90.8612 41.0046 90.7747 40.956ZM93.7429 41.4885C93.7969 41.6426 93.8483 41.7994 93.9023 41.9535C95.1837 41.9535 96.7894 42.44 97.6787 41.8507C99.4439 40.6776 100.817 38.9124 102.35 37.3905C102.296 37.2473 102.239 37.104 102.185 36.9634C100.869 36.9634 99.225 36.4661 98.3032 37.0716C96.5623 38.2096 95.2377 39.9802 93.7429 41.4885ZM92.2615 40.1694C92.3913 40.2342 92.521 40.3018 92.6535 40.3667C94.1105 38.8692 95.5756 37.3743 97.0192 35.8632C97.157 35.72 97.2516 35.4578 97.2354 35.2604C97.1489 34.1224 97.0219 32.9844 96.8705 31.4382C95.1161 33.2006 93.6104 34.6928 92.1399 36.2174C91.9885 36.3741 91.9831 36.7256 91.9993 36.9797C92.0696 38.0447 92.1723 39.107 92.2615 40.1694Z" fill="#2DCF6E"/>
<path d="M82.0352 48.3194C81.5297 49.2466 81.0134 49.3979 80.0565 48.906C75.8314 46.7326 70.8088 47.4382 67.3595 50.5711C63.8588 53.7527 62.664 58.6346 64.3103 63.0353C65.9295 67.3577 70.1817 70.3528 74.8204 70.4393C82.9787 70.5934 88.7122 61.9081 85.3548 54.4799C85.1331 53.9906 84.8817 53.5175 84.5357 52.8147C84.8844 52.5633 85.2764 52.2768 85.6684 51.993C89.3528 56.7694 88.3527 64.4167 83.4869 68.7201C78.4913 73.1397 70.8088 72.9857 66.0376 68.3714C61.0826 63.5814 60.6826 55.8423 65.1158 50.636C69.3193 45.7081 76.9424 44.6323 82.0352 48.3194Z" fill="#2DCF6E"/>
<path d="M81.0378 56.6613C82.2461 59.5077 81.2351 62.7921 78.6616 64.5248C76.0476 66.2818 72.4686 65.9331 70.2384 63.7003C68.0623 61.5216 67.7028 57.9561 69.4031 55.3881C71.1494 52.7471 74.4284 51.7281 77.3749 52.9553C76.9316 53.7879 76.3747 54.0825 75.3556 53.9744C72.547 53.677 70.0114 55.9504 69.8708 58.7265C69.7248 61.5838 71.9333 63.995 74.7663 64.0734C77.7344 64.1572 80.0538 61.9325 80.0024 58.9671C79.9835 58.0318 79.8916 57.156 81.0378 56.6613Z" fill="#2DCF6E"/>
<path d="M53.4001 106V97.2727H56.3489C57.0336 97.2727 57.5933 97.3963 58.0279 97.6435C58.4654 97.8878 58.7893 98.2188 58.9995 98.6364C59.2097 99.054 59.3149 99.5199 59.3149 100.034C59.3149 100.548 59.2097 101.016 58.9995 101.436C58.7921 101.857 58.4711 102.192 58.0364 102.442C57.6018 102.689 57.045 102.812 56.366 102.812H54.2524V101.875H56.3319C56.8006 101.875 57.1771 101.794 57.4612 101.632C57.7453 101.47 57.9512 101.251 58.0791 100.976C58.2097 100.697 58.2751 100.384 58.2751 100.034C58.2751 99.6847 58.2097 99.3722 58.0791 99.0966C57.9512 98.821 57.7438 98.6051 57.4569 98.4489C57.17 98.2898 56.7893 98.2102 56.3149 98.2102H54.4569V106H53.4001ZM61.8866 97.2727V106H60.8809V97.2727H61.8866ZM65.6547 106.153C65.2399 106.153 64.8635 106.075 64.5254 105.919C64.1874 105.76 63.9189 105.531 63.72 105.233C63.5212 104.932 63.4217 104.568 63.4217 104.142C63.4217 103.767 63.4956 103.463 63.6433 103.23C63.7911 102.994 63.9885 102.81 64.2357 102.676C64.4828 102.543 64.7555 102.443 65.0538 102.378C65.355 102.31 65.6575 102.256 65.9615 102.216C66.3592 102.165 66.6817 102.126 66.9288 102.101C67.1788 102.072 67.3607 102.026 67.4743 101.96C67.5908 101.895 67.649 101.781 67.649 101.619V101.585C67.649 101.165 67.534 100.838 67.3038 100.605C67.0766 100.372 66.7314 100.256 66.2683 100.256C65.7882 100.256 65.4118 100.361 65.1391 100.571C64.8663 100.781 64.6746 101.006 64.5638 101.244L63.6092 100.903C63.7797 100.506 64.007 100.196 64.2911 99.9744C64.578 99.75 64.8905 99.5937 65.2286 99.5057C65.5695 99.4148 65.9047 99.3693 66.2342 99.3693C66.4445 99.3693 66.6859 99.3949 66.9587 99.446C67.2342 99.4943 67.4999 99.5952 67.7555 99.7486C68.0141 99.902 68.2286 100.134 68.399 100.443C68.5695 100.753 68.6547 101.168 68.6547 101.688V106H67.649V105.114H67.5979C67.5297 105.256 67.4161 105.408 67.257 105.57C67.0979 105.732 66.8862 105.869 66.622 105.983C66.3578 106.097 66.0354 106.153 65.6547 106.153ZM65.8081 105.25C66.2058 105.25 66.5411 105.172 66.8138 105.016C67.0894 104.859 67.2967 104.658 67.4359 104.411C67.578 104.163 67.649 103.903 67.649 103.631V102.71C67.6064 102.761 67.5127 102.808 67.3678 102.851C67.2257 102.891 67.0609 102.926 66.8734 102.957C66.6888 102.986 66.5084 103.011 66.3323 103.034C66.159 103.054 66.0183 103.071 65.9104 103.085C65.649 103.119 65.4047 103.175 65.1774 103.251C64.953 103.325 64.7712 103.437 64.632 103.588C64.4956 103.736 64.4274 103.937 64.4274 104.193C64.4274 104.543 64.5567 104.807 64.8152 104.986C65.0766 105.162 65.4075 105.25 65.8081 105.25ZM71.496 102.062V106H70.4903V99.4545H71.4619V100.477H71.5471C71.7005 100.145 71.9335 99.8778 72.246 99.6761C72.5585 99.4716 72.9619 99.3693 73.4562 99.3693C73.8994 99.3693 74.2872 99.4602 74.6195 99.642C74.9519 99.821 75.2104 100.094 75.3951 100.46C75.5798 100.824 75.6721 101.284 75.6721 101.841V106H74.6664V101.909C74.6664 101.395 74.5329 100.994 74.2658 100.707C73.9988 100.418 73.6323 100.273 73.1664 100.273C72.8454 100.273 72.5585 100.342 72.3056 100.482C72.0556 100.621 71.8582 100.824 71.7133 101.091C71.5684 101.358 71.496 101.682 71.496 102.062ZM80.2541 106.136C79.6234 106.136 79.0794 105.997 78.622 105.719C78.1675 105.438 77.8166 105.045 77.5695 104.543C77.3252 104.037 77.203 103.449 77.203 102.778C77.203 102.108 77.3252 101.517 77.5695 101.006C77.8166 100.491 78.1604 100.091 78.6007 99.804C79.0439 99.5142 79.5609 99.3693 80.1519 99.3693C80.4928 99.3693 80.8294 99.4261 81.1618 99.5398C81.4942 99.6534 81.7967 99.8381 82.0695 100.094C82.3422 100.347 82.5595 100.682 82.7215 101.099C82.8834 101.517 82.9644 102.031 82.9644 102.642V103.068H77.9189V102.199H81.9416C81.9416 101.83 81.8678 101.5 81.72 101.21C81.5752 100.92 81.3678 100.692 81.0979 100.524C80.8308 100.357 80.5155 100.273 80.1519 100.273C79.7513 100.273 79.4047 100.372 79.1121 100.571C78.8223 100.767 78.5993 101.023 78.443 101.338C78.2868 101.653 78.2087 101.991 78.2087 102.352V102.932C78.2087 103.426 78.2939 103.845 78.4644 104.189C78.6377 104.53 78.8777 104.79 79.1845 104.969C79.4913 105.145 79.8479 105.233 80.2541 105.233C80.5183 105.233 80.757 105.196 80.97 105.122C81.1859 105.045 81.372 104.932 81.5283 104.781C81.6845 104.628 81.8053 104.437 81.8905 104.21L82.8621 104.483C82.7598 104.812 82.5879 105.102 82.3465 105.352C82.105 105.599 81.8067 105.793 81.4516 105.932C81.0965 106.068 80.6973 106.136 80.2541 106.136ZM89.1305 100.92L88.2271 101.176C88.1703 101.026 88.0865 100.879 87.9757 100.737C87.8678 100.592 87.72 100.473 87.5325 100.379C87.345 100.286 87.105 100.239 86.8124 100.239C86.4118 100.239 86.078 100.331 85.8109 100.516C85.5467 100.697 85.4146 100.929 85.4146 101.21C85.4146 101.46 85.5055 101.658 85.6874 101.803C85.8692 101.947 86.1533 102.068 86.5396 102.165L87.5112 102.403C88.0965 102.545 88.5325 102.763 88.8195 103.055C89.1064 103.345 89.2499 103.719 89.2499 104.176C89.2499 104.551 89.1419 104.886 88.926 105.182C88.7129 105.477 88.4146 105.71 88.0311 105.881C87.6476 106.051 87.2016 106.136 86.693 106.136C86.0254 106.136 85.4729 105.991 85.0354 105.702C84.5979 105.412 84.3209 104.989 84.2044 104.432L85.159 104.193C85.2499 104.545 85.4217 104.81 85.6746 104.986C85.9303 105.162 86.2641 105.25 86.676 105.25C87.1448 105.25 87.5169 105.151 87.7925 104.952C88.0709 104.75 88.2101 104.509 88.2101 104.227C88.2101 104 88.1305 103.81 87.9715 103.656C87.8124 103.5 87.568 103.384 87.2385 103.307L86.1476 103.051C85.5482 102.909 85.1078 102.689 84.8266 102.391C84.5482 102.089 84.409 101.713 84.409 101.261C84.409 100.892 84.5127 100.565 84.72 100.281C84.9303 99.9972 85.2158 99.7741 85.5766 99.6122C85.9402 99.4503 86.3521 99.3693 86.8124 99.3693C87.4601 99.3693 87.9686 99.5114 88.3379 99.7955C88.7101 100.08 88.9743 100.455 89.1305 100.92ZM96.6103 106.136C96.0649 106.136 95.5833 105.999 95.1657 105.723C94.7481 105.445 94.4214 105.053 94.1856 104.547C93.9498 104.038 93.8319 103.438 93.8319 102.744C93.8319 102.057 93.9498 101.46 94.1856 100.955C94.4214 100.449 94.7495 100.058 95.17 99.7827C95.5904 99.5071 96.0762 99.3693 96.6274 99.3693C97.0535 99.3693 97.3901 99.4403 97.6373 99.5824C97.8873 99.7216 98.0776 99.8807 98.2083 100.06C98.3418 100.236 98.4455 100.381 98.5194 100.494H98.6046V97.2727H99.6103V106H98.6387V104.994H98.5194C98.4455 105.114 98.3404 105.264 98.2041 105.446C98.0677 105.625 97.8731 105.786 97.6203 105.928C97.3674 106.067 97.0308 106.136 96.6103 106.136ZM96.7467 105.233C97.1501 105.233 97.491 105.128 97.7694 104.918C98.0478 104.705 98.2595 104.411 98.4043 104.036C98.5492 103.658 98.6217 103.222 98.6217 102.727C98.6217 102.239 98.5506 101.811 98.4086 101.445C98.2666 101.075 98.0563 100.788 97.7779 100.584C97.4995 100.376 97.1558 100.273 96.7467 100.273C96.3205 100.273 95.9654 100.382 95.6813 100.601C95.4001 100.817 95.1884 101.111 95.0464 101.483C94.9072 101.852 94.8376 102.267 94.8376 102.727C94.8376 103.193 94.9086 103.616 95.0506 103.997C95.1955 104.375 95.4086 104.676 95.6899 104.901C95.9739 105.122 96.3262 105.233 96.7467 105.233ZM104.336 106.136C103.705 106.136 103.161 105.997 102.704 105.719C102.25 105.437 101.899 105.045 101.652 104.543C101.407 104.037 101.285 103.449 101.285 102.778C101.285 102.108 101.407 101.517 101.652 101.006C101.899 100.491 102.242 100.091 102.683 99.804C103.126 99.5142 103.643 99.3693 104.234 99.3693C104.575 99.3693 104.911 99.4261 105.244 99.5398C105.576 99.6534 105.879 99.8381 106.152 100.094C106.424 100.347 106.642 100.682 106.803 101.099C106.965 101.517 107.046 102.031 107.046 102.642V103.068H102.001V102.199H106.024C106.024 101.83 105.95 101.5 105.802 101.21C105.657 100.92 105.45 100.692 105.18 100.524C104.913 100.357 104.598 100.273 104.234 100.273C103.833 100.273 103.487 100.372 103.194 100.571C102.904 100.767 102.681 101.023 102.525 101.338C102.369 101.653 102.291 101.991 102.291 102.352V102.932C102.291 103.426 102.376 103.845 102.546 104.189C102.72 104.53 102.96 104.79 103.267 104.969C103.573 105.145 103.93 105.233 104.336 105.233C104.6 105.233 104.839 105.196 105.052 105.122C105.268 105.045 105.454 104.932 105.61 104.781C105.767 104.628 105.887 104.437 105.973 104.21L106.944 104.483C106.842 104.812 106.67 105.102 106.428 105.352C106.187 105.599 105.889 105.793 105.534 105.932C105.178 106.068 104.779 106.136 104.336 106.136ZM55.0562 122H52.363L52.363 113.273H55.1755C56.0221 113.273 56.7465 113.447 57.3488 113.797C57.951 114.143 58.4127 114.642 58.7337 115.293C59.0547 115.94 59.2152 116.716 59.2152 117.619C59.2152 118.528 59.0533 119.311 58.7294 119.967C58.4056 120.621 57.934 121.124 57.3147 121.476C56.6954 121.825 55.9425 122 55.0562 122ZM53.4198 121.062H54.988C55.7096 121.062 56.3076 120.923 56.782 120.645C57.2564 120.366 57.6101 119.97 57.8431 119.456C58.076 118.942 58.1925 118.33 58.1925 117.619C58.1925 116.915 58.0775 116.308 57.8473 115.8C57.6172 115.288 57.2735 114.896 56.8161 114.624C56.3587 114.348 55.7891 114.21 55.1073 114.21H53.4198L53.4198 121.062ZM63.5959 122.136C62.9652 122.136 62.4212 121.997 61.9638 121.719C61.5093 121.438 61.1584 121.045 60.9113 120.543C60.6669 120.037 60.5448 119.449 60.5448 118.778C60.5448 118.108 60.6669 117.517 60.9113 117.006C61.1584 116.491 61.5022 116.091 61.9425 115.804C62.3857 115.514 62.9027 115.369 63.4937 115.369C63.8346 115.369 64.1712 115.426 64.5036 115.54C64.836 115.653 65.1385 115.838 65.4113 116.094C65.684 116.347 65.9013 116.682 66.0633 117.099C66.2252 117.517 66.3062 118.031 66.3062 118.642V119.068H61.2607V118.199H65.2834C65.2834 117.83 65.2096 117.5 65.0618 117.21C64.9169 116.92 64.7096 116.692 64.4397 116.524C64.1726 116.357 63.8573 116.273 63.4937 116.273C63.0931 116.273 62.7465 116.372 62.4539 116.571C62.1641 116.767 61.9411 117.023 61.7848 117.338C61.6286 117.653 61.5505 117.991 61.5505 118.352V118.932C61.5505 119.426 61.6357 119.845 61.8062 120.189C61.9794 120.53 62.2195 120.79 62.5263 120.969C62.8331 121.145 63.1897 121.233 63.5959 121.233C63.8601 121.233 64.0988 121.196 64.3118 121.122C64.5277 121.045 64.7138 120.932 64.8701 120.781C65.0263 120.628 65.1471 120.437 65.2323 120.21L66.2039 120.483C66.1016 120.812 65.9297 121.102 65.6883 121.352C65.4468 121.599 65.1485 121.793 64.7934 121.932C64.4383 122.068 64.0391 122.136 63.5959 122.136ZM72.4723 116.92L71.5689 117.176C71.5121 117.026 71.4283 116.879 71.3175 116.737C71.2096 116.592 71.0618 116.473 70.8743 116.379C70.6868 116.286 70.4468 116.239 70.1542 116.239C69.7536 116.239 69.4198 116.331 69.1527 116.516C68.8885 116.697 68.7564 116.929 68.7564 117.21C68.7564 117.46 68.8473 117.658 69.0292 117.803C69.211 117.947 69.4951 118.068 69.8814 118.165L70.853 118.403C71.4383 118.545 71.8743 118.763 72.1613 119.055C72.4482 119.345 72.5917 119.719 72.5917 120.176C72.5917 120.551 72.4837 120.886 72.2678 121.182C72.0547 121.477 71.7564 121.71 71.3729 121.881C70.9894 122.051 70.5434 122.136 70.0348 122.136C69.3672 122.136 68.8147 121.991 68.3772 121.702C67.9397 121.412 67.6627 120.989 67.5462 120.432L68.5008 120.193C68.5917 120.545 68.7635 120.81 69.0164 120.986C69.2721 121.162 69.6059 121.25 70.0178 121.25C70.4866 121.25 70.8587 121.151 71.1343 120.952C71.4127 120.75 71.5519 120.509 71.5519 120.227C71.5519 120 71.4723 119.81 71.3133 119.656C71.1542 119.5 70.9098 119.384 70.5803 119.307L69.4894 119.051C68.89 118.909 68.4496 118.689 68.1684 118.391C67.89 118.089 67.7508 117.713 67.7508 117.261C67.7508 116.892 67.8544 116.565 68.0618 116.281C68.2721 115.997 68.5576 115.774 68.9184 115.612C69.282 115.45 69.6939 115.369 70.1542 115.369C70.8019 115.369 71.3104 115.511 71.6797 115.795C72.0519 116.08 72.3161 116.455 72.4723 116.92ZM76.0316 122.153C75.6169 122.153 75.2405 122.075 74.9024 121.919C74.5643 121.76 74.2959 121.531 74.097 121.233C73.8981 120.932 73.7987 120.568 73.7987 120.142C73.7987 119.767 73.8726 119.463 74.0203 119.23C74.168 118.994 74.3655 118.81 74.6126 118.676C74.8598 118.543 75.1325 118.443 75.4308 118.378C75.7319 118.31 76.0345 118.256 76.3385 118.216C76.7362 118.165 77.0586 118.126 77.3058 118.101C77.5558 118.072 77.7376 118.026 77.8513 117.96C77.9677 117.895 78.026 117.781 78.026 117.619V117.585C78.026 117.165 77.9109 116.838 77.6808 116.605C77.4535 116.372 77.1084 116.256 76.6453 116.256C76.1652 116.256 75.7888 116.361 75.516 116.571C75.2433 116.781 75.0515 117.006 74.9407 117.244L73.9862 116.903C74.1566 116.506 74.3839 116.196 74.668 115.974C74.9549 115.75 75.2674 115.594 75.6055 115.506C75.9464 115.415 76.2816 115.369 76.6112 115.369C76.8214 115.369 77.0629 115.395 77.3356 115.446C77.6112 115.494 77.8768 115.595 78.1325 115.749C78.391 115.902 78.6055 116.134 78.776 116.443C78.9464 116.753 79.0316 117.168 79.0316 117.688V122H78.026V121.114H77.9748C77.9066 121.256 77.793 121.408 77.6339 121.57C77.4748 121.732 77.2632 121.869 76.999 121.983C76.7348 122.097 76.4123 122.153 76.0316 122.153ZM76.1851 121.25C76.5828 121.25 76.918 121.172 77.1907 121.016C77.4663 120.859 77.6737 120.658 77.8129 120.411C77.9549 120.163 78.026 119.903 78.026 119.631V118.71C77.9834 118.761 77.8896 118.808 77.7447 118.851C77.6027 118.891 77.4379 118.926 77.2504 118.957C77.0657 118.986 76.8853 119.011 76.7092 119.034C76.5359 119.054 76.3953 119.071 76.2873 119.085C76.026 119.119 75.7816 119.175 75.5544 119.251C75.3299 119.325 75.1481 119.437 75.0089 119.588C74.8726 119.736 74.8044 119.937 74.8044 120.193C74.8044 120.543 74.9336 120.807 75.1922 120.986C75.4535 121.162 75.7845 121.25 76.1851 121.25ZM80.8672 122V115.455H81.8388V116.443H81.907C82.0263 116.119 82.2422 115.857 82.5547 115.655C82.8672 115.453 83.2195 115.352 83.6116 115.352C83.6854 115.352 83.7777 115.354 83.8885 115.357C83.9993 115.359 84.0831 115.364 84.14 115.369V116.392C84.1059 116.384 84.0277 116.371 83.9056 116.354C83.7863 116.334 83.6598 116.324 83.5263 116.324C83.2081 116.324 82.9241 116.391 82.6741 116.524C82.4269 116.655 82.2309 116.837 82.086 117.07C81.9439 117.3 81.8729 117.562 81.8729 117.858V122H80.8672ZM85.3321 122V115.455H86.3037V116.443H86.3718C86.4912 116.119 86.7071 115.857 87.0196 115.655C87.3321 115.453 87.6843 115.352 88.0764 115.352C88.1503 115.352 88.2426 115.354 88.3534 115.357C88.4642 115.359 88.548 115.364 88.6048 115.369V116.392C88.5707 116.384 88.4926 116.371 88.3704 116.354C88.2511 116.334 88.1247 116.324 87.9912 116.324C87.673 116.324 87.3889 116.391 87.1389 116.524C86.8917 116.655 86.6957 116.837 86.5508 117.07C86.4088 117.3 86.3378 117.562 86.3378 117.858V122H85.3321ZM92.2568 122.136C91.6659 122.136 91.1474 121.996 90.7014 121.714C90.2582 121.433 89.9116 121.04 89.6616 120.534C89.4145 120.028 89.2909 119.437 89.2909 118.761C89.2909 118.08 89.4145 117.484 89.6616 116.976C89.9116 116.467 90.2582 116.072 90.7014 115.791C91.1474 115.51 91.6659 115.369 92.2568 115.369C92.8477 115.369 93.3647 115.51 93.8079 115.791C94.254 116.072 94.6005 116.467 94.8477 116.976C95.0977 117.484 95.2227 118.08 95.2227 118.761C95.2227 119.437 95.0977 120.028 94.8477 120.534C94.6005 121.04 94.254 121.433 93.8079 121.714C93.3647 121.996 92.8477 122.136 92.2568 122.136ZM92.2568 121.233C92.7057 121.233 93.075 121.118 93.3647 120.888C93.6545 120.658 93.869 120.355 94.0082 119.98C94.1474 119.605 94.217 119.199 94.217 118.761C94.217 118.324 94.1474 117.916 94.0082 117.538C93.869 117.161 93.6545 116.855 93.3647 116.622C93.075 116.389 92.7057 116.273 92.2568 116.273C91.8079 116.273 91.4386 116.389 91.1488 116.622C90.8591 116.855 90.6446 117.161 90.5054 117.538C90.3662 117.916 90.2966 118.324 90.2966 118.761C90.2966 119.199 90.3662 119.605 90.5054 119.98C90.6446 120.355 90.8591 120.658 91.1488 120.888C91.4386 121.118 91.8079 121.233 92.2568 121.233ZM97.7635 113.273V122H96.7579V113.273H97.7635ZM100.611 113.273V122H99.6055V113.273H100.611ZM105.112 122.136C104.521 122.136 104.003 121.996 103.557 121.714C103.114 121.433 102.767 121.04 102.517 120.534C102.27 120.028 102.146 119.437 102.146 118.761C102.146 118.08 102.27 117.484 102.517 116.976C102.767 116.467 103.114 116.072 103.557 115.791C104.003 115.51 104.521 115.369 105.112 115.369C105.703 115.369 106.22 115.51 106.663 115.791C107.109 116.072 107.456 116.467 107.703 116.976C107.953 117.484 108.078 118.08 108.078 118.761C108.078 119.437 107.953 120.028 107.703 120.534C107.456 121.04 107.109 121.433 106.663 121.714C106.22 121.996 105.703 122.136 105.112 122.136ZM105.112 121.233C105.561 121.233 105.93 121.118 106.22 120.888C106.51 120.658 106.724 120.355 106.864 119.98C107.003 119.605 107.072 119.199 107.072 118.761C107.072 118.324 107.003 117.916 106.864 117.538C106.724 117.161 106.51 116.855 106.22 116.622C105.93 116.389 105.561 116.273 105.112 116.273C104.663 116.273 104.294 116.389 104.004 116.622C103.715 116.855 103.5 117.161 103.361 117.538C103.222 117.916 103.152 118.324 103.152 118.761C103.152 119.199 103.222 119.605 103.361 119.98C103.5 120.355 103.715 120.658 104.004 120.888C104.294 121.118 104.663 121.233 105.112 121.233Z" fill="#717171"/>
<defs>
<filter id="filter0_d_3_98" x="0.28125" y="0" width="154.718" height="159.908" filterUnits="userSpaceOnUse" color-interpolation-filters="sRGB">
<feFlood flood-opacity="0" result="BackgroundImageFix"/>
<feColorMatrix in="SourceAlpha" type="matrix" values="0 0 0 0 0 0 0 0 0 0 0 0 0 0 0 0 0 0 127 0" result="hardAlpha"/>
<feOffset dx="2" dy="2"/>
<feGaussianBlur stdDeviation="5"/>
<feComposite in2="hardAlpha" operator="out"/>
<feColorMatrix type="matrix" values="0 0 0 0 0 0 0 0 0 0 0 0 0 0 0 0 0 0 0.1 0"/>
<feBlend mode="normal" in2="BackgroundImageFix" result="effect1_dropShadow_3_98"/>
<feBlend mode="normal" in="SourceGraphic" in2="effect1_dropShadow_3_98" result="shape"/>
</filter>
</defs>
</svg>
