<svg width="161" height="180" fill="none" xmlns="http://www.w3.org/2000/svg"><g filter="url(#a)"><path d="M145.656 85.93 120.842 42.5a19.884 19.884 0 0 0-17.172-10.018l-50.067-.254a19.89 19.89 0 0 0-17.273 9.844L11.077 85.247a19.845 19.845 0 0 0-.1 19.862l24.813 43.429a19.89 19.89 0 0 0 17.172 10.019l19.44.098 5.551 8.416 5.636-8.359 19.44.099a19.89 19.89 0 0 0 17.273-9.844l25.253-43.175a19.846 19.846 0 0 0 .101-19.862Z" fill="#fff"/></g><path d="m89.352 78.53-1.1 1.167c-5.428-3.758-11.286-5.012-17.647-3.258-4.84 1.334-8.651 4.151-11.425 8.327-5.672 8.547-4.144 19.64 3.617 26.473 7.446 6.557 18.763 6.61 26.373.11 7.43-6.348 9.984-17.807 3.053-27.668.387-.292.824-.623 1.264-.953 5.667 6.365 7.17 19.506-1.588 28.527-8.59 8.849-22.496 9.006-31.341.384-8.638-8.421-8.752-22.455-.286-31.118 8.594-8.792 21.895-8.163 29.08-1.99Z" fill="#2DCF6E"/><path d="M94.453 74.908c-.11-1.302-.088-2.635-.368-3.902-.352-1.6.248-2.651 1.365-3.698 1.987-1.859 3.852-3.846 5.811-5.733.333-.32.959-.666 1.302-.553.32.107.572.786.635 1.245.223 1.604.402 3.22.497 4.836.053.94.452 1.261 1.349 1.302 1.515.066 3.031.176 4.531.371.506.066 1.135.334 1.39.717.151.23-.214.975-.535 1.305-2.151 2.217-4.32 4.415-6.559 6.537-.428.406-1.195.645-1.799.633-1.616-.029-3.233-.343-4.846-.328-.78.007-1.767.284-2.302.809-5.682 5.565-11.292 11.207-16.92 16.826-.371.37-.692.83-1.136 1.072-.383.21-.902.167-1.364.236.044-.506-.098-1.163.17-1.487.789-.969 1.735-1.812 2.625-2.698 5.079-5.06 10.176-10.104 15.22-15.198.556-.563.833-1.405 1.239-2.12l-.305-.172Zm3.453.62c.062.179.122.361.185.54 1.49 0 3.358.566 4.393-.12 2.053-1.364 3.651-3.417 5.434-5.188-.063-.166-.129-.333-.192-.496-1.531 0-3.443-.579-4.516.125-2.025 1.324-3.566 3.384-5.304 5.139Zm-1.724-1.535c.151.075.302.154.456.23 1.695-1.743 3.4-3.481 5.079-5.24.16-.166.27-.47.251-.7-.1-1.324-.248-2.648-.424-4.447-2.041 2.05-3.793 3.786-5.503 5.56-.176.182-.183.59-.164.886.082 1.24.202 2.475.305 3.71Z" fill="#2DCF6E"/><path d="M84.287 83.474c-.589 1.078-1.19 1.254-2.302.682a13.028 13.028 0 0 0-14.77 1.937c-4.073 3.701-5.462 9.38-3.547 14.499 1.883 5.028 6.83 8.512 12.226 8.613 9.49.179 16.16-9.924 12.254-18.565-.258-.57-.55-1.12-.953-1.937.406-.293.862-.626 1.318-.956 4.286 5.556 3.122 14.452-2.538 19.458-5.811 5.141-14.748 4.962-20.298-.406-5.764-5.572-6.23-14.574-1.072-20.63 4.89-5.733 13.757-6.984 19.681-2.695Z" fill="#2DCF6E"/><path d="M83.126 93.177c1.406 3.312.23 7.132-2.764 9.148-3.04 2.044-7.204 1.638-9.798-.959-2.532-2.535-2.95-6.682-.972-9.67 2.031-3.072 5.846-4.257 9.273-2.83-.515.969-1.163 1.312-2.349 1.186-3.267-.346-6.217 2.298-6.38 5.528-.17 3.323 2.4 6.128 5.695 6.22 3.453.097 6.15-2.49 6.09-5.94-.021-1.088-.128-2.107 1.205-2.683Z" fill="#2DCF6E"/><path d="M11.523 13V2.818h3.44c.8 0 1.452.144 1.96.433.51.285.887.67 1.133 1.158.245.487.368 1.03.368 1.63 0 .6-.123 1.146-.368 1.636-.242.491-.617.882-1.124 1.174-.507.288-1.157.432-1.949.432h-2.466V8.187h2.426c.547 0 .987-.094 1.318-.283a1.69 1.69 0 0 0 .72-.766c.153-.324.23-.69.23-1.098 0-.408-.077-.772-.23-1.094a1.631 1.631 0 0 0-.725-.756c-.335-.185-.779-.278-1.332-.278h-2.168V13h-1.233Zm9.9-10.182V13h-1.172V2.818h1.173ZM25.82 13.18c-.484 0-.923-.091-1.317-.274a2.262 2.262 0 0 1-.94-.8c-.232-.351-.348-.776-.348-1.273 0-.437.086-.792.259-1.064.172-.275.402-.49.69-.646.289-.156.607-.272.955-.348.351-.08.704-.142 1.059-.189.464-.06.84-.104 1.129-.134.291-.033.503-.088.636-.164.136-.076.204-.209.204-.398v-.04c0-.49-.134-.871-.403-1.143-.265-.272-.668-.408-1.208-.408-.56 0-1 .123-1.318.368-.318.245-.541.507-.67.786l-1.114-.398c.198-.464.464-.825.795-1.084.335-.262.7-.444 1.094-.547a4.54 4.54 0 0 1 1.173-.159c.245 0 .527.03.845.09.322.056.632.174.93.353.302.179.552.449.75.81.2.361.299.845.299 1.452V13h-1.173v-1.034h-.06c-.08.166-.212.343-.398.532-.185.189-.432.35-.74.482-.309.133-.685.199-1.129.199Zm.179-1.054c.464 0 .855-.091 1.173-.273a1.862 1.862 0 0 0 .975-1.616V9.162c-.05.06-.16.114-.328.164a5.526 5.526 0 0 1-.577.124 26.141 26.141 0 0 1-1.124.15c-.305.04-.59.104-.855.193a1.474 1.474 0 0 0-.636.393c-.16.172-.239.408-.239.706 0 .408.151.716.453.925.305.205.69.308 1.158.308Zm6.636-3.719V13h-1.173V5.364h1.133v1.193h.1c.178-.388.45-.7.815-.935.364-.238.835-.358 1.412-.358.517 0 .97.106 1.357.318.388.21.69.527.905.955.215.424.323.961.323 1.61V13h-1.173V8.227c0-.6-.156-1.067-.468-1.402-.311-.338-.739-.507-1.282-.507-.375 0-.71.081-1.005.244-.291.162-.522.4-.69.71-.17.312-.254.69-.254 1.134Zm10.218 4.753c-.736 0-1.37-.162-1.904-.487A3.27 3.27 0 0 1 39.72 11.3c-.285-.59-.428-1.276-.428-2.059 0-.782.143-1.471.428-2.068.288-.6.689-1.067 1.203-1.402.517-.338 1.12-.507 1.81-.507.397 0 .79.066 1.178.2.387.132.74.347 1.059.645.318.295.571.686.76 1.174.19.487.284 1.087.284 1.8v.497h-5.887V8.565h4.694c0-.43-.087-.815-.26-1.153a1.947 1.947 0 0 0-.725-.8c-.312-.196-.68-.294-1.104-.294-.467 0-.871.116-1.213.348a2.29 2.29 0 0 0-.78.895 2.629 2.629 0 0 0-.274 1.183v.676c0 .577.1 1.066.299 1.467.202.398.482.701.84.91.358.205.774.308 1.248.308.308 0 .586-.043.835-.13.252-.089.469-.221.651-.397.183-.179.323-.4.423-.666l1.133.318c-.119.385-.32.723-.601 1.014-.282.289-.63.514-1.044.677-.415.159-.88.238-1.397.238Zm10.355-6.085-1.053.298a1.957 1.957 0 0 0-.294-.512 1.423 1.423 0 0 0-.517-.418c-.219-.109-.499-.164-.84-.164-.467 0-.857.108-1.168.324-.309.212-.463.482-.463.81 0 .292.106.522.319.691.212.169.543.31.994.423l1.133.278c.683.166 1.192.42 1.527.76.334.339.502.774.502 1.308 0 .438-.126.829-.378 1.174-.249.344-.597.616-1.044.815-.448.199-.968.298-1.561.298-.78 0-1.424-.169-1.934-.507-.51-.338-.834-.832-.97-1.481l1.114-.279c.106.411.307.72.602.925.298.205.687.308 1.168.308.547 0 .981-.116 1.303-.348.324-.235.487-.517.487-.845a.888.888 0 0 0-.279-.666c-.185-.183-.47-.319-.855-.408l-1.273-.298c-.699-.166-1.213-.423-1.54-.77-.326-.352-.488-.791-.488-1.318 0-.431.121-.812.363-1.144a2.471 2.471 0 0 1 1-.78 3.51 3.51 0 0 1 1.441-.284c.756 0 1.349.166 1.78.497.434.332.742.77.925 1.313Zm8.727 6.085c-.636 0-1.198-.16-1.685-.482-.488-.325-.869-.782-1.144-1.372-.275-.594-.413-1.295-.413-2.103 0-.802.138-1.498.413-2.088.275-.59.658-1.046 1.148-1.368.491-.321 1.058-.482 1.7-.482.498 0 .89.083 1.18.249.29.162.513.348.665.557.156.205.277.374.363.507h.1V2.818h1.173V13H64.3v-1.173h-.139c-.086.139-.209.315-.368.527-.159.209-.386.396-.68.562-.296.162-.688.243-1.18.243Zm.159-1.054c.47 0 .868-.123 1.193-.368.325-.248.572-.591.741-1.029.169-.44.253-.95.253-1.526 0-.57-.082-1.07-.248-1.497-.166-.43-.411-.765-.736-1.004-.325-.242-.726-.363-1.203-.363-.497 0-.911.128-1.243.383a2.292 2.292 0 0 0-.74 1.03c-.163.43-.244.914-.244 1.45 0 .544.083 1.038.248 1.482.17.441.418.793.746 1.054.332.259.742.388 1.233.388Zm8.854 1.054c-.735 0-1.37-.162-1.904-.487a3.27 3.27 0 0 1-1.228-1.372c-.285-.59-.427-1.276-.427-2.059 0-.782.142-1.471.427-2.068.289-.6.69-1.067 1.203-1.402.517-.338 1.12-.507 1.81-.507.398 0 .79.066 1.178.2.388.132.741.347 1.06.645.318.295.571.686.76 1.174.189.487.283 1.087.283 1.8v.497h-5.886V8.565h4.693c0-.43-.086-.815-.258-1.153a1.947 1.947 0 0 0-.726-.8c-.312-.196-.68-.294-1.104-.294-.467 0-.872.116-1.213.348a2.29 2.29 0 0 0-.78.895 2.629 2.629 0 0 0-.274 1.183v.676c0 .577.1 1.066.298 1.467.203.398.483.701.84.91.358.205.775.308 1.248.308.309 0 .587-.043.836-.13.251-.089.469-.221.65-.397.183-.179.324-.4.424-.666l1.133.318c-.12.385-.32.723-.602 1.014-.281.289-.63.514-1.044.677-.414.159-.88.238-1.397.238ZM83.134 13h-3.142V2.818h3.281c.988 0 1.833.204 2.535.612a4.004 4.004 0 0 1 1.616 1.745c.375.755.562 1.66.562 2.714 0 1.06-.189 1.974-.567 2.74a4.038 4.038 0 0 1-1.65 1.76c-.723.407-1.601.611-2.635.611Zm-1.91-1.094h1.83c.842 0 1.54-.162 2.093-.487a3.002 3.002 0 0 0 1.238-1.387c.272-.6.408-1.314.408-2.143 0-.822-.134-1.53-.403-2.123a2.97 2.97 0 0 0-1.203-1.372c-.534-.321-1.198-.482-1.994-.482h-1.968v7.994Zm11.873 1.253c-.736 0-1.37-.162-1.904-.487a3.27 3.27 0 0 1-1.228-1.372c-.285-.59-.428-1.276-.428-2.059 0-.782.143-1.471.428-2.068.288-.6.69-1.067 1.203-1.402.517-.338 1.12-.507 1.81-.507.397 0 .79.066 1.178.2.388.132.74.347 1.059.645.318.295.572.686.76 1.174.19.487.284 1.087.284 1.8v.497h-5.887V8.565h4.694c0-.43-.087-.815-.259-1.153a1.948 1.948 0 0 0-.726-.8c-.311-.196-.68-.294-1.103-.294-.468 0-.872.116-1.213.348a2.29 2.29 0 0 0-.781.895 2.629 2.629 0 0 0-.273 1.183v.676c0 .577.099 1.066.298 1.467.202.398.482.701.84.91.358.205.774.308 1.248.308.308 0 .587-.043.835-.13.252-.089.47-.221.651-.397.183-.179.323-.4.423-.666l1.133.318c-.119.385-.32.723-.601 1.014-.282.289-.63.514-1.044.677-.414.159-.88.238-1.397.238Zm10.356-6.085-1.054.298a1.96 1.96 0 0 0-.294-.512 1.422 1.422 0 0 0-.517-.418c-.218-.109-.498-.164-.84-.164-.467 0-.857.108-1.168.324-.308.212-.462.482-.462.81 0 .292.106.522.318.691.212.169.543.31.994.423l1.133.278c.683.166 1.192.42 1.527.76.335.339.502.774.502 1.308 0 .438-.126.829-.378 1.174-.249.344-.597.616-1.044.815-.447.199-.968.298-1.561.298-.779 0-1.424-.169-1.934-.507-.51-.338-.834-.832-.97-1.481l1.114-.279c.106.411.307.72.602.925.298.205.687.308 1.168.308.547 0 .981-.116 1.303-.348.324-.235.487-.517.487-.845a.887.887 0 0 0-.279-.666c-.185-.183-.47-.319-.855-.408l-1.272-.298c-.7-.166-1.213-.423-1.542-.77-.324-.352-.487-.791-.487-1.318 0-.431.121-.812.363-1.144a2.47 2.47 0 0 1 1-.78 3.508 3.508 0 0 1 1.441-.284c.756 0 1.349.166 1.78.497.434.332.742.77.925 1.313Zm4.152 6.105a3.1 3.1 0 0 1-1.317-.274 2.258 2.258 0 0 1-.94-.8c-.232-.351-.348-.776-.348-1.273 0-.437.086-.792.259-1.064.172-.275.402-.49.691-.646.288-.156.606-.272.954-.348a11.7 11.7 0 0 1 1.059-.189c.464-.06.84-.104 1.129-.134.291-.033.503-.088.636-.164.136-.076.204-.209.204-.398v-.04c0-.49-.134-.871-.403-1.143-.265-.272-.668-.408-1.208-.408-.56 0-.999.123-1.317.368-.319.245-.542.507-.672.786l-1.113-.398c.199-.464.464-.825.795-1.084.335-.262.7-.444 1.094-.547.398-.106.789-.159 1.173-.159.246 0 .527.03.846.09.321.056.631.174.929.353.302.179.552.449.751.81.199.361.298.845.298 1.452V13h-1.173v-1.034h-.06a2.064 2.064 0 0 1-.397.532c-.186.189-.433.35-.741.482-.308.133-.685.199-1.129.199Zm.179-1.054c.464 0 .855-.091 1.173-.273.322-.183.564-.418.726-.706.166-.289.249-.592.249-.91V9.162c-.05.06-.159.114-.328.164a5.539 5.539 0 0 1-.577.124 26.184 26.184 0 0 1-1.124.15c-.304.04-.589.104-.855.193a1.475 1.475 0 0 0-.636.393c-.159.172-.239.408-.239.706 0 .408.151.716.453.925.305.205.691.308 1.158.308Zm5.463.875V5.364h1.133v1.153h.08c.139-.378.391-.684.755-.92a2.226 2.226 0 0 1 1.233-.353c.087 0 .194.002.324.005.129.004.227.009.293.015v1.193a3.49 3.49 0 0 0-.274-.044 2.681 2.681 0 0 0-.442-.035c-.371 0-.703.078-.994.234a1.713 1.713 0 0 0-.935 1.556V13h-1.173Zm5.209 0V5.364h1.133v1.153h.08c.139-.378.391-.684.755-.92a2.226 2.226 0 0 1 1.233-.353c.087 0 .194.002.324.005.129.004.227.009.293.015v1.193a3.49 3.49 0 0 0-.274-.044 2.681 2.681 0 0 0-.442-.035c-.371 0-.703.078-.994.234a1.713 1.713 0 0 0-.935 1.556V13h-1.173Zm8.079.16c-.69 0-1.295-.165-1.815-.493a3.346 3.346 0 0 1-1.213-1.377c-.289-.59-.433-1.28-.433-2.068 0-.796.144-1.49.433-2.084a3.34 3.34 0 0 1 1.213-1.382c.52-.328 1.125-.492 1.815-.492.689 0 1.292.164 1.809.492.521.329.925.79 1.213 1.382.292.594.438 1.288.438 2.084 0 .788-.146 1.478-.438 2.068a3.291 3.291 0 0 1-1.213 1.377c-.517.328-1.12.492-1.809.492Zm0-1.055c.523 0 .954-.134 1.292-.403a2.38 2.38 0 0 0 .751-1.059c.162-.437.243-.911.243-1.421s-.081-.986-.243-1.427a2.41 2.41 0 0 0-.751-1.07c-.338-.27-.769-.407-1.292-.407-.524 0-.955.136-1.293.408a2.41 2.41 0 0 0-.751 1.069c-.162.44-.243.916-.243 1.427 0 .51.081.984.243 1.421.163.438.413.79.751 1.06.338.268.769.402 1.293.402Zm6.424-9.287V13h-1.173V2.818h1.173Zm3.322 0V13h-1.173V2.818h1.173Zm5.252 10.341c-.69 0-1.295-.164-1.815-.492a3.346 3.346 0 0 1-1.213-1.377c-.288-.59-.433-1.28-.433-2.068 0-.796.145-1.49.433-2.084a3.34 3.34 0 0 1 1.213-1.382c.52-.328 1.125-.492 1.815-.492.689 0 1.292.164 1.809.492.521.329.925.79 1.213 1.382.292.594.438 1.288.438 2.084 0 .788-.146 1.478-.438 2.068a3.291 3.291 0 0 1-1.213 1.377c-.517.328-1.12.492-1.809.492Zm0-1.054c.523 0 .954-.134 1.292-.403.338-.268.589-.621.751-1.059.162-.437.244-.911.244-1.421s-.082-.986-.244-1.427a2.403 2.403 0 0 0-.751-1.07c-.338-.27-.769-.407-1.292-.407-.524 0-.955.136-1.293.408a2.41 2.41 0 0 0-.751 1.069c-.162.44-.243.916-.243 1.427 0 .51.081.984.243 1.421.163.438.413.79.751 1.06.338.268.769.402 1.293.402Z" fill="#717171"/><defs><filter id="a" x=".363" y="24.228" width="159.907" height="154.844" filterUnits="userSpaceOnUse" color-interpolation-filters="sRGB"><feFlood flood-opacity="0" result="BackgroundImageFix"/><feColorMatrix in="SourceAlpha" values="0 0 0 0 0 0 0 0 0 0 0 0 0 0 0 0 0 0 127 0" result="hardAlpha"/><feOffset dx="2" dy="2"/><feGaussianBlur stdDeviation="5"/><feComposite in2="hardAlpha" operator="out"/><feColorMatrix values="0 0 0 0 0 0 0 0 0 0 0 0 0 0 0 0 0 0 0.1 0"/><feBlend in2="BackgroundImageFix" result="effect1_dropShadow_23_51"/><feBlend in="SourceGraphic" in2="effect1_dropShadow_23_51" result="shape"/></filter></defs></svg>