<svg width="155" height="160" fill="none" xmlns="http://www.w3.org/2000/svg"><g filter="url(#a)"><path d="m89.766 145.244 43.302-25.033A19.884 19.884 0 0 0 143 102.988V52.92a19.889 19.889 0 0 0-9.932-17.223L89.765 10.664a19.845 19.845 0 0 0-19.862 0L26.6 35.697a19.89 19.89 0 0 0-9.93 17.223v19.44L8.28 77.955l8.388 5.593v19.441a19.89 19.89 0 0 0 9.931 17.223l43.303 25.033a19.843 19.843 0 0 0 19.862 0Z" fill="#fff"/></g><path d="m86.39 44.07-.946 1.003c-4.666-3.23-9.702-4.309-15.17-2.8-4.16 1.146-7.437 3.568-9.821 7.157-4.877 7.348-3.563 16.884 3.108 22.758 6.402 5.636 16.13 5.682 22.672.095 6.388-5.458 8.583-15.308 2.625-23.785l1.087-.82c4.871 5.472 6.163 16.768-1.365 24.524-7.385 7.606-19.34 7.742-26.943.33-7.426-7.24-7.523-19.304-.246-26.75 7.388-7.559 18.822-7.018 25-1.712Z" fill="#2DCF6E"/><path d="M90.775 40.956c-.095-1.12-.076-2.265-.317-3.355-.302-1.376.214-2.278 1.174-3.178 1.708-1.598 3.311-3.307 4.995-4.928.287-.276.825-.573 1.12-.476.275.092.491.676.545 1.07.192 1.379.346 2.768.427 4.158.046.808.39 1.084 1.16 1.119a45.61 45.61 0 0 1 3.895.319c.436.057.976.286 1.195.616.13.197-.184.838-.459 1.122-1.849 1.906-3.714 3.795-5.64 5.62-.367.349-1.026.554-1.545.543-1.39-.024-2.78-.294-4.166-.281-.67.005-1.52.243-1.979.695-4.885 4.784-9.707 9.634-14.546 14.464-.319.32-.594.714-.976.922-.33.181-.776.143-1.173.203.038-.435-.084-1 .146-1.279.679-.832 1.492-1.557 2.257-2.32 4.366-4.348 8.748-8.684 13.084-13.063.478-.484.716-1.209 1.065-1.822l-.262-.149Zm2.968.532c.054.155.105.311.16.465 1.28 0 2.886.487 3.776-.102 1.765-1.173 3.138-2.939 4.671-4.46-.054-.144-.111-.287-.165-.428-1.316 0-2.96-.497-3.882.109-1.74 1.138-3.065 2.908-4.56 4.416Zm-1.481-1.319c.13.065.259.133.391.198 1.457-1.498 2.923-2.993 4.366-4.504a.868.868 0 0 0 .216-.603c-.086-1.138-.213-2.276-.364-3.822-1.755 1.763-3.26 3.255-4.731 4.78-.151.156-.157.508-.14.762.07 1.065.172 2.127.261 3.19Z" fill="#2DCF6E"/><path d="M82.035 48.32c-.505.927-1.022 1.078-1.978.586a11.2 11.2 0 0 0-12.698 1.665c-3.5 3.182-4.695 8.064-3.049 12.464 1.62 4.323 5.872 7.318 10.51 7.404 8.159.154 13.892-8.53 10.535-15.96-.222-.488-.473-.962-.82-1.664.35-.252.741-.538 1.133-.822 3.685 4.776 2.685 12.424-2.181 16.727-4.996 4.42-12.678 4.266-17.45-.349-4.954-4.79-5.354-12.529-.921-17.735 4.203-4.928 11.826-6.004 16.92-2.317Z" fill="#2DCF6E"/><path d="M81.038 56.661c1.208 2.847.197 6.131-2.376 7.864-2.614 1.757-6.193 1.408-8.424-.825-2.176-2.178-2.535-5.744-.835-8.312 1.746-2.64 5.025-3.66 7.972-2.433-.443.833-1 1.128-2.02 1.02-2.808-.298-5.344 1.975-5.484 4.752-.146 2.857 2.062 5.268 4.895 5.346 2.968.084 5.288-2.14 5.236-5.106-.018-.935-.11-1.811 1.036-2.306Z" fill="#2DCF6E"/><path d="M53.4 106v-8.727h2.949c.685 0 1.244.123 1.679.37.437.245.761.576.971.993.21.418.316.884.316 1.398 0 .514-.105.982-.316 1.402a2.341 2.341 0 0 1-.963 1.006c-.434.247-.991.37-1.67.37h-2.114v-.937h2.08c.469 0 .845-.081 1.13-.243.283-.162.49-.381.617-.656.13-.279.196-.592.196-.942s-.065-.662-.196-.937a1.399 1.399 0 0 0-.622-.648c-.287-.16-.668-.239-1.142-.239h-1.858V106H53.4Zm8.487-8.727V106H60.88v-8.727h1.006Zm3.768 8.88c-.415 0-.791-.078-1.13-.234a1.94 1.94 0 0 1-.805-.686c-.199-.301-.298-.665-.298-1.091 0-.375.074-.679.221-.912.148-.236.346-.42.593-.554.247-.133.52-.233.818-.298.301-.068.603-.122.907-.162.398-.051.72-.09.968-.115.25-.029.432-.075.545-.141.117-.065.175-.179.175-.341v-.034c0-.42-.115-.747-.345-.98-.227-.233-.573-.349-1.036-.349-.48 0-.856.105-1.129.315-.273.21-.464.435-.575.673l-.955-.341c.17-.397.398-.707.682-.929.287-.224.6-.38.938-.468.34-.091.676-.137 1.005-.137.21 0 .452.026.725.077.275.048.54.15.796.303.26.153.474.385.644.694.17.31.256.725.256 1.245V106h-1.006v-.886h-.051a1.773 1.773 0 0 1-.341.456c-.16.162-.37.299-.635.413-.264.114-.587.17-.967.17Zm.153-.903c.398 0 .733-.078 1.006-.234a1.601 1.601 0 0 0 .835-1.385v-.921c-.043.051-.136.098-.281.141-.142.04-.307.075-.495.106a20.993 20.993 0 0 1-.963.128 3.89 3.89 0 0 0-.733.166 1.261 1.261 0 0 0-.545.337c-.136.148-.205.349-.205.605 0 .35.13.614.388.793.262.176.593.264.993.264Zm5.688-3.188V106H70.49v-6.546h.972v1.023h.085c.154-.332.386-.6.699-.8.313-.205.716-.308 1.21-.308.443 0 .831.091 1.163.273.333.179.591.452.776.818.185.364.277.824.277 1.381V106h-1.006v-4.091c0-.514-.133-.915-.4-1.202-.267-.289-.634-.434-1.1-.434-.32 0-.608.069-.86.209-.25.139-.448.342-.593.609-.145.267-.217.591-.217.971Zm8.758 4.074c-.63 0-1.175-.139-1.632-.417a2.806 2.806 0 0 1-1.052-1.176c-.245-.506-.367-1.094-.367-1.765 0-.67.122-1.261.367-1.772.247-.515.59-.915 1.03-1.202.444-.29.96-.435 1.552-.435.34 0 .677.057 1.01.17a2.5 2.5 0 0 1 .907.555c.273.253.49.588.653 1.005.161.418.242.932.242 1.543v.426H77.92v-.869h4.023c0-.369-.074-.699-.222-.989a1.67 1.67 0 0 0-.622-.686 1.748 1.748 0 0 0-.946-.251c-.4 0-.747.099-1.04.298-.29.196-.513.452-.669.767a2.251 2.251 0 0 0-.234 1.014v.58c0 .494.085.913.255 1.257.174.341.414.601.72.78.307.176.664.264 1.07.264.264 0 .503-.037.716-.111.216-.077.402-.19.558-.341.156-.153.277-.344.362-.571l.972.273a2.158 2.158 0 0 1-.515.869c-.242.247-.54.441-.895.58a3.327 3.327 0 0 1-1.198.204Zm8.876-5.216-.903.256a1.686 1.686 0 0 0-.251-.439 1.221 1.221 0 0 0-.444-.358c-.187-.093-.427-.14-.72-.14-.4 0-.734.092-1.001.277-.264.181-.396.413-.396.694 0 .25.09.448.272.593.182.144.466.265.853.362l.971.238c.586.142 1.022.36 1.309.652.286.29.43.664.43 1.121 0 .375-.108.71-.324 1.006a2.156 2.156 0 0 1-.895.699c-.383.17-.83.255-1.338.255-.668 0-1.22-.145-1.658-.434-.437-.29-.714-.713-.83-1.27l.954-.239c.09.352.263.617.516.793.255.176.59.264 1.001.264.469 0 .84-.099 1.117-.298.278-.202.417-.443.417-.725a.763.763 0 0 0-.238-.571c-.16-.156-.404-.272-.733-.349l-1.091-.256c-.6-.142-1.04-.362-1.321-.66-.279-.302-.418-.678-.418-1.13 0-.369.104-.696.311-.98a2.12 2.12 0 0 1 .857-.669 3.008 3.008 0 0 1 1.235-.243c.648 0 1.157.142 1.526.427.372.284.636.659.793 1.124Zm7.48 5.216c-.545 0-1.027-.137-1.444-.413-.418-.278-.745-.67-.98-1.176-.236-.509-.354-1.109-.354-1.803 0-.687.118-1.284.354-1.789.235-.506.563-.897.984-1.172.42-.276.906-.414 1.457-.414.427 0 .763.071 1.01.213.25.14.44.299.571.478.134.176.237.321.311.434h.086v-3.221h1.005V106h-.971v-1.006h-.12a6.36 6.36 0 0 1-.315.452c-.136.179-.33.34-.584.482-.253.139-.59.208-1.01.208Zm.137-.903c.403 0 .744-.105 1.022-.315.279-.213.49-.507.635-.882.145-.378.218-.814.218-1.309 0-.488-.071-.916-.213-1.282a1.86 1.86 0 0 0-.631-.861c-.279-.208-.622-.311-1.031-.311-.427 0-.782.109-1.066.328-.28.216-.493.51-.635.882-.139.369-.208.784-.208 1.244 0 .466.07.889.213 1.27.144.378.358.679.639.904.284.221.636.332 1.057.332Zm7.589.903c-.631 0-1.175-.139-1.632-.417a2.814 2.814 0 0 1-1.052-1.176c-.245-.506-.367-1.094-.367-1.765 0-.67.122-1.261.367-1.772.247-.515.59-.915 1.031-1.202.443-.29.96-.435 1.551-.435.341 0 .677.057 1.01.17.332.114.635.3.908.555.272.253.49.588.651 1.005.162.418.243.932.243 1.543v.426h-5.045v-.869h4.023c0-.369-.074-.699-.222-.989a1.67 1.67 0 0 0-.622-.686 1.746 1.746 0 0 0-.946-.251c-.401 0-.747.099-1.04.298a1.96 1.96 0 0 0-.669.767 2.254 2.254 0 0 0-.234 1.014v.58c0 .494.085.913.255 1.257.174.341.414.601.721.78.306.176.663.264 1.069.264.264 0 .503-.037.716-.111.216-.077.402-.19.558-.341a1.55 1.55 0 0 0 .363-.571l.971.273a2.149 2.149 0 0 1-.516.869 2.507 2.507 0 0 1-.894.58 3.334 3.334 0 0 1-1.198.204ZM55.056 122h-2.693v-8.727h2.813c.846 0 1.57.174 2.173.524a3.427 3.427 0 0 1 1.385 1.496c.32.647.481 1.423.481 2.326 0 .909-.162 1.692-.486 2.348a3.457 3.457 0 0 1-1.414 1.509c-.62.349-1.372.524-2.259.524Zm-1.636-.938h1.568c.722 0 1.32-.139 1.794-.417a2.578 2.578 0 0 0 1.061-1.189c.233-.514.35-1.126.35-1.837 0-.704-.115-1.311-.346-1.819a2.539 2.539 0 0 0-1.03-1.176c-.458-.276-1.028-.414-1.71-.414H53.42v6.852Zm10.176 1.074c-.63 0-1.175-.139-1.632-.417a2.806 2.806 0 0 1-1.053-1.176c-.244-.506-.366-1.094-.366-1.765 0-.67.122-1.261.366-1.772.247-.515.591-.915 1.032-1.202.443-.29.96-.435 1.55-.435.342 0 .678.057 1.01.171.333.113.635.298.908.554.273.253.49.588.652 1.005.162.418.243.932.243 1.543v.426h-5.045v-.869h4.022c0-.369-.073-.699-.221-.989a1.67 1.67 0 0 0-.622-.686 1.748 1.748 0 0 0-.946-.251c-.4 0-.748.099-1.04.298-.29.196-.513.452-.67.767a2.251 2.251 0 0 0-.233 1.014v.58c0 .494.085.913.255 1.257.173.341.413.601.72.78.307.176.664.264 1.07.264.264 0 .503-.037.716-.111.216-.077.402-.19.558-.341.156-.153.277-.344.362-.571l.972.273a2.158 2.158 0 0 1-.516.869c-.241.247-.54.441-.895.58a3.327 3.327 0 0 1-1.197.204Zm8.876-5.216-.903.256a1.686 1.686 0 0 0-.252-.439 1.221 1.221 0 0 0-.443-.358c-.187-.093-.427-.14-.72-.14-.4 0-.734.092-1.001.277-.265.181-.397.413-.397.694 0 .25.091.448.273.593.182.144.466.265.852.362l.972.238c.585.142 1.021.36 1.308.652.287.29.43.664.43 1.121 0 .375-.107.71-.323 1.006a2.156 2.156 0 0 1-.895.699c-.384.17-.83.255-1.338.255-.668 0-1.22-.145-1.658-.434-.437-.29-.714-.713-.83-1.27l.954-.239c.09.352.262.617.515.793.256.176.59.264 1.002.264.469 0 .84-.099 1.116-.298.279-.202.418-.443.418-.725a.763.763 0 0 0-.239-.571c-.159-.156-.403-.272-.733-.349l-1.09-.256c-.6-.142-1.04-.362-1.322-.66-.278-.302-.417-.678-.417-1.13 0-.369.103-.696.31-.98a2.12 2.12 0 0 1 .857-.669 3.006 3.006 0 0 1 1.236-.243c.648 0 1.156.142 1.526.426.372.285.636.66.792 1.125Zm3.56 5.233c-.415 0-.791-.078-1.13-.234a1.94 1.94 0 0 1-.805-.686c-.199-.301-.298-.665-.298-1.091 0-.375.074-.679.221-.912.148-.236.346-.42.593-.554a3.12 3.12 0 0 1 .818-.298 10.1 10.1 0 0 1 .907-.162c.398-.051.72-.09.968-.115.25-.029.432-.075.545-.141.117-.065.175-.179.175-.341v-.034c0-.42-.115-.747-.345-.98-.227-.233-.573-.349-1.036-.349-.48 0-.856.105-1.129.315-.273.21-.465.435-.575.673l-.955-.341c.17-.397.398-.707.682-.929.287-.224.6-.38.938-.468a3.89 3.89 0 0 1 1.005-.137 4 4 0 0 1 .725.077c.275.048.54.149.796.303.259.153.474.385.644.694.17.31.256.725.256 1.245V122h-1.006v-.886h-.051a1.773 1.773 0 0 1-.341.456c-.16.162-.37.299-.635.413-.264.114-.587.17-.967.17Zm.153-.903c.398 0 .733-.078 1.006-.234a1.601 1.601 0 0 0 .835-1.385v-.921c-.043.051-.136.098-.281.141a4.63 4.63 0 0 1-.495.106 21.062 21.062 0 0 1-.963.128c-.261.034-.505.09-.733.166a1.261 1.261 0 0 0-.545.337c-.136.148-.205.349-.205.605 0 .35.13.614.388.793.262.176.593.264.993.264Zm4.682.75v-6.545h.972v.988h.068c.12-.324.335-.586.648-.788a1.905 1.905 0 0 1 1.057-.303 10.856 10.856 0 0 1 .528.017v1.023a3.336 3.336 0 0 0-.234-.038c-.12-.02-.246-.03-.38-.03-.318 0-.602.067-.852.2a1.467 1.467 0 0 0-.801 1.334V122h-1.006Zm4.465 0v-6.545h.972v.988h.068c.12-.324.335-.586.648-.788a1.904 1.904 0 0 1 1.056-.303 10.855 10.855 0 0 1 .529.017v1.023a3.325 3.325 0 0 0-.235-.038c-.119-.02-.245-.03-.379-.03-.318 0-.602.067-.852.2a1.468 1.468 0 0 0-.801 1.334V122h-1.006Zm6.925.136c-.591 0-1.11-.14-1.556-.422a2.861 2.861 0 0 1-1.04-1.18c-.246-.506-.37-1.097-.37-1.773 0-.681.124-1.277.37-1.785.25-.509.597-.904 1.04-1.185.446-.281.965-.422 1.556-.422.59 0 1.108.141 1.55.422.447.281.793.676 1.04 1.185.25.508.376 1.104.376 1.785 0 .676-.125 1.267-.375 1.773a2.822 2.822 0 0 1-1.04 1.18c-.443.282-.96.422-1.551.422Zm0-.903c.449 0 .818-.115 1.108-.345.29-.23.504-.533.643-.908.14-.375.209-.781.209-1.219 0-.437-.07-.845-.209-1.223a2.065 2.065 0 0 0-.643-.916c-.29-.233-.66-.349-1.108-.349-.45 0-.818.116-1.108.349-.29.233-.504.539-.644.916-.139.378-.208.786-.208 1.223 0 .438.07.844.208 1.219.14.375.354.678.644.908.29.23.659.345 1.108.345Zm5.506-7.96V122h-1.005v-8.727h1.005Zm2.848 0V122h-1.005v-8.727h1.005Zm4.501 8.863c-.591 0-1.109-.14-1.555-.422a2.863 2.863 0 0 1-1.04-1.18c-.247-.506-.371-1.097-.371-1.773 0-.681.124-1.277.371-1.785.25-.509.597-.904 1.04-1.185.446-.281.964-.422 1.555-.422s1.108.141 1.551.422c.446.281.793.676 1.04 1.185.25.508.375 1.104.375 1.785 0 .676-.125 1.267-.375 1.773a2.822 2.822 0 0 1-1.04 1.18c-.443.282-.96.422-1.551.422Zm0-.903c.449 0 .818-.115 1.108-.345.29-.23.504-.533.644-.908.139-.375.208-.781.208-1.219 0-.437-.069-.845-.208-1.223a2.071 2.071 0 0 0-.644-.916c-.29-.233-.659-.349-1.108-.349-.449 0-.818.116-1.108.349a2.07 2.07 0 0 0-.643.916 3.518 3.518 0 0 0-.209 1.223c0 .438.07.844.209 1.219.139.375.354.678.643.908.29.23.659.345 1.108.345Z" fill="#717171"/><defs><filter id="a" x=".281" y="0" width="154.718" height="159.908" filterUnits="userSpaceOnUse" color-interpolation-filters="sRGB"><feFlood flood-opacity="0" result="BackgroundImageFix"/><feColorMatrix in="SourceAlpha" values="0 0 0 0 0 0 0 0 0 0 0 0 0 0 0 0 0 0 127 0" result="hardAlpha"/><feOffset dx="2" dy="2"/><feGaussianBlur stdDeviation="5"/><feComposite in2="hardAlpha" operator="out"/><feColorMatrix values="0 0 0 0 0 0 0 0 0 0 0 0 0 0 0 0 0 0 0.1 0"/><feBlend in2="BackgroundImageFix" result="effect1_dropShadow_3_98"/><feBlend in="SourceGraphic" in2="effect1_dropShadow_3_98" result="shape"/></filter></defs></svg>