<svg width="87" height="87" fill="none" xmlns="http://www.w3.org/2000/svg"><circle cx="43.5" cy="43.5" r="43.5" fill="#fff"/><path d="M69.7 15.575c7.452 7.085 12.096 17.095 12.096 28.19 0 21.483-17.415 38.898-38.898 38.898C21.416 82.663 4 65.248 4 43.765c0-13.314 6.688-25.064 16.89-32.077" stroke="url(#a)" stroke-width="2" stroke-miterlimit="10"/><path d="M65.522 17.4a5.7 5.7 0 1 0 0-11.4 5.7 5.7 0 0 0 0 11.4Z" stroke="url(#b)" stroke-width="2" stroke-miterlimit="10"/><path d="M31.926 60.148a3.889 3.889 0 0 1-2.783-1.178 3.88 3.88 0 0 1-1.14-2.872c.035-1.108.535-2.144 1.406-2.918 4.452-3.958 9.078-8.056 14.142-12.53.388-.342.498-.719.359-1.223-.835-3.013-.116-5.555 2.135-7.556C47.441 30.63 49.005 30 50.69 30c.982 0 2.021.214 3.088.636.32.127.519.304.56.498.042.205-.083.475-.345.739-.926.934-1.854 1.867-2.782 2.8l-1.605 1.615c-.055.055-.102.11-.144.16a2.803 2.803 0 0 1-.05.055l-.318.36 2.31 2.259.353-.363.693-.715c.528-.545 1.074-1.11 1.62-1.663.691-.699 1.507-1.52 2.326-2.31.17-.164.348-.252.515-.252.23 0 .443.176.583.483 1.027 2.241.837 4.83-.51 6.925-1.35 2.103-3.617 3.358-6.064 3.359-.212 0-.428-.01-.642-.028-.56-.048-1.124-.194-1.555-.316a1.384 1.384 0 0 0-.381-.058c-.407 0-.659.23-.812.405a3276.5 3276.5 0 0 1-6.738 7.604l-1.37 1.544c-.439.494-.877.99-1.315 1.485a422.016 422.016 0 0 1-3.173 3.56c-.8.881-1.867 1.367-3.008 1.367Zm18.863-28.914c-2.021 0-3.9 1.044-5.023 2.792-1.119 1.738-1.283 3.879-.44 5.725.286.626.27.701-.246 1.16l-6.237 5.534-1.345 1.193c-.755.67-1.51 1.338-2.267 2.007-1.668 1.477-3.394 3.003-5.084 4.513a2.713 2.713 0 0 0-.908 2.35c.1.886.613 1.644 1.404 2.079.417.23.85.346 1.286.346.822 0 1.625-.417 2.324-1.207 4.2-4.74 8.406-9.475 13.072-14.73.31-.349.458-.349.529-.349.112 0 .26.044.454.133a6.115 6.115 0 0 0 2.584.576c2.862 0 5.288-1.973 5.9-4.796.127-.592.23-1.305.028-2.104l-.214-.837-.624.597-.171.163c-.109.102-.203.192-.295.282l-1.017 1.01c-.648.645-1.318 1.31-1.982 1.961-.332.326-.76.506-1.206.506-.434 0-.851-.172-1.176-.483a49.646 49.646 0 0 1-1.618-1.618c-.668-.7-.655-1.716.03-2.415.816-.832 1.542-1.562 2.222-2.231.254-.251.526-.5.814-.763.142-.13.29-.265.445-.41l.7-.65-.933-.211a9.332 9.332 0 0 1-.208-.05 1.641 1.641 0 0 0-.268-.051 6.651 6.651 0 0 0-.53-.022Z" fill="url(#c)"/><defs><linearGradient id="a" x1="4" y1="82.665" x2="81.796" y2="82.665" gradientUnits="userSpaceOnUse"><stop stop-color="#1723FF"/><stop offset="1" stop-color="#30E35E"/></linearGradient><linearGradient id="b" x1="59.822" y1="17.401" x2="71.222" y2="17.401" gradientUnits="userSpaceOnUse"><stop stop-color="#1723FF"/><stop offset="1" stop-color="#30E35E"/></linearGradient><linearGradient id="c" x1="28" y1="60.149" x2="58.148" y2="60.149" gradientUnits="userSpaceOnUse"><stop stop-color="#1723FF"/><stop offset="1" stop-color="#30E35E"/></linearGradient></defs></svg>