<svg width="87" height="87" fill="none" xmlns="http://www.w3.org/2000/svg"><circle cx="43.5" cy="43.5" r="43.5" fill="none"/><path d="M69.606 16.56c7.44 7.076 12.079 17.072 12.079 28.15 0 21.453-17.391 38.843-38.843 38.843C21.391 83.553 4 66.163 4 44.711c0-13.295 6.678-25.028 16.866-32.032" stroke="url(#a)" stroke-width="2" stroke-miterlimit="10"/><path class="pepito" d="M65.434 18.384a5.692 5.692 0 1 0 0-11.384 5.692 5.692 0 0 0 0 11.384Z" stroke="url(#b)" stroke-width="2" stroke-miterlimit="10"/><path d="M46.935 41.453c3.816 1.534 6.385 4.137 7.501 8.094.295 1.044.426 2.158.48 3.247.062 1.27-.652 2.211-1.564 2.984-1.89 1.602-4.125 2.394-6.487 2.844-3.819.727-7.559.436-11.15-1.138-3.894-1.707-4.872-3.902-3.618-8.048 1.065-3.518 3.26-6.031 6.52-7.556.274-.13.551-.254.956-.44-2.272-1.673-3.42-3.846-3.298-6.65.09-2.067.95-3.748 2.454-5.095 2.84-2.546 7.41-2.176 9.858.789 2.353 2.849 2.644 7.755-1.652 10.968Zm-3.832 16.01c2.977-.111 5.856-.644 8.492-2.247 1.512-.92 2.015-2.188 1.729-3.936-.805-4.912-4.95-8.6-9.664-8.802-4.601-.199-9.283 3.021-10.369 8.417-.507 2.523-.04 3.515 2.208 4.753 2.366 1.302 4.947 1.69 7.604 1.814Zm.157-16.613c3.012-.004 5.507-2.516 5.523-5.562.016-3.075-2.547-5.74-5.517-5.74-3.029.002-5.477 2.567-5.466 5.73.01 3.134 2.405 5.576 5.46 5.572Z" fill="url(#c)"/><path d="M56.292 53.04v-1.368c1.36-.214 2.73-.248 3.982-.66 3.532-1.164 4.155-2.192 2.152-5.832-1.778-3.23-6.289-4.384-9.838-1.466l-1.2-1.043 2.428-1.653c-1.278-1.233-1.996-2.743-1.802-4.608.143-1.369.722-2.511 1.752-3.388 2.008-1.71 4.935-1.509 6.748.447 1.947 2.1 1.775 4.937-.514 7.572.299.172.587.329.866.5 2.449 1.502 3.827 3.7 4.116 6.634.117 1.186-.334 2.083-1.209 2.777-2.187 1.734-4.712 2.175-7.481 2.088Zm-2.757-16.123c-.013 1.976 1.45 3.543 3.34 3.576 1.823.031 3.457-1.598 3.49-3.48.032-1.91-1.495-3.509-3.388-3.545-1.908-.036-3.428 1.487-3.441 3.448Z" fill="url(#d)"/><path d="M26.814 41.104c-2.225-2.638-2.33-5.524-.351-7.51 1.805-1.809 4.738-1.884 6.578-.168 2.192 2.046 2.172 4.676-.047 7.619l2.256 1.548-1.168 1.06c-1.355-1.047-2.84-1.64-4.582-1.58-3.025.103-5.946 2.978-5.945 6.112 0 .551.457 1.267.912 1.624 1.328 1.039 2.942 1.324 4.573 1.45.405.03.814.004 1.267.004v1.516c-2.55.121-4.9-.3-6.984-1.834-1.304-.959-1.5-2.303-1.2-3.795.56-2.802 2.12-4.8 4.69-6.046Zm-.22-4.062c-.007 1.933 1.373 3.395 3.218 3.41 1.803.015 3.323-1.501 3.346-3.337.023-1.846-1.454-3.38-3.27-3.394-1.875-.015-3.286 1.408-3.294 3.321Z" fill="url(#e)"/><defs><linearGradient id="a" x1="4" y1="83.555" x2="81.685" y2="83.555" gradientUnits="userSpaceOnUse"><stop stop-color="#1723FF"/><stop offset="1" stop-color="#30E35E"/></linearGradient><linearGradient id="b" x1="59.742" y1="18.384" x2="71.126" y2="18.384" gradientUnits="userSpaceOnUse"><stop stop-color="#1723FF"/><stop offset="1" stop-color="#30E35E"/></linearGradient><linearGradient id="c" x1="22" y1="59.001" x2="65" y2="59.001" gradientUnits="userSpaceOnUse"><stop stop-color="#1723FF"/><stop offset="1" stop-color="#30E35E"/></linearGradient><linearGradient id="d" x1="22" y1="59.001" x2="65" y2="59.001" gradientUnits="userSpaceOnUse"><stop stop-color="#1723FF"/><stop offset="1" stop-color="#30E35E"/></linearGradient><linearGradient id="e" x1="22" y1="59.001" x2="65" y2="59.001" gradientUnits="userSpaceOnUse"><stop stop-color="#1723FF"/><stop offset="1" stop-color="#30E35E"/></linearGradient></defs></svg>