<svg width="85" height="85" fill="none" xmlns="http://www.w3.org/2000/svg"><circle cx="42.5" cy="42.5" r="42.5" fill="#fff"/><path d="M69.24 14.404c7.279 6.923 11.817 16.702 11.817 27.542 0 20.99-17.015 38.004-38.004 38.004-20.989 0-38.004-17.015-38.004-38.004 0-13.007 6.534-24.488 16.502-31.34" stroke="url(#a)" stroke-width="2" stroke-miterlimit="10"/><path d="M65.157 16.188a5.57 5.57 0 1 0 0-11.139 5.57 5.57 0 0 0 0 11.139Z" stroke="url(#b)" stroke-width="2" stroke-miterlimit="10"/><path d="M60.67 50.353c-.567.965-1.043 1.873-1.627 2.707-.174.248-.648.39-.986.39-.455.002-.925-.137-1.362-.293-1-.358-1.73-.126-2.434.708-.415.494-.577.885-.389 1.468.072.222.1.457.133.69.097.654.497 1.656.223 1.9-.85.762-1.953 1.247-2.974 1.81-.084.047-.31-.1-.433-.201-.36-.299-.732-.592-1.043-.94-.782-.878-1.65-1.363-2.791-.699-.31.18-.67.422-.81.725-.322.714-.485 1.499-.794 2.22-.105.243-.446.526-.695.544-.902.065-1.812.065-2.714-.004-.248-.02-.555-.31-.69-.557a4.202 4.202 0 0 1-.466-1.314c-.18-1.11-.73-1.707-1.894-1.874-.554-.08-.916-.062-1.316.328-.647.631-1.347 1.21-2.105 1.882-.943-.554-1.907-1.091-2.832-1.688-.181-.116-.307-.473-.29-.706.039-.49.146-.986.304-1.451.356-1.047.212-1.868-.73-2.59-.439-.337-.78-.546-1.31-.386-.222.067-.455.098-.683.145-2.155.438-2.157.44-3.227-1.535-.235-.432-.451-.875-.68-1.323.438-.49.808-.99 1.262-1.394.865-.771 1.227-1.578.706-2.746-.2-.45-.353-.745-.82-.87-.365-.096-.72-.228-1.079-.35-1.703-.58-1.703-.58-1.712-2.381-.009-1.92-.009-1.92 1.767-2.523.165-.056.333-.102.5-.156 1.003-.329 1.725-1.335 1.661-2.375-.01-.18-.143-.37-.266-.52-.353-.429-.727-.841-1.099-1.254-.95-1.056-.953-1.054-.252-2.335 1.084-1.985 1.084-1.985 3.3-1.539 1.334.269 2.042-.002 2.76-1.128.121-.19.116-.502.08-.744-.071-.49-.213-.968-.31-1.455-.295-1.484-.293-1.484.972-2.256 1.902-1.148 1.999-1.243 3.517.327.979 1.014 1.907.828 2.958.471.198-.067.375-.335.468-.552.197-.453.332-.932.488-1.403.507-1.521.507-1.521 2.139-1.548 2.134-.033 2.276-.065 2.739 2.006.314 1.407 1.233 1.66 2.314 1.88.21.042.506-.082.688-.225.484-.376 1-.748 1.37-1.224.644-.828 1.25-.713 2.07-.251 2.133 1.201 2.152 1.166 1.675 3.583-.216 1.091.246 2.152 1.205 2.646.206.105.51.068.758.028.546-.088 1.116-.144 1.622-.352.982-.404 1.449.044 1.92.85 1.213 2.082 1.34 2.161-.34 3.804-1.026 1.005-.598 1.915-.343 2.914.042.167.316.32.514.397.57.22 1.144.473 1.739.571 1.014.167 1.231.733 1.244 1.688.03 2.465.077 2.465-2.24 3.227-1.087.359-1.703 1.188-1.689 2.35.002.2.158.42.293.59.309.39.646.756.977 1.127.33.37.665.734 1.058 1.166ZM34.04 57.067c.191.155.427.425.723.555.242.106.618.148.828.03.372-.21.707-.53.981-.866.77-.941 1.588-.92 2.785-.722 1.888.313 2.695 1.302 2.96 2.994.128.813.617.9 1.3.873.805-.034.702-.722.82-1.146.36-1.3.815-2.123 2.387-2.601 1.85-.562 2.885.012 3.948 1.219.381.432.71.518 1.267.207.563-.316.627-.674.484-1.205-.082-.31-.09-.645-.207-.94-.412-1.063-.094-1.735.688-2.637 1.256-1.447 2.497-1.84 4.208-1.133.495.204.886.104 1.202-.467.305-.553.245-.892-.199-1.27-.22-.188-.37-.462-.594-.643-.98-.785-.948-1.637-.729-2.868.33-1.852 1.292-2.637 2.95-2.89.867-.132 1.088-.719.833-1.36-.145-.365-.712-.67-1.147-.79-1.276-.353-2.078-.826-2.527-2.358-.517-1.769-.093-2.831 1.125-3.896.396-.348.707-.66.31-1.33-.394-.666-.822-.588-1.375-.46-.284.067-.59.075-.853.186-1.053.443-1.691.023-2.55-.699-1.457-1.228-1.87-2.479-1.156-4.199.199-.477.144-.897-.445-1.213-.54-.29-.883-.285-1.274.175-.244.287-.6.48-.835.771-.695.863-1.44.742-2.49.603-2.011-.265-2.845-1.342-3.14-3.136-.09-.553-.371-.755-.945-.764-.607-.01-.92.188-1.025.785-.049.283-.23.545-.272.83-.19 1.285-1.002 1.647-2.175 2.123-1.887.765-2.932-.035-4.022-1.226-.37-.404-.684-.472-1.198-.19-.536.296-.71.619-.532 1.185.088.277.08.588.191.851.49 1.17.058 1.9-.765 2.86-1.202 1.404-2.388 1.666-3.985 1.061-.542-.205-1-.186-1.354.483-.314.593-.093.88.263 1.267.93 1.012 1.81 1.787 1.277 3.624-.52 1.797-1.452 2.436-2.984 2.763-.602.129-.87.385-.867 1.054.002.662.323.856.862.97.282.06.543.23.826.277 1.191.2 1.605.902 2.023 2.061.646 1.79.188 2.956-1.118 4.056-.4.336-.61.663-.28 1.256.33.594.701.671 1.268.53.621-.154 1.246-.338 1.88-.39a1.54 1.54 0 0 1 1.022.333c.642.548 1.178 1.222 1.822 1.769.401.34.475.648.345 1.133-.209.755-.333 1.535-.535 2.515Z" fill="url(#c)"/><path d="M54.365 42.522a10.977 10.977 0 0 1-11.01 11.025c-6.118.01-11.014-4.87-11.036-11-.023-6.149 4.923-11.104 11.055-11.076a10.994 10.994 0 0 1 10.991 11.051Zm-11.041 9.5c5.17.025 9.466-4.25 9.519-9.47.052-5.18-4.34-9.584-9.53-9.554-5.187.03-9.503 4.363-9.477 9.519.028 5.212 4.289 9.48 9.488 9.505Z" fill="url(#d)"/><defs><linearGradient id="a" x1="5.049" y1="79.952" x2="81.057" y2="79.952" gradientUnits="userSpaceOnUse"><stop stop-color="#1723FF"/><stop offset="1" stop-color="#30E35E"/></linearGradient><linearGradient id="b" x1="59.587" y1="16.188" x2="70.726" y2="16.188" gradientUnits="userSpaceOnUse"><stop stop-color="#1723FF"/><stop offset="1" stop-color="#30E35E"/></linearGradient><linearGradient id="c" x1="24.411" y1="61.431" x2="62.277" y2="61.431" gradientUnits="userSpaceOnUse"><stop stop-color="#1723FF"/><stop offset="1" stop-color="#30E35E"/></linearGradient><linearGradient id="d" x1="32.319" y1="53.547" x2="54.365" y2="53.547" gradientUnits="userSpaceOnUse"><stop stop-color="#1723FF"/><stop offset="1" stop-color="#30E35E"/></linearGradient></defs></svg>