<svg width="85" height="85" fill="none" xmlns="http://www.w3.org/2000/svg"><circle cx="42.5" cy="42.5" r="42.5" fill="#fff"/><path d="M68.398 14.404c7.28 6.923 11.818 16.702 11.818 27.542 0 20.99-17.015 38.004-38.004 38.004-20.989 0-38.004-17.015-38.004-38.004 0-13.007 6.534-24.488 16.502-31.34" stroke="url(#a)" stroke-width="2" stroke-miterlimit="10"/><path d="M64.316 16.188a5.57 5.57 0 1 0 0-11.139 5.57 5.57 0 0 0 0 11.139Z" stroke="url(#b)" stroke-width="2" stroke-miterlimit="10"/><path d="M53.136 31.28v-7.272h1.448v7.273h-1.448Zm-2.91-2.915v-1.447H57.5v1.447h-7.273Z" fill="url(#c)"/><path d="M45.93 40.554c3.809 1.459 6.373 3.932 7.487 7.692.294.991.425 2.05.478 3.085.063 1.206-.65 2.1-1.56 2.835-1.886 1.522-4.117 2.275-6.475 2.703-3.812.69-7.545.413-11.13-1.082-3.886-1.621-4.863-3.708-3.61-7.647 1.062-3.342 3.254-5.73 6.506-7.18.275-.122.551-.24.955-.417-2.267-1.59-3.414-3.655-3.292-6.319.09-1.964.948-3.56 2.45-4.841 2.835-2.42 7.397-2.067 9.84.75 2.349 2.706 2.64 7.368-1.65 10.421Zm-3.825 15.212c2.972-.104 5.845-.61 8.476-2.134 1.51-.873 2.011-2.078 1.726-3.74-.803-4.667-4.942-8.17-9.646-8.363-4.593-.189-9.266 2.87-10.35 7.997-.506 2.398-.04 3.34 2.204 4.517 2.362 1.237 4.937 1.605 7.59 1.724Zm.157-15.784c3.006-.004 5.496-2.39 5.512-5.285.016-2.921-2.542-5.455-5.507-5.454-3.023.002-5.466 2.44-5.456 5.445.01 2.977 2.4 5.298 5.45 5.294Z" fill="url(#d)"/><defs><linearGradient id="a" x1="4.208" y1="79.952" x2="80.216" y2="79.952" gradientUnits="userSpaceOnUse"><stop stop-color="#1723FF"/><stop offset="1" stop-color="#30E35E"/></linearGradient><linearGradient id="b" x1="58.746" y1="16.188" x2="69.885" y2="16.188" gradientUnits="userSpaceOnUse"><stop stop-color="#1723FF"/><stop offset="1" stop-color="#30E35E"/></linearGradient><linearGradient id="c" x1="30.606" y1="57.228" x2="53.899" y2="57.228" gradientUnits="userSpaceOnUse"><stop stop-color="#1723FF"/><stop offset="1" stop-color="#30E35E"/></linearGradient><linearGradient id="d" x1="30.606" y1="57.228" x2="53.899" y2="57.228" gradientUnits="userSpaceOnUse"><stop stop-color="#1723FF"/><stop offset="1" stop-color="#30E35E"/></linearGradient></defs></svg>