<svg width="160" height="177" fill="none" xmlns="http://www.w3.org/2000/svg"><g filter="url(#a)"><path d="m145.098 69.653-25.641-42.946a19.889 19.889 0 0 0-17.361-9.688l-19.438.274-5.71-8.308-5.476 8.466-19.438.273a19.89 19.89 0 0 0-17.081 10.173L10.53 71.547a19.845 19.845 0 0 0 .28 19.861l25.64 42.946a19.889 19.889 0 0 0 17.361 9.688l50.063-.705a19.89 19.89 0 0 0 17.081-10.172l24.422-43.651a19.844 19.844 0 0 0-.28-19.86Z" fill="#fff"/></g><path d="M93.178 76.413c.719.071 1.359.116 1.992.203.69.093.908.37.922 1.07.002.169.007.344.05.507.204.777.838.971 1.459.458 1.046-.866 1.09-.918 2.136-.034.837.706 1.577 1.532 2.305 2.352.434.49.363.788-.093 1.25-.109.109-.259.216-.298.349-.092.313-.276.72-.15.943.139.248.57.351.889.484.117.05.276.01.414.001.496-.034.797.202.907.663.336 1.418.393 2.843.099 4.276-.092.45-.375.677-.83.71-.103.009-.208-.002-.313 0-.475.005-.938.094-1.126.576-.193.494.136.84.486 1.149.54.474.579.738.193 1.323-.747 1.133-1.66 2.106-2.824 2.84-.522.33-.804.305-1.243-.117-.05-.048-.096-.1-.147-.145-.326-.285-.7-.517-1.133-.354-.453.17-.493.623-.547 1.034-.012.084.004.172.007.256.015.584-.186.86-.784.947-.788.116-1.583.187-2.432.286-.023.192-.042.426-.085.655a4.769 4.769 0 0 1-4.614 3.881c-3.148.041-6.297.017-9.446.018-5.236.004-10.47.011-15.707-.001-.254 0-.577-.095-.748-.262-2.037-1.987-4.049-4.002-6.075-6-1.044-1.03-2.115-2.034-3.146-3.075A1.131 1.131 0 0 1 53 91.93c-.004-11.893.01-23.79.007-35.684 0-2.175.878-3.837 2.903-4.747.731-.329 1.608-.45 2.422-.467 2.73-.056 5.462-.02 8.193-.02 7.149 0 14.3-.004 21.448 0 2.537.002 4.443 1.35 5.026 3.582.137.522.17 1.082.171 1.624.012 6.52.007 13.043.007 19.563v.632Zm-1.707 20.891c-.738-.263-.848-.417-.87-1.172-.014-.46-.081-.926-.571-1.12-.504-.2-.858.116-1.17.461-.035.039-.066.081-.1.118-.373.392-.722.48-1.145.136-.892-.728-1.807-1.448-2.58-2.29-.882-.959-.794-.997-.048-2.066.19-.272.309-.75.192-1.023-.103-.24-.576-.335-.896-.474-.087-.036-.206-.002-.31 0-.634.02-.898-.173-1.025-.772-.263-1.25-.33-2.508-.128-3.775.147-.927.295-1.062 1.233-1.091.473-.015.928-.108 1.11-.601.179-.485-.154-.803-.477-1.103-.05-.046-.11-.085-.16-.131-.34-.311-.405-.66-.153-1.056.775-1.222 1.746-2.256 2.984-3.04.41-.258.781-.249 1.125.103.373.384.796.771 1.357.536.543-.228.537-.79.51-1.296-.03-.517.23-.843.716-.91.432-.06.52-.24.52-.636-.011-6.659-.006-13.32-.01-19.978-.002-2.187-1.363-3.535-3.575-3.537-9.899-.004-19.8.01-29.699-.01-2.19-.002-3.69 1.555-3.681 3.637.044 11.47.022 22.94.022 34.41v.626h.596c1.513 0 3.031.068 4.54-.016 2.51-.14 4.248 1.582 4.1 4.059-.089 1.5-.016 3.011-.016 4.518v.607h23.905c.174 0 .348.002.522-.009 1.792-.115 3.031-1.313 3.181-3.105Zm-3.536-3.262c1.87-1.359 3.77-.719 4.341 1.672.584 0 1.172-.008 1.763.003.433.008.614-.166.71-.605.367-1.662 1.984-2.365 3.508-1.564.18.094.353.201.596.342l1.637-1.731c-1.365-1.646-.782-3.847 1.676-4.23 0-.608-.004-1.22.001-1.832.003-.357-.128-.51-.526-.591-1.758-.364-2.495-1.967-1.65-3.498.091-.163.194-.32.338-.556l-1.75-1.612c-1.563 1.258-3.889.891-4.3-1.65-.618 0-1.24.005-1.86 0-.392-.004-.54.163-.626.558-.346 1.624-1.897 2.361-3.397 1.648-.216-.103-.418-.233-.709-.396l-1.644 1.716c1.477 1.783.54 3.883-1.385 4.157-.123.017-.307.231-.313.36-.032.675-.015 1.353-.015 2.007.362.083.585.12.798.185.849.265 1.461.774 1.7 1.648.202.731-.012 1.392-.412 1.997-.151.23-.154.388.044.572.488.46.971.924 1.475 1.4Zm-25.558 5.063c0-1.51.044-3.046-.017-4.578-.036-.88-.895-1.568-1.82-1.594-.73-.02-1.46-.007-2.19-.007H56.1l6.277 6.18Z" fill="#1D53D2"/><path d="M75.885 78.553c-.928 2.056-3.016 2.074-4.178.541-.23.168-.473.322-.69.507-1.259 1.084-3.21.5-3.628-1.112-.1-.385-.257-.564-.65-.703-.785-.276-1.28-.88-1.445-1.687-.07-.345-.202-.496-.545-.612-.837-.285-1.316-.927-1.506-1.761-.056-.245-.124-.36-.389-.439-.867-.258-1.435-.856-1.614-1.721-.181-.877.052-1.663.789-2.256.24-.193.472-.396.75-.631l-1.261-1.462c-.113.168-.167.278-.25.362-.388.396-.76.436-1.192.08a91.608 91.608 0 0 1-2.365-2.017c-.46-.405-.452-.824-.008-1.346 1.418-1.668 2.838-3.332 4.256-4.998.983-1.154 1.964-2.309 2.948-3.462.551-.646.862-.67 1.513-.119.634.535 1.263 1.074 1.892 1.615.693.597.733.79.31 1.63l3.527.89c.236.059.475.107.707.175.688.203 1.269.293 1.962-.231.615-.466 1.502-.585 2.269-.858.274-.097.548-.192.822-.287-.277-.777-.19-1.043.46-1.507.733-.522 1.461-1.048 2.193-1.57.612-.436 1.086-.366 1.5.247 2.176 3.217 4.349 6.437 6.517 9.66.339.502.273.942-.208 1.3a89.811 89.811 0 0 1-2.446 1.75c-.575.397-.861.34-1.482-.223-.994.491-1.45 1.43-2.017 2.3.295.354.597.685.863 1.043.56.754.674 1.58.235 2.414-.436.828-1.151 1.247-2.121 1.237-.163-.001-.408.099-.478.226-.402.735-1.062 1.042-1.845 1.194-.148.03-.348.113-.403.228-.558 1.18-1.48 1.723-2.792 1.603Zm-3.361-16.997c-1.689-.42-3.264-.822-4.851-1.188-.149-.034-.405.12-.525.259-1.432 1.676-2.849 3.365-4.269 5.052-.107.128-.204.262-.307.395l1.393 1.605c1.471-.69 2.615-.345 3.42.977.072.117.252.26.37.25 1.496-.116 2.96 1.294 2.557 2.873-.026.103.026.29.107.344 1.228.822 1.474 1.912.92 3.245.692.526 1.057 1.194 1.18 2.072.055.397.513.785.876 1.072.121.096.575-.068.761-.237.287-.26.15-.61-.066-.88-.454-.563-.93-1.108-1.394-1.664-.402-.482-.435-.977-.09-1.28.5-.436 1.05-.4 1.503.114.558.633 1.11 1.274 1.663 1.91.417.476.777.55 1.147.238.322-.271.286-.606-.118-1.067-.578-.662-1.16-1.32-1.736-1.985-.394-.456-.39-.917-.001-1.265.404-.362.888-.306 1.308.172.66.75 1.3 1.52 1.966 2.263.124.138.348.294.5.272.211-.03.51-.184.566-.352.071-.213.017-.557-.125-.734-.624-.777-1.302-1.516-1.956-2.269-.429-.493-.427-.942-.003-1.303.4-.338.83-.264 1.252.228.761.889 1.521 1.78 2.277 2.676.213.252.431.438.8.32.61-.197.709-.681.209-1.247-1.868-2.12-3.747-4.23-5.623-6.344-.329-.371-.666-.736-1.026-1.133-.224.19-.414.362-.613.52-1.478 1.181-3.57 1.1-4.78-.184-.597-.634-.567-1.08.12-1.637.83-.67 1.664-1.34 2.588-2.088Zm-1.007 2.97c.773.437 1.398.317 1.98-.203.335-.298.683-.583 1.026-.873.61-.517.838-.496 1.502-.039.967.667 1.995 1.11 3.218.673.503-.18.94.02 1.077.43.154.46-.04.87-.57 1.042-.481.155-.988.233-1.54.358l3.055 3.335 2.223-2.45c-1.432-2.12-2.9-4.301-4.38-6.476-.071-.107-.26-.252-.337-.225-1.08.371-2.266.599-3.199 1.201-1.43.926-2.68 2.114-4.055 3.227Zm14.06 2.337 1.371-.963c-1.994-2.904-3.947-5.743-5.911-8.601-.457.34-.865.648-1.288.964l5.828 8.6Zm-26.242-1.91c.428.36.806.681 1.22 1.03l6.473-7.649-1.216-1.031-6.477 7.65Zm9.397 6.336c-.167-.216-.287-.534-.469-.572-.263-.056-.64.001-.846.161-.777.603-1.506 1.264-2.247 1.91-.352.308-.41.7-.165.99.273.324.66.345 1.059.015a102.73 102.73 0 0 0 2.283-1.95c.144-.13.228-.324.385-.554Zm-5.314.569c.199-.079.348-.1.445-.18a91.154 91.154 0 0 0 1.807-1.537c.379-.33.22-.687-.011-1.002-.234-.32-.585-.257-.83-.058a23.161 23.161 0 0 0-1.84 1.648c-.132.134-.138.489-.063.694.067.181.326.296.492.435Zm3.35 3.765c.19.21.325.483.524.54.224.066.563.016.751-.12.543-.39 1.04-.844 1.548-1.28.415-.357.472-.717.182-1.062-.245-.294-.657-.294-1.057.032-.534.432-1.058.876-1.57 1.335-.142.127-.223.322-.378.555Zm2.727 2.951c.63-.014 1.136-.527 1.236-1.115.03-.172.022-.468-.074-.522-.202-.11-.512-.191-.707-.113-.306.123-.601.35-.811.605-.135.164-.21.499-.131.68.097.225.381.372.487.465ZM68.947 87.498c3.427 0 6.853 0 10.28.002.174 0 .352-.013.52.02.392.074.61.328.631.712.021.378-.147.681-.524.795-.227.068-.48.074-.721.074-6.803.004-13.605.002-20.406.001-.207 0-.419-.005-.622-.04-.426-.072-.625-.358-.628-.761-.003-.433.229-.711.668-.786.17-.03.347-.015.52-.015 3.428-.002 6.855-.002 10.282-.002ZM68.955 83.188l10.23.001c.19 0 .386-.01.571.028.388.078.607.333.624.719.017.378-.153.675-.535.789-.211.063-.444.07-.668.07-6.837.002-13.674.002-20.511.001-.19 0-.384 0-.57-.036-.421-.08-.62-.365-.62-.77 0-.409.211-.685.625-.77.185-.039.38-.03.57-.03 3.43-.002 6.857-.002 10.284-.002ZM73.99 91.806c2.228 0 4.455-.003 6.682.002.696.002 1.093.477.883 1.05-.152.414-.497.539-.915.538-1.235-.003-2.47 0-3.705 0-3.202 0-6.403.001-9.603-.002-.685-.001-.972-.21-1.012-.706-.046-.556.263-.876.887-.878 1.826-.007 3.654-.003 5.48-.003l1.304-.001ZM79.51 96.116c1.357 0 2.713-.003 4.07.001.623.001.931.268.931.785 0 .523-.295.785-.93.786-2.748.004-5.495.004-8.243 0-.612-.001-.942-.288-.944-.785 0-.498.333-.785.941-.786 1.392-.004 2.783-.001 4.175-.001ZM93.256 82.334c2.605-.006 4.805 2.154 4.796 4.703-.01 2.562-2.151 4.667-4.755 4.677-2.638.01-4.797-2.087-4.812-4.672-.015-2.583 2.134-4.703 4.771-4.709Zm3.159 4.612c.002-1.712-1.398-3.103-3.136-3.113-1.732-.01-3.153 1.38-3.159 3.089-.005 1.686 1.433 3.124 3.134 3.132 1.698.007 3.158-1.429 3.16-3.108Z" fill="#1D53D2"/><path d="M48.824 162.909c0 1.074-.194 2.002-.582 2.784-.388.782-.92 1.386-1.596 1.81-.676.424-1.448.636-2.316.636-.869 0-1.641-.212-2.317-.636-.676-.424-1.208-1.028-1.596-1.81-.388-.782-.582-1.71-.582-2.784 0-1.074.194-2.002.582-2.784.388-.782.92-1.385 1.596-1.81.676-.424 1.448-.636 2.317-.636.868 0 1.64.212 2.316.636.676.425 1.208 1.028 1.596 1.81.388.782.582 1.71.582 2.784Zm-1.193 0c0-.882-.148-1.626-.443-2.232-.291-.607-.688-1.066-1.188-1.377a3.078 3.078 0 0 0-1.67-.468c-.617 0-1.175.156-1.676.468-.497.311-.893.77-1.188 1.377-.292.606-.438 1.35-.438 2.232 0 .882.146 1.626.438 2.232.295.607.691 1.066 1.188 1.377.5.312 1.06.468 1.675.468.617 0 1.174-.156 1.671-.468.5-.311.897-.77 1.188-1.377.295-.606.443-1.35.443-2.232Zm4.28.497V168h-1.173v-7.636h1.133v1.193h.1c.179-.388.45-.7.815-.935.365-.238.835-.358 1.412-.358.517 0 .97.106 1.357.318.388.209.69.527.905.955.216.424.323.961.323 1.611V168H55.61v-4.773c0-.6-.156-1.067-.467-1.402-.312-.338-.74-.507-1.283-.507-.374 0-.71.081-1.004.244a1.738 1.738 0 0 0-.691.711c-.17.311-.254.689-.254 1.133ZM59.086 168v-10.182h1.174v3.759h.1c.085-.133.205-.302.357-.507a2.09 2.09 0 0 1 .666-.557c.292-.166.686-.249 1.184-.249.643 0 1.21.161 1.7.482.49.322.873.778 1.148 1.368.275.59.413 1.286.413 2.088 0 .808-.138 1.509-.413 2.103-.275.59-.656 1.047-1.143 1.372-.487.321-1.05.482-1.686.482-.49 0-.883-.081-1.178-.244a2.183 2.183 0 0 1-.68-.561 7.55 7.55 0 0 1-.369-.527h-.139V168h-1.133Zm1.154-3.818c0 .577.084 1.085.253 1.526.17.438.416.781.741 1.029.325.245.723.368 1.193.368.49 0 .9-.129 1.228-.388.332-.262.58-.613.746-1.054.17-.444.254-.938.254-1.481a4.02 4.02 0 0 0-.249-1.452 2.245 2.245 0 0 0-.74-1.029c-.329-.255-.741-.383-1.239-.383-.477 0-.878.121-1.203.363-.325.239-.57.573-.735 1.004-.166.428-.25.927-.25 1.497Zm10.485 3.977c-.69 0-1.294-.164-1.815-.492a3.342 3.342 0 0 1-1.213-1.377c-.288-.59-.432-1.28-.432-2.068 0-.796.144-1.49.432-2.084a3.344 3.344 0 0 1 1.213-1.382c.52-.328 1.126-.492 1.815-.492.69 0 1.293.164 1.81.492.52.329.924.789 1.213 1.382.291.594.437 1.288.437 2.084 0 .788-.146 1.478-.437 2.068a3.297 3.297 0 0 1-1.213 1.377c-.517.328-1.12.492-1.81.492Zm0-1.054c.524 0 .955-.134 1.293-.403a2.37 2.37 0 0 0 .75-1.059 4.05 4.05 0 0 0 .244-1.421c0-.511-.081-.986-.244-1.427a2.406 2.406 0 0 0-.75-1.069c-.338-.272-.77-.408-1.293-.408-.524 0-.955.136-1.293.408a2.405 2.405 0 0 0-.75 1.069 4.095 4.095 0 0 0-.244 1.427c0 .51.081.984.244 1.421.162.438.412.791.75 1.059.338.269.77.403 1.293.403Zm7.498 1.074c-.483 0-.923-.091-1.317-.273a2.265 2.265 0 0 1-.94-.801c-.232-.351-.348-.775-.348-1.273 0-.437.086-.792.259-1.064.172-.275.403-.49.69-.646.29-.156.607-.272.955-.348.352-.079.705-.142 1.06-.189.463-.059.84-.104 1.128-.134.291-.033.504-.088.636-.164.136-.076.204-.209.204-.398v-.04c0-.49-.134-.871-.403-1.143-.265-.272-.668-.408-1.208-.408-.56 0-.999.123-1.317.368-.318.245-.542.507-.671.786l-1.114-.398c.199-.464.464-.825.795-1.084.335-.262.7-.444 1.094-.547a4.543 4.543 0 0 1 1.174-.159c.245 0 .526.03.845.09.321.056.631.174.93.353.301.179.551.449.75.81.199.361.298.845.298 1.452V168H80.55v-1.034h-.06c-.08.166-.212.343-.397.532-.186.189-.433.35-.741.482-.308.133-.684.199-1.129.199Zm.18-1.054c.463 0 .854-.091 1.173-.273.321-.183.563-.418.726-.706.165-.289.248-.592.248-.91v-1.074c-.05.06-.159.114-.328.164a5.521 5.521 0 0 1-.577.124c-.215.033-.426.063-.631.09-.202.023-.366.043-.492.059-.305.04-.59.105-.856.194a1.47 1.47 0 0 0-.636.393c-.159.172-.239.408-.239.706 0 .408.151.716.453.925.305.205.691.308 1.158.308Zm5.462.875v-7.636h1.133v1.153h.08c.14-.378.391-.684.756-.92a2.227 2.227 0 0 1 1.233-.353c.086 0 .194.002.323.005.129.004.227.009.293.015v1.193a3.665 3.665 0 0 0-.273-.044 2.605 2.605 0 0 0-.443-.035c-.371 0-.703.078-.994.234a1.713 1.713 0 0 0-.935 1.556V168h-1.173Zm7.86.159c-.636 0-1.198-.161-1.685-.482-.488-.325-.869-.782-1.144-1.372-.275-.594-.412-1.295-.412-2.103 0-.802.137-1.498.412-2.088.275-.59.658-1.046 1.149-1.368.49-.321 1.057-.482 1.7-.482.497 0 .89.083 1.178.249.292.162.514.348.666.557.156.205.277.374.363.507h.1v-3.759h1.173V168h-1.134v-1.173h-.139a7.516 7.516 0 0 1-.368.527c-.159.208-.386.396-.68.561-.296.163-.688.244-1.179.244Zm.16-1.054c.47 0 .867-.123 1.192-.368.325-.248.572-.591.741-1.029.169-.441.254-.949.254-1.526 0-.57-.083-1.069-.249-1.497-.166-.431-.411-.765-.736-1.004-.325-.242-.726-.363-1.203-.363-.497 0-.911.128-1.243.383a2.292 2.292 0 0 0-.74 1.029 4.093 4.093 0 0 0-.244 1.452c0 .543.083 1.037.248 1.481.17.441.418.792.746 1.054.332.259.743.388 1.233.388Zm5.652.895v-7.636h1.173V168h-1.173Zm.596-8.909a.834.834 0 0 1-.591-.234.751.751 0 0 1-.244-.562c0-.218.081-.406.244-.561a.834.834 0 0 1 .591-.234c.229 0 .425.078.587.234a.742.742 0 0 1 .249.561.744.744 0 0 1-.249.562.817.817 0 0 1-.587.234Zm3.899 4.315V168h-1.173v-7.636h1.134v1.193h.099c.179-.388.451-.7.815-.935.365-.238.836-.358 1.412-.358.517 0 .97.106 1.357.318.388.209.69.527.905.955.216.424.323.961.323 1.611V168h-1.173v-4.773c0-.6-.156-1.067-.467-1.402-.312-.338-.739-.507-1.283-.507-.374 0-.709.081-1.004.244a1.736 1.736 0 0 0-.691.711c-.169.311-.254.689-.254 1.133Zm10.099 7.617c-.567 0-1.054-.073-1.462-.219a3.106 3.106 0 0 1-1.019-.567 3.092 3.092 0 0 1-.641-.746l.934-.656c.106.139.241.299.403.477.162.183.385.34.666.473.285.136.658.204 1.119.204.616 0 1.125-.15 1.526-.448.401-.298.602-.765.602-1.402v-1.551h-.1a6.255 6.255 0 0 1-.368.517c-.155.202-.381.383-.676.542-.291.156-.686.234-1.183.234-.616 0-1.17-.146-1.661-.438-.487-.291-.873-.716-1.158-1.273-.282-.556-.422-1.233-.422-2.028 0-.782.137-1.463.412-2.043.275-.584.658-1.034 1.149-1.353.49-.321 1.057-.482 1.7-.482.497 0 .891.083 1.183.249.295.162.52.348.676.557.159.205.282.374.368.507h.119v-1.213h1.134v7.855c0 .656-.149 1.19-.447 1.601a2.546 2.546 0 0 1-1.194.909 4.489 4.489 0 0 1-1.66.294Zm-.04-4.196c.471 0 .868-.108 1.193-.323.325-.216.572-.526.741-.93.169-.404.254-.888.254-1.452 0-.55-.083-1.036-.249-1.457a2.192 2.192 0 0 0-.736-.989c-.325-.239-.726-.358-1.203-.358-.497 0-.911.126-1.243.378-.328.252-.575.59-.741 1.014a3.93 3.93 0 0 0-.243 1.412c0 .53.083.999.248 1.407.169.404.418.723.746.955.332.228.743.343 1.233.343Z" fill="#717171"/><defs><filter id="a" x=".005" y=".985" width="159.898" height="155.059" filterUnits="userSpaceOnUse" color-interpolation-filters="sRGB"><feFlood flood-opacity="0" result="BackgroundImageFix"/><feColorMatrix in="SourceAlpha" values="0 0 0 0 0 0 0 0 0 0 0 0 0 0 0 0 0 0 127 0" result="hardAlpha"/><feOffset dx="2" dy="2"/><feGaussianBlur stdDeviation="5"/><feComposite in2="hardAlpha" operator="out"/><feColorMatrix values="0 0 0 0 0 0 0 0 0 0 0 0 0 0 0 0 0 0 0.1 0"/><feBlend in2="BackgroundImageFix" result="effect1_dropShadow_23_30"/><feBlend in="SourceGraphic" in2="effect1_dropShadow_23_30" result="shape"/></filter></defs></svg>