<svg width="155" height="160" viewBox="0 0 155 160" fill="none" xmlns="http://www.w3.org/2000/svg">
<g filter="url(#filter0_d_3_93)">
<path d="M81.0965 145.244L124.399 120.211C130.546 116.659 134.33 110.091 134.33 102.988L134.33 83.5472L142.718 77.954L134.33 72.3607L134.33 52.9205C134.33 45.817 130.546 39.2491 124.399 35.6973L81.0965 10.6638C74.9492 7.11207 67.3813 7.11207 61.234 10.6638L17.9313 35.6973C11.784 39.2491 8.00003 45.817 8.00003 52.9205L8.00002 102.988C8.00002 110.091 11.784 116.659 17.9313 120.211L61.234 145.244C67.3813 148.796 74.9536 148.796 81.0965 145.244Z" fill="white"/>
</g>
<path d="M86.1779 64.4128C86.8962 64.484 87.5365 64.5292 88.1698 64.6155C88.8588 64.7086 89.0773 64.9867 89.0912 65.6852C89.094 65.855 89.0982 66.0303 89.1413 66.1933C89.3459 66.9698 89.9793 67.1643 90.6001 66.6507C91.6468 65.7851 91.6913 65.7331 92.7366 66.6165C93.5732 67.3232 94.3137 68.149 95.0417 68.9694C95.4759 69.4597 95.4049 69.7569 94.9484 70.2185C94.8398 70.328 94.6895 70.4349 94.6505 70.5677C94.5587 70.8814 94.3749 71.2881 94.5002 71.5114C94.6394 71.7593 95.0709 71.862 95.3896 71.9948C95.5066 72.0441 95.6652 72.0058 95.803 71.9962C96.2999 71.962 96.6006 72.1975 96.7106 72.6591C97.046 74.0766 97.1031 75.5023 96.8094 76.9349C96.7175 77.3855 96.435 77.6115 95.9798 77.6457C95.8768 77.654 95.771 77.643 95.6666 77.6444C95.192 77.6498 94.7285 77.7389 94.5406 78.221C94.3471 78.7154 94.677 79.0619 95.0263 79.37C95.5664 79.8439 95.6054 80.1082 95.2198 80.6931C94.4724 81.8257 93.5593 82.7995 92.3956 83.5336C91.8737 83.8636 91.5911 83.8376 91.1526 83.4158C91.1025 83.3679 91.0566 83.3158 91.0051 83.2706C90.6794 82.9857 90.3064 82.7543 89.8721 82.9173C89.4197 83.0871 89.3793 83.5404 89.3251 83.9513C89.3139 84.0348 89.3292 84.1225 89.332 84.2074C89.3473 84.7909 89.1469 85.0661 88.5484 85.1538C87.7606 85.2702 86.9658 85.3414 86.1167 85.44C86.093 85.6318 86.0749 85.866 86.0318 86.0947C85.6267 88.286 83.7003 89.9473 81.4176 89.9761C78.2691 90.0172 75.1206 89.9925 71.9721 89.9939C66.7357 89.998 61.5007 90.0049 56.2643 89.9925C56.011 89.9925 55.688 89.898 55.5168 89.7309C53.4791 87.7437 51.4677 85.729 49.4411 83.7308C48.3972 82.7009 47.3268 81.697 46.2954 80.6561C46.1228 80.4821 46.0003 80.1754 46.0003 79.9302C45.9961 68.0367 46.01 56.1405 46.0073 44.2457C46.0073 42.0708 46.8856 40.4095 48.9108 39.4987C49.6416 39.17 50.5185 39.0481 51.3327 39.0317C54.0623 38.9755 56.7946 39.0111 59.5255 39.0111C66.6744 39.0111 73.8247 39.0084 80.9736 39.0125C83.511 39.0139 85.4166 40.3615 85.9998 42.594C86.1362 43.1158 86.1696 43.6759 86.171 44.2183C86.1821 50.7389 86.1779 57.2608 86.1779 63.7814C86.1779 63.9855 86.1779 64.1882 86.1779 64.4128ZM84.4701 85.3044C83.7323 85.0415 83.6224 84.8867 83.6001 84.1321C83.5862 83.6719 83.5194 83.2062 83.0294 83.0118C82.5256 82.8118 82.172 83.1282 81.8588 83.4733C81.824 83.5117 81.7934 83.5541 81.7586 83.5911C81.387 83.9828 81.0376 84.0718 80.6145 83.7267C79.7222 82.9994 78.8077 82.279 78.0338 81.4367C77.1528 80.478 77.2404 80.4397 77.9865 79.3714C78.1758 79.0989 78.2955 78.6209 78.1786 78.3483C78.0756 78.1073 77.6023 78.0128 77.2822 77.8745C77.1959 77.8375 77.0762 77.8717 76.9718 77.8745C76.3385 77.8936 76.074 77.7005 75.9474 77.102C75.6843 75.8516 75.6175 74.5943 75.8193 73.3274C75.9668 72.4002 76.1144 72.2646 77.0525 72.2359C77.5258 72.2208 77.9809 72.1277 78.1633 71.6346C78.3415 71.1498 78.0088 70.8321 77.6859 70.5321C77.6358 70.4855 77.5759 70.4472 77.5258 70.4006C77.1848 70.0897 77.1207 69.7419 77.3727 69.3447C78.148 68.123 79.1181 67.089 80.357 66.3056C80.7662 66.0467 81.1378 66.0563 81.4816 66.4083C81.8546 66.7918 82.2778 67.1794 82.8387 66.9438C83.3816 66.7165 83.376 66.1536 83.3482 65.6482C83.3189 65.1305 83.5778 64.8045 84.065 64.7374C84.4965 64.6785 84.5842 64.4977 84.5842 64.1019C84.5731 57.443 84.5786 50.7827 84.5745 44.1238C84.5731 41.9366 83.2118 40.5889 81 40.5875C71.1007 40.5834 61.2 40.5971 51.3007 40.5766C49.1112 40.5752 47.6107 42.1324 47.6191 44.2142C47.6636 55.6845 47.6414 67.1547 47.6414 78.6236C47.6414 78.8099 47.6414 78.9961 47.6414 79.2495C47.8641 79.2495 48.0506 79.2495 48.2371 79.2495C49.7501 79.2495 51.2687 79.318 52.7775 79.2345C55.2872 79.0948 57.0257 80.8163 56.8781 83.2925C56.789 84.7936 56.8614 86.3042 56.8614 87.8108C56.8614 87.9943 56.8614 88.1765 56.8614 88.4175C57.1314 88.4175 57.3361 88.4175 57.5393 88.4175C65.2811 88.4175 73.0243 88.4175 80.7662 88.4175C80.9402 88.4175 81.1142 88.4203 81.2881 88.4093C83.0809 88.2943 84.3197 87.0959 84.4701 85.3044ZM80.9346 82.0421C82.8039 80.6835 84.7053 81.3231 85.276 83.7144C85.8592 83.7144 86.448 83.7061 87.0381 83.7171C87.471 83.7253 87.652 83.5514 87.7494 83.1117C88.1155 81.4504 89.7329 80.7465 91.257 81.5477C91.4366 81.6422 91.6092 81.749 91.8528 81.8901C92.4054 81.3053 92.9524 80.7273 93.4897 80.1589C92.1242 78.5127 92.7074 76.3118 95.1655 75.9283C95.1655 75.3215 95.1614 74.7093 95.1669 74.0971C95.1697 73.7397 95.0389 73.5877 94.6408 73.5055C92.8828 73.1425 92.1451 71.5388 92.9914 70.0076C93.0818 69.8446 93.1848 69.6884 93.3282 69.4515C92.7394 68.9092 92.1548 68.3695 91.5786 67.8395C90.0155 69.0982 87.6896 68.7311 87.2789 66.1905C86.6609 66.1905 86.0387 66.1946 85.418 66.1892C85.0268 66.1864 84.8779 66.3535 84.793 66.748C84.4464 68.3723 82.8958 69.1091 81.3953 68.3956C81.1796 68.2928 80.9777 68.1627 80.6868 67.9998C80.1412 68.5695 79.5886 69.1461 79.043 69.7158C80.5198 71.499 79.5817 73.5986 77.658 73.8725C77.5341 73.8903 77.3504 74.104 77.3448 74.2327C77.3128 74.9079 77.3295 75.5859 77.3295 76.2405C77.6914 76.3227 77.9141 76.3597 78.1271 76.4254C78.9762 76.6898 79.5886 77.1993 79.828 78.073C80.0298 78.8044 79.8155 79.4645 79.416 80.0699C79.2643 80.3 79.2615 80.4575 79.4592 80.6424C79.9477 81.1012 80.4307 81.5655 80.9346 82.0421ZM55.3762 87.1055C55.3762 85.5948 55.4208 84.0595 55.3595 82.5269C55.3234 81.6463 54.4645 80.9588 53.5389 80.9327C52.8096 80.9122 52.0788 80.9259 51.3494 80.9259C50.5936 80.9259 49.8378 80.9259 49.0987 80.9259C51.2019 82.9967 53.2828 85.0442 55.3762 87.1055Z" fill="#1D53D2"/>
<path d="M68.8848 66.5535C67.9564 68.6092 65.8685 68.627 64.7063 67.0945C64.4766 67.2615 64.233 67.4163 64.0159 67.6012C62.7576 68.6845 60.8061 68.1011 60.3885 66.4891C60.2883 66.1042 60.131 65.9248 59.7385 65.7865C58.9535 65.5098 58.4579 64.9059 58.2937 64.0992C58.2241 63.754 58.0919 63.6034 57.7481 63.487C56.9115 63.2021 56.4327 62.5598 56.242 61.7257C56.1863 61.4805 56.1181 61.3655 55.8537 61.2874C54.9865 61.0286 54.4186 60.4314 54.239 59.5659C54.0581 58.6893 54.2919 57.9032 55.0283 57.3101C55.2677 57.117 55.5001 56.9143 55.7785 56.6788C55.3651 56.2008 54.9795 55.7543 54.5174 55.2174C54.4047 55.3845 54.3504 55.4954 54.2683 55.579C53.8799 55.9748 53.5069 56.0145 53.0754 55.6598C52.2751 55.001 51.4872 54.3272 50.7105 53.6424C50.2512 53.237 50.2582 52.8179 50.7022 52.2961C52.1206 50.6279 53.5403 48.9639 54.9587 47.2985C55.9414 46.1439 56.9227 44.9894 57.9067 43.8362C58.4579 43.1897 58.7683 43.1665 59.4198 43.717C60.0531 44.2525 60.6822 44.7908 61.3114 45.3318C62.0045 45.9289 62.0449 46.122 61.6218 46.9616C62.8049 47.2601 63.9769 47.556 65.1489 47.8518C65.3841 47.9107 65.6235 47.9586 65.856 48.0271C66.5436 48.2298 67.124 48.3202 67.8172 47.7956C68.4324 47.33 69.3191 47.2108 70.086 46.9383C70.3602 46.841 70.6344 46.7465 70.9086 46.6507C70.6316 45.8741 70.7179 45.6084 71.3694 45.1441C72.1015 44.6223 72.8295 44.0964 73.5616 43.5746C74.1741 43.1377 74.6473 43.2075 75.0621 43.8211C77.2377 47.0383 79.4104 50.2582 81.5791 53.4808C81.9173 53.9834 81.8519 54.4231 81.3703 54.7805C80.5657 55.3777 79.7487 55.9611 78.9247 56.5309C78.3498 56.928 78.0631 56.8705 77.4423 56.3076C76.4485 56.7993 75.9919 57.7375 75.4254 58.6085C75.7205 58.9619 76.0225 59.2933 76.2884 59.6508C76.8479 60.4054 76.9621 61.2313 76.5236 62.0653C76.0879 62.8926 75.3725 63.3117 74.4023 63.3021C74.2395 63.3007 73.9945 63.4007 73.9249 63.5281C73.5226 64.2635 72.8629 64.5703 72.0792 64.7223C71.9317 64.7511 71.7313 64.8346 71.677 64.9497C71.1188 66.1303 70.196 66.6726 68.8848 66.5535ZM65.5233 49.5556C63.8349 49.1365 62.2593 48.7338 60.6725 48.3681C60.5235 48.3339 60.2674 48.4887 60.1477 48.627C58.7154 50.3034 57.2985 51.9921 55.8787 53.6794C55.7715 53.8068 55.6741 53.941 55.5711 54.0738C56.0555 54.6312 56.5148 55.1599 56.9644 55.679C58.4357 54.9887 59.5798 55.3338 60.3844 56.6555C60.4567 56.7733 60.6363 56.9157 60.7546 56.9061C62.2509 56.7897 63.7138 58.2004 63.3116 59.7795C63.2851 59.8822 63.338 60.0699 63.4187 60.1233C64.6464 60.945 64.8928 62.0352 64.3388 63.3678C65.0306 63.8937 65.3952 64.5621 65.5177 65.44C65.5734 65.8372 66.0314 66.2248 66.3946 66.5124C66.5157 66.6083 66.9695 66.4439 67.156 66.2754C67.4428 66.0152 67.3063 65.6646 67.0892 65.3948C66.6354 64.8319 66.1594 64.2868 65.6959 63.7308C65.2936 63.2487 65.2602 62.7542 65.6054 62.4516C66.1051 62.0147 66.6549 62.0516 67.1087 62.5652C67.6669 63.198 68.2181 63.839 68.772 64.4744C69.1882 64.9511 69.5487 65.025 69.919 64.7128C70.2405 64.4416 70.2043 64.1074 69.8007 63.6458C69.223 62.9843 68.6398 62.3269 68.0649 61.6613C67.671 61.2052 67.6752 60.7437 68.0636 60.3958C68.4672 60.0343 68.9516 60.0904 69.372 60.5684C70.0317 61.3189 70.6706 62.0873 71.3373 62.8309C71.4612 62.9693 71.6853 63.1254 71.8384 63.1035C72.0486 63.0734 72.3479 62.9186 72.4035 62.7515C72.4745 62.5378 72.4202 62.1941 72.2783 62.0174C71.6547 61.2395 70.9768 60.5013 70.3226 59.748C69.8939 59.255 69.8953 58.8057 70.3198 58.4455C70.7193 58.1072 71.1494 58.1812 71.5712 58.6729C72.3326 59.5617 73.0925 60.4533 73.8484 61.3491C74.0613 61.6011 74.2798 61.7873 74.6487 61.6682C75.2584 61.4723 75.3572 60.9875 74.8575 60.4218C72.9895 58.3017 71.1105 56.1912 69.2342 54.0779C68.9057 53.7068 68.5688 53.3425 68.2083 52.9453C67.9842 53.1357 67.7949 53.3069 67.5959 53.4657C66.1177 54.6463 64.0256 54.5641 62.816 53.2808C62.2189 52.6467 62.2481 52.2016 62.9357 51.6442C63.7653 50.9731 64.5991 50.3034 65.5233 49.5556ZM64.517 52.5262C65.2895 52.9631 65.9144 52.8426 66.4963 52.3235C66.8317 52.0249 67.1797 51.74 67.5221 51.4497C68.1318 50.9334 68.36 50.9539 69.024 51.4113C69.9914 52.0783 71.02 52.5207 72.2421 52.0838C72.746 51.9044 73.1816 52.1044 73.3194 52.5139C73.4739 52.974 73.2791 53.3849 72.7487 53.5561C72.2685 53.7109 71.7619 53.7889 71.2093 53.9136C72.2574 55.0572 73.286 56.1816 74.2645 57.2485C75.012 56.4254 75.7386 55.6242 76.4874 54.7997C75.0551 52.6782 73.5867 50.4978 72.1085 48.3229C72.0361 48.2161 71.8482 48.0709 71.7702 48.0983C70.6901 48.4695 69.5042 48.6968 68.5716 49.2994C67.1421 50.2253 65.8908 51.4127 64.517 52.5262ZM78.5767 54.8627C79.0527 54.5285 79.4954 54.2176 79.9477 53.8999C77.9531 50.9964 76.0003 48.1572 74.0363 45.2989C73.5797 45.6399 73.1719 45.9467 72.7487 46.2631C74.7099 49.1556 76.635 51.9975 78.5767 54.8627ZM52.3349 52.9521C52.7622 53.3137 53.1408 53.6342 53.5542 53.9821C55.72 51.4237 57.8608 48.8954 60.028 46.3343C59.6035 45.9741 59.2179 45.6481 58.8115 45.303C56.6318 47.8765 54.4979 50.3965 52.3349 52.9521ZM61.7317 59.2892C61.5647 59.0728 61.445 58.7551 61.2627 58.7167C60.9996 58.6606 60.6224 58.7181 60.4164 58.8783C59.6397 59.4809 58.9103 60.1424 58.1698 60.7889C57.8177 61.0957 57.7592 61.4874 58.0042 61.7777C58.277 62.1023 58.6639 62.1229 59.0634 61.7928C59.8345 61.1546 60.5945 60.5026 61.3462 59.8425C61.4909 59.7138 61.5744 59.5193 61.7317 59.2892ZM56.4174 59.8576C56.6164 59.7795 56.7654 59.7576 56.8628 59.6782C57.4725 59.1742 58.0738 58.6606 58.6695 58.1415C59.0481 57.8114 58.8894 57.454 58.6584 57.139C58.4245 56.8198 58.0738 56.8815 57.8288 57.0814C57.1899 57.6005 56.5677 58.1456 55.9887 58.729C55.8565 58.8633 55.8509 59.218 55.926 59.4234C55.9929 59.6042 56.2518 59.7192 56.4174 59.8576ZM59.7677 63.6226C59.9584 63.8321 60.0921 64.106 60.2911 64.1635C60.5152 64.2293 60.8548 64.1786 61.0427 64.043C61.5856 63.6527 62.0825 63.1994 62.5905 62.7625C63.0053 62.4064 63.0624 62.0462 62.7729 61.701C62.5279 61.4066 62.1159 61.4066 61.715 61.7325C61.1819 62.1653 60.6572 62.6091 60.1449 63.0679C60.003 63.1953 59.9222 63.3897 59.7677 63.6226ZM62.4945 66.574C63.1236 66.5603 63.6303 66.0467 63.7305 65.4592C63.7598 65.2866 63.7528 64.9908 63.6567 64.9374C63.4549 64.8264 63.1445 64.7456 62.9497 64.8237C62.6434 64.947 62.3483 65.1743 62.1382 65.429C62.0032 65.5934 61.928 65.9276 62.0073 66.1097C62.1048 66.3343 62.3887 66.4809 62.4945 66.574Z" fill="#1D53D2"/>
<path d="M61.9461 75.4982C65.373 75.4982 68.7999 75.4982 72.2268 75.4996C72.4008 75.4996 72.5789 75.4873 72.7473 75.5201C73.1385 75.5941 73.357 75.8475 73.3779 76.2323C73.3988 76.6103 73.2303 76.913 72.8531 77.0267C72.6263 77.0952 72.3729 77.1006 72.1321 77.1006C65.3298 77.1047 58.5275 77.1034 51.7266 77.102C51.5192 77.102 51.3077 77.0965 51.1045 77.0623C50.6785 76.9897 50.4795 76.7035 50.4767 76.3008C50.4739 75.868 50.705 75.59 51.1448 75.5147C51.3146 75.4859 51.4914 75.4996 51.6654 75.4996C55.0923 75.4982 58.5192 75.4982 61.9461 75.4982Z" fill="#1D53D2"/>
<path d="M61.9544 71.1881C65.3646 71.1881 68.7734 71.1881 72.1836 71.1895C72.3743 71.1895 72.5706 71.1799 72.7557 71.2169C73.144 71.295 73.3626 71.5497 73.3793 71.9359C73.396 72.3139 73.2262 72.6111 72.8448 72.7248C72.6332 72.7878 72.4008 72.7947 72.1767 72.7947C65.3396 72.7974 58.5025 72.7974 51.6654 72.796C51.4747 72.796 51.2812 72.796 51.0947 72.7604C50.6744 72.6796 50.4753 72.3947 50.4753 71.9894C50.4753 71.5812 50.6869 71.3046 51.1003 71.2196C51.2854 71.1813 51.4803 71.1895 51.671 71.1895C55.1006 71.1881 58.5275 71.1881 61.9544 71.1881Z" fill="#1D53D2"/>
<path d="M66.9904 79.8056C69.2174 79.8056 71.4445 79.8028 73.6716 79.8083C74.3675 79.8097 74.7642 80.2849 74.5541 80.8588C74.4023 81.2724 74.0571 81.397 73.6396 81.3957C72.4049 81.3929 71.1689 81.3957 69.9343 81.3957C66.7329 81.3957 63.5315 81.397 60.3315 81.3943C59.6466 81.3929 59.3599 81.1834 59.3195 80.6876C59.2736 80.1315 59.5826 79.8124 60.2062 79.8097C62.0324 79.8028 63.86 79.8069 65.6862 79.8069C66.1204 79.8056 66.5547 79.8056 66.9904 79.8056Z" fill="#1D53D2"/>
<path d="M72.5093 84.1157C73.8664 84.1157 75.2222 84.1129 76.5793 84.117C77.2029 84.1184 77.5105 84.3855 77.5105 84.9018C77.5105 85.425 77.2154 85.6866 76.5807 85.6879C73.833 85.692 71.0854 85.692 68.3378 85.6879C67.7253 85.6866 67.3954 85.4003 67.394 84.9032C67.394 84.4046 67.7267 84.1184 68.335 84.117C69.7269 84.1129 71.1174 84.1157 72.5093 84.1157Z" fill="#1D53D2"/>
<path d="M86.2559 70.3335C88.8602 70.328 91.0608 72.4879 91.051 75.0367C91.0413 77.5992 88.9005 79.7042 86.2963 79.7138C83.6586 79.7234 81.4997 77.6266 81.4844 75.0422C81.4691 72.4591 83.6182 70.339 86.2559 70.3335ZM89.4141 74.9463C89.4169 73.2343 88.0167 71.8428 86.2782 71.8332C84.5466 71.8236 83.1255 73.2124 83.1199 74.9216C83.1143 76.6076 84.5522 78.0457 86.2531 78.0539C87.9512 78.0607 89.4114 76.6254 89.4141 74.9463Z" fill="#1D53D2"/>
<path d="M46.42 106.636C46.42 107.557 46.2538 108.352 45.9214 109.023C45.589 109.693 45.133 110.21 44.5535 110.574C43.9739 110.938 43.312 111.119 42.5677 111.119C41.8234 111.119 41.1614 110.938 40.5819 110.574C40.0024 110.21 39.5464 109.693 39.214 109.023C38.8816 108.352 38.7154 107.557 38.7154 106.636C38.7154 105.716 38.8816 104.92 39.214 104.25C39.5464 103.58 40.0024 103.062 40.5819 102.699C41.1614 102.335 41.8234 102.153 42.5677 102.153C43.312 102.153 43.9739 102.335 44.5535 102.699C45.133 103.062 45.589 103.58 45.9214 104.25C46.2538 104.92 46.42 105.716 46.42 106.636ZM45.3972 106.636C45.3972 105.881 45.2708 105.243 45.018 104.723C44.768 104.203 44.4285 103.81 43.9995 103.543C43.5734 103.276 43.0961 103.142 42.5677 103.142C42.0393 103.142 41.5606 103.276 41.1316 103.543C40.7055 103.81 40.366 104.203 40.1131 104.723C39.8631 105.243 39.7381 105.881 39.7381 106.636C39.7381 107.392 39.8631 108.03 40.1131 108.55C40.366 109.07 40.7055 109.463 41.1316 109.73C41.5606 109.997 42.0393 110.131 42.5677 110.131C43.0961 110.131 43.5734 109.997 43.9995 109.73C44.4285 109.463 44.768 109.07 45.018 108.55C45.2708 108.03 45.3972 107.392 45.3972 106.636ZM49.0663 107.062V111H48.0606V104.455H49.0322V105.477H49.1174C49.2708 105.145 49.5038 104.878 49.8163 104.676C50.1288 104.472 50.5322 104.369 51.0265 104.369C51.4697 104.369 51.8575 104.46 52.1899 104.642C52.5222 104.821 52.7808 105.094 52.9654 105.46C53.1501 105.824 53.2424 106.284 53.2424 106.841V111H52.2367V106.909C52.2367 106.395 52.1032 105.994 51.8362 105.707C51.5691 105.418 51.2026 105.273 50.7367 105.273C50.4157 105.273 50.1288 105.342 49.8759 105.482C49.6259 105.621 49.4285 105.824 49.2836 106.091C49.1387 106.358 49.0663 106.682 49.0663 107.062ZM55.2165 111V102.273H56.2222V105.494H56.3074C56.3813 105.381 56.4835 105.236 56.6142 105.06C56.7477 104.881 56.9381 104.722 57.1852 104.582C57.4352 104.44 57.7733 104.369 58.1994 104.369C58.7506 104.369 59.2364 104.507 59.6568 104.783C60.0773 105.058 60.4054 105.449 60.6412 105.955C60.877 106.46 60.9949 107.057 60.9949 107.744C60.9949 108.438 60.877 109.038 60.6412 109.547C60.4054 110.053 60.0787 110.445 59.6611 110.723C59.2435 110.999 58.7619 111.136 58.2165 111.136C57.796 111.136 57.4594 111.067 57.2065 110.928C56.9537 110.786 56.7591 110.625 56.6227 110.446C56.4864 110.264 56.3813 110.114 56.3074 109.994H56.1881V111H55.2165ZM56.2051 107.727C56.2051 108.222 56.2776 108.658 56.4225 109.036C56.5673 109.411 56.779 109.705 57.0574 109.918C57.3358 110.128 57.6767 110.233 58.0801 110.233C58.5006 110.233 58.8514 110.122 59.1327 109.901C59.4168 109.676 59.6298 109.375 59.7719 108.997C59.9168 108.616 59.9892 108.193 59.9892 107.727C59.9892 107.267 59.9182 106.852 59.7761 106.483C59.6369 106.111 59.4253 105.817 59.1412 105.601C58.86 105.382 58.5063 105.273 58.0801 105.273C57.671 105.273 57.3273 105.376 57.0489 105.584C56.7705 105.788 56.5602 106.075 56.4182 106.445C56.2761 106.811 56.2051 107.239 56.2051 107.727ZM65.1923 111.136C64.6014 111.136 64.083 110.996 63.6369 110.714C63.1938 110.433 62.8472 110.04 62.5972 109.534C62.35 109.028 62.2264 108.437 62.2264 107.761C62.2264 107.08 62.35 106.484 62.5972 105.976C62.8472 105.467 63.1938 105.072 63.6369 104.791C64.083 104.51 64.6014 104.369 65.1923 104.369C65.7832 104.369 66.3003 104.51 66.7435 104.791C67.1895 105.072 67.5361 105.467 67.7832 105.976C68.0332 106.484 68.1582 107.08 68.1582 107.761C68.1582 108.437 68.0332 109.028 67.7832 109.534C67.5361 110.04 67.1895 110.433 66.7435 110.714C66.3003 110.996 65.7832 111.136 65.1923 111.136ZM65.1923 110.233C65.6412 110.233 66.0105 110.118 66.3003 109.888C66.5901 109.658 66.8046 109.355 66.9438 108.98C67.083 108.605 67.1526 108.199 67.1526 107.761C67.1526 107.324 67.083 106.916 66.9438 106.538C66.8046 106.161 66.5901 105.855 66.3003 105.622C66.0105 105.389 65.6412 105.273 65.1923 105.273C64.7435 105.273 64.3742 105.389 64.0844 105.622C63.7946 105.855 63.5801 106.161 63.4409 106.538C63.3017 106.916 63.2321 107.324 63.2321 107.761C63.2321 108.199 63.3017 108.605 63.4409 108.98C63.5801 109.355 63.7946 109.658 64.0844 109.888C64.3742 110.118 64.7435 110.233 65.1923 110.233ZM71.6195 111.153C71.2048 111.153 70.8283 111.075 70.4903 110.919C70.1522 110.76 69.8837 110.531 69.6849 110.233C69.486 109.932 69.3866 109.568 69.3866 109.142C69.3866 108.767 69.4604 108.463 69.6082 108.23C69.7559 107.994 69.9533 107.81 70.2005 107.676C70.4477 107.543 70.7204 107.443 71.0187 107.378C71.3198 107.31 71.6224 107.256 71.9264 107.216C72.3241 107.165 72.6465 107.126 72.8937 107.101C73.1437 107.072 73.3255 107.026 73.4391 106.96C73.5556 106.895 73.6139 106.781 73.6139 106.619V106.585C73.6139 106.165 73.4988 105.838 73.2687 105.605C73.0414 105.372 72.6962 105.256 72.2332 105.256C71.7531 105.256 71.3766 105.361 71.1039 105.571C70.8312 105.781 70.6394 106.006 70.5286 106.244L69.5741 105.903C69.7445 105.506 69.9718 105.196 70.2559 104.974C70.5428 104.75 70.8553 104.594 71.1934 104.506C71.5343 104.415 71.8695 104.369 72.1991 104.369C72.4093 104.369 72.6508 104.395 72.9235 104.446C73.1991 104.494 73.4647 104.595 73.7204 104.749C73.9789 104.902 74.1934 105.134 74.3639 105.443C74.5343 105.753 74.6195 106.168 74.6195 106.688V111H73.6139V110.114H73.5627C73.4945 110.256 73.3809 110.408 73.2218 110.57C73.0627 110.732 72.8511 110.869 72.5869 110.983C72.3227 111.097 72.0002 111.153 71.6195 111.153ZM71.7729 110.25C72.1707 110.25 72.5059 110.172 72.7786 110.016C73.0542 109.859 73.2616 109.658 73.4008 109.411C73.5428 109.163 73.6139 108.903 73.6139 108.631V107.71C73.5712 107.761 73.4775 107.808 73.3326 107.851C73.1906 107.891 73.0258 107.926 72.8383 107.957C72.6536 107.986 72.4732 108.011 72.2971 108.034C72.1238 108.054 71.9832 108.071 71.8752 108.085C71.6139 108.119 71.3695 108.175 71.1423 108.251C70.9178 108.325 70.736 108.437 70.5968 108.588C70.4604 108.736 70.3923 108.937 70.3923 109.193C70.3923 109.543 70.5215 109.807 70.7801 109.986C71.0414 110.162 71.3724 110.25 71.7729 110.25ZM76.4551 111V104.455H77.4267V105.443H77.4949C77.6142 105.119 77.8301 104.857 78.1426 104.655C78.4551 104.453 78.8074 104.352 79.1994 104.352C79.2733 104.352 79.3656 104.354 79.4764 104.357C79.5872 104.359 79.671 104.364 79.7279 104.369V105.392C79.6938 105.384 79.6156 105.371 79.4935 105.354C79.3742 105.334 79.2477 105.324 79.1142 105.324C78.796 105.324 78.5119 105.391 78.2619 105.524C78.0148 105.655 77.8188 105.837 77.6739 106.07C77.5318 106.3 77.4608 106.562 77.4608 106.858V111H76.4551ZM83.1923 111.136C82.6469 111.136 82.1653 110.999 81.7477 110.723C81.3301 110.445 81.0034 110.053 80.7676 109.547C80.5318 109.038 80.4139 108.438 80.4139 107.744C80.4139 107.057 80.5318 106.46 80.7676 105.955C81.0034 105.449 81.3315 105.058 81.752 104.783C82.1725 104.507 82.6582 104.369 83.2094 104.369C83.6355 104.369 83.9722 104.44 84.2193 104.582C84.4693 104.722 84.6597 104.881 84.7904 105.06C84.9239 105.236 85.0276 105.381 85.1014 105.494H85.1867V102.273H86.1923V111H85.2207V109.994H85.1014C85.0276 110.114 84.9225 110.264 84.7861 110.446C84.6497 110.625 84.4551 110.786 84.2023 110.928C83.9494 111.067 83.6128 111.136 83.1923 111.136ZM83.3287 110.233C83.7321 110.233 84.073 110.128 84.3514 109.918C84.6298 109.705 84.8415 109.411 84.9864 109.036C85.1313 108.658 85.2037 108.222 85.2037 107.727C85.2037 107.239 85.1327 106.811 84.9906 106.445C84.8486 106.075 84.6384 105.788 84.36 105.584C84.0815 105.376 83.7378 105.273 83.3287 105.273C82.9026 105.273 82.5475 105.382 82.2634 105.601C81.9821 105.817 81.7705 106.111 81.6284 106.483C81.4892 106.852 81.4196 107.267 81.4196 107.727C81.4196 108.193 81.4906 108.616 81.6327 108.997C81.7776 109.375 81.9906 109.676 82.2719 109.901C82.556 110.122 82.9082 110.233 83.3287 110.233ZM88.1739 111V104.455H89.1796V111H88.1739ZM88.6852 103.364C88.4892 103.364 88.3202 103.297 88.1781 103.163C88.0389 103.03 87.9693 102.869 87.9693 102.682C87.9693 102.494 88.0389 102.334 88.1781 102.2C88.3202 102.067 88.4892 102 88.6852 102C88.8813 102 89.0489 102.067 89.1881 102.2C89.3301 102.334 89.4011 102.494 89.4011 102.682C89.4011 102.869 89.3301 103.03 89.1881 103.163C89.0489 103.297 88.8813 103.364 88.6852 103.364ZM92.0272 107.062V111H91.0215V104.455H91.9931V105.477H92.0783C92.2318 105.145 92.4647 104.878 92.7772 104.676C93.0897 104.472 93.4931 104.369 93.9874 104.369C94.4306 104.369 94.8184 104.46 95.1508 104.642C95.4832 104.821 95.7417 105.094 95.9264 105.46C96.111 105.824 96.2033 106.284 96.2033 106.841V111H95.1977V106.909C95.1977 106.395 95.0641 105.994 94.7971 105.707C94.5301 105.418 94.1636 105.273 93.6977 105.273C93.3766 105.273 93.0897 105.342 92.8369 105.482C92.5869 105.621 92.3894 105.824 92.2445 106.091C92.0997 106.358 92.0272 106.682 92.0272 107.062ZM100.683 113.591C100.197 113.591 99.7797 113.528 99.4303 113.403C99.0808 113.281 98.7896 113.119 98.5567 112.918C98.3266 112.719 98.1433 112.506 98.007 112.278L98.8081 111.716C98.899 111.835 99.0141 111.972 99.1533 112.125C99.2925 112.281 99.4828 112.416 99.7243 112.53C99.9686 112.646 100.288 112.705 100.683 112.705C101.212 112.705 101.648 112.577 101.991 112.321C102.335 112.065 102.507 111.665 102.507 111.119V109.79H102.422C102.348 109.909 102.243 110.057 102.106 110.233C101.973 110.406 101.78 110.561 101.527 110.697C101.277 110.831 100.939 110.898 100.513 110.898C99.9842 110.898 99.5098 110.773 99.0894 110.523C98.6717 110.273 98.3408 109.909 98.0965 109.432C97.855 108.955 97.7342 108.375 97.7342 107.693C97.7342 107.023 97.8521 106.439 98.0879 105.942C98.3237 105.442 98.6519 105.055 99.0723 104.783C99.4928 104.507 99.9786 104.369 100.53 104.369C100.956 104.369 101.294 104.44 101.544 104.582C101.797 104.722 101.99 104.881 102.123 105.06C102.26 105.236 102.365 105.381 102.439 105.494H102.541V104.455H103.513V111.187C103.513 111.75 103.385 112.207 103.129 112.56C102.876 112.915 102.535 113.175 102.106 113.339C101.68 113.507 101.206 113.591 100.683 113.591ZM100.649 109.994C101.052 109.994 101.393 109.902 101.672 109.717C101.95 109.533 102.162 109.267 102.307 108.92C102.452 108.574 102.524 108.159 102.524 107.676C102.524 107.205 102.453 106.788 102.311 106.428C102.169 106.067 101.959 105.784 101.68 105.58C101.402 105.375 101.058 105.273 100.649 105.273C100.223 105.273 99.8678 105.381 99.5837 105.597C99.3024 105.812 99.0908 106.102 98.9487 106.466C98.8095 106.83 98.7399 107.233 98.7399 107.676C98.7399 108.131 98.8109 108.533 98.953 108.882C99.0979 109.229 99.3109 109.501 99.5922 109.7C99.8763 109.896 100.229 109.994 100.649 109.994Z" fill="#717171"/>
<defs>
<filter id="filter0_d_3_93" x="0" y="7.62939e-06" width="154.718" height="159.908" filterUnits="userSpaceOnUse" color-interpolation-filters="sRGB">
<feFlood flood-opacity="0" result="BackgroundImageFix"/>
<feColorMatrix in="SourceAlpha" type="matrix" values="0 0 0 0 0 0 0 0 0 0 0 0 0 0 0 0 0 0 127 0" result="hardAlpha"/>
<feOffset dx="2" dy="2"/>
<feGaussianBlur stdDeviation="5"/>
<feComposite in2="hardAlpha" operator="out"/>
<feColorMatrix type="matrix" values="0 0 0 0 0 0 0 0 0 0 0 0 0 0 0 0 0 0 0.1 0"/>
<feBlend mode="normal" in2="BackgroundImageFix" result="effect1_dropShadow_3_93"/>
<feBlend mode="normal" in="SourceGraphic" in2="effect1_dropShadow_3_93" result="shape"/>
</filter>
</defs>
</svg>
