<svg width="155" height="160" fill="none" xmlns="http://www.w3.org/2000/svg"><g filter="url(#a)"><path d="m81.097 145.244 43.302-25.033a19.89 19.89 0 0 0 9.931-17.223v-19.44l8.388-5.594-8.388-5.593V52.92a19.89 19.89 0 0 0-9.931-17.224L81.097 10.664a19.845 19.845 0 0 0-19.863 0L17.931 35.697A19.89 19.89 0 0 0 8 52.92v50.068a19.89 19.89 0 0 0 9.931 17.223l43.303 25.033a19.844 19.844 0 0 0 19.863 0Z" fill="#fff"/></g><path d="M86.178 64.413c.718.071 1.359.116 1.992.203.689.093.907.37.921 1.07.003.169.007.344.05.507.205.777.838.971 1.46.458 1.046-.866 1.09-.918 2.136-.034.836.706 1.577 1.532 2.305 2.352.434.49.363.788-.094 1.25-.108.109-.258.216-.297.349-.092.313-.276.72-.15.943.138.248.57.351.889.484.117.05.275.01.413.001.497-.034.798.202.908.663.335 1.418.392 2.843.098 4.276-.091.45-.374.677-.83.71-.102.009-.208-.002-.312 0-.475.005-.939.094-1.126.576-.194.494.136.84.485 1.149.54.474.58.738.194 1.323-.748 1.133-1.66 2.106-2.824 2.84-.522.33-.805.305-1.243-.117-.05-.048-.096-.1-.148-.145-.326-.285-.699-.517-1.133-.354-.452.17-.493.623-.547 1.034-.011.084.004.172.007.256.015.584-.185.86-.784.947-.787.116-1.582.187-2.431.286-.024.192-.042.426-.085.655a4.769 4.769 0 0 1-4.614 3.881c-3.149.041-6.297.017-9.446.018-5.236.004-10.471.01-15.708-.001-.253 0-.576-.095-.747-.262-2.038-1.987-4.05-4.002-6.076-6-1.044-1.03-2.114-2.034-3.146-3.075A1.131 1.131 0 0 1 46 79.93c-.004-11.893.01-23.79.007-35.684 0-2.175.879-3.837 2.904-4.747.73-.329 1.608-.45 2.422-.467 2.73-.056 5.462-.02 8.193-.02 7.148 0 14.299-.004 21.448 0 2.537.002 4.443 1.35 5.026 3.582.136.522.17 1.082.171 1.624.011 6.52.007 13.043.007 19.563v.632ZM84.47 85.304c-.738-.263-.848-.417-.87-1.172-.014-.46-.08-.926-.57-1.12-.504-.2-.858.116-1.171.461-.035.039-.066.081-.1.118-.372.392-.721.48-1.144.136-.893-.728-1.807-1.448-2.581-2.29-.881-.959-.794-.997-.047-2.066.189-.272.309-.75.192-1.023-.103-.24-.577-.335-.897-.474-.086-.036-.206-.002-.31 0-.633.02-.898-.173-1.025-.772-.263-1.25-.33-2.508-.128-3.775.148-.927.295-1.062 1.233-1.091.474-.015.929-.108 1.111-.601.178-.485-.154-.803-.477-1.103-.05-.046-.11-.085-.16-.131-.341-.311-.405-.66-.153-1.056.775-1.222 1.745-2.256 2.984-3.04.41-.258.78-.249 1.125.103.373.384.796.771 1.357.536.543-.228.537-.79.51-1.296-.03-.517.229-.843.716-.91.431-.06.52-.24.52-.636-.012-6.659-.006-13.32-.01-19.978-.002-2.187-1.363-3.535-3.575-3.537-9.9-.004-19.8.01-29.7-.01-2.189-.002-3.69 1.555-3.68 3.637.044 11.47.021 22.94.021 34.41v.626h.596c1.513 0 3.032.068 4.54-.016 2.51-.14 4.249 1.582 4.101 4.059-.089 1.5-.017 3.011-.017 4.518v.606h23.905c.174 0 .348.003.522-.008 1.793-.115 3.032-1.313 3.182-3.105Zm-3.535-3.262c1.869-1.359 3.77-.719 4.341 1.672.583 0 1.172-.008 1.762.003.433.008.614-.166.711-.605.367-1.662 1.984-2.365 3.508-1.564.18.094.352.201.596.342l1.637-1.731c-1.366-1.646-.783-3.847 1.675-4.23 0-.608-.004-1.22.002-1.832.003-.357-.128-.51-.526-.591-1.758-.364-2.496-1.967-1.65-3.498.09-.163.194-.32.337-.556-.589-.543-1.173-1.082-1.75-1.612-1.563 1.258-3.888.891-4.3-1.65-.617 0-1.24.005-1.86 0-.391-.004-.54.163-.625.558-.347 1.624-1.897 2.361-3.398 1.648-.215-.103-.417-.233-.708-.396l-1.644 1.716c1.477 1.783.539 3.883-1.385 4.157-.124.017-.308.231-.313.36-.032.675-.016 1.353-.016 2.007.362.083.585.12.798.185.85.265 1.462.774 1.701 1.648.202.731-.013 1.392-.412 1.997-.152.23-.154.388.043.572.489.46.972.924 1.476 1.4Zm-25.559 5.064c0-1.511.045-3.046-.017-4.58-.036-.88-.895-1.567-1.82-1.593-.73-.02-1.46-.007-2.19-.007H49.1l6.277 6.18Z" fill="#1D53D2"/><path d="M68.885 66.553c-.929 2.056-3.017 2.074-4.179.541-.23.168-.473.322-.69.507-1.258 1.084-3.21.5-3.628-1.112-.1-.385-.257-.564-.65-.703-.785-.276-1.28-.88-1.444-1.687-.07-.345-.202-.496-.546-.612-.837-.285-1.315-.927-1.506-1.761-.056-.245-.124-.36-.388-.439-.867-.258-1.435-.856-1.615-1.721-.18-.877.053-1.663.79-2.256.239-.193.471-.396.75-.631-.414-.478-.8-.925-1.262-1.462-.112.168-.167.278-.249.362-.388.396-.761.435-1.193.08a91.778 91.778 0 0 1-2.364-2.017c-.46-.405-.453-.824-.009-1.346 1.419-1.668 2.838-3.332 4.257-4.998.982-1.154 1.964-2.309 2.948-3.462.55-.646.861-.67 1.513-.119.633.535 1.262 1.074 1.891 1.615.694.597.734.79.31 1.63l3.528.89c.235.059.475.107.707.175.688.203 1.268.293 1.961-.231.615-.466 1.502-.585 2.269-.858.274-.097.548-.192.823-.287-.277-.777-.191-1.043.46-1.507.733-.522 1.46-1.048 2.193-1.57.612-.436 1.085-.366 1.5.247 2.176 3.217 4.348 6.437 6.517 9.66.338.502.273.942-.209 1.3a89.811 89.811 0 0 1-2.445 1.75c-.575.397-.862.34-1.483-.223-.993.491-1.45 1.43-2.017 2.3.296.354.597.685.863 1.043.56.754.674 1.58.236 2.414-.436.828-1.151 1.247-2.122 1.237-.162-.001-.407.099-.477.226-.402.735-1.062 1.042-1.846 1.194-.147.03-.348.113-.402.228-.558 1.18-1.481 1.723-2.792 1.603Zm-3.362-16.997c-1.688-.42-3.264-.822-4.85-1.188-.15-.034-.406.12-.525.259-1.433 1.676-2.85 3.365-4.27 5.052-.106.128-.204.262-.307.395.485.557.944 1.086 1.393 1.605 1.472-.69 2.616-.345 3.42.977.073.117.252.26.37.25 1.497-.116 2.96 1.294 2.558 2.873-.027.103.026.29.107.344 1.227.822 1.474 1.912.92 3.245.692.526 1.056 1.194 1.179 2.072.055.397.513.785.877 1.072.12.096.575-.068.761-.237.287-.26.15-.61-.067-.88-.454-.563-.93-1.108-1.393-1.664-.402-.482-.436-.977-.09-1.28.5-.436 1.049-.4 1.503.114.558.633 1.11 1.274 1.663 1.91.416.476.777.55 1.147.238.322-.271.285-.606-.118-1.067-.578-.662-1.161-1.32-1.736-1.985-.394-.456-.39-.917-.001-1.265.403-.362.888-.306 1.308.172.66.75 1.299 1.52 1.965 2.263.124.138.348.294.501.272.21-.03.51-.184.566-.352.07-.213.016-.557-.126-.734-.623-.778-1.301-1.516-1.955-2.269-.43-.493-.428-.942-.003-1.302.4-.339.83-.265 1.251.227.762.889 1.522 1.78 2.277 2.676.213.252.432.438.8.32.61-.197.71-.681.21-1.247-1.868-2.12-3.748-4.23-5.624-6.344-.328-.371-.665-.736-1.026-1.133-.224.19-.413.362-.612.52-1.478 1.181-3.57 1.1-4.78-.184-.597-.634-.568-1.08.12-1.637.83-.67 1.663-1.34 2.587-2.088Zm-1.006 2.97c.773.437 1.397.317 1.98-.203.335-.298.683-.583 1.025-.873.61-.517.838-.496 1.502-.039.967.667 1.996 1.11 3.218.673.504-.18.94.02 1.077.43.155.46-.04.87-.57 1.042-.48.155-.987.233-1.54.358l3.055 3.334 2.223-2.448c-1.432-2.122-2.9-4.302-4.378-6.477-.073-.107-.26-.252-.339-.225-1.08.371-2.266.599-3.198 1.201-1.43.926-2.681 2.114-4.055 3.227Zm14.06 2.337 1.37-.963c-1.994-2.904-3.947-5.743-5.91-8.601-.457.34-.865.648-1.288.964l5.828 8.6Zm-26.242-1.91 1.22 1.03c2.165-2.56 4.306-5.088 6.473-7.649l-1.216-1.031-6.477 7.65Zm9.397 6.336c-.167-.216-.287-.534-.47-.572-.262-.056-.64.001-.846.161-.776.603-1.506 1.264-2.246 1.91-.352.308-.41.7-.166.99.273.324.66.345 1.06.015a102.73 102.73 0 0 0 2.282-1.95c.145-.13.228-.324.386-.554Zm-5.315.569c.2-.078.348-.1.446-.18a91.154 91.154 0 0 0 1.806-1.536c.38-.33.22-.688-.01-1.003-.234-.32-.585-.258-.83-.058a23.161 23.161 0 0 0-1.84 1.648c-.133.134-.138.489-.063.694.067.181.326.296.491.435Zm3.35 3.765c.191.21.325.483.524.54.224.066.564.016.752-.12.543-.39 1.04-.844 1.547-1.28.415-.357.472-.717.183-1.062-.245-.294-.657-.294-1.058.032-.533.432-1.058.876-1.57 1.335-.142.127-.223.322-.377.555Zm2.727 2.951c.63-.014 1.136-.527 1.236-1.115.03-.172.023-.468-.073-.522-.202-.11-.512-.191-.707-.113-.307.123-.602.35-.812.605-.135.164-.21.499-.13.68.097.225.38.372.486.465ZM61.946 75.498c3.427 0 6.854 0 10.28.002.175 0 .353-.013.521.02.391.074.61.328.63.712.022.378-.147.681-.524.795-.227.068-.48.074-.72.074-6.803.004-13.605.002-20.406.001-.208 0-.42-.005-.622-.04-.426-.072-.625-.358-.628-.761-.003-.433.228-.711.668-.786.17-.03.346-.015.52-.015 3.427-.002 6.854-.002 10.281-.002ZM61.954 71.188l10.23.001c.19 0 .387-.01.572.028.388.078.607.333.623.719.017.378-.153.675-.534.789-.212.063-.444.07-.668.07-6.837.002-13.675.002-20.512.001-.19 0-.384 0-.57-.036-.42-.08-.62-.365-.62-.77 0-.409.212-.685.625-.77.185-.039.38-.03.571-.03 3.43-.002 6.857-.002 10.283-.002ZM66.99 79.806c2.227 0 4.455-.003 6.682.002.696.002 1.092.477.882 1.05-.152.414-.497.539-.914.538-1.235-.003-2.471 0-3.706 0-3.201 0-6.402.001-9.602-.002-.685-.001-.972-.21-1.013-.706-.045-.556.264-.876.887-.878 1.826-.007 3.654-.003 5.48-.003l1.304-.001ZM72.51 84.116c1.356 0 2.712-.003 4.07.001.623.001.93.268.93.785 0 .523-.295.785-.93.786-2.747.004-5.495.004-8.242 0-.613-.001-.943-.288-.944-.785 0-.498.333-.785.941-.786 1.392-.004 2.782-.001 4.174-.001ZM86.256 70.334c2.604-.006 4.805 2.154 4.795 4.703-.01 2.562-2.15 4.667-4.755 4.677-2.637.01-4.796-2.087-4.812-4.672-.015-2.583 2.134-4.703 4.772-4.709Zm3.158 4.612c.003-1.712-1.397-3.103-3.136-3.113-1.731-.01-3.153 1.38-3.158 3.089-.006 1.686 1.432 3.124 3.133 3.132 1.698.007 3.158-1.429 3.161-3.108Z" fill="#1D53D2"/><path d="M46.42 106.636c0 .921-.166 1.716-.499 2.387-.332.67-.788 1.187-1.367 1.551-.58.364-1.242.545-1.986.545-.745 0-1.407-.181-1.986-.545-.58-.364-1.036-.881-1.368-1.551-.332-.671-.499-1.466-.499-2.387 0-.92.167-1.716.499-2.386.332-.67.788-1.188 1.368-1.551.58-.364 1.241-.546 1.986-.546.744 0 1.406.182 1.986.546.579.363 1.035.881 1.367 1.551.333.67.499 1.466.499 2.386Zm-1.023 0c0-.755-.126-1.393-.379-1.913-.25-.52-.59-.913-1.019-1.18a2.641 2.641 0 0 0-1.431-.401c-.529 0-1.007.134-1.436.401-.426.267-.766.66-1.019 1.18-.25.52-.375 1.158-.375 1.913 0 .756.125 1.394.375 1.914.253.52.593.913 1.019 1.18.429.267.907.401 1.436.401.528 0 1.005-.134 1.431-.401.43-.267.769-.66 1.019-1.18.253-.52.38-1.158.38-1.914Zm3.67.426V111H48.06v-6.545h.971v1.022h.085c.154-.332.387-.599.7-.801.312-.204.715-.307 1.21-.307.443 0 .83.091 1.163.273.332.179.59.452.775.818.185.364.277.824.277 1.381V111h-1.005v-4.091c0-.514-.134-.915-.4-1.202-.268-.289-.634-.434-1.1-.434-.321 0-.608.069-.861.209-.25.139-.447.342-.592.609-.145.267-.218.591-.218.971Zm6.15 3.938v-8.727h1.005v3.221h.085c.074-.113.176-.258.307-.434a1.81 1.81 0 0 1 .571-.478c.25-.142.588-.213 1.014-.213.552 0 1.037.138 1.458.414.42.275.748.666.984 1.172.236.505.354 1.102.354 1.789 0 .694-.118 1.294-.354 1.803-.236.506-.562.898-.98 1.176-.418.276-.9.413-1.444.413-.421 0-.758-.069-1.01-.208a1.873 1.873 0 0 1-.584-.482 6.36 6.36 0 0 1-.316-.452h-.119V111h-.971Zm.988-3.273c0 .495.073.931.218 1.309.144.375.356.669.634.882.279.21.62.315 1.023.315.42 0 .771-.111 1.053-.332.284-.225.497-.526.639-.904.145-.381.217-.804.217-1.27 0-.46-.07-.875-.213-1.244a1.924 1.924 0 0 0-.635-.882c-.281-.219-.635-.328-1.06-.328-.41 0-.754.103-1.032.311a1.86 1.86 0 0 0-.63.861c-.143.366-.214.794-.214 1.282Zm8.987 3.409c-.59 0-1.109-.14-1.555-.422a2.862 2.862 0 0 1-1.04-1.18c-.247-.506-.37-1.097-.37-1.773 0-.681.123-1.277.37-1.785.25-.509.597-.904 1.04-1.185.446-.281.964-.422 1.555-.422s1.108.141 1.552.422c.445.281.792.676 1.04 1.185.25.508.374 1.104.374 1.785 0 .676-.125 1.267-.375 1.773a2.822 2.822 0 0 1-1.04 1.18c-.443.282-.96.422-1.55.422Zm0-.903c.45 0 .819-.115 1.108-.345.29-.23.505-.533.644-.908s.209-.781.209-1.219c0-.437-.07-.845-.21-1.223a2.065 2.065 0 0 0-.643-.916c-.29-.233-.659-.349-1.108-.349-.448 0-.818.116-1.108.349-.29.233-.504.539-.643.916-.14.378-.209.786-.209 1.223 0 .438.07.844.209 1.219.14.375.354.678.643.908.29.23.66.345 1.108.345Zm6.428.92c-.415 0-.792-.078-1.13-.234a1.939 1.939 0 0 1-.805-.686c-.199-.301-.298-.665-.298-1.091 0-.375.073-.679.221-.912.148-.236.345-.42.593-.554a3.12 3.12 0 0 1 .818-.298 10.1 10.1 0 0 1 .907-.162c.398-.051.72-.09.968-.115.25-.029.431-.075.545-.141.117-.065.175-.179.175-.341v-.034c0-.42-.115-.747-.345-.98-.228-.233-.573-.349-1.036-.349-.48 0-.856.105-1.13.315-.272.21-.464.435-.574.673l-.955-.341c.17-.397.398-.707.682-.929.287-.224.6-.38.937-.468a3.89 3.89 0 0 1 1.006-.137 4 4 0 0 1 .725.077c.275.048.54.149.796.303.259.153.473.385.644.694.17.31.255.725.255 1.245V111h-1.005v-.886h-.051a1.773 1.773 0 0 1-.341.456c-.16.162-.37.299-.635.413-.264.114-.587.17-.968.17Zm.153-.903c.398 0 .733-.078 1.006-.234a1.601 1.601 0 0 0 .835-1.385v-.921c-.043.051-.136.098-.281.141a4.63 4.63 0 0 1-.495.106 21.062 21.062 0 0 1-.963.128c-.261.034-.505.09-.733.166a1.261 1.261 0 0 0-.545.337c-.137.148-.205.349-.205.605 0 .35.13.614.388.793.261.176.592.264.993.264Zm4.682.75v-6.545h.972v.988h.068c.12-.324.335-.586.648-.788a1.905 1.905 0 0 1 1.056-.303 10.855 10.855 0 0 1 .529.017v1.023a3.336 3.336 0 0 0-.234-.038c-.12-.02-.246-.03-.38-.03-.318 0-.602.067-.852.2a1.467 1.467 0 0 0-.801 1.334V111h-1.006Zm6.737.136c-.545 0-1.027-.137-1.444-.413-.418-.278-.745-.67-.98-1.176-.236-.509-.354-1.109-.354-1.803 0-.687.118-1.284.354-1.789.235-.506.564-.897.984-1.172.42-.276.906-.414 1.457-.414.426 0 .763.071 1.01.213.25.14.44.299.571.478.134.176.238.321.311.434h.086v-3.221h1.005V111h-.971v-1.006h-.12c-.073.12-.178.27-.315.452-.136.179-.33.34-.584.482-.253.139-.59.208-1.01.208Zm.137-.903c.403 0 .744-.105 1.022-.315.279-.213.49-.507.635-.882.145-.378.218-.814.218-1.309 0-.488-.071-.916-.213-1.282a1.86 1.86 0 0 0-.631-.861c-.278-.208-.622-.311-1.031-.311-.426 0-.781.109-1.066.328-.28.216-.493.51-.635.882-.139.369-.208.784-.208 1.244 0 .466.07.889.213 1.27.145.378.358.679.639.904.284.221.636.332 1.057.332Zm4.845.767v-6.545h1.006V111h-1.006Zm.511-7.636a.714.714 0 0 1-.507-.201.642.642 0 0 1-.209-.481c0-.188.07-.348.21-.482a.717.717 0 0 1 .506-.2c.196 0 .364.067.503.2a.639.639 0 0 1 .213.482.636.636 0 0 1-.213.481.699.699 0 0 1-.503.201Zm3.342 3.698V111h-1.005v-6.545h.971v1.022h.085c.154-.332.387-.599.7-.801.312-.204.715-.307 1.21-.307.443 0 .83.091 1.163.273.332.179.59.452.775.818.185.364.277.824.277 1.381V111h-1.005v-4.091c0-.514-.134-.915-.4-1.202-.268-.289-.634-.434-1.1-.434-.321 0-.608.069-.861.209-.25.139-.448.342-.593.609-.144.267-.217.591-.217.971Zm8.656 6.529c-.486 0-.903-.063-1.253-.188a2.666 2.666 0 0 1-.873-.485 2.648 2.648 0 0 1-.55-.64l.801-.562c.091.119.206.256.345.409.14.156.33.291.571.405.245.116.564.175.959.175.529 0 .965-.128 1.308-.384.344-.256.516-.656.516-1.202v-1.329h-.085a5.36 5.36 0 0 1-.316.443 1.777 1.777 0 0 1-.579.464c-.25.134-.588.201-1.014.201a2.731 2.731 0 0 1-1.424-.375 2.632 2.632 0 0 1-.992-1.091c-.242-.477-.363-1.057-.363-1.739 0-.67.118-1.254.354-1.751.236-.5.564-.887.984-1.159.42-.276.907-.414 1.458-.414.426 0 .764.071 1.014.213.253.14.446.299.579.478.137.176.242.321.316.434h.102v-1.039h.972v6.732c0 .563-.128 1.02-.384 1.373a2.18 2.18 0 0 1-1.023.779c-.426.168-.9.252-1.423.252Zm-.034-3.597c.403 0 .744-.092 1.023-.277.278-.184.49-.45.635-.797.145-.346.217-.761.217-1.244 0-.471-.071-.888-.213-1.248a1.865 1.865 0 0 0-.631-.848c-.278-.205-.622-.307-1.031-.307-.426 0-.781.108-1.065.324a1.964 1.964 0 0 0-.635.869c-.14.364-.21.767-.21 1.21 0 .455.072.857.214 1.206.145.347.358.619.64.818.283.196.636.294 1.056.294Z" fill="#717171"/><defs><filter id="a" x="0" y="0" width="154.718" height="159.908" filterUnits="userSpaceOnUse" color-interpolation-filters="sRGB"><feFlood flood-opacity="0" result="BackgroundImageFix"/><feColorMatrix in="SourceAlpha" values="0 0 0 0 0 0 0 0 0 0 0 0 0 0 0 0 0 0 127 0" result="hardAlpha"/><feOffset dx="2" dy="2"/><feGaussianBlur stdDeviation="5"/><feComposite in2="hardAlpha" operator="out"/><feColorMatrix values="0 0 0 0 0 0 0 0 0 0 0 0 0 0 0 0 0 0 0.1 0"/><feBlend in2="BackgroundImageFix" result="effect1_dropShadow_3_93"/><feBlend in="SourceGraphic" in2="effect1_dropShadow_3_93" result="shape"/></filter></defs></svg>