<svg width="160" height="177" viewBox="0 0 160 177" fill="none" xmlns="http://www.w3.org/2000/svg">
<g filter="url(#filter0_d_23_30)">
<path d="M145.098 69.6532L119.457 26.7071C115.819 20.6105 109.199 16.9194 102.096 17.0194L82.6578 17.293L76.9471 8.98478L71.4724 17.4505L52.0341 17.7242C44.9313 17.8242 38.4173 21.7002 34.9525 27.8969L10.531 71.5477C7.06616 77.7444 7.1727 85.3115 10.8106 91.4082L36.4513 134.354C40.0892 140.451 46.7097 144.142 53.8125 144.042L103.875 143.337C110.977 143.237 117.491 139.361 120.956 133.165L145.378 89.5137C148.843 83.317 148.736 75.7455 145.098 69.6532Z" fill="white"/>
</g>
<path d="M93.1784 76.4128C93.8967 76.484 94.5369 76.5292 95.1703 76.6155C95.8593 76.7086 96.0778 76.9867 96.0917 77.6852C96.0945 77.855 96.0987 78.0303 96.1418 78.1933C96.3464 78.9698 96.9798 79.1643 97.6005 78.6507C98.6473 77.7851 98.6918 77.7331 99.7371 78.6165C100.574 79.3232 101.314 80.149 102.042 80.9694C102.476 81.4597 102.405 81.7569 101.949 82.2185C101.84 82.328 101.69 82.4349 101.651 82.5677C101.559 82.8814 101.375 83.2881 101.501 83.5114C101.64 83.7593 102.071 83.862 102.39 83.9948C102.507 84.0441 102.666 84.0058 102.804 83.9962C103.3 83.962 103.601 84.1975 103.711 84.6591C104.047 86.0766 104.104 87.5023 103.81 88.9349C103.718 89.3855 103.435 89.6115 102.98 89.6457C102.877 89.654 102.772 89.643 102.667 89.6444C102.192 89.6498 101.729 89.7389 101.541 90.221C101.348 90.7154 101.677 91.0619 102.027 91.37C102.567 91.8439 102.606 92.1082 102.22 92.6931C101.473 93.8257 100.56 94.7995 99.3961 95.5336C98.8741 95.8636 98.5916 95.8376 98.1531 95.4158C98.103 95.3679 98.0571 95.3158 98.0056 95.2706C97.6799 94.9857 97.3068 94.7543 96.8726 94.9173C96.4202 95.0871 96.3798 95.5404 96.3255 95.9513C96.3144 96.0348 96.3297 96.1225 96.3325 96.2074C96.3478 96.7909 96.1474 97.0661 95.5489 97.1538C94.761 97.2702 93.9663 97.3414 93.1172 97.44C93.0935 97.6318 93.0754 97.866 93.0323 98.0947C92.6272 100.286 90.7008 101.947 88.4181 101.976C85.2696 102.017 82.1211 101.993 78.9725 101.994C73.7362 101.998 68.5012 102.005 63.2648 101.993C63.0114 101.993 62.6885 101.898 62.5173 101.731C60.4796 99.7437 58.4682 97.729 56.4416 95.7308C55.3977 94.7009 54.3273 93.697 53.2959 92.6561C53.1233 92.4821 53.0008 92.1754 53.0008 91.9302C52.9966 80.0367 53.0105 68.1405 53.0077 56.2457C53.0077 54.0708 53.886 52.4095 55.9113 51.4987C56.642 51.17 57.5189 51.0481 58.3332 51.0317C61.0628 50.9755 63.7951 51.0111 66.526 51.0111C73.6749 51.0111 80.8252 51.0084 87.9741 51.0125C90.5115 51.0139 92.417 52.3615 93.0003 54.594C93.1367 55.1158 93.1701 55.6759 93.1715 56.2183C93.1826 62.7389 93.1784 69.2608 93.1784 75.7814C93.1784 75.9855 93.1784 76.1882 93.1784 76.4128ZM91.4705 97.3044C90.7328 97.0415 90.6229 96.8867 90.6006 96.1321C90.5867 95.6719 90.5199 95.2062 90.0299 95.0118C89.526 94.8118 89.1725 95.1282 88.8593 95.4733C88.8245 95.5117 88.7939 95.5541 88.7591 95.5911C88.3875 95.9828 88.0381 96.0718 87.6149 95.7267C86.7227 94.9994 85.8082 94.279 85.0343 93.4367C84.1532 92.478 84.2409 92.4397 84.987 91.3714C85.1763 91.0989 85.296 90.6209 85.1791 90.3483C85.0761 90.1073 84.6028 90.0128 84.2827 89.8745C84.1964 89.8375 84.0767 89.8717 83.9723 89.8745C83.339 89.8936 83.0745 89.7005 82.9478 89.102C82.6848 87.8516 82.618 86.5943 82.8198 85.3274C82.9673 84.4002 83.1149 84.2646 84.053 84.2359C84.5263 84.2208 84.9814 84.1277 85.1638 83.6346C85.3419 83.1498 85.0093 82.8321 84.6864 82.5321C84.6362 82.4855 84.5764 82.4472 84.5263 82.4006C84.1853 82.0897 84.1212 81.7419 84.3732 81.3447C85.1485 80.123 86.1186 79.089 87.3574 78.3056C87.7667 78.0467 88.1383 78.0563 88.4821 78.4083C88.8551 78.7918 89.2783 79.1794 89.8392 78.9438C90.3821 78.7165 90.3765 78.1536 90.3487 77.6482C90.3194 77.1305 90.5783 76.8045 91.0655 76.7374C91.497 76.6785 91.5847 76.4977 91.5847 76.1019C91.5735 69.443 91.5791 62.7827 91.5749 56.1238C91.5735 53.9366 90.2123 52.5889 88.0005 52.5875C78.1012 52.5834 68.2005 52.5971 58.3012 52.5766C56.1117 52.5752 54.6112 54.1324 54.6196 56.2142C54.6641 67.6845 54.6419 79.1547 54.6419 90.6236C54.6419 90.8099 54.6419 90.9961 54.6419 91.2495C54.8646 91.2495 55.0511 91.2495 55.2376 91.2495C56.7506 91.2495 58.2692 91.318 59.778 91.2345C62.2876 91.0948 64.0262 92.8163 63.8786 95.2925C63.7895 96.7936 63.8619 98.3042 63.8619 99.8108C63.8619 99.9943 63.8619 100.176 63.8619 100.418C64.1319 100.418 64.3365 100.418 64.5398 100.418C72.2816 100.418 80.0248 100.418 87.7667 100.418C87.9406 100.418 88.1146 100.42 88.2886 100.409C90.0814 100.294 91.3202 99.0959 91.4705 97.3044ZM87.9351 94.0421C89.8044 92.6835 91.7058 93.3231 92.2765 95.7144C92.8597 95.7144 93.4485 95.7061 94.0386 95.7171C94.4715 95.7253 94.6525 95.5514 94.7499 95.1117C95.116 93.4504 96.7334 92.7465 98.2575 93.5477C98.4371 93.6422 98.6097 93.749 98.8533 93.8901C99.4059 93.3053 99.9529 92.7273 100.49 92.1589C99.1247 90.5127 99.7079 88.3118 102.166 87.9283C102.166 87.3215 102.162 86.7093 102.167 86.0971C102.17 85.7397 102.039 85.5877 101.641 85.5055C99.8833 85.1425 99.1456 83.5388 99.9919 82.0076C100.082 81.8446 100.185 81.6884 100.329 81.4515C99.7399 80.9092 99.1553 80.3695 98.5791 79.8395C97.0159 81.0982 94.69 80.7311 94.2794 78.1905C93.6614 78.1905 93.0392 78.1946 92.4184 78.1892C92.0273 78.1864 91.8784 78.3535 91.7935 78.748C91.4469 80.3723 89.8963 81.1091 88.3958 80.3956C88.1801 80.2928 87.9782 80.1627 87.6873 79.9998C87.1417 80.5695 86.5891 81.1461 86.0435 81.7158C87.5203 83.499 86.5821 85.5986 84.6585 85.8725C84.5346 85.8903 84.3509 86.104 84.3453 86.2327C84.3133 86.9079 84.33 87.5859 84.33 88.2405C84.6919 88.3227 84.9146 88.3597 85.1276 88.4254C85.9767 88.6898 86.5891 89.1993 86.8285 90.073C87.0303 90.8044 86.816 91.4645 86.4165 92.0699C86.2648 92.3 86.262 92.4575 86.4597 92.6424C86.9482 93.1012 87.4312 93.5655 87.9351 94.0421ZM62.3767 99.1054C62.3767 97.5948 62.4213 96.0595 62.36 94.5269C62.3238 93.6463 61.465 92.9588 60.5394 92.9327C59.81 92.9122 59.0793 92.9259 58.3499 92.9259C57.5941 92.9259 56.8383 92.9259 56.0992 92.9259C58.2024 94.9967 60.2833 97.0442 62.3767 99.1054Z" fill="#1D53D2"/>
<path d="M75.8853 78.5535C74.9569 80.6092 72.869 80.627 71.7067 79.0945C71.4771 79.2615 71.2335 79.4163 71.0163 79.6012C69.7581 80.6845 67.8066 80.1011 67.389 78.4891C67.2888 78.1042 67.1315 77.9248 66.739 77.7865C65.954 77.5098 65.4584 76.9059 65.2942 76.0992C65.2246 75.754 65.0924 75.6034 64.7486 75.487C63.912 75.2021 63.4332 74.5598 63.2425 73.7257C63.1868 73.4805 63.1186 73.3655 62.8542 73.2874C61.987 73.0286 61.4191 72.4314 61.2395 71.5659C61.0586 70.6893 61.2924 69.9032 62.0288 69.3101C62.2682 69.117 62.5006 68.9143 62.779 68.6788C62.3656 68.2008 61.98 67.7543 61.5179 67.2174C61.4052 67.3845 61.3509 67.4954 61.2688 67.579C60.8804 67.9748 60.5074 68.0145 60.0759 67.6598C59.2755 67.001 58.4877 66.3272 57.711 65.6424C57.2517 65.237 57.2587 64.8179 57.7027 64.2961C59.121 62.6279 60.5408 60.9639 61.9592 59.2985C62.9418 58.1439 63.9231 56.9894 64.9072 55.8362C65.4584 55.1897 65.7688 55.1665 66.4202 55.717C67.0536 56.2525 67.6827 56.7908 68.3119 57.3318C69.005 57.9289 69.0454 58.122 68.6223 58.9616C69.8054 59.2601 70.9774 59.556 72.1494 59.8518C72.3846 59.9107 72.624 59.9586 72.8565 60.0271C73.5441 60.2298 74.1245 60.3202 74.8177 59.7956C75.4329 59.33 76.3195 59.2108 77.0865 58.9383C77.3607 58.841 77.6349 58.7465 77.9091 58.6507C77.6321 57.8741 77.7184 57.6084 78.3698 57.1441C79.102 56.6223 79.83 56.0964 80.5621 55.5746C81.1745 55.1377 81.6478 55.2075 82.0626 55.8211C84.2382 59.0383 86.4109 62.2582 88.5795 65.4808C88.9178 65.9834 88.8524 66.4231 88.3708 66.7805C87.5662 67.3777 86.7492 67.9611 85.9252 68.5309C85.3503 68.928 85.0636 68.8705 84.4428 68.3076C83.4489 68.7993 82.9924 69.7375 82.4259 70.6085C82.721 70.9619 83.023 71.2933 83.2889 71.6508C83.8484 72.4054 83.9626 73.2313 83.5241 74.0653C83.0884 74.8926 82.373 75.3117 81.4028 75.3021C81.24 75.3007 80.995 75.4007 80.9254 75.5281C80.5231 76.2635 79.8634 76.5703 79.0797 76.7223C78.9322 76.7511 78.7317 76.8346 78.6775 76.9497C78.1193 78.1303 77.1965 78.6726 75.8853 78.5535ZM72.5238 61.5556C70.8354 61.1365 69.2598 60.7338 67.673 60.3681C67.524 60.3339 67.2679 60.4887 67.1482 60.627C65.7159 62.3034 64.299 63.9921 62.8792 65.6794C62.772 65.8068 62.6746 65.941 62.5716 66.0738C63.056 66.6312 63.5153 67.1599 63.9649 67.679C65.4362 66.9887 66.5803 67.3338 67.3848 68.6555C67.4572 68.7733 67.6368 68.9157 67.7551 68.9061C69.2514 68.7897 70.7143 70.2004 70.312 71.7795C70.2856 71.8822 70.3385 72.0699 70.4192 72.1233C71.6469 72.945 71.8933 74.0352 71.3393 75.3678C72.0311 75.8937 72.3957 76.5621 72.5182 77.44C72.5739 77.8372 73.0318 78.2248 73.3951 78.5124C73.5162 78.6083 73.97 78.4439 74.1565 78.2754C74.4432 78.0152 74.3068 77.6646 74.0897 77.3948C73.6359 76.8319 73.1599 76.2868 72.6964 75.7308C72.2941 75.2487 72.2607 74.7542 72.6059 74.4516C73.1056 74.0147 73.6554 74.0516 74.1092 74.5652C74.6673 75.198 75.2185 75.839 75.7725 76.4744C76.1887 76.9511 76.5492 77.025 76.9195 76.7128C77.241 76.4416 77.2048 76.1074 76.8012 75.6458C76.2235 74.9843 75.6403 74.3269 75.0654 73.6613C74.6715 73.2052 74.6757 72.7437 75.064 72.3958C75.4677 72.0343 75.9521 72.0904 76.3724 72.5684C77.0322 73.3189 77.6711 74.0873 78.3378 74.8309C78.4617 74.9693 78.6858 75.1254 78.8389 75.1035C79.0491 75.0734 79.3484 74.9186 79.404 74.7515C79.475 74.5378 79.4207 74.1941 79.2788 74.0174C78.6552 73.2395 77.9773 72.5013 77.3231 71.748C76.8944 71.255 76.8958 70.8057 77.3203 70.4455C77.7198 70.1072 78.1499 70.1812 78.5717 70.6729C79.333 71.5617 80.093 72.4533 80.8488 73.3491C81.0618 73.6011 81.2803 73.7873 81.6492 73.6682C82.2589 73.4723 82.3577 72.9875 81.858 72.4218C79.99 70.3017 78.1109 68.1912 76.2346 66.0779C75.9061 65.7068 75.5693 65.3425 75.2088 64.9453C74.9847 65.1357 74.7954 65.3069 74.5964 65.4657C73.1181 66.6463 71.0261 66.5641 69.8165 65.2808C69.2194 64.6467 69.2486 64.2016 69.9362 63.6442C70.7658 62.9731 71.5996 62.3034 72.5238 61.5556ZM71.5174 64.5262C72.29 64.9631 72.9149 64.8426 73.4967 64.3235C73.8322 64.0249 74.1802 63.74 74.5226 63.4497C75.1322 62.9334 75.3605 62.9539 76.0245 63.4113C76.9918 64.0783 78.0205 64.5207 79.2426 64.0838C79.7464 63.9044 80.1821 64.1044 80.3199 64.5139C80.4744 64.974 80.2795 65.3849 79.7492 65.5561C79.269 65.7109 78.7624 65.7889 78.2098 65.9136C79.2579 67.0572 80.2865 68.1816 81.265 69.2485C82.0125 68.4254 82.7391 67.6242 83.4879 66.7997C82.0556 64.6782 80.5872 62.4978 79.1089 60.3229C79.0366 60.2161 78.8487 60.0709 78.7707 60.0983C77.6906 60.4695 76.5047 60.6968 75.5721 61.2994C74.1426 62.2253 72.8913 63.4127 71.5174 64.5262ZM85.5772 66.8627C86.0532 66.5285 86.4958 66.2176 86.9482 65.8999C84.9536 62.9964 83.0007 60.1572 81.0368 57.2989C80.5802 57.6399 80.1724 57.9467 79.7492 58.2631C81.7104 61.1556 83.6355 63.9975 85.5772 66.8627ZM59.3354 64.9521C59.7627 65.3137 60.1413 65.6342 60.5547 65.9821C62.7205 63.4237 64.8613 60.8954 67.0285 58.3343C66.604 57.9741 66.2184 57.6481 65.812 57.303C63.6322 59.8765 61.4984 62.3965 59.3354 64.9521ZM68.7322 71.2892C68.5652 71.0728 68.4455 70.7551 68.2631 70.7167C68.0001 70.6606 67.6229 70.7181 67.4169 70.8783C66.6402 71.4809 65.9108 72.1424 65.1703 72.7889C64.8182 73.0957 64.7597 73.4874 65.0047 73.7777C65.2775 74.1023 65.6644 74.1229 66.0639 73.7928C66.835 73.1546 67.595 72.5026 68.3467 71.8425C68.4914 71.7138 68.5749 71.5193 68.7322 71.2892ZM63.4179 71.8576C63.6169 71.7795 63.7659 71.7576 63.8633 71.6782C64.473 71.1742 65.0743 70.6606 65.67 70.1415C66.0486 69.8114 65.8899 69.454 65.6589 69.139C65.425 68.8198 65.0743 68.8815 64.8293 69.0814C64.1904 69.6005 63.5682 70.1456 62.9892 70.729C62.8569 70.8633 62.8514 71.218 62.9265 71.4234C62.9934 71.6042 63.2522 71.7192 63.4179 71.8576ZM66.7682 75.6226C66.9589 75.8321 67.0925 76.106 67.2916 76.1635C67.5157 76.2293 67.8553 76.1786 68.0432 76.043C68.5861 75.6527 69.083 75.1994 69.591 74.7625C70.0058 74.4064 70.0629 74.0462 69.7734 73.701C69.5284 73.4066 69.1164 73.4066 68.7155 73.7325C68.1824 74.1653 67.6577 74.6091 67.1454 75.0679C67.0035 75.1953 66.9227 75.3897 66.7682 75.6226ZM69.495 78.574C70.1241 78.5603 70.6308 78.0467 70.731 77.4592C70.7602 77.2866 70.7533 76.9908 70.6572 76.9374C70.4554 76.8264 70.145 76.7456 69.9501 76.8237C69.6439 76.947 69.3488 77.1743 69.1387 77.429C69.0036 77.5934 68.9285 77.9276 69.0078 78.1097C69.1053 78.3343 69.3892 78.4809 69.495 78.574Z" fill="#1D53D2"/>
<path d="M68.9466 87.4982C72.3735 87.4982 75.8004 87.4982 79.2273 87.4996C79.4012 87.4996 79.5794 87.4873 79.7478 87.5201C80.139 87.5941 80.3575 87.8475 80.3784 88.2323C80.3993 88.6103 80.2308 88.913 79.8536 89.0267C79.6267 89.0952 79.3734 89.1006 79.1326 89.1006C72.3303 89.1047 65.528 89.1034 58.7271 89.102C58.5197 89.102 58.3082 89.0965 58.1049 89.0623C57.679 88.9897 57.48 88.7035 57.4772 88.3008C57.4744 87.868 57.7055 87.59 58.1453 87.5147C58.3151 87.4859 58.4919 87.4996 58.6659 87.4996C62.0928 87.4982 65.5197 87.4982 68.9466 87.4982Z" fill="#1D53D2"/>
<path d="M68.9549 83.1881C72.3651 83.1881 75.7739 83.1881 79.1841 83.1895C79.3748 83.1895 79.5711 83.1799 79.7562 83.2169C80.1445 83.295 80.3631 83.5497 80.3798 83.9359C80.3965 84.3139 80.2267 84.6111 79.8453 84.7248C79.6337 84.7878 79.4012 84.7947 79.1772 84.7947C72.3401 84.7974 65.503 84.7974 58.6659 84.796C58.4752 84.796 58.2817 84.796 58.0952 84.7604C57.6748 84.6796 57.4758 84.3947 57.4758 83.9893C57.4758 83.5812 57.6874 83.3046 58.1008 83.2196C58.2859 83.1813 58.4808 83.1895 58.6715 83.1895C62.1011 83.1881 65.528 83.1881 68.9549 83.1881Z" fill="#1D53D2"/>
<path d="M73.9909 91.8056C76.2179 91.8056 78.445 91.8028 80.6721 91.8083C81.368 91.8097 81.7647 92.2849 81.5545 92.8588C81.4028 93.2724 81.0576 93.397 80.6401 93.3957C79.4054 93.3929 78.1694 93.3957 76.9348 93.3957C73.7334 93.3957 70.532 93.397 67.3319 93.3943C66.6471 93.3929 66.3604 93.1834 66.32 92.6876C66.2741 92.1315 66.5831 91.8124 67.2067 91.8097C69.0329 91.8028 70.8605 91.8069 72.6866 91.8069C73.1209 91.8056 73.5552 91.8056 73.9909 91.8056Z" fill="#1D53D2"/>
<path d="M79.5098 96.1157C80.8669 96.1157 82.2227 96.1129 83.5798 96.117C84.2034 96.1184 84.511 96.3855 84.511 96.9018C84.511 97.425 84.2159 97.6866 83.5812 97.6879C80.8335 97.692 78.0859 97.692 75.3382 97.6879C74.7258 97.6866 74.3959 97.4003 74.3945 96.9032C74.3945 96.4046 74.7272 96.1184 75.3355 96.117C76.7274 96.1129 78.1179 96.1157 79.5098 96.1157Z" fill="#1D53D2"/>
<path d="M93.2564 82.3335C95.8606 82.328 98.0613 84.4879 98.0515 87.0367C98.0418 89.5992 95.901 91.7042 93.2967 91.7138C90.6591 91.7234 88.5002 89.6266 88.4849 87.0422C88.4696 84.4591 90.6187 82.339 93.2564 82.3335ZM96.4146 86.9463C96.4174 85.2343 95.0171 83.8428 93.2786 83.8332C91.5471 83.8236 90.126 85.2124 90.1204 86.9216C90.1148 88.6076 91.5527 90.0457 93.2536 90.0539C94.9517 90.0607 96.4118 88.6254 96.4146 86.9463Z" fill="#1D53D2"/>
<path d="M48.8239 162.909C48.8239 163.983 48.63 164.911 48.2422 165.693C47.8544 166.475 47.3224 167.079 46.6463 167.503C45.9702 167.927 45.1979 168.139 44.3295 168.139C43.4612 168.139 42.6889 167.927 42.0128 167.503C41.3366 167.079 40.8047 166.475 40.4169 165.693C40.0291 164.911 39.8352 163.983 39.8352 162.909C39.8352 161.835 40.0291 160.907 40.4169 160.125C40.8047 159.343 41.3366 158.74 42.0128 158.315C42.6889 157.891 43.4612 157.679 44.3295 157.679C45.1979 157.679 45.9702 157.891 46.6463 158.315C47.3224 158.74 47.8544 159.343 48.2422 160.125C48.63 160.907 48.8239 161.835 48.8239 162.909ZM47.6307 162.909C47.6307 162.027 47.4832 161.283 47.1882 160.677C46.8965 160.07 46.5005 159.611 46 159.3C45.5028 158.988 44.946 158.832 44.3295 158.832C43.7131 158.832 43.1546 158.988 42.6541 159.3C42.157 159.611 41.7609 160.07 41.4659 160.677C41.1742 161.283 41.0284 162.027 41.0284 162.909C41.0284 163.791 41.1742 164.535 41.4659 165.141C41.7609 165.748 42.157 166.207 42.6541 166.518C43.1546 166.83 43.7131 166.986 44.3295 166.986C44.946 166.986 45.5028 166.83 46 166.518C46.5005 166.207 46.8965 165.748 47.1882 165.141C47.4832 164.535 47.6307 163.791 47.6307 162.909ZM51.9112 163.406V168H50.7379V160.364H51.8714V161.557H51.9709C52.1499 161.169 52.4216 160.857 52.7862 160.622C53.1508 160.384 53.6214 160.264 54.1982 160.264C54.7152 160.264 55.1676 160.37 55.5554 160.582C55.9432 160.791 56.2448 161.109 56.4602 161.537C56.6757 161.961 56.7834 162.498 56.7834 163.148V168H55.6101V163.227C55.6101 162.627 55.4543 162.16 55.1428 161.825C54.8312 161.487 54.4036 161.318 53.8601 161.318C53.4856 161.318 53.1508 161.399 52.8558 161.562C52.5642 161.724 52.3338 161.961 52.1648 162.273C51.9957 162.584 51.9112 162.962 51.9112 163.406ZM59.0865 168V157.818H60.2598V161.577H60.3592C60.4454 161.444 60.5647 161.275 60.7172 161.07C60.8729 160.861 61.095 160.675 61.3833 160.513C61.675 160.347 62.0694 160.264 62.5666 160.264C63.2096 160.264 63.7763 160.425 64.2669 160.746C64.7574 161.068 65.1402 161.524 65.4153 162.114C65.6904 162.704 65.8279 163.4 65.8279 164.202C65.8279 165.01 65.6904 165.711 65.4153 166.305C65.1402 166.895 64.7591 167.352 64.2718 167.677C63.7846 167.998 63.2228 168.159 62.5865 168.159C62.0959 168.159 61.7032 168.078 61.4082 167.915C61.1132 167.75 60.8862 167.562 60.7271 167.354C60.568 167.142 60.4454 166.966 60.3592 166.827H60.22V168H59.0865ZM60.2399 164.182C60.2399 164.759 60.3244 165.267 60.4934 165.708C60.6625 166.146 60.9094 166.489 61.2342 166.737C61.559 166.982 61.9567 167.105 62.4274 167.105C62.9179 167.105 63.3272 166.976 63.6554 166.717C63.9868 166.455 64.2354 166.104 64.4011 165.663C64.5701 165.219 64.6547 164.725 64.6547 164.182C64.6547 163.645 64.5718 163.161 64.4061 162.73C64.2437 162.296 63.9967 161.953 63.6653 161.701C63.3372 161.446 62.9245 161.318 62.4274 161.318C61.9501 161.318 61.5491 161.439 61.2243 161.681C60.8994 161.92 60.6542 162.254 60.4885 162.685C60.3227 163.113 60.2399 163.612 60.2399 164.182ZM70.725 168.159C70.0356 168.159 69.4307 167.995 68.9103 167.667C68.3933 167.339 67.9889 166.88 67.6973 166.29C67.4089 165.7 67.2647 165.01 67.2647 164.222C67.2647 163.426 67.4089 162.732 67.6973 162.138C67.9889 161.545 68.3933 161.085 68.9103 160.756C69.4307 160.428 70.0356 160.264 70.725 160.264C71.4144 160.264 72.0176 160.428 72.5346 160.756C73.055 161.085 73.4593 161.545 73.7477 162.138C74.0394 162.732 74.1852 163.426 74.1852 164.222C74.1852 165.01 74.0394 165.7 73.7477 166.29C73.4593 166.88 73.055 167.339 72.5346 167.667C72.0176 167.995 71.4144 168.159 70.725 168.159ZM70.725 167.105C71.2486 167.105 71.6795 166.971 72.0176 166.702C72.3556 166.434 72.6059 166.081 72.7683 165.643C72.9307 165.206 73.0119 164.732 73.0119 164.222C73.0119 163.711 72.9307 163.236 72.7683 162.795C72.6059 162.354 72.3556 161.998 72.0176 161.726C71.6795 161.454 71.2486 161.318 70.725 161.318C70.2013 161.318 69.7704 161.454 69.4324 161.726C69.0943 161.998 68.844 162.354 68.6816 162.795C68.5192 163.236 68.438 163.711 68.438 164.222C68.438 164.732 68.5192 165.206 68.6816 165.643C68.844 166.081 69.0943 166.434 69.4324 166.702C69.7704 166.971 70.2013 167.105 70.725 167.105ZM78.2234 168.179C77.7395 168.179 77.3003 168.088 76.9059 167.906C76.5115 167.72 76.1983 167.453 75.9663 167.105C75.7343 166.754 75.6183 166.33 75.6183 165.832C75.6183 165.395 75.7044 165.04 75.8768 164.768C76.0491 164.493 76.2795 164.278 76.5678 164.122C76.8562 163.966 77.1744 163.85 77.5224 163.774C77.8737 163.695 78.2267 163.632 78.5813 163.585C79.0453 163.526 79.4215 163.481 79.7099 163.451C80.0015 163.418 80.2137 163.363 80.3462 163.287C80.4821 163.211 80.5501 163.078 80.5501 162.889V162.849C80.5501 162.359 80.4158 161.978 80.1474 161.706C79.8822 161.434 79.4795 161.298 78.9393 161.298C78.3791 161.298 77.94 161.421 77.6218 161.666C77.3036 161.911 77.0799 162.173 76.9506 162.452L75.837 162.054C76.0359 161.59 76.301 161.229 76.6325 160.97C76.9672 160.708 77.3318 160.526 77.7262 160.423C78.1239 160.317 78.515 160.264 78.8995 160.264C79.1448 160.264 79.4265 160.294 79.7447 160.354C80.0662 160.41 80.3761 160.528 80.6744 160.707C80.976 160.886 81.2262 161.156 81.4251 161.517C81.6239 161.878 81.7234 162.362 81.7234 162.969V168H80.5501V166.966H80.4904C80.4109 167.132 80.2783 167.309 80.0927 167.498C79.9071 167.687 79.6602 167.848 79.3519 167.98C79.0437 168.113 78.6675 168.179 78.2234 168.179ZM78.4023 167.125C78.8664 167.125 79.2575 167.034 79.5756 166.852C79.8971 166.669 80.1391 166.434 80.3015 166.146C80.4672 165.857 80.5501 165.554 80.5501 165.236V164.162C80.5004 164.222 80.391 164.276 80.2219 164.326C80.0562 164.372 79.864 164.414 79.6452 164.45C79.4298 164.483 79.2193 164.513 79.0138 164.54C78.8117 164.563 78.6476 164.583 78.5217 164.599C78.2167 164.639 77.9317 164.704 77.6665 164.793C77.4047 164.879 77.1926 165.01 77.0302 165.186C76.8711 165.358 76.7915 165.594 76.7915 165.892C76.7915 166.3 76.9424 166.608 77.244 166.817C77.5489 167.022 77.935 167.125 78.4023 167.125ZM83.8649 168V160.364H84.9984V161.517H85.0779C85.2172 161.139 85.469 160.833 85.8336 160.597C86.1982 160.362 86.6092 160.244 87.0666 160.244C87.1528 160.244 87.2605 160.246 87.3897 160.249C87.519 160.253 87.6168 160.258 87.6831 160.264V161.457C87.6433 161.447 87.5521 161.433 87.4096 161.413C87.2704 161.389 87.1229 161.378 86.9672 161.378C86.5959 161.378 86.2645 161.456 85.9728 161.612C85.6845 161.764 85.4558 161.976 85.2868 162.248C85.121 162.516 85.0382 162.823 85.0382 163.168V168H83.8649ZM91.725 168.159C91.0886 168.159 90.5268 167.998 90.0396 167.677C89.5524 167.352 89.1712 166.895 88.8961 166.305C88.621 165.711 88.4835 165.01 88.4835 164.202C88.4835 163.4 88.621 162.704 88.8961 162.114C89.1712 161.524 89.554 161.068 90.0446 160.746C90.5351 160.425 91.1019 160.264 91.7449 160.264C92.242 160.264 92.6348 160.347 92.9231 160.513C93.2148 160.675 93.4368 160.861 93.5893 161.07C93.7451 161.275 93.8661 161.444 93.9522 161.577H94.0517V157.818H95.225V168H94.0914V166.827H93.9522C93.8661 166.966 93.7434 167.142 93.5843 167.354C93.4252 167.562 93.1982 167.75 92.9032 167.915C92.6083 168.078 92.2155 168.159 91.725 168.159ZM91.8841 167.105C92.3547 167.105 92.7524 166.982 93.0772 166.737C93.402 166.489 93.649 166.146 93.818 165.708C93.987 165.267 94.0716 164.759 94.0716 164.182C94.0716 163.612 93.9887 163.113 93.823 162.685C93.6573 162.254 93.412 161.92 93.0872 161.681C92.7624 161.439 92.3613 161.318 91.8841 161.318C91.3869 161.318 90.9726 161.446 90.6412 161.701C90.313 161.953 90.0661 162.296 89.9004 162.73C89.738 163.161 89.6568 163.645 89.6568 164.182C89.6568 164.725 89.7396 165.219 89.9054 165.663C90.0744 166.104 90.323 166.455 90.6511 166.717C90.9825 166.976 91.3935 167.105 91.8841 167.105ZM97.5368 168V160.364H98.71V168H97.5368ZM98.1333 159.091C97.9047 159.091 97.7074 159.013 97.5417 158.857C97.3793 158.701 97.2981 158.514 97.2981 158.295C97.2981 158.077 97.3793 157.889 97.5417 157.734C97.7074 157.578 97.9047 157.5 98.1333 157.5C98.362 157.5 98.5576 157.578 98.72 157.734C98.8857 157.889 98.9686 158.077 98.9686 158.295C98.9686 158.514 98.8857 158.701 98.72 158.857C98.5576 159.013 98.362 159.091 98.1333 159.091ZM102.032 163.406V168H100.859V160.364H101.993V161.557H102.092C102.271 161.169 102.543 160.857 102.907 160.622C103.272 160.384 103.743 160.264 104.319 160.264C104.836 160.264 105.289 160.37 105.676 160.582C106.064 160.791 106.366 161.109 106.581 161.537C106.797 161.961 106.904 162.498 106.904 163.148V168H105.731V163.227C105.731 162.627 105.575 162.16 105.264 161.825C104.952 161.487 104.525 161.318 103.981 161.318C103.607 161.318 103.272 161.399 102.977 161.562C102.685 161.724 102.455 161.961 102.286 162.273C102.117 162.584 102.032 162.962 102.032 163.406ZM112.131 171.023C111.564 171.023 111.077 170.95 110.669 170.804C110.262 170.661 109.922 170.473 109.65 170.237C109.382 170.005 109.168 169.757 109.009 169.491L109.943 168.835C110.049 168.974 110.184 169.134 110.346 169.312C110.508 169.495 110.731 169.652 111.012 169.785C111.297 169.921 111.67 169.989 112.131 169.989C112.747 169.989 113.256 169.839 113.657 169.541C114.058 169.243 114.259 168.776 114.259 168.139V166.588H114.159C114.073 166.727 113.95 166.9 113.791 167.105C113.636 167.307 113.41 167.488 113.115 167.647C112.824 167.803 112.429 167.881 111.932 167.881C111.316 167.881 110.762 167.735 110.271 167.443C109.784 167.152 109.398 166.727 109.113 166.17C108.831 165.614 108.691 164.937 108.691 164.142C108.691 163.36 108.828 162.679 109.103 162.099C109.378 161.515 109.761 161.065 110.252 160.746C110.742 160.425 111.309 160.264 111.952 160.264C112.449 160.264 112.843 160.347 113.135 160.513C113.43 160.675 113.655 160.861 113.811 161.07C113.97 161.275 114.093 161.444 114.179 161.577H114.298V160.364H115.432V168.219C115.432 168.875 115.283 169.409 114.985 169.82C114.69 170.234 114.292 170.537 113.791 170.729C113.294 170.925 112.741 171.023 112.131 171.023ZM112.091 166.827C112.562 166.827 112.959 166.719 113.284 166.504C113.609 166.288 113.856 165.978 114.025 165.574C114.194 165.17 114.279 164.686 114.279 164.122C114.279 163.572 114.196 163.086 114.03 162.665C113.864 162.245 113.619 161.915 113.294 161.676C112.969 161.437 112.568 161.318 112.091 161.318C111.594 161.318 111.18 161.444 110.848 161.696C110.52 161.948 110.273 162.286 110.107 162.71C109.945 163.134 109.864 163.605 109.864 164.122C109.864 164.652 109.947 165.121 110.112 165.529C110.281 165.933 110.53 166.252 110.858 166.484C111.19 166.712 111.601 166.827 112.091 166.827Z" fill="#717171"/>
<defs>
<filter id="filter0_d_23_30" x="0.00531006" y="0.984772" width="159.898" height="155.059" filterUnits="userSpaceOnUse" color-interpolation-filters="sRGB">
<feFlood flood-opacity="0" result="BackgroundImageFix"/>
<feColorMatrix in="SourceAlpha" type="matrix" values="0 0 0 0 0 0 0 0 0 0 0 0 0 0 0 0 0 0 127 0" result="hardAlpha"/>
<feOffset dx="2" dy="2"/>
<feGaussianBlur stdDeviation="5"/>
<feComposite in2="hardAlpha" operator="out"/>
<feColorMatrix type="matrix" values="0 0 0 0 0 0 0 0 0 0 0 0 0 0 0 0 0 0 0.1 0"/>
<feBlend mode="normal" in2="BackgroundImageFix" result="effect1_dropShadow_23_30"/>
<feBlend mode="normal" in="SourceGraphic" in2="effect1_dropShadow_23_30" result="shape"/>
</filter>
</defs>
</svg>
