<svg width="144" height="1084" viewBox="0 0 144 1084" fill="none" xmlns="http://www.w3.org/2000/svg">
<path d="M34.8773 1074.56C34.8243 1074.07 34.6008 1073.68 34.2069 1073.4C33.8167 1073.13 33.3091 1072.99 32.6841 1072.99C32.2447 1072.99 31.8679 1073.05 31.5535 1073.19C31.2391 1073.32 30.9985 1073.5 30.8319 1073.73C30.6652 1073.95 30.58 1074.21 30.5762 1074.51C30.5762 1074.75 30.6311 1074.96 30.741 1075.14C30.8546 1075.31 31.008 1075.47 31.2012 1075.59C31.3944 1075.71 31.6084 1075.81 31.8432 1075.9C32.0781 1075.98 32.3148 1076.05 32.5535 1076.11L33.6444 1076.38C34.0838 1076.48 34.5061 1076.62 34.9114 1076.8C35.3205 1076.97 35.686 1077.19 36.008 1077.45C36.3338 1077.72 36.5913 1078.04 36.7807 1078.41C36.9701 1078.79 37.0648 1079.23 37.0648 1079.73C37.0648 1080.41 36.8906 1081.02 36.5421 1081.53C36.1936 1082.05 35.6898 1082.45 35.0307 1082.74C34.3754 1083.03 33.5819 1083.18 32.65 1083.18C31.7447 1083.18 30.9588 1083.04 30.2921 1082.76C29.6292 1082.48 29.1103 1082.07 28.7353 1081.53C28.3641 1080.99 28.1633 1080.34 28.133 1079.56H30.2069C30.2372 1079.97 30.3622 1080.3 30.5819 1080.57C30.8016 1080.84 31.0875 1081.04 31.4398 1081.18C31.7959 1081.31 32.1936 1081.38 32.633 1081.38C33.0913 1081.38 33.4929 1081.31 33.8375 1081.17C34.186 1081.03 34.4588 1080.84 34.6557 1080.59C34.8527 1080.34 34.9531 1080.05 34.9569 1079.72C34.9531 1079.41 34.8641 1079.16 34.6898 1078.97C34.5156 1078.77 34.2713 1078.6 33.9569 1078.47C33.6463 1078.33 33.2826 1078.21 32.866 1078.1L31.5421 1077.76C30.5838 1077.52 29.8262 1077.14 29.2694 1076.64C28.7163 1076.14 28.4398 1075.47 28.4398 1074.64C28.4398 1073.95 28.6254 1073.35 28.9966 1072.84C29.3716 1072.32 29.8811 1071.92 30.525 1071.64C31.169 1071.35 31.8982 1071.2 32.7125 1071.2C33.5383 1071.2 34.2618 1071.35 34.883 1071.64C35.508 1071.92 35.9985 1072.32 36.3546 1072.82C36.7107 1073.33 36.8944 1073.91 36.9057 1074.56H34.8773ZM41.3645 1083.18C40.8115 1083.18 40.3134 1083.08 39.8702 1082.88C39.4308 1082.68 39.0823 1082.38 38.8248 1081.99C38.571 1081.6 38.4441 1081.12 38.4441 1080.55C38.4441 1080.06 38.535 1079.65 38.7168 1079.33C38.8986 1079.01 39.1467 1078.75 39.4611 1078.56C39.7755 1078.36 40.1297 1078.22 40.5236 1078.12C40.9214 1078.02 41.3323 1077.94 41.7566 1077.9C42.2679 1077.84 42.6827 1077.8 43.0009 1077.76C43.3191 1077.71 43.5501 1077.64 43.6941 1077.55C43.8418 1077.46 43.9157 1077.31 43.9157 1077.11V1077.08C43.9157 1076.65 43.7888 1076.32 43.535 1076.09C43.2812 1075.85 42.9157 1075.73 42.4384 1075.73C41.9346 1075.73 41.535 1075.84 41.2395 1076.06C40.9479 1076.28 40.7509 1076.54 40.6486 1076.84L38.7282 1076.57C38.8797 1076.04 39.1297 1075.59 39.4782 1075.24C39.8267 1074.88 40.2528 1074.61 40.7566 1074.43C41.2604 1074.25 41.8172 1074.16 42.427 1074.16C42.8475 1074.16 43.2661 1074.21 43.6827 1074.31C44.0994 1074.41 44.4801 1074.57 44.8248 1074.8C45.1695 1075.02 45.446 1075.32 45.6543 1075.71C45.8664 1076.1 45.9725 1076.58 45.9725 1077.16V1083H43.9952V1081.8H43.927C43.802 1082.04 43.6259 1082.27 43.3986 1082.48C43.1751 1082.69 42.8929 1082.86 42.552 1082.99C42.2149 1083.11 41.8191 1083.18 41.3645 1083.18ZM41.8986 1081.66C42.3115 1081.66 42.6695 1081.58 42.9725 1081.42C43.2755 1081.25 43.5085 1081.03 43.6714 1080.76C43.838 1080.49 43.9214 1080.19 43.9214 1079.87V1078.84C43.857 1078.89 43.7471 1078.94 43.5918 1078.99C43.4403 1079.03 43.2698 1079.07 43.0804 1079.11C42.8911 1079.14 42.7036 1079.17 42.5179 1079.2C42.3323 1079.23 42.1714 1079.25 42.035 1079.27C41.7282 1079.31 41.4536 1079.38 41.2111 1079.47C40.9687 1079.57 40.7774 1079.7 40.6373 1079.87C40.4971 1080.04 40.427 1080.25 40.427 1080.52C40.427 1080.9 40.5653 1081.18 40.8418 1081.38C41.1183 1081.57 41.4706 1081.66 41.8986 1081.66ZM50.0975 1071.36V1083H48.0407V1071.36H50.0975ZM52.2125 1083V1074.27H54.2694V1083H52.2125ZM53.2466 1073.03C52.9209 1073.03 52.6406 1072.93 52.4057 1072.71C52.1709 1072.49 52.0535 1072.23 52.0535 1071.92C52.0535 1071.61 52.1709 1071.35 52.4057 1071.13C52.6406 1070.91 52.9209 1070.8 53.2466 1070.8C53.5762 1070.8 53.8565 1070.91 54.0875 1071.13C54.3224 1071.35 54.4398 1071.61 54.4398 1071.92C54.4398 1072.23 54.3224 1072.49 54.0875 1072.71C53.8565 1072.93 53.5762 1073.03 53.2466 1073.03ZM59.6231 1083.15C58.9375 1083.15 58.3238 1082.98 57.7822 1082.62C57.2405 1082.27 56.8125 1081.76 56.4981 1081.09C56.1837 1080.42 56.0265 1079.61 56.0265 1078.65C56.0265 1077.68 56.1856 1076.86 56.5037 1076.19C56.8257 1075.52 57.2594 1075.02 57.8049 1074.68C58.3503 1074.33 58.9583 1074.16 59.6287 1074.16C60.1401 1074.16 60.5606 1074.25 60.8901 1074.42C61.2197 1074.59 61.481 1074.8 61.6742 1075.04C61.8674 1075.28 62.017 1075.5 62.1231 1075.72H62.2083V1071.36H64.2708V1083H62.2481V1081.62H62.1231C62.017 1081.84 61.8636 1082.06 61.6628 1082.3C61.4621 1082.54 61.1969 1082.74 60.8674 1082.9C60.5378 1083.07 60.1231 1083.15 59.6231 1083.15ZM60.1969 1081.47C60.6325 1081.47 61.0037 1081.35 61.3106 1081.11C61.6174 1080.87 61.8503 1080.54 62.0094 1080.12C62.1685 1079.7 62.2481 1079.2 62.2481 1078.64C62.2481 1078.07 62.1685 1077.58 62.0094 1077.16C61.8541 1076.75 61.6231 1076.42 61.3162 1076.19C61.0132 1075.96 60.6401 1075.85 60.1969 1075.85C59.7386 1075.85 59.356 1075.97 59.0492 1076.2C58.7424 1076.44 58.5113 1076.77 58.356 1077.19C58.2007 1077.61 58.1231 1078.09 58.1231 1078.64C58.1231 1079.18 58.2007 1079.67 58.356 1080.1C58.5151 1080.52 58.7481 1080.86 59.0549 1081.1C59.3655 1081.34 59.7462 1081.47 60.1969 1081.47ZM68.9739 1083.18C68.4209 1083.18 67.9228 1083.08 67.4796 1082.88C67.0402 1082.68 66.6917 1082.38 66.4341 1081.99C66.1804 1081.6 66.0535 1081.12 66.0535 1080.55C66.0535 1080.06 66.1444 1079.65 66.3262 1079.33C66.508 1079.01 66.7561 1078.75 67.0705 1078.56C67.3849 1078.36 67.7391 1078.22 68.133 1078.12C68.5307 1078.02 68.9417 1077.94 69.366 1077.9C69.8773 1077.84 70.2921 1077.8 70.6103 1077.76C70.9285 1077.71 71.1595 1077.64 71.3035 1077.55C71.4512 1077.46 71.525 1077.31 71.525 1077.11V1077.08C71.525 1076.65 71.3982 1076.32 71.1444 1076.09C70.8906 1075.85 70.525 1075.73 70.0478 1075.73C69.544 1075.73 69.1444 1075.84 68.8489 1076.06C68.5572 1076.28 68.3603 1076.54 68.258 1076.84L66.3375 1076.57C66.4891 1076.04 66.7391 1075.59 67.0875 1075.24C67.436 1074.88 67.8622 1074.61 68.366 1074.43C68.8697 1074.25 69.4266 1074.16 70.0364 1074.16C70.4569 1074.16 70.8754 1074.21 71.2921 1074.31C71.7088 1074.41 72.0894 1074.57 72.4341 1074.8C72.7788 1075.02 73.0554 1075.32 73.2637 1075.71C73.4758 1076.1 73.5819 1076.58 73.5819 1077.16V1083H71.6046V1081.8H71.5364C71.4114 1082.04 71.2353 1082.27 71.008 1082.48C70.7845 1082.69 70.5023 1082.86 70.1614 1082.99C69.8243 1083.11 69.4285 1083.18 68.9739 1083.18ZM69.508 1081.66C69.9209 1081.66 70.2788 1081.58 70.5819 1081.42C70.8849 1081.25 71.1179 1081.03 71.2807 1080.76C71.4474 1080.49 71.5307 1080.19 71.5307 1079.87V1078.84C71.4663 1078.89 71.3565 1078.94 71.2012 1078.99C71.0497 1079.03 70.8792 1079.07 70.6898 1079.11C70.5004 1079.14 70.3129 1079.17 70.1273 1079.2C69.9417 1079.23 69.7807 1079.25 69.6444 1079.27C69.3375 1079.31 69.0629 1079.38 68.8205 1079.47C68.5781 1079.57 68.3868 1079.7 68.2466 1079.87C68.1065 1080.04 68.0364 1080.25 68.0364 1080.52C68.0364 1080.9 68.1747 1081.18 68.4512 1081.38C68.7277 1081.57 69.08 1081.66 69.508 1081.66Z" fill="#2DCF6E"/>
<path d="M44.4529 989.044C44.4529 984.944 47.7853 981.611 51.8805 981.611C55.9758 981.611 59.3081 984.948 59.3081 989.044C59.3081 993.145 55.9758 996.481 51.8805 996.481C47.7809 996.481 44.4529 993.149 44.4529 989.044ZM57.4096 989.044C57.4096 985.993 54.9278 983.508 51.8805 983.508C48.8332 983.508 46.3515 985.993 46.3515 989.044C46.3515 992.095 48.8332 994.58 51.8805 994.58C54.9278 994.585 57.4096 992.1 57.4096 989.044Z" fill="#2DCF6E"/>
<path d="M51.9995 995L51.9995 1062" stroke="#30E35E" stroke-dasharray="2 2"/>
<path d="M52.8237 951.582C52.8237 944.834 56.4498 938.551 62.2814 935.18L127.1 897.713C133.519 894.003 137.504 887.088 137.504 879.664L137.504 849.534C141.144 849.059 143.976 845.969 143.976 842.193C143.976 838.092 140.644 834.756 136.548 834.756C132.453 834.756 129.121 838.092 129.121 842.193C129.121 845.973 131.958 849.064 135.606 849.534L135.606 879.664C135.606 886.408 131.98 892.695 126.148 896.066L61.3299 933.533C54.9108 937.243 50.9251 944.158 50.9251 951.582L50.9251 982.551L52.8237 982.551L52.8237 951.582ZM131.024 842.197C131.024 839.146 133.506 836.661 136.553 836.661C139.6 836.661 142.082 839.146 142.082 842.197C142.082 845.249 139.6 847.734 136.553 847.734C133.506 847.734 131.024 845.253 131.024 842.197Z" fill="#2DCF6E"/>
<path d="M137.509 804.74C137.509 797.32 133.524 790.401 127.105 786.691L62.2863 749.224C56.4547 745.852 52.8286 739.565 52.8286 732.822L52.8286 702.691C56.4723 702.222 59.3091 699.126 59.3091 695.351C59.3091 691.25 55.9768 687.918 51.8815 687.918C47.7863 687.918 44.454 691.255 44.454 695.351C44.454 699.126 47.2864 702.217 50.9301 702.691L50.9301 732.826C50.9301 740.246 54.9157 747.165 61.3348 750.871L126.153 788.337C131.985 791.709 135.611 797.996 135.611 804.74L135.611 835.709L137.509 835.709L137.509 804.74ZM46.3481 695.346C46.3481 692.295 48.8298 689.81 51.8772 689.81C54.9245 689.81 57.4062 692.295 57.4062 695.346C57.4062 698.398 54.9245 700.883 51.8772 700.883C48.8298 700.887 46.3481 698.402 46.3481 695.346Z" fill="#2AB981"/>
<path d="M52.8237 657.889C52.8237 651.145 56.4498 644.859 62.2814 641.487L127.1 604.02C133.519 600.31 137.504 593.391 137.504 585.971L137.504 555.836C141.144 555.362 143.976 552.271 143.976 548.496C143.976 544.395 140.644 541.059 136.548 541.059C132.453 541.059 129.121 544.395 129.121 548.496C129.121 552.271 131.958 555.367 135.606 555.836L135.606 585.971C135.606 592.715 131.98 599.002 126.148 602.374L61.3299 639.84C54.9108 643.55 50.9251 650.465 50.9251 657.889L50.9251 688.858L52.8237 688.858L52.8237 657.889ZM131.024 548.5C131.024 545.449 133.506 542.964 136.553 542.964C139.6 542.964 142.082 545.449 142.082 548.5C142.082 551.551 139.6 554.036 136.553 554.036C133.506 554.036 131.024 551.551 131.024 548.5Z" fill="#279D98"/>
<path d="M137.509 511.041C137.509 503.622 133.524 496.703 127.105 492.993L62.2863 455.526C56.4547 452.154 52.8286 445.867 52.8286 439.124L52.8286 408.989C56.4723 408.519 59.3091 405.424 59.3091 401.648C59.3091 397.548 55.9768 394.211 51.8815 394.211C47.7863 394.211 44.454 397.548 44.454 401.648C44.454 405.424 47.2864 408.515 50.9301 408.989L50.9301 439.124C50.9301 446.548 54.9157 453.462 61.3348 457.172L126.153 494.639C131.985 498.011 135.611 504.298 135.611 511.041L135.611 542.01L137.509 542.01L137.509 511.041ZM46.3481 401.653C46.3481 398.601 48.8298 396.116 51.8772 396.116C54.9245 396.116 57.4062 398.601 57.4062 401.653C57.4062 404.704 54.9245 407.189 51.8772 407.189C48.8298 407.189 46.3481 404.704 46.3481 401.653Z" fill="#2069C4"/>
<path d="M52.8237 364.177C52.8237 357.433 56.4498 351.146 62.2814 347.774L127.1 310.308C133.519 306.598 137.504 299.679 137.504 292.259L137.504 262.137C141.144 261.663 143.976 258.572 143.976 254.797C143.976 250.696 140.644 247.359 136.548 247.359C132.453 247.359 129.121 250.696 129.121 254.797C129.121 258.572 131.958 261.667 135.606 262.137L135.606 292.255C135.606 298.998 131.98 305.285 126.148 308.657L61.3299 346.124C54.9108 349.833 50.9251 356.748 50.9251 364.172L50.9251 395.159L52.8237 395.159L52.8237 364.177ZM131.024 254.801C131.024 251.75 133.506 249.265 136.553 249.265C139.6 249.265 142.082 251.75 142.082 254.801C142.082 257.852 139.6 260.337 136.553 260.337C133.506 260.337 131.024 257.852 131.024 254.801Z" fill="#1D53D2"/>
<path d="M137.509 217.33C137.509 209.91 133.524 202.996 127.105 199.281L62.2863 161.814C56.4547 158.443 52.8286 152.156 52.8286 145.412L52.8286 115.29C56.4723 114.821 59.3091 111.726 59.3091 107.95C59.3091 103.849 55.9768 100.513 51.8815 100.513C47.7863 100.513 44.454 103.849 44.454 107.95C44.454 111.726 47.2864 114.816 50.9301 115.29L50.9301 145.412C50.9301 152.832 54.9157 159.751 61.3348 163.461L126.153 200.928C131.985 204.299 135.611 210.586 135.611 217.33L135.611 248.317L137.509 248.317L137.509 217.33ZM46.3481 107.954C46.3481 104.903 48.8298 102.418 51.8772 102.418C54.9245 102.418 57.4062 104.903 57.4062 107.954C57.4062 111.006 54.9245 113.49 51.8772 113.49C48.8298 113.49 46.3481 111.006 46.3481 107.954Z" fill="#1934EF"/>
<path d="M51.9995 101L51.9995 34" stroke="#1723FF" stroke-dasharray="2 2"/>
<path d="M32.5406 6.0696C32.4577 5.80114 32.3434 5.56084 32.1975 5.34872C32.055 5.13329 31.8827 4.94934 31.6805 4.79687C31.4816 4.64441 31.2529 4.53007 30.9944 4.45383C30.7359 4.37429 30.4542 4.33452 30.1493 4.33452C29.6024 4.33452 29.1152 4.47206 28.6876 4.74716C28.26 5.02225 27.9236 5.42661 27.6784 5.96023C27.4364 6.49053 27.3154 7.13684 27.3154 7.89915C27.3154 8.66809 27.4364 9.31937 27.6784 9.85298C27.9203 10.3866 28.2567 10.7926 28.6876 11.071C29.1185 11.3461 29.6189 11.4837 30.189 11.4837C30.7061 11.4837 31.1535 11.3842 31.5314 11.1854C31.9125 10.9865 32.2058 10.7048 32.4113 10.3402C32.6168 9.9723 32.7196 9.54143 32.7196 9.04759L33.1372 9.11222H30.373V7.67045L34.5044 7.67045V8.89347C34.5044 9.76515 34.3188 10.5192 33.9475 11.1555C33.5763 11.7919 33.0659 12.2824 32.4163 12.6271C31.7667 12.9685 31.0209 13.1392 30.1791 13.1392C29.2411 13.1392 28.4175 12.9287 27.7082 12.5078C27.0022 12.0836 26.4504 11.482 26.0527 10.7031C25.6582 9.92093 25.461 8.9929 25.461 7.91903C25.461 7.09706 25.577 6.36293 25.8091 5.71662C26.0444 5.07031 26.3725 4.52178 26.7934 4.07102C27.2144 3.61695 27.7082 3.27225 28.275 3.03693C28.8417 2.7983 29.4582 2.67898 30.1244 2.67898C30.6878 2.67898 31.2132 2.76184 31.7004 2.92756C32.1876 3.08996 32.6201 3.32197 32.998 3.62358C33.3791 3.92519 33.6923 4.28314 33.9376 4.69744C34.1829 5.11174 34.3436 5.56913 34.4198 6.0696H32.5406ZM39.5891 13.1491C38.8234 13.1491 38.1622 12.9901 37.6054 12.6719C37.0519 12.3504 36.626 11.8963 36.3277 11.3097C36.0294 10.7197 35.8803 10.0253 35.8803 9.22656C35.8803 8.44105 36.0294 7.75166 36.3277 7.15838C36.6293 6.56179 37.0502 6.09777 37.5905 5.76633C38.1307 5.43158 38.7654 5.2642 39.4946 5.2642C39.9652 5.2642 40.4094 5.34044 40.827 5.4929C41.2479 5.64205 41.6191 5.87405 41.9406 6.18892C42.2654 6.50379 42.5206 6.90483 42.7062 7.39205C42.8919 7.87595 42.9847 8.45265 42.9847 9.12216V9.67401L36.7254 9.67401V8.46094L41.2595 8.46094C41.2562 8.11624 41.1816 7.80966 41.0358 7.54119C40.89 7.26941 40.6861 7.05563 40.4243 6.89986C40.1658 6.74408 39.8642 6.66619 39.5195 6.66619C39.1516 6.66619 38.8284 6.75568 38.55 6.93466C38.2716 7.11032 38.0545 7.34233 37.8987 7.63068C37.7463 7.91572 37.6684 8.22893 37.6651 8.57031V9.62926C37.6651 10.0734 37.7463 10.4545 37.9087 10.7727C38.0711 11.0876 38.2981 11.3295 38.5898 11.4986C38.8814 11.6643 39.2228 11.7472 39.6139 11.7472C39.8758 11.7472 40.1127 11.7107 40.3249 11.6378C40.537 11.5616 40.7209 11.4505 40.8767 11.3047C41.0325 11.1589 41.1501 10.9782 41.2297 10.7628L42.9101 10.9517C42.804 11.3958 42.6018 11.7836 42.3035 12.1151C42.0086 12.4432 41.6307 12.6984 41.17 12.8807C40.7093 13.0597 40.1823 13.1491 39.5891 13.1491ZM50.5427 7.3821L48.9021 7.56108C48.8557 7.39536 48.7745 7.23958 48.6585 7.09375C48.5458 6.94792 48.3933 6.83026 48.2011 6.74077C48.0089 6.65128 47.7735 6.60653 47.4951 6.60653C47.1206 6.60653 46.8057 6.68774 46.5505 6.85014C46.2986 7.01255 46.1743 7.22301 46.1777 7.48153C46.1743 7.7036 46.2555 7.88423 46.4213 8.02344C46.5903 8.16264 46.8687 8.27699 47.2565 8.36648L48.5591 8.64489C49.2816 8.80066 49.8185 9.04759 50.1698 9.38565C50.5245 9.72372 50.7035 10.1662 50.7068 10.7131C50.7035 11.1937 50.5626 11.6179 50.2842 11.9858C50.0091 12.3504 49.6263 12.6354 49.1358 12.8409C48.6452 13.0464 48.0818 13.1491 47.4454 13.1491C46.5108 13.1491 45.7584 12.9536 45.1883 12.5625C44.6182 12.1681 44.2785 11.6196 44.1691 10.9169L45.9241 10.7479C46.0037 11.0926 46.1727 11.3527 46.4312 11.5284C46.6897 11.7041 47.0261 11.7919 47.4404 11.7919C47.868 11.7919 48.211 11.7041 48.4696 11.5284C48.7314 11.3527 48.8623 11.1357 48.8623 10.8771C48.8623 10.6584 48.7778 10.4777 48.6088 10.3352C48.443 10.1927 48.1845 10.0833 47.8332 10.0071L46.5306 9.73366C45.7982 9.5812 45.2563 9.32434 44.9049 8.96307C44.5536 8.59848 44.3796 8.13778 44.3829 7.58097C44.3796 7.11032 44.5072 6.70265 44.7657 6.35795C45.0276 6.00994 45.3905 5.74148 45.8545 5.55256C46.3218 5.36032 46.8604 5.2642 47.4703 5.2642C48.3652 5.2642 49.0695 5.45478 49.5832 5.83594C50.1002 6.21709 50.4201 6.73248 50.5427 7.3821ZM56.004 5.36364V6.75568L51.6141 6.75568V5.36364L56.004 5.36364ZM52.6979 3.53409L54.4976 3.53409V10.7031C54.4976 10.9451 54.5341 11.1307 54.607 11.2599C54.6832 11.3859 54.7827 11.4721 54.9053 11.5185C55.0279 11.5649 55.1638 11.5881 55.313 11.5881C55.4256 11.5881 55.5284 11.5798 55.6212 11.5632C55.7173 11.5466 55.7902 11.5317 55.8399 11.5185L56.1432 12.9254C56.0471 12.9586 55.9095 12.995 55.7306 13.0348C55.5549 13.0746 55.3395 13.0978 55.0843 13.1044C54.6335 13.1177 54.2275 13.0497 53.8662 12.9006C53.505 12.7481 53.2183 12.5128 53.0061 12.1946C52.7973 11.8764 52.6946 11.4787 52.6979 11.0014V3.53409ZM57.5092 13V5.36364L59.3089 5.36364V13H57.5092ZM58.414 4.27983C58.1289 4.27983 57.8837 4.18537 57.6782 3.99645C57.4727 3.80421 57.37 3.57386 57.37 3.3054C57.37 3.03362 57.4727 2.80327 57.6782 2.61435C57.8837 2.42211 58.1289 2.32599 58.414 2.32599C58.7023 2.32599 58.9476 2.42211 59.1498 2.61435C59.3553 2.80327 59.458 3.03362 59.458 3.3054C59.458 3.57386 59.3553 3.80421 59.1498 3.99645C58.9476 4.18537 58.7023 4.27983 58.414 4.27983ZM64.4905 13.1491C63.7448 13.1491 63.0985 12.9851 62.5516 12.657C62.0047 12.3288 61.5805 11.8698 61.2789 11.2798C60.9806 10.6899 60.8314 10.0005 60.8314 9.21165C60.8314 8.42282 60.9806 7.73177 61.2789 7.13849C61.5805 6.54522 62.0047 6.08452 62.5516 5.75639C63.0985 5.42827 63.7448 5.2642 64.4905 5.2642C65.2363 5.2642 65.8826 5.42827 66.4294 5.75639C66.9763 6.08452 67.3989 6.54522 67.6972 7.13849C67.9988 7.73177 68.1496 8.42282 68.1496 9.21165C68.1496 10.0005 67.9988 10.6899 67.6972 11.2798C67.3989 11.8698 66.9763 12.3288 66.4294 12.657C65.8826 12.9851 65.2363 13.1491 64.4905 13.1491ZM64.5005 11.7074C64.9048 11.7074 65.2429 11.5964 65.5147 11.3743C65.7864 11.1489 65.9886 10.8473 66.1212 10.4695C66.2571 10.0916 66.325 9.67069 66.325 9.20668C66.325 8.73935 66.2571 8.31676 66.1212 7.93892C65.9886 7.55777 65.7864 7.2545 65.5147 7.02912C65.2429 6.80374 64.9048 6.69105 64.5005 6.69105C64.0862 6.69105 63.7415 6.80374 63.4664 7.02912C63.1946 7.2545 62.9908 7.55777 62.8549 7.93892C62.7223 8.31676 62.656 8.73935 62.656 9.20668C62.656 9.67069 62.7223 10.0916 62.8549 10.4695C62.9908 10.8473 63.1946 11.1489 63.4664 11.3743C63.7415 11.5964 64.0862 11.7074 64.5005 11.7074ZM63.7995 4.35937L64.9131 2.08736H66.673L65.1468 4.35937H63.7995ZM71.4768 8.52557V13H69.6771V5.36364H71.3973V6.66122H71.4868C71.6624 6.23366 71.9425 5.89394 72.327 5.64205C72.7148 5.39015 73.1937 5.2642 73.7638 5.2642C74.2908 5.2642 74.7498 5.37689 75.1409 5.60227C75.5353 5.82765 75.8402 6.15412 76.0557 6.58168C76.2744 7.00923 76.3821 7.52794 76.3788 8.13778V13H74.5791V8.41619C74.5791 7.90578 74.4465 7.50639 74.1814 7.21804C73.9196 6.92969 73.5566 6.78551 73.0926 6.78551C72.7777 6.78551 72.4977 6.85511 72.2524 6.99432C72.0105 7.13021 71.8199 7.32741 71.6807 7.58594C71.5448 7.84446 71.4768 8.15767 71.4768 8.52557ZM10.3928 23.9091C10.3928 25.0062 10.1873 25.9458 9.77629 26.728C9.36862 27.5069 8.8118 28.1035 8.10584 28.5178C7.40319 28.9321 6.60607 29.1392 5.7145 29.1392C4.82293 29.1392 4.02416 28.9321 3.3182 28.5178C2.61554 28.1001 2.05873 27.5019 1.64774 26.723C1.24007 25.9408 1.03624 25.0028 1.03624 23.9091C1.03624 22.812 1.24007 21.8741 1.64774 21.0952C2.05873 20.313 2.61554 19.7147 3.3182 19.3004C4.02416 18.8861 4.82293 18.679 5.7145 18.679C6.60607 18.679 7.40319 18.8861 8.10584 19.3004C8.8118 19.7147 9.36862 20.313 9.77629 21.0952C10.1873 21.8741 10.3928 22.812 10.3928 23.9091ZM8.53837 23.9091C8.53837 23.1368 8.41739 22.4856 8.17544 21.9553C7.9368 21.4216 7.60536 21.0189 7.18112 20.7472C6.75688 20.4721 6.26801 20.3345 5.7145 20.3345C5.161 20.3345 4.67213 20.4721 4.24788 20.7472C3.82364 21.0189 3.49054 21.4216 3.24859 21.9553C3.00996 22.4856 2.89064 23.1368 2.89064 23.9091C2.89064 24.6813 3.00996 25.3343 3.24859 25.8679C3.49054 26.3982 3.82364 26.8009 4.24788 27.076C4.67213 27.3478 5.161 27.4837 5.7145 27.4837C6.26801 27.4837 6.75688 27.3478 7.18112 27.076C7.60536 26.8009 7.9368 26.3982 8.17544 25.8679C8.41739 25.3343 8.53837 24.6813 8.53837 23.9091ZM12.057 29L12.057 21.3636H13.802V22.6364H13.8816C14.0208 22.1955 14.2594 21.8558 14.5975 21.6172C14.9389 21.3752 15.3283 21.2543 15.7658 21.2543C15.8652 21.2543 15.9763 21.2592 16.0989 21.2692C16.2249 21.2758 16.3293 21.2874 16.4121 21.304V22.9595C16.3359 22.933 16.2149 22.9098 16.0492 22.8899C15.8868 22.8667 15.7294 22.8551 15.5769 22.8551C15.2488 22.8551 14.9538 22.9264 14.692 23.0689C14.4334 23.2081 14.2296 23.402 14.0804 23.6506C13.9313 23.8991 13.8567 24.1858 13.8567 24.5107L13.8567 29H12.057ZM20.6144 32.0227C19.9681 32.0227 19.4129 31.9349 18.9489 31.7592C18.4849 31.5869 18.112 31.3549 17.8303 31.0632C17.5485 30.7715 17.353 30.4484 17.2436 30.0937L18.8644 29.701C18.9373 29.8501 19.0433 29.9976 19.1825 30.1435C19.3217 30.2926 19.509 30.4152 19.7443 30.5114C19.983 30.6108 20.2829 30.6605 20.6442 30.6605C21.1546 30.6605 21.5772 30.5362 21.9119 30.2876C22.2467 30.0424 22.4141 29.638 22.4141 29.0746V27.6278H22.3246C22.2318 27.8134 22.0959 28.004 21.9169 28.1996C21.7413 28.3951 21.5076 28.5592 21.2159 28.6918C20.9276 28.8243 20.5646 28.8906 20.1271 28.8906C19.5405 28.8906 19.0085 28.7531 18.5313 28.478C18.0573 28.1996 17.6795 27.7853 17.3977 27.2351C17.1193 26.6816 16.9801 25.9889 16.9801 25.157C16.9801 24.3184 17.1193 23.6108 17.3977 23.0341C17.6795 22.4541 18.059 22.0149 18.5362 21.7166C19.0135 21.415 19.5455 21.2642 20.1321 21.2642C20.5796 21.2642 20.9475 21.3404 21.2358 21.4929C21.5275 21.642 21.7595 21.8227 21.9318 22.0348C22.1042 22.2436 22.2351 22.4408 22.3246 22.6264H22.424V21.3636H24.1989V29.1243C24.1989 29.7772 24.0431 30.3175 23.7315 30.745C23.42 31.1726 22.9941 31.4924 22.4538 31.7045C21.9136 31.9167 21.3004 32.0227 20.6144 32.0227ZM20.6293 27.4787C21.0104 27.4787 21.3352 27.3859 21.6037 27.2003C21.8722 27.0147 22.076 26.7479 22.2152 26.3999C22.3544 26.0518 22.424 25.6342 22.424 25.147C22.424 24.6664 22.3544 24.2455 22.2152 23.8842C22.0793 23.523 21.8771 23.2429 21.6087 23.044C21.3435 22.8419 21.0171 22.7408 20.6293 22.7408C20.2282 22.7408 19.8935 22.8452 19.625 23.054C19.3565 23.2628 19.1544 23.5495 19.0185 23.9141C18.8826 24.2753 18.8146 24.6863 18.8146 25.147C18.8146 25.6143 18.8826 26.0237 19.0185 26.375C19.1577 26.723 19.3615 26.9948 19.63 27.1903C19.9018 27.3826 20.2349 27.4787 20.6293 27.4787ZM28.2408 29.1541C27.7569 29.1541 27.321 29.0679 26.9333 28.8956C26.5488 28.7199 26.2439 28.4614 26.0185 28.12C25.7964 27.7786 25.6854 27.3577 25.6854 26.8572C25.6854 26.4264 25.7649 26.0701 25.924 25.7884C26.0831 25.5066 26.3002 25.2812 26.5753 25.1122C26.8504 24.9432 27.1603 24.8156 27.505 24.7294C27.853 24.6399 28.2126 24.5753 28.5838 24.5355C29.0313 24.4891 29.3942 24.4477 29.6726 24.4112C29.951 24.3714 30.1532 24.3118 30.2791 24.2322C30.4084 24.1494 30.473 24.0218 30.473 23.8494V23.8196C30.473 23.4451 30.362 23.1551 30.1399 22.9496C29.9179 22.7441 29.598 22.6413 29.1804 22.6413C28.7396 22.6413 28.3899 22.7375 28.1314 22.9297C27.8762 23.1219 27.7038 23.349 27.6144 23.6108L25.934 23.3722C26.0665 22.9081 26.2853 22.5204 26.5902 22.2088C26.8951 21.8939 27.268 21.6586 27.7088 21.5028C28.1496 21.3437 28.6369 21.2642 29.1705 21.2642C29.5384 21.2642 29.9046 21.3073 30.2692 21.3935C30.6338 21.4796 30.9669 21.6222 31.2685 21.821C31.5701 22.0166 31.812 22.2834 31.9943 22.6214C32.1799 22.9595 32.2727 23.3821 32.2727 23.8892V29H30.5426V27.951H30.483C30.3736 28.1631 30.2195 28.362 30.0206 28.5476C29.8251 28.7299 29.5781 28.8774 29.2798 28.9901C28.9849 29.0994 28.6385 29.1541 28.2408 29.1541ZM28.7081 27.8317C29.0694 27.8317 29.3826 27.7604 29.6477 27.6179C29.9129 27.4721 30.1167 27.2798 30.2592 27.0412C30.4051 26.8026 30.478 26.5424 30.478 26.2607V25.3608C30.4217 25.4072 30.3255 25.4503 30.1896 25.4901C30.0571 25.5298 29.9079 25.5646 29.7422 25.5945C29.5765 25.6243 29.4124 25.6508 29.25 25.674C29.0876 25.6972 28.9467 25.7171 28.8274 25.7337C28.559 25.7701 28.3187 25.8298 28.1065 25.9126C27.8944 25.9955 27.727 26.1115 27.6044 26.2607C27.4818 26.4065 27.4205 26.5954 27.4205 26.8274C27.4205 27.1589 27.5414 27.4091 27.7834 27.5781C28.0253 27.7472 28.3336 27.8317 28.7081 27.8317ZM35.8821 24.5256V29H34.0824L34.0824 21.3636H35.8026L35.8026 22.6612H35.8921C36.0677 22.2337 36.3478 21.8939 36.7323 21.642C37.12 21.3902 37.599 21.2642 38.169 21.2642C38.696 21.2642 39.1551 21.3769 39.5462 21.6023C39.9406 21.8277 40.2455 22.1541 40.461 22.5817C40.6797 23.0092 40.7874 23.5279 40.7841 24.1378V29H38.9844V24.4162C38.9844 23.9058 38.8518 23.5064 38.5867 23.218C38.3248 22.9297 37.9619 22.7855 37.4979 22.7855C37.183 22.7855 36.9029 22.8551 36.6577 22.9943C36.4157 23.1302 36.2252 23.3274 36.086 23.5859C35.9501 23.8445 35.8821 24.1577 35.8821 24.5256ZM42.6137 29L42.6137 21.3636H44.4134L44.4134 29H42.6137ZM43.5185 20.2798C43.2334 20.2798 42.9882 20.1854 42.7827 19.9964C42.5772 19.8042 42.4744 19.5739 42.4744 19.3054C42.4744 19.0336 42.5772 18.8033 42.7827 18.6143C42.9882 18.4221 43.2334 18.326 43.5185 18.326C43.8068 18.326 44.0521 18.4221 44.2543 18.6143C44.4598 18.8033 44.5625 19.0336 44.5625 19.3054C44.5625 19.5739 44.4598 19.8042 44.2543 19.9964C44.0521 20.1854 43.8068 20.2798 43.5185 20.2798ZM46.1646 29V27.8565L50.1021 22.9197V22.8551H46.2939L46.2939 21.3636H52.3045L52.3045 22.5916L48.5559 27.4439V27.5085H52.4338V29H46.1646ZM56.3228 29.1541C55.8389 29.1541 55.4031 29.0679 55.0153 28.8956C54.6308 28.7199 54.3259 28.4614 54.1005 28.12C53.8784 27.7786 53.7674 27.3577 53.7674 26.8572C53.7674 26.4264 53.847 26.0701 54.0061 25.7884C54.1651 25.5066 54.3822 25.2812 54.6573 25.1122C54.9324 24.9432 55.2423 24.8156 55.587 24.7294C55.935 24.6399 56.2946 24.5753 56.6659 24.5355C57.1133 24.4891 57.4762 24.4477 57.7546 24.4112C58.033 24.3714 58.2352 24.3118 58.3612 24.2322C58.4904 24.1494 58.5551 24.0218 58.5551 23.8494V23.8196C58.5551 23.4451 58.444 23.1551 58.222 22.9496C57.9999 22.7441 57.6801 22.6413 57.2624 22.6413C56.8216 22.6413 56.472 22.7375 56.2134 22.9297C55.9582 23.1219 55.7859 23.349 55.6964 23.6108L54.016 23.3722C54.1486 22.9081 54.3673 22.5204 54.6722 22.2088C54.9772 21.8939 55.35 21.6586 55.7909 21.5028C56.2317 21.3437 56.7189 21.2642 57.2525 21.2642C57.6204 21.2642 57.9866 21.3073 58.3512 21.3935C58.7158 21.4796 59.0489 21.6222 59.3505 21.821C59.6521 22.0166 59.8941 22.2834 60.0764 22.6214C60.262 22.9595 60.3548 23.3821 60.3548 23.8892V29H58.6247V27.951H58.565C58.4556 28.1631 58.3015 28.362 58.1026 28.5476C57.9071 28.7299 57.6602 28.8774 57.3619 28.9901C57.0669 29.0994 56.7205 29.1541 56.3228 29.1541ZM56.7901 27.8317C57.1514 27.8317 57.4646 27.7604 57.7298 27.6179C57.9949 27.4721 58.1988 27.2798 58.3413 27.0412C58.4871 26.8026 58.56 26.5424 58.56 26.2607V25.3608C58.5037 25.4072 58.4076 25.4503 58.2717 25.4901C58.1391 25.5298 57.99 25.5646 57.8242 25.5945C57.6585 25.6243 57.4945 25.6508 57.332 25.674C57.1696 25.6972 57.0288 25.7171 56.9095 25.7337C56.641 25.7701 56.4007 25.8298 56.1886 25.9126C55.9765 25.9955 55.8091 26.1115 55.6864 26.2607C55.5638 26.4065 55.5025 26.5954 55.5025 26.8274C55.5025 27.1589 55.6235 27.4091 55.8654 27.5781C56.1074 27.7472 56.4156 27.8317 56.7901 27.8317ZM65.4954 29.1491C64.7331 29.1491 64.0785 28.9818 63.5316 28.647C62.9881 28.3123 62.5688 27.8499 62.2738 27.2599C61.9821 26.6667 61.8363 25.9839 61.8363 25.2116C61.8363 24.4361 61.9855 23.7517 62.2837 23.1584C62.582 22.5618 63.003 22.0978 63.5465 21.7663C64.0934 21.4316 64.7397 21.2642 65.4855 21.2642C66.1052 21.2642 66.6538 21.3786 67.1311 21.6072C67.6116 21.8326 67.9945 22.1525 68.2795 22.5668C68.5645 22.9777 68.7269 23.4583 68.7667 24.0085H67.0465C66.9769 23.6406 66.8112 23.334 66.5494 23.0888C66.2909 22.8402 65.9445 22.7159 65.5103 22.7159C65.1424 22.7159 64.8193 22.8153 64.5409 23.0142C64.2624 23.2098 64.0454 23.4915 63.8896 23.8594C63.7371 24.2273 63.6609 24.6681 63.6609 25.1818C63.6609 25.7022 63.7371 26.1496 63.8896 26.5241C64.042 26.8954 64.2558 27.1821 64.5309 27.3842C64.8093 27.5831 65.1358 27.6825 65.5103 27.6825C65.7755 27.6825 66.0124 27.6328 66.2212 27.5334C66.4334 27.4306 66.6107 27.2831 66.7532 27.0909C66.8957 26.8987 66.9935 26.665 67.0465 26.3899H68.7667C68.7236 26.9302 68.5645 27.4091 68.2894 27.8267C68.0143 28.241 67.6398 28.5658 67.1659 28.8011C66.6919 29.0331 66.1351 29.1491 65.4954 29.1491ZM70.2445 29V21.3636H72.0442V29H70.2445ZM71.1493 20.2798C70.8643 20.2798 70.619 20.1854 70.4135 19.9964C70.2081 19.8042 70.1053 19.5739 70.1053 19.3054C70.1053 19.0336 70.2081 18.8033 70.4135 18.6143C70.619 18.4221 70.8643 18.326 71.1493 18.326C71.4377 18.326 71.683 18.4221 71.8851 18.6143C72.0906 18.8033 72.1934 19.0336 72.1934 19.3054C72.1934 19.5739 72.0906 19.8042 71.8851 19.9964C71.683 20.1854 71.4377 20.2798 71.1493 20.2798ZM77.2259 29.1491C76.4801 29.1491 75.8338 28.9851 75.2869 28.657C74.7401 28.3288 74.3158 27.8698 74.0142 27.2798C73.7159 26.6899 73.5668 26.0005 73.5668 25.2116C73.5668 24.4228 73.7159 23.7318 74.0142 23.1385C74.3158 22.5452 74.7401 22.0845 75.2869 21.7564C75.8338 21.4283 76.4801 21.2642 77.2259 21.2642C77.9716 21.2642 78.6179 21.4283 79.1648 21.7564C79.7117 22.0845 80.1342 22.5452 80.4325 23.1385C80.7342 23.7318 80.885 24.4228 80.885 25.2116C80.885 26.0005 80.7342 26.6899 80.4325 27.2798C80.1342 27.8698 79.7117 28.3288 79.1648 28.657C78.6179 28.9851 77.9716 29.1491 77.2259 29.1491ZM77.2358 27.7074C77.6402 27.7074 77.9782 27.5964 78.25 27.3743C78.5218 27.1489 78.724 26.8473 78.8565 26.4695C78.9924 26.0916 79.0604 25.6707 79.0604 25.2067C79.0604 24.7393 78.9924 24.3168 78.8565 23.9389C78.724 23.5578 78.5218 23.2545 78.25 23.0291C77.9782 22.8037 77.6402 22.6911 77.2358 22.6911C76.8215 22.6911 76.4768 22.8037 76.2017 23.0291C75.9299 23.2545 75.7261 23.5578 75.5902 23.9389C75.4576 24.3168 75.3913 24.7393 75.3913 25.2067C75.3913 25.6707 75.4576 26.0916 75.5902 26.4695C75.7261 26.8473 75.9299 27.1489 76.2017 27.3743C76.4768 27.5964 76.8215 27.7074 77.2358 27.7074ZM84.2122 24.5256V29H82.4125V21.3636H84.1326V22.6612H84.2221C84.3978 22.2337 84.6779 21.8939 85.0623 21.642C85.4501 21.3902 85.9291 21.2642 86.4991 21.2642C87.0261 21.2642 87.4852 21.3769 87.8763 21.6023C88.2707 21.8277 88.5756 22.1541 88.791 22.5817C89.0098 23.0092 89.1175 23.5279 89.1142 24.1378V29H87.3145V24.4162C87.3145 23.9058 87.1819 23.5064 86.9167 23.218C86.6549 22.9297 86.292 22.7855 85.828 22.7855C85.5131 22.7855 85.233 22.8551 84.9878 22.9943C84.7458 23.1302 84.5552 23.3274 84.416 23.5859C84.2801 23.8445 84.2122 24.1577 84.2122 24.5256ZM93.1412 29.1541C92.6573 29.1541 92.2214 29.0679 91.8336 28.8956C91.4492 28.7199 91.1442 28.4614 90.9189 28.12C90.6968 27.7786 90.5858 27.3577 90.5858 26.8572C90.5858 26.4264 90.6653 26.0701 90.8244 25.7884C90.9835 25.5066 91.2006 25.2812 91.4757 25.1122C91.7508 24.9432 92.0607 24.8156 92.4054 24.7294C92.7534 24.6399 93.113 24.5753 93.4842 24.5355C93.9317 24.4891 94.2946 24.4477 94.573 24.4112C94.8514 24.3714 95.0536 24.3118 95.1795 24.2322C95.3088 24.1494 95.3734 24.0218 95.3734 23.8494V23.8196C95.3734 23.4451 95.2624 23.1551 95.0403 22.9496C94.8183 22.7441 94.4984 22.6413 94.0808 22.6413C93.64 22.6413 93.2903 22.7375 93.0318 22.9297C92.7766 23.1219 92.6042 23.349 92.5148 23.6108L90.8344 23.3722C90.9669 22.9081 91.1857 22.5204 91.4906 22.2088C91.7955 21.8939 92.1684 21.6586 92.6092 21.5028C93.05 21.3437 93.5372 21.2642 94.0709 21.2642C94.4388 21.2642 94.805 21.3073 95.1696 21.3935C95.5342 21.4796 95.8673 21.6222 96.1689 21.821C96.4705 22.0166 96.7124 22.2834 96.8947 22.6214C97.0803 22.9595 97.1731 23.3821 97.1731 23.8892V29H95.443V27.951H95.3834C95.274 28.1631 95.1199 28.362 94.921 28.5476C94.7255 28.7299 94.4785 28.8774 94.1802 28.9901C93.8853 29.0994 93.5389 29.1541 93.1412 29.1541ZM93.6085 27.8317C93.9698 27.8317 94.283 27.7604 94.5481 27.6179C94.8133 27.4721 95.0171 27.2798 95.1596 27.0412C95.3055 26.8026 95.3784 26.5424 95.3784 26.2607V25.3608C95.322 25.4072 95.2259 25.4503 95.09 25.4901C94.9575 25.5298 94.8083 25.5646 94.6426 25.5945C94.4769 25.6243 94.3128 25.6508 94.1504 25.674C93.988 25.6972 93.8471 25.7171 93.7278 25.7337C93.4594 25.7701 93.2191 25.8298 93.0069 25.9126C92.7948 25.9955 92.6274 26.1115 92.5048 26.2607C92.3822 26.4065 92.3209 26.5954 92.3209 26.8274C92.3209 27.1589 92.4418 27.4091 92.6838 27.5781C92.9257 27.7472 93.234 27.8317 93.6085 27.8317ZM100.783 18.8182V29L98.9828 29V18.8182L100.783 18.8182Z" fill="#1723FF"/>
</svg>
