<svg width="957" height="160" fill="none" xmlns="http://www.w3.org/2000/svg"><path d="M932.901 99.951c-4.101 0-7.433-3.332-7.433-7.427s3.337-7.428 7.433-7.428c4.1 0 7.437 3.333 7.437 7.428 0 4.1-3.332 7.427-7.437 7.427Zm0-12.956c-3.051 0-5.536 2.481-5.536 5.529 0 3.047 2.485 5.529 5.536 5.529 3.051 0 5.536-2.482 5.536-5.53.004-3.046-2.481-5.528-5.536-5.528Z" fill="#2DCF6E"/><path d="M161.187 6.896c-7.42 0-14.335 3.986-18.049 10.405l-37.467 64.818c-3.372 5.832-9.659 9.458-16.402 9.458H59.147c-.47-3.644-3.565-6.48-7.34-6.48-4.101 0-7.438 3.332-7.438 7.427s3.337 7.428 7.438 7.428c3.775 0 6.866-2.833 7.34-6.477H89.27c7.42 0 14.339-3.985 18.049-10.404l37.466-64.819c3.372-5.831 9.659-9.457 16.403-9.457h30.986V6.896h-30.986ZM51.811 98.057c-3.051 0-5.536-2.481-5.536-5.529 0-3.047 2.485-5.529 5.536-5.529 3.051 0 5.536 2.482 5.536 5.53 0 3.047-2.485 5.528-5.536 5.528Z" fill="#1934EF"/><path d="M308.033 91.581c-6.743 0-13.03-3.626-16.402-9.457l-37.467-64.819C250.454 10.886 243.535 6.9 236.116 6.9h-30.122C205.52 3.261 202.429.43 198.653.43c-4.1 0-7.437 3.332-7.437 7.427 0 4.096 3.337 7.428 7.437 7.428 3.776 0 6.871-2.837 7.341-6.485h30.117c6.744 0 13.031 3.626 16.402 9.458l37.467 64.818c3.71 6.419 10.625 10.405 18.049 10.405h30.987V91.58h-30.983Zm-109.375-78.2c-3.052 0-5.537-2.482-5.537-5.529 0-3.047 2.485-5.53 5.537-5.53 3.051 0 5.536 2.483 5.536 5.53s-2.485 5.529-5.536 5.529Z" fill="#1D53D2"/><path d="M454.898 6.896c-7.42 0-14.339 3.986-18.049 10.405l-37.466 64.818c-3.372 5.832-9.659 9.458-16.403 9.458h-30.135c-.469-3.644-3.565-6.48-7.34-6.48-4.101 0-7.437 3.332-7.437 7.427s3.336 7.428 7.437 7.428c3.775 0 6.866-2.833 7.34-6.477h30.135c7.424 0 14.339-3.985 18.049-10.404l37.467-64.819c3.372-5.831 9.658-9.457 16.402-9.457h30.969V6.896h-30.969ZM345.509 98.057c-3.051 0-5.536-2.481-5.536-5.529 0-3.047 2.485-5.529 5.536-5.529 3.051 0 5.536 2.482 5.536 5.53 0 3.047-2.485 5.528-5.536 5.528Z" fill="#2069C4"/><path d="M601.746 91.581c-6.744 0-13.031-3.626-16.403-9.457l-37.466-64.819C544.167 10.886 537.248 6.9 529.828 6.9h-30.135c-.474-3.639-3.565-6.471-7.341-6.471-4.1 0-7.437 3.332-7.437 7.427 0 4.096 3.337 7.428 7.437 7.428 3.776 0 6.871-2.837 7.341-6.485h30.135c6.744 0 13.031 3.626 16.402 9.458l37.467 64.818c3.71 6.419 10.625 10.405 18.049 10.405h30.969V91.58h-30.969Zm-109.389-78.2c-3.051 0-5.536-2.482-5.536-5.529 0-3.047 2.485-5.53 5.536-5.53 3.051 0 5.536 2.483 5.536 5.53s-2.485 5.529-5.536 5.529Z" fill="#279D98"/><path d="M748.596 6.896c-7.419 0-14.339 3.986-18.048 10.405l-37.467 64.818c-3.372 5.832-9.659 9.458-16.402 9.458h-30.131c-.47-3.644-3.565-6.48-7.341-6.48-4.1 0-7.432 3.332-7.432 7.427s3.336 7.428 7.432 7.428c3.776 0 6.867-2.833 7.341-6.477h30.135c7.42 0 14.339-3.985 18.044-10.404l37.467-64.819c3.372-5.831 9.659-9.457 16.402-9.457h30.969V6.896h-30.969ZM639.203 98.057c-3.051 0-5.536-2.481-5.536-5.529 0-3.047 2.485-5.529 5.536-5.529 3.051 0 5.536 2.482 5.536 5.53.005 3.047-2.48 5.528-5.536 5.528Z" fill="#2AB981"/><path d="M895.438 91.581a18.998 18.998 0 0 1-16.402-9.457l-37.467-64.819C837.86 10.886 830.945 6.9 823.521 6.9H793.39c-.474-3.639-3.565-6.471-7.34-6.471-4.101 0-7.437 3.332-7.437 7.427 0 4.096 3.336 7.428 7.437 7.428 3.78 0 6.871-2.837 7.34-6.485h30.131c6.743 0 13.03 3.626 16.402 9.458l37.467 64.818c3.71 6.419 10.624 10.405 18.048 10.405h30.97V91.58h-30.97Zm-109.384-78.2c-3.051 0-5.536-2.482-5.536-5.529 0-3.047 2.485-5.53 5.536-5.53 3.051 0 5.536 2.483 5.536 5.53a5.537 5.537 0 0 1-5.536 5.529Z" fill="#2DCF6E"/><path d="M932.857 99.687v20" stroke="#30E35E" stroke-dasharray="2 2"/><path d="M916.735 129.249a1.553 1.553 0 0 0-.671-1.159c-.39-.276-.898-.415-1.523-.415-.439 0-.816.067-1.13.199-.315.133-.555.313-.722.54a1.312 1.312 0 0 0-.256.778c0 .243.055.453.165.631.114.178.267.33.46.455.194.121.408.223.642.307.235.083.472.153.711.21l1.091.272c.439.103.861.241 1.267.415a4.46 4.46 0 0 1 1.096.659c.326.265.584.586.773.961.189.375.284.814.284 1.318 0 .682-.174 1.282-.523 1.801-.348.515-.852.918-1.511 1.21-.655.288-1.449.432-2.381.432-.905 0-1.691-.14-2.358-.421-.663-.28-1.182-.689-1.557-1.227-.371-.538-.571-1.193-.602-1.966h2.074c.03.406.155.743.375 1.012s.506.469.858.602a3.39 3.39 0 0 0 1.193.199c.459 0 .86-.068 1.205-.205.348-.14.621-.333.818-.579.197-.25.297-.542.301-.875-.004-.303-.093-.553-.267-.75-.174-.201-.419-.368-.733-.5a6.991 6.991 0 0 0-1.091-.364l-1.324-.341c-.958-.246-1.716-.619-2.272-1.119-.553-.504-.83-1.173-.83-2.006 0-.685.186-1.286.557-1.801.375-.515.884-.915 1.528-1.199.644-.288 1.373-.432 2.188-.432.826 0 1.549.144 2.17.432.625.284 1.116.68 1.472 1.188.356.503.54 1.083.551 1.738h-2.028Zm6.487 8.614a3.647 3.647 0 0 1-1.495-.296 2.437 2.437 0 0 1-1.045-.886c-.254-.39-.381-.871-.381-1.443 0-.492.091-.9.273-1.222a2.11 2.11 0 0 1 .744-.772 3.756 3.756 0 0 1 1.063-.438 8.628 8.628 0 0 1 1.233-.221c.511-.054.926-.101 1.244-.143.318-.045.549-.113.693-.204.148-.095.222-.241.222-.438v-.034c0-.428-.127-.759-.381-.994s-.619-.352-1.096-.352c-.504 0-.904.11-1.199.329-.292.22-.489.479-.591.779l-1.921-.273a3.08 3.08 0 0 1 .75-1.33 3.275 3.275 0 0 1 1.279-.806 4.884 4.884 0 0 1 1.67-.273c.421 0 .839.049 1.256.148.417.098.797.261 1.142.488.345.224.621.529.83.915.212.386.318.869.318 1.449v5.841h-1.978v-1.199h-.068a2.52 2.52 0 0 1-.528.682 2.539 2.539 0 0 1-.847.505 3.41 3.41 0 0 1-1.187.188Zm.534-1.511c.413 0 .771-.082 1.074-.245a1.8 1.8 0 0 0 .699-.659c.166-.273.25-.57.25-.892v-1.028a.972.972 0 0 1-.33.147 4.502 4.502 0 0 1-.511.12c-.19.034-.377.064-.563.091l-.483.068c-.307.042-.581.11-.824.204a1.384 1.384 0 0 0-.574.398c-.14.167-.21.383-.21.648 0 .379.139.665.415.858.277.193.629.29 1.057.29Zm8.199-10.302v11.637h-2.057V126.05h2.057Zm2.115 11.637v-8.727h2.057v8.727h-2.057Zm1.034-9.966a1.2 1.2 0 0 1-.841-.324 1.044 1.044 0 0 1-.352-.79c0-.31.117-.574.352-.79.235-.219.515-.329.841-.329.329 0 .61.11.841.329.235.216.352.48.352.79 0 .307-.117.57-.352.79a1.188 1.188 0 0 1-.841.324Zm6.376 10.119a3.307 3.307 0 0 1-1.841-.528c-.541-.352-.969-.864-1.284-1.534-.314-.671-.471-1.485-.471-2.443 0-.97.159-1.788.477-2.455.322-.67.756-1.176 1.301-1.517a3.342 3.342 0 0 1 1.824-.517c.511 0 .932.087 1.261.261.33.171.591.377.784.62.194.238.343.464.449.676h.085v-4.353h2.063v11.637h-2.023v-1.375h-.125a3.513 3.513 0 0 1-.46.676 2.526 2.526 0 0 1-.795.602c-.33.167-.745.25-1.245.25Zm.574-1.687c.436 0 .807-.118 1.114-.353.307-.238.54-.57.699-.994.159-.424.238-.918.238-1.483 0-.564-.079-1.055-.238-1.471-.156-.417-.387-.741-.694-.972-.303-.231-.676-.347-1.119-.347-.458 0-.841.12-1.148.358-.306.239-.537.569-.693.989-.155.42-.233.901-.233 1.443 0 .546.078 1.032.233 1.46.159.425.392.76.699 1.006.311.242.691.364 1.142.364Zm8.777 1.71a3.639 3.639 0 0 1-1.494-.296c-.44-.2-.788-.496-1.046-.886-.253-.39-.38-.871-.38-1.443 0-.492.091-.9.272-1.222.182-.322.43-.579.745-.772a3.738 3.738 0 0 1 1.062-.438 8.628 8.628 0 0 1 1.233-.221c.512-.054.926-.101 1.244-.143.319-.045.55-.113.694-.204.147-.095.221-.241.221-.438v-.034c0-.428-.127-.759-.38-.994-.254-.235-.62-.352-1.097-.352-.504 0-.903.11-1.199.329-.292.22-.489.479-.591.779l-1.92-.273a3.06 3.06 0 0 1 .75-1.33 3.264 3.264 0 0 1 1.278-.806 4.89 4.89 0 0 1 1.671-.273c.42 0 .839.049 1.255.148.417.098.798.261 1.142.488.345.224.622.529.83.915.212.386.318.869.318 1.449v5.841h-1.977v-1.199h-.068c-.125.242-.302.47-.529.682a2.524 2.524 0 0 1-.846.505 3.413 3.413 0 0 1-1.188.188Zm.534-1.511c.413 0 .771-.082 1.074-.245a1.8 1.8 0 0 0 .699-.659c.167-.273.25-.57.25-.892v-1.028a.954.954 0 0 1-.33.147 4.502 4.502 0 0 1-.511.12 17.23 17.23 0 0 1-.562.091l-.483.068a3.64 3.64 0 0 0-.824.204 1.371 1.371 0 0 0-.574.398c-.14.167-.21.383-.21.648 0 .379.138.665.414.858.277.193.629.29 1.057.29Z" fill="#2DCF6E"/><path d="M51.857 99.687v20" stroke="#1723FF" stroke-dasharray="2 2"/><path d="M33.398 133.756a2.636 2.636 0 0 0-.343-.72 2.202 2.202 0 0 0-.517-.552 2.07 2.07 0 0 0-.686-.343c-.259-.08-.54-.12-.846-.12-.546 0-1.034.138-1.461.413-.428.275-.764.679-1.01 1.213-.241.53-.362 1.177-.362 1.939 0 .769.12 1.42.363 1.954.241.533.578.939 1.009 1.218.43.275.931.412 1.501.412.517 0 .965-.099 1.343-.298a2.1 2.1 0 0 0 .88-.845c.205-.368.308-.799.308-1.293l.417.065H31.23v-1.442h4.132v1.223c0 .872-.186 1.626-.557 2.262a3.804 3.804 0 0 1-1.532 1.472c-.65.341-1.395.512-2.237.512-.938 0-1.761-.21-2.47-.631-.707-.425-1.258-1.026-1.656-1.805-.395-.782-.592-1.71-.592-2.784 0-.822.116-1.556.348-2.203a4.767 4.767 0 0 1 .985-1.645 4.186 4.186 0 0 1 1.481-1.034 4.71 4.71 0 0 1 1.85-.358c.563 0 1.088.083 1.576.248.487.163.92.395 1.297.696a3.792 3.792 0 0 1 1.422 2.446h-1.88Zm7.048 7.08c-.765 0-1.427-.159-1.983-.477a3.235 3.235 0 0 1-1.278-1.363c-.298-.59-.448-1.284-.448-2.083 0-.785.15-1.475.448-2.068a3.39 3.39 0 0 1 1.263-1.392c.54-.335 1.175-.502 1.904-.502.47 0 .915.076 1.332.229.421.149.792.381 1.114.696.325.315.58.716.765 1.203.186.484.279 1.06.279 1.73v.552h-6.26v-1.213h4.535a1.935 1.935 0 0 0-.224-.92 1.62 1.62 0 0 0-.611-.641 1.717 1.717 0 0 0-.905-.234c-.368 0-.691.089-.97.268a1.855 1.855 0 0 0-.651.696c-.153.286-.23.599-.234.94v1.059c0 .444.081.825.244 1.144.162.314.39.556.681.725.292.166.633.249 1.024.249.262 0 .499-.037.711-.109.212-.077.396-.188.552-.334.156-.145.273-.326.353-.541l1.68.189a2.622 2.622 0 0 1-.606 1.163 2.955 2.955 0 0 1-1.134.765c-.46.179-.988.269-1.58.269Zm10.954-5.767-1.64.179a1.308 1.308 0 0 0-.244-.467 1.204 1.204 0 0 0-.458-.353 1.658 1.658 0 0 0-.706-.135c-.374 0-.69.082-.944.244-.252.162-.376.373-.373.631a.66.66 0 0 0 .244.542c.168.139.447.254.835.343l1.302.279c.723.155 1.26.402 1.611.74.355.339.534.781.537 1.328-.003.48-.144.905-.423 1.273-.275.364-.657.649-1.148.855-.49.205-1.054.308-1.69.308-.935 0-1.687-.196-2.258-.587-.57-.394-.91-.943-1.019-1.645l1.755-.169c.08.344.249.605.507.78.259.176.595.264 1.01.264.427 0 .77-.088 1.029-.264.262-.175.392-.393.392-.651a.679.679 0 0 0-.253-.542c-.166-.142-.424-.252-.776-.328l-1.302-.274c-.733-.152-1.274-.409-1.626-.77-.351-.365-.525-.825-.522-1.382-.003-.471.124-.879.383-1.223.262-.348.625-.617 1.089-.806.467-.192 1.006-.288 1.615-.288.895 0 1.6.191 2.113.572.518.381.837.896.96 1.546Zm5.461-2.019v1.392h-4.39v-1.392h4.39Zm-3.306-1.829h1.8v7.169c0 .242.036.427.11.557a.587.587 0 0 0 .297.258c.123.047.259.07.408.07.113 0 .216-.008.308-.025.096-.017.17-.031.22-.045l.302 1.407a3.396 3.396 0 0 1-1.059.179 2.925 2.925 0 0 1-1.218-.204 1.888 1.888 0 0 1-.86-.706c-.209-.318-.311-.716-.308-1.193v-7.467Zm4.811 9.466v-7.637h1.8v7.637h-1.8Zm.905-8.72a1.05 1.05 0 0 1-.736-.284.912.912 0 0 1-.308-.691c0-.272.103-.502.308-.691a1.04 1.04 0 0 1 .736-.288c.288 0 .534.096.736.288a.903.903 0 0 1 .308.691.912.912 0 0 1-.308.691 1.039 1.039 0 0 1-.736.284Zm6.077 8.869c-.746 0-1.392-.164-1.94-.492a3.34 3.34 0 0 1-1.272-1.377c-.298-.59-.447-1.28-.447-2.069 0-.788.149-1.479.447-2.073a3.336 3.336 0 0 1 1.273-1.382c.547-.328 1.193-.492 1.939-.492s1.392.164 1.939.492c.546.328.97.789 1.267 1.382.302.594.453 1.285.453 2.073 0 .789-.151 1.479-.453 2.069a3.308 3.308 0 0 1-1.267 1.377c-.547.328-1.194.492-1.94.492Zm.01-1.442c.404 0 .742-.111 1.014-.333.272-.225.474-.527.606-.905.136-.378.204-.799.204-1.263 0-.467-.068-.889-.204-1.267a2.006 2.006 0 0 0-.606-.91c-.272-.225-.61-.338-1.014-.338-.415 0-.76.113-1.034.338a2.04 2.04 0 0 0-.612.91c-.133.378-.199.8-.199 1.267 0 .464.067.885.2 1.263.135.378.339.68.61.905.276.222.62.333 1.035.333Zm-.701-7.348 1.113-2.272h1.76l-1.526 2.272h-1.347Zm7.677 4.166v4.475h-1.8v-7.637h1.72v1.298h.09a2.18 2.18 0 0 1 .84-1.019c.388-.252.867-.378 1.437-.378.527 0 .986.113 1.377.338.394.225.7.552.915.979.219.428.326.947.323 1.557v4.862h-1.8v-4.584c0-.51-.132-.91-.397-1.198-.262-.289-.625-.433-1.09-.433-.314 0-.594.07-.84.209a1.447 1.447 0 0 0-.571.592c-.136.258-.204.571-.204.939ZM11.25 151.596c0 1.097-.206 2.037-.617 2.819-.407.779-.964 1.375-1.67 1.79-.703.414-1.5.621-2.391.621-.892 0-1.69-.207-2.397-.621-.702-.418-1.26-1.016-1.67-1.795-.408-.782-.612-1.72-.612-2.814 0-1.097.204-2.035.612-2.814.41-.782.968-1.38 1.67-1.795.706-.414 1.505-.621 2.397-.621.891 0 1.688.207 2.391.621.706.415 1.263 1.013 1.67 1.795.412.779.617 1.717.617 2.814Zm-1.854 0c0-.772-.121-1.424-.363-1.954-.239-.534-.57-.936-.995-1.208a2.636 2.636 0 0 0-1.466-.413c-.554 0-1.043.138-1.467.413-.424.272-.757.674-1 1.208-.238.53-.357 1.182-.357 1.954s.12 1.425.358 1.959c.242.53.575.933 1 1.208.423.272.912.407 1.466.407.553 0 1.042-.135 1.466-.407.425-.275.756-.678.995-1.208.242-.534.363-1.187.363-1.959Zm3.518 5.091v-7.637h1.745v1.273h.08c.139-.441.378-.78.716-1.019a1.97 1.97 0 0 1 1.168-.363c.1 0 .21.005.333.015.126.007.23.018.313.035v1.655a1.954 1.954 0 0 0-.363-.069 3.37 3.37 0 0 0-.472-.035c-.328 0-.623.071-.885.214a1.565 1.565 0 0 0-.611.581c-.15.249-.224.536-.224.86v4.49h-1.8Zm8.558 3.023c-.647 0-1.202-.088-1.666-.264-.464-.172-.837-.404-1.119-.696a2.415 2.415 0 0 1-.586-.969l1.62-.393c.073.149.18.296.319.442.139.149.326.272.562.368.238.1.538.149.9.149.51 0 .932-.124 1.267-.373.335-.245.502-.649.502-1.213v-1.446h-.09a2.553 2.553 0 0 1-.407.571c-.175.196-.41.36-.7.493-.29.132-.652.198-1.09.198a3.138 3.138 0 0 1-1.596-.412c-.474-.279-.851-.693-1.133-1.243-.278-.554-.418-1.246-.418-2.078 0-.839.14-1.546.418-2.123.282-.58.661-1.019 1.138-1.318a2.93 2.93 0 0 1 1.596-.452c.448 0 .816.076 1.104.229.292.149.524.329.696.542.172.208.303.406.393.591h.1v-1.263h1.774v7.761c0 .653-.156 1.193-.467 1.621-.312.427-.738.747-1.278.959-.54.212-1.153.319-1.84.319Zm.014-4.545c.382 0 .706-.092.975-.278.268-.186.472-.452.611-.8.14-.348.21-.766.21-1.253 0-.481-.07-.902-.21-1.263a1.804 1.804 0 0 0-.606-.84c-.265-.202-.592-.303-.98-.303-.4 0-.735.104-1.004.313-.268.209-.47.495-.606.86a3.483 3.483 0 0 0-.204 1.233c0 .467.068.876.204 1.228.139.348.343.62.611.815.272.192.605.288 1 .288Zm7.612 1.676c-.484 0-.92-.086-1.307-.259a2.13 2.13 0 0 1-.915-.775c-.222-.342-.333-.762-.333-1.263 0-.431.08-.787.238-1.069.16-.282.376-.507.652-.676.275-.169.584-.297.93-.383a7.662 7.662 0 0 1 1.078-.194c.448-.046.81-.088 1.089-.124.278-.04.48-.099.606-.179.13-.083.194-.21.194-.383v-.03c0-.374-.11-.664-.333-.87-.222-.205-.542-.308-.96-.308-.44 0-.79.096-1.048.288-.256.193-.428.42-.517.682l-1.68-.239c.132-.464.35-.852.655-1.163a2.844 2.844 0 0 1 1.119-.706c.44-.159.928-.239 1.462-.239.368 0 .734.043 1.098.129.365.086.698.229 1 .428.301.195.543.462.726.8.185.338.278.761.278 1.268v5.111H31.4v-1.049h-.06a2.188 2.188 0 0 1-1.203 1.039 2.995 2.995 0 0 1-1.039.164Zm.467-1.323c.362 0 .675-.071.94-.213a1.58 1.58 0 0 0 .611-.577c.146-.239.22-.499.22-.781v-.899a.86.86 0 0 1-.29.129c-.132.04-.28.074-.447.104-.165.03-.33.057-.492.08l-.422.059a3.217 3.217 0 0 0-.721.179 1.2 1.2 0 0 0-.502.348c-.123.146-.184.335-.184.567 0 .332.12.582.363.751.242.169.55.253.924.253Zm7.174-3.306v4.475h-1.8v-7.637h1.72v1.298h.09a2.18 2.18 0 0 1 .84-1.019c.388-.252.867-.378 1.437-.378.527 0 .986.113 1.377.338.395.225.7.552.915.979.219.428.327.947.323 1.557v4.862h-1.8v-4.584c0-.51-.132-.91-.397-1.198-.262-.289-.625-.433-1.089-.433-.315 0-.595.07-.84.209a1.446 1.446 0 0 0-.572.592c-.136.258-.204.571-.204.939Zm6.732 4.475v-7.637h1.8v7.637h-1.8Zm.905-8.72a1.05 1.05 0 0 1-.736-.284.912.912 0 0 1-.308-.691c0-.272.102-.502.308-.691a1.04 1.04 0 0 1 .736-.288c.288 0 .533.096.736.288a.903.903 0 0 1 .308.691.912.912 0 0 1-.309.691 1.039 1.039 0 0 1-.735.284Zm2.646 8.72v-1.144l3.937-4.936v-.065h-3.808v-1.492h6.01v1.228l-3.748 4.853v.064h3.878v1.492h-6.27Zm10.158.154c-.484 0-.92-.086-1.307-.259a2.13 2.13 0 0 1-.915-.775c-.222-.342-.333-.762-.333-1.263 0-.431.08-.787.238-1.069.16-.282.376-.507.651-.676.276-.169.585-.297.93-.383a7.66 7.66 0 0 1 1.08-.194c.447-.046.81-.088 1.088-.124.278-.04.48-.099.606-.179.13-.083.194-.21.194-.383v-.03c0-.374-.11-.664-.333-.87-.222-.205-.542-.308-.96-.308-.44 0-.79.096-1.048.288-.256.193-.428.42-.517.682l-1.68-.239c.132-.464.35-.852.655-1.163a2.844 2.844 0 0 1 1.12-.706c.44-.159.927-.239 1.46-.239.369 0 .735.043 1.1.129.364.086.697.229.999.428.301.195.543.462.726.8.185.338.278.761.278 1.268v5.111h-1.73v-1.049h-.06a2.19 2.19 0 0 1-1.203 1.039 2.995 2.995 0 0 1-1.039.164Zm.467-1.323c.362 0 .675-.071.94-.213a1.58 1.58 0 0 0 .611-.577c.146-.239.22-.499.22-.781v-.899a.859.859 0 0 1-.29.129 4.07 4.07 0 0 1-.447.104c-.165.03-.33.057-.492.08l-.422.059a3.216 3.216 0 0 0-.721.179 1.2 1.2 0 0 0-.502.348c-.123.146-.184.335-.184.567 0 .332.12.582.363.751.242.169.55.253.924.253Zm8.706 1.318c-.763 0-1.417-.167-1.964-.502a3.355 3.355 0 0 1-1.258-1.387c-.292-.594-.438-1.276-.438-2.049 0-.775.15-1.46.448-2.053.298-.596.72-1.06 1.263-1.392.547-.335 1.193-.502 1.939-.502.62 0 1.168.114 1.645.343.48.225.864.545 1.149.96.285.411.447.891.487 1.441h-1.72a1.641 1.641 0 0 0-.497-.919c-.259-.249-.605-.373-1.04-.373-.367 0-.69.099-.969.298-.278.196-.495.477-.651.845-.153.368-.229.809-.229 1.323 0 .52.076.967.229 1.342.152.371.366.658.641.86.278.199.605.298.98.298.265 0 .502-.049.71-.149.213-.103.39-.25.532-.442.143-.193.24-.426.294-.701h1.72a3.002 3.002 0 0 1-.477 1.437c-.276.414-.65.739-1.124.974-.474.232-1.03.348-1.67.348Zm4.749-.149v-7.637h1.8v7.637h-1.8Zm.904-8.72a1.05 1.05 0 0 1-.735-.284.912.912 0 0 1-.308-.691c0-.272.102-.502.308-.691a1.04 1.04 0 0 1 .736-.288c.288 0 .533.096.735.288a.903.903 0 0 1 .309.691.912.912 0 0 1-.309.691 1.039 1.039 0 0 1-.736.284Zm6.077 8.869c-.746 0-1.392-.164-1.939-.492a3.34 3.34 0 0 1-1.273-1.377c-.298-.59-.447-1.28-.447-2.069 0-.788.15-1.479.447-2.073a3.336 3.336 0 0 1 1.273-1.382c.547-.328 1.193-.492 1.94-.492.745 0 1.391.164 1.938.492.547.328.97.789 1.268 1.382.301.594.452 1.285.452 2.073 0 .789-.15 1.479-.452 2.069a3.308 3.308 0 0 1-1.268 1.377c-.547.328-1.193.492-1.939.492Zm.01-1.442c.404 0 .742-.111 1.014-.333.272-.225.474-.527.607-.905.136-.378.204-.799.204-1.263 0-.467-.068-.889-.204-1.267a2.006 2.006 0 0 0-.607-.91c-.272-.225-.61-.338-1.014-.338-.414 0-.759.113-1.034.338a2.04 2.04 0 0 0-.612.91c-.132.378-.198.8-.198 1.267 0 .464.066.885.198 1.263.136.378.34.68.612.905.275.222.62.333 1.034.333Zm6.976-3.182v4.475h-1.8v-7.637h1.72v1.298h.09c.176-.428.456-.767.84-1.019.388-.252.867-.378 1.437-.378.527 0 .986.113 1.378.338.394.225.699.552.914.979.219.428.327.947.323 1.557v4.862h-1.8v-4.584c0-.51-.132-.91-.397-1.198-.262-.289-.625-.433-1.089-.433-.315 0-.595.07-.84.209a1.446 1.446 0 0 0-.572.592c-.136.258-.204.571-.204.939Zm8.93 4.629c-.484 0-.92-.086-1.308-.259a2.13 2.13 0 0 1-.915-.775c-.222-.342-.333-.762-.333-1.263 0-.431.08-.787.239-1.069.159-.282.376-.507.65-.676.276-.169.586-.297.93-.383a7.662 7.662 0 0 1 1.08-.194c.447-.046.81-.088 1.088-.124.279-.04.48-.099.607-.179.129-.083.194-.21.194-.383v-.03c0-.374-.111-.664-.334-.87-.222-.205-.541-.308-.959-.308-.44 0-.79.096-1.049.288-.255.193-.428.42-.517.682l-1.68-.239c.132-.464.35-.852.656-1.163a2.844 2.844 0 0 1 1.118-.706c.441-.159.928-.239 1.462-.239.368 0 .734.043 1.099.129.364.086.698.229 1 .428.3.195.543.462.725.8.186.338.278.761.278 1.268v5.111H96.3v-1.049h-.06a2.188 2.188 0 0 1-1.203 1.039 2.994 2.994 0 0 1-1.039.164Zm.467-1.323c.361 0 .674-.071.94-.213a1.58 1.58 0 0 0 .61-.577 1.47 1.47 0 0 0 .22-.781v-.899a.86.86 0 0 1-.289.129c-.132.04-.282.074-.447.104-.166.03-.33.057-.492.08l-.423.059a3.219 3.219 0 0 0-.72.179 1.2 1.2 0 0 0-.503.348c-.123.146-.184.335-.184.567 0 .332.121.582.363.751.242.169.55.253.925.253Zm7.174-9.013v10.182h-1.8v-10.182h1.8Z" fill="#1723FF"/></svg>