<svg width="957" height="160" viewBox="0 0 957 160" fill="none" xmlns="http://www.w3.org/2000/svg">
<path d="M932.901 99.9514C928.8 99.9514 925.468 96.6191 925.468 92.5238C925.468 88.4286 928.805 85.0962 932.901 85.0962C937.001 85.0962 940.338 88.4286 940.338 92.5238C940.338 96.6235 937.006 99.9514 932.901 99.9514ZM932.901 86.9948C929.85 86.9948 927.365 89.4765 927.365 92.5238C927.365 95.5711 929.85 98.0528 932.901 98.0528C935.952 98.0528 938.437 95.5711 938.437 92.5238C938.441 89.4765 935.956 86.9948 932.901 86.9948Z" fill="#2DCF6E"/>
<path d="M161.187 6.89627C153.767 6.89627 146.852 10.8819 143.138 17.301L105.671 82.1192C102.299 87.9508 96.0125 91.5769 89.269 91.5769H59.1471C58.6774 87.9333 55.5822 85.0964 51.8066 85.0964C47.706 85.0964 44.3694 88.4288 44.3694 92.524C44.3694 96.6193 47.706 99.9516 51.8066 99.9516C55.5822 99.9516 58.673 97.1191 59.1471 93.4755H89.269C96.6886 93.4755 103.608 89.4898 107.318 83.0707L144.784 18.2525C148.156 12.4209 154.443 8.79482 161.187 8.79482H192.173V6.89627H161.187ZM51.8109 98.0574C48.7597 98.0574 46.2748 95.5757 46.2748 92.5284C46.2748 89.4811 48.7597 86.9994 51.8109 86.9994C54.8622 86.9994 57.3471 89.4811 57.3471 92.5284C57.3471 95.5757 54.8622 98.0574 51.8109 98.0574Z" fill="#1934EF"/>
<path d="M308.033 91.5811C301.29 91.5811 295.003 87.955 291.631 82.1235L254.164 17.3052C250.454 10.8861 243.535 6.90048 236.116 6.90048H205.994C205.52 3.26122 202.429 0.428741 198.653 0.428741C194.553 0.428741 191.216 3.76108 191.216 7.85633C191.216 11.9516 194.553 15.2839 198.653 15.2839C202.429 15.2839 205.524 12.4471 205.994 8.79903H236.111C242.855 8.79903 249.142 12.4251 252.513 18.2567L289.98 83.0749C293.69 89.494 300.605 93.4797 308.029 93.4797H339.016V91.5811H308.033ZM198.658 13.381C195.606 13.381 193.121 10.8993 193.121 7.85195C193.121 4.80462 195.606 2.32291 198.658 2.32291C201.709 2.32291 204.194 4.80462 204.194 7.85195C204.194 10.8993 201.709 13.381 198.658 13.381Z" fill="#1D53D2"/>
<path d="M454.898 6.89627C447.478 6.89627 440.559 10.8819 436.849 17.301L399.383 82.1192C396.011 87.9508 389.724 91.5769 382.98 91.5769H352.845C352.376 87.9333 349.28 85.0964 345.505 85.0964C341.404 85.0964 338.068 88.4288 338.068 92.524C338.068 96.6193 341.404 99.9516 345.505 99.9516C349.28 99.9516 352.371 97.1191 352.845 93.4755H382.98C390.404 93.4755 397.319 89.4898 401.029 83.0707L438.496 18.2525C441.868 12.4209 448.154 8.79482 454.898 8.79482H485.867V6.89627H454.898ZM345.509 98.0574C342.458 98.0574 339.973 95.5757 339.973 92.5284C339.973 89.4811 342.458 86.9994 345.509 86.9994C348.56 86.9994 351.045 89.4811 351.045 92.5284C351.045 95.5757 348.56 98.0574 345.509 98.0574Z" fill="#2069C4"/>
<path d="M601.746 91.5811C595.002 91.5811 588.715 87.955 585.343 82.1235L547.877 17.3052C544.167 10.8861 537.248 6.90048 529.828 6.90048H499.693C499.219 3.26122 496.128 0.428741 492.352 0.428741C488.252 0.428741 484.915 3.76108 484.915 7.85633C484.915 11.9516 488.252 15.2839 492.352 15.2839C496.128 15.2839 499.223 12.4471 499.693 8.79903H529.828C536.572 8.79903 542.859 12.4251 546.23 18.2567L583.697 83.0749C587.407 89.494 594.322 93.4797 601.746 93.4797H632.715V91.5811H601.746ZM492.357 13.381C489.306 13.381 486.821 10.8993 486.821 7.85195C486.821 4.80462 489.306 2.32291 492.357 2.32291C495.408 2.32291 497.893 4.80462 497.893 7.85195C497.893 10.8993 495.408 13.381 492.357 13.381Z" fill="#279D98"/>
<path d="M748.596 6.89627C741.177 6.89627 734.257 10.8819 730.548 17.301L693.081 82.1192C689.709 87.9508 683.422 91.5769 676.679 91.5769H646.548C646.078 87.9333 642.983 85.0964 639.207 85.0964C635.107 85.0964 631.775 88.4288 631.775 92.524C631.775 96.6193 635.111 99.9516 639.207 99.9516C642.983 99.9516 646.074 97.1191 646.548 93.4755H676.683C684.103 93.4755 691.022 89.4898 694.727 83.0707L732.194 18.2525C735.566 12.4209 741.853 8.79482 748.596 8.79482H779.565V6.89627H748.596ZM639.203 98.0574C636.152 98.0574 633.667 95.5757 633.667 92.5284C633.667 89.4811 636.152 86.9994 639.203 86.9994C642.254 86.9994 644.739 89.4811 644.739 92.5284C644.744 95.5757 642.259 98.0574 639.203 98.0574Z" fill="#2AB981"/>
<path d="M895.438 91.5811C888.691 91.5811 882.408 87.955 879.036 82.1235L841.569 17.3052C837.86 10.8861 830.945 6.90048 823.521 6.90048H793.39C792.916 3.26122 789.825 0.428741 786.05 0.428741C781.949 0.428741 778.613 3.76108 778.613 7.85633C778.613 11.9516 781.949 15.2839 786.05 15.2839C789.83 15.2839 792.921 12.4471 793.39 8.79903H823.521C830.264 8.79903 836.551 12.4251 839.923 18.2567L877.39 83.0749C881.1 89.494 888.014 93.4797 895.438 93.4797H926.408V91.5811H895.438ZM786.054 13.381C783.003 13.381 780.518 10.8993 780.518 7.85195C780.518 4.80462 783.003 2.32291 786.054 2.32291C789.105 2.32291 791.59 4.80462 791.59 7.85195C791.59 10.8993 789.11 13.381 786.054 13.381Z" fill="#2DCF6E"/>
<path d="M932.857 99.6868L932.857 119.687" stroke="#30E35E" stroke-dasharray="2 2"/>
<path d="M916.735 129.249C916.682 128.753 916.458 128.367 916.064 128.09C915.674 127.814 915.166 127.675 914.541 127.675C914.102 127.675 913.725 127.742 913.411 127.874C913.096 128.007 912.856 128.187 912.689 128.414C912.522 128.641 912.437 128.901 912.433 129.192C912.433 129.435 912.488 129.645 912.598 129.823C912.712 130.001 912.865 130.153 913.058 130.278C913.252 130.399 913.466 130.501 913.7 130.585C913.935 130.668 914.172 130.738 914.411 130.795L915.502 131.067C915.941 131.17 916.363 131.308 916.769 131.482C917.178 131.656 917.543 131.876 917.865 132.141C918.191 132.406 918.449 132.727 918.638 133.102C918.827 133.477 918.922 133.916 918.922 134.42C918.922 135.102 918.748 135.702 918.399 136.221C918.051 136.736 917.547 137.139 916.888 137.431C916.233 137.719 915.439 137.863 914.507 137.863C913.602 137.863 912.816 137.723 912.149 137.442C911.486 137.162 910.967 136.753 910.592 136.215C910.221 135.677 910.021 135.022 909.99 134.249H912.064C912.094 134.655 912.219 134.992 912.439 135.261C912.659 135.53 912.945 135.73 913.297 135.863C913.653 135.996 914.051 136.062 914.49 136.062C914.949 136.062 915.35 135.994 915.695 135.857C916.043 135.717 916.316 135.524 916.513 135.278C916.71 135.028 916.81 134.736 916.814 134.403C916.81 134.1 916.721 133.85 916.547 133.653C916.373 133.452 916.128 133.285 915.814 133.153C915.503 133.016 915.14 132.895 914.723 132.789L913.399 132.448C912.441 132.202 911.683 131.829 911.127 131.329C910.574 130.825 910.297 130.156 910.297 129.323C910.297 128.638 910.483 128.037 910.854 127.522C911.229 127.007 911.738 126.607 912.382 126.323C913.026 126.035 913.755 125.891 914.57 125.891C915.396 125.891 916.119 126.035 916.74 126.323C917.365 126.607 917.856 127.003 918.212 127.511C918.568 128.014 918.752 128.594 918.763 129.249H916.735ZM923.222 137.863C922.669 137.863 922.171 137.764 921.727 137.567C921.288 137.367 920.94 137.071 920.682 136.681C920.428 136.291 920.301 135.81 920.301 135.238C920.301 134.746 920.392 134.338 920.574 134.016C920.756 133.694 921.004 133.437 921.318 133.244C921.633 133.05 921.987 132.905 922.381 132.806C922.779 132.704 923.19 132.63 923.614 132.585C924.125 132.531 924.54 132.484 924.858 132.442C925.176 132.397 925.407 132.329 925.551 132.238C925.699 132.143 925.773 131.997 925.773 131.8V131.766C925.773 131.338 925.646 131.007 925.392 130.772C925.138 130.537 924.773 130.42 924.296 130.42C923.792 130.42 923.392 130.53 923.097 130.749C922.805 130.969 922.608 131.228 922.506 131.528L920.585 131.255C920.737 130.725 920.987 130.281 921.335 129.925C921.684 129.566 922.11 129.297 922.614 129.119C923.118 128.937 923.674 128.846 924.284 128.846C924.705 128.846 925.123 128.895 925.54 128.994C925.957 129.092 926.337 129.255 926.682 129.482C927.027 129.706 927.303 130.011 927.512 130.397C927.724 130.783 927.83 131.266 927.83 131.846V137.687H925.852V136.488H925.784C925.659 136.73 925.483 136.958 925.256 137.17C925.032 137.378 924.75 137.547 924.409 137.675C924.072 137.8 923.676 137.863 923.222 137.863ZM923.756 136.352C924.169 136.352 924.527 136.27 924.83 136.107C925.133 135.941 925.366 135.721 925.529 135.448C925.695 135.175 925.779 134.878 925.779 134.556V133.528C925.714 133.581 925.604 133.63 925.449 133.675C925.298 133.721 925.127 133.761 924.938 133.795C924.748 133.829 924.561 133.859 924.375 133.886C924.19 133.912 924.029 133.935 923.892 133.954C923.585 133.996 923.311 134.064 923.068 134.158C922.826 134.253 922.635 134.386 922.494 134.556C922.354 134.723 922.284 134.939 922.284 135.204C922.284 135.583 922.423 135.869 922.699 136.062C922.976 136.255 923.328 136.352 923.756 136.352ZM931.955 126.05V137.687H929.898V126.05H931.955ZM934.07 137.687V128.96H936.127V137.687H934.07ZM935.104 127.721C934.778 127.721 934.498 127.613 934.263 127.397C934.028 127.177 933.911 126.914 933.911 126.607C933.911 126.297 934.028 126.033 934.263 125.817C934.498 125.598 934.778 125.488 935.104 125.488C935.433 125.488 935.714 125.598 935.945 125.817C936.18 126.033 936.297 126.297 936.297 126.607C936.297 126.914 936.18 127.177 935.945 127.397C935.714 127.613 935.433 127.721 935.104 127.721ZM941.48 137.84C940.795 137.84 940.181 137.664 939.639 137.312C939.098 136.96 938.67 136.448 938.355 135.778C938.041 135.107 937.884 134.293 937.884 133.335C937.884 132.365 938.043 131.547 938.361 130.88C938.683 130.21 939.117 129.704 939.662 129.363C940.208 129.018 940.815 128.846 941.486 128.846C941.997 128.846 942.418 128.933 942.747 129.107C943.077 129.278 943.338 129.484 943.531 129.727C943.725 129.965 943.874 130.191 943.98 130.403H944.065V126.05H946.128V137.687H944.105V136.312H943.98C943.874 136.524 943.721 136.749 943.52 136.988C943.319 137.223 943.054 137.424 942.725 137.59C942.395 137.757 941.98 137.84 941.48 137.84ZM942.054 136.153C942.49 136.153 942.861 136.035 943.168 135.8C943.475 135.562 943.708 135.23 943.867 134.806C944.026 134.382 944.105 133.888 944.105 133.323C944.105 132.759 944.026 132.268 943.867 131.852C943.711 131.435 943.48 131.111 943.173 130.88C942.87 130.649 942.497 130.533 942.054 130.533C941.596 130.533 941.213 130.653 940.906 130.891C940.6 131.13 940.369 131.46 940.213 131.88C940.058 132.3 939.98 132.781 939.98 133.323C939.98 133.869 940.058 134.355 940.213 134.783C940.372 135.208 940.605 135.543 940.912 135.789C941.223 136.031 941.603 136.153 942.054 136.153ZM950.831 137.863C950.278 137.863 949.78 137.764 949.337 137.567C948.897 137.367 948.549 137.071 948.291 136.681C948.038 136.291 947.911 135.81 947.911 135.238C947.911 134.746 948.002 134.338 948.183 134.016C948.365 133.694 948.613 133.437 948.928 133.244C949.242 133.05 949.596 132.905 949.99 132.806C950.388 132.704 950.799 132.63 951.223 132.585C951.735 132.531 952.149 132.484 952.467 132.442C952.786 132.397 953.017 132.329 953.161 132.238C953.308 132.143 953.382 131.997 953.382 131.8V131.766C953.382 131.338 953.255 131.007 953.002 130.772C952.748 130.537 952.382 130.42 951.905 130.42C951.401 130.42 951.002 130.53 950.706 130.749C950.414 130.969 950.217 131.228 950.115 131.528L948.195 131.255C948.346 130.725 948.596 130.281 948.945 129.925C949.293 129.566 949.719 129.297 950.223 129.119C950.727 128.937 951.284 128.846 951.894 128.846C952.314 128.846 952.733 128.895 953.149 128.994C953.566 129.092 953.947 129.255 954.291 129.482C954.636 129.706 954.913 130.011 955.121 130.397C955.333 130.783 955.439 131.266 955.439 131.846V137.687H953.462V136.488H953.394C953.269 136.73 953.092 136.958 952.865 137.17C952.642 137.378 952.36 137.547 952.019 137.675C951.682 137.8 951.286 137.863 950.831 137.863ZM951.365 136.352C951.778 136.352 952.136 136.27 952.439 136.107C952.742 135.941 952.975 135.721 953.138 135.448C953.305 135.175 953.388 134.878 953.388 134.556V133.528C953.324 133.581 953.214 133.63 953.058 133.675C952.907 133.721 952.736 133.761 952.547 133.795C952.358 133.829 952.17 133.859 951.985 133.886C951.799 133.912 951.638 133.935 951.502 133.954C951.195 133.996 950.92 134.064 950.678 134.158C950.435 134.253 950.244 134.386 950.104 134.556C949.964 134.723 949.894 134.939 949.894 135.204C949.894 135.583 950.032 135.869 950.308 136.062C950.585 136.255 950.937 136.352 951.365 136.352Z" fill="#2DCF6E"/>
<path d="M51.8567 99.6868V119.687" stroke="#1723FF" stroke-dasharray="2 2"/>
<path d="M33.3978 133.756C33.3149 133.488 33.2006 133.248 33.0548 133.036C32.9122 132.82 32.7399 132.636 32.5377 132.484C32.3388 132.331 32.1102 132.217 31.8516 132.141C31.5931 132.061 31.3114 132.021 31.0065 132.021C30.4596 132.021 29.9724 132.159 29.5448 132.434C29.1173 132.709 28.7808 133.113 28.5356 133.647C28.2936 134.177 28.1727 134.824 28.1727 135.586C28.1727 136.355 28.2936 137.006 28.5356 137.54C28.7775 138.073 29.1139 138.479 29.5448 138.758C29.9757 139.033 30.4762 139.17 31.0462 139.17C31.5633 139.17 32.0107 139.071 32.3886 138.872C32.7697 138.673 33.063 138.392 33.2685 138.027C33.474 137.659 33.5768 137.228 33.5768 136.734L33.9944 136.799H31.2302V135.357H35.3616V136.58C35.3616 137.452 35.176 138.206 34.8048 138.842C34.4335 139.479 33.9231 139.969 33.2735 140.314C32.6239 140.655 31.8781 140.826 31.0363 140.826C30.0983 140.826 29.2747 140.616 28.5654 140.195C27.8594 139.77 27.3076 139.169 26.9099 138.39C26.5155 137.608 26.3182 136.68 26.3182 135.606C26.3182 134.784 26.4343 134.05 26.6663 133.403C26.9016 132.757 27.2297 132.209 27.6506 131.758C28.0716 131.304 28.5654 130.959 29.1322 130.724C29.6989 130.485 30.3154 130.366 30.9816 130.366C31.545 130.366 32.0704 130.449 32.5576 130.614C33.0448 130.777 33.4773 131.009 33.8552 131.31C34.2363 131.612 34.5495 131.97 34.7948 132.384C35.0401 132.799 35.2008 133.256 35.2771 133.756H33.3978ZM40.4463 140.836C39.6806 140.836 39.0194 140.677 38.4626 140.359C37.9091 140.037 37.4832 139.583 37.1849 138.996C36.8866 138.406 36.7375 137.712 36.7375 136.913C36.7375 136.128 36.8866 135.438 37.1849 134.845C37.4865 134.249 37.9074 133.785 38.4477 133.453C38.9879 133.118 39.6226 132.951 40.3518 132.951C40.8225 132.951 41.2666 133.027 41.6842 133.18C42.1051 133.329 42.4763 133.561 42.7978 133.876C43.1226 134.191 43.3778 134.592 43.5635 135.079C43.7491 135.563 43.8419 136.139 43.8419 136.809V137.361H37.5826V136.148H42.1167C42.1134 135.803 42.0388 135.496 41.893 135.228C41.7472 134.956 41.5433 134.742 41.2815 134.587C41.023 134.431 40.7214 134.353 40.3767 134.353C40.0088 134.353 39.6856 134.442 39.4072 134.621C39.1288 134.797 38.9117 135.029 38.7559 135.317C38.6035 135.603 38.5256 135.916 38.5223 136.257V137.316C38.5223 137.76 38.6035 138.141 38.7659 138.46C38.9283 138.774 39.1553 139.016 39.447 139.185C39.7386 139.351 40.08 139.434 40.4711 139.434C40.733 139.434 40.9699 139.397 41.1821 139.325C41.3942 139.248 41.5781 139.137 41.7339 138.991C41.8897 138.846 42.0073 138.665 42.0869 138.45L43.7673 138.639C43.6612 139.083 43.4591 139.47 43.1608 139.802C42.8658 140.13 42.4879 140.385 42.0272 140.567C41.5665 140.746 41.0395 140.836 40.4463 140.836ZM51.3999 135.069L49.7593 135.248C49.7129 135.082 49.6317 134.926 49.5157 134.781C49.403 134.635 49.2505 134.517 49.0583 134.428C48.8661 134.338 48.6307 134.293 48.3523 134.293C47.9778 134.293 47.6629 134.375 47.4077 134.537C47.1558 134.699 47.0316 134.91 47.0349 135.168C47.0316 135.39 47.1128 135.571 47.2785 135.71C47.4475 135.849 47.7259 135.964 48.1137 136.053L49.4163 136.332C50.1388 136.487 50.6757 136.734 51.0271 137.072C51.3817 137.411 51.5607 137.853 51.564 138.4C51.5607 138.88 51.4198 139.305 51.1414 139.673C50.8663 140.037 50.4835 140.322 49.993 140.528C49.5024 140.733 48.939 140.836 48.3026 140.836C47.368 140.836 46.6156 140.64 46.0455 140.249C45.4754 139.855 45.1357 139.306 45.0263 138.604L46.7813 138.435C46.8609 138.779 47.0299 139.04 47.2884 139.215C47.5469 139.391 47.8834 139.479 48.2977 139.479C48.7252 139.479 49.0682 139.391 49.3268 139.215C49.5886 139.04 49.7195 138.822 49.7195 138.564C49.7195 138.345 49.635 138.165 49.466 138.022C49.3003 137.88 49.0417 137.77 48.6904 137.694L47.3879 137.42C46.6554 137.268 46.1135 137.011 45.7621 136.65C45.4108 136.285 45.2368 135.825 45.2401 135.268C45.2368 134.797 45.3644 134.389 45.6229 134.045C45.8848 133.697 46.2477 133.428 46.7117 133.239C47.179 133.047 47.7176 132.951 48.3275 132.951C49.2224 132.951 49.9267 133.142 50.4404 133.523C50.9575 133.904 51.2773 134.419 51.3999 135.069ZM56.8612 133.05V134.442H52.4713V133.05H56.8612ZM53.5551 131.221H55.3548V138.39C55.3548 138.632 55.3913 138.817 55.4642 138.947C55.5404 139.073 55.6399 139.159 55.7625 139.205C55.8851 139.252 56.021 139.275 56.1702 139.275C56.2829 139.275 56.3856 139.267 56.4784 139.25C56.5745 139.233 56.6474 139.219 56.6972 139.205L57.0004 140.612C56.9043 140.645 56.7668 140.682 56.5878 140.722C56.4121 140.761 56.1967 140.785 55.9415 140.791C55.4907 140.804 55.0847 140.737 54.7234 140.587C54.3622 140.435 54.0755 140.2 53.8633 139.881C53.6545 139.563 53.5518 139.165 53.5551 138.688V131.221ZM58.3664 140.687V133.05H60.1661V140.687H58.3664ZM59.2712 131.967C58.9862 131.967 58.7409 131.872 58.5354 131.683C58.3299 131.491 58.2272 131.261 58.2272 130.992C58.2272 130.72 58.3299 130.49 58.5354 130.301C58.7409 130.109 58.9862 130.013 59.2712 130.013C59.5595 130.013 59.8048 130.109 60.007 130.301C60.2125 130.49 60.3152 130.72 60.3152 130.992C60.3152 131.261 60.2125 131.491 60.007 131.683C59.8048 131.872 59.5595 131.967 59.2712 131.967ZM65.3477 140.836C64.602 140.836 63.9557 140.672 63.4088 140.344C62.8619 140.016 62.4377 139.557 62.1361 138.967C61.8378 138.377 61.6886 137.687 61.6886 136.898C61.6886 136.11 61.8378 135.419 62.1361 134.825C62.4377 134.232 62.8619 133.771 63.4088 133.443C63.9557 133.115 64.602 132.951 65.3477 132.951C66.0935 132.951 66.7398 133.115 67.2866 133.443C67.8335 133.771 68.2561 134.232 68.5544 134.825C68.856 135.419 69.0068 136.11 69.0068 136.898C69.0068 137.687 68.856 138.377 68.5544 138.967C68.2561 139.557 67.8335 140.016 67.2866 140.344C66.7398 140.672 66.0935 140.836 65.3477 140.836ZM65.3577 139.394C65.762 139.394 66.1001 139.283 66.3719 139.061C66.6437 138.836 66.8458 138.534 66.9784 138.156C67.1143 137.778 67.1822 137.357 67.1822 136.893C67.1822 136.426 67.1143 136.004 66.9784 135.626C66.8458 135.245 66.6437 134.941 66.3719 134.716C66.1001 134.491 65.762 134.378 65.3577 134.378C64.9434 134.378 64.5987 134.491 64.3236 134.716C64.0518 134.941 63.848 135.245 63.7121 135.626C63.5795 136.004 63.5132 136.426 63.5132 136.893C63.5132 137.357 63.5795 137.778 63.7121 138.156C63.848 138.534 64.0518 138.836 64.3236 139.061C64.5987 139.283 64.9434 139.394 65.3577 139.394ZM64.6567 132.046L65.7703 129.774H67.5303L66.004 132.046H64.6567ZM72.3341 136.212V140.687H70.5343V133.05H72.2545V134.348H72.344C72.5197 133.92 72.7997 133.581 73.1842 133.329C73.572 133.077 74.0509 132.951 74.621 132.951C75.148 132.951 75.607 133.064 75.9981 133.289C76.3925 133.514 76.6975 133.841 76.9129 134.268C77.1316 134.696 77.2394 135.215 77.236 135.825V140.687H75.4363V136.103C75.4363 135.593 75.3037 135.193 75.0386 134.905C74.7768 134.616 74.4138 134.472 73.9498 134.472C73.635 134.472 73.3549 134.542 73.1096 134.681C72.8677 134.817 72.6771 135.014 72.5379 135.273C72.402 135.531 72.3341 135.844 72.3341 136.212ZM11.25 151.596C11.25 152.693 11.0445 153.633 10.6335 154.415C10.2258 155.194 9.66901 155.79 8.96305 156.205C8.26039 156.619 7.46328 156.826 6.57171 156.826C5.68014 156.826 4.88137 156.619 4.1754 156.205C3.47275 155.787 2.91593 155.189 2.50495 154.41C2.09728 153.628 1.89344 152.69 1.89344 151.596C1.89344 150.499 2.09728 149.561 2.50495 148.782C2.91593 148 3.47275 147.402 4.1754 146.987C4.88137 146.573 5.68014 146.366 6.57171 146.366C7.46328 146.366 8.26039 146.573 8.96305 146.987C9.66901 147.402 10.2258 148 10.6335 148.782C11.0445 149.561 11.25 150.499 11.25 151.596ZM9.39557 151.596C9.39557 150.824 9.2746 150.172 9.03265 149.642C8.79401 149.108 8.46257 148.706 8.03833 148.434C7.61409 148.159 7.12521 148.021 6.57171 148.021C6.01821 148.021 5.52933 148.159 5.10509 148.434C4.68085 148.706 4.34775 149.108 4.1058 149.642C3.86717 150.172 3.74785 150.824 3.74785 151.596C3.74785 152.368 3.86717 153.021 4.1058 153.555C4.34775 154.085 4.68085 154.488 5.10509 154.763C5.52933 155.035 6.01821 155.17 6.57171 155.17C7.12521 155.17 7.61409 155.035 8.03833 154.763C8.46257 154.488 8.79401 154.085 9.03265 153.555C9.2746 153.021 9.39557 152.368 9.39557 151.596ZM12.9142 156.687V149.05H14.6592V150.323H14.7388C14.878 149.882 15.1166 149.543 15.4547 149.304C15.7961 149.062 16.1855 148.941 16.623 148.941C16.7225 148.941 16.8335 148.946 16.9561 148.956C17.0821 148.963 17.1865 148.974 17.2693 148.991V150.646C17.1931 150.62 17.0721 150.597 16.9064 150.577C16.744 150.554 16.5866 150.542 16.4341 150.542C16.106 150.542 15.811 150.613 15.5492 150.756C15.2906 150.895 15.0868 151.089 14.9377 151.337C14.7885 151.586 14.7139 151.873 14.7139 152.197V156.687H12.9142ZM21.4716 159.71C20.8253 159.71 20.2701 159.622 19.8061 159.446C19.3421 159.274 18.9692 159.042 18.6875 158.75C18.4058 158.458 18.2102 158.135 18.1008 157.781L19.7216 157.388C19.7945 157.537 19.9005 157.684 20.0398 157.83C20.179 157.979 20.3662 158.102 20.6015 158.198C20.8402 158.298 21.1401 158.347 21.5014 158.347C22.0118 158.347 22.4344 158.223 22.7692 157.974C23.1039 157.729 23.2713 157.325 23.2713 156.761V155.315H23.1818C23.089 155.5 22.9531 155.691 22.7741 155.886C22.5985 156.082 22.3648 156.246 22.0731 156.379C21.7848 156.511 21.4219 156.577 20.9844 156.577C20.3977 156.577 19.8657 156.44 19.3885 156.165C18.9145 155.886 18.5367 155.472 18.2549 154.922C17.9765 154.368 17.8373 153.676 17.8373 152.844C17.8373 152.005 17.9765 151.298 18.2549 150.721C18.5367 150.141 18.9162 149.702 19.3934 149.403C19.8707 149.102 20.4027 148.951 20.9893 148.951C21.4368 148.951 21.8047 149.027 22.093 149.18C22.3847 149.329 22.6167 149.509 22.789 149.722C22.9614 149.93 23.0923 150.128 23.1818 150.313H23.2812V149.05H25.0561V156.811C25.0561 157.464 24.9003 158.004 24.5888 158.432C24.2772 158.859 23.8513 159.179 23.3111 159.391C22.7708 159.603 22.1576 159.71 21.4716 159.71ZM21.4865 155.165C21.8676 155.165 22.1924 155.073 22.4609 154.887C22.7294 154.701 22.9332 154.435 23.0724 154.087C23.2116 153.739 23.2812 153.321 23.2812 152.834C23.2812 152.353 23.2116 151.932 23.0724 151.571C22.9365 151.21 22.7344 150.93 22.4659 150.731C22.2007 150.529 21.8743 150.428 21.4865 150.428C21.0854 150.428 20.7507 150.532 20.4822 150.741C20.2138 150.95 20.0116 151.236 19.8757 151.601C19.7398 151.962 19.6719 152.373 19.6719 152.834C19.6719 153.301 19.7398 153.71 19.8757 154.062C20.0149 154.41 20.2187 154.682 20.4872 154.877C20.759 155.069 21.0921 155.165 21.4865 155.165ZM29.098 156.841C28.6141 156.841 28.1782 156.755 27.7905 156.582C27.406 156.407 27.1011 156.148 26.8757 155.807C26.6536 155.465 26.5426 155.045 26.5426 154.544C26.5426 154.113 26.6221 153.757 26.7812 153.475C26.9403 153.193 27.1574 152.968 27.4325 152.799C27.7076 152.63 28.0175 152.502 28.3622 152.416C28.7102 152.327 29.0698 152.262 29.441 152.222C29.8885 152.176 30.2514 152.134 30.5298 152.098C30.8082 152.058 31.0104 151.999 31.1363 151.919C31.2656 151.836 31.3302 151.709 31.3302 151.536V151.506C31.3302 151.132 31.2192 150.842 30.9971 150.636C30.7751 150.431 30.4552 150.328 30.0376 150.328C29.5968 150.328 29.2471 150.424 28.9886 150.616C28.7334 150.809 28.5611 151.036 28.4716 151.298L26.7912 151.059C26.9237 150.595 27.1425 150.207 27.4474 149.896C27.7523 149.581 28.1252 149.345 28.566 149.19C29.0068 149.031 29.4941 148.951 30.0277 148.951C30.3956 148.951 30.7618 148.994 31.1264 149.08C31.491 149.166 31.8241 149.309 32.1257 149.508C32.4273 149.703 32.6692 149.97 32.8515 150.308C33.0371 150.646 33.1299 151.069 33.1299 151.576V156.687H31.3998V155.638H31.3402C31.2308 155.85 31.0767 156.049 30.8778 156.234C30.6823 156.417 30.4353 156.564 30.1371 156.677C29.8421 156.786 29.4957 156.841 29.098 156.841ZM29.5653 155.518C29.9266 155.518 30.2398 155.447 30.5049 155.305C30.7701 155.159 30.9739 154.967 31.1165 154.728C31.2623 154.489 31.3352 154.229 31.3352 153.947V153.048C31.2789 153.094 31.1827 153.137 31.0469 153.177C30.9143 153.217 30.7651 153.251 30.5994 153.281C30.4337 153.311 30.2696 153.338 30.1072 153.361C29.9448 153.384 29.804 153.404 29.6846 153.42C29.4162 153.457 29.1759 153.517 28.9638 153.599C28.7516 153.682 28.5843 153.798 28.4616 153.947C28.339 154.093 28.2777 154.282 28.2777 154.514C28.2777 154.846 28.3987 155.096 28.6406 155.265C28.8826 155.434 29.1908 155.518 29.5653 155.518ZM36.7393 152.212V156.687H34.9396V149.05H36.6598V150.348H36.7493C36.9249 149.92 37.205 149.581 37.5895 149.329C37.9773 149.077 38.4562 148.951 39.0263 148.951C39.5532 148.951 40.0123 149.064 40.4034 149.289C40.7978 149.514 41.1027 149.841 41.3182 150.268C41.5369 150.696 41.6446 151.215 41.6413 151.825V156.687H39.8416V152.103C39.8416 151.593 39.709 151.193 39.4439 150.905C39.182 150.616 38.8191 150.472 38.3551 150.472C38.0402 150.472 37.7602 150.542 37.5149 150.681C37.2729 150.817 37.0824 151.014 36.9432 151.273C36.8073 151.531 36.7393 151.844 36.7393 152.212ZM43.4709 156.687V149.05H45.2706V156.687H43.4709ZM44.3757 147.967C44.0907 147.967 43.8454 147.872 43.6399 147.683C43.4344 147.491 43.3317 147.261 43.3317 146.992C43.3317 146.72 43.4344 146.49 43.6399 146.301C43.8454 146.109 44.0907 146.013 44.3757 146.013C44.664 146.013 44.9093 146.109 45.1115 146.301C45.317 146.49 45.4197 146.72 45.4197 146.992C45.4197 147.261 45.317 147.491 45.1115 147.683C44.9093 147.872 44.664 147.967 44.3757 147.967ZM47.0218 156.687V155.543L50.9593 150.607V150.542H47.1511V149.05H53.1617V150.278L49.4132 155.131V155.195H53.291V156.687H47.0218ZM57.18 156.841C56.6961 156.841 56.2603 156.755 55.8725 156.582C55.488 156.407 55.1831 156.148 54.9577 155.807C54.7357 155.465 54.6246 155.045 54.6246 154.544C54.6246 154.113 54.7042 153.757 54.8633 153.475C55.0224 153.193 55.2394 152.968 55.5145 152.799C55.7896 152.63 56.0995 152.502 56.4442 152.416C56.7922 152.327 57.1518 152.262 57.5231 152.222C57.9705 152.176 58.3334 152.134 58.6118 152.098C58.8902 152.058 59.0924 151.999 59.2184 151.919C59.3476 151.836 59.4123 151.709 59.4123 151.536V151.506C59.4123 151.132 59.3012 150.842 59.0792 150.636C58.8571 150.431 58.5373 150.328 58.1197 150.328C57.6788 150.328 57.3292 150.424 57.0706 150.616C56.8154 150.809 56.6431 151.036 56.5536 151.298L54.8732 151.059C55.0058 150.595 55.2245 150.207 55.5295 149.896C55.8344 149.581 56.2072 149.345 56.6481 149.19C57.0889 149.031 57.5761 148.951 58.1097 148.951C58.4776 148.951 58.8438 148.994 59.2084 149.08C59.573 149.166 59.9061 149.309 60.2077 149.508C60.5093 149.703 60.7513 149.97 60.9336 150.308C61.1192 150.646 61.212 151.069 61.212 151.576V156.687H59.4819V155.638H59.4222C59.3128 155.85 59.1587 156.049 58.9599 156.234C58.7643 156.417 58.5174 156.564 58.2191 156.677C57.9241 156.786 57.5777 156.841 57.18 156.841ZM57.6474 155.518C58.0086 155.518 58.3218 155.447 58.587 155.305C58.8521 155.159 59.056 154.967 59.1985 154.728C59.3443 154.489 59.4172 154.229 59.4172 153.947V153.048C59.3609 153.094 59.2648 153.137 59.1289 153.177C58.9963 153.217 58.8472 153.251 58.6814 153.281C58.5157 153.311 58.3517 153.338 58.1893 153.361C58.0268 153.384 57.886 153.404 57.7667 153.42C57.4982 153.457 57.2579 153.517 57.0458 153.599C56.8337 153.682 56.6663 153.798 56.5437 153.947C56.421 154.093 56.3597 154.282 56.3597 154.514C56.3597 154.846 56.4807 155.096 56.7226 155.265C56.9646 155.434 57.2728 155.518 57.6474 155.518ZM66.3526 156.836C65.5903 156.836 64.9357 156.669 64.3888 156.334C63.8453 155.999 63.426 155.537 63.131 154.947C62.8393 154.353 62.6935 153.671 62.6935 152.898C62.6935 152.123 62.8427 151.438 63.141 150.845C63.4393 150.249 63.8602 149.785 64.4037 149.453C64.9506 149.118 65.5969 148.951 66.3427 148.951C66.9625 148.951 67.511 149.065 67.9883 149.294C68.4688 149.519 68.8517 149.839 69.1367 150.254C69.4217 150.665 69.5841 151.145 69.6239 151.695H67.9037C67.8341 151.327 67.6684 151.021 67.4066 150.776C67.1481 150.527 66.8017 150.403 66.3675 150.403C65.9996 150.403 65.6765 150.502 65.3981 150.701C65.1197 150.897 64.9026 151.178 64.7468 151.546C64.5943 151.914 64.5181 152.355 64.5181 152.869C64.5181 153.389 64.5943 153.836 64.7468 154.211C64.8992 154.582 65.113 154.869 65.3881 155.071C65.6665 155.27 65.993 155.369 66.3675 155.369C66.6327 155.369 66.8697 155.32 67.0785 155.22C67.2906 155.117 67.4679 154.97 67.6104 154.778C67.7529 154.585 67.8507 154.352 67.9037 154.077H69.6239C69.5808 154.617 69.4217 155.096 69.1466 155.514C68.8715 155.928 68.497 156.253 68.0231 156.488C67.5491 156.72 66.9923 156.836 66.3526 156.836ZM71.1017 156.687V149.05H72.9014V156.687H71.1017ZM72.0065 147.967C71.7215 147.967 71.4762 147.872 71.2708 147.683C71.0653 147.491 70.9625 147.261 70.9625 146.992C70.9625 146.72 71.0653 146.49 71.2708 146.301C71.4762 146.109 71.7215 146.013 72.0065 146.013C72.2949 146.013 72.5402 146.109 72.7423 146.301C72.9478 146.49 73.0506 146.72 73.0506 146.992C73.0506 147.261 72.9478 147.491 72.7423 147.683C72.5402 147.872 72.2949 147.967 72.0065 147.967ZM78.0831 156.836C77.3373 156.836 76.691 156.672 76.1442 156.344C75.5973 156.016 75.173 155.557 74.8714 154.967C74.5731 154.377 74.424 153.687 74.424 152.898C74.424 152.11 74.5731 151.419 74.8714 150.825C75.173 150.232 75.5973 149.771 76.1442 149.443C76.691 149.115 77.3373 148.951 78.0831 148.951C78.8288 148.951 79.4751 149.115 80.022 149.443C80.5689 149.771 80.9915 150.232 81.2898 150.825C81.5914 151.419 81.7422 152.11 81.7422 152.898C81.7422 153.687 81.5914 154.377 81.2898 154.967C80.9915 155.557 80.5689 156.016 80.022 156.344C79.4751 156.672 78.8288 156.836 78.0831 156.836ZM78.093 155.394C78.4974 155.394 78.8354 155.283 79.1072 155.061C79.379 154.836 79.5812 154.534 79.7138 154.156C79.8496 153.778 79.9176 153.357 79.9176 152.893C79.9176 152.426 79.8496 152.004 79.7138 151.626C79.5812 151.245 79.379 150.941 79.1072 150.716C78.8354 150.491 78.4974 150.378 78.093 150.378C77.6787 150.378 77.334 150.491 77.0589 150.716C76.7871 150.941 76.5833 151.245 76.4474 151.626C76.3148 152.004 76.2486 152.426 76.2486 152.893C76.2486 153.357 76.3148 153.778 76.4474 154.156C76.5833 154.534 76.7871 154.836 77.0589 155.061C77.334 155.283 77.6787 155.394 78.093 155.394ZM85.0694 152.212V156.687H83.2697V149.05H84.9899V150.348H85.0793C85.255 149.92 85.5351 149.581 85.9195 149.329C86.3073 149.077 86.7863 148.951 87.3563 148.951C87.8833 148.951 88.3424 149.064 88.7335 149.289C89.1279 149.514 89.4328 149.841 89.6482 150.268C89.867 150.696 89.9747 151.215 89.9714 151.825V156.687H88.1717V152.103C88.1717 151.593 88.0391 151.193 87.7739 150.905C87.5121 150.616 87.1492 150.472 86.6852 150.472C86.3703 150.472 86.0902 150.542 85.845 150.681C85.603 150.817 85.4124 151.014 85.2732 151.273C85.1373 151.531 85.0694 151.844 85.0694 152.212ZM93.9984 156.841C93.5145 156.841 93.0786 156.755 92.6909 156.582C92.3064 156.407 92.0015 156.148 91.7761 155.807C91.554 155.465 91.443 155.045 91.443 154.544C91.443 154.113 91.5225 153.757 91.6816 153.475C91.8407 153.193 92.0578 152.968 92.3329 152.799C92.608 152.63 92.9179 152.502 93.2626 152.416C93.6106 152.327 93.9702 152.262 94.3414 152.222C94.7889 152.176 95.1518 152.134 95.4302 152.098C95.7086 152.058 95.9108 151.999 96.0367 151.919C96.166 151.836 96.2306 151.709 96.2306 151.536V151.506C96.2306 151.132 96.1196 150.842 95.8975 150.636C95.6755 150.431 95.3556 150.328 94.938 150.328C94.4972 150.328 94.1475 150.424 93.889 150.616C93.6338 150.809 93.4614 151.036 93.372 151.298L91.6916 151.059C91.8241 150.595 92.0429 150.207 92.3478 149.896C92.6527 149.581 93.0256 149.345 93.4664 149.19C93.9072 149.031 94.3945 148.951 94.9281 148.951C95.296 148.951 95.6622 148.994 96.0268 149.08C96.3914 149.166 96.7245 149.309 97.0261 149.508C97.3277 149.703 97.5696 149.97 97.7519 150.308C97.9375 150.646 98.0303 151.069 98.0303 151.576V156.687H96.3002V155.638H96.2406C96.1312 155.85 95.9771 156.049 95.7782 156.234C95.5827 156.417 95.3357 156.564 95.0374 156.677C94.7425 156.786 94.3961 156.841 93.9984 156.841ZM94.4657 155.518C94.827 155.518 95.1402 155.447 95.4053 155.305C95.6705 155.159 95.8743 154.967 96.0168 154.728C96.1627 154.489 96.2356 154.229 96.2356 153.947V153.048C96.1793 153.094 96.0831 153.137 95.9472 153.177C95.8147 153.217 95.6655 153.251 95.4998 153.281C95.3341 153.311 95.17 153.338 95.0076 153.361C94.8452 153.384 94.7043 153.404 94.585 153.42C94.3166 153.457 94.0763 153.517 93.8641 153.599C93.652 153.682 93.4846 153.798 93.362 153.947C93.2394 154.093 93.1781 154.282 93.1781 154.514C93.1781 154.846 93.299 155.096 93.541 155.265C93.7829 155.434 94.0912 155.518 94.4657 155.518ZM101.64 146.505V156.687H99.84V146.505H101.64Z" fill="#1723FF"/>
</svg>
