<svg width="144" height="1084" fill="none" xmlns="http://www.w3.org/2000/svg"><path d="M34.877 1074.56a1.57 1.57 0 0 0-.67-1.16c-.39-.27-.898-.41-1.523-.41-.44 0-.816.06-1.13.2-.315.13-.555.31-.722.54-.167.22-.252.48-.256.78 0 .24.055.45.165.63.114.17.267.33.46.45s.407.22.642.31c.235.08.472.15.71.21l1.091.27c.44.1.862.24 1.267.42.41.17.775.39 1.097.65.326.27.583.59.773.96.19.38.284.82.284 1.32 0 .68-.174 1.29-.523 1.8-.348.52-.852.92-1.511 1.21-.656.29-1.45.44-2.381.44-.905 0-1.691-.14-2.358-.42-.663-.28-1.182-.69-1.557-1.23-.37-.54-.572-1.19-.602-1.97h2.074c.03.41.155.74.375 1.01s.505.47.858.61c.356.13.754.2 1.193.2.458 0 .86-.07 1.204-.21.349-.14.622-.33.819-.58.197-.25.297-.54.3-.87-.003-.31-.092-.56-.266-.75-.174-.2-.419-.37-.733-.5-.31-.14-.674-.26-1.091-.37l-1.324-.34c-.958-.24-1.716-.62-2.273-1.12-.553-.5-.83-1.17-.83-2 0-.69.186-1.29.558-1.8.375-.52.884-.92 1.528-1.2.644-.29 1.373-.44 2.188-.44.825 0 1.549.15 2.17.44a3.55 3.55 0 0 1 1.472 1.18c.356.51.54 1.09.55 1.74h-2.028Zm6.487 8.62c-.552 0-1.05-.1-1.494-.3-.44-.2-.788-.5-1.045-.89-.254-.39-.38-.87-.38-1.44 0-.49.09-.9.272-1.22.182-.32.43-.58.744-.77.315-.2.669-.34 1.063-.44.397-.1.808-.18 1.233-.22.51-.06.926-.1 1.244-.14.318-.05.55-.12.693-.21.148-.09.222-.24.222-.44v-.03c0-.43-.127-.76-.381-.99-.254-.24-.62-.36-1.097-.36-.503 0-.903.11-1.199.33-.291.22-.488.48-.59.78l-1.92-.27c.15-.53.4-.98.75-1.33a3.29 3.29 0 0 1 1.278-.81c.503-.18 1.06-.27 1.67-.27.42 0 .84.05 1.256.15.416.1.797.26 1.142.49.344.22.621.52.83.91.211.39.317.87.317 1.45v5.84h-1.977v-1.2h-.068a2.541 2.541 0 0 1-1.375 1.19 3.53 3.53 0 0 1-1.188.19Zm.535-1.52c.413 0 .77-.08 1.073-.24.303-.17.536-.39.7-.66.166-.27.25-.57.25-.89v-1.03c-.065.05-.175.1-.33.15-.152.04-.322.08-.512.12l-.562.09c-.186.03-.347.05-.483.07-.307.04-.581.11-.824.2-.242.1-.434.23-.574.4-.14.17-.21.38-.21.65 0 .38.138.66.415.86.276.19.629.28 1.057.28Zm8.198-10.3V1083h-2.056v-11.64h2.056Zm2.115 11.64v-8.73h2.057v8.73h-2.056Zm1.035-9.97c-.326 0-.606-.1-.841-.32a1.04 1.04 0 0 1-.352-.79c0-.31.117-.57.352-.79.235-.22.515-.33.84-.33.33 0 .61.11.841.33.235.22.353.48.353.79 0 .31-.118.57-.352.79-.232.22-.512.32-.841.32Zm6.376 10.12c-.685 0-1.3-.17-1.84-.53-.543-.35-.97-.86-1.285-1.53-.314-.67-.471-1.48-.471-2.44 0-.97.159-1.79.477-2.46.322-.67.755-1.17 1.3-1.51a3.302 3.302 0 0 1 1.825-.52c.511 0 .932.09 1.261.26.33.17.591.38.784.62.193.24.343.46.45.68h.084v-4.36h2.063V1083h-2.023v-1.38h-.125c-.106.22-.26.44-.46.68-.2.24-.466.44-.796.6-.33.17-.744.25-1.244.25Zm.574-1.68c.435 0 .807-.12 1.114-.36.306-.24.54-.57.698-.99.16-.42.24-.92.24-1.48 0-.57-.08-1.06-.24-1.48-.155-.41-.386-.74-.693-.97-.303-.23-.676-.34-1.12-.34-.457 0-.84.12-1.147.35-.307.24-.538.57-.693.99-.155.42-.233.9-.233 1.45 0 .54.078 1.03.233 1.46.16.42.392.76.699 1 .31.24.691.37 1.142.37Zm8.777 1.71c-.553 0-1.051-.1-1.494-.3-.44-.2-.788-.5-1.046-.89-.254-.39-.38-.87-.38-1.44 0-.49.09-.9.272-1.22.182-.32.43-.58.745-.77.314-.2.668-.34 1.062-.44.398-.1.809-.18 1.233-.22.511-.06.926-.1 1.244-.14.319-.05.55-.12.694-.21.147-.09.221-.24.221-.44v-.03c0-.43-.127-.76-.38-.99-.254-.24-.62-.36-1.097-.36-.504 0-.904.11-1.2.33-.29.22-.488.48-.59.78l-1.92-.27c.151-.53.401-.98.75-1.33a3.29 3.29 0 0 1 1.278-.81c.504-.18 1.06-.27 1.67-.27.42 0 .84.05 1.256.15.417.1.797.26 1.142.49.345.22.621.52.83.91.212.39.318.87.318 1.45v5.84h-1.977v-1.2h-.069a2.541 2.541 0 0 1-1.375 1.19 3.53 3.53 0 0 1-1.187.19Zm.534-1.52c.413 0 .77-.08 1.074-.24.303-.17.536-.39.699-.66.166-.27.25-.57.25-.89v-1.03c-.065.05-.175.1-.33.15-.151.04-.322.08-.511.12l-.563.09c-.185.03-.346.05-.483.07a3.76 3.76 0 0 0-.824.2c-.242.1-.433.23-.573.4-.14.17-.21.38-.21.65 0 .38.138.66.414.86.277.19.629.28 1.057.28ZM44.453 989.044c0-4.1 3.332-7.433 7.427-7.433 4.096 0 7.428 3.337 7.428 7.433 0 4.101-3.332 7.437-7.428 7.437-4.1 0-7.427-3.332-7.427-7.437Zm12.957 0c0-3.051-2.482-5.536-5.53-5.536-3.047 0-5.529 2.485-5.529 5.536 0 3.051 2.482 5.536 5.53 5.536 3.047.005 5.529-2.48 5.529-5.536Z" fill="#2DCF6E"/><path d="M52 995v67" stroke="#30E35E" stroke-dasharray="2 2"/><path d="M52.824 951.582c0-6.748 3.626-13.031 9.457-16.402l64.819-37.467c6.419-3.71 10.404-10.625 10.404-18.049v-30.13c3.64-.475 6.472-3.565 6.472-7.341 0-4.101-3.332-7.437-7.428-7.437-4.095 0-7.427 3.336-7.427 7.437 0 3.78 2.837 6.871 6.485 7.341v30.13c0 6.744-3.626 13.031-9.458 16.402L61.33 933.533c-6.42 3.71-10.405 10.625-10.405 18.049v30.969h1.899v-30.969Zm78.2-109.385c0-3.051 2.482-5.536 5.529-5.536 3.047 0 5.529 2.485 5.529 5.536 0 3.052-2.482 5.537-5.529 5.537a5.539 5.539 0 0 1-5.529-5.537Z" fill="#2DCF6E"/><path d="M137.509 804.74c0-7.42-3.985-14.339-10.404-18.049l-64.819-37.467c-5.831-3.372-9.457-9.659-9.457-16.402v-30.131c3.643-.469 6.48-3.565 6.48-7.34 0-4.101-3.332-7.433-7.427-7.433-4.096 0-7.428 3.337-7.428 7.433 0 3.775 2.832 6.866 6.476 7.34v30.135c0 7.42 3.986 14.339 10.405 18.045l64.818 37.466c5.832 3.372 9.458 9.659 9.458 16.403v30.969h1.898V804.74Zm-91.16-109.394c0-3.051 2.48-5.536 5.528-5.536 3.047 0 5.53 2.485 5.53 5.536 0 3.052-2.482 5.537-5.53 5.537-3.047.004-5.529-2.481-5.529-5.537Z" fill="#2AB981"/><path d="M52.824 657.889c0-6.744 3.626-13.03 9.457-16.402L127.1 604.02c6.419-3.71 10.404-10.629 10.404-18.049v-30.135c3.64-.474 6.472-3.565 6.472-7.34 0-4.101-3.332-7.437-7.428-7.437-4.095 0-7.427 3.336-7.427 7.437 0 3.775 2.837 6.871 6.485 7.34v30.135c0 6.744-3.626 13.031-9.458 16.403L61.33 639.84c-6.42 3.71-10.405 10.625-10.405 18.049v30.969h1.899v-30.969Zm78.2-109.389c0-3.051 2.482-5.536 5.529-5.536 3.047 0 5.529 2.485 5.529 5.536 0 3.051-2.482 5.536-5.529 5.536-3.047 0-5.529-2.485-5.529-5.536Z" fill="#279D98"/><path d="M137.509 511.041c0-7.419-3.985-14.338-10.404-18.048l-64.819-37.467c-5.831-3.372-9.457-9.659-9.457-16.402v-30.135c3.643-.47 6.48-3.565 6.48-7.341 0-4.1-3.332-7.437-7.427-7.437-4.096 0-7.428 3.337-7.428 7.437 0 3.776 2.832 6.867 6.476 7.341v30.135c0 7.424 3.986 14.338 10.405 18.048l64.818 37.467c5.832 3.372 9.458 9.659 9.458 16.402v30.969h1.898v-30.969Zm-91.16-109.388c0-3.052 2.48-5.537 5.528-5.537 3.047 0 5.53 2.485 5.53 5.537 0 3.051-2.482 5.536-5.53 5.536-3.047 0-5.529-2.485-5.529-5.536Z" fill="#2069C4"/><path d="M52.824 364.177c0-6.744 3.626-13.031 9.457-16.403l64.819-37.466c6.419-3.71 10.404-10.629 10.404-18.049v-30.122c3.64-.474 6.472-3.565 6.472-7.34 0-4.101-3.332-7.438-7.428-7.438-4.095 0-7.427 3.337-7.427 7.438 0 3.775 2.837 6.87 6.485 7.34v30.118c0 6.743-3.626 13.03-9.458 16.402L61.33 346.124c-6.42 3.709-10.405 10.624-10.405 18.048v30.987h1.899v-30.982Zm78.2-109.376c0-3.051 2.482-5.536 5.529-5.536 3.047 0 5.529 2.485 5.529 5.536 0 3.051-2.482 5.536-5.529 5.536-3.047 0-5.529-2.485-5.529-5.536Z" fill="#1D53D2"/><path d="M137.509 217.33c0-7.42-3.985-14.334-10.404-18.049l-64.819-37.467c-5.831-3.371-9.457-9.658-9.457-16.402V115.29c3.643-.469 6.48-3.564 6.48-7.34 0-4.101-3.332-7.437-7.427-7.437-4.096 0-7.428 3.336-7.428 7.437 0 3.776 2.832 6.866 6.476 7.34v30.122c0 7.42 3.986 14.339 10.405 18.049l64.818 37.467c5.832 3.371 9.458 9.658 9.458 16.402v30.987h1.898V217.33Zm-91.16-109.376c0-3.051 2.48-5.536 5.528-5.536 3.047 0 5.53 2.485 5.53 5.536 0 3.052-2.482 5.536-5.53 5.536-3.047 0-5.529-2.484-5.529-5.536Z" fill="#1934EF"/><path d="M52 101V34" stroke="#1723FF" stroke-dasharray="2 2"/><path d="M32.54 6.07a2.634 2.634 0 0 0-.343-.721 2.217 2.217 0 0 0-.517-.552 2.085 2.085 0 0 0-.686-.343c-.258-.08-.54-.12-.845-.12-.547 0-1.034.138-1.461.413-.428.275-.764.68-1.01 1.213-.242.53-.363 1.177-.363 1.94 0 .768.121 1.42.363 1.953.242.534.579.94 1.01 1.218.43.275.93.413 1.501.413.517 0 .965-.1 1.342-.299.382-.199.675-.48.88-.845.206-.368.309-.799.309-1.292l.417.064h-2.764V7.67h4.131v1.223c0 .872-.185 1.626-.556 2.262a3.804 3.804 0 0 1-1.532 1.472c-.65.341-1.395.512-2.237.512-.938 0-1.761-.21-2.47-.631-.707-.424-1.259-1.026-1.656-1.805-.395-.782-.592-1.71-.592-2.784 0-.822.116-1.556.348-2.202a4.765 4.765 0 0 1 .984-1.646 4.19 4.19 0 0 1 1.482-1.034 4.717 4.717 0 0 1 1.85-.358c.563 0 1.088.083 1.575.249.488.162.92.394 1.298.696A3.783 3.783 0 0 1 34.42 6.07h-1.88Zm7.05 7.08c-.767 0-1.428-.16-1.985-.478a3.233 3.233 0 0 1-1.277-1.362c-.299-.59-.448-1.285-.448-2.083 0-.786.15-1.475.448-2.069a3.383 3.383 0 0 1 1.262-1.392c.54-.334 1.175-.502 1.905-.502.47 0 .914.076 1.332.229.42.149.792.381 1.114.696.324.315.58.716.765 1.203.186.484.279 1.06.279 1.73v.552h-6.26V8.461h4.535a1.936 1.936 0 0 0-.224-.92 1.627 1.627 0 0 0-.612-.641 1.719 1.719 0 0 0-.904-.234c-.368 0-.692.09-.97.269a1.85 1.85 0 0 0-.651.696c-.153.285-.23.598-.234.94v1.058c0 .444.081.825.244 1.144.162.315.39.556.68.726.292.165.634.248 1.025.248.262 0 .499-.036.71-.11.213-.075.397-.187.553-.332.155-.146.273-.327.353-.542l1.68.189a2.62 2.62 0 0 1-.606 1.163 2.957 2.957 0 0 1-1.134.766c-.46.179-.988.268-1.58.268Zm10.953-5.768-1.64.18a1.318 1.318 0 0 0-.245-.468 1.21 1.21 0 0 0-.457-.353 1.666 1.666 0 0 0-.706-.134c-.374 0-.69.08-.944.243-.252.163-.377.373-.373.632a.66.66 0 0 0 .243.541c.17.14.448.254.836.343l1.302.279c.723.156 1.26.403 1.61.74.356.339.535.781.538 1.328-.004.48-.144.905-.423 1.273-.275.364-.658.65-1.148.855-.49.205-1.054.308-1.69.308-.935 0-1.688-.195-2.258-.586-.57-.395-.91-.943-1.019-1.646l1.755-.17c.08.346.249.606.507.781.259.176.595.264 1.01.264.427 0 .77-.088 1.029-.264.261-.175.392-.392.392-.65 0-.22-.084-.4-.253-.543-.166-.142-.425-.252-.776-.328l-1.302-.273c-.733-.153-1.275-.41-1.626-.77-.351-.366-.525-.826-.522-1.383-.003-.47.124-.878.383-1.223.262-.348.625-.617 1.089-.805.467-.193 1.005-.289 1.615-.289.895 0 1.6.19 2.113.572.517.381.837.896.96 1.546Zm5.461-2.018v1.392h-4.39V5.364h4.39Zm-3.306-1.83h1.8v7.17c0 .241.036.427.109.556a.59.59 0 0 0 .298.258c.123.047.259.07.408.07.113 0 .215-.008.308-.025a2.72 2.72 0 0 0 .219-.045l.303 1.407a4.01 4.01 0 0 1-.412.11c-.176.04-.392.063-.647.07a2.935 2.935 0 0 1-1.218-.204 1.896 1.896 0 0 1-.86-.706c-.209-.319-.311-.716-.308-1.194V3.534ZM57.509 13V5.364h1.8V13h-1.8Zm.905-8.72a1.05 1.05 0 0 1-.736-.284.913.913 0 0 1-.308-.69c0-.272.103-.503.308-.692a1.04 1.04 0 0 1 .736-.288c.288 0 .534.096.736.288.205.19.308.42.308.691a.913.913 0 0 1-.308.691 1.039 1.039 0 0 1-.736.284Zm6.076 8.87c-.745 0-1.391-.165-1.938-.493a3.342 3.342 0 0 1-1.273-1.377c-.298-.59-.448-1.28-.448-2.068 0-.79.15-1.48.448-2.074a3.335 3.335 0 0 1 1.273-1.382c.547-.328 1.193-.492 1.938-.492.746 0 1.393.164 1.94.492.546.329.969.79 1.267 1.382.302.594.453 1.285.453 2.074 0 .789-.151 1.478-.453 2.068a3.31 3.31 0 0 1-1.268 1.377c-.546.328-1.193.492-1.939.492Zm.01-1.443c.405 0 .743-.11 1.015-.333.271-.225.474-.527.606-.905a3.71 3.71 0 0 0 .204-1.262c0-.468-.068-.89-.204-1.268a2.007 2.007 0 0 0-.606-.91c-.272-.225-.61-.338-1.014-.338-.415 0-.76.113-1.035.338a2.04 2.04 0 0 0-.611.91 3.81 3.81 0 0 0-.199 1.268c0 .464.066.885.199 1.262.136.378.34.68.611.905.276.222.62.333 1.035.333Zm-.7-7.348 1.113-2.272h1.76L65.147 4.36h-1.348Zm7.677 4.167V13h-1.8V5.364h1.72V6.66h.09c.175-.427.456-.767.84-1.019.388-.252.867-.378 1.437-.378.527 0 .986.113 1.377.338.394.226.7.552.915.98.218.427.326.946.323 1.556V13h-1.8V8.416c0-.51-.132-.91-.398-1.198-.261-.288-.624-.432-1.088-.432-.315 0-.595.07-.84.208a1.448 1.448 0 0 0-.572.592c-.136.258-.204.572-.204.94ZM10.393 23.909c0 1.097-.206 2.037-.617 2.819-.407.779-.964 1.375-1.67 1.79-.703.414-1.5.621-2.391.621-.892 0-1.69-.207-2.397-.621-.702-.418-1.26-1.016-1.67-1.795-.408-.782-.612-1.72-.612-2.814 0-1.097.204-2.035.612-2.814.41-.782.968-1.38 1.67-1.795.706-.414 1.505-.621 2.397-.621.891 0 1.688.207 2.39.621.707.415 1.264 1.013 1.671 1.795.411.78.617 1.717.617 2.814Zm-1.855 0c0-.772-.12-1.423-.363-1.954-.238-.533-.57-.936-.994-1.208a2.635 2.635 0 0 0-1.466-.413c-.554 0-1.043.138-1.467.413-.424.272-.757.675-1 1.208-.238.53-.357 1.182-.357 1.954s.119 1.425.358 1.959c.242.53.575.933.999 1.208.424.272.913.408 1.466.408.554 0 1.043-.136 1.467-.408.424-.275.756-.678.994-1.208.242-.534.363-1.187.363-1.959ZM12.057 29v-7.636h1.745v1.272h.08c.139-.44.377-.78.716-1.019a1.97 1.97 0 0 1 1.168-.363c.1 0 .21.005.333.015.126.007.23.018.313.035v1.655a1.894 1.894 0 0 0-.363-.07 3.34 3.34 0 0 0-.472-.034 1.82 1.82 0 0 0-.885.214c-.259.14-.462.333-.612.582a1.64 1.64 0 0 0-.223.86V29h-1.8Zm8.557 3.023c-.646 0-1.201-.088-1.665-.264-.464-.172-.837-.404-1.119-.696a2.41 2.41 0 0 1-.586-.97l1.62-.392c.073.15.18.297.319.442.139.15.326.272.561.368.239.1.539.15.9.15.51 0 .933-.125 1.268-.373.335-.246.502-.65.502-1.213v-1.447h-.09a2.556 2.556 0 0 1-.407.572c-.176.195-.41.36-.701.492-.288.132-.651.199-1.089.199a3.137 3.137 0 0 1-1.596-.413c-.474-.278-.851-.693-1.133-1.243-.279-.553-.418-1.246-.418-2.078 0-.839.14-1.546.418-2.123.282-.58.661-1.02 1.138-1.317a2.926 2.926 0 0 1 1.596-.453c.448 0 .816.076 1.104.229.291.149.523.33.696.542.172.209.303.406.393.591h.099v-1.262h1.775v7.76c0 .653-.156 1.194-.468 1.621-.311.428-.737.747-1.277.96-.54.212-1.154.318-1.84.318Zm.015-4.544c.381 0 .706-.093.975-.279.268-.185.472-.452.611-.8.14-.348.209-.766.209-1.253 0-.48-.07-.901-.209-1.263-.136-.361-.338-.641-.606-.84-.266-.202-.592-.303-.98-.303-.4 0-.736.104-1.004.313-.268.209-.47.495-.607.86a3.484 3.484 0 0 0-.203 1.233c0 .467.068.877.203 1.228.14.348.343.62.612.815.272.193.605.289 1 .289Zm7.612 1.675c-.484 0-.92-.086-1.308-.258a2.134 2.134 0 0 1-.915-.776c-.222-.341-.333-.762-.333-1.263 0-.43.08-.787.239-1.069.16-.281.376-.507.651-.676.275-.169.585-.296.93-.383.348-.09.708-.154 1.079-.194.447-.046.81-.087 1.089-.124.278-.04.48-.1.606-.179.13-.083.194-.21.194-.383v-.03c0-.374-.111-.664-.333-.87-.222-.205-.542-.308-.96-.308-.44 0-.79.097-1.049.289a1.43 1.43 0 0 0-.517.68l-1.68-.238c.133-.464.351-.852.656-1.163.305-.315.678-.55 1.119-.706a4.28 4.28 0 0 1 1.462-.239c.367 0 .734.043 1.098.13a3.09 3.09 0 0 1 1 .427c.301.196.543.462.725.8.186.338.279.761.279 1.268V29h-1.73v-1.049h-.06c-.11.212-.264.411-.462.597-.196.182-.443.33-.741.442-.295.11-.642.164-1.04.164Zm.467-1.322c.361 0 .675-.072.94-.214a1.58 1.58 0 0 0 .611-.577c.146-.238.219-.499.219-.78v-.9a.847.847 0 0 1-.288.13 4.11 4.11 0 0 1-.448.104c-.166.03-.33.056-.492.079l-.423.06a3.145 3.145 0 0 0-.72.179c-.213.082-.38.198-.503.348-.122.146-.183.334-.183.566 0 .332.12.582.362.751.242.17.55.254.925.254Zm7.174-3.306V29h-1.8v-7.636h1.72v1.297h.09c.176-.427.456-.767.84-1.019.388-.252.867-.378 1.437-.378.527 0 .986.113 1.377.338.395.226.7.552.915.98.219.427.326.946.323 1.556V29h-1.8v-4.584c0-.51-.132-.91-.397-1.198-.262-.288-.625-.433-1.09-.433-.314 0-.594.07-.84.21a1.447 1.447 0 0 0-.571.59c-.136.26-.204.573-.204.94ZM42.614 29v-7.636h1.8V29h-1.8Zm.905-8.72a1.05 1.05 0 0 1-.736-.284.913.913 0 0 1-.309-.69c0-.272.103-.503.309-.692a1.04 1.04 0 0 1 .736-.288c.288 0 .533.096.735.288.206.19.309.42.309.691a.913.913 0 0 1-.309.691 1.038 1.038 0 0 1-.735.284ZM46.165 29v-1.143l3.937-4.937v-.065h-3.808v-1.491h6.01v1.228l-3.748 4.852v.065h3.878V29h-6.27Zm10.158.154c-.484 0-.92-.086-1.308-.258a2.134 2.134 0 0 1-.915-.776c-.222-.341-.333-.762-.333-1.263 0-.43.08-.787.24-1.069.158-.281.375-.507.65-.676.275-.169.585-.296.93-.383.348-.09.708-.154 1.079-.194.447-.046.81-.087 1.089-.124.278-.04.48-.1.606-.179.13-.083.194-.21.194-.383v-.03c0-.374-.111-.664-.333-.87-.222-.205-.542-.308-.96-.308-.44 0-.79.097-1.049.289a1.43 1.43 0 0 0-.517.68l-1.68-.238c.133-.464.351-.852.656-1.163.305-.315.678-.55 1.119-.706.44-.16.928-.239 1.462-.239.367 0 .734.043 1.098.13a3.09 3.09 0 0 1 1 .427c.301.196.543.462.725.8.186.338.279.761.279 1.268V29h-1.73v-1.049h-.06c-.11.212-.264.411-.462.597-.196.182-.443.33-.741.442-.295.11-.642.164-1.04.164Zm.467-1.322c.361 0 .675-.072.94-.214a1.58 1.58 0 0 0 .611-.577 1.47 1.47 0 0 0 .219-.78v-.9a.846.846 0 0 1-.288.13c-.133.039-.282.074-.448.104-.166.03-.33.056-.492.079l-.422.06a3.142 3.142 0 0 0-.721.179c-.212.082-.38.198-.503.348-.122.146-.184.334-.184.566 0 .332.121.582.363.751.242.17.55.254.925.254Zm8.705 1.317c-.762 0-1.416-.167-1.963-.502a3.353 3.353 0 0 1-1.258-1.387c-.292-.593-.438-1.276-.438-2.048 0-.776.15-1.46.448-2.054a3.34 3.34 0 0 1 1.263-1.392c.546-.334 1.193-.502 1.939-.502.62 0 1.168.115 1.645.343.48.226.864.546 1.148.96.285.41.448.891.488 1.442h-1.72a1.644 1.644 0 0 0-.498-.92c-.258-.249-.605-.373-1.039-.373-.368 0-.69.1-.97.298-.278.196-.495.477-.65.845-.153.368-.23.81-.23 1.323 0 .52.077.968.23 1.342.152.371.366.658.64.86.28.2.606.299.98.299.265 0 .502-.05.711-.15.212-.102.39-.25.532-.442.143-.192.24-.426.293-.701h1.72a2.999 2.999 0 0 1-.477 1.437c-.275.414-.65.739-1.123.974-.474.232-1.03.348-1.67.348Zm4.75-.149v-7.636h1.8V29h-1.8Zm.904-8.72a1.05 1.05 0 0 1-.736-.284.914.914 0 0 1-.308-.69c0-.272.103-.503.308-.692a1.04 1.04 0 0 1 .736-.288c.289 0 .534.096.736.288.206.19.308.42.308.691a.913.913 0 0 1-.308.691 1.038 1.038 0 0 1-.736.284Zm6.077 8.87c-.746 0-1.392-.165-1.94-.493a3.343 3.343 0 0 1-1.272-1.377c-.298-.59-.447-1.28-.447-2.068 0-.79.149-1.48.447-2.073a3.335 3.335 0 0 1 1.273-1.383c.547-.328 1.193-.492 1.939-.492s1.392.164 1.939.492c.547.328.97.79 1.267 1.383.302.593.453 1.284.453 2.073 0 .788-.15 1.478-.453 2.068a3.31 3.31 0 0 1-1.267 1.377c-.547.328-1.193.492-1.94.492Zm.01-1.443c.404 0 .742-.11 1.014-.333.272-.225.474-.527.606-.904a3.71 3.71 0 0 0 .204-1.263c0-.468-.068-.89-.204-1.268a2.006 2.006 0 0 0-.606-.91c-.272-.225-.61-.338-1.014-.338-.415 0-.76.113-1.034.338a2.041 2.041 0 0 0-.612.91 3.81 3.81 0 0 0-.199 1.268c0 .464.067.885.2 1.262.135.378.339.68.61.905.276.222.62.333 1.035.333Zm6.976-3.181V29h-1.8v-7.636h1.72v1.297h.09c.176-.427.456-.767.84-1.019.388-.252.867-.378 1.437-.378.527 0 .986.113 1.377.338.395.226.7.552.915.98.219.427.327.946.323 1.556V29h-1.8v-4.584c0-.51-.132-.91-.397-1.198-.262-.288-.625-.433-1.089-.433-.315 0-.595.07-.84.21a1.448 1.448 0 0 0-.572.59c-.136.26-.204.573-.204.94Zm8.93 4.628c-.485 0-.92-.086-1.308-.258a2.134 2.134 0 0 1-.915-.776c-.222-.341-.333-.762-.333-1.263 0-.43.08-.787.238-1.069.16-.281.377-.507.652-.676.275-.169.585-.296.93-.383.347-.09.707-.154 1.078-.194.448-.046.81-.087 1.089-.124.278-.04.48-.1.607-.179.129-.083.193-.21.193-.383v-.03c0-.374-.11-.664-.333-.87-.222-.205-.542-.308-.96-.308-.44 0-.79.097-1.048.289a1.43 1.43 0 0 0-.517.68l-1.68-.238c.132-.464.35-.852.656-1.163.305-.315.677-.55 1.118-.706.441-.16.928-.239 1.462-.239.368 0 .734.043 1.099.13a3.09 3.09 0 0 1 .999.427c.302.196.543.462.726.8.185.338.278.761.278 1.268V29h-1.73v-1.049h-.06c-.109.212-.263.411-.462.597-.196.182-.443.33-.74.442-.296.11-.642.164-1.04.164Zm.467-1.322c.36 0 .674-.072.94-.214a1.58 1.58 0 0 0 .61-.577c.146-.238.22-.499.22-.78v-.9a.848.848 0 0 1-.289.13 4.11 4.11 0 0 1-.447.104c-.166.03-.33.056-.493.079l-.422.06a3.145 3.145 0 0 0-.721.179c-.212.082-.38.198-.502.348-.123.146-.184.334-.184.566 0 .332.12.582.363.751.242.17.55.254.925.254Zm7.174-9.014V29h-1.8V18.818h1.8Z" fill="#1723FF"/></svg>