<svg width="176" height="198" viewBox="0 0 176 198" fill="none" xmlns="http://www.w3.org/2000/svg">
<g filter="url(#filter0_d_23_26)">
<path d="M153.281 100.677L128.888 57.0108C125.427 50.8119 118.92 46.9317 111.813 46.8271L61.7558 46.09C54.6486 45.9853 48.0301 49.6722 44.3883 55.7666L18.7199 98.6961C15.078 104.79 14.9666 112.357 18.4275 118.556L42.8207 162.223C46.2816 168.422 52.7931 172.302 59.8958 172.407L79.334 172.693L84.8031 181.162L90.5192 172.858L109.957 173.144C117.06 173.248 123.683 169.562 127.325 163.467L152.993 120.538C156.631 114.443 156.742 106.876 153.281 100.677Z" fill="white"/>
</g>
<path d="M76.957 121.86C76.9515 122.412 76.9467 122.901 76.9416 123.419C76.8145 123.427 76.72 123.438 76.6271 123.437C72.8132 123.401 69.0005 123.373 65.1868 123.32C62.9158 123.288 61.1932 121.453 61.2744 119.196C61.3481 117.171 63.0256 115.486 65.0434 115.424C65.4836 115.41 65.9235 115.43 66.4291 115.435C64.7524 107.086 63.0844 98.7847 61.4102 90.4495C65.4303 89.6299 69.3835 88.8254 73.3577 88.0146C73.3738 86.3792 73.3897 84.7676 73.406 83.1177C81.7855 83.2004 90.1389 83.2829 98.542 83.3658C98.5261 84.9722 98.5101 86.5931 98.4938 88.2496C102.467 89.1415 106.401 90.0251 110.408 90.9239C110.28 91.5355 110.163 92.1221 110.033 92.7073C108.311 100.459 106.588 108.21 104.873 115.964C104.829 116.161 104.853 116.388 104.899 116.589C106.576 123.726 102.225 130.591 95.0892 132.06C88.4703 133.422 81.9065 129.064 80.4237 122.305C80.3522 121.978 80.2406 121.879 79.9196 121.883C78.9555 121.893 77.9917 121.87 76.957 121.86ZM96.96 84.9278C89.6112 84.8552 82.3043 84.7831 74.9961 84.7109C74.8947 94.9857 74.7936 105.225 74.692 115.518C75.4739 115.526 76.2322 115.533 77.0443 115.541C77.0388 116.095 77.0338 116.596 77.0287 117.116C78.0961 117.127 79.1098 117.142 80.1236 117.139C80.2245 117.138 80.3865 117.049 80.4148 116.965C80.7401 115.989 81.0432 115.006 81.3677 113.978C79.6861 113.961 77.9795 113.944 76.2821 113.927C76.3214 109.956 76.36 106.042 76.3987 102.12C82.6853 102.182 88.9431 102.244 95.231 102.306C95.2289 102.518 95.2272 102.697 95.2254 102.876C95.2124 104.194 95.1942 105.512 95.1942 106.83C95.194 106.983 95.2609 107.239 95.3575 107.273C95.7961 107.426 96.2576 107.518 96.7345 107.637C96.8107 100.049 96.8852 92.5077 96.96 84.9278ZM98.5144 89.8787C98.505 90.0275 98.4964 90.1078 98.4956 90.1882C98.4371 96.1156 98.3799 102.042 98.3122 107.969C98.3093 108.267 98.4206 108.4 98.6642 108.531C100.714 109.641 102.329 111.214 103.53 113.218C103.59 113.321 103.665 113.414 103.791 113.59C105.388 106.382 106.963 99.2706 108.545 92.1273C105.169 91.3704 101.871 90.6301 98.5144 89.8787ZM103.704 119.74C103.759 113.645 98.8715 108.635 92.8128 108.575C86.754 108.515 81.7687 113.428 81.702 119.521C81.6351 125.636 86.5393 130.663 92.6178 130.713C98.6714 130.762 103.65 125.835 103.704 119.74ZM77.8653 112.38C79.2392 112.393 80.5765 112.393 81.9148 112.429C82.2671 112.438 82.4687 112.319 82.6797 112.043C84.7432 109.339 87.4395 107.675 90.7978 107.161C91.7095 107.021 92.6422 107.01 93.5912 106.938C93.6011 105.943 93.6112 104.915 93.6216 103.864C88.3893 103.812 83.1819 103.761 77.9509 103.709C77.9224 106.591 77.8942 109.449 77.8653 112.38ZM70.0406 98.9548C68.0888 97.6348 67.8002 95.5562 68.4217 94.0322C69.1855 92.1631 70.8251 91.3977 73.3103 91.7557C73.3171 91.0665 73.3238 90.3786 73.3312 89.6367C69.9686 90.3204 66.631 91.0005 63.2619 91.6855C64.8612 99.643 66.4468 107.533 68.0324 115.427C68.5851 115.433 69.0893 115.438 69.6355 115.443C69.1674 113.103 68.7043 110.788 68.2312 108.425C69.8941 108.083 71.5203 107.749 73.1426 107.416C73.148 106.861 73.1531 106.346 73.1584 105.808C71.3971 106.164 69.6739 106.512 67.9571 106.86C67.021 103.768 67.4287 101.084 70.0406 98.9548ZM75.4173 117.144C75.3429 117.122 75.3129 117.106 75.2828 117.105C71.8985 117.069 68.5158 117.014 65.131 117.026C64.6516 117.028 64.1094 117.281 63.7058 117.571C62.9037 118.147 62.6496 119.209 62.9679 120.14C63.2874 121.077 64.1533 121.727 65.1683 121.74C68.5027 121.782 71.8373 121.808 75.1732 121.84C75.2334 121.84 75.2952 121.821 75.3713 121.809C75.3867 120.247 75.4019 118.708 75.4173 117.144ZM73.2349 99.3923C70.5006 99.584 68.4898 102.524 69.2186 104.992C70.5364 104.723 71.8567 104.454 73.1876 104.182C73.2035 102.569 73.219 100.996 73.2349 99.3923ZM70.0803 109.658C70.4786 111.639 70.8632 113.547 71.2453 115.441C71.887 115.447 72.4816 115.453 73.0671 115.459C73.0883 113.308 73.1092 111.194 73.1305 109.037C72.1068 109.244 71.1198 109.446 70.0803 109.658ZM73.2936 95.5643C73.2973 95.1861 73.3011 94.8079 73.3048 94.4284C73.3144 93.4572 73.0486 93.1817 72.065 93.1694C71.8712 93.1675 71.6731 93.1985 71.4841 93.2427C70.1659 93.5539 69.3935 94.971 69.8207 96.2786C70.2391 97.5558 71.6665 98.246 72.8607 97.7557C73.1448 97.6399 73.306 97.4912 73.2859 97.1418C73.257 96.6183 73.2884 96.0901 73.2936 95.5643ZM80.1083 120.285C80.1135 119.761 80.1184 119.265 80.1234 118.755C79.0756 118.744 78.0567 118.734 77.0233 118.724C77.0181 119.247 77.0132 119.745 77.0082 120.254C78.0573 120.264 79.0776 120.274 80.1083 120.285Z" fill="#1934EF"/>
<path d="M76.4279 100.469C76.1439 97.2635 77.1342 94.7376 80.1188 93.2001C79.1852 92.2393 78.7142 91.1211 78.8779 89.7968C79.006 88.7583 79.4848 87.8919 80.2943 87.2277C81.8987 85.9125 84.213 86.0697 85.6311 87.5756C86.8275 88.8474 87.3633 91.2275 85.3865 93.2495C88.3141 94.8269 89.2726 97.3786 88.9213 100.592C84.7734 100.551 80.6125 100.51 76.4279 100.469ZM77.9955 98.9081C81.1467 98.9392 84.2651 98.97 87.3822 99.0008C87.4816 96.4898 85.3265 94.2821 82.7687 94.2437C80.1848 94.2037 77.9763 96.3419 77.9955 98.9081ZM85.131 90.333C85.1543 89.0391 84.125 87.9522 82.8456 87.9171C81.5387 87.8818 80.4425 88.9319 80.4191 90.2404C80.3957 91.5528 81.4498 92.6452 82.753 92.6581C84.0365 92.6694 85.1078 91.6217 85.131 90.333Z" fill="#1934EF"/>
<path d="M95.3664 86.4922C95.3613 87.014 95.3565 87.5003 95.3514 88.0129C93.7994 87.9976 92.2684 87.9825 90.698 87.967C90.7028 87.4794 90.7078 86.98 90.713 86.4463C92.2415 86.4613 93.7843 86.4766 95.3664 86.4922Z" fill="#1934EF"/>
<path d="M95.3468 89.6524C95.3417 90.173 95.337 90.6474 95.3319 91.1626C93.7839 91.1473 92.2423 91.1321 90.6628 91.1165C90.6676 90.6355 90.6725 90.1361 90.6777 89.6063C92.2179 89.6215 93.7595 89.6368 95.3468 89.6524Z" fill="#1934EF"/>
<path d="M95.304 92.8176C95.2988 93.3381 95.294 93.8257 95.289 94.3383C93.737 94.323 92.2059 94.3079 90.6356 94.2924C90.6404 93.8061 90.6453 93.3066 90.6506 92.7716C92.179 92.7867 93.7205 92.8019 95.304 92.8176Z" fill="#1934EF"/>
<path d="M90.5846 97.4456C90.5897 96.9291 90.5945 96.4415 90.5996 95.9275C92.1621 95.943 93.7036 95.9582 95.27 95.9736C95.265 96.481 95.2602 96.9673 95.255 97.4917C93.7135 97.4765 92.172 97.4613 90.5846 97.4456Z" fill="#1934EF"/>
<path d="M95.2415 99.1429C95.2364 99.6648 95.2316 100.151 95.2265 100.664C93.6745 100.648 92.1435 100.633 90.5731 100.618C90.5779 100.13 90.5829 99.6307 90.5881 99.097C92.1166 99.1121 93.6594 99.1273 95.2415 99.1429Z" fill="#1934EF"/>
<path d="M105.64 97.962C104.076 97.6105 102.597 97.2796 101.053 96.9335C101.162 96.4232 101.268 95.9367 101.386 95.3909C102.923 95.7355 104.427 96.072 105.98 96.4194C105.865 96.9468 105.757 97.4333 105.64 97.962Z" fill="#1934EF"/>
<path d="M106.663 93.3317C106.546 93.8643 106.44 94.3509 106.327 94.8756C104.778 94.5282 103.276 94.1905 101.737 93.8445C101.852 93.3198 101.955 92.8464 102.073 92.3059C103.61 92.6492 105.11 92.9843 106.663 93.3317Z" fill="#1934EF"/>
<path d="M99.3401 104.649C100.903 105.002 102.394 105.338 103.922 105.683C103.808 106.207 103.704 106.682 103.586 107.22C102.057 106.878 100.555 106.543 98.9896 106.193C99.1101 105.663 99.2224 105.167 99.3401 104.649Z" fill="#1934EF"/>
<path d="M100.357 100.017C100.482 99.4702 100.59 98.9955 100.707 98.48C102.243 98.8233 103.746 99.1598 105.297 99.5072C105.18 100.033 105.071 100.52 104.953 101.048C103.409 100.701 101.904 100.365 100.357 100.017Z" fill="#1934EF"/>
<path d="M104.612 102.594C104.493 103.137 104.388 103.614 104.273 104.137C102.731 103.79 101.225 103.451 99.6818 103.104C99.7984 102.576 99.9026 102.103 100.021 101.566C101.556 101.911 103.049 102.245 104.612 102.594Z" fill="#1934EF"/>
<path d="M92.6205 129.131C87.4248 129.085 83.226 124.787 83.2736 119.562C83.3214 114.332 87.5899 110.109 92.7856 110.156C97.9839 110.202 102.18 114.498 102.134 119.724C102.086 124.952 97.8149 129.177 92.6205 129.131ZM92.8092 111.737C88.4834 111.685 84.9071 115.175 84.846 119.51C84.7844 123.886 88.2631 127.495 92.5955 127.548C96.9384 127.602 100.516 124.088 100.561 119.723C100.605 115.377 97.1233 111.79 92.8092 111.737Z" fill="#1934EF"/>
<path d="M92.7704 114.872C92.7756 114.348 92.7804 113.861 92.7852 113.376C94.732 113.2 97.6991 114.628 98.6916 117.714C99.5609 120.417 98.393 123.679 96.0991 124.918C95.8359 124.51 95.5701 124.1 95.2876 123.663C97.1715 122.169 97.9105 120.288 97.0991 117.96C96.4736 116.167 94.9944 115.148 92.7704 114.872Z" fill="#1934EF"/>
<path d="M94.4675 125.76C93.8183 125.85 93.2635 125.926 92.668 126.008C92.6736 125.438 92.6785 124.938 92.6836 124.427C93.1204 124.364 93.548 124.304 94.0215 124.236C94.1597 124.705 94.299 125.184 94.4675 125.76Z" fill="#1934EF"/>
<path d="M59.8273 24.4978C59.7665 23.9942 59.5237 23.6036 59.0988 23.3262C58.6739 23.0488 58.1532 22.9108 57.5367 22.9122C57.086 22.9132 56.6917 22.9871 56.354 23.1337C56.0196 23.2803 55.7582 23.4814 55.5699 23.737C55.3849 23.9927 55.2927 24.2829 55.2935 24.6077C55.2941 24.8795 55.3593 25.113 55.489 25.3083C55.622 25.5002 55.7914 25.6605 55.9972 25.7893C56.203 25.9148 56.4187 26.0187 56.6442 26.1011C56.8698 26.1801 57.0771 26.2442 57.2661 26.2935L58.3008 26.5695C58.5662 26.6385 58.8614 26.734 59.1865 26.8558C59.5149 26.9777 59.8285 27.1444 60.1272 27.3558C60.4293 27.5639 60.6785 27.8318 60.8748 28.1595C61.0711 28.4872 61.1698 28.8896 61.1709 29.3669C61.1722 29.9171 61.0292 30.4146 60.7419 30.8594C60.4578 31.3042 60.041 31.6581 59.4915 31.9212C58.9452 32.1843 58.281 32.3168 57.4988 32.3186C56.7696 32.3202 56.1379 32.204 55.6038 31.9699C55.0729 31.7358 54.6546 31.4087 54.3487 30.9885C54.0461 30.5682 53.8743 30.0798 53.8332 29.523L55.1059 29.5201C55.14 29.9045 55.27 30.2224 55.4959 30.4737C55.7252 30.7218 56.014 30.9067 56.3623 31.0286C56.7139 31.1471 57.0918 31.2059 57.4962 31.2049C57.9668 31.2038 58.3892 31.1266 58.7634 30.9733C59.1376 30.8167 59.4337 30.6005 59.6518 30.3249C59.8699 30.046 59.9786 29.721 59.9777 29.3498C59.9769 29.0117 59.8818 28.7368 59.6924 28.5251C59.503 28.3135 59.254 28.1417 58.9455 28.0098C58.637 27.8779 58.3036 27.7627 57.9454 27.6641L56.6918 27.309C55.8958 27.0822 55.2653 26.7572 54.8003 26.334C54.3353 25.9108 54.102 25.3562 54.1004 24.6701C54.0991 24.1 54.2521 23.6025 54.5594 23.1776C54.8699 22.7493 55.2868 22.4169 55.8099 22.1804C56.3363 21.9405 56.9244 21.8199 57.574 21.8184C58.2302 21.8168 58.8138 21.9332 59.3248 22.1673C59.8357 22.3981 60.2408 22.7154 60.5401 23.119C60.8426 23.5227 61.0027 23.9814 61.0205 24.4951L59.8273 24.4978ZM66.2474 32.2785C65.5117 32.2802 64.8766 32.1193 64.3422 31.7957C63.8112 31.4688 63.4008 31.0123 63.1111 30.4263C62.8247 29.837 62.6806 29.1513 62.6788 28.3691C62.677 27.5869 62.8179 26.8972 63.1016 26.2999C63.3885 25.6994 63.7885 25.2311 64.3014 24.8952C64.8177 24.5559 65.4205 24.3855 66.1099 24.3839C66.5077 24.383 66.9006 24.4484 67.2886 24.5801C67.6767 24.7117 68.0302 24.9264 68.3491 25.2239C68.6679 25.5182 68.9224 25.9087 69.1124 26.3955C69.3025 26.8822 69.3983 27.4819 69.4 28.1945L69.4011 28.6917L63.5148 28.7052L63.5124 27.691L68.2056 27.6802C68.2046 27.2493 68.1175 26.8651 67.9444 26.5274C67.7746 26.1897 67.532 25.9235 67.2167 25.7287C66.9047 25.5338 66.5366 25.4369 66.1124 25.4379C65.645 25.439 65.2409 25.5559 64.9001 25.7887C64.5626 26.0182 64.3031 26.3171 64.1216 26.6854C63.9402 27.0537 63.8499 27.4483 63.8509 27.8692L63.8525 28.5454C63.8538 29.1221 63.9544 29.6107 64.1541 30.0113C64.3572 30.4086 64.638 30.7112 64.9964 30.9192C65.3549 31.1238 65.7711 31.2256 66.245 31.2245C66.5533 31.2238 66.8316 31.1801 67.0799 31.0933C67.3316 31.0033 67.5484 30.8702 67.7303 30.6941C67.9122 30.5147 68.0525 30.2923 68.1514 30.0269L69.2856 30.3425C69.1672 30.7273 68.9674 31.0658 68.6864 31.3581C68.4053 31.6471 68.0578 31.8733 67.6439 32.0366C67.23 32.1967 66.7645 32.2773 66.2474 32.2785ZM72.3436 21.9235L72.3671 32.1053L71.1938 32.108L71.1703 21.9262L72.3436 21.9235ZM77.7181 32.252C76.9823 32.2537 76.3472 32.0928 75.8129 31.7692C75.2818 31.4423 74.8714 30.9859 74.5817 30.3999C74.2953 29.8106 74.1512 29.1248 74.1494 28.3426C74.1476 27.5605 74.2886 26.8707 74.5722 26.2735C74.8592 25.6729 75.2592 25.2047 75.7721 24.8687C76.2884 24.5295 76.8912 24.359 77.5806 24.3575C77.9783 24.3565 78.3712 24.4219 78.7593 24.5536C79.1474 24.6853 79.5009 24.8999 79.8198 25.1975C80.1386 25.4917 80.3931 25.8822 80.5831 26.369C80.7732 26.8558 80.869 27.4555 80.8706 28.1681L80.8718 28.6652L74.9854 28.6788L74.9831 27.6646L79.6763 27.6538C79.6753 27.2229 79.5882 26.8386 79.4151 26.501C79.2453 26.1633 79.0027 25.897 78.6874 25.7022C78.3754 25.5074 78.0073 25.4104 77.583 25.4114C77.1157 25.4125 76.7116 25.5294 76.3708 25.7622C76.0332 25.9917 75.7737 26.2906 75.5923 26.6589C75.4109 27.0272 75.3206 27.4219 75.3216 27.8428L75.3231 28.5189C75.3245 29.0956 75.425 29.5843 75.6248 29.9848C75.8279 30.3821 76.1087 30.6847 76.4671 30.8927C76.8255 31.0974 77.2417 31.1992 77.7157 31.1981C78.0239 31.1974 78.3022 31.1536 78.5506 31.0669C78.8023 30.9768 79.0191 30.8437 79.201 30.6677C79.3829 30.4883 79.5232 30.2659 79.622 30.0005L80.7563 30.3161C80.6378 30.7008 80.4381 31.0393 80.1571 31.3316C79.876 31.6206 79.5285 31.8468 79.1146 32.0102C78.7007 32.1702 78.2352 32.2509 77.7181 32.252ZM85.7671 32.2335C85.0512 32.2351 84.4343 32.0675 83.9165 31.7306C83.3987 31.3938 82.9999 30.929 82.7201 30.3364C82.4403 29.7438 82.2996 29.0663 82.2978 28.304C82.296 27.5284 82.437 26.8437 82.7206 26.2497C83.0076 25.6525 83.4076 25.1859 83.9205 24.8499C84.4368 24.5107 85.0396 24.3403 85.729 24.3387C86.2659 24.3374 86.7501 24.4357 87.1814 24.6336C87.6127 24.8315 87.9664 25.1091 88.2423 25.4664C88.5182 25.8237 88.6898 26.2409 88.7572 26.718L87.5839 26.7208C87.4937 26.373 87.2941 26.0652 86.9852 25.7974C86.6797 25.5263 86.2684 25.3914 85.7513 25.3926C85.2939 25.3936 84.8932 25.5139 84.549 25.7533C84.2082 25.9894 83.9422 26.3231 83.7509 26.7545C83.563 27.1824 83.4697 27.6848 83.471 28.2615C83.4724 28.8515 83.5664 29.365 83.753 29.802C83.9429 30.2391 84.2088 30.5782 84.5508 30.8194C84.896 31.0605 85.3007 31.1806 85.7647 31.1795C86.0696 31.1788 86.3462 31.1251 86.5946 31.0185C86.8429 30.9119 87.053 30.7589 87.2249 30.5597C87.3968 30.3604 87.5189 30.1215 87.5911 29.8429L88.7644 29.8402C88.6992 30.2911 88.5361 30.6975 88.2751 31.0594C88.0174 31.4179 87.675 31.7037 87.2479 31.9169C86.8242 32.1266 86.3306 32.2322 85.7671 32.2335ZM93.5874 32.2154C92.8715 32.2171 92.2546 32.0495 91.7368 31.7126C91.219 31.3757 90.8202 30.911 90.5404 30.3184C90.2606 29.7257 90.1199 29.0482 90.1181 28.2859C90.1163 27.5104 90.2573 26.8256 90.5409 26.2317C90.8279 25.6344 91.2279 25.1678 91.7408 24.8319C92.2571 24.4926 92.8599 24.3222 93.5493 24.3206C94.0862 24.3194 94.5704 24.4177 95.0017 24.6156C95.433 24.8134 95.7866 25.091 96.0626 25.4484C96.3385 25.8057 96.5101 26.2229 96.5775 26.7L95.4042 26.7027C95.3139 26.3549 95.1144 26.0471 94.8055 25.7794C94.5 25.5083 94.0887 25.3734 93.5716 25.3746C93.1142 25.3756 92.7135 25.4959 92.3693 25.7353C92.0285 25.9714 91.7624 26.3051 91.5712 26.7364C91.3833 27.1644 91.29 27.6668 91.2913 28.2435C91.2927 28.8334 91.3866 29.3469 91.5733 29.784C91.7632 30.2211 92.0291 30.5602 92.3711 30.8013C92.7163 31.0425 93.121 31.1625 93.585 31.1615C93.8899 31.1608 94.1665 31.1071 94.4149 31.0005C94.6632 30.8938 94.8733 30.7409 95.0452 30.5416C95.2171 30.3424 95.3392 30.1034 95.4114 29.8249L96.5847 29.8222C96.5195 30.2731 96.3564 30.6795 96.0954 31.0413C95.8377 31.3999 95.4953 31.6857 95.0682 31.8988C94.6444 32.1086 94.1508 32.2141 93.5874 32.2154ZM98.3051 32.0455L98.2874 24.4091L99.4607 24.4064L99.4784 32.0428L98.3051 32.0455ZM98.8811 23.135C98.6524 23.1356 98.455 23.0581 98.2889 22.9027C98.1262 22.7473 98.0445 22.5603 98.044 22.3415C98.0435 22.1228 98.1243 21.9353 98.2864 21.7792C98.4517 21.623 98.6487 21.5447 98.8774 21.5441C99.1061 21.5436 99.3019 21.621 99.4646 21.7764C99.6307 21.9318 99.714 22.1189 99.7145 22.3377C99.715 22.5564 99.6326 22.7439 99.4672 22.9C99.3052 23.0562 99.1098 23.1345 98.8811 23.135ZM104.73 32.1898C104.041 32.1913 103.435 32.0287 102.914 31.7018C102.396 31.3748 101.991 30.9167 101.698 30.3274C101.408 29.7381 101.262 29.0491 101.261 28.2602C101.259 27.4648 101.401 26.7701 101.688 26.1762C101.979 25.5822 102.382 25.1206 102.898 24.7913C103.418 24.4619 104.022 24.2965 104.712 24.2949C105.401 24.2933 106.005 24.456 106.523 24.7829C107.044 25.1098 107.449 25.5696 107.739 26.1622C108.032 26.7548 108.179 27.4488 108.181 28.2443C108.183 29.0331 108.039 29.7228 107.748 30.3135C107.461 30.9041 107.058 31.3641 106.538 31.6934C106.022 32.0227 105.419 32.1882 104.73 32.1898ZM104.728 31.1358C105.251 31.1346 105.682 30.9993 106.019 30.7301C106.357 30.4609 106.606 30.1073 106.767 29.6694C106.929 29.2315 107.009 28.7574 107.008 28.247C107.007 27.7366 106.924 27.2611 106.761 26.8207C106.597 26.3803 106.346 26.0246 106.008 25.7536C105.669 25.4826 105.238 25.3477 104.714 25.3489C104.19 25.3501 103.76 25.487 103.423 25.7595C103.085 26.0321 102.836 26.3889 102.674 26.8301C102.513 27.2713 102.433 27.7471 102.434 28.2575C102.435 28.768 102.517 29.2417 102.681 29.6788C102.844 30.116 103.095 30.4684 103.434 30.7361C103.773 31.0037 104.204 31.137 104.728 31.1358ZM104.173 23.3615L105.38 21.0519L106.753 21.0487L105.207 23.3591L104.173 23.3615ZM111.144 27.4221L111.154 32.0158L109.981 32.0186L109.963 24.3822L111.097 24.3796L111.099 25.5728L111.199 25.5725C111.377 25.1843 111.648 24.8722 112.012 24.636C112.376 24.3965 112.846 24.2761 113.423 24.2748C113.94 24.2736 114.393 24.3786 114.781 24.5898C115.169 24.7978 115.472 25.1152 115.688 25.5423C115.905 25.9661 116.014 26.5027 116.015 27.1524L116.026 32.0046L114.853 32.0073L114.842 27.2346C114.841 26.6347 114.684 26.1677 114.371 25.8337C114.059 25.4963 113.631 25.3283 113.088 25.3296C112.713 25.3304 112.378 25.4124 112.084 25.5755C111.793 25.7386 111.563 25.9761 111.394 26.288C111.226 26.5999 111.142 26.978 111.144 27.4221Z" fill="#717171"/>
<defs>
<filter id="filter0_d_23_26" x="7.90802" y="38.0878" width="159.893" height="155.074" filterUnits="userSpaceOnUse" color-interpolation-filters="sRGB">
<feFlood flood-opacity="0" result="BackgroundImageFix"/>
<feColorMatrix in="SourceAlpha" type="matrix" values="0 0 0 0 0 0 0 0 0 0 0 0 0 0 0 0 0 0 127 0" result="hardAlpha"/>
<feOffset dx="2" dy="2"/>
<feGaussianBlur stdDeviation="5"/>
<feComposite in2="hardAlpha" operator="out"/>
<feColorMatrix type="matrix" values="0 0 0 0 0 0 0 0 0 0 0 0 0 0 0 0 0 0 0.1 0"/>
<feBlend mode="normal" in2="BackgroundImageFix" result="effect1_dropShadow_23_26"/>
<feBlend mode="normal" in="SourceGraphic" in2="effect1_dropShadow_23_26" result="shape"/>
</filter>
</defs>
</svg>
