<svg width="155" height="160" viewBox="0 0 155 160" fill="none" xmlns="http://www.w3.org/2000/svg">
<g filter="url(#filter0_d_1_75)">
<path d="M89.4843 145.24L132.787 120.206C138.934 116.654 142.718 110.091 142.718 102.983L142.718 52.9202C142.718 45.8123 138.934 39.2488 132.787 35.6971L89.4843 10.6636C83.337 7.11181 75.7691 7.11181 69.6218 10.6636L26.3191 35.6971C20.1718 39.2488 16.3879 45.8167 16.3879 52.9202L16.3879 72.3605L8.00003 77.9537L16.3879 83.547L16.3879 102.987C16.3879 110.091 20.1718 116.659 26.3191 120.21L69.6218 145.244C75.7691 148.791 83.337 148.791 89.4843 145.24Z" fill="white"/>
</g>
<path d="M71.8557 80.7051C71.8557 81.2572 71.8557 81.7462 71.8557 82.2641C71.7286 82.2733 71.6343 82.2852 71.5413 82.2852C67.7272 82.2865 63.9145 82.297 60.1004 82.2812C57.8293 82.272 56.0886 80.4533 56.1475 78.1959C56.2012 76.1703 57.862 74.469 59.8791 74.3873C60.3192 74.3688 60.7592 74.3846 61.2648 74.3846C59.5058 66.0519 57.7559 57.7678 55.9995 49.4496C60.0114 48.5903 63.9564 47.7469 67.9224 46.8969C67.9224 45.2614 67.9224 43.6497 67.9224 41.9998C76.3023 41.9998 84.6561 41.9998 93.0596 41.9998C93.0596 43.6062 93.0596 45.2272 93.0596 46.8837C97.0413 47.7364 100.984 48.5811 105 49.4403C104.878 50.0531 104.766 50.6409 104.642 51.2274C102.997 58.9961 101.35 66.7635 99.7119 74.5336C99.67 74.7312 99.6962 74.9579 99.7447 75.1582C101.492 82.2786 97.209 89.1867 90.0877 90.726C83.4825 92.1532 76.876 87.8597 75.3266 81.1162C75.2519 80.7894 75.1393 80.6919 74.8184 80.6985C73.8544 80.7182 72.8904 80.7051 71.8557 80.7051ZM91.4931 43.5772C84.144 43.5772 76.8367 43.5772 69.5282 43.5772C69.5282 53.8525 69.5282 64.0922 69.5282 74.386C70.3101 74.386 71.0685 74.386 71.8805 74.386C71.8805 74.9395 71.8805 75.4402 71.8805 75.9608C72.948 75.9608 73.9618 75.9661 74.9755 75.9529C75.0764 75.9516 75.2375 75.8606 75.265 75.7763C75.5807 74.7971 75.874 73.8114 76.1884 72.7795C74.5066 72.7795 72.8 72.7795 71.1025 72.7795C71.1025 68.8075 71.1025 64.8935 71.1025 60.9715C77.3895 60.9715 83.6476 60.9715 89.9358 60.9715C89.9358 61.1837 89.9358 61.3629 89.9358 61.5422C89.9358 62.86 89.9305 64.1779 89.9436 65.4957C89.945 65.6486 90.0144 65.9043 90.1113 65.9372C90.5514 66.0861 91.0137 66.1731 91.4918 66.2878C91.4931 58.6996 91.4931 51.1575 91.4931 43.5772ZM93.0963 48.5126C93.0884 48.6615 93.0806 48.7419 93.0806 48.8223C93.0806 54.75 93.0819 60.6763 93.0727 66.604C93.0727 66.9019 93.1853 67.0337 93.4303 67.1628C95.4905 68.2527 97.1212 69.8091 98.3419 71.8016C98.4035 71.9031 98.4795 71.9954 98.6065 72.1706C100.132 64.9475 101.637 57.8206 103.149 50.662C99.7657 49.9385 96.4598 49.2308 93.0963 48.5126ZM98.5803 78.3211C98.5751 72.226 93.6385 67.2643 87.5795 67.2643C81.5205 67.2643 76.5839 72.226 76.5774 78.3197C76.5708 84.4346 81.5244 89.4134 87.6031 89.4029C93.6569 89.3923 98.5869 84.4161 98.5803 78.3211ZM72.6703 71.2165C74.0443 71.2165 75.3816 71.2033 76.7202 71.2257C77.0725 71.231 77.2729 71.1098 77.4811 70.8317C79.5178 68.1077 82.1976 66.4169 85.5507 65.87C86.461 65.7211 87.3935 65.7013 88.3418 65.6196C88.3418 64.6246 88.3418 63.5967 88.3418 62.5451C83.1092 62.5451 77.9016 62.5451 72.6703 62.5451C72.6703 65.4272 72.6703 68.2856 72.6703 71.2165ZM64.7134 57.8693C62.7488 56.5686 62.4397 54.493 63.0461 52.963C63.7914 51.0863 65.4233 50.3049 67.9119 50.6383C67.9119 49.949 67.9119 49.2611 67.9119 48.5192C64.5563 49.2361 61.2255 49.949 57.8633 50.6673C59.5411 58.6086 61.2046 66.4828 62.868 74.3609C63.4207 74.3609 63.925 74.3609 64.4711 74.3609C63.98 72.0257 63.494 69.7155 62.9976 67.3565C64.6571 66.9981 66.2799 66.6488 67.8988 66.2996C67.8988 65.7448 67.8988 65.2295 67.8988 64.6918C66.1411 65.0648 64.4214 65.4298 62.7082 65.7949C61.7416 62.7124 62.1227 60.024 64.7134 57.8693ZM70.2695 76.0043C70.1949 75.9832 70.1647 75.9674 70.1346 75.9674C66.7501 75.9647 63.367 75.9423 59.9825 75.9885C59.5032 75.9951 58.9635 76.2533 58.5627 76.5472C57.7664 77.131 57.5228 78.1959 57.8502 79.1236C58.179 80.0567 59.0513 80.6985 60.0664 80.7011C63.4011 80.7103 66.7357 80.7037 70.0717 80.7024C70.132 80.7024 70.1935 80.6826 70.2695 80.6695C70.2695 79.1078 70.2695 77.5686 70.2695 76.0043ZM67.9119 58.2752C65.1797 58.494 63.198 61.4539 63.9512 63.9143C65.2662 63.6323 66.5838 63.3503 67.9119 63.0656C67.9119 61.4526 67.9119 59.879 67.9119 58.2752ZM64.8588 68.5716C65.2766 70.5484 65.6801 72.4527 66.0809 74.3425C66.7226 74.3425 67.3173 74.3425 67.9027 74.3425C67.9027 72.1917 67.9027 70.0779 67.9027 67.9206C66.8811 68.138 65.8962 68.3489 64.8588 68.5716ZM67.9329 54.4469C67.9329 54.0686 67.9329 53.6904 67.9329 53.3109C67.9329 52.3396 67.6644 52.0668 66.6807 52.0642C66.4869 52.0642 66.2891 52.0971 66.1005 52.1433C64.7855 52.4674 64.0271 53.892 64.4672 55.1954C64.8981 56.4684 66.3323 57.1445 67.5216 56.6424C67.8045 56.5238 67.9643 56.3736 67.9407 56.0243C67.9067 55.5011 67.9329 54.9727 67.9329 54.4469ZM74.9913 79.0986C74.9913 78.5754 74.9913 78.0786 74.9913 77.5686C73.9434 77.5686 72.9244 77.5686 71.891 77.5686C71.891 78.0917 71.891 78.5899 71.891 79.0986C72.9401 79.0986 73.9605 79.0986 74.9913 79.0986Z" fill="#1934EF"/>
<path d="M71.1155 59.3202C70.7998 56.1179 71.7651 53.5823 74.7344 52.0154C73.7913 51.0639 73.3093 49.9503 73.4599 48.6246C73.5778 47.5848 74.048 46.7137 74.8509 46.0416C76.4423 44.7105 78.758 44.845 80.1909 46.3368C81.3998 47.5966 81.9591 49.9714 80.0023 52.0128C82.9453 53.5612 83.929 56.1034 83.6094 59.3202C79.4613 59.3202 75.3002 59.3202 71.1155 59.3202ZM72.6675 57.7441C75.8189 57.7441 78.9374 57.7441 82.0547 57.7441C82.1293 55.2323 79.9525 53.046 77.3945 53.0328C74.8103 53.0183 72.623 55.1782 72.6675 57.7441ZM79.7181 49.099C79.7285 47.8049 78.6886 46.7282 77.4089 46.7058C76.1018 46.6834 75.016 47.7442 75.0055 49.0529C74.995 50.3654 76.0599 51.4474 77.3631 51.4474C78.6467 51.4461 79.7076 50.3878 79.7181 49.099Z" fill="#1934EF"/>
<path d="M89.9151 45.1573C89.9151 45.6792 89.9151 46.1655 89.9151 46.6781C88.363 46.6781 86.8318 46.6781 85.2614 46.6781C85.2614 46.1905 85.2614 45.691 85.2614 45.1573C86.7899 45.1573 88.3328 45.1573 89.9151 45.1573Z" fill="#1934EF"/>
<path d="M89.9267 48.3176C89.9267 48.8381 89.9267 49.3126 89.9267 49.8278C88.3785 49.8278 86.8369 49.8278 85.2573 49.8278C85.2573 49.3468 85.2573 48.8474 85.2573 48.3176C86.7976 48.3176 88.3392 48.3176 89.9267 48.3176Z" fill="#1934EF"/>
<path d="M89.9151 51.483C89.9151 52.0035 89.9151 52.4911 89.9151 53.0038C88.363 53.0038 86.8318 53.0038 85.2614 53.0038C85.2614 52.5175 85.2614 52.018 85.2614 51.483C86.7899 51.483 88.3315 51.483 89.9151 51.483Z" fill="#1934EF"/>
<path d="M85.2416 56.1574C85.2416 55.6408 85.2416 55.1532 85.2416 54.6392C86.8042 54.6392 88.3458 54.6392 89.9123 54.6392C89.9123 55.1466 89.9123 55.6329 89.9123 56.1574C88.3707 56.1574 86.829 56.1574 85.2416 56.1574Z" fill="#1934EF"/>
<path d="M89.9151 57.8087C89.9151 58.3305 89.9151 58.8168 89.9151 59.3295C88.363 59.3295 86.8318 59.3295 85.2614 59.3295C85.2614 58.8419 85.2614 58.3424 85.2614 57.8087C86.7899 57.8087 88.3328 57.8087 89.9151 57.8087Z" fill="#1934EF"/>
<path d="M100.301 56.5251C98.7335 56.189 97.2522 55.8728 95.704 55.542C95.8088 55.0307 95.9096 54.5431 96.0223 53.9961C97.5626 54.3256 99.0701 54.6472 100.626 54.9793C100.516 55.5077 100.413 55.9953 100.301 56.5251Z" fill="#1934EF"/>
<path d="M101.278 51.885C101.167 52.4187 101.066 52.9063 100.957 53.4321C99.4054 53.1 97.9004 52.7771 96.3575 52.4464C96.4675 51.9205 96.5658 51.4461 96.6784 50.9045C98.2187 51.2326 99.7223 51.5529 101.278 51.885Z" fill="#1934EF"/>
<path d="M94.0678 63.2739C95.6343 63.6112 97.1288 63.9328 98.6599 64.2622C98.5512 64.7881 98.4516 65.2638 98.339 65.8028C96.8066 65.476 95.3016 65.1558 93.7325 64.821C93.8478 64.2899 93.9552 63.7931 94.0678 63.2739Z" fill="#1934EF"/>
<path d="M95.0389 58.6324C95.1581 58.0842 95.2615 57.6084 95.3742 57.0918C96.9132 57.42 98.4194 57.7415 99.9741 58.0736C99.8615 58.6008 99.758 59.0884 99.6453 59.6181C98.0972 59.286 96.5896 58.9645 95.0389 58.6324Z" fill="#1934EF"/>
<path d="M99.319 61.1666C99.205 61.7108 99.1055 62.1892 98.9955 62.7137C97.4499 62.3816 95.9411 62.0574 94.3942 61.7253C94.5056 61.1969 94.6051 60.7224 94.7177 60.1848C96.2567 60.5142 97.7525 60.8331 99.319 61.1666Z" fill="#1934EF"/>
<path d="M87.5902 87.8215C82.3943 87.8267 78.1532 83.5701 78.1493 78.3448C78.1454 73.1142 82.372 68.8497 87.5679 68.8457C92.7664 68.8404 97.0048 73.0945 97.0101 78.3211C97.014 83.549 92.7847 87.8162 87.5902 87.8215ZM87.6072 70.4258C83.281 70.4166 79.7394 73.9418 79.7211 78.2776C79.7027 82.6542 83.2168 86.2282 87.5496 86.2387C91.8928 86.2493 95.4357 82.7003 95.437 78.3356C95.4384 73.9893 91.9216 70.4364 87.6072 70.4258Z" fill="#1934EF"/>
<path d="M87.5993 73.561C87.5993 73.0378 87.5993 72.5502 87.5993 72.0652C89.5443 71.8702 92.5254 73.2684 93.5483 76.3443C94.4442 79.0393 93.3086 82.3128 91.027 83.574C90.7598 83.1681 90.49 82.7609 90.2032 82.3273C92.0722 80.8144 92.7926 78.926 91.9582 76.6065C91.3151 74.8195 89.8259 73.8153 87.5993 73.561Z" fill="#1934EF"/>
<path d="M89.4038 84.4319C88.7555 84.5281 88.2015 84.6098 87.6068 84.6981C87.6068 84.1275 87.6068 83.628 87.6068 83.1167C88.043 83.0495 88.47 82.9849 88.9428 82.9125C89.0856 83.3803 89.2296 83.8574 89.4038 84.4319Z" fill="#1934EF"/>
<path d="M58.8291 104.454C58.7779 104.022 58.5705 103.687 58.2069 103.449C57.8433 103.21 57.3972 103.091 56.8688 103.091C56.4825 103.091 56.1444 103.153 55.8546 103.278C55.5677 103.403 55.3433 103.575 55.1813 103.794C55.0222 104.013 54.9427 104.261 54.9427 104.54C54.9427 104.772 54.9981 104.973 55.1089 105.14C55.2225 105.305 55.3674 105.443 55.5435 105.554C55.7197 105.662 55.9043 105.751 56.0975 105.822C56.2907 105.89 56.4683 105.946 56.6302 105.988L57.5166 106.227C57.7438 106.287 57.9967 106.369 58.2751 106.474C58.5563 106.579 58.8248 106.723 59.0805 106.905C59.339 107.084 59.5521 107.314 59.7197 107.595C59.8873 107.876 59.9711 108.221 59.9711 108.63C59.9711 109.102 59.8475 109.528 59.6004 109.909C59.356 110.29 58.9981 110.592 58.5265 110.817C58.0578 111.041 57.4881 111.153 56.8177 111.153C56.1927 111.153 55.6515 111.052 55.1941 110.851C54.7396 110.649 54.3816 110.368 54.1203 110.007C53.8617 109.646 53.7154 109.227 53.6813 108.75H54.7722C54.8006 109.079 54.9114 109.352 55.1046 109.568C55.3006 109.781 55.5478 109.94 55.8461 110.045C56.1472 110.147 56.4711 110.199 56.8177 110.199C57.2211 110.199 57.5833 110.133 57.9043 110.003C58.2254 109.869 58.4796 109.684 58.6671 109.449C58.8546 109.21 58.9484 108.932 58.9484 108.613C58.9484 108.324 58.8674 108.088 58.7055 107.906C58.5435 107.724 58.3305 107.576 58.0663 107.463C57.8021 107.349 57.5166 107.25 57.2097 107.165L56.1359 106.858C55.4541 106.662 54.9143 106.382 54.5166 106.018C54.1188 105.655 53.92 105.179 53.92 104.591C53.92 104.102 54.0521 103.676 54.3163 103.312C54.5833 102.946 54.9413 102.662 55.3901 102.46C55.8418 102.255 56.3461 102.153 56.9029 102.153C57.4654 102.153 57.9654 102.254 58.4029 102.456C58.8404 102.655 59.187 102.927 59.4427 103.274C59.7012 103.62 59.8376 104.014 59.8518 104.454H58.8291ZM64.3166 111.136C63.6859 111.136 63.1419 110.997 62.6845 110.719C62.23 110.437 61.8791 110.045 61.632 109.542C61.3877 109.037 61.2655 108.449 61.2655 107.778C61.2655 107.108 61.3877 106.517 61.632 106.005C61.8791 105.491 62.2229 105.091 62.6632 104.804C63.1064 104.514 63.6234 104.369 64.2144 104.369C64.5553 104.369 64.8919 104.426 65.2243 104.54C65.5567 104.653 65.8592 104.838 66.132 105.094C66.4047 105.346 66.622 105.682 66.784 106.099C66.9459 106.517 67.0269 107.031 67.0269 107.642V108.068H61.9814V107.199H66.0041C66.0041 106.829 65.9303 106.5 65.7825 106.21C65.6377 105.92 65.4303 105.692 65.1604 105.524C64.8933 105.356 64.578 105.272 64.2144 105.272C63.8138 105.272 63.4672 105.372 63.1746 105.571C62.8848 105.767 62.6618 106.022 62.5055 106.338C62.3493 106.653 62.2712 106.991 62.2712 107.352V107.932C62.2712 108.426 62.3564 108.845 62.5269 109.189C62.7002 109.53 62.9402 109.79 63.247 109.969C63.5538 110.145 63.9104 110.233 64.3166 110.233C64.5808 110.233 64.8195 110.196 65.0325 110.122C65.2484 110.045 65.4345 109.932 65.5908 109.781C65.747 109.628 65.8678 109.437 65.953 109.21L66.9246 109.483C66.8223 109.812 66.6504 110.102 66.409 110.352C66.1675 110.599 65.8692 110.792 65.5141 110.932C65.159 111.068 64.7598 111.136 64.3166 111.136ZM69.5624 102.272V111H68.5567V102.272H69.5624ZM74.1487 111.136C73.518 111.136 72.9739 110.997 72.5166 110.719C72.062 110.437 71.7112 110.045 71.464 109.542C71.2197 109.037 71.0975 108.449 71.0975 107.778C71.0975 107.108 71.2197 106.517 71.464 106.005C71.7112 105.491 72.0549 105.091 72.4953 104.804C72.9384 104.514 73.4555 104.369 74.0464 104.369C74.3873 104.369 74.7239 104.426 75.0563 104.54C75.3887 104.653 75.6913 104.838 75.964 105.094C76.2367 105.346 76.4541 105.682 76.616 106.099C76.7779 106.517 76.8589 107.031 76.8589 107.642V108.068H71.8134V107.199H75.8362C75.8362 106.829 75.7623 106.5 75.6146 106.21C75.4697 105.92 75.2623 105.692 74.9924 105.524C74.7254 105.356 74.41 105.272 74.0464 105.272C73.6458 105.272 73.2992 105.372 73.0066 105.571C72.7168 105.767 72.4938 106.022 72.3376 106.338C72.1813 106.653 72.1032 106.991 72.1032 107.352V107.932C72.1032 108.426 72.1884 108.845 72.3589 109.189C72.5322 109.53 72.7722 109.79 73.0791 109.969C73.3859 110.145 73.7424 110.233 74.1487 110.233C74.4129 110.233 74.6515 110.196 74.8646 110.122C75.0805 110.045 75.2666 109.932 75.4228 109.781C75.5791 109.628 75.6998 109.437 75.785 109.21L76.7566 109.483C76.6543 109.812 76.4825 110.102 76.241 110.352C75.9995 110.599 75.7012 110.792 75.3461 110.932C74.991 111.068 74.5918 111.136 74.1487 111.136ZM81.0478 111.136C80.4342 111.136 79.9058 110.991 79.4626 110.701C79.0194 110.412 78.6785 110.013 78.4399 109.504C78.2012 108.995 78.0819 108.415 78.0819 107.761C78.0819 107.096 78.2041 106.51 78.4484 106.001C78.6955 105.49 79.0393 105.091 79.4796 104.804C79.9228 104.514 80.4399 104.369 81.0308 104.369C81.491 104.369 81.9058 104.454 82.2751 104.625C82.6444 104.795 82.947 105.034 83.1828 105.341C83.4185 105.647 83.5649 106.005 83.6217 106.415H82.616C82.5393 106.116 82.3688 105.852 82.1046 105.622C81.8433 105.389 81.491 105.272 81.0478 105.272C80.6558 105.272 80.312 105.375 80.0166 105.579C79.7239 105.781 79.4953 106.067 79.3305 106.436C79.1685 106.802 79.0876 107.233 79.0876 107.727C79.0876 108.233 79.1671 108.673 79.3262 109.048C79.4881 109.423 79.7154 109.714 80.008 109.922C80.3035 110.129 80.6501 110.233 81.0478 110.233C81.3092 110.233 81.5464 110.187 81.7595 110.096C81.9725 110.005 82.1529 109.875 82.3006 109.704C82.4484 109.534 82.5535 109.329 82.616 109.091H83.6217C83.5649 109.477 83.4242 109.825 83.1998 110.135C82.9782 110.442 82.6842 110.686 82.3177 110.868C81.9541 111.047 81.5308 111.136 81.0478 111.136ZM87.7509 111.136C87.1373 111.136 86.6089 110.991 86.1657 110.701C85.7225 110.412 85.3816 110.013 85.143 109.504C84.9043 108.995 84.785 108.415 84.785 107.761C84.785 107.096 84.9072 106.51 85.1515 106.001C85.3987 105.49 85.7424 105.091 86.1828 104.804C86.6259 104.514 87.143 104.369 87.7339 104.369C88.1941 104.369 88.6089 104.454 88.9782 104.625C89.3475 104.795 89.6501 105.034 89.8859 105.341C90.1217 105.647 90.268 106.005 90.3248 106.415H89.3191C89.2424 106.116 89.072 105.852 88.8078 105.622C88.5464 105.389 88.1941 105.272 87.7509 105.272C87.3589 105.272 87.0151 105.375 86.7197 105.579C86.4271 105.781 86.1984 106.067 86.0336 106.436C85.8717 106.802 85.7907 107.233 85.7907 107.727C85.7907 108.233 85.8703 108.673 86.0293 109.048C86.1913 109.423 86.4185 109.714 86.7112 109.922C87.0066 110.129 87.3532 110.233 87.7509 110.233C88.0123 110.233 88.2495 110.187 88.4626 110.096C88.6756 110.005 88.856 109.875 89.0038 109.704C89.1515 109.534 89.2566 109.329 89.3191 109.091H90.3248C90.268 109.477 90.1274 109.825 89.9029 110.135C89.6813 110.442 89.3873 110.686 89.0208 110.868C88.6572 111.047 88.2339 111.136 87.7509 111.136ZM91.795 111V104.454H92.8006V111H91.795ZM92.3063 103.363C92.1103 103.363 91.9413 103.297 91.7992 103.163C91.66 103.03 91.5904 102.869 91.5904 102.682C91.5904 102.494 91.66 102.334 91.7992 102.2C91.9413 102.067 92.1103 102 92.3063 102C92.5024 102 92.67 102.067 92.8092 102.2C92.9512 102.334 93.0222 102.494 93.0222 102.682C93.0222 102.869 92.9512 103.03 92.8092 103.163C92.67 103.297 92.5024 103.363 92.3063 103.363ZM97.3017 111.136C96.7108 111.136 96.1923 110.995 95.7463 110.714C95.3031 110.433 94.9565 110.04 94.7065 109.534C94.4594 109.028 94.3358 108.437 94.3358 107.761C94.3358 107.079 94.4594 106.484 94.7065 105.976C94.9565 105.467 95.3031 105.072 95.7463 104.791C96.1923 104.51 96.7108 104.369 97.3017 104.369C97.8926 104.369 98.4097 104.51 98.8529 104.791C99.2989 105.072 99.6455 105.467 99.8926 105.976C100.143 106.484 100.268 107.079 100.268 107.761C100.268 108.437 100.143 109.028 99.8926 109.534C99.6455 110.04 99.2989 110.433 98.8529 110.714C98.4097 110.995 97.8926 111.136 97.3017 111.136ZM97.3017 110.233C97.7506 110.233 98.1199 110.118 98.4097 109.888C98.6994 109.657 98.9139 109.355 99.0531 108.98C99.1923 108.605 99.2619 108.199 99.2619 107.761C99.2619 107.324 99.1923 106.916 99.0531 106.538C98.9139 106.16 98.6994 105.855 98.4097 105.622C98.1199 105.389 97.7506 105.272 97.3017 105.272C96.8528 105.272 96.4835 105.389 96.1938 105.622C95.904 105.855 95.6895 106.16 95.5503 106.538C95.4111 106.916 95.3415 107.324 95.3415 107.761C95.3415 108.199 95.4111 108.605 95.5503 108.98C95.6895 109.355 95.904 109.657 96.1938 109.888C96.4835 110.118 96.8528 110.233 97.3017 110.233ZM96.8415 103.568L97.8813 101.591H99.0574L97.7279 103.568H96.8415ZM102.808 107.062V111H101.803V104.454L102.774 104.454V105.477H102.86C103.013 105.145 103.246 104.878 103.558 104.676C103.871 104.471 104.274 104.369 104.769 104.369C105.212 104.369 105.6 104.46 105.932 104.642C106.264 104.821 106.523 105.094 106.708 105.46C106.892 105.824 106.985 106.284 106.985 106.841V111H105.979V106.909C105.979 106.395 105.845 105.994 105.578 105.707C105.311 105.417 104.945 105.272 104.479 105.272C104.158 105.272 103.871 105.342 103.618 105.481C103.368 105.62 103.171 105.824 103.026 106.091C102.881 106.358 102.808 106.682 102.808 107.062Z" fill="#717171"/>
<defs>
<filter id="filter0_d_1_75" x="0" y="-0.000244141" width="154.718" height="159.904" filterUnits="userSpaceOnUse" color-interpolation-filters="sRGB">
<feFlood flood-opacity="0" result="BackgroundImageFix"/>
<feColorMatrix in="SourceAlpha" type="matrix" values="0 0 0 0 0 0 0 0 0 0 0 0 0 0 0 0 0 0 127 0" result="hardAlpha"/>
<feOffset dx="2" dy="2"/>
<feGaussianBlur stdDeviation="5"/>
<feComposite in2="hardAlpha" operator="out"/>
<feColorMatrix type="matrix" values="0 0 0 0 0 0 0 0 0 0 0 0 0 0 0 0 0 0 0.1 0"/>
<feBlend mode="normal" in2="BackgroundImageFix" result="effect1_dropShadow_1_75"/>
<feBlend mode="normal" in="SourceGraphic" in2="effect1_dropShadow_1_75" result="shape"/>
</filter>
</defs>
</svg>
