<svg width="155" height="160" fill="none" xmlns="http://www.w3.org/2000/svg"><g filter="url(#a)"><path d="m89.484 145.24 43.303-25.034a19.884 19.884 0 0 0 9.931-17.223V52.92a19.884 19.884 0 0 0-9.931-17.223L89.484 10.664a19.845 19.845 0 0 0-19.862 0L26.319 35.697a19.89 19.89 0 0 0-9.931 17.223v19.44L8 77.954l8.388 5.593v19.44a19.888 19.888 0 0 0 9.931 17.223l43.303 25.034a19.858 19.858 0 0 0 19.862-.004Z" fill="#fff"/></g><path d="M71.856 80.705v1.56c-.127.008-.222.02-.315.02-3.814.002-7.627.012-11.44-.004-2.272-.009-4.012-1.828-3.953-4.085.053-2.026 1.714-3.727 3.731-3.809.44-.018.88-.002 1.386-.002L55.999 49.45l11.923-2.553V42H93.06v4.884L105 49.44c-.122.613-.234 1.2-.358 1.787-1.645 7.77-3.292 15.536-4.93 23.307-.042.197-.016.424.033.624 1.747 7.12-2.536 14.029-9.657 15.568-6.605 1.427-13.212-2.866-14.761-9.61-.075-.327-.188-.424-.509-.418-.964.02-1.928.007-2.962.007Zm19.637-37.128H69.528v30.809h2.352v1.575c1.068 0 2.082.005 3.096-.008.1-.001.261-.092.289-.177.316-.979.609-1.965.923-2.996h-5.085V60.97h18.833v.571c0 1.318-.006 2.636.008 3.954.001.153.07.408.167.441.44.15.903.236 1.38.35.002-7.587.002-15.13.002-22.71Zm1.603 4.936c-.008.148-.015.229-.015.31 0 5.927 0 11.853-.008 17.781 0 .298.112.43.357.559 2.06 1.09 3.691 2.646 4.912 4.639.061.101.138.193.264.369l4.543-21.509-10.053-2.15ZM98.58 78.32c-.005-6.095-4.942-11.057-11-11.057-6.06 0-10.996 4.962-11.003 11.056-.006 6.115 4.947 11.093 11.026 11.083 6.054-.01 10.984-4.987 10.977-11.082Zm-25.91-7.105c1.374 0 2.712-.013 4.05.01.353.005.553-.116.761-.394 2.037-2.724 4.717-4.415 8.07-4.962.91-.149 1.843-.169 2.79-.25v-3.075h-15.67v8.671ZM64.713 57.87c-1.964-1.3-2.273-3.376-1.667-4.906.745-1.877 2.377-2.658 4.866-2.325V48.52l-10.049 2.148c1.678 7.942 3.342 15.816 5.005 23.694h1.603l-1.473-7.005 4.9-1.056v-1.608l-5.19 1.103c-.966-3.083-.585-5.771 2.005-7.926Zm5.556 18.135c-.074-.02-.104-.037-.134-.037-3.385-.002-6.768-.025-10.153.022-.479.006-1.018.264-1.42.558-.796.584-1.04 1.649-.712 2.577a2.35 2.35 0 0 0 2.216 1.577c3.335.01 6.67.003 10.006.001.06 0 .121-.02.197-.032v-4.666Zm-2.357-17.729c-2.732.219-4.714 3.179-3.96 5.64l3.96-.85v-4.79Zm-3.053 10.297 1.222 5.77h1.822v-6.421c-1.022.217-2.007.428-3.044.65Zm3.074-14.125V53.31c0-.971-.269-1.244-1.252-1.247-.194 0-.392.033-.58.08-1.316.323-2.074 1.748-1.634 3.051.431 1.273 1.865 1.95 3.055 1.447.282-.118.442-.268.419-.618-.034-.523-.008-1.051-.008-1.577Zm7.058 24.652v-1.53h-3.1v1.53h3.1Z" fill="#1934EF"/><path d="M71.115 59.32c-.315-3.202.65-5.738 3.62-7.305-.944-.951-1.426-2.065-1.275-3.39a3.836 3.836 0 0 1 1.39-2.583 3.902 3.902 0 0 1 5.34.295c1.21 1.26 1.77 3.634-.188 5.676 2.943 1.548 3.927 4.09 3.607 7.307H71.116Zm1.553-1.576h9.387c.074-2.512-2.103-4.698-4.66-4.711-2.585-.015-4.772 2.145-4.727 4.711Zm7.05-8.645c.01-1.294-1.03-2.37-2.31-2.393a2.373 2.373 0 0 0-2.403 2.347c-.01 1.312 1.055 2.394 2.358 2.394a2.376 2.376 0 0 0 2.355-2.348ZM89.915 45.157v1.521h-4.654v-1.52h4.654ZM89.927 48.318v1.51h-4.67v-1.51h4.67ZM89.915 51.483v1.52h-4.654v-1.52h4.654ZM85.242 56.157V54.64h4.67v1.518h-4.67ZM89.915 57.809v1.52h-4.654v-1.52h4.654ZM100.301 56.525l-4.597-.983.318-1.546c1.54.33 3.048.651 4.604.983-.11.529-.213 1.016-.325 1.546ZM101.278 51.885l-.321 1.547-4.6-.986.321-1.541 4.6.98ZM94.068 63.274l4.592.988-.321 1.54-4.606-.981.335-1.547ZM95.039 58.632l.335-1.54 4.6.982-.329 1.544-4.606-.986ZM99.319 61.167l-.323 1.547-4.602-.989.324-1.54c1.539.33 3.034.648 4.601.982ZM87.59 87.822c-5.196.005-9.437-4.252-9.44-9.477-.005-5.23 4.222-9.495 9.418-9.5 5.198-.005 9.437 4.25 9.442 9.476.004 5.228-4.225 9.495-9.42 9.5Zm.017-17.396c-4.326-.01-7.868 3.516-7.886 7.852-.018 4.376 3.496 7.95 7.829 7.96 4.343.011 7.886-3.538 7.887-7.902.001-4.347-3.515-7.9-7.83-7.91Z" fill="#1934EF"/><path d="M87.6 73.561v-1.496c1.944-.195 4.925 1.203 5.948 4.28.896 2.694-.24 5.968-2.521 7.229-.267-.406-.537-.813-.824-1.247 1.87-1.513 2.59-3.401 1.755-5.72-.643-1.787-2.132-2.792-4.359-3.046ZM89.404 84.432l-1.797.266v-1.581c.436-.068.863-.132 1.336-.205.143.468.287.945.46 1.52Z" fill="#1934EF"/><path d="M58.83 104.454a1.335 1.335 0 0 0-.623-1.005c-.364-.239-.81-.358-1.338-.358-.386 0-.725.062-1.014.187a1.619 1.619 0 0 0-.674.516c-.159.219-.238.467-.238.746 0 .232.055.433.166.6.113.165.258.303.434.414.177.108.361.197.554.268.194.068.371.124.533.166l.887.239c.227.06.48.142.758.247.281.105.55.249.806.431.258.179.471.409.639.69.167.281.251.626.251 1.035a2.3 2.3 0 0 1-.37 1.279c-.245.381-.603.683-1.075.908-.468.224-1.038.336-1.708.336-.625 0-1.166-.101-1.624-.302a2.588 2.588 0 0 1-1.074-.844 2.408 2.408 0 0 1-.439-1.257h1.091c.029.329.14.602.333.818a1.8 1.8 0 0 0 .741.477c.301.102.625.154.972.154.403 0 .765-.066 1.086-.196.321-.134.576-.319.763-.554.188-.239.281-.517.281-.836 0-.289-.08-.525-.242-.707a1.773 1.773 0 0 0-.64-.443 6.623 6.623 0 0 0-.856-.298l-1.074-.307c-.682-.196-1.222-.476-1.62-.84-.397-.363-.596-.839-.596-1.427 0-.489.132-.915.396-1.279.267-.366.625-.65 1.074-.852a3.62 3.62 0 0 1 1.513-.307c.562 0 1.062.101 1.5.303.437.199.784.471 1.04.818.258.346.395.74.409 1.18h-1.023Zm5.487 6.682c-.631 0-1.175-.139-1.632-.417a2.809 2.809 0 0 1-1.053-1.177c-.244-.505-.366-1.093-.366-1.764 0-.67.122-1.261.366-1.773a2.89 2.89 0 0 1 1.031-1.201c.443-.29.96-.435 1.551-.435.341 0 .678.057 1.01.171.333.113.635.298.908.554.273.252.49.588.652 1.005.162.418.243.932.243 1.543v.426H61.98v-.869h4.023c0-.37-.074-.699-.222-.989a1.67 1.67 0 0 0-.622-.686 1.74 1.74 0 0 0-.946-.252c-.4 0-.747.1-1.04.299-.29.196-.512.451-.669.767a2.251 2.251 0 0 0-.234 1.014v.58c0 .494.085.913.256 1.257.173.341.413.601.72.78.307.176.663.264 1.07.264.264 0 .503-.037.716-.111.215-.077.401-.19.558-.341.156-.153.277-.344.362-.571l.972.273a2.158 2.158 0 0 1-.516.869c-.242.247-.54.44-.895.58a3.327 3.327 0 0 1-1.197.204Zm5.245-8.864V111h-1.005v-8.728h1.005Zm4.587 8.864c-.631 0-1.175-.139-1.632-.417a2.809 2.809 0 0 1-1.053-1.177c-.244-.505-.367-1.093-.367-1.764 0-.67.123-1.261.367-1.773a2.89 2.89 0 0 1 1.031-1.201c.443-.29.96-.435 1.551-.435.341 0 .678.057 1.01.171.333.113.635.298.908.554.273.252.49.588.652 1.005.162.418.243.932.243 1.543v.426h-5.046v-.869h4.023c0-.37-.074-.699-.221-.989a1.67 1.67 0 0 0-.623-.686 1.74 1.74 0 0 0-.946-.252c-.4 0-.747.1-1.04.299-.29.196-.512.451-.668.767a2.25 2.25 0 0 0-.235 1.014v.58c0 .494.085.913.256 1.257.173.341.413.601.72.78.307.176.663.264 1.07.264.264 0 .502-.037.716-.111a1.53 1.53 0 0 0 .558-.341c.156-.153.277-.344.362-.571l.972.273a2.157 2.157 0 0 1-.516.869c-.242.247-.54.44-.895.58a3.327 3.327 0 0 1-1.197.204Zm6.899 0c-.614 0-1.142-.145-1.585-.435a2.824 2.824 0 0 1-1.023-1.197c-.239-.509-.358-1.089-.358-1.743 0-.665.122-1.251.366-1.76.248-.511.591-.91 1.032-1.197.443-.29.96-.435 1.55-.435.461 0 .876.085 1.245.256.37.17.672.409.908.716.235.306.382.664.439 1.074h-1.006a1.557 1.557 0 0 0-.511-.793c-.262-.233-.614-.35-1.057-.35a1.77 1.77 0 0 0-1.031.307 2.003 2.003 0 0 0-.686.857c-.163.366-.243.797-.243 1.291 0 .506.08.946.238 1.321.162.375.39.666.682.874.296.207.642.311 1.04.311.261 0 .498-.046.712-.137a1.463 1.463 0 0 0 .856-1.005h1.006a2.333 2.333 0 0 1-.422 1.044 2.357 2.357 0 0 1-.882.733c-.364.179-.787.268-1.27.268Zm6.703 0c-.614 0-1.142-.145-1.585-.435a2.824 2.824 0 0 1-1.023-1.197c-.239-.509-.358-1.089-.358-1.743 0-.665.122-1.251.367-1.76.247-.511.59-.91 1.03-1.197.444-.29.961-.435 1.552-.435.46 0 .875.085 1.244.256.37.17.672.409.908.716.236.306.382.664.439 1.074h-1.006a1.557 1.557 0 0 0-.511-.793c-.262-.233-.614-.35-1.057-.35a1.77 1.77 0 0 0-1.031.307 2.004 2.004 0 0 0-.686.857c-.162.366-.243.797-.243 1.291 0 .506.08.946.238 1.321.162.375.39.666.682.874.296.207.642.311 1.04.311.261 0 .498-.046.712-.137a1.464 1.464 0 0 0 .856-1.005h1.006a2.332 2.332 0 0 1-.422 1.044 2.357 2.357 0 0 1-.882.733c-.364.179-.787.268-1.27.268Zm4.044-.136v-6.546h1.006V111h-1.006Zm.511-7.637a.713.713 0 0 1-.507-.2.642.642 0 0 1-.209-.481c0-.188.07-.348.21-.482a.717.717 0 0 1 .506-.2c.196 0 .364.067.503.2a.639.639 0 0 1 .213.482.636.636 0 0 1-.213.481.698.698 0 0 1-.503.2Zm4.996 7.773c-.591 0-1.11-.141-1.556-.422a2.861 2.861 0 0 1-1.04-1.18c-.247-.506-.37-1.097-.37-1.773 0-.682.123-1.277.37-1.785.25-.509.597-.904 1.04-1.185.446-.281.965-.422 1.556-.422.59 0 1.108.141 1.55.422.447.281.793.676 1.04 1.185.251.508.376 1.103.376 1.785 0 .676-.125 1.267-.375 1.773a2.822 2.822 0 0 1-1.04 1.18c-.443.281-.96.422-1.551.422Zm0-.903c.449 0 .818-.115 1.108-.345.29-.231.504-.533.643-.908.14-.375.209-.781.209-1.219 0-.437-.07-.845-.209-1.223a2.06 2.06 0 0 0-.643-.916c-.29-.233-.66-.35-1.108-.35-.45 0-.819.117-1.108.35a2.06 2.06 0 0 0-.644.916c-.139.378-.209.786-.209 1.223 0 .438.07.844.21 1.219.138.375.353.677.643.908.29.23.659.345 1.108.345Zm-.46-6.665 1.04-1.977h1.175l-1.33 1.977h-.886Zm5.966 3.494V111h-1.005v-6.546h.971v1.023h.086c.153-.332.386-.599.698-.801.313-.205.716-.307 1.211-.307.443 0 .831.091 1.163.273.332.179.591.452.776.818.184.364.277.824.277 1.381V111h-1.006v-4.091c0-.514-.134-.915-.401-1.202-.267-.29-.633-.435-1.099-.435-.321 0-.608.07-.861.209-.25.139-.447.343-.592.61-.145.267-.218.591-.218.971Z" fill="#717171"/><defs><filter id="a" x="0" y="0" width="154.718" height="159.904" filterUnits="userSpaceOnUse" color-interpolation-filters="sRGB"><feFlood flood-opacity="0" result="BackgroundImageFix"/><feColorMatrix in="SourceAlpha" values="0 0 0 0 0 0 0 0 0 0 0 0 0 0 0 0 0 0 127 0" result="hardAlpha"/><feOffset dx="2" dy="2"/><feGaussianBlur stdDeviation="5"/><feComposite in2="hardAlpha" operator="out"/><feColorMatrix values="0 0 0 0 0 0 0 0 0 0 0 0 0 0 0 0 0 0 0.1 0"/><feBlend in2="BackgroundImageFix" result="effect1_dropShadow_1_75"/><feBlend in="SourceGraphic" in2="effect1_dropShadow_1_75" result="shape"/></filter></defs></svg>