<svg width="176" height="198" fill="none" xmlns="http://www.w3.org/2000/svg"><g filter="url(#a)"><path d="m153.281 100.677-24.393-43.666a19.884 19.884 0 0 0-17.075-10.184l-50.057-.737a19.884 19.884 0 0 0-17.368 9.677L18.72 98.697a19.844 19.844 0 0 0-.293 19.859l24.394 43.667a19.89 19.89 0 0 0 17.075 10.184l19.438.286 5.47 8.469 5.715-8.304 19.438.286a19.89 19.89 0 0 0 17.368-9.677l25.668-42.929a19.855 19.855 0 0 0 .288-19.861Z" fill="#fff"/></g><path d="m76.957 121.86-.015 1.559c-.127.008-.222.019-.315.018-3.814-.036-7.626-.064-11.44-.117-2.271-.032-3.994-1.867-3.913-4.124.074-2.025 1.752-3.71 3.77-3.772.44-.014.88.006 1.385.011L61.41 90.449c4.02-.82 7.974-1.624 11.948-2.434l.048-4.897 25.136.248-.048 4.884 11.914 2.674c-.128.611-.245 1.198-.375 1.783-1.722 7.752-3.445 15.503-5.16 23.257a1.47 1.47 0 0 0 .026.625c1.677 7.137-2.674 14.002-9.81 15.471-6.619 1.362-13.183-2.996-14.665-9.755-.072-.327-.183-.426-.504-.422-.965.01-1.928-.013-2.963-.023ZM96.96 84.928l-21.964-.217-.304 30.807 2.352.023-.015 1.575c1.067.011 2.08.026 3.095.023.1-.001.263-.09.29-.174.326-.976.63-1.959.954-2.987l-5.086-.051.117-11.807 18.832.186-.006.57c-.013 1.318-.03 2.636-.03 3.954-.001.153.066.409.163.443.438.153.9.245 1.376.364.077-7.588.151-15.13.226-22.71Zm1.554 4.95c-.009.15-.018.23-.018.31-.059 5.928-.116 11.854-.184 17.781-.003.298.109.431.352.562 2.05 1.11 3.665 2.683 4.866 4.687.06.103.135.196.261.372l4.754-21.463c-3.376-.757-6.674-1.497-10.03-2.248Zm5.19 29.862c.055-6.095-4.832-11.105-10.891-11.165-6.059-.06-11.044 4.853-11.111 10.946-.067 6.115 4.837 11.142 10.916 11.192 6.053.049 11.032-4.878 11.086-10.973Zm-25.839-7.36c1.374.013 2.712.013 4.05.049.352.009.554-.11.765-.386 2.063-2.704 4.76-4.368 8.118-4.882.912-.14 1.844-.151 2.793-.223l.03-3.074-15.67-.155-.086 8.671Zm-7.824-13.425c-1.952-1.32-2.24-3.399-1.62-4.923.764-1.869 2.404-2.634 4.89-2.276l.02-2.12c-3.362.684-6.7 1.365-10.07 2.05 1.6 7.957 3.186 15.847 4.771 23.741l1.603.016c-.468-2.34-.93-4.655-1.404-7.018l4.912-1.009.015-1.608-5.2 1.052c-.937-3.092-.53-5.776 2.083-7.905Zm5.376 18.189c-.074-.022-.104-.038-.134-.039-3.385-.036-6.767-.091-10.152-.079-.48.002-1.022.255-1.425.545-.802.576-1.056 1.638-.738 2.569a2.35 2.35 0 0 0 2.2 1.6c3.335.042 6.67.068 10.005.1.06 0 .122-.019.198-.031l.046-4.665Zm-2.182-17.752c-2.734.192-4.745 3.132-4.016 5.6l3.969-.81.047-4.79Zm-3.155 10.266 1.165 5.783 1.822.018.064-6.422c-1.024.207-2.011.409-3.05.621Zm3.214-14.094.01-1.136c.01-.97-.255-1.246-1.239-1.259a2.475 2.475 0 0 0-.58.074c-1.32.31-2.091 1.728-1.664 3.036.418 1.277 1.846 1.967 3.04 1.477.284-.116.445-.265.425-.614-.029-.524.002-1.052.008-1.578Zm6.814 24.721.015-1.53-3.1-.031-.015 1.53 3.1.031Z" fill="#1934EF"/><path d="M76.428 100.469c-.284-3.206.706-5.731 3.69-7.269-.933-.96-1.404-2.079-1.24-3.403a3.836 3.836 0 0 1 1.416-2.57 3.902 3.902 0 0 1 5.337.349c1.197 1.271 1.732 3.652-.245 5.674 2.928 1.577 3.887 4.129 3.535 7.342l-12.493-.123Zm1.568-1.56 9.386.092c.1-2.511-2.056-4.719-4.613-4.757-2.584-.04-4.793 2.098-4.773 4.664Zm7.135-8.576c.023-1.294-1.006-2.38-2.285-2.416a2.373 2.373 0 0 0-2.427 2.323c-.023 1.313 1.03 2.405 2.334 2.418a2.376 2.376 0 0 0 2.378-2.325ZM95.366 86.492l-.015 1.52c-1.552-.014-3.083-.03-4.653-.045l.015-1.52 4.653.045ZM95.347 89.652l-.015 1.51-4.67-.046.016-1.51 4.669.046ZM95.304 92.818l-.015 1.52-4.653-.046.015-1.52 4.653.046ZM90.585 97.446l.015-1.519 4.67.047-.015 1.518-4.67-.046ZM95.242 99.143l-.016 1.521-4.653-.046.015-1.521 4.654.046ZM105.64 97.962c-1.564-.352-3.043-.682-4.587-1.029.109-.51.215-.996.333-1.542l4.594 1.028c-.115.528-.223 1.014-.34 1.543ZM106.663 93.332c-.117.532-.223 1.019-.336 1.544l-4.59-1.032.336-1.538 4.59 1.026ZM99.34 104.649l4.582 1.034-.336 1.537-4.596-1.027.35-1.544ZM100.357 100.017l.35-1.537 4.59 1.027-.344 1.541-4.596-1.031ZM104.612 102.594l-.339 1.543-4.591-1.033.339-1.538c1.535.345 3.028.679 4.591 1.028ZM92.62 129.131c-5.195-.046-9.394-4.344-9.346-9.569.047-5.23 4.316-9.453 9.512-9.406 5.198.046 9.394 4.342 9.348 9.568-.048 5.228-4.32 9.453-9.513 9.407Zm.19-17.394c-4.327-.052-7.903 3.438-7.964 7.773-.062 4.376 3.417 7.985 7.75 8.038 4.342.054 7.92-3.46 7.965-7.825.044-4.346-3.438-7.933-7.752-7.986Z" fill="#1934EF"/><path d="m92.77 114.872.015-1.496c1.947-.176 4.914 1.252 5.907 4.338.869 2.703-.299 5.965-2.593 7.204l-.811-1.255c1.883-1.494 2.623-3.375 1.811-5.703-.625-1.793-2.105-2.812-4.329-3.088ZM94.468 125.76l-1.8.248.016-1.581 1.338-.191c.138.469.277.948.445 1.524Z" fill="#1934EF"/><path d="M59.827 24.498a1.56 1.56 0 0 0-.728-1.172c-.425-.277-.946-.415-1.562-.414-.451.001-.845.075-1.183.222a1.89 1.89 0 0 0-.784.603 1.442 1.442 0 0 0-.276.87c0 .273.065.506.195.701.133.192.302.352.508.481.206.126.422.23.647.312.226.08.433.143.622.193l1.035.276c.265.069.56.164.886.286.328.122.642.288.94.5.302.208.551.476.748.803.196.328.295.73.296 1.208a2.68 2.68 0 0 1-.43 1.492c-.283.445-.7.8-1.25 1.062-.546.263-1.21.396-1.992.398-.73.001-1.361-.115-1.895-.35-.531-.233-.95-.56-1.255-.98a2.809 2.809 0 0 1-.516-1.466l1.273-.003c.034.384.164.702.39.954.23.248.518.433.866.555a3.5 3.5 0 0 0 1.134.176c.47-.001.893-.078 1.267-.232.375-.156.67-.372.889-.648.218-.279.327-.604.326-.975-.001-.338-.096-.613-.286-.825a2.081 2.081 0 0 0-.746-.515 7.827 7.827 0 0 0-1-.346l-1.254-.355c-.796-.227-1.427-.552-1.892-.975-.465-.423-.698-.978-.7-1.664 0-.57.152-1.068.46-1.492a3.07 3.07 0 0 1 1.25-.998 4.23 4.23 0 0 1 1.764-.362c.656-.001 1.24.115 1.75.35.512.23.917.547 1.216.951.303.404.463.862.48 1.376l-1.193.003Zm6.42 7.78c-.735.002-1.37-.159-1.905-.482a3.27 3.27 0 0 1-1.23-1.37c-.287-.589-.431-1.275-.433-2.057-.002-.782.139-1.472.423-2.07.287-.6.687-1.068 1.2-1.404.516-.34 1.118-.51 1.808-.511.398-.001.79.064 1.179.196a2.92 2.92 0 0 1 1.06.644c.319.294.573.685.763 1.171.19.487.286 1.087.288 1.8l.001.497-5.886.013-.003-1.014 4.694-.01a2.504 2.504 0 0 0-.262-1.154 1.948 1.948 0 0 0-.727-.798c-.312-.195-.68-.292-1.105-.291-.467.001-.871.118-1.212.35a2.29 2.29 0 0 0-.778.897 2.629 2.629 0 0 0-.271 1.184l.002.676c0 .577.101 1.066.301 1.466.203.398.484.7.842.908.359.205.775.307 1.249.305.308 0 .587-.044.835-.13.252-.09.468-.224.65-.4.182-.18.322-.402.421-.667l1.135.316a2.513 2.513 0 0 1-.6 1.015 2.932 2.932 0 0 1-1.042.679c-.414.16-.88.24-1.397.242Zm6.097-10.354.023 10.181-1.173.003-.024-10.182 1.174-.002Zm5.374 10.328c-.736.002-1.37-.16-1.905-.483a3.27 3.27 0 0 1-1.231-1.37c-.287-.588-.43-1.274-.433-2.056-.001-.782.14-1.472.423-2.07.287-.6.687-1.068 1.2-1.404.516-.34 1.12-.51 1.809-.511.397-.002.79.064 1.178.196a2.92 2.92 0 0 1 1.06.644c.32.294.574.684.764 1.171.19.487.286 1.087.288 1.8v.496l-5.886.014-.002-1.014 4.693-.011a2.504 2.504 0 0 0-.26-1.153 1.948 1.948 0 0 0-.729-.799c-.312-.195-.68-.292-1.104-.29-.467 0-.871.117-1.212.35-.338.23-.597.529-.779.897a2.63 2.63 0 0 0-.27 1.184l.001.676c.002.577.102 1.065.302 1.466.203.397.484.7.842.908.359.204.775.306 1.249.305.308 0 .586-.044.835-.131a1.79 1.79 0 0 0 .65-.4c.182-.179.322-.401.421-.667l1.134.316a2.514 2.514 0 0 1-.599 1.016 2.934 2.934 0 0 1-1.042.678c-.414.16-.88.24-1.397.242Zm8.05-.019c-.717.002-1.334-.165-1.852-.502a3.305 3.305 0 0 1-1.196-1.395c-.28-.592-.42-1.27-.422-2.032-.002-.776.139-1.46.423-2.054a3.38 3.38 0 0 1 1.2-1.4c.516-.34 1.119-.51 1.808-.511a3.423 3.423 0 0 1 1.452.295 2.78 2.78 0 0 1 1.061.832c.276.358.448.775.515 1.252l-1.173.003c-.09-.348-.29-.656-.599-.924-.305-.27-.717-.406-1.234-.404a2.061 2.061 0 0 0-1.202.36c-.34.236-.607.57-.798 1.002-.188.427-.281.93-.28 1.507.001.59.095 1.103.282 1.54.19.437.456.776.798 1.017.345.242.75.362 1.214.36.305 0 .581-.054.83-.16.248-.107.458-.26.63-.46.172-.199.294-.438.366-.716l1.173-.003c-.065.451-.228.858-.489 1.22-.258.358-.6.644-1.027.857-.424.21-.917.315-1.48.316Zm7.82-.018c-.716.002-1.333-.166-1.851-.502a3.305 3.305 0 0 1-1.197-1.395c-.28-.592-.42-1.27-.422-2.032-.002-.776.14-1.46.423-2.054a3.38 3.38 0 0 1 1.2-1.4c.516-.34 1.119-.51 1.808-.511a3.425 3.425 0 0 1 1.453.295 2.78 2.78 0 0 1 1.06.832c.276.358.448.775.516 1.252l-1.174.003c-.09-.348-.29-.656-.599-.924-.305-.27-.716-.406-1.233-.404a2.061 2.061 0 0 0-1.203.36c-.34.236-.607.57-.798 1.001-.188.428-.281.93-.28 1.508.002.59.096 1.103.282 1.54.19.437.456.776.798 1.017.345.242.75.362 1.214.36.305 0 .582-.054.83-.16.248-.107.458-.26.63-.46.172-.199.294-.438.366-.716l1.174-.003c-.066.451-.229.858-.49 1.22a2.75 2.75 0 0 1-1.027.857c-.424.21-.917.315-1.48.316Zm4.717-.17-.018-7.636 1.174-.003.017 7.637-1.173.002Zm.576-8.91a.834.834 0 0 1-.592-.232.75.75 0 0 1-.245-.561.75.75 0 0 1 .242-.563.834.834 0 0 1 .591-.235c.23 0 .425.077.588.232.166.156.249.343.25.562a.743.743 0 0 1-.248.562.817.817 0 0 1-.586.235Zm5.849 9.055c-.689.001-1.295-.161-1.816-.488a3.342 3.342 0 0 1-1.216-1.375c-.29-.589-.436-1.278-.437-2.067-.002-.795.14-1.49.427-2.084a3.344 3.344 0 0 1 1.21-1.385c.52-.33 1.124-.494 1.814-.496.689-.002 1.293.161 1.811.488.521.327.926.787 1.216 1.38.293.592.44 1.286.442 2.081.002.79-.142 1.479-.433 2.07-.287.59-.69 1.05-1.21 1.38-.516.329-1.119.494-1.808.496Zm-.002-1.054c.523-.001.954-.137 1.291-.406.338-.27.587-.623.748-1.06.162-.439.242-.913.241-1.423a4.101 4.101 0 0 0-.247-1.426 2.415 2.415 0 0 0-.753-1.067c-.339-.271-.77-.406-1.294-.405-.524.001-.954.138-1.291.41-.338.273-.587.63-.749 1.071a4.109 4.109 0 0 0-.24 1.428c.001.51.083.984.247 1.42.163.438.414.79.753 1.058s.77.401 1.294.4Zm-.555-7.774 1.207-2.31 1.373-.003-1.546 2.31-1.034.002Zm6.971 4.06.01 4.594-1.173.003-.018-7.637 1.134-.002.002 1.193h.1c.178-.389.449-.7.813-.937.364-.24.834-.36 1.411-.361.517-.001.97.104 1.358.315.388.208.691.525.907.952.217.424.326.96.327 1.61l.011 4.853-1.173.002-.011-4.772c-.001-.6-.158-1.067-.471-1.401-.312-.338-.74-.506-1.283-.504-.375 0-.71.082-1.004.246a1.75 1.75 0 0 0-.69.712c-.168.312-.252.69-.25 1.134Z" fill="#717171"/><defs><filter id="a" x="7.908" y="38.088" width="159.893" height="155.074" filterUnits="userSpaceOnUse" color-interpolation-filters="sRGB"><feFlood flood-opacity="0" result="BackgroundImageFix"/><feColorMatrix in="SourceAlpha" values="0 0 0 0 0 0 0 0 0 0 0 0 0 0 0 0 0 0 127 0" result="hardAlpha"/><feOffset dx="2" dy="2"/><feGaussianBlur stdDeviation="5"/><feComposite in2="hardAlpha" operator="out"/><feColorMatrix values="0 0 0 0 0 0 0 0 0 0 0 0 0 0 0 0 0 0 0.1 0"/><feBlend in2="BackgroundImageFix" result="effect1_dropShadow_23_26"/><feBlend in="SourceGraphic" in2="effect1_dropShadow_23_26" result="shape"/></filter></defs></svg>