<svg width="155" height="160" fill="none" xmlns="http://www.w3.org/2000/svg"><g filter="url(#a)"><path d="m81.378 145.244 43.302-25.033a19.89 19.89 0 0 0 9.932-17.223v-19.44L143 77.953l-8.388-5.593V52.92a19.889 19.889 0 0 0-9.932-17.224L81.378 10.664a19.845 19.845 0 0 0-19.863 0L18.212 35.697a19.89 19.89 0 0 0-9.93 17.223v50.068a19.89 19.89 0 0 0 9.93 17.223l43.303 25.033a19.843 19.843 0 0 0 19.863 0Z" fill="#fff"/></g><path d="M38 67.651c.418-.23.816-.585 1.261-.666 1.93-.345 3.872-.623 5.814-.89.405-.055.599-.24.764-.59.845-1.78 1.718-3.546 2.564-5.324.235-.493.532-.883 1.111-.883.58 0 .876.39 1.112.885.848 1.777 1.72 3.544 2.565 5.324.166.349.358.525.764.58 1.965.266 3.921.59 5.882.87.541.076.98.253 1.149.823.162.55-.142.928-.501 1.282-1.41 1.393-2.827 2.779-4.207 4.202-.203.209-.344.625-.302.912.286 1.911.63 3.814.954 5.718.02.109.032.22.05.33.074.487.036.94-.402 1.252-.435.31-.855.203-1.288-.032-1.75-.948-3.51-1.874-5.256-2.833-.36-.197-.64-.217-1.015-.01-1.722.953-3.466 1.865-5.197 2.802-.445.24-.877.41-1.349.087-.5-.342-.497-.846-.408-1.373.325-1.928.635-3.859.984-5.782.088-.483.028-.818-.345-1.174-1.26-1.199-2.481-2.439-3.712-3.668-.338-.338-.661-.696-.99-1.045-.003-.262-.003-.53-.003-.796Zm3.61 1.123c1.041 1.145 2.09 2.333 3.18 3.48.439.462.592.917.472 1.559-.297 1.566-.532 3.142-.813 4.84 1.143-.612 2.172-1.176 3.214-1.714 2.193-1.135 1.494-1.167 3.725 0 1.037.541 2.063 1.099 3.204 1.708-.206-1.225-.408-2.314-.569-3.407-.401-2.735-.741-1.953 1.234-3.965.78-.795 1.508-1.643 2.258-2.466-.094-.02-.258-.06-.424-.087-1.4-.214-2.797-.447-4.202-.623-.618-.079-.974-.392-1.23-.94-.6-1.282-1.229-2.552-1.848-3.825-.08-.164-.183-.32-.318-.55-.712 1.467-1.403 2.826-2.032 4.214-.304.671-.705 1.086-1.46 1.126-.476.024-.948.135-1.421.206-1.049.153-2.096.312-2.97.444ZM85.992 80.402c.28-1.673.515-3.484.906-5.262.236-1.067.071-1.805-.773-2.54-1.274-1.11-2.422-2.371-3.631-3.56-.365-.36-.646-.744-.47-1.29.183-.569.634-.715 1.171-.791 1.963-.276 3.921-.6 5.886-.868.385-.053.562-.228.717-.554.846-1.78 1.713-3.548 2.56-5.328.232-.488.514-.897 1.096-.91.614-.014.914.405 1.158.918.848 1.78 1.717 3.546 2.564 5.327.157.33.338.49.722.542 1.986.269 3.966.593 5.95.878.518.075.929.258 1.1.794.164.517-.082.898-.431 1.242-1.426 1.41-2.836 2.836-4.276 4.228-.31.302-.385.592-.314 1 .339 1.904.658 3.81.983 5.716.022.132.077.278.042.395-.112.383-.157.916-.417 1.088-.292.193-.862.198-1.19.034-1.798-.9-3.567-1.865-5.328-2.84-.396-.22-.694-.198-1.075.01a340.363 340.363 0 0 1-5.318 2.859c-.857.449-1.653-.034-1.632-1.088Zm7.514-17.64c-.157.29-.267.472-.36.663-.609 1.254-1.226 2.502-1.816 3.765-.246.527-.593.834-1.185.898-.865.094-1.724.246-2.586.378-.715.11-1.43.226-1.958.31 1.039 1.147 2.086 2.336 3.17 3.489.416.442.627.887.463 1.494-.075.278-.104.567-.151.852-.215 1.307-.43 2.613-.662 4.036 1.457-.777 2.816-1.47 4.143-2.225.635-.363 1.181-.41 1.827-.021.917.552 1.88 1.022 2.826 1.526.41.218.826.43 1.34.697-.286-1.714-.526-3.292-.821-4.86-.117-.617.038-1.068.474-1.49.983-.946 1.935-1.926 2.918-2.872.164-.158.419-.219.632-.326-.076-.097-.149-.194-.224-.292-1.373-.203-2.743-.452-4.121-.591-.96-.096-1.59-.454-1.984-1.414-.55-1.336-1.245-2.615-1.925-4.017ZM64.006 85.745c.28-1.672.515-3.484.906-5.261.235-1.067.073-1.805-.773-2.54-1.276-1.11-2.422-2.371-3.631-3.561-.365-.36-.646-.743-.47-1.29.183-.568.634-.716 1.17-.79 1.962-.277 3.92-.601 5.885-.868.385-.054.562-.228.717-.554.846-1.78 1.713-3.548 2.56-5.328.232-.488.515-.898 1.096-.912.614-.014.914.404 1.158.917.848 1.78 1.717 3.547 2.564 5.328.157.33.338.49.722.542 1.986.269 3.966.593 5.95.878.519.075.929.258 1.1.793.164.516-.082.897-.431 1.241-1.426 1.41-2.836 2.836-4.275 4.229-.311.3-.386.591-.315.999.339 1.904.658 3.81.983 5.716.023.132.077.278.042.395-.112.383-.156.916-.417 1.089-.292.192-.862.197-1.19.034a145.93 145.93 0 0 1-5.328-2.842c-.394-.219-.694-.199-1.075.011-1.764.97-3.538 1.92-5.318 2.859-.855.453-1.65-.028-1.63-1.085Zm12.567-1.761c-.286-1.714-.534-3.306-.825-4.892-.108-.588.024-1.031.443-1.439 1.028-.996 2.036-2.01 3.05-3.02.127-.127.234-.275.356-.421-.101-.059-.136-.095-.174-.102-1.035-.155-2.072-.29-3.103-.461-2.652-.44-2.055.062-3.263-2.387-.502-1.02-.998-2.045-1.556-3.19-.66 1.36-1.32 2.561-1.827 3.826-.433 1.076-1.093 1.58-2.24 1.664-1.334.096-2.657.374-3.986.573-.061.086-.123.171-.182.257.206.119.447.2.614.361.981.948 1.936 1.924 2.918 2.872.44.424.616.892.45 1.498-.07.254-.094.523-.138.787l-.673 4.086c1.49-.798 2.867-1.505 4.216-2.267.598-.339 1.111-.342 1.711-.004 1.347.759 2.724 1.468 4.21 2.259ZM78.828 47.898c.174 4.444-2.745 7.22-5.635 7.926-4.359 1.064-8.756-2.234-9.007-6.804-.114-2.086.087-4.088 1.33-5.857 1.861-2.65 5.138-3.789 8.166-2.823 3.008.96 5.067 3.76 5.144 6.995.005.224.002.447.002.563Zm-2.094.156c0-.222.005-.445 0-.668-.065-2.688-1.984-4.855-4.621-5.219-2.48-.342-4.98 1.319-5.613 3.864-.233.928-.252 1.943-.201 2.909.164 3.138 3.1 5.434 6.123 4.855 2.692-.516 4.315-2.673 4.312-5.74Z" fill="#2AB981"/><path d="M57.991 65.608c0-1.398-.153-2.793.033-4.136.355-2.536 2.518-4.355 5.036-4.364 5.626-.023 11.252-.026 16.877 0 2.84.015 5.1 2.33 5.165 5.218.025 1.084.004 2.17.004 3.288h-2.092c0-1.051.012-2.11-.004-3.167-.024-1.595-1.066-2.864-2.586-3.157-.276-.053-.563-.051-.846-.051-5.387-.004-10.772-.004-16.158-.002-2.164 0-3.436 1.313-3.44 3.541v2.83h-1.989Z" fill="#2AB981"/><path d="M50.58 103.21v-.937h6.544v.937H54.38V111h-1.057v-7.79H50.58Zm9.075 7.943c-.415 0-.791-.078-1.13-.234a1.94 1.94 0 0 1-.805-.686c-.199-.301-.298-.665-.298-1.091 0-.375.074-.679.221-.912.148-.236.346-.42.593-.554.247-.133.52-.233.818-.298.301-.068.603-.122.907-.162.398-.051.72-.09.968-.115.25-.029.432-.075.545-.141.117-.065.175-.179.175-.341v-.034c0-.42-.115-.747-.345-.98-.227-.233-.573-.349-1.036-.349-.48 0-.856.105-1.129.315-.273.21-.464.435-.575.673l-.955-.341c.17-.397.398-.707.682-.929.287-.224.6-.38.938-.468a3.89 3.89 0 0 1 1.005-.137 4 4 0 0 1 .725.077c.275.048.54.149.796.303.26.153.474.385.644.694.17.31.256.725.256 1.245V111h-1.006v-.886h-.051a1.773 1.773 0 0 1-.341.456c-.16.162-.37.299-.635.413-.264.114-.587.17-.967.17Zm.153-.903c.398 0 .733-.078 1.006-.234a1.601 1.601 0 0 0 .835-1.385v-.921c-.043.051-.136.098-.281.141-.142.04-.307.075-.495.106a20.993 20.993 0 0 1-.963.128 3.89 3.89 0 0 0-.733.166 1.261 1.261 0 0 0-.545.337c-.136.148-.205.349-.205.605 0 .35.13.614.388.793.262.176.593.264.993.264Zm5.688-7.977V111H64.49v-8.727h1.006Zm4.586 8.863c-.63 0-1.174-.139-1.632-.417a2.806 2.806 0 0 1-1.052-1.176c-.245-.506-.367-1.094-.367-1.765 0-.67.122-1.261.367-1.772.247-.515.59-.915 1.03-1.202.444-.29.961-.435 1.552-.435.34 0 .677.057 1.01.171.332.113.635.298.908.554.272.253.49.588.652 1.005.162.418.243.932.243 1.543v.426h-5.046v-.869h4.023a2.15 2.15 0 0 0-.222-.989 1.67 1.67 0 0 0-.622-.686 1.747 1.747 0 0 0-.946-.251c-.4 0-.747.099-1.04.298-.29.196-.513.452-.669.767a2.25 2.25 0 0 0-.234 1.014v.58c0 .494.085.913.255 1.257.174.341.414.601.72.78.308.176.664.264 1.07.264.265 0 .503-.037.716-.111a1.53 1.53 0 0 0 .558-.341c.157-.153.277-.344.363-.571l.971.273a2.157 2.157 0 0 1-.515.869c-.242.247-.54.441-.895.58a3.327 3.327 0 0 1-1.198.204Zm5.246-4.074V111h-1.006v-6.545h.972v1.022h.085c.153-.332.386-.599.699-.801.313-.204.716-.307 1.21-.307.443 0 .831.091 1.164.273.332.179.59.452.775.818.185.364.277.824.277 1.381V111h-1.006v-4.091c0-.514-.133-.915-.4-1.202-.267-.289-.634-.434-1.1-.434-.32 0-.608.069-.86.209-.25.139-.448.342-.593.609-.145.267-.217.591-.217.971Zm8.86-2.607v.852h-3.392v-.852h3.392Zm-2.403-1.569h1.006v6.239c0 .284.04.497.123.639a.64.64 0 0 0 .324.281c.134.046.274.069.422.069.11 0 .202-.006.273-.017l.17-.035.205.904a2.191 2.191 0 0 1-.75.119c-.284 0-.563-.061-.836-.183a1.657 1.657 0 0 1-.673-.558c-.176-.25-.264-.566-.264-.946v-6.512Zm6.505 8.25c-.59 0-1.11-.14-1.555-.422a2.861 2.861 0 0 1-1.04-1.18c-.247-.506-.37-1.097-.37-1.773 0-.681.123-1.277.37-1.785.25-.509.596-.904 1.04-1.185.446-.281.964-.422 1.555-.422.59 0 1.108.141 1.551.422.446.281.793.676 1.04 1.185.25.508.375 1.104.375 1.785 0 .676-.125 1.267-.375 1.773a2.822 2.822 0 0 1-1.04 1.18c-.443.282-.96.422-1.551.422Zm0-.903c.449 0 .818-.115 1.108-.345.29-.23.504-.533.643-.908.14-.375.21-.781.21-1.219 0-.437-.07-.845-.21-1.223a2.065 2.065 0 0 0-.643-.916c-.29-.233-.66-.349-1.108-.349-.449 0-.818.116-1.108.349-.29.233-.504.539-.643.916-.14.378-.21.786-.21 1.223 0 .438.07.844.21 1.219.139.375.353.678.643.908.29.23.66.345 1.108.345Z" fill="#717171"/><defs><filter id="a" x=".281" y="0" width="154.718" height="159.908" filterUnits="userSpaceOnUse" color-interpolation-filters="sRGB"><feFlood flood-opacity="0" result="BackgroundImageFix"/><feColorMatrix in="SourceAlpha" values="0 0 0 0 0 0 0 0 0 0 0 0 0 0 0 0 0 0 127 0" result="hardAlpha"/><feOffset dx="2" dy="2"/><feGaussianBlur stdDeviation="5"/><feComposite in2="hardAlpha" operator="out"/><feColorMatrix values="0 0 0 0 0 0 0 0 0 0 0 0 0 0 0 0 0 0 0.1 0"/><feBlend in2="BackgroundImageFix" result="effect1_dropShadow_3_97"/><feBlend in="SourceGraphic" in2="effect1_dropShadow_3_97" result="shape"/></filter></defs></svg>