<svg width="161" height="179" fill="none" xmlns="http://www.w3.org/2000/svg"><g filter="url(#a)"><path d="m145.74 70.558-24.737-43.473a19.889 19.889 0 0 0-17.155-10.049l-19.44-.132-5.535-8.426-5.65 8.35-19.44-.133a19.89 19.89 0 0 0-17.291 9.813l-25.329 43.13a19.844 19.844 0 0 0-.136 19.862l24.737 43.473a19.89 19.89 0 0 0 17.155 10.049l50.066.342a19.892 19.892 0 0 0 17.291-9.813l25.329-43.131a19.845 19.845 0 0 0 .135-19.862Z" fill="#fff"/></g><path d="M44 80.651c.419-.23.817-.585 1.262-.666 1.93-.345 3.872-.623 5.814-.89.404-.055.598-.24.764-.59.845-1.78 1.717-3.546 2.563-5.324.236-.493.532-.883 1.112-.883.58 0 .876.39 1.111.885.848 1.777 1.72 3.544 2.565 5.324.166.349.358.525.765.58 1.964.266 3.92.59 5.882.87.54.076.979.253 1.148.823.162.55-.141.928-.5 1.282-1.41 1.393-2.828 2.779-4.208 4.202-.202.209-.343.625-.302.912.287 1.911.63 3.814.955 5.718.019.109.031.22.049.33.075.487.036.94-.402 1.252-.434.31-.855.203-1.287-.032-1.75-.948-3.511-1.874-5.256-2.833-.361-.197-.64-.217-1.016-.01-1.722.953-3.465 1.865-5.196 2.802-.445.24-.878.41-1.349.087-.5-.342-.497-.846-.408-1.373.324-1.928.635-3.859.984-5.782.087-.483.028-.818-.346-1.174-1.26-1.199-2.48-2.439-3.711-3.668-.339-.338-.662-.696-.991-1.045-.002-.262-.002-.53-.002-.796Zm3.61 1.123c1.042 1.145 2.09 2.333 3.181 3.48.438.462.592.917.471 1.559-.296 1.566-.532 3.142-.813 4.84 1.143-.612 2.173-1.176 3.215-1.714 2.193-1.135 1.493-1.167 3.725 0 1.036.541 2.062 1.099 3.204 1.708-.206-1.225-.409-2.314-.57-3.407-.4-2.735-.74-1.953 1.234-3.965.78-.795 1.508-1.643 2.258-2.466-.094-.02-.258-.06-.424-.087-1.4-.214-2.797-.447-4.202-.623-.617-.079-.973-.392-1.23-.94-.6-1.282-1.228-2.552-1.847-3.825-.08-.164-.184-.32-.318-.55-.712 1.467-1.403 2.826-2.033 4.214-.304.671-.705 1.086-1.459 1.126-.476.024-.949.135-1.422.206-1.048.153-2.096.312-2.97.444ZM91.993 93.402c.279-1.673.514-3.484.905-5.262.236-1.067.072-1.805-.773-2.54-1.273-1.11-2.422-2.371-3.63-3.56-.366-.36-.647-.744-.47-1.29.183-.569.633-.715 1.17-.791 1.964-.276 3.922-.6 5.886-.868.386-.053.562-.228.718-.554.846-1.78 1.713-3.548 2.56-5.328.231-.488.514-.897 1.095-.91.614-.014.914.405 1.159.918.848 1.78 1.717 3.546 2.563 5.327.157.33.339.49.722.542 1.986.269 3.967.593 5.951.878.518.075.928.258 1.099.794.164.517-.082.898-.431 1.242-1.426 1.41-2.836 2.836-4.275 4.228-.311.302-.386.592-.314 1 .338 1.904.658 3.81.982 5.716.023.132.077.278.042.395-.112.383-.157.916-.417 1.088-.291.193-.862.198-1.19.034a145.674 145.674 0 0 1-5.327-2.84c-.396-.22-.695-.198-1.075.01a340.363 340.363 0 0 1-5.319 2.859c-.856.449-1.652-.034-1.631-1.088Zm7.514-17.64c-.158.29-.267.472-.36.663-.609 1.254-1.227 2.502-1.817 3.765-.245.527-.593.834-1.184.898-.866.094-1.724.246-2.586.378-.716.11-1.431.226-1.958.31 1.038 1.147 2.085 2.336 3.17 3.489.416.442.627.887.463 1.494-.075.278-.105.567-.152.852-.215 1.307-.43 2.613-.661 4.036 1.457-.777 2.816-1.47 4.142-2.225.635-.363 1.182-.41 1.827-.021.918.552 1.881 1.022 2.827 1.526.41.218.825.43 1.34.697-.286-1.714-.527-3.292-.822-4.86-.117-.617.039-1.068.475-1.49.982-.946 1.935-1.926 2.917-2.872.164-.158.419-.219.632-.326l-.223-.292c-1.374-.203-2.743-.452-4.122-.591-.96-.096-1.59-.454-1.984-1.414-.55-1.336-1.244-2.615-1.924-4.017ZM70.007 98.745c.279-1.672.514-3.484.905-5.261.236-1.067.073-1.805-.773-2.54-1.275-1.11-2.422-2.371-3.631-3.561-.365-.36-.646-.743-.47-1.29.184-.568.634-.716 1.17-.79 1.963-.277 3.92-.601 5.885-.868.386-.054.562-.228.718-.554.846-1.78 1.713-3.548 2.56-5.328.231-.488.514-.898 1.095-.912.614-.014.915.404 1.159.917.848 1.78 1.717 3.547 2.563 5.328.157.33.339.49.722.542 1.986.269 3.967.593 5.95.878.519.075.93.258 1.1.793.164.516-.082.897-.43 1.241-1.427 1.41-2.837 2.836-4.276 4.229-.31.3-.386.591-.314.999.338 1.904.658 3.81.982 5.716.023.132.077.278.042.395-.111.383-.155.916-.417 1.089-.291.192-.862.197-1.19.034a145.93 145.93 0 0 1-5.327-2.842c-.395-.219-.695-.199-1.075.011-1.764.97-3.539 1.92-5.319 2.859-.855.452-1.65-.028-1.63-1.085Zm12.567-1.761c-.287-1.714-.534-3.306-.826-4.892-.108-.588.025-1.031.443-1.439 1.028-.996 2.037-2.01 3.05-3.02.128-.127.234-.275.357-.421-.102-.059-.136-.095-.175-.102-1.035-.155-2.071-.29-3.102-.461-2.653-.44-2.056.062-3.263-2.387-.503-1.02-.999-2.045-1.557-3.19-.66 1.36-1.32 2.561-1.827 3.826-.433 1.076-1.092 1.58-2.239 1.664-1.335.096-2.657.374-3.987.573-.06.086-.122.171-.181.257.206.119.446.2.614.361.98.948 1.935 1.924 2.917 2.872.44.424.616.892.45 1.498-.07.254-.094.523-.137.787l-.674 4.086c1.49-.798 2.867-1.505 4.216-2.267.598-.339 1.111-.342 1.712-.004 1.347.759 2.724 1.468 4.209 2.259ZM84.828 60.898c.174 4.444-2.745 7.22-5.634 7.926-4.36 1.064-8.757-2.234-9.008-6.804-.113-2.086.087-4.088 1.33-5.857 1.862-2.65 5.139-3.789 8.166-2.823 3.008.96 5.067 3.76 5.144 6.995.006.224.002.447.002.563Zm-2.094.156c0-.222.005-.445 0-.668-.064-2.688-1.984-4.855-4.62-5.219-2.48-.342-4.98 1.319-5.614 3.864-.232.928-.251 1.943-.2 2.909.163 3.138 3.1 5.434 6.122 4.855 2.693-.516 4.316-2.673 4.312-5.74Z" fill="#2AB981"/><path d="M63.992 78.608c0-1.398-.154-2.793.033-4.136.354-2.536 2.518-4.355 5.036-4.364 5.625-.023 11.251-.026 16.877 0 2.839.015 5.1 2.33 5.165 5.218.024 1.084.003 2.17.003 3.288h-2.092c0-1.051.012-2.11-.003-3.167-.025-1.594-1.066-2.865-2.586-3.157-.276-.053-.564-.051-.847-.051-5.386-.004-10.771-.004-16.158-.002-2.163 0-3.436 1.313-3.439 3.541-.002.93 0 1.861 0 2.83h-1.99Z" fill="#2AB981"/><path d="M53.676 160.912v-1.094h7.636v1.094h-3.201V170h-1.233v-9.088h-3.202Zm10.588 9.267c-.483 0-.923-.091-1.317-.273a2.265 2.265 0 0 1-.94-.801c-.232-.351-.348-.775-.348-1.273 0-.437.086-.792.259-1.064.172-.275.403-.49.69-.646.29-.156.607-.272.955-.348.352-.079.705-.142 1.06-.189.463-.059.84-.104 1.128-.134.292-.033.504-.088.636-.164.136-.076.204-.209.204-.398v-.04c0-.49-.134-.871-.403-1.143-.265-.272-.668-.408-1.208-.408-.56 0-.999.123-1.317.368-.318.245-.542.507-.671.786l-1.114-.398c.199-.464.464-.825.795-1.084.335-.262.7-.444 1.094-.547a4.544 4.544 0 0 1 1.173-.159c.246 0 .528.03.846.09.321.056.631.174.93.353.301.179.551.449.75.81.199.361.298.845.298 1.452V170h-1.173v-1.034h-.06c-.08.166-.212.343-.397.532-.186.189-.433.35-.741.482-.308.133-.684.199-1.129.199Zm.18-1.054c.463 0 .855-.091 1.173-.273.321-.183.563-.418.725-.706.166-.289.25-.592.25-.91v-1.074c-.05.06-.16.114-.329.164a5.532 5.532 0 0 1-.577.124c-.215.033-.426.063-.631.09-.202.023-.366.043-.492.059-.305.04-.59.105-.855.194a1.47 1.47 0 0 0-.637.393c-.159.172-.238.408-.238.706 0 .408.15.716.452.925.305.205.691.308 1.158.308Zm6.635-9.307V170h-1.173v-10.182h1.173Zm5.35 10.341c-.735 0-1.37-.162-1.903-.487a3.272 3.272 0 0 1-1.228-1.372c-.285-.59-.428-1.276-.428-2.059 0-.782.143-1.471.428-2.068.288-.6.69-1.067 1.203-1.402.517-.338 1.12-.507 1.81-.507.397 0 .79.066 1.178.199.388.133.74.348 1.059.646.318.295.572.686.76 1.174.19.487.284 1.087.284 1.799v.498h-5.887v-1.015H78.4c0-.431-.087-.815-.259-1.153a1.944 1.944 0 0 0-.726-.8c-.311-.196-.68-.294-1.103-.294-.468 0-.872.116-1.214.348a2.29 2.29 0 0 0-.78.895 2.628 2.628 0 0 0-.273 1.183v.676c0 .577.099 1.066.298 1.467.202.398.482.701.84.91.358.205.774.308 1.248.308.308 0 .586-.043.835-.129a1.79 1.79 0 0 0 .651-.398c.183-.179.324-.401.423-.666l1.133.318c-.119.385-.32.723-.601 1.014-.282.289-.63.514-1.044.676-.414.16-.88.239-1.397.239Zm6.12-4.753V170h-1.172v-7.636h1.133v1.193h.1c.178-.388.45-.7.815-.935.365-.238.835-.358 1.412-.358.517 0 .97.106 1.357.318.388.209.69.527.905.955.215.424.323.961.323 1.611V170H86.25v-4.773c0-.6-.156-1.067-.468-1.402-.311-.338-.739-.507-1.282-.507-.375 0-.71.081-1.004.244a1.738 1.738 0 0 0-.692.711c-.169.311-.253.689-.253 1.133Zm10.338-3.042v.994H88.93v-.994h3.957Zm-2.804-1.83h1.173v7.278c0 .332.049.581.145.746.099.163.225.272.377.328.156.053.32.08.493.08.129 0 .235-.007.318-.02l.199-.04.238 1.054c-.08.03-.19.06-.333.09a2.467 2.467 0 0 1-.542.049 2.37 2.37 0 0 1-.974-.213 1.939 1.939 0 0 1-.786-.652c-.205-.291-.308-.659-.308-1.103v-7.597Zm7.59 9.625c-.69 0-1.295-.164-1.815-.492a3.343 3.343 0 0 1-1.214-1.377c-.288-.59-.432-1.28-.432-2.068 0-.796.144-1.49.432-2.084a3.345 3.345 0 0 1 1.214-1.382c.52-.328 1.125-.492 1.814-.492.69 0 1.293.164 1.81.492.52.329.925.789 1.213 1.382.292.594.437 1.288.437 2.084 0 .788-.145 1.478-.437 2.068a3.296 3.296 0 0 1-1.213 1.377c-.517.328-1.12.492-1.81.492Zm0-1.054c.523 0 .954-.134 1.292-.403a2.37 2.37 0 0 0 .75-1.059 4.05 4.05 0 0 0 .244-1.421c0-.511-.081-.986-.243-1.427a2.406 2.406 0 0 0-.751-1.069c-.338-.272-.77-.408-1.293-.408-.523 0-.954.136-1.292.408a2.405 2.405 0 0 0-.751 1.069 4.095 4.095 0 0 0-.244 1.427c0 .51.081.984.244 1.421.162.438.412.791.75 1.059.339.269.77.403 1.293.403Z" fill="#717171"/><defs><filter id="a" x=".431" y=".478" width="159.906" height="154.887" filterUnits="userSpaceOnUse" color-interpolation-filters="sRGB"><feFlood flood-opacity="0" result="BackgroundImageFix"/><feColorMatrix in="SourceAlpha" values="0 0 0 0 0 0 0 0 0 0 0 0 0 0 0 0 0 0 127 0" result="hardAlpha"/><feOffset dx="2" dy="2"/><feGaussianBlur stdDeviation="5"/><feComposite in2="hardAlpha" operator="out"/><feColorMatrix values="0 0 0 0 0 0 0 0 0 0 0 0 0 0 0 0 0 0 0.1 0"/><feBlend in2="BackgroundImageFix" result="effect1_dropShadow_23_47"/><feBlend in="SourceGraphic" in2="effect1_dropShadow_23_47" result="shape"/></filter></defs></svg>