<svg width="15" height="14" fill="none" xmlns="http://www.w3.org/2000/svg"><path d="M8.357.192c.945-.442 2.088-.087 2.582.8.282.508.793.863 1.386.962 1.037.174 1.744 1.101 1.595 2.097-.084.57.111 1.144.53 1.557a1.802 1.802 0 0 1 0 2.59 1.814 1.814 0 0 0-.53 1.558c.147.996-.558 1.923-1.595 2.097-.593.1-1.104.454-1.386.962-.495.889-1.637 1.242-2.582.8a2.034 2.034 0 0 0-1.714 0c-.945.442-2.087.087-2.582-.8a1.948 1.948 0 0 0-1.386-.962C1.638 11.678.933 10.75 1.08 9.755a1.809 1.809 0 0 0-.53-1.558 1.802 1.802 0 0 1 0-2.59c.417-.414.614-.988.53-1.558-.147-.995.558-1.923 1.595-2.097A1.948 1.948 0 0 0 4.06.99C4.556.102 5.698-.252 6.643.19c.54.254 1.174.254 1.714.002Z" fill="#1723FF"/><path d="m4.37 7.168 1.809 2.26 4.454-5.05" fill="#1723FF"/><path d="m4.37 7.168 1.809 2.26 4.454-5.05" stroke="#fff" stroke-width="1.5" stroke-miterlimit="10" stroke-linecap="round" stroke-linejoin="round"/></svg>