<svg width="25" height="21" viewBox="0 0 25 21" fill="none" xmlns="http://www.w3.org/2000/svg">
<path d="M2.5 20.2109C1.8125 20.2109 1.22375 19.9659 0.733752 19.4759C0.243752 18.9859 -0.000831211 18.3976 2.12224e-06 17.7109V2.71094C2.12224e-06 2.02344 0.245002 1.43469 0.735002 0.944689C1.225 0.454689 1.81334 0.210106 2.5 0.21094H22.5C23.1875 0.21094 23.7762 0.455939 24.2662 0.945939C24.7562 1.43594 25.0008 2.02427 25 2.71094V17.7109C25 18.3984 24.755 18.9872 24.265 19.4772C23.775 19.9672 23.1867 20.2118 22.5 20.2109H2.5ZM12.5 11.4609L22.5 5.21094V2.71094L12.5 8.96094L2.5 2.71094V5.21094L12.5 11.4609Z" fill="white"/>
</svg>
