<svg width="11" height="15" fill="none" xmlns="http://www.w3.org/2000/svg"><path d="M5.53 6.879a1.89 1.89 0 0 1-1.317-.53c-.35-.34-.545-.8-.545-1.28s.196-.941.545-1.28c.35-.34.823-.53 1.317-.53.493 0 .967.19 1.316.53a1.767 1.767 0 0 1 .404 1.973c-.094.219-.23.418-.404.586a1.866 1.866 0 0 1-.604.393 1.908 1.908 0 0 1-.712.138ZM5.53 0a5.29 5.29 0 0 0-3.687 1.485A4.998 4.998 0 0 0 .316 5.068c0 3.802 5.214 9.413 5.214 9.413s5.213-5.611 5.213-9.413c0-1.344-.55-2.633-1.527-3.583A5.29 5.29 0 0 0 5.53 0Z" fill="#fff"/></svg>