<svg width="11" height="15" viewBox="0 0 11 15" fill="none" xmlns="http://www.w3.org/2000/svg">
<path d="M5.52966 6.8786C5.03586 6.8786 4.56228 6.68788 4.21311 6.34841C3.86394 6.00894 3.66778 5.54852 3.66778 5.06844C3.66778 4.58836 3.86394 4.12794 4.21311 3.78847C4.56228 3.449 5.03586 3.25828 5.52966 3.25828C6.02346 3.25828 6.49703 3.449 6.8462 3.78847C7.19537 4.12794 7.39153 4.58836 7.39153 5.06844C7.39153 5.30615 7.34338 5.54154 7.24981 5.76116C7.15624 5.98078 7.01909 6.18033 6.8462 6.34841C6.67331 6.5165 6.46806 6.64984 6.24217 6.74081C6.01627 6.83178 5.77416 6.8786 5.52966 6.8786ZM5.52966 0C4.14702 0 2.82101 0.533995 1.84333 1.48451C0.865658 2.43503 0.316406 3.72421 0.316406 5.06844C0.316406 8.86977 5.52966 14.4813 5.52966 14.4813C5.52966 14.4813 10.7429 8.86977 10.7429 5.06844C10.7429 3.72421 10.1937 2.43503 9.21598 1.48451C8.23831 0.533995 6.9123 0 5.52966 0Z" fill="white"/>
</svg>
