<svg width="18" height="26" viewBox="0 0 18 26" fill="none" xmlns="http://www.w3.org/2000/svg">
<path d="M9 12.0859C8.14752 12.0859 7.32995 11.7567 6.72716 11.1706C6.12436 10.5846 5.78571 9.78974 5.78571 8.96094C5.78571 8.13214 6.12436 7.33728 6.72716 6.75123C7.32995 6.16518 8.14752 5.83594 9 5.83594C9.85248 5.83594 10.67 6.16518 11.2728 6.75123C11.8756 7.33728 12.2143 8.13214 12.2143 8.96094C12.2143 9.37132 12.1311 9.77768 11.9696 10.1568C11.8081 10.536 11.5713 10.8805 11.2728 11.1706C10.9744 11.4608 10.62 11.691 10.2301 11.8481C9.84008 12.0051 9.42211 12.0859 9 12.0859ZM9 0.210938C6.61305 0.210938 4.32387 1.13281 2.63604 2.77375C0.948211 4.4147 0 6.64029 0 8.96094C0 15.5234 9 25.2109 9 25.2109C9 25.2109 18 15.5234 18 8.96094C18 6.64029 17.0518 4.4147 15.364 2.77375C13.6761 1.13281 11.3869 0.210938 9 0.210938Z" fill="white"/>
</svg>
