<svg xmlns="http://www.w3.org/2000/svg" width="157" height="23" fill="none"><path fill="#000" d="M55.744 18.783c0 .561-.093 1.087-.277 1.57a3.744 3.744 0 0 1-.784 1.263c-.339.36-.756.645-1.25.857-.494.215-1.05.32-1.672.32h-7.44c-.582 0-1.12-.1-1.614-.304a3.849 3.849 0 0 1-1.279-.844 3.729 3.729 0 0 1-.828-1.265 4.258 4.258 0 0 1-.29-1.6V4.6h5.06v12.51c0 .812.377 1.22 1.133 1.22h2.935c.872 0 1.306-.426 1.306-1.277V4.602h5v14.18ZM37.25 18.475c0 2.88-1.2 4.322-3.604 4.322H20.41V17.99h11.87v-4.76h-8.15c-2.654 0-3.982-1.376-3.982-4.13V4.48c0-2.86 1.317-4.288 3.952-4.288h12.742v4.616H25.148v3.996h8.498c2.401 0 3.605 1.315 3.605 3.944v5.727ZM81.754 22.796h-5V10.372c-.039-.833-.476-1.26-1.307-1.278h-2.673v13.702h-5V9.094h-2.79c-.794 0-1.171.406-1.133 1.221v12.481h-5.056V8.643c0-.582.096-1.112.29-1.599.194-.484.468-.906.828-1.263a3.85 3.85 0 0 1 1.278-.843 4.18 4.18 0 0 1 1.612-.306h14.97c.619 0 1.178.106 1.672.319.495.212.911.499 1.25.856.34.36.6.784.784 1.278.184.495.277 1.012.277 1.556v14.155h-.002ZM107.773 22.796h-5V10.372c-.039-.833-.476-1.26-1.307-1.278h-2.675v13.702h-5V9.094h-2.79c-.794 0-1.172.406-1.133 1.221v12.481h-5.06V8.643c0-.582.097-1.112.29-1.599.195-.484.469-.906.829-1.263.36-.36.784-.639 1.278-.843a4.18 4.18 0 0 1 1.612-.306h14.968c.621 0 1.177.106 1.672.319.494.212.91.499 1.249.856.339.36.601.784.785 1.279a4.44 4.44 0 0 1 .276 1.555v14.155h.006ZM110.824 16.293c0-3.061 1.268-4.593 3.807-4.593h6.599V9.82c0-.62-.311-.928-.929-.928h-8.807v-4.29h10.696c2.712 0 4.068 1.337 4.068 3.583v10.17c0 3.104-1.356 4.439-4.068 4.439h-7.471c-2.578 0-3.877-1.338-3.895-4.014v-2.487Zm10.406-.45c0-.445-.244-.668-.728-.668h-3.894c-.525 0-.784.215-.784.64v2.023c0 .427.261.64.784.64h3.894c.484 0 .728-.213.728-.64v-1.995ZM144.758 8.613v14.155h-5V10.341c0-.851-.435-1.278-1.307-1.278h-2.934c-.756 0-1.134.406-1.134 1.221v12.481h-5.059V8.61c0-.582.096-1.113.29-1.6.194-.483.468-.905.828-1.262a3.85 3.85 0 0 1 1.278-.844 4.188 4.188 0 0 1 1.615-.305h7.44c.619 0 1.177.106 1.672.318.494.212.911.5 1.25.857.339.36.6.784.784 1.278.183.5.277 1.017.277 1.56ZM151.965 22.63c-2.772 0-4.156-1.25-4.156-3.749V0h5.028v4.464h3.982v4.461h-3.982v8.25c0 .66.251.99.755.99h3.196v4.463h-4.823v.003Z"/><path fill="url(#a)" d="M5.39 7.08h3.227v5.362h5.419v3.23H8.617v5.587H5.39v-5.587H0v-3.23h5.39V7.08Z"/><defs><linearGradient id="a" x1="0" x2="14.036" y1="21.259" y2="21.259" gradientUnits="userSpaceOnUse"><stop stop-color="#1723FF"/><stop offset="1" stop-color="#30E35E"/></linearGradient></defs></svg>