<svg xmlns="http://www.w3.org/2000/svg" width="45" height="45" fill="none"><path fill="url(#a)" d="M43.09 31.832c-.674 1.146-1.239 2.225-1.933 3.216-.206.295-.77.464-1.172.464-.54.002-1.098-.163-1.617-.349-1.189-.426-2.056-.15-2.892.841-.494.587-.686 1.052-.463 1.745.085.263.119.543.158.819.115.778.59 1.968.265 2.258-1.011.906-2.32 1.482-3.534 2.152-.1.054-.369-.119-.515-.24-.427-.355-.87-.703-1.238-1.117-.93-1.043-1.962-1.62-3.317-.83-.37.215-.797.5-.962.862-.383.847-.577 1.78-.944 2.636-.125.29-.53.626-.826.647a21.893 21.893 0 0 1-3.225-.004c-.294-.023-.659-.37-.82-.662a4.993 4.993 0 0 1-.554-1.561c-.213-1.32-.867-2.03-2.25-2.227-.658-.094-1.088-.073-1.563.39-.77.75-1.601 1.438-2.502 2.236-1.12-.658-2.266-1.297-3.365-2.006-.215-.138-.365-.562-.344-.84a7.171 7.171 0 0 1 .36-1.724c.424-1.244.253-2.218-.867-3.076-.521-.401-.925-.65-1.555-.46-.265.08-.542.117-.813.174-2.56.52-2.563.521-3.834-1.825-.28-.513-.536-1.04-.81-1.572.522-.582.962-1.177 1.502-1.657 1.028-.916 1.457-1.874.838-3.262-.238-.535-.42-.885-.974-1.034-.433-.114-.857-.27-1.282-.415-2.024-.69-2.024-.69-2.035-2.83-.01-2.282-.01-2.282 2.1-2.998.196-.066.396-.12.594-.185 1.192-.39 2.05-1.587 1.974-2.823-.012-.212-.17-.44-.317-.617-.419-.51-.863-1-1.305-1.49-1.13-1.255-1.132-1.253-.3-2.775 1.288-2.359 1.288-2.359 3.922-1.828 1.584.319 2.427-.002 3.28-1.34.143-.226.137-.597.095-.885-.085-.583-.254-1.15-.369-1.729-.35-1.764-.348-1.764 1.155-2.68 2.26-1.365 2.375-1.478 4.178.388 1.164 1.205 2.267.983 3.515.56.236-.08.447-.399.557-.656.234-.538.394-1.108.58-1.667.602-1.808.602-1.808 2.541-1.84 2.536-.039 2.704-.077 3.255 2.384.373 1.672 1.466 1.973 2.75 2.234.248.05.6-.098.817-.267.576-.447 1.189-.89 1.628-1.455.766-.983 1.485-.848 2.459-.299C35.65 4.041 35.674 4 35.106 6.871c-.256 1.297.293 2.557 1.433 3.144.244.125.607.081.9.033.65-.104 1.327-.17 1.927-.417 1.168-.48 1.722.052 2.281 1.01 1.443 2.474 1.593 2.568-.402 4.52-1.22 1.193-.711 2.274-.409 3.462.05.198.375.38.61.472.678.26 1.36.561 2.067.678 1.205.198 1.464.87 1.478 2.006.036 2.929.092 2.929-2.66 3.835-1.293.425-2.025 1.41-2.008 2.792.002.238.188.5.348.702.367.461.768.897 1.162 1.338.392.44.79.872 1.257 1.386Zm-31.64 7.977c.226.184.506.506.858.66.288.125.734.175.984.036.442-.25.84-.63 1.166-1.03.915-1.118 1.887-1.093 3.309-.857 2.243.371 3.202 1.546 3.517 3.556.152.967.734 1.071 1.545 1.038.957-.04.834-.858.973-1.361.43-1.545.97-2.524 2.838-3.091 2.197-.668 3.427.014 4.69 1.448.453.514.845.616 1.506.247.67-.376.745-.802.576-1.432-.098-.368-.109-.767-.246-1.117-.49-1.263-.113-2.062.817-3.133 1.493-1.72 2.967-2.188 5-1.347.588.243 1.052.124 1.428-.555.362-.657.292-1.06-.236-1.509-.263-.223-.44-.549-.707-.764-1.163-.933-1.126-1.945-.865-3.409.392-2.2 1.535-3.133 3.505-3.433 1.03-.157 1.293-.854.99-1.616-.173-.434-.846-.797-1.363-.94-1.516-.419-2.469-.98-3.003-2.8-.615-2.102-.11-3.365 1.337-4.63.471-.413.84-.785.369-1.58-.47-.791-.978-.7-1.635-.547-.337.08-.7.09-1.013.221-1.251.526-2.01.027-3.03-.83-1.732-1.46-2.222-2.946-1.373-4.99.235-.567.17-1.066-.53-1.442-.642-.344-1.049-.338-1.514.21-.29.34-.713.569-.992.916-.826 1.024-1.712.88-2.959.716-2.389-.316-3.38-1.595-3.73-3.726-.108-.658-.441-.898-1.123-.908-.722-.013-1.093.223-1.218.933-.058.336-.273.647-.323.985-.225 1.528-1.19 1.958-2.585 2.523-2.241.908-3.484-.041-4.779-1.456-.44-.48-.813-.562-1.424-.226-.636.35-.842.735-.632 1.407.105.33.096.7.228 1.012.581 1.39.069 2.257-.91 3.398-1.427 1.668-2.837 1.98-4.734 1.261-.644-.244-1.189-.221-1.61.574-.373.704-.11 1.046.313 1.505 1.105 1.202 2.152 2.123 1.518 4.306-.62 2.136-1.726 2.895-3.547 3.284-.715.152-1.034.457-1.03 1.252.003.787.384 1.017 1.024 1.152.336.071.646.274.982.33 1.416.238 1.908 1.07 2.404 2.449.767 2.127.223 3.513-1.328 4.82-.475.398-.726.786-.334 1.492.392.705.834.797 1.508.63.738-.184 1.48-.403 2.233-.463a1.83 1.83 0 0 1 1.215.394c.763.651 1.4 1.453 2.164 2.102.478.405.565.77.411 1.346-.248.898-.396 1.825-.636 2.99Z"/><path fill="url(#b)" d="M35.6 22.526a13.043 13.043 0 0 1-13.084 13.1c-7.27.013-13.086-5.786-13.114-13.07-.027-7.306 5.85-13.194 13.138-13.161A13.064 13.064 0 0 1 35.6 22.526ZM22.478 33.815c6.144.029 11.248-5.05 11.31-11.253.063-6.156-5.155-11.389-11.323-11.353-6.163.035-11.291 5.185-11.26 11.311.033 6.193 5.095 11.265 11.273 11.295Z"/><defs><linearGradient id="a" x1=".006" x2="45" y1="44.994" y2="44.994" gradientUnits="userSpaceOnUse"><stop stop-color="#1723FF"/><stop offset="1" stop-color="#30E35E"/></linearGradient><linearGradient id="b" x1="9.402" x2="35.599" y1="35.627" y2="35.627" gradientUnits="userSpaceOnUse"><stop stop-color="#1723FF"/><stop offset="1" stop-color="#30E35E"/></linearGradient></defs></svg>