<svg xmlns="http://www.w3.org/2000/svg" width="51" height="35" fill="none"><path fill="url(#a)" d="M29.574 15.188c4.526 1.733 7.573 4.672 8.897 9.14.35 1.178.505 2.435.568 3.666.074 1.433-.772 2.495-1.854 3.368-2.241 1.809-4.892 2.703-7.694 3.211-4.529.821-8.965.492-13.224-1.284-4.618-1.928-5.779-4.406-4.29-9.088 1.261-3.97 3.866-6.808 7.73-8.53.327-.146.655-.287 1.136-.496-2.695-1.89-4.057-4.343-3.912-7.509.107-2.334 1.126-4.231 2.91-5.753 3.369-2.874 8.79-2.456 11.693.891 2.79 3.217 3.136 8.756-1.96 12.384Zm-4.545 18.076c3.531-.125 6.945-.727 10.072-2.537 1.793-1.037 2.39-2.47 2.05-4.443-.954-5.546-5.871-9.709-11.461-9.938-5.458-.224-11.01 3.411-12.298 9.503-.602 2.849-.049 3.969 2.619 5.366 2.806 1.47 5.867 1.908 9.018 2.049Zm.187-18.756c3.572-.004 6.53-2.84 6.55-6.28.019-3.471-3.02-6.481-6.544-6.48-3.592.002-6.495 2.898-6.483 6.47.013 3.537 2.852 6.295 6.477 6.29Z"/><path fill="url(#b)" d="M40.671 28.27v-1.544c1.614-.241 3.239-.28 4.724-.745 4.189-1.314 4.928-2.475 2.552-6.584-2.109-3.647-7.459-4.95-11.668-1.655l-1.424-1.178 2.88-1.866c-1.515-1.392-2.367-3.097-2.137-5.203.17-1.545.856-2.835 2.078-3.826 2.381-1.93 5.853-1.703 8.004.506 2.309 2.37 2.105 5.574-.61 8.548.354.195.696.372 1.027.565 2.904 1.696 4.54 4.179 4.881 7.49.139 1.339-.395 2.352-1.433 3.135-2.595 1.958-5.59 2.456-8.874 2.358Zm-3.268-18.203c-.017 2.231 1.719 4.001 3.96 4.038 2.162.035 4.1-1.804 4.139-3.929.039-2.157-1.773-3.962-4.018-4.002-2.263-.04-4.066 1.679-4.081 3.893Z"/><path fill="url(#c)" d="M5.709 14.795c-2.639-2.978-2.763-6.237-.416-8.478 2.14-2.043 5.62-2.128 7.802-.19 2.6 2.309 2.576 5.278-.055 8.6l2.675 1.75-1.385 1.195c-1.607-1.181-3.368-1.852-5.434-1.784-3.589.117-7.053 3.364-7.051 6.901 0 .623.541 1.431 1.08 1.834 1.576 1.173 3.49 1.495 5.425 1.637.48.035.965.005 1.503.005v1.711c-3.025.137-5.813-.338-8.284-2.07C.023 24.823-.21 23.306.145 21.62c.665-3.163 2.516-5.42 5.564-6.826Zm-.26-4.586c-.009 2.182 1.628 3.833 3.817 3.85 2.138.016 3.94-1.695 3.968-3.768.028-2.084-1.725-3.815-3.88-3.832-2.222-.017-3.896 1.59-3.905 3.75Z"/><defs><linearGradient id="a" x1="0" x2="51" y1="35.001" y2="35.001" gradientUnits="userSpaceOnUse"><stop stop-color="#1723FF"/><stop offset="1" stop-color="#30E35E"/></linearGradient><linearGradient id="b" x1="0" x2="51" y1="35.001" y2="35.001" gradientUnits="userSpaceOnUse"><stop stop-color="#1723FF"/><stop offset="1" stop-color="#30E35E"/></linearGradient><linearGradient id="c" x1="0" x2="51" y1="35.001" y2="35.001" gradientUnits="userSpaceOnUse"><stop stop-color="#1723FF"/><stop offset="1" stop-color="#30E35E"/></linearGradient></defs></svg>