<svg xmlns="http://www.w3.org/2000/svg" width="33" height="40" fill="none"><path fill="url(#a)" d="M27.139 9.169V.527h1.72v8.642h-1.72ZM23.68 5.705v-1.72h8.642v1.72H23.68Z"/><path fill="url(#b)" d="M18.575 20.188c4.527 1.733 7.573 4.672 8.897 9.14.35 1.178.505 2.435.568 3.666.074 1.433-.772 2.495-1.854 3.368-2.241 1.809-4.892 2.703-7.694 3.211-4.529.821-8.965.492-13.223-1.284C.649 36.36-.511 33.883.977 29.2c1.263-3.97 3.867-6.808 7.732-8.53.326-.146.654-.287 1.135-.497-2.694-1.889-4.057-4.342-3.912-7.508.107-2.334 1.127-4.231 2.91-5.753 3.37-2.874 8.79-2.456 11.693.891 2.791 3.217 3.136 8.756-1.96 12.384ZM14.03 38.264c3.531-.125 6.945-.727 10.072-2.537 1.793-1.037 2.39-2.47 2.05-4.443-.954-5.546-5.87-9.709-11.461-9.938-5.457-.224-11.01 3.411-12.298 9.503-.602 2.849-.049 3.969 2.619 5.366 2.806 1.47 5.867 1.908 9.018 2.049Zm.187-18.756c3.572-.004 6.531-2.84 6.55-6.28.02-3.471-3.02-6.481-6.544-6.48-3.591.002-6.495 2.898-6.483 6.47.013 3.537 2.853 6.295 6.477 6.29Z"/><defs><linearGradient id="a" x1=".367" x2="28.045" y1="40" y2="40" gradientUnits="userSpaceOnUse"><stop stop-color="#1723FF"/><stop offset="1" stop-color="#30E35E"/></linearGradient><linearGradient id="b" x1=".367" x2="28.045" y1="40" y2="40" gradientUnits="userSpaceOnUse"><stop stop-color="#1723FF"/><stop offset="1" stop-color="#30E35E"/></linearGradient></defs></svg>