<svg xmlns="http://www.w3.org/2000/svg" width="35" height="35" fill="none"><path fill="url(#a)" d="M4.558 35a4.515 4.515 0 0 1-3.231-1.368 4.505 4.505 0 0 1-1.325-3.334c.043-1.287.622-2.49 1.633-3.387a6718.394 6718.394 0 0 1 16.419-14.547c.45-.397.578-.835.416-1.42-.969-3.498-.134-6.45 2.479-8.772C22.569.731 24.384 0 26.34 0c1.14 0 2.346.249 3.585.738.372.148.602.353.65.578.05.239-.096.552-.4.858-1.075 1.085-2.153 2.168-3.23 3.251L25.083 7.3a3.111 3.111 0 0 0-.168.185 3.668 3.668 0 0 1-.056.065l-.37.417 2.681 2.623.41-.421.805-.83c.612-.633 1.247-1.289 1.88-1.93.802-.812 1.75-1.765 2.7-2.684.198-.19.405-.291.598-.291.267 0 .514.204.677.56 1.192 2.602.971 5.607-.591 8.04-1.568 2.441-4.2 3.898-7.04 3.899-.247 0-.498-.012-.746-.032-.65-.056-1.305-.225-1.805-.367a1.612 1.612 0 0 0-.443-.068c-.472 0-.764.268-.942.47-2.601 2.948-5.256 5.938-7.822 8.829l-1.591 1.792c-.51.574-1.019 1.149-1.527 1.724a491.89 491.89 0 0 1-3.683 4.133C7.12 34.436 5.882 35 4.558 35ZM26.456 1.433c-2.346 0-4.527 1.212-5.831 3.24-1.299 2.019-1.49 4.504-.51 6.647.33.727.312.814-.287 1.346-2.412 2.143-4.827 4.284-7.24 6.425l-1.561 1.385-2.632 2.33c-1.937 1.714-3.94 3.487-5.902 5.24a3.15 3.15 0 0 0-1.055 2.729 3.132 3.132 0 0 0 1.63 2.412c.485.267.988.402 1.494.402.953 0 1.886-.484 2.698-1.401 4.876-5.503 9.758-11 15.175-17.1.36-.406.531-.406.614-.406.13 0 .302.05.527.155a7.1 7.1 0 0 0 3 .668c3.322 0 6.139-2.29 6.848-5.568.15-.687.269-1.515.034-2.442l-.248-.972-.726.693-.198.19c-.126.118-.235.222-.342.327l-1.18 1.172c-.753.749-1.531 1.522-2.302 2.277a1.996 1.996 0 0 1-1.4.587c-.503 0-.988-.2-1.365-.56a57.44 57.44 0 0 1-1.879-1.879c-.774-.813-.76-1.992.035-2.803.948-.966 1.79-1.813 2.58-2.59.295-.292.611-.58.945-.886.165-.151.337-.308.516-.475l.813-.755-1.082-.246c-.104-.023-.181-.042-.242-.057-.12-.03-.206-.051-.311-.06a7.708 7.708 0 0 0-.616-.025Z"/><defs><linearGradient id="a" x1="0" x2="35" y1="35.001" y2="35.001" gradientUnits="userSpaceOnUse"><stop stop-color="#1723FF"/><stop offset="1" stop-color="#30E35E"/></linearGradient></defs></svg>