<svg width="46" height="46" fill="none" xmlns="http://www.w3.org/2000/svg"><path d="M11.947 0h.63c.466.291.925.597 1.402.87 1.346.77 2.832 1.01 4.352 1.098 1.008.059 1.597.655 1.603 1.668.006 1.062.024 2.126-.005 3.188a52.526 52.526 0 0 1-.18 3.45c-.069.732-.264 1.453-.383 2.075 1.13 0 2.274-.115 3.383.032 1.12.149 2.205.557 3.309.853v-.414c0-2.156-.007-4.313.006-6.469.002-.37.042-.752.144-1.105.373-1.298 1.532-2.155 2.916-2.18.758-.015 1.515-.003 2.31-.003v-.725c-.002-.807.324-1.454.982-1.914.25-.175.547-.285.823-.424h5.569c.062.032.122.074.188.097 1.05.376 1.607 1.157 1.623 2.278.002.218 0 .438 0 .686.722 0 1.379-.002 2.036 0 2.061.003 3.337 1.273 3.338 3.327v10.194c-.001 2.087-1.267 3.353-3.357 3.354-3.638.002-7.275 0-10.911 0h-.518c.817 5.042-.972 8.795-5.385 11.316 1.107 1.142 1.396 2.47.859 4.06.487-.06.905-.071 1.303-.17.535-.135 1.054-.334 1.579-.509 4.153-1.385 8.305-2.772 12.459-4.154 1.486-.495 2.9.005 3.604 1.268.791 1.42.299 3.047-1.207 3.964-4.584 2.794-9.177 5.574-13.75 8.384a7.51 7.51 0 0 1-4.08 1.143c-6.092-.023-12.185-.012-18.277-.002-.22 0-.486.052-.651.182-.495.386-1.032.584-1.657.582-1.197-.006-2.395 0-3.592-.005a2.838 2.838 0 0 1-.578-.055C.83 45.73.29 45.043 0 44.112v-16.98c.47-1.399 1.47-1.921 2.903-1.839 1.03.06 2.065.017 3.098.011.99-.006 1.715.423 2.195 1.29.064.114.24.236.362.235 1.482-.018 2.955 0 4.46.715-1.451-2.472-1.857-4.975-1.243-7.634-.24-.104-.461-.192-.673-.293-3.348-1.61-5.232-4.349-6.07-7.887-.652-2.76-.416-5.57-.417-8.363 0-.782.659-1.335 1.444-1.393.373-.026.748-.047 1.118-.092 1.38-.17 2.7-.51 3.86-1.327.291-.203.606-.37.91-.555ZM8.461 43.67c.126.01.213.022.302.022h18.276a4.69 4.69 0 0 0 2.51-.721c.89-.55 1.788-1.09 2.681-1.634 3.806-2.317 7.616-4.63 11.415-6.961.278-.172.543-.441.694-.727.263-.498.133-1.003-.243-1.41-.436-.472-.973-.517-1.565-.318-4.407 1.476-8.82 2.936-13.221 4.424-.919.31-1.837.484-2.811.47-1.915-.03-3.832-.014-5.748-.005a9.29 9.29 0 0 0-1.252.078c-1.093.152-2.035.659-2.93 1.28-.404.282-.86.182-1.103-.183-.23-.345-.144-.792.23-1.065 1.31-.953 2.748-1.585 4.39-1.624 1.376-.034 2.754-.02 4.131-.024.836-.003.998-.118 1.155-.944.051-.272.056-.572 0-.842-.22-1.096-1.397-2.007-2.65-2.035a64.296 64.296 0 0 0-3.503-.004c-2.134.067-4.03-.524-5.717-1.853-1.474-1.162-3.211-1.343-5.038-1.183-.003 5.078-.003 10.146-.003 15.26Zm4.568-21.439c.001 3.008 1.611 5.82 4.232 7.292.396.223.894.349 1.352.365 1.27.05 2.543 0 3.815.027.488.01.972.133 1.46.18.226.022.48.045.681-.034 3.626-1.412 5.815-5.213 5.24-9.068-.663-4.44-4.56-7.483-9.168-7.155-4.2.298-7.613 4.063-7.612 8.394ZM36.068 4.593c-2.245 0-4.49-.003-6.735 0-1.13.002-1.743.62-1.744 1.756-.003 2.544.005 5.088-.009 7.634 0 .305.105.493.329.68a9.493 9.493 0 0 1 2.588 3.396c.128.282.282.354.574.354 3.875-.01 7.753-.005 11.628-.008 1.159 0 1.762-.613 1.762-1.78.002-3.412.002-6.825 0-10.238 0-1.195-.597-1.793-1.793-1.793-2.2-.003-4.4-.001-6.6-.001ZM12.215 18.426c.06-.098.105-.157.134-.222 1.027-2.25 2.659-3.91 4.882-4.996a.619.619 0 0 0 .303-.343c.248-.92.595-1.84.674-2.778.149-1.769.14-3.553.193-5.33.012-.4.001-.802.001-1.228-2.24-.16-4.366-.558-6.155-1.99-1.784 1.445-3.902 1.822-6.123 1.983 0 1.234-.044 2.445.012 3.65.062 1.326.109 2.667.356 3.967.58 3.066 2.138 5.488 4.985 6.954.234.12.482.218.738.333ZM1.53 35.649v7.853c.002.683.275.962.946.965a425.3 425.3 0 0 0 3.5 0c.643-.004.927-.288.927-.942.003-5.25.003-10.5 0-15.75 0-.657-.275-.93-.927-.933a461.426 461.426 0 0 0-3.41-.001c-.803.001-1.036.237-1.036 1.045v7.763ZM39.086 3.045c0-.27.008-.492-.001-.714-.02-.486-.299-.79-.785-.794-1.522-.012-3.044-.01-4.567 0-.386.002-.668.218-.738.595-.053.295-.01.609-.01.913h6.1Z" fill="#2383AE"/><path d="M18.413 24.862c-.017-.723.244-1.056.705-1.082.465-.025.762.27.818.813.096.93.762 1.52 1.65 1.462.784-.051 1.41-.732 1.408-1.528-.002-.847-.652-1.487-1.553-1.528-1.563-.072-2.765-1.103-3.007-2.58-.233-1.429.556-2.76 1.973-3.36.133-.056.261-.22.308-.363.123-.378.37-.592.752-.588.381.002.62.222.745.599.05.148.209.307.357.369 1.16.49 1.958 1.605 1.955 2.772-.002.535-.336.873-.827.837-.421-.031-.649-.3-.704-.831-.105-1.03-1.035-1.678-1.98-1.381a1.523 1.523 0 0 0-1.068 1.666c.086.736.715 1.304 1.515 1.327.883.026 1.637.33 2.238.974a3.047 3.047 0 0 1-1.08 4.914c-.236.097-.393.185-.444.475-.063.344-.35.526-.692.53-.361.007-.658-.17-.731-.538-.055-.283-.218-.372-.452-.472-1.163-.503-1.775-1.411-1.886-2.487ZM41.398 11.507c-.002 2.944-2.446 5.378-5.39 5.366-2.929-.012-5.34-2.423-5.353-5.355-.013-2.942 2.42-5.386 5.365-5.39 2.941-.006 5.38 2.433 5.377 5.379Zm-9.205-.014c-.007 2.096 1.713 3.828 3.816 3.843 2.089.015 3.829-1.704 3.855-3.809.027-2.104-1.727-3.868-3.84-3.864a3.852 3.852 0 0 0-3.831 3.83ZM10.622 11.136l2.96-3.946c.357-.478.712-.961 1.077-1.433.319-.41.779-.498 1.132-.23.356.27.402.728.085 1.154a1425.028 1425.028 0 0 1-4.466 5.952c-.387.513-.838.541-1.294.1a54.84 54.84 0 0 1-1.394-1.395c-.353-.367-.369-.798-.065-1.118.319-.335.766-.328 1.148.042.268.259.51.544.817.873Z" fill="#2383AE"/><path d="M36.817 10.702c.623.081 1.47-.151 1.482.778.013.962-.844.75-1.465.802-.1.616.153 1.49-.81 1.489-.942-.003-.711-.846-.791-1.506-.24 0-.472.012-.703-.002-.482-.031-.785-.322-.794-.745-.011-.442.299-.75.802-.783.22-.014.443-.002.695-.002.093-.642-.175-1.545.842-1.502.894.038.682.85.742 1.47Z" fill="#2383AE"/></svg>