<svg width="38" height="37" fill="none" xmlns="http://www.w3.org/2000/svg"><path d="M0 31.527c.228-.28.528-.35.874-.32.202.018.408.004.652.004v-.509l.001-18.991c0-1.344.728-2.343 1.946-2.662.268-.07.553-.085.832-.098.352-.017.705-.004 1.044-.004-.045-.393-.142-.763-.116-1.124.057-.84.508-1.446 1.255-1.839 1.95-1.026 3.898-2.057 5.848-3.085 1.518-.8 3.04-1.597 4.556-2.403 1.223-.65 2.445-.664 3.673-.024.454.236.907.473 1.356.718.345.189.454.495.294.785-.15.273-.459.352-.793.183-.479-.242-.948-.501-1.425-.745-.83-.424-1.668-.433-2.492 0-3.514 1.848-7.024 3.702-10.536 5.553-.412.218-.652.553-.654 1.02-.002.463.226.805.642 1.024 3.522 1.857 7.042 3.718 10.568 5.57.784.413 1.595.43 2.39.028.89-.45 1.767-.924 2.69-1.407-.43-.49-.836-.955-1.243-1.417l-2.85-3.233c-.04-.046-.08-.09-.119-.138-.244-.302-.24-.633.013-.84.24-.196.561-.158.808.118.569.634 1.127 1.277 1.69 1.917l2.698 3.06c.495-.258.979-.508 1.46-.763 1.777-.938 3.55-1.884 5.333-2.812.47-.245.798-.57.792-1.12-.006-.535-.338-.85-.791-1.086-2.288-1.197-4.57-2.404-6.853-3.607-.393-.208-.526-.518-.358-.822.16-.288.483-.348.864-.148 2.317 1.22 4.636 2.436 6.948 3.664 1.106.586 1.508 1.592 1.149 2.795-.014.045-.023.092-.044.179h1.038c1.75.004 2.835 1.077 2.835 2.815.002 6.306.001 12.613.001 18.919v.53h.668c.727 0 .876.13.854.84-.02.616-.003 1.25-.145 1.842-.359 1.5-1.688 2.529-3.234 2.604a7.945 7.945 0 0 1-.403.011c-9.972.001-19.944-.003-29.916.004-1.516.001-2.67-.598-3.394-1.93-.193-.355-.273-.772-.405-1.16L0 31.526Zm2.626-.343h32.236c.006-.122.015-.218.015-.315 0-6.404.002-12.808-.001-19.212 0-.991-.625-1.605-1.63-1.614-.683-.006-1.367-.002-2.05 0-.097 0-.207-.011-.288.03-.86.44-1.716.893-2.574 1.341l.018.086h4.264c.646 0 .795.15.795.796v16.661c0 .645-.15.796-.797.796H9.98c-.12 0-.246 0-.363-.026-.291-.065-.443-.266-.428-.553.016-.285.184-.473.484-.503.145-.014.293-.01.438-.01H32.28V12.615h-4.886c0 .602-.003 1.181 0 1.761.011 2.337-1.017 4.02-3.16 5.01-.079.037-.199.116-.198.172.012.404-.104.815.143 1.204.344.544.66 1.106.968 1.671a1.63 1.63 0 0 1-.228 1.927c-.413.454-.947.546-1.532.538-1.49-.02-2.248-1.32-1.508-2.613.283-.496.594-.979.848-1.489.135-.271.172-.589.27-.949-.217.05-.312.07-.405.095-2.898.781-5.755.647-8.608-.278-2.77-.896-4-3.115-3.886-5.391.028-.544.004-1.09.004-1.657H5.208V28.66h.417c.635 0 1.27-.007 1.905.008.339.009.533.218.538.523.006.303-.187.512-.515.555-.072.01-.146.007-.22.007-.83 0-1.66.002-2.49 0-.595-.002-.756-.165-.756-.762V12.257c0-.596.16-.755.761-.756 1.306-.002 2.613-.001 3.918-.001h.38c-.226-.21-.482-.318-.707-.473-1.212-.835-2.538-1.086-4.007-1.014-1.09.054-1.831.67-1.825 1.826.03 6.295.014 12.59.014 18.885.005.144.005.288.005.46Zm33.742 1.137c-.08-.006-.14-.015-.201-.015-4.199 0-8.396.001-12.595-.005-.229 0-.306.083-.372.29-.34 1.056-1.232 1.769-2.33 1.796a85.88 85.88 0 0 1-4.247-.001c-1.07-.026-1.967-.725-2.298-1.736-.087-.265-.195-.352-.478-.352-4.126.01-8.25.006-12.375.007-.117 0-.234.014-.344.02-.276 1.93 1.066 3.11 2.706 3.106 9.946-.031 19.892-.015 29.838-.018.279 0 .567-.007.835-.071 1.334-.317 2.06-1.495 1.86-3.021ZM11.207 12.489c0 .794-.025 1.523.005 2.25.067 1.652.832 2.911 2.356 3.567 2.967 1.278 6.023 1.392 9.121.475.224-.066.241-.184.24-.37-.004-1.142-.002-2.285-.002-3.427v-.695c-.164.076-.283.126-.396.186-.668.35-1.333.71-2.004 1.056-1.164.6-2.338.615-3.51.019-.65-.332-1.292-.68-1.939-1.02l-3.871-2.041Zm15.019.041c-.423.223-.842.51-1.305.671-.75.26-.967.719-.915 1.495.078 1.17.02 2.347.02 3.52.051.004.077.014.096.005a1.81 1.81 0 0 0 .195-.099c1.036-.627 1.744-1.523 1.887-2.719.11-.931.022-1.887.022-2.873Zm-4.091 19.8H15.37c.253.567.642.937 1.223.95 1.438.034 2.876.033 4.314.002.584-.013.97-.385 1.227-.951Zm1.343-10.61c-.231.398-.44.753-.643 1.111-.312.55-.073.963.554.97.11 0 .22.005.33-.004.427-.035.674-.426.481-.811-.212-.42-.465-.819-.722-1.266Z" fill="#279D98"/><path d="M12.892 26.107h5.2c.134 0 .272-.005.402.023.255.056.443.236.397.485-.036.194-.192.39-.347.53-.088.078-.279.053-.425.053-3.503.002-7.007.002-10.51 0-.145 0-.337.023-.424-.056-.154-.141-.347-.359-.333-.531.013-.171.24-.35.41-.475.09-.066.26-.028.394-.029h5.236ZM11.025 24.894H7.516c-.432-.002-.684-.196-.694-.528-.012-.344.254-.565.698-.565 2.352-.002 4.704-.002 7.055 0 .435 0 .68.195.69.532.01.356-.238.56-.693.56-1.183.002-2.365.001-3.547.001Z" fill="#279D98"/></svg>