<svg width="41" height="50" fill="none" xmlns="http://www.w3.org/2000/svg"><path d="M17.444 49.999c-.315-.029-.63-.063-.945-.084-1.666-.11-3.348-.108-4.996-.352-2.549-.378-4.65-2.698-5.14-5.439a7.91 7.91 0 0 1 .12-3.337c.262-1.055.5-2.117.787-3.165.097-.354.014-.568-.23-.809-.833-.827-1.65-1.672-2.468-2.514-.976-1.005-1.092-2.16-.271-3.291.384-.529.392-.98.115-1.567-.455-.962-.838-1.963-1.196-2.968-.192-.54-.495-.818-1.053-.897-1.41-.2-2.154-1.1-2.162-2.56a409.82 409.82 0 0 1 0-4.15c.01-1.412.727-2.31 2.095-2.52.645-.097.946-.417 1.157-1.029.353-1.023.787-2.02 1.229-3.008.21-.467.198-.847-.095-1.268-.937-1.353-.84-2.385.3-3.553.925-.944 1.846-1.89 2.771-2.83.982-.995 2.104-1.109 3.216-.26.522.399.964.386 1.533.106.913-.45 1.859-.837 2.814-1.188.555-.203.866-.505.966-1.117C16.24.68 17.053.003 18.541.002c1.337-.002 2.674-.003 4.01 0 1.356.002 2.243.74 2.44 2.098.096.664.403 1.01 1.026 1.23.988.35 1.95.783 2.898 1.235.493.234.884.215 1.324-.11 1.234-.913 2.296-.817 3.365.271.947.965 1.895 1.929 2.836 2.9.971 1.004 1.074 2.15.25 3.293-.371.511-.388.95-.12 1.524.46.98.845 1.995 1.217 3.013.188.516.473.79 1.017.873 1.47.22 2.188 1.102 2.192 2.634.004 1.35.007 2.701 0 4.052-.009 1.462-.756 2.363-2.16 2.563-.558.08-.86.354-1.056.895-.38 1.05-.8 2.084-1.255 3.102-.216.485-.215.873.092 1.312.921 1.318.825 2.378-.288 3.519-.798.818-1.588 1.644-2.403 2.445-.242.238-.28.45-.196.772.303 1.162.589 2.328.856 3.499.718 3.152-.796 6.556-3.508 7.935-.86.436-1.776.595-2.72.645-1.508.078-3.018.154-4.527.234-.124.007-.248.042-.371.064l-6.016-.001Zm15.811-14.523 2.048-2.097c.627-.645.666-.926.151-1.644-.652-.908-.684-1.824-.2-2.835.445-.931.844-1.893 1.166-2.875.366-1.113 1.064-1.728 2.184-1.896.736-.11.955-.379.959-1.137.005-1.35.005-2.701 0-4.052-.003-.782-.23-1.057-.984-1.166-1.105-.16-1.79-.776-2.152-1.866-.32-.966-.7-1.92-1.145-2.832-.52-1.06-.486-2.014.213-2.963.452-.615.413-.957-.11-1.493-.931-.957-1.866-1.913-2.8-2.866-.545-.556-.879-.597-1.498-.121-.913.701-1.838.743-2.855.221-.82-.422-1.668-.818-2.543-1.091-1.21-.379-1.94-1.094-2.103-2.407-.083-.664-.387-.886-1.037-.887-1.32-.004-2.642-.001-3.962-.001-.831 0-1.088.196-1.207 1.039-.16 1.147-.8 1.808-1.85 2.178-.914.321-1.824.68-2.682 1.13-1.067.559-2.023.535-2.98-.217-.556-.438-.916-.385-1.422.13-.914.93-1.823 1.863-2.734 2.795-.647.663-.679.922-.144 1.68.621.879.662 1.772.212 2.75-.45.984-.86 1.99-1.22 3.013-.365 1.04-1.033 1.64-2.098 1.803-.818.125-1.02.375-1.022 1.231a997.23 997.23 0 0 0 0 3.907c.001.863.186 1.095 1.016 1.233.972.16 1.66.656 2.03 1.62.439 1.149.916 2.28 1.387 3.416.329.79.3 1.549-.147 2.282-.119.193-.26.371-.375.565-.198.337-.234.716.037.999.797.834 1.627 1.635 2.468 2.472.05-.14.087-.276.144-.403.576-1.337 1.134-2.683 1.746-4.001.163-.35.16-.545-.09-.843-4.264-5.079-4.415-12.86-.368-18.129.383-.499.759-.607 1.13-.324.363.277.372.722.017 1.2-2.304 3.102-3.091 6.582-2.43 10.4.38 2.202 1.308 4.157 2.724 5.895l2.176-2.966c-.688-.534-1.063-1.228-1.01-2.133.054-.91.557-1.52 1.288-1.987-1.058-1.68-1.855-3.44-2.548-5.265-.784-2.066-.01-2.599 1.535-3.09.69-.218 1.415-.323 2.095-.472.03-.367-.007-.774.11-1.128.216-.662.809-.864 1.416-1.007 3.12-.735 6.238-.732 9.364-.021 1.092.248 1.811.851 1.542 2.109-.005.025.022.056.046.11.096.011.206.01.31.037.902.242 1.826.422 2.694.756.877.339 1.144 1.072.851 1.99-.206.648-.41 1.303-.694 1.918-.634 1.379-1.315 2.734-1.98 4.106 1.568 1.008 1.592 2.955.194 4.095l2.158 2.935c2.385-2.798 3.406-6.765 2.752-10.622-1.41-8.286-10.302-13.08-17.764-9.554-.831.393-1.591.943-2.38 1.427-.405.249-.826.197-1.056-.148-.225-.339-.146-.734.208-1.03.073-.062.152-.118.23-.174 3.478-2.482 7.299-3.257 11.432-2.324 6.208 1.403 10.808 7.181 10.949 13.682.08 3.701-1.04 6.967-3.364 9.801-.155.19-.231.326-.105.594.7 1.49 1.372 2.996 2.077 4.548Zm-12.808 13.13a7.91 7.91 0 0 0 .003-.176c1.543 0 3.086.01 4.628-.005.684-.007 1.37-.038 2.048-.111.977-.106 1.998-.108 2.912-.423 2.273-.784 3.705-3.637 3.206-6.159-.177-.89-.434-1.764-.623-2.653-.96-4.52-2.854-8.565-5.865-12.039-.139-.16-.38-.324-.576-.325-3.786-.02-7.572-.017-11.359-.005a.715.715 0 0 0-.485.216c-1.798 2.09-3.266 4.394-4.353 6.953-1.045 2.46-1.596 5.068-2.164 7.664-.172.783-.143 1.663.005 2.459.44 2.374 2.3 4.074 4.57 4.212 2.682.165 5.368.265 8.053.392Zm8.829-32.996a5.98 5.98 0 0 0-2.49-.689c-.371-.022-.55.068-.668.47-.476 1.628-1.203 3.143-2.09 4.577-.092.147-.218.36-.347.376-.272.033-.61.04-.825-.099-.313-.204-.305-.571-.125-.915.49-.928 1.046-1.83 1.436-2.8.48-1.192.82-2.442 1.238-3.727-3.323-.866-6.494-.867-9.775-.008.313 1.053.533 2.074.921 3.022.477 1.164 1.085 2.272 1.653 3.396.242.477.23.829-.096 1.092-.366.296-.82.178-1.12-.306a20.63 20.63 0 0 1-2.145-4.661c-.051-.16-.23-.39-.357-.396-.967-.043-1.879.195-2.759.675.675 2.231 1.633 4.287 2.929 6.174.079.116.286.196.435.198 3.61.01 7.222.011 10.831-.003a.645.645 0 0 0 .46-.244c1.265-1.87 2.215-3.898 2.893-6.132Zm-8.788 9.628c1.97 0 3.942.002 5.913 0 .206 0 .417.004.616-.04.404-.088.63-.362.657-.785.027-.422-.16-.727-.545-.874a1.487 1.487 0 0 0-.514-.074c-4.086-.004-8.17-.004-12.256 0a1.42 1.42 0 0 0-.469.065c-.41.149-.603.464-.565.906.036.424.273.686.679.766.186.036.38.034.569.034 1.973.002 3.944.002 5.915.002Z" fill="#2069C4"/><path d="M20.37 28.484c4.522-.039 8.377 3.525 8.718 7.956.367 4.768-2.798 8.948-7.327 9.56-3.599.487-6.515-.837-8.483-3.942-1.948-3.074-1.886-6.288-.07-9.444.129-.222.404-.436.643-.485.191-.04.551.129.623.298.1.242.104.627-.022.85-.508.897-.879 1.83-1.053 2.855-.73 4.3 2.588 8.416 6.87 8.508 3.559.075 6.638-2.42 7.286-5.904.666-3.578-1.218-7.067-4.555-8.331-2.047-.775-4.059-.597-5.989.46-.098.053-.19.118-.289.169-.435.226-.828.129-1.031-.253-.191-.357-.08-.76.304-1.002a8.31 8.31 0 0 1 3.672-1.26c.27-.026.541-.027.704-.035Z" fill="#2069C4"/><path d="M21.195 32.77c.257.103.5.184.727.297.426.215.59.577.454.948-.136.369-.492.53-.95.426-.073-.017-.146-.038-.257-.068 0 .632-.014 1.232.013 1.832.005.114.146.276.26.322 1.08.435 1.758 1.187 1.753 2.412-.005 1.266-.636 2.14-1.758 2.66-.114.054-.241.206-.258.327-.089.67-.286.947-.73.945-.446 0-.673-.303-.716-.951-.003-.047-.022-.093-.013-.059-.54-.243-1.042-.435-1.512-.691-.415-.227-.522-.679-.312-1.037.211-.36.611-.438 1.04-.21.233.123.472.238.798.402 0-.992.022-1.879-.021-2.763-.007-.142-.292-.292-.471-.398-1.351-.804-1.663-2.365-.668-3.551.24-.285.61-.452.906-.69.105-.086.229-.214.247-.337.085-.61.305-.88.756-.864.442.017.654.302.689.925.001.034.011.065.023.122Zm.012 5.293v1.973c.755-.645.754-1.503 0-1.973ZM19.7 35.751v-1.245c-.293.443-.37.792 0 1.245Z" fill="#2069C4"/></svg>