<svg width="46" height="47" fill="none" xmlns="http://www.w3.org/2000/svg"><path d="M36.24 23.42c.647.065 1.225.107 1.796.186.621.086.819.342.831.986.003.157.006.318.045.469.185.715.756.894 1.316.421.944-.798.984-.846 1.927-.031.755.65 1.422 1.412 2.08 2.168.39.452.327.726-.085 1.151-.098.1-.233.2-.269.322-.083.289-.248.664-.135.87.125.228.514.323.802.445.105.045.248.01.373.001.448-.031.72.186.818.611.303 1.306.354 2.62.09 3.94-.083.416-.338.624-.749.656-.093.007-.188-.003-.282-.002-.428.005-.846.087-1.016.532-.174.455.123.775.438 1.059.487.437.523.68.175 1.219-.674 1.044-1.498 1.941-2.548 2.618-.47.304-.725.28-1.12-.109-.046-.044-.087-.092-.134-.134-.294-.262-.63-.475-1.022-.325-.408.156-.444.574-.493.953-.01.077.004.157.006.236.014.537-.167.791-.707.872-.71.107-1.427.173-2.193.264-.021.176-.037.392-.076.603-.366 2.02-2.103 3.55-4.162 3.577-2.84.038-5.68.015-8.52.016-4.723.004-9.445.01-14.168 0-.228 0-.52-.088-.674-.242-1.838-1.831-3.652-3.688-5.48-5.53-.941-.949-1.907-1.874-2.837-2.833A1.054 1.054 0 0 1 0 37.72C-.003 26.76.009 15.796.007 4.834.007 2.83.799 1.3 2.626.46 3.285.157 4.076.044 4.81.03 7.272-.024 9.737.01 12.2.01c6.448 0 12.897-.002 19.345.002 2.289 0 4.008 1.243 4.534 3.3.123.481.153.997.154 1.497.01 6.01.006 12.02.006 18.029v.582Zm-1.541 19.253c-.666-.243-.765-.385-.785-1.08-.012-.425-.072-.854-.514-1.033-.455-.184-.774.107-1.056.425-.032.036-.06.075-.09.109-.336.36-.651.443-1.033.125-.804-.67-1.63-1.334-2.327-2.11-.795-.884-.716-.92-.043-1.904.17-.251.279-.692.173-.943-.093-.222-.52-.309-.808-.437-.078-.034-.186-.002-.28 0-.571.018-.81-.16-.924-.711-.238-1.153-.298-2.311-.116-3.479.133-.854.266-.98 1.113-1.006.427-.014.837-.1 1.002-.554.16-.447-.14-.74-.431-1.016-.045-.043-.1-.078-.144-.121-.308-.287-.366-.607-.139-.973.7-1.126 1.575-2.08 2.692-2.801.37-.239.704-.23 1.015.095.336.353.718.71 1.224.493.49-.21.484-.728.459-1.194-.026-.477.207-.777.647-.84.389-.053.468-.22.468-.585-.01-6.136-.005-12.274-.009-18.411-.001-2.016-1.229-3.258-3.224-3.259-8.929-.004-17.859.009-26.788-.01-1.974-.001-3.328 1.434-3.32 3.352.04 10.57.02 21.142.02 31.71v.578h.537c1.365 0 2.735.063 4.096-.014 2.263-.129 3.831 1.458 3.698 3.74-.08 1.383-.015 2.775-.015 4.163v.56h21.561c.157 0 .314.002.471-.008 1.617-.106 2.734-1.21 2.87-2.861Zm-3.189-3.007c1.686-1.252 3.401-.662 3.916 1.541.526 0 1.057-.007 1.59.003.39.008.553-.153.64-.558.331-1.531 1.79-2.18 3.165-1.441.162.087.317.185.537.315l1.476-1.595c-1.231-1.517-.705-3.546 1.512-3.9 0-.558-.004-1.122.001-1.687.003-.329-.115-.47-.474-.545-1.586-.334-2.252-1.812-1.488-3.223.081-.15.174-.294.304-.513l-1.578-1.485c-1.41 1.16-3.508.821-3.879-1.52-.557 0-1.118.004-1.678-.001-.353-.003-.487.151-.564.515-.312 1.497-1.711 2.176-3.064 1.518-.195-.095-.377-.215-.64-.365l-1.482 1.582c1.332 1.643.486 3.578-1.25 3.83-.111.017-.277.214-.282.332-.029.623-.013 1.247-.013 1.85.326.076.527.11.719.171.766.244 1.318.713 1.534 1.518.182.674-.011 1.283-.372 1.84-.137.213-.139.358.04.528.44.423.876.851 1.33 1.29ZM8.457 44.333c0-1.393.04-2.808-.015-4.22-.032-.812-.807-1.445-1.642-1.47-.658-.018-1.317-.005-1.975-.005h-2.03l5.662 5.695Z" fill="#1D53D2"/><path d="M20.642 25.392c-.838 1.895-2.72 1.911-3.77.499-.206.154-.426.297-.622.467a1.996 1.996 0 0 1-3.272-1.025c-.09-.355-.232-.52-.586-.647-.708-.255-1.155-.812-1.303-1.555-.063-.319-.182-.457-.492-.565-.755-.262-1.187-.854-1.359-1.623-.05-.226-.111-.332-.35-.404-.782-.238-1.294-.789-1.456-1.586-.163-.808.047-1.532.712-2.079.216-.178.425-.365.676-.582-.373-.44-.72-.852-1.137-1.347-.102.155-.15.257-.225.334-.35.364-.687.401-1.076.074a83.107 83.107 0 0 1-2.133-1.859c-.414-.374-.408-.76-.007-1.24 1.279-1.538 2.56-3.072 3.839-4.606.886-1.064 1.771-2.128 2.659-3.191.497-.596.777-.617 1.364-.11.572.494 1.14.99 1.707 1.488.625.55.661.728.28 1.502l3.181.82c.212.055.428.099.638.162.62.187 1.143.27 1.769-.213.555-.43 1.354-.54 2.046-.79.247-.09.495-.177.742-.265-.25-.716-.172-.96.416-1.389.66-.48 1.317-.965 1.977-1.446.552-.403.98-.338 1.353.227a4740.76 4740.76 0 0 1 5.878 8.902c.305.463.246.868-.188 1.198a81.008 81.008 0 0 1-2.206 1.613c-.518.366-.777.313-1.337-.206-.896.453-1.308 1.318-1.819 2.12.266.326.539.632.778.961.505.696.608 1.457.213 2.225-.393.763-1.039 1.149-1.914 1.14-.147-.001-.368.09-.43.208-.363.678-.958.96-1.665 1.1-.133.027-.314.104-.363.21-.503 1.088-1.336 1.588-2.518 1.478ZM17.61 9.728c-1.523-.387-2.944-.758-4.376-1.095-.134-.031-.365.111-.473.239-1.292 1.545-2.57 3.101-3.85 4.656-.097.117-.185.241-.278.364L9.89 15.37c1.327-.636 2.359-.318 3.085.9.065.108.227.24.334.23 1.35-.107 2.669 1.194 2.306 2.649-.024.094.024.267.096.317 1.108.757 1.33 1.762.83 2.99.624.484.953 1.1 1.064 1.91.05.365.463.723.79.988.11.088.52-.064.687-.219.259-.24.136-.563-.06-.811-.41-.52-.839-1.021-1.257-1.534-.363-.444-.393-.9-.081-1.179.45-.402.946-.368 1.356.105.503.583 1 1.174 1.5 1.76.375.439.7.507 1.034.22.29-.25.258-.559-.106-.984-.521-.61-1.047-1.216-1.566-1.829-.355-.42-.351-.846-.001-1.166.364-.334.8-.282 1.18.159.595.691 1.171 1.4 1.773 2.085.111.127.314.271.452.251.19-.028.46-.17.51-.324.063-.197.015-.514-.114-.677-.562-.717-1.173-1.397-1.764-2.091-.386-.455-.385-.869-.002-1.2.36-.312.748-.244 1.129.209.686.82 1.372 1.64 2.054 2.466.192.232.389.404.721.294.55-.18.64-.627.189-1.148-1.685-1.954-3.38-3.9-5.072-5.847-.297-.342-.6-.677-.925-1.043-.203.175-.373.333-.553.48-1.333 1.087-3.22 1.011-4.311-.171-.539-.585-.512-.995.108-1.508.748-.619 1.5-1.236 2.334-1.925Zm-.908 2.737c.697.403 1.26.292 1.785-.187.303-.275.617-.537.926-.805.55-.476.755-.457 1.354-.035.873.615 1.8 1.022 2.903.62.454-.166.847.019.971.396.14.424-.036.803-.514.96-.433.143-.89.215-1.389.33.946 1.054 1.873 2.09 2.756 3.073l2.005-2.257c-1.292-1.955-2.616-3.964-3.95-5.968-.065-.099-.235-.233-.305-.207-.974.342-2.044.551-2.885 1.107-1.29.853-2.418 1.947-3.657 2.973Zm12.681 2.154 1.237-.888-5.332-7.926-1.161.888 5.256 7.926ZM5.714 12.858l1.1.949 5.84-7.048c-.384-.332-.732-.632-1.098-.95l-5.842 7.049Zm8.476 5.84c-.15-.2-.259-.492-.423-.528-.237-.051-.578.002-.764.15-.7.555-1.358 1.164-2.026 1.76-.318.283-.37.644-.15.911.247.3.596.318.956.014a92.68 92.68 0 0 0 2.06-1.797c.13-.119.205-.298.347-.51Zm-4.793.524c.18-.072.313-.093.401-.166.55-.464 1.092-.937 1.63-1.416.341-.304.198-.633-.01-.924-.211-.294-.527-.237-.748-.053-.577.479-1.138.981-1.66 1.519-.12.123-.124.45-.057.64.06.166.294.272.444.4Zm3.021 3.47c.172.192.293.445.472.498a.87.87 0 0 0 .678-.111c.49-.36.938-.778 1.396-1.18.375-.328.426-.66.165-.978-.221-.272-.593-.272-.954.029-.481.398-.954.807-1.416 1.23-.128.118-.201.297-.34.511Zm2.46 2.72c.567-.013 1.024-.487 1.115-1.028.026-.16.02-.432-.067-.48-.182-.103-.462-.178-.638-.106a1.924 1.924 0 0 0-.732.558c-.121.152-.19.46-.118.627.088.207.344.343.44.428ZM14.383 33.636h9.273c.157 0 .318-.01.47.02.352.068.55.302.568.656.02.349-.133.627-.473.732-.205.063-.433.068-.65.068-6.136.004-12.271.003-18.405.002-.187 0-.378-.005-.562-.037-.384-.067-.563-.33-.566-.702-.002-.399.206-.655.603-.724.153-.027.312-.014.47-.014l9.272-.001ZM14.39 29.664h9.227c.172 0 .35-.008.516.026.35.072.547.307.563.663.014.348-.139.622-.483.727-.19.058-.4.064-.602.064-6.167.003-12.334.003-18.5.001-.173 0-.347 0-.515-.032-.38-.075-.559-.337-.559-.711 0-.376.19-.631.564-.71.167-.035.342-.027.514-.027l9.276-.001ZM18.933 37.605c2.009 0 4.017-.002 6.026.003.628 0 .986.439.796.968-.137.38-.448.496-.825.495-1.113-.003-2.228 0-3.342 0-2.887 0-5.775 0-8.661-.002-.618-.001-.876-.194-.913-.651-.041-.512.237-.807.8-.81 1.647-.005 3.295-.002 4.943-.002h1.176ZM23.91 41.577c1.225 0 2.448-.002 3.672.001.562.002.84.248.84.724 0 .482-.267.723-.839.724-2.478.004-4.956.004-7.435 0-.552-.001-.85-.265-.851-.723 0-.46.3-.723.849-.725 1.255-.003 2.51 0 3.765 0ZM36.31 28.876c2.349-.005 4.334 1.985 4.325 4.334-.01 2.362-1.94 4.302-4.289 4.31a4.335 4.335 0 0 1-4.34-4.305 4.325 4.325 0 0 1 4.304-4.339Zm2.848 4.251a2.853 2.853 0 0 0-2.828-2.869c-1.562-.009-2.844 1.271-2.849 2.846-.005 1.554 1.292 2.88 2.826 2.887 1.532.006 2.849-1.317 2.851-2.864Z" fill="#1D53D2"/></svg>