<svg width="34" height="34" fill="none" xmlns="http://www.w3.org/2000/svg"><path d="M5.665 10.746H7.61c-.927-1.919-1.083-3.868-.383-5.858.526-1.493 1.458-2.688 2.757-3.589 2.608-1.81 6.103-1.712 8.636.193 2.26 1.7 3.976 5.343 2.115 9.246h6.46v-.383c0-2.078-.006-4.155.009-6.233.002-.203.08-.458.219-.595.303-.298.83-.095.884.341.028.237.144.312.32.4 1.635.814 3.268 1.633 4.9 2.453.426.214.59.53.385.834-.107.16-.31.283-.496.359-1.484.605-2.974 1.194-4.461 1.79-.667.266-.667.267-.603 1.059h.37c.968 0 1.936-.004 2.903 0 1.401.007 2.368.962 2.37 2.354.002 6.173.002 12.347 0 18.522-.002 1.391-.972 2.36-2.364 2.36-9.666.001-19.332.002-28.997 0-1.539 0-2.632-1.097-2.632-2.637C0 24.138 0 16.912.003 9.689 0 8.179 1.021 7.018 2.498 6.815c1.332-.184 2.653.682 3.04 2.009.078.268.105.555.122.836.02.351.005.704.005 1.086Zm24.362 6.2c.457.19.625.42.555.745-.07.319-.283.44-.779.44-.341 0-.685-.014-1.026.007a.894.894 0 0 0-.451.139 705.236 705.236 0 0 0-5.446 4.004.587.587 0 0 0-.21.392c-.044.896-.692 1.611-1.56 1.687-.857.075-1.714-.49-1.78-1.36-.044-.608-.378-.85-.778-1.128-.223-.155-.441-.317-.661-.475l-2.666-1.922c-.591.39-1.2.496-1.82.164-.224-.12-.353-.074-.528.063-.976.762-1.961 1.514-2.943 2.27-.73.56-1.455 1.126-2.192 1.678-.373.28-.821.14-.931-.276-.077-.294.072-.489.296-.66a911.598 911.598 0 0 0 5.162-3.972c.106-.083.207-.26.197-.385-.083-1.026.643-1.895 1.632-1.923 1.02-.03 1.786.776 1.766 1.833a.548.548 0 0 0 .19.395c.985.73 1.984 1.443 2.98 2.16.265.192.532.381.79.566.793-.586 1.554-.546 2.31.025l4.373-3.215c-.365-.066-.702-.024-1.021-.082-.189-.034-.425-.19-.5-.354-.067-.15.014-.405.103-.576.059-.113.248-.157.405-.248 0-.526-.009-1.08.001-1.634.013-.643.477-1.108 1.12-1.134.185-.008.37-.001.551-.001V11.9h-.414c-2.124 0-4.248.006-6.373-.007-.283-.001-.47.075-.661.293-2.778 3.179-7.607 3.441-10.594.506-.639-.627-1.237-.897-2.085-.801-.449.05-.908.008-1.376.008v.477c0 5.1.002 10.2-.001 15.3-.001 1.393-.97 2.352-2.364 2.359-.271 0-.543-.01-.814.005a1.405 1.405 0 0 0-1.225 1.99c.285.623.803.842 1.466.842 9.607-.004 19.213-.002 28.82-.004.886 0 1.314-.435 1.314-1.333v-18.31c0-.094.004-.189-.004-.283-.045-.527-.441-1.005-.964-1.02-1.175-.035-2.353-.011-3.544-.011v2.255h.403c.825.007 1.273.45 1.275 1.269.004.504.002 1.011.002 1.512Zm-15.876-3.35c3.43.005 6.23-2.774 6.244-6.195.013-3.452-2.763-6.26-6.202-6.272-3.445-.012-6.255 2.775-6.263 6.213-.008 3.446 2.78 6.249 6.221 6.254ZM1.131 29.329c.667-.442 1.35-.439 2.037-.432.945.01 1.362-.412 1.362-1.353V10.406c0-.284.008-.567-.003-.85a1.697 1.697 0 0 0-1.682-1.627c-.986-.006-1.713.755-1.713 1.81C1.13 16.16 1.13 22.58 1.13 29.001v.328ZM28.349 5.398v3.326l3.693-1.478-3.693-1.848Zm-1.704 11.58h2.226v-1.656h-2.226v1.655Zm-12.476.588a.57.57 0 0 0-.571.548.571.571 0 0 0 .575.58.566.566 0 0 0 .552-.565.567.567 0 0 0-.556-.563Zm6.787 5.662a.57.57 0 0 0 .57-.55.569.569 0 0 0-.576-.579.566.566 0 0 0-.551.567c0 .305.252.56.557.562Z" fill="#2AB981"/><path d="M7.93 25.933c.053-.07.136-.248.275-.347.537-.383 1.093-.74 1.642-1.107a.575.575 0 0 1 .693-.001c.363.242.738.468 1.085.73.209.157.36.137.557-.008.313-.232.653-.424.965-.656.312-.231.594-.221.904.004.334.242.692.45 1.028.69.156.112.271.125.436.006.353-.256.726-.484 1.084-.733.265-.185.515-.19.784-.007.515.353 1.04.692 1.557 1.044.347.237.42.546.213.84-.199.285-.494.326-.837.103-.376-.243-.739-.51-1.124-.737a.462.462 0 0 0-.393 0 13.12 13.12 0 0 0-1.061.702c-.299.215-.573.224-.876.007-.344-.247-.71-.465-1.054-.714-.162-.118-.28-.106-.437.007-.354.254-.726.484-1.084.732-.266.185-.518.182-.785-.002-.348-.242-.713-.46-1.055-.711-.18-.13-.312-.14-.497-.006-.371.271-.755.527-1.147.765-.408.248-.88-.023-.874-.6ZM19.267 28.764c-.001.59-.469.853-.88.602-.392-.24-.777-.495-1.148-.765-.186-.135-.318-.124-.497.007-.342.25-.706.47-1.055.712-.267.185-.519.183-.785-.002-.359-.248-.73-.478-1.085-.732-.159-.113-.277-.121-.438-.004-.344.248-.708.469-1.055.714-.287.204-.556.212-.846.006-.327-.232-.677-.432-.995-.675-.219-.167-.378-.15-.589.009-.33.247-.68.468-1.026.691-.344.221-.641.18-.839-.102-.203-.29-.126-.608.216-.84.518-.35 1.043-.69 1.56-1.042.269-.184.518-.181.784.003.36.247.732.476 1.088.727.157.11.273.123.437.004.352-.256.727-.483 1.086-.73.267-.185.518-.188.785-.004.34.234.694.448 1.028.69.196.141.347.172.557.01.326-.252.687-.458 1.026-.694.264-.183.516-.192.785-.009.526.359 1.066.697 1.584 1.066.15.105.244.287.302.358ZM20.643 15.906c.423-.298.732-.967 1.271-.426.538.54-.133.848-.41 1.241.145.153.296.298.431.456.226.265.216.569-.014.791-.219.212-.51.223-.766.012-.161-.133-.306-.287-.546-.515-.13.172-.232.35-.374.486-.254.244-.56.24-.789.024-.239-.227-.247-.546-.005-.82.125-.141.271-.261.445-.425-.142-.144-.263-.264-.381-.387-.29-.302-.32-.627-.08-.872.242-.248.575-.228.872.06.116.112.222.24.346.375ZM29.184 23.211c-.394.257-.698.969-1.254.395-.535-.552.166-.841.41-1.227-.25-.385-.921-.657-.394-1.257.262-.3.516-.198 1.24.441.136-.133.27-.275.414-.406.271-.247.593-.254.823-.029.231.228.23.554-.014.821-.127.138-.271.26-.43.41.168.178.318.323.453.482.226.266.217.57-.014.792-.22.212-.508.22-.767.015-.084-.066-.154-.147-.23-.22l-.237-.217ZM24.634 27.761c-.106 0-.213.009-.318-.002-.32-.032-.52-.253-.518-.563 0-.31.2-.532.52-.559.189-.015.378-.01.566-.005.376.013.6.217.609.55.009.345-.222.566-.61.581-.083.003-.166.001-.248.001v-.003ZM27.485 27.765c-.601 0-.844-.156-.855-.55-.012-.409.245-.583.856-.583.588 0 .839.17.839.567 0 .398-.25.566-.84.566ZM30.323 27.765c-.614 0-.869-.173-.86-.58.01-.396.254-.553.853-.553.595 0 .84.164.843.563.002.398-.25.57-.836.57ZM13.596 5.365c0-.625-.003-1.25 0-1.874.004-.417.22-.662.572-.658.348.004.56.25.56.67.003 1.097.009 2.192-.005 3.288a.72.72 0 0 0 .247.583c.402.38.787.778 1.178 1.171.338.342.372.66.106.92-.257.25-.57.216-.894-.105-.502-.497-1.016-.984-1.49-1.507a1.129 1.129 0 0 1-.26-.652c-.038-.61-.014-1.224-.014-1.836Z" fill="#2AB981"/></svg>