<svg width="44" height="44" fill="none" xmlns="http://www.w3.org/2000/svg"><path d="M14.238 34.756v1.4c-.114.008-.199.019-.282.019-3.425 0-6.849.01-10.274-.004C1.643 36.163.08 34.53.132 32.503c.05-1.82 1.54-3.347 3.352-3.42.395-.017.79-.003 1.244-.003L0 6.69l10.706-2.293V0H33.28v4.386L44 6.68c-.11.55-.21 1.078-.321 1.605-1.477 6.976-2.956 13.95-4.427 20.928-.038.178-.014.381.03.56 1.568 6.395-2.278 12.598-8.672 13.98-5.931 1.282-11.864-2.574-13.255-8.629-.067-.294-.168-.381-.456-.375-.866.018-1.732.006-2.66.006Zm17.634-33.34H12.148v27.665h2.113v1.415c.958 0 1.868.004 2.779-.008.09 0 .235-.082.26-.158.283-.88.546-1.764.829-2.691h-4.567V17.036h16.911v.512c0 1.184-.004 2.367.007 3.55.002.138.064.367.151.397.395.134.81.212 1.24.315V1.417Zm1.44 4.432c-.008.134-.015.206-.015.278 0 5.323.001 10.645-.007 15.968 0 .267.101.385.321.501 1.85.979 3.315 2.377 4.41 4.166.056.091.124.174.238.331l4.08-19.314-9.028-1.93Zm4.924 26.767c-.005-5.473-4.438-9.929-9.878-9.929-5.441 0-9.874 4.456-9.88 9.928-.006 5.49 4.442 9.962 9.9 9.952 5.437-.01 9.864-4.478 9.858-9.951Zm-23.266-6.38c1.233 0 2.434-.011 3.636.009.317.005.497-.104.684-.354 1.829-2.446 4.235-3.964 7.246-4.456.817-.133 1.654-.151 2.506-.224v-2.761H14.97v7.786ZM7.825 14.25c-1.764-1.168-2.042-3.032-1.497-4.405.669-1.686 2.134-2.387 4.369-2.088V5.854l-9.023 1.93 4.494 21.275h1.44l-1.324-6.29 4.401-.949v-1.443c-1.578.335-3.123.662-4.66.99-.869-2.768-.527-5.182 1.8-7.117Zm4.989 16.285c-.067-.02-.094-.034-.121-.034-3.04-.002-6.077-.022-9.116.02-.43.005-.915.237-1.275.501-.715.525-.934 1.48-.64 2.314a2.11 2.11 0 0 0 1.99 1.416c2.994.008 5.989.003 8.984.001.054 0 .11-.017.178-.03v-4.188Zm-2.117-15.92c-2.454.196-4.233 2.854-3.557 5.063l3.557-.762v-4.301ZM7.955 23.86c.375 1.776.738 3.486 1.098 5.182h1.636v-5.766c-.918.195-1.802.384-2.734.584Zm2.76-12.683v-1.02c0-.872-.24-1.117-1.124-1.12-.174 0-.351.03-.52.071-1.182.292-1.863 1.57-1.467 2.741.387 1.143 1.674 1.75 2.742 1.3.254-.107.398-.242.377-.555-.03-.47-.007-.945-.007-1.417Zm6.339 22.136V31.94H14.27v1.374h2.784Z" fill="#1934EF"/><path d="M13.573 15.553c-.283-2.876.584-5.152 3.25-6.56-.847-.854-1.28-1.854-1.144-3.044a3.444 3.444 0 0 1 1.249-2.32 3.504 3.504 0 0 1 4.795.265c1.085 1.132 1.588 3.264-.17 5.097 2.643 1.39 3.526 3.674 3.24 6.562h-11.22Zm1.394-1.415h8.43c.067-2.256-1.888-4.219-4.185-4.23-2.32-.014-4.285 1.926-4.245 4.23Zm6.331-7.763c.01-1.162-.924-2.13-2.073-2.15a2.13 2.13 0 0 0-2.158 2.108c-.01 1.18.946 2.15 2.117 2.15a2.133 2.133 0 0 0 2.114-2.108ZM30.455 2.835v1.366h-4.179V2.835h4.179ZM30.465 5.673V7.03h-4.193V5.673h4.193ZM30.455 8.516V9.88h-4.179V8.516h4.179ZM26.258 12.713V11.35h4.194v1.363h-4.194ZM30.455 14.196v1.365h-4.179v-1.365h4.179ZM39.781 13.043l-4.128-.883.286-1.388 4.134.883-.292 1.388ZM40.658 8.877l-.288 1.389-4.13-.885.288-1.385 4.13.88ZM34.184 19.103l4.123.888c-.097.472-.187.9-.288 1.383l-4.136-.881.3-1.39ZM35.056 14.935l.3-1.383 4.131.882-.295 1.387c-1.39-.299-2.744-.587-4.136-.886ZM38.9 17.211l-.291 1.39-4.132-.888c.1-.475.19-.9.29-1.384 1.382.296 2.725.583 4.132.882ZM28.367 41.146c-4.666.005-8.474-3.818-8.477-8.51-.004-4.697 3.791-8.526 8.457-8.53 4.668-.004 8.474 3.816 8.479 8.509.003 4.694-3.794 8.526-8.459 8.531Zm.015-15.62c-3.884-.009-7.065 3.157-7.081 7.05-.016 3.93 3.14 7.14 7.03 7.149 3.9.01 7.081-3.178 7.082-7.097.002-3.903-3.156-7.093-7.03-7.103Z" fill="#1934EF"/><path d="M28.375 28.34v-1.342c1.747-.176 4.424 1.08 5.342 3.842.805 2.42-.215 5.36-2.264 6.492l-.74-1.12c1.679-1.358 2.326-3.054 1.576-5.137-.577-1.604-1.914-2.506-3.914-2.734ZM29.996 38.102l-1.614.24v-1.42l1.2-.184.414 1.364Z" fill="#1934EF"/></svg>