<svg width="60" height="42" fill="none" xmlns="http://www.w3.org/2000/svg"><path d="M0 24.71c.375-.206.731-.524 1.13-.596 1.728-.308 3.467-.557 5.206-.795.363-.05.536-.215.685-.527.756-1.59 1.538-3.17 2.295-4.758.211-.44.477-.79.996-.79s.784.35.995.792c.76 1.588 1.54 3.167 2.297 4.757.149.312.32.47.685.52 1.76.236 3.51.526 5.267.776.485.069.877.226 1.028.735.146.492-.126.83-.448 1.146-1.263 1.245-2.531 2.484-3.767 3.755-.182.187-.308.56-.27.815.256 1.708.563 3.408.854 5.11.017.097.028.197.044.294.067.436.032.84-.36 1.12-.389.276-.765.18-1.153-.03-1.567-.846-3.144-1.674-4.707-2.53-.323-.177-.573-.194-.909-.01-1.542.852-3.103 1.667-4.654 2.504-.398.215-.786.366-1.207.078-.449-.306-.446-.756-.366-1.227.29-1.722.569-3.448.881-5.167.078-.431.025-.73-.31-1.049-1.127-1.071-2.221-2.179-3.323-3.277-.303-.303-.592-.623-.887-.935C0 25.187 0 24.95 0 24.71Zm3.233 1.003c.933 1.023 1.872 2.085 2.849 3.11.392.412.53.82.422 1.393-.266 1.399-.477 2.807-.729 4.324 1.024-.545 1.946-1.05 2.879-1.53 1.964-1.015 1.337-1.043 3.336 0 .928.483 1.847.981 2.87 1.526-.185-1.096-.367-2.068-.51-3.045-.36-2.444-.665-1.745 1.104-3.544.699-.71 1.35-1.467 2.023-2.203-.085-.017-.232-.054-.38-.078-1.254-.19-2.505-.4-3.763-.557-.553-.07-.872-.35-1.102-.839-.537-1.145-1.1-2.28-1.655-3.418-.071-.147-.164-.285-.284-.492-.638 1.311-1.256 2.526-1.82 3.766-.272.6-.632.97-1.307 1.006-.426.022-.85.12-1.273.184-.94.137-1.877.279-2.66.397ZM42.979 36.103c.25-1.494.46-3.113.81-4.702.212-.953.065-1.612-.692-2.27-1.14-.991-2.169-2.118-3.252-3.181-.326-.322-.578-.664-.42-1.153.164-.507.567-.638 1.049-.706 1.758-.247 3.51-.537 5.27-.776.346-.047.504-.203.643-.495.758-1.59 1.534-3.17 2.292-4.76.208-.437.461-.803.981-.814.55-.013.82.362 1.038.82.76 1.59 1.538 3.17 2.295 4.76.141.295.304.439.647.485 1.779.24 3.552.53 5.329.784.464.067.831.231.984.71.147.462-.073.803-.386 1.11-1.276 1.26-2.539 2.534-3.828 3.779-.278.269-.345.528-.281.893.303 1.701.589 3.404.88 5.107.02.118.068.249.037.354-.1.342-.14.818-.373.972-.261.172-.772.177-1.066.03a130.743 130.743 0 0 1-4.77-2.538c-.356-.196-.623-.177-.963.01a305.56 305.56 0 0 1-4.763 2.554c-.768.401-1.48-.03-1.461-.973Zm6.728-15.763c-.14.26-.239.422-.322.593-.545 1.12-1.098 2.236-1.626 3.365-.22.47-.532.745-1.061.802-.775.084-1.544.22-2.316.337-.64.099-1.282.202-1.753.277.93 1.025 1.867 2.089 2.839 3.118.372.395.56.793.414 1.336-.067.248-.094.506-.136.76l-.592 3.608c1.305-.694 2.522-1.314 3.71-1.988.568-.325 1.057-.367 1.636-.02.822.494 1.684.914 2.531 1.365.367.194.74.383 1.2.622-.256-1.531-.472-2.942-.736-4.342-.105-.553.035-.955.425-1.333.88-.845 1.733-1.72 2.613-2.566.147-.141.375-.195.566-.29l-.2-.262c-1.23-.181-2.457-.404-3.691-.528-.86-.086-1.424-.406-1.777-1.264-.492-1.194-1.114-2.337-1.724-3.59ZM23.29 40.879c.25-1.495.46-3.114.81-4.702.211-.954.066-1.613-.692-2.27-1.142-.992-2.169-2.119-3.252-3.182-.326-.322-.578-.664-.42-1.152.164-.508.567-.64 1.047-.707 1.758-.247 3.511-.537 5.27-.775.346-.048.504-.204.643-.495.758-1.59 1.534-3.171 2.292-4.761.208-.436.461-.803.982-.815.55-.013.819.361 1.037.82.76 1.59 1.538 3.169 2.296 4.76.14.295.303.438.647.484 1.778.24 3.552.53 5.328.785.464.067.832.23.985.708.147.462-.074.803-.386 1.11-1.277 1.26-2.54 2.534-3.829 3.779-.278.269-.345.528-.281.893.303 1.701.59 3.404.88 5.108.02.117.069.248.037.353-.1.342-.139.818-.373.972-.261.172-.772.177-1.066.03a130.743 130.743 0 0 1-4.77-2.538c-.354-.196-.623-.178-.963.01-1.58.865-3.17 1.715-4.763 2.554-.766.404-1.478-.025-1.46-.97Zm11.254-1.575c-.257-1.53-.479-2.954-.74-4.37-.096-.526.022-.922.397-1.286.92-.89 1.824-1.798 2.732-2.7.114-.113.21-.245.319-.376-.091-.052-.122-.084-.157-.09-.926-.139-1.855-.26-2.778-.413-2.375-.393-1.84.056-2.922-2.133-.45-.912-.894-1.827-1.394-2.85-.59 1.216-1.181 2.288-1.636 3.419-.388.961-.978 1.411-2.005 1.486-1.195.086-2.38.335-3.57.513l-.163.229c.184.107.4.178.55.323.878.847 1.733 1.72 2.613 2.566.393.379.551.797.403 1.339-.063.227-.085.468-.124.703l-.603 3.652c1.335-.713 2.568-1.345 3.775-2.027.537-.302.996-.305 1.533-.003 1.207.678 2.44 1.312 3.77 2.018ZM36.562 7.057c.157 3.972-2.458 6.453-5.045 7.084-3.904.95-7.842-1.996-8.067-6.08-.101-1.865.079-3.654 1.191-5.234C26.308.458 29.243-.56 31.954.304c2.694.858 4.538 3.36 4.607 6.25.005.201.001.4.001.503Zm-1.875.14c0-.198.005-.397 0-.596-.058-2.402-1.776-4.34-4.138-4.664-2.22-.306-4.46 1.178-5.027 3.452-.207.83-.225 1.737-.18 2.6.148 2.804 2.777 4.856 5.484 4.339 2.411-.462 3.864-2.39 3.861-5.13Z" fill="#2AB981"/><path d="M17.903 22.884c0-1.25-.137-2.496.03-3.696.317-2.267 2.255-3.892 4.51-3.9 5.037-.02 10.075-.024 15.113 0 2.543.013 4.568 2.082 4.626 4.663.021.969.003 1.938.003 2.938H40.31c0-.94.011-1.885-.003-2.83-.022-1.425-.955-2.56-2.316-2.82-.247-.049-.505-.047-.758-.047-4.824-.003-9.646-.003-14.47-.002-1.937 0-3.076 1.174-3.08 3.165v2.53h-1.78Z" fill="#2AB981"/></svg>